%TF.GenerationSoftware,KiCad,Pcbnew,8.0.5-8.0.5-0~ubuntu22.04.1*%
%TF.CreationDate,2025-01-07T12:52:55-03:00*%
%TF.ProjectId,tx_amplifier,74785f61-6d70-46c6-9966-6965722e6b69,v1.0*%
%TF.SameCoordinates,Original*%
%TF.FileFunction,Copper,L2,Bot*%
%TF.FilePolarity,Positive*%
%FSLAX46Y46*%
G04 Gerber Fmt 4.6, Leading zero omitted, Abs format (unit mm)*
G04 Created by KiCad (PCBNEW 8.0.5-8.0.5-0~ubuntu22.04.1) date 2025-01-07 12:52:55*
%MOMM*%
%LPD*%
G01*
G04 APERTURE LIST*
%TA.AperFunction,ComponentPad*%
%ADD10C,3.000000*%
%TD*%
%TA.AperFunction,ComponentPad*%
%ADD11R,3.000000X3.000000*%
%TD*%
%TA.AperFunction,SMDPad,CuDef*%
%ADD12R,4.200000X1.350000*%
%TD*%
%TA.AperFunction,ViaPad*%
%ADD13C,0.600000*%
%TD*%
G04 APERTURE END LIST*
D10*
%TO.P,J3,2,Pin_2*%
%TO.N,GND*%
X112000000Y-96000000D03*
D11*
%TO.P,J3,1,Pin_1*%
%TO.N,+3.3V*%
X117080000Y-96000000D03*
%TD*%
D12*
%TO.P,J2,2,Ext*%
%TO.N,GND*%
X127054000Y-112680000D03*
X127054000Y-107030000D03*
%TD*%
%TO.P,J1,2,Ext*%
%TO.N,GND*%
X102816000Y-107030000D03*
X102816000Y-112680000D03*
%TD*%
D13*
%TO.N,GND*%
X102819200Y-114249200D03*
X127050800Y-105410000D03*
X102819200Y-105460800D03*
X114071400Y-108178600D03*
X123291600Y-104698800D03*
X121539000Y-115620800D03*
X127050800Y-114249200D03*
X109882100Y-101854000D03*
%TD*%
%TA.AperFunction,Conductor*%
%TO.N,GND*%
G36*
X129442539Y-90520185D02*
G01*
X129488294Y-90572989D01*
X129499500Y-90624500D01*
X129499500Y-105771623D01*
X129479815Y-105838662D01*
X129427011Y-105884417D01*
X129357853Y-105894361D01*
X129332167Y-105887805D01*
X129261379Y-105861403D01*
X129261372Y-105861401D01*
X129201844Y-105855000D01*
X127454000Y-105855000D01*
X127454000Y-108205000D01*
X129201828Y-108205000D01*
X129201844Y-108204999D01*
X129261372Y-108198598D01*
X129261376Y-108198597D01*
X129332166Y-108172194D01*
X129401857Y-108167210D01*
X129463181Y-108200694D01*
X129496666Y-108262017D01*
X129499500Y-108288376D01*
X129499500Y-111421623D01*
X129479815Y-111488662D01*
X129427011Y-111534417D01*
X129357853Y-111544361D01*
X129332167Y-111537805D01*
X129261379Y-111511403D01*
X129261372Y-111511401D01*
X129201844Y-111505000D01*
X127454000Y-111505000D01*
X127454000Y-113855000D01*
X129201828Y-113855000D01*
X129201844Y-113854999D01*
X129261372Y-113848598D01*
X129261376Y-113848597D01*
X129332166Y-113822194D01*
X129401857Y-113817210D01*
X129463181Y-113850694D01*
X129496666Y-113912017D01*
X129499500Y-113938376D01*
X129499500Y-119375500D01*
X129479815Y-119442539D01*
X129427011Y-119488294D01*
X129375500Y-119499500D01*
X100624500Y-119499500D01*
X100557461Y-119479815D01*
X100511706Y-119427011D01*
X100500500Y-119375500D01*
X100500500Y-116893713D01*
X101649500Y-116893713D01*
X101649500Y-117106286D01*
X101682753Y-117316239D01*
X101748444Y-117518414D01*
X101844951Y-117707820D01*
X101969890Y-117879786D01*
X102120213Y-118030109D01*
X102292179Y-118155048D01*
X102292181Y-118155049D01*
X102292184Y-118155051D01*
X102481588Y-118251557D01*
X102683757Y-118317246D01*
X102893713Y-118350500D01*
X102893714Y-118350500D01*
X103106286Y-118350500D01*
X103106287Y-118350500D01*
X103316243Y-118317246D01*
X103518412Y-118251557D01*
X103707816Y-118155051D01*
X103729789Y-118139086D01*
X103879786Y-118030109D01*
X103879788Y-118030106D01*
X103879792Y-118030104D01*
X104030104Y-117879792D01*
X104030106Y-117879788D01*
X104030109Y-117879786D01*
X104155048Y-117707820D01*
X104155047Y-117707820D01*
X104155051Y-117707816D01*
X104251557Y-117518412D01*
X104317246Y-117316243D01*
X104350500Y-117106287D01*
X104350500Y-116893713D01*
X125649500Y-116893713D01*
X125649500Y-117106286D01*
X125682753Y-117316239D01*
X125748444Y-117518414D01*
X125844951Y-117707820D01*
X125969890Y-117879786D01*
X126120213Y-118030109D01*
X126292179Y-118155048D01*
X126292181Y-118155049D01*
X126292184Y-118155051D01*
X126481588Y-118251557D01*
X126683757Y-118317246D01*
X126893713Y-118350500D01*
X126893714Y-118350500D01*
X127106286Y-118350500D01*
X127106287Y-118350500D01*
X127316243Y-118317246D01*
X127518412Y-118251557D01*
X127707816Y-118155051D01*
X127729789Y-118139086D01*
X127879786Y-118030109D01*
X127879788Y-118030106D01*
X127879792Y-118030104D01*
X128030104Y-117879792D01*
X128030106Y-117879788D01*
X128030109Y-117879786D01*
X128155048Y-117707820D01*
X128155047Y-117707820D01*
X128155051Y-117707816D01*
X128251557Y-117518412D01*
X128317246Y-117316243D01*
X128350500Y-117106287D01*
X128350500Y-116893713D01*
X128317246Y-116683757D01*
X128251557Y-116481588D01*
X128155051Y-116292184D01*
X128155049Y-116292181D01*
X128155048Y-116292179D01*
X128030109Y-116120213D01*
X127879786Y-115969890D01*
X127707820Y-115844951D01*
X127518414Y-115748444D01*
X127518413Y-115748443D01*
X127518412Y-115748443D01*
X127316243Y-115682754D01*
X127316241Y-115682753D01*
X127316240Y-115682753D01*
X127154957Y-115657208D01*
X127106287Y-115649500D01*
X126893713Y-115649500D01*
X126845042Y-115657208D01*
X126683760Y-115682753D01*
X126481585Y-115748444D01*
X126292179Y-115844951D01*
X126120213Y-115969890D01*
X125969890Y-116120213D01*
X125844951Y-116292179D01*
X125748444Y-116481585D01*
X125682753Y-116683760D01*
X125649500Y-116893713D01*
X104350500Y-116893713D01*
X104317246Y-116683757D01*
X104251557Y-116481588D01*
X104155051Y-116292184D01*
X104155049Y-116292181D01*
X104155048Y-116292179D01*
X104030109Y-116120213D01*
X103879786Y-115969890D01*
X103707820Y-115844951D01*
X103518414Y-115748444D01*
X103518413Y-115748443D01*
X103518412Y-115748443D01*
X103316243Y-115682754D01*
X103316241Y-115682753D01*
X103316240Y-115682753D01*
X103154957Y-115657208D01*
X103106287Y-115649500D01*
X102893713Y-115649500D01*
X102845042Y-115657208D01*
X102683760Y-115682753D01*
X102481585Y-115748444D01*
X102292179Y-115844951D01*
X102120213Y-115969890D01*
X101969890Y-116120213D01*
X101844951Y-116292179D01*
X101748444Y-116481585D01*
X101682753Y-116683760D01*
X101649500Y-116893713D01*
X100500500Y-116893713D01*
X100500500Y-113975019D01*
X100520185Y-113907980D01*
X100572989Y-113862225D01*
X100637758Y-113851730D01*
X100668160Y-113854999D01*
X100668172Y-113855000D01*
X102416000Y-113855000D01*
X103216000Y-113855000D01*
X104963828Y-113855000D01*
X104963844Y-113854999D01*
X105023372Y-113848598D01*
X105023379Y-113848596D01*
X105158086Y-113798354D01*
X105158093Y-113798350D01*
X105273187Y-113712190D01*
X105273190Y-113712187D01*
X105359350Y-113597093D01*
X105359354Y-113597086D01*
X105409596Y-113462379D01*
X105409598Y-113462372D01*
X105415999Y-113402844D01*
X124454000Y-113402844D01*
X124460401Y-113462372D01*
X124460403Y-113462379D01*
X124510645Y-113597086D01*
X124510649Y-113597093D01*
X124596809Y-113712187D01*
X124596812Y-113712190D01*
X124711906Y-113798350D01*
X124711913Y-113798354D01*
X124846620Y-113848596D01*
X124846627Y-113848598D01*
X124906155Y-113854999D01*
X124906172Y-113855000D01*
X126654000Y-113855000D01*
X126654000Y-113080000D01*
X124454000Y-113080000D01*
X124454000Y-113402844D01*
X105415999Y-113402844D01*
X105416000Y-113402827D01*
X105416000Y-113080000D01*
X103216000Y-113080000D01*
X103216000Y-113855000D01*
X102416000Y-113855000D01*
X102416000Y-112280000D01*
X103216000Y-112280000D01*
X105416000Y-112280000D01*
X105416000Y-111957172D01*
X105415999Y-111957155D01*
X124454000Y-111957155D01*
X124454000Y-112280000D01*
X126654000Y-112280000D01*
X126654000Y-111505000D01*
X124906155Y-111505000D01*
X124846627Y-111511401D01*
X124846620Y-111511403D01*
X124711913Y-111561645D01*
X124711906Y-111561649D01*
X124596812Y-111647809D01*
X124596809Y-111647812D01*
X124510649Y-111762906D01*
X124510645Y-111762913D01*
X124460403Y-111897620D01*
X124460401Y-111897627D01*
X124454000Y-111957155D01*
X105415999Y-111957155D01*
X105409598Y-111897627D01*
X105409596Y-111897620D01*
X105359354Y-111762913D01*
X105359350Y-111762906D01*
X105273190Y-111647812D01*
X105273187Y-111647809D01*
X105158093Y-111561649D01*
X105158086Y-111561645D01*
X105023379Y-111511403D01*
X105023372Y-111511401D01*
X104963844Y-111505000D01*
X103216000Y-111505000D01*
X103216000Y-112280000D01*
X102416000Y-112280000D01*
X102416000Y-111505000D01*
X100668169Y-111505000D01*
X100637754Y-111508270D01*
X100568995Y-111495864D01*
X100517858Y-111448253D01*
X100500500Y-111384980D01*
X100500500Y-108325019D01*
X100520185Y-108257980D01*
X100572989Y-108212225D01*
X100637758Y-108201730D01*
X100668160Y-108204999D01*
X100668172Y-108205000D01*
X102416000Y-108205000D01*
X103216000Y-108205000D01*
X104963828Y-108205000D01*
X104963844Y-108204999D01*
X105023372Y-108198598D01*
X105023379Y-108198596D01*
X105158086Y-108148354D01*
X105158093Y-108148350D01*
X105273187Y-108062190D01*
X105273190Y-108062187D01*
X105359350Y-107947093D01*
X105359354Y-107947086D01*
X105409596Y-107812379D01*
X105409598Y-107812372D01*
X105415999Y-107752844D01*
X124454000Y-107752844D01*
X124460401Y-107812372D01*
X124460403Y-107812379D01*
X124510645Y-107947086D01*
X124510649Y-107947093D01*
X124596809Y-108062187D01*
X124596812Y-108062190D01*
X124711906Y-108148350D01*
X124711913Y-108148354D01*
X124846620Y-108198596D01*
X124846627Y-108198598D01*
X124906155Y-108204999D01*
X124906172Y-108205000D01*
X126654000Y-108205000D01*
X126654000Y-107430000D01*
X124454000Y-107430000D01*
X124454000Y-107752844D01*
X105415999Y-107752844D01*
X105416000Y-107752827D01*
X105416000Y-107430000D01*
X103216000Y-107430000D01*
X103216000Y-108205000D01*
X102416000Y-108205000D01*
X102416000Y-106630000D01*
X103216000Y-106630000D01*
X105416000Y-106630000D01*
X105416000Y-106307172D01*
X105415999Y-106307155D01*
X124454000Y-106307155D01*
X124454000Y-106630000D01*
X126654000Y-106630000D01*
X126654000Y-105855000D01*
X124906155Y-105855000D01*
X124846627Y-105861401D01*
X124846620Y-105861403D01*
X124711913Y-105911645D01*
X124711906Y-105911649D01*
X124596812Y-105997809D01*
X124596809Y-105997812D01*
X124510649Y-106112906D01*
X124510645Y-106112913D01*
X124460403Y-106247620D01*
X124460401Y-106247627D01*
X124454000Y-106307155D01*
X105415999Y-106307155D01*
X105409598Y-106247627D01*
X105409596Y-106247620D01*
X105359354Y-106112913D01*
X105359350Y-106112906D01*
X105273190Y-105997812D01*
X105273187Y-105997809D01*
X105158093Y-105911649D01*
X105158086Y-105911645D01*
X105023379Y-105861403D01*
X105023372Y-105861401D01*
X104963844Y-105855000D01*
X103216000Y-105855000D01*
X103216000Y-106630000D01*
X102416000Y-106630000D01*
X102416000Y-105855000D01*
X100668169Y-105855000D01*
X100637754Y-105858270D01*
X100568995Y-105845864D01*
X100517858Y-105798253D01*
X100500500Y-105734980D01*
X100500500Y-95999998D01*
X109994891Y-95999998D01*
X109994891Y-96000001D01*
X110015300Y-96285362D01*
X110076109Y-96564895D01*
X110176091Y-96832958D01*
X110313196Y-97084047D01*
X110329066Y-97105246D01*
X110329067Y-97105246D01*
X111259820Y-96174493D01*
X111269207Y-96221684D01*
X111326497Y-96359995D01*
X111409670Y-96484472D01*
X111515528Y-96590330D01*
X111640005Y-96673503D01*
X111778316Y-96730793D01*
X111825505Y-96740179D01*
X110894752Y-97670932D01*
X110915954Y-97686804D01*
X110915960Y-97686807D01*
X111167042Y-97823908D01*
X111167041Y-97823908D01*
X111435104Y-97923890D01*
X111714637Y-97984699D01*
X111999999Y-98005109D01*
X112000001Y-98005109D01*
X112285362Y-97984699D01*
X112564895Y-97923890D01*
X112832958Y-97823908D01*
X113084040Y-97686806D01*
X113105246Y-97670931D01*
X112174495Y-96740179D01*
X112221684Y-96730793D01*
X112359995Y-96673503D01*
X112484472Y-96590330D01*
X112590330Y-96484472D01*
X112673503Y-96359995D01*
X112730793Y-96221684D01*
X112740179Y-96174494D01*
X113670931Y-97105246D01*
X113686806Y-97084040D01*
X113823908Y-96832958D01*
X113923890Y-96564895D01*
X113984699Y-96285362D01*
X114005109Y-96000001D01*
X114005109Y-95999998D01*
X113984699Y-95714637D01*
X113923890Y-95435104D01*
X113823908Y-95167041D01*
X113686807Y-94915960D01*
X113686804Y-94915954D01*
X113670932Y-94894752D01*
X112740179Y-95825505D01*
X112730793Y-95778316D01*
X112673503Y-95640005D01*
X112590330Y-95515528D01*
X112484472Y-95409670D01*
X112359995Y-95326497D01*
X112221684Y-95269207D01*
X112174494Y-95259820D01*
X112982178Y-94452135D01*
X115079500Y-94452135D01*
X115079500Y-97547870D01*
X115079501Y-97547876D01*
X115085908Y-97607483D01*
X115136202Y-97742328D01*
X115136206Y-97742335D01*
X115222452Y-97857544D01*
X115222455Y-97857547D01*
X115337664Y-97943793D01*
X115337671Y-97943797D01*
X115472517Y-97994091D01*
X115472516Y-97994091D01*
X115479444Y-97994835D01*
X115532127Y-98000500D01*
X118627872Y-98000499D01*
X118687483Y-97994091D01*
X118822331Y-97943796D01*
X118937546Y-97857546D01*
X119023796Y-97742331D01*
X119074091Y-97607483D01*
X119080500Y-97547873D01*
X119080499Y-94452128D01*
X119074091Y-94392517D01*
X119050425Y-94329066D01*
X119023797Y-94257671D01*
X119023793Y-94257664D01*
X118937547Y-94142455D01*
X118937544Y-94142452D01*
X118822335Y-94056206D01*
X118822328Y-94056202D01*
X118687482Y-94005908D01*
X118687483Y-94005908D01*
X118627883Y-93999501D01*
X118627881Y-93999500D01*
X118627873Y-93999500D01*
X118627864Y-93999500D01*
X115532129Y-93999500D01*
X115532123Y-93999501D01*
X115472516Y-94005908D01*
X115337671Y-94056202D01*
X115337664Y-94056206D01*
X115222455Y-94142452D01*
X115222452Y-94142455D01*
X115136206Y-94257664D01*
X115136202Y-94257671D01*
X115085908Y-94392517D01*
X115079501Y-94452116D01*
X115079501Y-94452123D01*
X115079500Y-94452135D01*
X112982178Y-94452135D01*
X113105246Y-94329067D01*
X113105246Y-94329066D01*
X113084047Y-94313196D01*
X112832957Y-94176091D01*
X112832958Y-94176091D01*
X112564895Y-94076109D01*
X112285362Y-94015300D01*
X112000001Y-93994891D01*
X111999999Y-93994891D01*
X111714637Y-94015300D01*
X111435104Y-94076109D01*
X111167041Y-94176091D01*
X110915954Y-94313196D01*
X110894752Y-94329066D01*
X111825506Y-95259820D01*
X111778316Y-95269207D01*
X111640005Y-95326497D01*
X111515528Y-95409670D01*
X111409670Y-95515528D01*
X111326497Y-95640005D01*
X111269207Y-95778316D01*
X111259820Y-95825506D01*
X110329066Y-94894752D01*
X110313196Y-94915954D01*
X110176091Y-95167041D01*
X110076109Y-95435104D01*
X110015300Y-95714637D01*
X109994891Y-95999998D01*
X100500500Y-95999998D01*
X100500500Y-92893713D01*
X101649500Y-92893713D01*
X101649500Y-93106286D01*
X101682753Y-93316239D01*
X101748444Y-93518414D01*
X101844951Y-93707820D01*
X101969890Y-93879786D01*
X102120213Y-94030109D01*
X102292179Y-94155048D01*
X102292181Y-94155049D01*
X102292184Y-94155051D01*
X102481588Y-94251557D01*
X102683757Y-94317246D01*
X102893713Y-94350500D01*
X102893714Y-94350500D01*
X103106286Y-94350500D01*
X103106287Y-94350500D01*
X103316243Y-94317246D01*
X103518412Y-94251557D01*
X103707816Y-94155051D01*
X103729789Y-94139086D01*
X103879786Y-94030109D01*
X103879788Y-94030106D01*
X103879792Y-94030104D01*
X104030104Y-93879792D01*
X104030106Y-93879788D01*
X104030109Y-93879786D01*
X104155048Y-93707820D01*
X104155047Y-93707820D01*
X104155051Y-93707816D01*
X104251557Y-93518412D01*
X104317246Y-93316243D01*
X104350500Y-93106287D01*
X104350500Y-92893713D01*
X125649500Y-92893713D01*
X125649500Y-93106286D01*
X125682753Y-93316239D01*
X125748444Y-93518414D01*
X125844951Y-93707820D01*
X125969890Y-93879786D01*
X126120213Y-94030109D01*
X126292179Y-94155048D01*
X126292181Y-94155049D01*
X126292184Y-94155051D01*
X126481588Y-94251557D01*
X126683757Y-94317246D01*
X126893713Y-94350500D01*
X126893714Y-94350500D01*
X127106286Y-94350500D01*
X127106287Y-94350500D01*
X127316243Y-94317246D01*
X127518412Y-94251557D01*
X127707816Y-94155051D01*
X127729789Y-94139086D01*
X127879786Y-94030109D01*
X127879788Y-94030106D01*
X127879792Y-94030104D01*
X128030104Y-93879792D01*
X128030106Y-93879788D01*
X128030109Y-93879786D01*
X128155048Y-93707820D01*
X128155047Y-93707820D01*
X128155051Y-93707816D01*
X128251557Y-93518412D01*
X128317246Y-93316243D01*
X128350500Y-93106287D01*
X128350500Y-92893713D01*
X128317246Y-92683757D01*
X128251557Y-92481588D01*
X128155051Y-92292184D01*
X128155049Y-92292181D01*
X128155048Y-92292179D01*
X128030109Y-92120213D01*
X127879786Y-91969890D01*
X127707820Y-91844951D01*
X127518414Y-91748444D01*
X127518413Y-91748443D01*
X127518412Y-91748443D01*
X127316243Y-91682754D01*
X127316241Y-91682753D01*
X127316240Y-91682753D01*
X127154957Y-91657208D01*
X127106287Y-91649500D01*
X126893713Y-91649500D01*
X126845042Y-91657208D01*
X126683760Y-91682753D01*
X126481585Y-91748444D01*
X126292179Y-91844951D01*
X126120213Y-91969890D01*
X125969890Y-92120213D01*
X125844951Y-92292179D01*
X125748444Y-92481585D01*
X125682753Y-92683760D01*
X125649500Y-92893713D01*
X104350500Y-92893713D01*
X104317246Y-92683757D01*
X104251557Y-92481588D01*
X104155051Y-92292184D01*
X104155049Y-92292181D01*
X104155048Y-92292179D01*
X104030109Y-92120213D01*
X103879786Y-91969890D01*
X103707820Y-91844951D01*
X103518414Y-91748444D01*
X103518413Y-91748443D01*
X103518412Y-91748443D01*
X103316243Y-91682754D01*
X103316241Y-91682753D01*
X103316240Y-91682753D01*
X103154957Y-91657208D01*
X103106287Y-91649500D01*
X102893713Y-91649500D01*
X102845042Y-91657208D01*
X102683760Y-91682753D01*
X102481585Y-91748444D01*
X102292179Y-91844951D01*
X102120213Y-91969890D01*
X101969890Y-92120213D01*
X101844951Y-92292179D01*
X101748444Y-92481585D01*
X101682753Y-92683760D01*
X101649500Y-92893713D01*
X100500500Y-92893713D01*
X100500500Y-90624500D01*
X100520185Y-90557461D01*
X100572989Y-90511706D01*
X100624500Y-90500500D01*
X129375500Y-90500500D01*
X129442539Y-90520185D01*
G37*
%TD.AperFunction*%
%TD*%
M02*
