%TF.GenerationSoftware,KiCad,Pcbnew,8.0.2*%
%TF.CreationDate,2025-01-07T09:10:32-03:00*%
%TF.ProjectId,LumiCom_Transmitter,4c756d69-436f-46d5-9f54-72616e736d69,rev?*%
%TF.SameCoordinates,Original*%
%TF.FileFunction,Copper,L3,Inr*%
%TF.FilePolarity,Positive*%
%FSLAX46Y46*%
G04 Gerber Fmt 4.6, Leading zero omitted, Abs format (unit mm)*
G04 Created by KiCad (PCBNEW 8.0.2) date 2025-01-07 09:10:32*
%MOMM*%
%LPD*%
G01*
G04 APERTURE LIST*
%TA.AperFunction,ComponentPad*%
%ADD10R,1.700000X1.700000*%
%TD*%
%TA.AperFunction,ComponentPad*%
%ADD11O,1.700000X1.700000*%
%TD*%
%TA.AperFunction,HeatsinkPad*%
%ADD12C,0.500000*%
%TD*%
%TA.AperFunction,ComponentPad*%
%ADD13R,2.200000X2.200000*%
%TD*%
%TA.AperFunction,ComponentPad*%
%ADD14C,2.200000*%
%TD*%
%TA.AperFunction,ViaPad*%
%ADD15C,0.500000*%
%TD*%
G04 APERTURE END LIST*
D10*
%TO.N,VCC*%
%TO.C,JP_A1*%
X33475000Y4000000D03*
D11*
%TO.N,Net-(JP_A1-C)*%
X36015000Y4000000D03*
%TO.N,GND*%
X38554999Y4000000D03*
%TD*%
D12*
%TO.N,GND*%
%TO.C,U1*%
X24200000Y17800000D03*
X24200000Y16200000D03*
X24200001Y17000000D03*
X25000000Y17799999D03*
X25000000Y17000000D03*
X25000000Y16200001D03*
X25799999Y17000000D03*
X25800000Y17800000D03*
X25800000Y16200000D03*
%TD*%
D10*
%TO.N,GND*%
%TO.C,JP_A0*%
X11474999Y4000000D03*
D11*
%TO.N,Net-(JP_A0-C)*%
X14014999Y4000000D03*
%TO.N,VCC*%
X16554998Y4000000D03*
%TD*%
D13*
%TO.N,Net-(J1-Pin_1)*%
%TO.C,J1*%
X23730000Y4000000D03*
D14*
%TO.N,GND*%
X26270000Y4000000D03*
%TD*%
D15*
%TO.N,GND*%
X29000000Y15000000D03*
X29000000Y13000000D03*
X23000000Y14000000D03*
X27000000Y14000000D03*
X26000000Y13000000D03*
X22000000Y10000000D03*
X28000000Y14000000D03*
X21000000Y13000000D03*
X21000000Y15000000D03*
X19000000Y11000000D03*
X19000000Y14000000D03*
X31000000Y24000000D03*
X21000000Y10000000D03*
X20000000Y14000000D03*
X20000000Y11000000D03*
X24000000Y11000000D03*
X20000000Y10000000D03*
X20000000Y12000000D03*
X11000000Y12000000D03*
X21000000Y24000000D03*
X15000000Y8000000D03*
X23000000Y13000000D03*
X22890000Y14890000D03*
X25000000Y14000000D03*
X20000000Y15000000D03*
X19000000Y13000000D03*
X28000000Y13000000D03*
X24000000Y13000000D03*
X28000000Y11000000D03*
X22000000Y15000000D03*
X23000000Y11000000D03*
X31000000Y14000000D03*
X26000000Y12000000D03*
X19000000Y12000000D03*
X30000000Y12000000D03*
X31000000Y13000000D03*
X22000000Y14000000D03*
X24000000Y12000000D03*
X35000000Y8000000D03*
X31000000Y10000000D03*
X19000000Y24000000D03*
X29000000Y14000000D03*
X14000000Y25000000D03*
X23000000Y12000000D03*
X29000000Y22000000D03*
X30000000Y13000000D03*
X19000000Y10000000D03*
X22000000Y12000000D03*
X19000000Y22000000D03*
X31000000Y22000000D03*
X36000000Y25000000D03*
X27000000Y13000000D03*
X25000000Y27000000D03*
X29000000Y10000000D03*
X22000000Y13000000D03*
X29000000Y11000000D03*
X19000000Y15000000D03*
X28000000Y15000000D03*
X28000000Y12000000D03*
X20000000Y13000000D03*
X26000000Y11000000D03*
X21000000Y12000000D03*
X39000000Y12000000D03*
X21000000Y14000000D03*
X22000000Y11000000D03*
X30000000Y11000000D03*
X27000000Y11000000D03*
X21000000Y22000000D03*
X29000000Y24000000D03*
X28000000Y10000000D03*
X31000000Y12000000D03*
X24000000Y14000000D03*
X31000000Y11000000D03*
X30000000Y15000000D03*
X29000000Y12000000D03*
X23000000Y10000000D03*
X30000000Y10000000D03*
X27000000Y10000000D03*
X3000000Y30000000D03*
X27000000Y12000000D03*
X30000000Y14000000D03*
X31000000Y15000000D03*
X21000000Y11000000D03*
%TO.N,VCC*%
X25000000Y32000000D03*
X12000000Y30000000D03*
X27500000Y8500000D03*
X11000000Y22000000D03*
X25000000Y21000000D03*
X39000000Y22000000D03*
%TO.N,Net-(JP_A0-C)*%
X26000000Y14000000D03*
%TO.N,Net-(JP_A1-C)*%
X28000000Y16000000D03*
%TD*%
%TA.AperFunction,Conductor*%
%TO.N,VCC*%
G36*
X48943039Y40980315D02*
G01*
X48988794Y40927511D01*
X49000000Y40876000D01*
X49000000Y1124000D01*
X48980315Y1056961D01*
X48927511Y1011206D01*
X48876000Y1000000D01*
X27023257Y1000000D01*
X26956218Y1019685D01*
X26910463Y1072489D01*
X26900519Y1141647D01*
X26908696Y1171452D01*
X26943578Y1255668D01*
X26943580Y1255672D01*
X26970500Y1391007D01*
X26970500Y1528993D01*
X26970500Y1528996D01*
X26943581Y1664323D01*
X26943580Y1664324D01*
X26943580Y1664328D01*
X26943578Y1664333D01*
X26890778Y1791805D01*
X26890771Y1791818D01*
X26814114Y1906542D01*
X26814111Y1906546D01*
X26716545Y2004112D01*
X26716541Y2004115D01*
X26601817Y2080772D01*
X26601804Y2080779D01*
X26474332Y2133579D01*
X26474322Y2133582D01*
X26338995Y2160500D01*
X26338993Y2160500D01*
X26201007Y2160500D01*
X26201005Y2160500D01*
X26065677Y2133582D01*
X26065667Y2133579D01*
X25938195Y2080779D01*
X25938182Y2080772D01*
X25823458Y2004115D01*
X25823454Y2004112D01*
X25725888Y1906546D01*
X25725885Y1906542D01*
X25649228Y1791818D01*
X25649221Y1791805D01*
X25596421Y1664333D01*
X25596418Y1664323D01*
X25569500Y1528996D01*
X25569500Y1528993D01*
X25569500Y1391007D01*
X25569500Y1391005D01*
X25569499Y1391005D01*
X25596418Y1255678D01*
X25596421Y1255668D01*
X25631304Y1171452D01*
X25638773Y1101982D01*
X25607497Y1039503D01*
X25547408Y1003852D01*
X25516743Y1000000D01*
X24483257Y1000000D01*
X24416218Y1019685D01*
X24370463Y1072489D01*
X24360519Y1141647D01*
X24368696Y1171452D01*
X24403578Y1255668D01*
X24403580Y1255672D01*
X24430500Y1391007D01*
X24430500Y1528993D01*
X24430500Y1528996D01*
X24403581Y1664323D01*
X24403580Y1664324D01*
X24403580Y1664328D01*
X24403578Y1664333D01*
X24350778Y1791805D01*
X24350771Y1791818D01*
X24274114Y1906542D01*
X24274111Y1906546D01*
X24176545Y2004112D01*
X24176541Y2004115D01*
X24061817Y2080772D01*
X24061804Y2080779D01*
X23934332Y2133579D01*
X23934322Y2133582D01*
X23798995Y2160500D01*
X23798993Y2160500D01*
X23661007Y2160500D01*
X23661005Y2160500D01*
X23525677Y2133582D01*
X23525667Y2133579D01*
X23398195Y2080779D01*
X23398182Y2080772D01*
X23283458Y2004115D01*
X23283454Y2004112D01*
X23185888Y1906546D01*
X23185885Y1906542D01*
X23109228Y1791818D01*
X23109221Y1791805D01*
X23056421Y1664333D01*
X23056418Y1664323D01*
X23029500Y1528996D01*
X23029500Y1528993D01*
X23029500Y1391007D01*
X23029500Y1391005D01*
X23029499Y1391005D01*
X23056418Y1255678D01*
X23056421Y1255668D01*
X23091304Y1171452D01*
X23098773Y1101982D01*
X23067497Y1039503D01*
X23007408Y1003852D01*
X22976743Y1000000D01*
X1124000Y1000000D01*
X1056961Y1019685D01*
X1011206Y1072489D01*
X1000000Y1124000D01*
X1000000Y4114742D01*
X2249500Y4114742D01*
X2249500Y3885259D01*
X2274446Y3695785D01*
X2279452Y3657762D01*
X2321724Y3500000D01*
X2338842Y3436113D01*
X2426650Y3224124D01*
X2426657Y3224110D01*
X2541392Y3025383D01*
X2681081Y2843339D01*
X2681089Y2843330D01*
X2843330Y2681089D01*
X2843338Y2681082D01*
X3025382Y2541393D01*
X3025385Y2541392D01*
X3025388Y2541389D01*
X3224112Y2426656D01*
X3224117Y2426654D01*
X3224123Y2426651D01*
X3315480Y2388810D01*
X3436113Y2338842D01*
X3657762Y2279452D01*
X3885266Y2249500D01*
X3885273Y2249500D01*
X4114727Y2249500D01*
X4114734Y2249500D01*
X4342238Y2279452D01*
X4563887Y2338842D01*
X4775888Y2426656D01*
X4974612Y2541389D01*
X5156661Y2681081D01*
X5156665Y2681086D01*
X5156670Y2681089D01*
X5318911Y2843330D01*
X5318914Y2843335D01*
X5318919Y2843339D01*
X5458611Y3025388D01*
X5573344Y3224112D01*
X5661158Y3436113D01*
X5720548Y3657762D01*
X5750500Y3885266D01*
X5750500Y4114734D01*
X5720548Y4342238D01*
X5661158Y4563887D01*
X5573344Y4775888D01*
X5504651Y4894869D01*
X10324499Y4894869D01*
X10324499Y3105144D01*
X10324501Y3105118D01*
X10327412Y3080013D01*
X10327414Y3080009D01*
X10372792Y2977236D01*
X10372793Y2977235D01*
X10452234Y2897794D01*
X10555008Y2852415D01*
X10580134Y2849500D01*
X12369863Y2849501D01*
X12369878Y2849503D01*
X12369881Y2849503D01*
X12394986Y2852414D01*
X12394987Y2852415D01*
X12394990Y2852415D01*
X12497764Y2897794D01*
X12577205Y2977235D01*
X12622584Y3080009D01*
X12625499Y3105135D01*
X12625498Y3843954D01*
X12645182Y3910991D01*
X12697986Y3956746D01*
X12767145Y3966690D01*
X12830701Y3937665D01*
X12868475Y3878887D01*
X12872969Y3855394D01*
X12877453Y3807007D01*
X12879243Y3787690D01*
X12932674Y3599901D01*
X12937595Y3582608D01*
X12937595Y3582606D01*
X13032631Y3391747D01*
X13159226Y3224110D01*
X13161127Y3221593D01*
X13318697Y3077948D01*
X13499980Y2965702D01*
X13698801Y2888679D01*
X13908389Y2849500D01*
X13908391Y2849500D01*
X14121607Y2849500D01*
X14121609Y2849500D01*
X14331197Y2888679D01*
X14530018Y2965702D01*
X14711301Y3077948D01*
X14868871Y3221593D01*
X14997365Y3391745D01*
X14997497Y3392011D01*
X15051269Y3500000D01*
X15519286Y3500000D01*
X15573057Y3392011D01*
X15701498Y3221929D01*
X15858998Y3078349D01*
X15859000Y3078347D01*
X16040200Y2966153D01*
X16040202Y2966152D01*
X16054998Y2960421D01*
X16054998Y2960422D01*
X17054998Y2960422D01*
X17069793Y2966152D01*
X17069795Y2966153D01*
X17250995Y3078347D01*
X17250997Y3078349D01*
X17408497Y3221929D01*
X17536938Y3392011D01*
X17590710Y3500000D01*
X17054998Y3500000D01*
X17054998Y2960422D01*
X16054998Y2960422D01*
X16054998Y3500000D01*
X15519286Y3500000D01*
X15051269Y3500000D01*
X15092402Y3582606D01*
X15092402Y3582607D01*
X15092404Y3582611D01*
X15150755Y3787690D01*
X15170428Y4000000D01*
X15164328Y4065826D01*
X16054998Y4065826D01*
X16054998Y3934174D01*
X16089073Y3807007D01*
X16154899Y3692993D01*
X16247991Y3599901D01*
X16362005Y3534075D01*
X16489172Y3500000D01*
X16620824Y3500000D01*
X16747991Y3534075D01*
X16862005Y3599901D01*
X16955097Y3692993D01*
X17020923Y3807007D01*
X17054998Y3934174D01*
X17054998Y4065826D01*
X17020923Y4192993D01*
X16955097Y4307007D01*
X16862005Y4400099D01*
X16747991Y4465925D01*
X16620824Y4500000D01*
X17054998Y4500000D01*
X17590710Y4500000D01*
X17590710Y4500001D01*
X17536938Y4607990D01*
X17408497Y4778072D01*
X17250997Y4921652D01*
X17250995Y4921654D01*
X17069799Y5033845D01*
X17069791Y5033849D01*
X17054998Y5039581D01*
X17054998Y4500000D01*
X16620824Y4500000D01*
X16489172Y4500000D01*
X16362005Y4465925D01*
X16247991Y4400099D01*
X16154899Y4307007D01*
X16089073Y4192993D01*
X16054998Y4065826D01*
X15164328Y4065826D01*
X15150755Y4212310D01*
X15092404Y4417389D01*
X15092402Y4417394D01*
X15092402Y4417395D01*
X15051269Y4500001D01*
X15519285Y4500001D01*
X15519286Y4500000D01*
X16054998Y4500000D01*
X16054998Y5039580D01*
X16054997Y5039581D01*
X16040204Y5033849D01*
X16040196Y5033845D01*
X15859000Y4921654D01*
X15858998Y4921652D01*
X15701498Y4778072D01*
X15573057Y4607990D01*
X15519285Y4500001D01*
X15051269Y4500001D01*
X14997366Y4608254D01*
X14868871Y4778407D01*
X14775915Y4863148D01*
X14711301Y4922052D01*
X14530018Y5034298D01*
X14530016Y5034299D01*
X14430607Y5072810D01*
X14331197Y5111321D01*
X14151732Y5144869D01*
X22329500Y5144869D01*
X22329500Y2855144D01*
X22329502Y2855118D01*
X22332413Y2830013D01*
X22332415Y2830009D01*
X22377793Y2727236D01*
X22377794Y2727235D01*
X22457235Y2647794D01*
X22560009Y2602415D01*
X22585135Y2599500D01*
X24874864Y2599501D01*
X24874879Y2599503D01*
X24874882Y2599503D01*
X24899987Y2602414D01*
X24899988Y2602415D01*
X24899991Y2602415D01*
X25002765Y2647794D01*
X25082206Y2727235D01*
X25127585Y2830009D01*
X25130500Y2855135D01*
X25130499Y2858533D01*
X25150174Y2925572D01*
X25202971Y2971334D01*
X25272128Y2981287D01*
X25330661Y2956400D01*
X25501365Y2823536D01*
X25501371Y2823532D01*
X25501374Y2823530D01*
X25705497Y2713064D01*
X25819487Y2673932D01*
X25925015Y2637703D01*
X25925017Y2637703D01*
X25925019Y2637702D01*
X26153951Y2599500D01*
X26153952Y2599500D01*
X26386048Y2599500D01*
X26386049Y2599500D01*
X26614981Y2637702D01*
X26834503Y2713064D01*
X27038626Y2823530D01*
X27046951Y2830009D01*
X27214504Y2960421D01*
X27221784Y2966087D01*
X27349860Y3105215D01*
X32325001Y3105215D01*
X32325002Y3105192D01*
X32327908Y3080131D01*
X32327909Y3080127D01*
X32373211Y2977526D01*
X32373214Y2977521D01*
X32452520Y2898215D01*
X32452525Y2898212D01*
X32555123Y2852911D01*
X32580206Y2850001D01*
X32974999Y2850001D01*
X32975000Y2850002D01*
X32975000Y3500000D01*
X32325001Y3500000D01*
X32325001Y3105215D01*
X27349860Y3105215D01*
X27378979Y3136847D01*
X27505924Y3331151D01*
X27599157Y3543700D01*
X27656134Y3768695D01*
X27665793Y3885259D01*
X27675300Y3999994D01*
X27675300Y4000007D01*
X27669846Y4065826D01*
X32975000Y4065826D01*
X32975000Y3934174D01*
X33009075Y3807007D01*
X33074901Y3692993D01*
X33167993Y3599901D01*
X33282007Y3534075D01*
X33409174Y3500000D01*
X33540826Y3500000D01*
X33667993Y3534075D01*
X33782007Y3599901D01*
X33875099Y3692993D01*
X33940925Y3807007D01*
X33975000Y3934174D01*
X33975000Y2850001D01*
X34369786Y2850001D01*
X34369808Y2850003D01*
X34394869Y2852909D01*
X34394873Y2852910D01*
X34497474Y2898212D01*
X34497479Y2898215D01*
X34576785Y2977521D01*
X34576788Y2977526D01*
X34622089Y3080123D01*
X34622089Y3080125D01*
X34624999Y3105206D01*
X34624999Y3849347D01*
X34644683Y3916386D01*
X34697487Y3962141D01*
X34766646Y3972085D01*
X34830202Y3943060D01*
X34867976Y3884282D01*
X34872470Y3860789D01*
X34877454Y3807007D01*
X34879244Y3787690D01*
X34932675Y3599901D01*
X34937596Y3582608D01*
X34937596Y3582606D01*
X35032632Y3391747D01*
X35159227Y3224110D01*
X35161128Y3221593D01*
X35318698Y3077948D01*
X35499981Y2965702D01*
X35698802Y2888679D01*
X35908390Y2849500D01*
X35908392Y2849500D01*
X36121608Y2849500D01*
X36121610Y2849500D01*
X36331198Y2888679D01*
X36530019Y2965702D01*
X36711302Y3077948D01*
X36868872Y3221593D01*
X36997366Y3391745D01*
X36997498Y3392011D01*
X37092403Y3582606D01*
X37092403Y3582607D01*
X37092405Y3582611D01*
X37150756Y3787690D01*
X37161528Y3903948D01*
X37187314Y3968883D01*
X37229630Y3999196D01*
X37338119Y3999196D01*
X37374502Y3978326D01*
X37406692Y3916314D01*
X37408470Y3903947D01*
X37417453Y3807007D01*
X37419243Y3787690D01*
X37472674Y3599901D01*
X37477595Y3582608D01*
X37477595Y3582606D01*
X37572631Y3391747D01*
X37699226Y3224110D01*
X37701127Y3221593D01*
X37858697Y3077948D01*
X38039980Y2965702D01*
X38238801Y2888679D01*
X38448389Y2849500D01*
X38448391Y2849500D01*
X38661607Y2849500D01*
X38661609Y2849500D01*
X38871197Y2888679D01*
X39070018Y2965702D01*
X39251301Y3077948D01*
X39408871Y3221593D01*
X39537365Y3391745D01*
X39537497Y3392011D01*
X39632402Y3582606D01*
X39632402Y3582607D01*
X39632404Y3582611D01*
X39690755Y3787690D01*
X39710428Y4000000D01*
X39699796Y4114742D01*
X44249500Y4114742D01*
X44249500Y3885259D01*
X44274446Y3695785D01*
X44279452Y3657762D01*
X44321724Y3500000D01*
X44338842Y3436113D01*
X44426650Y3224124D01*
X44426657Y3224110D01*
X44541392Y3025383D01*
X44681081Y2843339D01*
X44681089Y2843330D01*
X44843330Y2681089D01*
X44843338Y2681082D01*
X45025382Y2541393D01*
X45025385Y2541392D01*
X45025388Y2541389D01*
X45224112Y2426656D01*
X45224117Y2426654D01*
X45224123Y2426651D01*
X45315480Y2388810D01*
X45436113Y2338842D01*
X45657762Y2279452D01*
X45885266Y2249500D01*
X45885273Y2249500D01*
X46114727Y2249500D01*
X46114734Y2249500D01*
X46342238Y2279452D01*
X46563887Y2338842D01*
X46775888Y2426656D01*
X46974612Y2541389D01*
X47156661Y2681081D01*
X47156665Y2681086D01*
X47156670Y2681089D01*
X47318911Y2843330D01*
X47318914Y2843335D01*
X47318919Y2843339D01*
X47458611Y3025388D01*
X47573344Y3224112D01*
X47661158Y3436113D01*
X47720548Y3657762D01*
X47750500Y3885266D01*
X47750500Y4114734D01*
X47720548Y4342238D01*
X47661158Y4563887D01*
X47573344Y4775888D01*
X47458611Y4974612D01*
X47458608Y4974615D01*
X47458607Y4974618D01*
X47330588Y5141454D01*
X47318919Y5156661D01*
X47318918Y5156662D01*
X47318911Y5156670D01*
X47156670Y5318911D01*
X47156661Y5318919D01*
X46974617Y5458608D01*
X46775890Y5573343D01*
X46775876Y5573350D01*
X46563887Y5661158D01*
X46342238Y5720548D01*
X46304215Y5725554D01*
X46114741Y5750500D01*
X46114734Y5750500D01*
X45885266Y5750500D01*
X45885258Y5750500D01*
X45668715Y5721991D01*
X45657762Y5720548D01*
X45564076Y5695446D01*
X45436112Y5661158D01*
X45224123Y5573350D01*
X45224109Y5573343D01*
X45025382Y5458608D01*
X44843338Y5318919D01*
X44681081Y5156662D01*
X44541392Y4974618D01*
X44426657Y4775891D01*
X44426650Y4775877D01*
X44338842Y4563888D01*
X44338842Y4563887D01*
X44299590Y4417393D01*
X44279453Y4342241D01*
X44279451Y4342230D01*
X44249500Y4114742D01*
X39699796Y4114742D01*
X39690755Y4212310D01*
X39632404Y4417389D01*
X39632402Y4417394D01*
X39632402Y4417395D01*
X39537366Y4608254D01*
X39408871Y4778407D01*
X39315915Y4863148D01*
X39251301Y4922052D01*
X39070018Y5034298D01*
X39070016Y5034299D01*
X38970607Y5072810D01*
X38871197Y5111321D01*
X38661609Y5150500D01*
X38448389Y5150500D01*
X38238801Y5111321D01*
X38238798Y5111321D01*
X38238798Y5111320D01*
X38039981Y5034299D01*
X38039979Y5034298D01*
X37858698Y4922053D01*
X37701126Y4778407D01*
X37572631Y4608254D01*
X37477595Y4417395D01*
X37477595Y4417393D01*
X37419243Y4212311D01*
X37408470Y4096054D01*
X37382684Y4031117D01*
X37338119Y3999196D01*
X37229630Y3999196D01*
X37231877Y4000806D01*
X37195496Y4021676D01*
X37163306Y4083688D01*
X37161528Y4096055D01*
X37159798Y4114728D01*
X37150756Y4212310D01*
X37092405Y4417389D01*
X37092403Y4417394D01*
X37092403Y4417395D01*
X36997367Y4608254D01*
X36868872Y4778407D01*
X36775916Y4863148D01*
X36711302Y4922052D01*
X36530019Y5034298D01*
X36530017Y5034299D01*
X36430608Y5072810D01*
X36331198Y5111321D01*
X36121610Y5150500D01*
X35908390Y5150500D01*
X35698802Y5111321D01*
X35698799Y5111321D01*
X35698799Y5111320D01*
X35499982Y5034299D01*
X35499980Y5034298D01*
X35318699Y4922053D01*
X35161127Y4778407D01*
X35032632Y4608254D01*
X34937596Y4417395D01*
X34937596Y4417393D01*
X34879244Y4212311D01*
X34872470Y4139210D01*
X34846683Y4074273D01*
X34789883Y4033586D01*
X34720102Y4030066D01*
X34659496Y4064832D01*
X34627306Y4126845D01*
X34624999Y4150652D01*
X34624999Y4894786D01*
X34624997Y4894809D01*
X34622091Y4919870D01*
X34622090Y4919874D01*
X34576788Y5022475D01*
X34576785Y5022480D01*
X34497479Y5101786D01*
X34497474Y5101789D01*
X34394876Y5147090D01*
X34369794Y5150000D01*
X33975000Y5150000D01*
X33975000Y4065826D01*
X33940925Y4192993D01*
X33875099Y4307007D01*
X33782007Y4400099D01*
X33667993Y4465925D01*
X33540826Y4500000D01*
X33409174Y4500000D01*
X33282007Y4465925D01*
X33167993Y4400099D01*
X33074901Y4307007D01*
X33009075Y4192993D01*
X32975000Y4065826D01*
X27669846Y4065826D01*
X27656135Y4231298D01*
X27656133Y4231309D01*
X27599157Y4456301D01*
X27505924Y4668849D01*
X27378983Y4863148D01*
X27378980Y4863151D01*
X27378979Y4863153D01*
X27349851Y4894795D01*
X32325000Y4894795D01*
X32325000Y4500000D01*
X32975000Y4500000D01*
X32975000Y5150000D01*
X32580214Y5150000D01*
X32580191Y5149998D01*
X32555130Y5147092D01*
X32555126Y5147091D01*
X32452525Y5101789D01*
X32452520Y5101786D01*
X32373214Y5022480D01*
X32373211Y5022475D01*
X32327910Y4919878D01*
X32327910Y4919876D01*
X32325000Y4894795D01*
X27349851Y4894795D01*
X27221784Y5033913D01*
X27221779Y5033917D01*
X27221777Y5033919D01*
X27038634Y5176465D01*
X27038628Y5176469D01*
X26834504Y5286936D01*
X26834495Y5286939D01*
X26614984Y5362298D01*
X26443282Y5390950D01*
X26386049Y5400500D01*
X26153951Y5400500D01*
X26108164Y5392860D01*
X25925015Y5362298D01*
X25705504Y5286939D01*
X25705495Y5286936D01*
X25501372Y5176469D01*
X25330661Y5043600D01*
X25265667Y5017958D01*
X25197127Y5031525D01*
X25146802Y5079993D01*
X25130499Y5141454D01*
X25130499Y5144857D01*
X25130499Y5144864D01*
X25130241Y5147092D01*
X25127586Y5169988D01*
X25127585Y5169990D01*
X25127585Y5169991D01*
X25082206Y5272765D01*
X25002765Y5352206D01*
X24979909Y5362298D01*
X24899992Y5397585D01*
X24874865Y5400500D01*
X22585143Y5400500D01*
X22585117Y5400498D01*
X22560012Y5397587D01*
X22560008Y5397585D01*
X22457235Y5352207D01*
X22377794Y5272766D01*
X22332415Y5169994D01*
X22332415Y5169992D01*
X22329500Y5144869D01*
X14151732Y5144869D01*
X14121609Y5150500D01*
X13908389Y5150500D01*
X13698801Y5111321D01*
X13698798Y5111321D01*
X13698798Y5111320D01*
X13499981Y5034299D01*
X13499979Y5034298D01*
X13318698Y4922053D01*
X13161126Y4778407D01*
X13032631Y4608254D01*
X12937595Y4417395D01*
X12937595Y4417393D01*
X12879243Y4212311D01*
X12872969Y4144606D01*
X12847182Y4079669D01*
X12790382Y4038982D01*
X12720601Y4035462D01*
X12659994Y4070228D01*
X12627805Y4132241D01*
X12625498Y4156048D01*
X12625498Y4894857D01*
X12625498Y4894864D01*
X12625496Y4894883D01*
X12622585Y4919988D01*
X12622584Y4919990D01*
X12622584Y4919991D01*
X12577205Y5022765D01*
X12497764Y5102206D01*
X12477123Y5111320D01*
X12394991Y5147585D01*
X12369864Y5150500D01*
X10580142Y5150500D01*
X10580116Y5150498D01*
X10555011Y5147587D01*
X10555007Y5147585D01*
X10452234Y5102207D01*
X10372793Y5022766D01*
X10327414Y4919994D01*
X10327414Y4919992D01*
X10324499Y4894869D01*
X5504651Y4894869D01*
X5458611Y4974612D01*
X5458608Y4974615D01*
X5458607Y4974618D01*
X5330588Y5141454D01*
X5318919Y5156661D01*
X5318918Y5156662D01*
X5318911Y5156670D01*
X5156670Y5318911D01*
X5156661Y5318919D01*
X4974617Y5458608D01*
X4775890Y5573343D01*
X4775876Y5573350D01*
X4563887Y5661158D01*
X4342238Y5720548D01*
X4304215Y5725554D01*
X4114741Y5750500D01*
X4114734Y5750500D01*
X3885266Y5750500D01*
X3885258Y5750500D01*
X3668715Y5721991D01*
X3657762Y5720548D01*
X3564076Y5695446D01*
X3436112Y5661158D01*
X3224123Y5573350D01*
X3224109Y5573343D01*
X3025382Y5458608D01*
X2843338Y5318919D01*
X2681081Y5156662D01*
X2541392Y4974618D01*
X2426657Y4775891D01*
X2426650Y4775877D01*
X2338842Y4563888D01*
X2338842Y4563887D01*
X2299590Y4417393D01*
X2279453Y4342241D01*
X2279451Y4342230D01*
X2249500Y4114742D01*
X1000000Y4114742D01*
X1000000Y8000001D01*
X14444750Y8000001D01*
X14444750Y8000000D01*
X14463670Y7856292D01*
X14463671Y7856288D01*
X14519137Y7722378D01*
X14519138Y7722376D01*
X14519139Y7722375D01*
X14607379Y7607379D01*
X14722375Y7519139D01*
X14856291Y7463670D01*
X14983280Y7446952D01*
X14999999Y7444750D01*
X15000000Y7444750D01*
X15000001Y7444750D01*
X15014977Y7446722D01*
X15143709Y7463670D01*
X15277625Y7519139D01*
X15392621Y7607379D01*
X15480861Y7722375D01*
X15536330Y7856291D01*
X15555250Y8000000D01*
X15555250Y8000001D01*
X34444750Y8000001D01*
X34444750Y8000000D01*
X34463670Y7856292D01*
X34463671Y7856288D01*
X34519137Y7722378D01*
X34519138Y7722376D01*
X34519139Y7722375D01*
X34607379Y7607379D01*
X34722375Y7519139D01*
X34856291Y7463670D01*
X34983280Y7446952D01*
X34999999Y7444750D01*
X35000000Y7444750D01*
X35000001Y7444750D01*
X35014977Y7446722D01*
X35143709Y7463670D01*
X35277625Y7519139D01*
X35392621Y7607379D01*
X35480861Y7722375D01*
X35536330Y7856291D01*
X35555250Y8000000D01*
X35536330Y8143709D01*
X35480861Y8277625D01*
X35392621Y8392621D01*
X35277625Y8480861D01*
X35277624Y8480862D01*
X35277622Y8480863D01*
X35143712Y8536329D01*
X35143710Y8536330D01*
X35143709Y8536330D01*
X35071854Y8545790D01*
X35000001Y8555250D01*
X34999999Y8555250D01*
X34856291Y8536330D01*
X34856287Y8536329D01*
X34722377Y8480863D01*
X34607379Y8392621D01*
X34519137Y8277623D01*
X34463671Y8143713D01*
X34463670Y8143709D01*
X34444750Y8000001D01*
X15555250Y8000001D01*
X15536330Y8143709D01*
X15480861Y8277625D01*
X15392621Y8392621D01*
X15277625Y8480861D01*
X15277624Y8480862D01*
X15277622Y8480863D01*
X15143712Y8536329D01*
X15143710Y8536330D01*
X15143709Y8536330D01*
X15071854Y8545790D01*
X15000001Y8555250D01*
X14999999Y8555250D01*
X14856291Y8536330D01*
X14856287Y8536329D01*
X14722377Y8480863D01*
X14607379Y8392621D01*
X14519137Y8277623D01*
X14463671Y8143713D01*
X14463670Y8143709D01*
X14444750Y8000001D01*
X1000000Y8000001D01*
X1000000Y12000001D01*
X10444750Y12000001D01*
X10444750Y12000000D01*
X10463670Y11856292D01*
X10463671Y11856288D01*
X10519137Y11722378D01*
X10519138Y11722376D01*
X10519139Y11722375D01*
X10607379Y11607379D01*
X10722375Y11519139D01*
X10856291Y11463670D01*
X10983280Y11446952D01*
X10999999Y11444750D01*
X11000000Y11444750D01*
X11000001Y11444750D01*
X11014977Y11446722D01*
X11143709Y11463670D01*
X11277625Y11519139D01*
X11392621Y11607379D01*
X11480861Y11722375D01*
X11536330Y11856291D01*
X11555250Y12000000D01*
X11536330Y12143709D01*
X11480861Y12277625D01*
X11392621Y12392621D01*
X11277625Y12480861D01*
X11277624Y12480862D01*
X11277622Y12480863D01*
X11143712Y12536329D01*
X11143710Y12536330D01*
X11143709Y12536330D01*
X11071854Y12545790D01*
X11000001Y12555250D01*
X10999999Y12555250D01*
X10856291Y12536330D01*
X10856287Y12536329D01*
X10722377Y12480863D01*
X10607379Y12392621D01*
X10519137Y12277623D01*
X10463671Y12143713D01*
X10463670Y12143709D01*
X10444750Y12000001D01*
X1000000Y12000001D01*
X1000000Y15000001D01*
X18444750Y15000001D01*
X18444750Y15000000D01*
X18463670Y14856292D01*
X18463671Y14856288D01*
X18519137Y14722378D01*
X18519138Y14722376D01*
X18519139Y14722375D01*
X18607379Y14607379D01*
X18616711Y14600218D01*
X18619113Y14598375D01*
X18660316Y14541947D01*
X18664470Y14472201D01*
X18630257Y14411281D01*
X18619113Y14401625D01*
X18607381Y14392623D01*
X18607380Y14392622D01*
X18607379Y14392621D01*
X18589824Y14369743D01*
X18519137Y14277623D01*
X18463671Y14143713D01*
X18463670Y14143709D01*
X18444750Y14000001D01*
X18444750Y14000000D01*
X18463670Y13856292D01*
X18463671Y13856288D01*
X18519137Y13722378D01*
X18519138Y13722376D01*
X18519139Y13722375D01*
X18607379Y13607379D01*
X18616711Y13600218D01*
X18619113Y13598375D01*
X18660316Y13541947D01*
X18664470Y13472201D01*
X18630257Y13411281D01*
X18619113Y13401625D01*
X18607381Y13392623D01*
X18519137Y13277623D01*
X18463671Y13143713D01*
X18463670Y13143709D01*
X18444750Y13000001D01*
X18444750Y13000000D01*
X18463670Y12856292D01*
X18463671Y12856288D01*
X18519137Y12722378D01*
X18519138Y12722376D01*
X18519139Y12722375D01*
X18607379Y12607379D01*
X18616711Y12600218D01*
X18619113Y12598375D01*
X18660316Y12541947D01*
X18664470Y12472201D01*
X18630257Y12411281D01*
X18619113Y12401625D01*
X18607381Y12392623D01*
X18519137Y12277623D01*
X18463671Y12143713D01*
X18463670Y12143709D01*
X18444750Y12000001D01*
X18444750Y12000000D01*
X18463670Y11856292D01*
X18463671Y11856288D01*
X18519137Y11722378D01*
X18519138Y11722376D01*
X18519139Y11722375D01*
X18607379Y11607379D01*
X18616711Y11600218D01*
X18619113Y11598375D01*
X18660316Y11541947D01*
X18664470Y11472201D01*
X18630257Y11411281D01*
X18619113Y11401625D01*
X18607381Y11392623D01*
X18519137Y11277623D01*
X18463671Y11143713D01*
X18463670Y11143709D01*
X18444750Y11000001D01*
X18444750Y11000000D01*
X18463670Y10856292D01*
X18463671Y10856288D01*
X18519137Y10722378D01*
X18519138Y10722376D01*
X18519139Y10722375D01*
X18607379Y10607379D01*
X18616711Y10600218D01*
X18619113Y10598375D01*
X18660316Y10541947D01*
X18664470Y10472201D01*
X18630257Y10411281D01*
X18619113Y10401625D01*
X18607381Y10392623D01*
X18519137Y10277623D01*
X18463671Y10143713D01*
X18463670Y10143709D01*
X18444750Y10000001D01*
X18444750Y10000000D01*
X18463670Y9856292D01*
X18463671Y9856288D01*
X18519137Y9722378D01*
X18519138Y9722376D01*
X18519139Y9722375D01*
X18607379Y9607379D01*
X18722375Y9519139D01*
X18856291Y9463670D01*
X18983280Y9446952D01*
X18999999Y9444750D01*
X19000000Y9444750D01*
X19000001Y9444750D01*
X19014977Y9446722D01*
X19143709Y9463670D01*
X19277625Y9519139D01*
X19392621Y9607379D01*
X19401625Y9619114D01*
X19458050Y9660315D01*
X19527796Y9664471D01*
X19588717Y9630260D01*
X19598367Y9619124D01*
X19607379Y9607379D01*
X19722375Y9519139D01*
X19856291Y9463670D01*
X19983280Y9446952D01*
X19999999Y9444750D01*
X20000000Y9444750D01*
X20000001Y9444750D01*
X20014977Y9446722D01*
X20143709Y9463670D01*
X20277625Y9519139D01*
X20392621Y9607379D01*
X20401625Y9619114D01*
X20458050Y9660315D01*
X20527796Y9664471D01*
X20588717Y9630260D01*
X20598367Y9619124D01*
X20607379Y9607379D01*
X20722375Y9519139D01*
X20856291Y9463670D01*
X20983280Y9446952D01*
X20999999Y9444750D01*
X21000000Y9444750D01*
X21000001Y9444750D01*
X21014977Y9446722D01*
X21143709Y9463670D01*
X21277625Y9519139D01*
X21392621Y9607379D01*
X21401625Y9619114D01*
X21458050Y9660315D01*
X21527796Y9664471D01*
X21588717Y9630260D01*
X21598367Y9619124D01*
X21607379Y9607379D01*
X21722375Y9519139D01*
X21856291Y9463670D01*
X21983280Y9446952D01*
X21999999Y9444750D01*
X22000000Y9444750D01*
X22000001Y9444750D01*
X22014977Y9446722D01*
X22143709Y9463670D01*
X22277625Y9519139D01*
X22392621Y9607379D01*
X22401625Y9619114D01*
X22458050Y9660315D01*
X22527796Y9664471D01*
X22588717Y9630260D01*
X22598367Y9619124D01*
X22607379Y9607379D01*
X22722375Y9519139D01*
X22856291Y9463670D01*
X22983280Y9446952D01*
X22999999Y9444750D01*
X23000000Y9444750D01*
X23000001Y9444750D01*
X23014977Y9446722D01*
X23143709Y9463670D01*
X23277625Y9519139D01*
X23392621Y9607379D01*
X23480861Y9722375D01*
X23536330Y9856291D01*
X23555250Y10000000D01*
X23536330Y10143709D01*
X23480861Y10277625D01*
X23392621Y10392621D01*
X23380886Y10401626D01*
X23339685Y10458050D01*
X23335529Y10527796D01*
X23369740Y10588717D01*
X23380876Y10598368D01*
X23392621Y10607379D01*
X23401625Y10619114D01*
X23458050Y10660315D01*
X23527796Y10664471D01*
X23588717Y10630260D01*
X23598367Y10619124D01*
X23607379Y10607379D01*
X23722375Y10519139D01*
X23856291Y10463670D01*
X23983280Y10446952D01*
X23999999Y10444750D01*
X24000000Y10444750D01*
X24000001Y10444750D01*
X24014977Y10446722D01*
X24143709Y10463670D01*
X24277625Y10519139D01*
X24392621Y10607379D01*
X24480861Y10722375D01*
X24536330Y10856291D01*
X24555250Y11000000D01*
X24536330Y11143709D01*
X24480861Y11277625D01*
X24392621Y11392621D01*
X24380886Y11401626D01*
X24339685Y11458050D01*
X24335529Y11527796D01*
X24369740Y11588717D01*
X24380876Y11598368D01*
X24392621Y11607379D01*
X24480861Y11722375D01*
X24536330Y11856291D01*
X24555250Y12000000D01*
X24536330Y12143709D01*
X24480861Y12277625D01*
X24392621Y12392621D01*
X24380886Y12401626D01*
X24339685Y12458050D01*
X24335529Y12527796D01*
X24369740Y12588717D01*
X24380876Y12598368D01*
X24392621Y12607379D01*
X24480861Y12722375D01*
X24536330Y12856291D01*
X24555250Y13000000D01*
X24536330Y13143709D01*
X24480861Y13277625D01*
X24392621Y13392621D01*
X24380886Y13401626D01*
X24339685Y13458050D01*
X24335529Y13527796D01*
X24369740Y13588717D01*
X24380876Y13598368D01*
X24392621Y13607379D01*
X24401625Y13619114D01*
X24458050Y13660315D01*
X24527796Y13664471D01*
X24588717Y13630260D01*
X24598367Y13619124D01*
X24607379Y13607379D01*
X24722375Y13519139D01*
X24856291Y13463670D01*
X24983280Y13446952D01*
X24999999Y13444750D01*
X25000000Y13444750D01*
X25000001Y13444750D01*
X25014977Y13446722D01*
X25143709Y13463670D01*
X25277625Y13519139D01*
X25392621Y13607379D01*
X25401625Y13619114D01*
X25458050Y13660315D01*
X25527796Y13664471D01*
X25588717Y13630260D01*
X25598367Y13619124D01*
X25607378Y13607380D01*
X25607380Y13607378D01*
X25619113Y13598375D01*
X25660316Y13541947D01*
X25664470Y13472201D01*
X25630257Y13411281D01*
X25619113Y13401625D01*
X25607381Y13392623D01*
X25519137Y13277623D01*
X25463671Y13143713D01*
X25463670Y13143709D01*
X25444750Y13000001D01*
X25444750Y13000000D01*
X25463670Y12856292D01*
X25463671Y12856288D01*
X25519137Y12722378D01*
X25519138Y12722376D01*
X25519139Y12722375D01*
X25607379Y12607379D01*
X25616711Y12600218D01*
X25619113Y12598375D01*
X25660316Y12541947D01*
X25664470Y12472201D01*
X25630257Y12411281D01*
X25619113Y12401625D01*
X25607381Y12392623D01*
X25519137Y12277623D01*
X25463671Y12143713D01*
X25463670Y12143709D01*
X25444750Y12000001D01*
X25444750Y12000000D01*
X25463670Y11856292D01*
X25463671Y11856288D01*
X25519137Y11722378D01*
X25519138Y11722376D01*
X25519139Y11722375D01*
X25607379Y11607379D01*
X25616711Y11600218D01*
X25619113Y11598375D01*
X25660316Y11541947D01*
X25664470Y11472201D01*
X25630257Y11411281D01*
X25619113Y11401625D01*
X25607381Y11392623D01*
X25519137Y11277623D01*
X25463671Y11143713D01*
X25463670Y11143709D01*
X25444750Y11000001D01*
X25444750Y11000000D01*
X25463670Y10856292D01*
X25463671Y10856288D01*
X25519137Y10722378D01*
X25519138Y10722376D01*
X25519139Y10722375D01*
X25607379Y10607379D01*
X25722375Y10519139D01*
X25856291Y10463670D01*
X25983280Y10446952D01*
X25999999Y10444750D01*
X26000000Y10444750D01*
X26000001Y10444750D01*
X26014977Y10446722D01*
X26143709Y10463670D01*
X26277625Y10519139D01*
X26392621Y10607379D01*
X26401625Y10619114D01*
X26458050Y10660315D01*
X26527796Y10664471D01*
X26588717Y10630260D01*
X26598367Y10619124D01*
X26607378Y10607380D01*
X26607380Y10607378D01*
X26619113Y10598375D01*
X26660316Y10541947D01*
X26664470Y10472201D01*
X26630257Y10411281D01*
X26619113Y10401625D01*
X26607381Y10392623D01*
X26519137Y10277623D01*
X26463671Y10143713D01*
X26463670Y10143709D01*
X26444750Y10000001D01*
X26444750Y10000000D01*
X26463670Y9856292D01*
X26463671Y9856288D01*
X26519137Y9722378D01*
X26519138Y9722376D01*
X26519139Y9722375D01*
X26607379Y9607379D01*
X26722375Y9519139D01*
X26856291Y9463670D01*
X26983280Y9446952D01*
X26999999Y9444750D01*
X27000000Y9444750D01*
X27000001Y9444750D01*
X27014977Y9446722D01*
X27143709Y9463670D01*
X27277625Y9519139D01*
X27392621Y9607379D01*
X27401625Y9619114D01*
X27458050Y9660315D01*
X27527796Y9664471D01*
X27588717Y9630260D01*
X27598367Y9619124D01*
X27607379Y9607379D01*
X27722375Y9519139D01*
X27856291Y9463670D01*
X27983280Y9446952D01*
X27999999Y9444750D01*
X28000000Y9444750D01*
X28000001Y9444750D01*
X28014977Y9446722D01*
X28143709Y9463670D01*
X28277625Y9519139D01*
X28392621Y9607379D01*
X28401625Y9619114D01*
X28458050Y9660315D01*
X28527796Y9664471D01*
X28588717Y9630260D01*
X28598367Y9619124D01*
X28607379Y9607379D01*
X28722375Y9519139D01*
X28856291Y9463670D01*
X28983280Y9446952D01*
X28999999Y9444750D01*
X29000000Y9444750D01*
X29000001Y9444750D01*
X29014977Y9446722D01*
X29143709Y9463670D01*
X29277625Y9519139D01*
X29392621Y9607379D01*
X29401625Y9619114D01*
X29458050Y9660315D01*
X29527796Y9664471D01*
X29588717Y9630260D01*
X29598367Y9619124D01*
X29607379Y9607379D01*
X29722375Y9519139D01*
X29856291Y9463670D01*
X29983280Y9446952D01*
X29999999Y9444750D01*
X30000000Y9444750D01*
X30000001Y9444750D01*
X30014977Y9446722D01*
X30143709Y9463670D01*
X30277625Y9519139D01*
X30392621Y9607379D01*
X30401625Y9619114D01*
X30458050Y9660315D01*
X30527796Y9664471D01*
X30588717Y9630260D01*
X30598367Y9619124D01*
X30607379Y9607379D01*
X30722375Y9519139D01*
X30856291Y9463670D01*
X30983280Y9446952D01*
X30999999Y9444750D01*
X31000000Y9444750D01*
X31000001Y9444750D01*
X31014977Y9446722D01*
X31143709Y9463670D01*
X31277625Y9519139D01*
X31392621Y9607379D01*
X31480861Y9722375D01*
X31536330Y9856291D01*
X31555250Y10000000D01*
X31536330Y10143709D01*
X31480861Y10277625D01*
X31392621Y10392621D01*
X31380886Y10401626D01*
X31339685Y10458050D01*
X31335529Y10527796D01*
X31369740Y10588717D01*
X31380876Y10598368D01*
X31392621Y10607379D01*
X31480861Y10722375D01*
X31536330Y10856291D01*
X31555250Y11000000D01*
X31536330Y11143709D01*
X31480861Y11277625D01*
X31392621Y11392621D01*
X31380886Y11401626D01*
X31339685Y11458050D01*
X31335529Y11527796D01*
X31369740Y11588717D01*
X31380876Y11598368D01*
X31392621Y11607379D01*
X31480861Y11722375D01*
X31536330Y11856291D01*
X31555250Y12000000D01*
X31555250Y12000001D01*
X38444750Y12000001D01*
X38444750Y12000000D01*
X38463670Y11856292D01*
X38463671Y11856288D01*
X38519137Y11722378D01*
X38519138Y11722376D01*
X38519139Y11722375D01*
X38607379Y11607379D01*
X38722375Y11519139D01*
X38856291Y11463670D01*
X38983280Y11446952D01*
X38999999Y11444750D01*
X39000000Y11444750D01*
X39000001Y11444750D01*
X39014977Y11446722D01*
X39143709Y11463670D01*
X39277625Y11519139D01*
X39392621Y11607379D01*
X39480861Y11722375D01*
X39536330Y11856291D01*
X39555250Y12000000D01*
X39536330Y12143709D01*
X39480861Y12277625D01*
X39392621Y12392621D01*
X39277625Y12480861D01*
X39277624Y12480862D01*
X39277622Y12480863D01*
X39143712Y12536329D01*
X39143710Y12536330D01*
X39143709Y12536330D01*
X39071854Y12545790D01*
X39000001Y12555250D01*
X38999999Y12555250D01*
X38856291Y12536330D01*
X38856287Y12536329D01*
X38722377Y12480863D01*
X38607379Y12392621D01*
X38519137Y12277623D01*
X38463671Y12143713D01*
X38463670Y12143709D01*
X38444750Y12000001D01*
X31555250Y12000001D01*
X31536330Y12143709D01*
X31480861Y12277625D01*
X31392621Y12392621D01*
X31380886Y12401626D01*
X31339685Y12458050D01*
X31335529Y12527796D01*
X31369740Y12588717D01*
X31380876Y12598368D01*
X31392621Y12607379D01*
X31480861Y12722375D01*
X31536330Y12856291D01*
X31555250Y13000000D01*
X31536330Y13143709D01*
X31480861Y13277625D01*
X31392621Y13392621D01*
X31380886Y13401626D01*
X31339685Y13458050D01*
X31335529Y13527796D01*
X31369740Y13588717D01*
X31380876Y13598368D01*
X31392621Y13607379D01*
X31480861Y13722375D01*
X31536330Y13856291D01*
X31555250Y14000000D01*
X31536330Y14143709D01*
X31480861Y14277625D01*
X31392621Y14392621D01*
X31380886Y14401626D01*
X31339685Y14458050D01*
X31335529Y14527796D01*
X31369740Y14588717D01*
X31380876Y14598368D01*
X31392621Y14607379D01*
X31480861Y14722375D01*
X31536330Y14856291D01*
X31555250Y15000000D01*
X31536330Y15143709D01*
X31480861Y15277625D01*
X31392621Y15392621D01*
X31277625Y15480861D01*
X31277624Y15480862D01*
X31277622Y15480863D01*
X31143712Y15536329D01*
X31143710Y15536330D01*
X31143709Y15536330D01*
X31071854Y15545790D01*
X31000001Y15555250D01*
X30999999Y15555250D01*
X30856291Y15536330D01*
X30856287Y15536329D01*
X30722377Y15480863D01*
X30711089Y15472201D01*
X30607379Y15392621D01*
X30607378Y15392620D01*
X30607377Y15392619D01*
X30598375Y15380887D01*
X30541947Y15339684D01*
X30472201Y15335530D01*
X30411281Y15369743D01*
X30401625Y15380887D01*
X30399782Y15383289D01*
X30392621Y15392621D01*
X30277625Y15480861D01*
X30277624Y15480862D01*
X30277622Y15480863D01*
X30143712Y15536329D01*
X30143710Y15536330D01*
X30143709Y15536330D01*
X30071854Y15545790D01*
X30000001Y15555250D01*
X29999999Y15555250D01*
X29856291Y15536330D01*
X29856287Y15536329D01*
X29722377Y15480863D01*
X29711089Y15472201D01*
X29607379Y15392621D01*
X29607378Y15392620D01*
X29607377Y15392619D01*
X29598375Y15380887D01*
X29541947Y15339684D01*
X29472201Y15335530D01*
X29411281Y15369743D01*
X29401625Y15380887D01*
X29399782Y15383289D01*
X29392621Y15392621D01*
X29277625Y15480861D01*
X29277624Y15480862D01*
X29277622Y15480863D01*
X29143712Y15536329D01*
X29143710Y15536330D01*
X29143709Y15536330D01*
X29071854Y15545790D01*
X29000001Y15555250D01*
X28999999Y15555250D01*
X28856291Y15536330D01*
X28856287Y15536329D01*
X28722377Y15480863D01*
X28711089Y15472201D01*
X28607379Y15392621D01*
X28607378Y15392620D01*
X28607377Y15392619D01*
X28598375Y15380887D01*
X28541947Y15339684D01*
X28472201Y15335530D01*
X28411281Y15369743D01*
X28401625Y15380887D01*
X28392622Y15392620D01*
X28392618Y15392623D01*
X28380886Y15401626D01*
X28339685Y15458050D01*
X28335529Y15527796D01*
X28369740Y15588717D01*
X28380876Y15598368D01*
X28392621Y15607379D01*
X28480861Y15722375D01*
X28536330Y15856291D01*
X28555250Y16000000D01*
X28536330Y16143709D01*
X28480861Y16277625D01*
X28392621Y16392621D01*
X28277625Y16480861D01*
X28277624Y16480862D01*
X28277622Y16480863D01*
X28143712Y16536329D01*
X28143710Y16536330D01*
X28143709Y16536330D01*
X28071854Y16545790D01*
X28000001Y16555250D01*
X27999999Y16555250D01*
X27856291Y16536330D01*
X27856287Y16536329D01*
X27722377Y16480863D01*
X27607379Y16392621D01*
X27519137Y16277623D01*
X27463671Y16143713D01*
X27463670Y16143709D01*
X27444750Y16000001D01*
X27444750Y16000000D01*
X27463670Y15856292D01*
X27463671Y15856288D01*
X27519137Y15722378D01*
X27519138Y15722376D01*
X27519139Y15722375D01*
X27607379Y15607379D01*
X27616711Y15600218D01*
X27619113Y15598375D01*
X27660316Y15541947D01*
X27664470Y15472201D01*
X27630257Y15411281D01*
X27619113Y15401625D01*
X27607381Y15392623D01*
X27607380Y15392622D01*
X27607379Y15392621D01*
X27589824Y15369743D01*
X27519137Y15277623D01*
X27463671Y15143713D01*
X27463670Y15143709D01*
X27444750Y15000001D01*
X27444750Y15000000D01*
X27463670Y14856292D01*
X27463671Y14856288D01*
X27519137Y14722378D01*
X27519138Y14722376D01*
X27519139Y14722375D01*
X27607379Y14607379D01*
X27616711Y14600218D01*
X27619113Y14598375D01*
X27660316Y14541947D01*
X27664470Y14472201D01*
X27630257Y14411281D01*
X27619113Y14401625D01*
X27607379Y14392622D01*
X27607378Y14392621D01*
X27598375Y14380887D01*
X27541947Y14339684D01*
X27472201Y14335530D01*
X27411281Y14369743D01*
X27401625Y14380887D01*
X27399782Y14383289D01*
X27392621Y14392621D01*
X27277625Y14480861D01*
X27277624Y14480862D01*
X27277622Y14480863D01*
X27143712Y14536329D01*
X27143710Y14536330D01*
X27143709Y14536330D01*
X27071854Y14545790D01*
X27000001Y14555250D01*
X26999999Y14555250D01*
X26856291Y14536330D01*
X26856287Y14536329D01*
X26722377Y14480863D01*
X26711089Y14472201D01*
X26607379Y14392621D01*
X26607378Y14392620D01*
X26607377Y14392619D01*
X26598375Y14380887D01*
X26541947Y14339684D01*
X26472201Y14335530D01*
X26411281Y14369743D01*
X26401625Y14380887D01*
X26399782Y14383289D01*
X26392621Y14392621D01*
X26277625Y14480861D01*
X26277624Y14480862D01*
X26277622Y14480863D01*
X26143712Y14536329D01*
X26143710Y14536330D01*
X26143709Y14536330D01*
X26071854Y14545790D01*
X26000001Y14555250D01*
X25999999Y14555250D01*
X25856291Y14536330D01*
X25856287Y14536329D01*
X25722377Y14480863D01*
X25711089Y14472201D01*
X25607379Y14392621D01*
X25607378Y14392620D01*
X25607377Y14392619D01*
X25598375Y14380887D01*
X25541947Y14339684D01*
X25472201Y14335530D01*
X25411281Y14369743D01*
X25401625Y14380887D01*
X25399782Y14383289D01*
X25392621Y14392621D01*
X25277625Y14480861D01*
X25277624Y14480862D01*
X25277622Y14480863D01*
X25143712Y14536329D01*
X25143710Y14536330D01*
X25143709Y14536330D01*
X25071854Y14545790D01*
X25000001Y14555250D01*
X24999999Y14555250D01*
X24856291Y14536330D01*
X24856287Y14536329D01*
X24722377Y14480863D01*
X24711089Y14472201D01*
X24607379Y14392621D01*
X24607378Y14392620D01*
X24607377Y14392619D01*
X24598375Y14380887D01*
X24541947Y14339684D01*
X24472201Y14335530D01*
X24411281Y14369743D01*
X24401625Y14380887D01*
X24399782Y14383289D01*
X24392621Y14392621D01*
X24277625Y14480861D01*
X24277624Y14480862D01*
X24277622Y14480863D01*
X24143712Y14536329D01*
X24143710Y14536330D01*
X24143709Y14536330D01*
X24071854Y14545790D01*
X24000001Y14555250D01*
X23999999Y14555250D01*
X23856291Y14536330D01*
X23856287Y14536329D01*
X23722377Y14480863D01*
X23711089Y14472201D01*
X23607379Y14392621D01*
X23607378Y14392620D01*
X23607377Y14392619D01*
X23598375Y14380887D01*
X23541947Y14339684D01*
X23472201Y14335530D01*
X23411281Y14369743D01*
X23401625Y14380887D01*
X23392621Y14392621D01*
X23392619Y14392623D01*
X23371166Y14409085D01*
X23329964Y14465513D01*
X23325811Y14535259D01*
X23348279Y14582946D01*
X23360118Y14598375D01*
X23370861Y14612375D01*
X23426330Y14746291D01*
X23445250Y14890000D01*
X23426330Y15033709D01*
X23370861Y15167625D01*
X23282621Y15282621D01*
X23167625Y15370861D01*
X23167624Y15370862D01*
X23167622Y15370863D01*
X23033712Y15426329D01*
X23033710Y15426330D01*
X23033709Y15426330D01*
X22961854Y15435790D01*
X22890001Y15445250D01*
X22889999Y15445250D01*
X22746291Y15426330D01*
X22746287Y15426329D01*
X22612376Y15370862D01*
X22612370Y15370859D01*
X22582942Y15348278D01*
X22517773Y15323085D01*
X22449328Y15337125D01*
X22409083Y15371167D01*
X22392621Y15392621D01*
X22277625Y15480861D01*
X22277624Y15480862D01*
X22277622Y15480863D01*
X22143712Y15536329D01*
X22143710Y15536330D01*
X22143709Y15536330D01*
X22071854Y15545790D01*
X22000001Y15555250D01*
X21999999Y15555250D01*
X21856291Y15536330D01*
X21856287Y15536329D01*
X21722377Y15480863D01*
X21711089Y15472201D01*
X21607379Y15392621D01*
X21607378Y15392620D01*
X21607377Y15392619D01*
X21598375Y15380887D01*
X21541947Y15339684D01*
X21472201Y15335530D01*
X21411281Y15369743D01*
X21401625Y15380887D01*
X21399782Y15383289D01*
X21392621Y15392621D01*
X21277625Y15480861D01*
X21277624Y15480862D01*
X21277622Y15480863D01*
X21143712Y15536329D01*
X21143710Y15536330D01*
X21143709Y15536330D01*
X21071854Y15545790D01*
X21000001Y15555250D01*
X20999999Y15555250D01*
X20856291Y15536330D01*
X20856287Y15536329D01*
X20722377Y15480863D01*
X20711089Y15472201D01*
X20607379Y15392621D01*
X20607378Y15392620D01*
X20607377Y15392619D01*
X20598375Y15380887D01*
X20541947Y15339684D01*
X20472201Y15335530D01*
X20411281Y15369743D01*
X20401625Y15380887D01*
X20399782Y15383289D01*
X20392621Y15392621D01*
X20277625Y15480861D01*
X20277624Y15480862D01*
X20277622Y15480863D01*
X20143712Y15536329D01*
X20143710Y15536330D01*
X20143709Y15536330D01*
X20071854Y15545790D01*
X20000001Y15555250D01*
X19999999Y15555250D01*
X19856291Y15536330D01*
X19856287Y15536329D01*
X19722377Y15480863D01*
X19711089Y15472201D01*
X19607379Y15392621D01*
X19607378Y15392620D01*
X19607377Y15392619D01*
X19598375Y15380887D01*
X19541947Y15339684D01*
X19472201Y15335530D01*
X19411281Y15369743D01*
X19401625Y15380887D01*
X19399782Y15383289D01*
X19392621Y15392621D01*
X19277625Y15480861D01*
X19277624Y15480862D01*
X19277622Y15480863D01*
X19143712Y15536329D01*
X19143710Y15536330D01*
X19143709Y15536330D01*
X19071854Y15545790D01*
X19000001Y15555250D01*
X18999999Y15555250D01*
X18856291Y15536330D01*
X18856287Y15536329D01*
X18722377Y15480863D01*
X18607379Y15392621D01*
X18519137Y15277623D01*
X18463671Y15143713D01*
X18463670Y15143709D01*
X18444750Y15000001D01*
X1000000Y15000001D01*
X1000000Y17800001D01*
X23644750Y17800001D01*
X23644750Y17800000D01*
X23663670Y17656292D01*
X23663671Y17656288D01*
X23719138Y17522377D01*
X23719139Y17522375D01*
X23755118Y17475486D01*
X23780312Y17410317D01*
X23766274Y17341872D01*
X23755119Y17324515D01*
X23719139Y17277625D01*
X23719139Y17277624D01*
X23663672Y17143713D01*
X23663671Y17143709D01*
X23644751Y17000001D01*
X23644751Y17000000D01*
X23663671Y16856292D01*
X23663672Y16856288D01*
X23719139Y16722377D01*
X23719140Y16722375D01*
X23755118Y16675487D01*
X23780312Y16610318D01*
X23766273Y16541873D01*
X23755119Y16524516D01*
X23719138Y16477625D01*
X23719138Y16477624D01*
X23663671Y16343713D01*
X23663670Y16343709D01*
X23644750Y16200000D01*
X23652160Y16143713D01*
X23663670Y16056292D01*
X23663671Y16056288D01*
X23719137Y15922378D01*
X23719138Y15922376D01*
X23719139Y15922375D01*
X23807379Y15807379D01*
X23922375Y15719139D01*
X24056291Y15663670D01*
X24183280Y15646952D01*
X24199999Y15644750D01*
X24200000Y15644750D01*
X24200001Y15644750D01*
X24214977Y15646722D01*
X24343709Y15663670D01*
X24477625Y15719139D01*
X24524514Y15755119D01*
X24589682Y15780313D01*
X24658127Y15766275D01*
X24675486Y15755119D01*
X24704712Y15732694D01*
X24722375Y15719140D01*
X24856291Y15663671D01*
X24983280Y15646953D01*
X24999999Y15644751D01*
X25000000Y15644751D01*
X25000001Y15644751D01*
X25014977Y15646723D01*
X25143709Y15663671D01*
X25277625Y15719140D01*
X25324512Y15755119D01*
X25389681Y15780313D01*
X25458126Y15766275D01*
X25475481Y15755123D01*
X25522375Y15719139D01*
X25656291Y15663670D01*
X25783280Y15646952D01*
X25799999Y15644750D01*
X25800000Y15644750D01*
X25800001Y15644750D01*
X25814977Y15646722D01*
X25943709Y15663670D01*
X26077625Y15719139D01*
X26192621Y15807379D01*
X26280861Y15922375D01*
X26336330Y16056291D01*
X26355250Y16200000D01*
X26336330Y16343709D01*
X26280861Y16477625D01*
X26244880Y16524516D01*
X26219687Y16589684D01*
X26233725Y16658128D01*
X26244882Y16675488D01*
X26280859Y16722374D01*
X26280858Y16722374D01*
X26280860Y16722375D01*
X26336329Y16856291D01*
X26355249Y17000000D01*
X26336329Y17143709D01*
X26280860Y17277625D01*
X26244881Y17324514D01*
X26219687Y17389683D01*
X26233725Y17458128D01*
X26244880Y17475484D01*
X26280861Y17522375D01*
X26336330Y17656291D01*
X26355250Y17800000D01*
X26336330Y17943709D01*
X26280861Y18077625D01*
X26192621Y18192621D01*
X26077625Y18280861D01*
X26077624Y18280862D01*
X26077622Y18280863D01*
X25943712Y18336329D01*
X25943710Y18336330D01*
X25943709Y18336330D01*
X25871854Y18345790D01*
X25800001Y18355250D01*
X25799999Y18355250D01*
X25656291Y18336330D01*
X25656287Y18336329D01*
X25522376Y18280862D01*
X25522375Y18280862D01*
X25475484Y18244881D01*
X25410315Y18219688D01*
X25341870Y18233727D01*
X25324513Y18244882D01*
X25277625Y18280860D01*
X25277623Y18280861D01*
X25143712Y18336328D01*
X25143710Y18336329D01*
X25143709Y18336329D01*
X25071854Y18345789D01*
X25000001Y18355249D01*
X24999999Y18355249D01*
X24856291Y18336329D01*
X24856287Y18336328D01*
X24722376Y18280861D01*
X24722375Y18280861D01*
X24675485Y18244881D01*
X24610316Y18219688D01*
X24541871Y18233727D01*
X24524514Y18244882D01*
X24477625Y18280861D01*
X24477623Y18280862D01*
X24343712Y18336329D01*
X24343710Y18336330D01*
X24343709Y18336330D01*
X24271854Y18345790D01*
X24200001Y18355250D01*
X24199999Y18355250D01*
X24056291Y18336330D01*
X24056287Y18336329D01*
X23922377Y18280863D01*
X23807379Y18192621D01*
X23719137Y18077623D01*
X23663671Y17943713D01*
X23663670Y17943709D01*
X23644750Y17800001D01*
X1000000Y17800001D01*
X1000000Y22000001D01*
X18444750Y22000001D01*
X18444750Y22000000D01*
X18463670Y21856292D01*
X18463671Y21856288D01*
X18519137Y21722378D01*
X18519138Y21722376D01*
X18519139Y21722375D01*
X18607379Y21607379D01*
X18722375Y21519139D01*
X18856291Y21463670D01*
X18983280Y21446952D01*
X18999999Y21444750D01*
X19000000Y21444750D01*
X19000001Y21444750D01*
X19014977Y21446722D01*
X19143709Y21463670D01*
X19277625Y21519139D01*
X19392621Y21607379D01*
X19480861Y21722375D01*
X19536330Y21856291D01*
X19555250Y22000000D01*
X19555250Y22000001D01*
X20444750Y22000001D01*
X20444750Y22000000D01*
X20463670Y21856292D01*
X20463671Y21856288D01*
X20519137Y21722378D01*
X20519138Y21722376D01*
X20519139Y21722375D01*
X20607379Y21607379D01*
X20722375Y21519139D01*
X20856291Y21463670D01*
X20983280Y21446952D01*
X20999999Y21444750D01*
X21000000Y21444750D01*
X21000001Y21444750D01*
X21014977Y21446722D01*
X21143709Y21463670D01*
X21277625Y21519139D01*
X21392621Y21607379D01*
X21480861Y21722375D01*
X21536330Y21856291D01*
X21555250Y22000000D01*
X21555250Y22000001D01*
X28444750Y22000001D01*
X28444750Y22000000D01*
X28463670Y21856292D01*
X28463671Y21856288D01*
X28519137Y21722378D01*
X28519138Y21722376D01*
X28519139Y21722375D01*
X28607379Y21607379D01*
X28722375Y21519139D01*
X28856291Y21463670D01*
X28983280Y21446952D01*
X28999999Y21444750D01*
X29000000Y21444750D01*
X29000001Y21444750D01*
X29014977Y21446722D01*
X29143709Y21463670D01*
X29277625Y21519139D01*
X29392621Y21607379D01*
X29480861Y21722375D01*
X29536330Y21856291D01*
X29555250Y22000000D01*
X29555250Y22000001D01*
X30444750Y22000001D01*
X30444750Y22000000D01*
X30463670Y21856292D01*
X30463671Y21856288D01*
X30519137Y21722378D01*
X30519138Y21722376D01*
X30519139Y21722375D01*
X30607379Y21607379D01*
X30722375Y21519139D01*
X30856291Y21463670D01*
X30983280Y21446952D01*
X30999999Y21444750D01*
X31000000Y21444750D01*
X31000001Y21444750D01*
X31014977Y21446722D01*
X31143709Y21463670D01*
X31277625Y21519139D01*
X31392621Y21607379D01*
X31480861Y21722375D01*
X31536330Y21856291D01*
X31555250Y22000000D01*
X31536330Y22143709D01*
X31480861Y22277625D01*
X31392621Y22392621D01*
X31277625Y22480861D01*
X31277624Y22480862D01*
X31277622Y22480863D01*
X31143712Y22536329D01*
X31143710Y22536330D01*
X31143709Y22536330D01*
X31071854Y22545790D01*
X31000001Y22555250D01*
X30999999Y22555250D01*
X30856291Y22536330D01*
X30856287Y22536329D01*
X30722377Y22480863D01*
X30607379Y22392621D01*
X30519137Y22277623D01*
X30463671Y22143713D01*
X30463670Y22143709D01*
X30444750Y22000001D01*
X29555250Y22000001D01*
X29536330Y22143709D01*
X29480861Y22277625D01*
X29392621Y22392621D01*
X29277625Y22480861D01*
X29277624Y22480862D01*
X29277622Y22480863D01*
X29143712Y22536329D01*
X29143710Y22536330D01*
X29143709Y22536330D01*
X29071854Y22545790D01*
X29000001Y22555250D01*
X28999999Y22555250D01*
X28856291Y22536330D01*
X28856287Y22536329D01*
X28722377Y22480863D01*
X28607379Y22392621D01*
X28519137Y22277623D01*
X28463671Y22143713D01*
X28463670Y22143709D01*
X28444750Y22000001D01*
X21555250Y22000001D01*
X21536330Y22143709D01*
X21480861Y22277625D01*
X21392621Y22392621D01*
X21277625Y22480861D01*
X21277624Y22480862D01*
X21277622Y22480863D01*
X21143712Y22536329D01*
X21143710Y22536330D01*
X21143709Y22536330D01*
X21071854Y22545790D01*
X21000001Y22555250D01*
X20999999Y22555250D01*
X20856291Y22536330D01*
X20856287Y22536329D01*
X20722377Y22480863D01*
X20607379Y22392621D01*
X20519137Y22277623D01*
X20463671Y22143713D01*
X20463670Y22143709D01*
X20444750Y22000001D01*
X19555250Y22000001D01*
X19536330Y22143709D01*
X19480861Y22277625D01*
X19392621Y22392621D01*
X19277625Y22480861D01*
X19277624Y22480862D01*
X19277622Y22480863D01*
X19143712Y22536329D01*
X19143710Y22536330D01*
X19143709Y22536330D01*
X19071854Y22545790D01*
X19000001Y22555250D01*
X18999999Y22555250D01*
X18856291Y22536330D01*
X18856287Y22536329D01*
X18722377Y22480863D01*
X18607379Y22392621D01*
X18519137Y22277623D01*
X18463671Y22143713D01*
X18463670Y22143709D01*
X18444750Y22000001D01*
X1000000Y22000001D01*
X1000000Y24000001D01*
X18444750Y24000001D01*
X18444750Y24000000D01*
X18463670Y23856292D01*
X18463671Y23856288D01*
X18519137Y23722378D01*
X18519138Y23722376D01*
X18519139Y23722375D01*
X18607379Y23607379D01*
X18722375Y23519139D01*
X18856291Y23463670D01*
X18983280Y23446952D01*
X18999999Y23444750D01*
X19000000Y23444750D01*
X19000001Y23444750D01*
X19014977Y23446722D01*
X19143709Y23463670D01*
X19277625Y23519139D01*
X19392621Y23607379D01*
X19480861Y23722375D01*
X19536330Y23856291D01*
X19555250Y24000000D01*
X19555250Y24000001D01*
X20444750Y24000001D01*
X20444750Y24000000D01*
X20463670Y23856292D01*
X20463671Y23856288D01*
X20519137Y23722378D01*
X20519138Y23722376D01*
X20519139Y23722375D01*
X20607379Y23607379D01*
X20722375Y23519139D01*
X20856291Y23463670D01*
X20983280Y23446952D01*
X20999999Y23444750D01*
X21000000Y23444750D01*
X21000001Y23444750D01*
X21014977Y23446722D01*
X21143709Y23463670D01*
X21277625Y23519139D01*
X21392621Y23607379D01*
X21480861Y23722375D01*
X21536330Y23856291D01*
X21555250Y24000000D01*
X21555250Y24000001D01*
X28444750Y24000001D01*
X28444750Y24000000D01*
X28463670Y23856292D01*
X28463671Y23856288D01*
X28519137Y23722378D01*
X28519138Y23722376D01*
X28519139Y23722375D01*
X28607379Y23607379D01*
X28722375Y23519139D01*
X28856291Y23463670D01*
X28983280Y23446952D01*
X28999999Y23444750D01*
X29000000Y23444750D01*
X29000001Y23444750D01*
X29014977Y23446722D01*
X29143709Y23463670D01*
X29277625Y23519139D01*
X29392621Y23607379D01*
X29480861Y23722375D01*
X29536330Y23856291D01*
X29555250Y24000000D01*
X29555250Y24000001D01*
X30444750Y24000001D01*
X30444750Y24000000D01*
X30463670Y23856292D01*
X30463671Y23856288D01*
X30519137Y23722378D01*
X30519138Y23722376D01*
X30519139Y23722375D01*
X30607379Y23607379D01*
X30722375Y23519139D01*
X30856291Y23463670D01*
X30983280Y23446952D01*
X30999999Y23444750D01*
X31000000Y23444750D01*
X31000001Y23444750D01*
X31014977Y23446722D01*
X31143709Y23463670D01*
X31277625Y23519139D01*
X31392621Y23607379D01*
X31480861Y23722375D01*
X31536330Y23856291D01*
X31555250Y24000000D01*
X31536330Y24143709D01*
X31480861Y24277625D01*
X31392621Y24392621D01*
X31277625Y24480861D01*
X31277624Y24480862D01*
X31277622Y24480863D01*
X31143712Y24536329D01*
X31143710Y24536330D01*
X31143709Y24536330D01*
X31071854Y24545790D01*
X31000001Y24555250D01*
X30999999Y24555250D01*
X30856291Y24536330D01*
X30856287Y24536329D01*
X30722377Y24480863D01*
X30607379Y24392621D01*
X30519137Y24277623D01*
X30463671Y24143713D01*
X30463670Y24143709D01*
X30444750Y24000001D01*
X29555250Y24000001D01*
X29536330Y24143709D01*
X29480861Y24277625D01*
X29392621Y24392621D01*
X29277625Y24480861D01*
X29277624Y24480862D01*
X29277622Y24480863D01*
X29143712Y24536329D01*
X29143710Y24536330D01*
X29143709Y24536330D01*
X29071854Y24545790D01*
X29000001Y24555250D01*
X28999999Y24555250D01*
X28856291Y24536330D01*
X28856287Y24536329D01*
X28722377Y24480863D01*
X28607379Y24392621D01*
X28519137Y24277623D01*
X28463671Y24143713D01*
X28463670Y24143709D01*
X28444750Y24000001D01*
X21555250Y24000001D01*
X21536330Y24143709D01*
X21480861Y24277625D01*
X21392621Y24392621D01*
X21277625Y24480861D01*
X21277624Y24480862D01*
X21277622Y24480863D01*
X21143712Y24536329D01*
X21143710Y24536330D01*
X21143709Y24536330D01*
X21071854Y24545790D01*
X21000001Y24555250D01*
X20999999Y24555250D01*
X20856291Y24536330D01*
X20856287Y24536329D01*
X20722377Y24480863D01*
X20607379Y24392621D01*
X20519137Y24277623D01*
X20463671Y24143713D01*
X20463670Y24143709D01*
X20444750Y24000001D01*
X19555250Y24000001D01*
X19536330Y24143709D01*
X19480861Y24277625D01*
X19392621Y24392621D01*
X19277625Y24480861D01*
X19277624Y24480862D01*
X19277622Y24480863D01*
X19143712Y24536329D01*
X19143710Y24536330D01*
X19143709Y24536330D01*
X19071854Y24545790D01*
X19000001Y24555250D01*
X18999999Y24555250D01*
X18856291Y24536330D01*
X18856287Y24536329D01*
X18722377Y24480863D01*
X18607379Y24392621D01*
X18519137Y24277623D01*
X18463671Y24143713D01*
X18463670Y24143709D01*
X18444750Y24000001D01*
X1000000Y24000001D01*
X1000000Y25000001D01*
X13444750Y25000001D01*
X13444750Y25000000D01*
X13463670Y24856292D01*
X13463671Y24856288D01*
X13519137Y24722378D01*
X13519138Y24722376D01*
X13519139Y24722375D01*
X13607379Y24607379D01*
X13722375Y24519139D01*
X13856291Y24463670D01*
X13983280Y24446952D01*
X13999999Y24444750D01*
X14000000Y24444750D01*
X14000001Y24444750D01*
X14014977Y24446722D01*
X14143709Y24463670D01*
X14277625Y24519139D01*
X14392621Y24607379D01*
X14480861Y24722375D01*
X14536330Y24856291D01*
X14555250Y25000000D01*
X14555250Y25000001D01*
X35444750Y25000001D01*
X35444750Y25000000D01*
X35463670Y24856292D01*
X35463671Y24856288D01*
X35519137Y24722378D01*
X35519138Y24722376D01*
X35519139Y24722375D01*
X35607379Y24607379D01*
X35722375Y24519139D01*
X35856291Y24463670D01*
X35983280Y24446952D01*
X35999999Y24444750D01*
X36000000Y24444750D01*
X36000001Y24444750D01*
X36014977Y24446722D01*
X36143709Y24463670D01*
X36277625Y24519139D01*
X36392621Y24607379D01*
X36480861Y24722375D01*
X36536330Y24856291D01*
X36555250Y25000000D01*
X36536330Y25143709D01*
X36480861Y25277625D01*
X36392621Y25392621D01*
X36277625Y25480861D01*
X36277624Y25480862D01*
X36277622Y25480863D01*
X36143712Y25536329D01*
X36143710Y25536330D01*
X36143709Y25536330D01*
X36071854Y25545790D01*
X36000001Y25555250D01*
X35999999Y25555250D01*
X35856291Y25536330D01*
X35856287Y25536329D01*
X35722377Y25480863D01*
X35607379Y25392621D01*
X35519137Y25277623D01*
X35463671Y25143713D01*
X35463670Y25143709D01*
X35444750Y25000001D01*
X14555250Y25000001D01*
X14536330Y25143709D01*
X14480861Y25277625D01*
X14392621Y25392621D01*
X14277625Y25480861D01*
X14277624Y25480862D01*
X14277622Y25480863D01*
X14143712Y25536329D01*
X14143710Y25536330D01*
X14143709Y25536330D01*
X14071854Y25545790D01*
X14000001Y25555250D01*
X13999999Y25555250D01*
X13856291Y25536330D01*
X13856287Y25536329D01*
X13722377Y25480863D01*
X13607379Y25392621D01*
X13519137Y25277623D01*
X13463671Y25143713D01*
X13463670Y25143709D01*
X13444750Y25000001D01*
X1000000Y25000001D01*
X1000000Y27000001D01*
X24444750Y27000001D01*
X24444750Y27000000D01*
X24463670Y26856292D01*
X24463671Y26856288D01*
X24519137Y26722378D01*
X24519138Y26722376D01*
X24519139Y26722375D01*
X24607379Y26607379D01*
X24722375Y26519139D01*
X24856291Y26463670D01*
X24983280Y26446952D01*
X24999999Y26444750D01*
X25000000Y26444750D01*
X25000001Y26444750D01*
X25014977Y26446722D01*
X25143709Y26463670D01*
X25277625Y26519139D01*
X25392621Y26607379D01*
X25480861Y26722375D01*
X25536330Y26856291D01*
X25555250Y27000000D01*
X25536330Y27143709D01*
X25480861Y27277625D01*
X25392621Y27392621D01*
X25277625Y27480861D01*
X25277624Y27480862D01*
X25277622Y27480863D01*
X25143712Y27536329D01*
X25143710Y27536330D01*
X25143709Y27536330D01*
X25071854Y27545790D01*
X25000001Y27555250D01*
X24999999Y27555250D01*
X24856291Y27536330D01*
X24856287Y27536329D01*
X24722377Y27480863D01*
X24607379Y27392621D01*
X24519137Y27277623D01*
X24463671Y27143713D01*
X24463670Y27143709D01*
X24444750Y27000001D01*
X1000000Y27000001D01*
X1000000Y30000001D01*
X2444750Y30000001D01*
X2444750Y30000000D01*
X2463670Y29856292D01*
X2463671Y29856288D01*
X2519137Y29722378D01*
X2519138Y29722376D01*
X2519139Y29722375D01*
X2607379Y29607379D01*
X2722375Y29519139D01*
X2856291Y29463670D01*
X2983280Y29446952D01*
X2999999Y29444750D01*
X3000000Y29444750D01*
X3000001Y29444750D01*
X3014977Y29446722D01*
X3143709Y29463670D01*
X3277625Y29519139D01*
X3392621Y29607379D01*
X3480861Y29722375D01*
X3536330Y29856291D01*
X3555250Y30000000D01*
X3536330Y30143709D01*
X3480861Y30277625D01*
X3392621Y30392621D01*
X3277625Y30480861D01*
X3277624Y30480862D01*
X3277622Y30480863D01*
X3143712Y30536329D01*
X3143710Y30536330D01*
X3143709Y30536330D01*
X3071854Y30545790D01*
X3000001Y30555250D01*
X2999999Y30555250D01*
X2856291Y30536330D01*
X2856287Y30536329D01*
X2722377Y30480863D01*
X2607379Y30392621D01*
X2519137Y30277623D01*
X2463671Y30143713D01*
X2463670Y30143709D01*
X2444750Y30000001D01*
X1000000Y30000001D01*
X1000000Y38114742D01*
X2249500Y38114742D01*
X2249500Y37885259D01*
X2274446Y37695785D01*
X2279452Y37657762D01*
X2279453Y37657760D01*
X2338842Y37436113D01*
X2426650Y37224124D01*
X2426657Y37224110D01*
X2541392Y37025383D01*
X2681081Y36843339D01*
X2681089Y36843330D01*
X2843330Y36681089D01*
X2843338Y36681082D01*
X3025382Y36541393D01*
X3025385Y36541392D01*
X3025388Y36541389D01*
X3224112Y36426656D01*
X3224117Y36426654D01*
X3224123Y36426651D01*
X3315480Y36388810D01*
X3436113Y36338842D01*
X3657762Y36279452D01*
X3885266Y36249500D01*
X3885273Y36249500D01*
X4114727Y36249500D01*
X4114734Y36249500D01*
X4342238Y36279452D01*
X4563887Y36338842D01*
X4775888Y36426656D01*
X4974612Y36541389D01*
X5156661Y36681081D01*
X5156665Y36681086D01*
X5156670Y36681089D01*
X5318911Y36843330D01*
X5318914Y36843335D01*
X5318919Y36843339D01*
X5458611Y37025388D01*
X5573344Y37224112D01*
X5661158Y37436113D01*
X5720548Y37657762D01*
X5750500Y37885266D01*
X5750500Y38114734D01*
X5750499Y38114742D01*
X44249500Y38114742D01*
X44249500Y37885259D01*
X44274446Y37695785D01*
X44279452Y37657762D01*
X44279453Y37657760D01*
X44338842Y37436113D01*
X44426650Y37224124D01*
X44426657Y37224110D01*
X44541392Y37025383D01*
X44681081Y36843339D01*
X44681089Y36843330D01*
X44843330Y36681089D01*
X44843338Y36681082D01*
X45025382Y36541393D01*
X45025385Y36541392D01*
X45025388Y36541389D01*
X45224112Y36426656D01*
X45224117Y36426654D01*
X45224123Y36426651D01*
X45315480Y36388810D01*
X45436113Y36338842D01*
X45657762Y36279452D01*
X45885266Y36249500D01*
X45885273Y36249500D01*
X46114727Y36249500D01*
X46114734Y36249500D01*
X46342238Y36279452D01*
X46563887Y36338842D01*
X46775888Y36426656D01*
X46974612Y36541389D01*
X47156661Y36681081D01*
X47156665Y36681086D01*
X47156670Y36681089D01*
X47318911Y36843330D01*
X47318914Y36843335D01*
X47318919Y36843339D01*
X47458611Y37025388D01*
X47573344Y37224112D01*
X47661158Y37436113D01*
X47720548Y37657762D01*
X47750500Y37885266D01*
X47750500Y38114734D01*
X47720548Y38342238D01*
X47661158Y38563887D01*
X47573344Y38775888D01*
X47458611Y38974612D01*
X47458608Y38974615D01*
X47458607Y38974618D01*
X47318918Y39156662D01*
X47318911Y39156670D01*
X47156670Y39318911D01*
X47156661Y39318919D01*
X46974617Y39458608D01*
X46775890Y39573343D01*
X46775876Y39573350D01*
X46563887Y39661158D01*
X46342238Y39720548D01*
X46304215Y39725554D01*
X46114741Y39750500D01*
X46114734Y39750500D01*
X45885266Y39750500D01*
X45885258Y39750500D01*
X45668715Y39721991D01*
X45657762Y39720548D01*
X45564076Y39695446D01*
X45436112Y39661158D01*
X45224123Y39573350D01*
X45224109Y39573343D01*
X45025382Y39458608D01*
X44843338Y39318919D01*
X44681081Y39156662D01*
X44541392Y38974618D01*
X44426657Y38775891D01*
X44426650Y38775877D01*
X44338842Y38563888D01*
X44279453Y38342241D01*
X44279451Y38342230D01*
X44249500Y38114742D01*
X5750499Y38114742D01*
X5720548Y38342238D01*
X5661158Y38563887D01*
X5573344Y38775888D01*
X5458611Y38974612D01*
X5458608Y38974615D01*
X5458607Y38974618D01*
X5318918Y39156662D01*
X5318911Y39156670D01*
X5156670Y39318911D01*
X5156661Y39318919D01*
X4974617Y39458608D01*
X4775890Y39573343D01*
X4775876Y39573350D01*
X4563887Y39661158D01*
X4342238Y39720548D01*
X4304215Y39725554D01*
X4114741Y39750500D01*
X4114734Y39750500D01*
X3885266Y39750500D01*
X3885258Y39750500D01*
X3668715Y39721991D01*
X3657762Y39720548D01*
X3564076Y39695446D01*
X3436112Y39661158D01*
X3224123Y39573350D01*
X3224109Y39573343D01*
X3025382Y39458608D01*
X2843338Y39318919D01*
X2681081Y39156662D01*
X2541392Y38974618D01*
X2426657Y38775891D01*
X2426650Y38775877D01*
X2338842Y38563888D01*
X2279453Y38342241D01*
X2279451Y38342230D01*
X2249500Y38114742D01*
X1000000Y38114742D01*
X1000000Y40876000D01*
X1019685Y40943039D01*
X1072489Y40988794D01*
X1124000Y41000000D01*
X48876000Y41000000D01*
X48943039Y40980315D01*
G37*
%TD.AperFunction*%
%TD*%
M02*
