%TF.GenerationSoftware,KiCad,Pcbnew,8.0.2*%
%TF.CreationDate,2025-01-07T09:10:32-03:00*%
%TF.ProjectId,LumiCom_Transmitter,4c756d69-436f-46d5-9f54-72616e736d69,rev?*%
%TF.SameCoordinates,Original*%
%TF.FileFunction,Other,Comment*%
%FSLAX46Y46*%
G04 Gerber Fmt 4.6, Leading zero omitted, Abs format (unit mm)*
G04 Created by KiCad (PCBNEW 8.0.2) date 2025-01-07 09:10:32*
%MOMM*%
%LPD*%
G01*
G04 APERTURE LIST*
%ADD10C,0.150000*%
%ADD11C,0.100000*%
G04 APERTURE END LIST*
D10*
X-8361848Y16857144D02*
X-7695181Y16857144D01*
X-8742800Y16619049D02*
X-8028515Y16380954D01*
X-8028515Y16380954D02*
X-8028515Y17000001D01*
X-8599943Y17333335D02*
X-8647562Y17380954D01*
X-8647562Y17380954D02*
X-8695181Y17476192D01*
X-8695181Y17476192D02*
X-8695181Y17714287D01*
X-8695181Y17714287D02*
X-8647562Y17809525D01*
X-8647562Y17809525D02*
X-8599943Y17857144D01*
X-8599943Y17857144D02*
X-8504705Y17904763D01*
X-8504705Y17904763D02*
X-8409467Y17904763D01*
X-8409467Y17904763D02*
X-8266610Y17857144D01*
X-8266610Y17857144D02*
X-7695181Y17285716D01*
X-7695181Y17285716D02*
X-7695181Y17904763D01*
X-7790420Y18333335D02*
X-7742800Y18380954D01*
X-7742800Y18380954D02*
X-7695181Y18333335D01*
X-7695181Y18333335D02*
X-7742800Y18285716D01*
X-7742800Y18285716D02*
X-7790420Y18333335D01*
X-7790420Y18333335D02*
X-7695181Y18333335D01*
X-8695181Y19000001D02*
X-8695181Y19095239D01*
X-8695181Y19095239D02*
X-8647562Y19190477D01*
X-8647562Y19190477D02*
X-8599943Y19238096D01*
X-8599943Y19238096D02*
X-8504705Y19285715D01*
X-8504705Y19285715D02*
X-8314229Y19333334D01*
X-8314229Y19333334D02*
X-8076134Y19333334D01*
X-8076134Y19333334D02*
X-7885658Y19285715D01*
X-7885658Y19285715D02*
X-7790420Y19238096D01*
X-7790420Y19238096D02*
X-7742800Y19190477D01*
X-7742800Y19190477D02*
X-7695181Y19095239D01*
X-7695181Y19095239D02*
X-7695181Y19000001D01*
X-7695181Y19000001D02*
X-7742800Y18904763D01*
X-7742800Y18904763D02*
X-7790420Y18857144D01*
X-7790420Y18857144D02*
X-7885658Y18809525D01*
X-7885658Y18809525D02*
X-8076134Y18761906D01*
X-8076134Y18761906D02*
X-8314229Y18761906D01*
X-8314229Y18761906D02*
X-8504705Y18809525D01*
X-8504705Y18809525D02*
X-8599943Y18857144D01*
X-8599943Y18857144D02*
X-8647562Y18904763D01*
X-8647562Y18904763D02*
X-8695181Y19000001D01*
X-8695181Y19952382D02*
X-8695181Y20047620D01*
X-8695181Y20047620D02*
X-8647562Y20142858D01*
X-8647562Y20142858D02*
X-8599943Y20190477D01*
X-8599943Y20190477D02*
X-8504705Y20238096D01*
X-8504705Y20238096D02*
X-8314229Y20285715D01*
X-8314229Y20285715D02*
X-8076134Y20285715D01*
X-8076134Y20285715D02*
X-7885658Y20238096D01*
X-7885658Y20238096D02*
X-7790420Y20190477D01*
X-7790420Y20190477D02*
X-7742800Y20142858D01*
X-7742800Y20142858D02*
X-7695181Y20047620D01*
X-7695181Y20047620D02*
X-7695181Y19952382D01*
X-7695181Y19952382D02*
X-7742800Y19857144D01*
X-7742800Y19857144D02*
X-7790420Y19809525D01*
X-7790420Y19809525D02*
X-7885658Y19761906D01*
X-7885658Y19761906D02*
X-8076134Y19714287D01*
X-8076134Y19714287D02*
X-8314229Y19714287D01*
X-8314229Y19714287D02*
X-8504705Y19761906D01*
X-8504705Y19761906D02*
X-8599943Y19809525D01*
X-8599943Y19809525D02*
X-8647562Y19857144D01*
X-8647562Y19857144D02*
X-8695181Y19952382D01*
X-8695181Y20904763D02*
X-8695181Y21000001D01*
X-8695181Y21000001D02*
X-8647562Y21095239D01*
X-8647562Y21095239D02*
X-8599943Y21142858D01*
X-8599943Y21142858D02*
X-8504705Y21190477D01*
X-8504705Y21190477D02*
X-8314229Y21238096D01*
X-8314229Y21238096D02*
X-8076134Y21238096D01*
X-8076134Y21238096D02*
X-7885658Y21190477D01*
X-7885658Y21190477D02*
X-7790420Y21142858D01*
X-7790420Y21142858D02*
X-7742800Y21095239D01*
X-7742800Y21095239D02*
X-7695181Y21000001D01*
X-7695181Y21000001D02*
X-7695181Y20904763D01*
X-7695181Y20904763D02*
X-7742800Y20809525D01*
X-7742800Y20809525D02*
X-7790420Y20761906D01*
X-7790420Y20761906D02*
X-7885658Y20714287D01*
X-7885658Y20714287D02*
X-8076134Y20666668D01*
X-8076134Y20666668D02*
X-8314229Y20666668D01*
X-8314229Y20666668D02*
X-8504705Y20714287D01*
X-8504705Y20714287D02*
X-8599943Y20761906D01*
X-8599943Y20761906D02*
X-8647562Y20809525D01*
X-8647562Y20809525D02*
X-8695181Y20904763D01*
X-8695181Y21857144D02*
X-8695181Y21952382D01*
X-8695181Y21952382D02*
X-8647562Y22047620D01*
X-8647562Y22047620D02*
X-8599943Y22095239D01*
X-8599943Y22095239D02*
X-8504705Y22142858D01*
X-8504705Y22142858D02*
X-8314229Y22190477D01*
X-8314229Y22190477D02*
X-8076134Y22190477D01*
X-8076134Y22190477D02*
X-7885658Y22142858D01*
X-7885658Y22142858D02*
X-7790420Y22095239D01*
X-7790420Y22095239D02*
X-7742800Y22047620D01*
X-7742800Y22047620D02*
X-7695181Y21952382D01*
X-7695181Y21952382D02*
X-7695181Y21857144D01*
X-7695181Y21857144D02*
X-7742800Y21761906D01*
X-7742800Y21761906D02*
X-7790420Y21714287D01*
X-7790420Y21714287D02*
X-7885658Y21666668D01*
X-7885658Y21666668D02*
X-8076134Y21619049D01*
X-8076134Y21619049D02*
X-8314229Y21619049D01*
X-8314229Y21619049D02*
X-8504705Y21666668D01*
X-8504705Y21666668D02*
X-8599943Y21714287D01*
X-8599943Y21714287D02*
X-8647562Y21761906D01*
X-8647562Y21761906D02*
X-8695181Y21857144D01*
X-7695181Y23380954D02*
X-8361848Y23380954D01*
X-8266610Y23380954D02*
X-8314229Y23428573D01*
X-8314229Y23428573D02*
X-8361848Y23523811D01*
X-8361848Y23523811D02*
X-8361848Y23666668D01*
X-8361848Y23666668D02*
X-8314229Y23761906D01*
X-8314229Y23761906D02*
X-8218991Y23809525D01*
X-8218991Y23809525D02*
X-7695181Y23809525D01*
X-8218991Y23809525D02*
X-8314229Y23857144D01*
X-8314229Y23857144D02*
X-8361848Y23952382D01*
X-8361848Y23952382D02*
X-8361848Y24095239D01*
X-8361848Y24095239D02*
X-8314229Y24190478D01*
X-8314229Y24190478D02*
X-8218991Y24238097D01*
X-8218991Y24238097D02*
X-7695181Y24238097D01*
X-7695181Y24714287D02*
X-8361848Y24714287D01*
X-8266610Y24714287D02*
X-8314229Y24761906D01*
X-8314229Y24761906D02*
X-8361848Y24857144D01*
X-8361848Y24857144D02*
X-8361848Y25000001D01*
X-8361848Y25000001D02*
X-8314229Y25095239D01*
X-8314229Y25095239D02*
X-8218991Y25142858D01*
X-8218991Y25142858D02*
X-7695181Y25142858D01*
X-8218991Y25142858D02*
X-8314229Y25190477D01*
X-8314229Y25190477D02*
X-8361848Y25285715D01*
X-8361848Y25285715D02*
X-8361848Y25428572D01*
X-8361848Y25428572D02*
X-8314229Y25523811D01*
X-8314229Y25523811D02*
X-8218991Y25571430D01*
X-8218991Y25571430D02*
X-7695181Y25571430D01*
D11*
X-500000Y42000000D02*
X-7586420Y42000000D01*
X-500000Y0D02*
X-7586420Y0D01*
X-7000000Y42000000D02*
X-7000000Y0D01*
X-7000000Y42000000D02*
X-7000000Y0D01*
X-7000000Y42000000D02*
X-6413579Y40873496D01*
X-7000000Y42000000D02*
X-7586421Y40873496D01*
X-7000000Y0D02*
X-7586421Y1126504D01*
X-7000000Y0D02*
X-6413579Y1126504D01*
D10*
X20904762Y48695181D02*
X20428572Y48695181D01*
X20428572Y48695181D02*
X20380953Y48218991D01*
X20380953Y48218991D02*
X20428572Y48266610D01*
X20428572Y48266610D02*
X20523810Y48314229D01*
X20523810Y48314229D02*
X20761905Y48314229D01*
X20761905Y48314229D02*
X20857143Y48266610D01*
X20857143Y48266610D02*
X20904762Y48218991D01*
X20904762Y48218991D02*
X20952381Y48123753D01*
X20952381Y48123753D02*
X20952381Y47885658D01*
X20952381Y47885658D02*
X20904762Y47790420D01*
X20904762Y47790420D02*
X20857143Y47742800D01*
X20857143Y47742800D02*
X20761905Y47695181D01*
X20761905Y47695181D02*
X20523810Y47695181D01*
X20523810Y47695181D02*
X20428572Y47742800D01*
X20428572Y47742800D02*
X20380953Y47790420D01*
X21571429Y48695181D02*
X21666667Y48695181D01*
X21666667Y48695181D02*
X21761905Y48647562D01*
X21761905Y48647562D02*
X21809524Y48599943D01*
X21809524Y48599943D02*
X21857143Y48504705D01*
X21857143Y48504705D02*
X21904762Y48314229D01*
X21904762Y48314229D02*
X21904762Y48076134D01*
X21904762Y48076134D02*
X21857143Y47885658D01*
X21857143Y47885658D02*
X21809524Y47790420D01*
X21809524Y47790420D02*
X21761905Y47742800D01*
X21761905Y47742800D02*
X21666667Y47695181D01*
X21666667Y47695181D02*
X21571429Y47695181D01*
X21571429Y47695181D02*
X21476191Y47742800D01*
X21476191Y47742800D02*
X21428572Y47790420D01*
X21428572Y47790420D02*
X21380953Y47885658D01*
X21380953Y47885658D02*
X21333334Y48076134D01*
X21333334Y48076134D02*
X21333334Y48314229D01*
X21333334Y48314229D02*
X21380953Y48504705D01*
X21380953Y48504705D02*
X21428572Y48599943D01*
X21428572Y48599943D02*
X21476191Y48647562D01*
X21476191Y48647562D02*
X21571429Y48695181D01*
X22333334Y47790420D02*
X22380953Y47742800D01*
X22380953Y47742800D02*
X22333334Y47695181D01*
X22333334Y47695181D02*
X22285715Y47742800D01*
X22285715Y47742800D02*
X22333334Y47790420D01*
X22333334Y47790420D02*
X22333334Y47695181D01*
X23000000Y48695181D02*
X23095238Y48695181D01*
X23095238Y48695181D02*
X23190476Y48647562D01*
X23190476Y48647562D02*
X23238095Y48599943D01*
X23238095Y48599943D02*
X23285714Y48504705D01*
X23285714Y48504705D02*
X23333333Y48314229D01*
X23333333Y48314229D02*
X23333333Y48076134D01*
X23333333Y48076134D02*
X23285714Y47885658D01*
X23285714Y47885658D02*
X23238095Y47790420D01*
X23238095Y47790420D02*
X23190476Y47742800D01*
X23190476Y47742800D02*
X23095238Y47695181D01*
X23095238Y47695181D02*
X23000000Y47695181D01*
X23000000Y47695181D02*
X22904762Y47742800D01*
X22904762Y47742800D02*
X22857143Y47790420D01*
X22857143Y47790420D02*
X22809524Y47885658D01*
X22809524Y47885658D02*
X22761905Y48076134D01*
X22761905Y48076134D02*
X22761905Y48314229D01*
X22761905Y48314229D02*
X22809524Y48504705D01*
X22809524Y48504705D02*
X22857143Y48599943D01*
X22857143Y48599943D02*
X22904762Y48647562D01*
X22904762Y48647562D02*
X23000000Y48695181D01*
X23952381Y48695181D02*
X24047619Y48695181D01*
X24047619Y48695181D02*
X24142857Y48647562D01*
X24142857Y48647562D02*
X24190476Y48599943D01*
X24190476Y48599943D02*
X24238095Y48504705D01*
X24238095Y48504705D02*
X24285714Y48314229D01*
X24285714Y48314229D02*
X24285714Y48076134D01*
X24285714Y48076134D02*
X24238095Y47885658D01*
X24238095Y47885658D02*
X24190476Y47790420D01*
X24190476Y47790420D02*
X24142857Y47742800D01*
X24142857Y47742800D02*
X24047619Y47695181D01*
X24047619Y47695181D02*
X23952381Y47695181D01*
X23952381Y47695181D02*
X23857143Y47742800D01*
X23857143Y47742800D02*
X23809524Y47790420D01*
X23809524Y47790420D02*
X23761905Y47885658D01*
X23761905Y47885658D02*
X23714286Y48076134D01*
X23714286Y48076134D02*
X23714286Y48314229D01*
X23714286Y48314229D02*
X23761905Y48504705D01*
X23761905Y48504705D02*
X23809524Y48599943D01*
X23809524Y48599943D02*
X23857143Y48647562D01*
X23857143Y48647562D02*
X23952381Y48695181D01*
X24904762Y48695181D02*
X25000000Y48695181D01*
X25000000Y48695181D02*
X25095238Y48647562D01*
X25095238Y48647562D02*
X25142857Y48599943D01*
X25142857Y48599943D02*
X25190476Y48504705D01*
X25190476Y48504705D02*
X25238095Y48314229D01*
X25238095Y48314229D02*
X25238095Y48076134D01*
X25238095Y48076134D02*
X25190476Y47885658D01*
X25190476Y47885658D02*
X25142857Y47790420D01*
X25142857Y47790420D02*
X25095238Y47742800D01*
X25095238Y47742800D02*
X25000000Y47695181D01*
X25000000Y47695181D02*
X24904762Y47695181D01*
X24904762Y47695181D02*
X24809524Y47742800D01*
X24809524Y47742800D02*
X24761905Y47790420D01*
X24761905Y47790420D02*
X24714286Y47885658D01*
X24714286Y47885658D02*
X24666667Y48076134D01*
X24666667Y48076134D02*
X24666667Y48314229D01*
X24666667Y48314229D02*
X24714286Y48504705D01*
X24714286Y48504705D02*
X24761905Y48599943D01*
X24761905Y48599943D02*
X24809524Y48647562D01*
X24809524Y48647562D02*
X24904762Y48695181D01*
X25857143Y48695181D02*
X25952381Y48695181D01*
X25952381Y48695181D02*
X26047619Y48647562D01*
X26047619Y48647562D02*
X26095238Y48599943D01*
X26095238Y48599943D02*
X26142857Y48504705D01*
X26142857Y48504705D02*
X26190476Y48314229D01*
X26190476Y48314229D02*
X26190476Y48076134D01*
X26190476Y48076134D02*
X26142857Y47885658D01*
X26142857Y47885658D02*
X26095238Y47790420D01*
X26095238Y47790420D02*
X26047619Y47742800D01*
X26047619Y47742800D02*
X25952381Y47695181D01*
X25952381Y47695181D02*
X25857143Y47695181D01*
X25857143Y47695181D02*
X25761905Y47742800D01*
X25761905Y47742800D02*
X25714286Y47790420D01*
X25714286Y47790420D02*
X25666667Y47885658D01*
X25666667Y47885658D02*
X25619048Y48076134D01*
X25619048Y48076134D02*
X25619048Y48314229D01*
X25619048Y48314229D02*
X25666667Y48504705D01*
X25666667Y48504705D02*
X25714286Y48599943D01*
X25714286Y48599943D02*
X25761905Y48647562D01*
X25761905Y48647562D02*
X25857143Y48695181D01*
X27380953Y47695181D02*
X27380953Y48361848D01*
X27380953Y48266610D02*
X27428572Y48314229D01*
X27428572Y48314229D02*
X27523810Y48361848D01*
X27523810Y48361848D02*
X27666667Y48361848D01*
X27666667Y48361848D02*
X27761905Y48314229D01*
X27761905Y48314229D02*
X27809524Y48218991D01*
X27809524Y48218991D02*
X27809524Y47695181D01*
X27809524Y48218991D02*
X27857143Y48314229D01*
X27857143Y48314229D02*
X27952381Y48361848D01*
X27952381Y48361848D02*
X28095238Y48361848D01*
X28095238Y48361848D02*
X28190477Y48314229D01*
X28190477Y48314229D02*
X28238096Y48218991D01*
X28238096Y48218991D02*
X28238096Y47695181D01*
X28714286Y47695181D02*
X28714286Y48361848D01*
X28714286Y48266610D02*
X28761905Y48314229D01*
X28761905Y48314229D02*
X28857143Y48361848D01*
X28857143Y48361848D02*
X29000000Y48361848D01*
X29000000Y48361848D02*
X29095238Y48314229D01*
X29095238Y48314229D02*
X29142857Y48218991D01*
X29142857Y48218991D02*
X29142857Y47695181D01*
X29142857Y48218991D02*
X29190476Y48314229D01*
X29190476Y48314229D02*
X29285714Y48361848D01*
X29285714Y48361848D02*
X29428571Y48361848D01*
X29428571Y48361848D02*
X29523810Y48314229D01*
X29523810Y48314229D02*
X29571429Y48218991D01*
X29571429Y48218991D02*
X29571429Y47695181D01*
D11*
X0Y42500000D02*
X0Y47586420D01*
X50000000Y42500000D02*
X50000000Y47586420D01*
X0Y47000000D02*
X50000000Y47000000D01*
X0Y47000000D02*
X50000000Y47000000D01*
X0Y47000000D02*
X1126504Y47586421D01*
X0Y47000000D02*
X1126504Y46413579D01*
X50000000Y47000000D02*
X48873496Y46413579D01*
X50000000Y47000000D02*
X48873496Y47586421D01*
D10*
X7880953Y53599943D02*
X7928572Y53647562D01*
X7928572Y53647562D02*
X8023810Y53695181D01*
X8023810Y53695181D02*
X8261905Y53695181D01*
X8261905Y53695181D02*
X8357143Y53647562D01*
X8357143Y53647562D02*
X8404762Y53599943D01*
X8404762Y53599943D02*
X8452381Y53504705D01*
X8452381Y53504705D02*
X8452381Y53409467D01*
X8452381Y53409467D02*
X8404762Y53266610D01*
X8404762Y53266610D02*
X7833334Y52695181D01*
X7833334Y52695181D02*
X8452381Y52695181D01*
X9357143Y53695181D02*
X8880953Y53695181D01*
X8880953Y53695181D02*
X8833334Y53218991D01*
X8833334Y53218991D02*
X8880953Y53266610D01*
X8880953Y53266610D02*
X8976191Y53314229D01*
X8976191Y53314229D02*
X9214286Y53314229D01*
X9214286Y53314229D02*
X9309524Y53266610D01*
X9309524Y53266610D02*
X9357143Y53218991D01*
X9357143Y53218991D02*
X9404762Y53123753D01*
X9404762Y53123753D02*
X9404762Y52885658D01*
X9404762Y52885658D02*
X9357143Y52790420D01*
X9357143Y52790420D02*
X9309524Y52742800D01*
X9309524Y52742800D02*
X9214286Y52695181D01*
X9214286Y52695181D02*
X8976191Y52695181D01*
X8976191Y52695181D02*
X8880953Y52742800D01*
X8880953Y52742800D02*
X8833334Y52790420D01*
X9833334Y52790420D02*
X9880953Y52742800D01*
X9880953Y52742800D02*
X9833334Y52695181D01*
X9833334Y52695181D02*
X9785715Y52742800D01*
X9785715Y52742800D02*
X9833334Y52790420D01*
X9833334Y52790420D02*
X9833334Y52695181D01*
X10500000Y53695181D02*
X10595238Y53695181D01*
X10595238Y53695181D02*
X10690476Y53647562D01*
X10690476Y53647562D02*
X10738095Y53599943D01*
X10738095Y53599943D02*
X10785714Y53504705D01*
X10785714Y53504705D02*
X10833333Y53314229D01*
X10833333Y53314229D02*
X10833333Y53076134D01*
X10833333Y53076134D02*
X10785714Y52885658D01*
X10785714Y52885658D02*
X10738095Y52790420D01*
X10738095Y52790420D02*
X10690476Y52742800D01*
X10690476Y52742800D02*
X10595238Y52695181D01*
X10595238Y52695181D02*
X10500000Y52695181D01*
X10500000Y52695181D02*
X10404762Y52742800D01*
X10404762Y52742800D02*
X10357143Y52790420D01*
X10357143Y52790420D02*
X10309524Y52885658D01*
X10309524Y52885658D02*
X10261905Y53076134D01*
X10261905Y53076134D02*
X10261905Y53314229D01*
X10261905Y53314229D02*
X10309524Y53504705D01*
X10309524Y53504705D02*
X10357143Y53599943D01*
X10357143Y53599943D02*
X10404762Y53647562D01*
X10404762Y53647562D02*
X10500000Y53695181D01*
X11452381Y53695181D02*
X11547619Y53695181D01*
X11547619Y53695181D02*
X11642857Y53647562D01*
X11642857Y53647562D02*
X11690476Y53599943D01*
X11690476Y53599943D02*
X11738095Y53504705D01*
X11738095Y53504705D02*
X11785714Y53314229D01*
X11785714Y53314229D02*
X11785714Y53076134D01*
X11785714Y53076134D02*
X11738095Y52885658D01*
X11738095Y52885658D02*
X11690476Y52790420D01*
X11690476Y52790420D02*
X11642857Y52742800D01*
X11642857Y52742800D02*
X11547619Y52695181D01*
X11547619Y52695181D02*
X11452381Y52695181D01*
X11452381Y52695181D02*
X11357143Y52742800D01*
X11357143Y52742800D02*
X11309524Y52790420D01*
X11309524Y52790420D02*
X11261905Y52885658D01*
X11261905Y52885658D02*
X11214286Y53076134D01*
X11214286Y53076134D02*
X11214286Y53314229D01*
X11214286Y53314229D02*
X11261905Y53504705D01*
X11261905Y53504705D02*
X11309524Y53599943D01*
X11309524Y53599943D02*
X11357143Y53647562D01*
X11357143Y53647562D02*
X11452381Y53695181D01*
X12404762Y53695181D02*
X12500000Y53695181D01*
X12500000Y53695181D02*
X12595238Y53647562D01*
X12595238Y53647562D02*
X12642857Y53599943D01*
X12642857Y53599943D02*
X12690476Y53504705D01*
X12690476Y53504705D02*
X12738095Y53314229D01*
X12738095Y53314229D02*
X12738095Y53076134D01*
X12738095Y53076134D02*
X12690476Y52885658D01*
X12690476Y52885658D02*
X12642857Y52790420D01*
X12642857Y52790420D02*
X12595238Y52742800D01*
X12595238Y52742800D02*
X12500000Y52695181D01*
X12500000Y52695181D02*
X12404762Y52695181D01*
X12404762Y52695181D02*
X12309524Y52742800D01*
X12309524Y52742800D02*
X12261905Y52790420D01*
X12261905Y52790420D02*
X12214286Y52885658D01*
X12214286Y52885658D02*
X12166667Y53076134D01*
X12166667Y53076134D02*
X12166667Y53314229D01*
X12166667Y53314229D02*
X12214286Y53504705D01*
X12214286Y53504705D02*
X12261905Y53599943D01*
X12261905Y53599943D02*
X12309524Y53647562D01*
X12309524Y53647562D02*
X12404762Y53695181D01*
X13357143Y53695181D02*
X13452381Y53695181D01*
X13452381Y53695181D02*
X13547619Y53647562D01*
X13547619Y53647562D02*
X13595238Y53599943D01*
X13595238Y53599943D02*
X13642857Y53504705D01*
X13642857Y53504705D02*
X13690476Y53314229D01*
X13690476Y53314229D02*
X13690476Y53076134D01*
X13690476Y53076134D02*
X13642857Y52885658D01*
X13642857Y52885658D02*
X13595238Y52790420D01*
X13595238Y52790420D02*
X13547619Y52742800D01*
X13547619Y52742800D02*
X13452381Y52695181D01*
X13452381Y52695181D02*
X13357143Y52695181D01*
X13357143Y52695181D02*
X13261905Y52742800D01*
X13261905Y52742800D02*
X13214286Y52790420D01*
X13214286Y52790420D02*
X13166667Y52885658D01*
X13166667Y52885658D02*
X13119048Y53076134D01*
X13119048Y53076134D02*
X13119048Y53314229D01*
X13119048Y53314229D02*
X13166667Y53504705D01*
X13166667Y53504705D02*
X13214286Y53599943D01*
X13214286Y53599943D02*
X13261905Y53647562D01*
X13261905Y53647562D02*
X13357143Y53695181D01*
X14880953Y52695181D02*
X14880953Y53361848D01*
X14880953Y53266610D02*
X14928572Y53314229D01*
X14928572Y53314229D02*
X15023810Y53361848D01*
X15023810Y53361848D02*
X15166667Y53361848D01*
X15166667Y53361848D02*
X15261905Y53314229D01*
X15261905Y53314229D02*
X15309524Y53218991D01*
X15309524Y53218991D02*
X15309524Y52695181D01*
X15309524Y53218991D02*
X15357143Y53314229D01*
X15357143Y53314229D02*
X15452381Y53361848D01*
X15452381Y53361848D02*
X15595238Y53361848D01*
X15595238Y53361848D02*
X15690477Y53314229D01*
X15690477Y53314229D02*
X15738096Y53218991D01*
X15738096Y53218991D02*
X15738096Y52695181D01*
X16214286Y52695181D02*
X16214286Y53361848D01*
X16214286Y53266610D02*
X16261905Y53314229D01*
X16261905Y53314229D02*
X16357143Y53361848D01*
X16357143Y53361848D02*
X16500000Y53361848D01*
X16500000Y53361848D02*
X16595238Y53314229D01*
X16595238Y53314229D02*
X16642857Y53218991D01*
X16642857Y53218991D02*
X16642857Y52695181D01*
X16642857Y53218991D02*
X16690476Y53314229D01*
X16690476Y53314229D02*
X16785714Y53361848D01*
X16785714Y53361848D02*
X16928571Y53361848D01*
X16928571Y53361848D02*
X17023810Y53314229D01*
X17023810Y53314229D02*
X17071429Y53218991D01*
X17071429Y53218991D02*
X17071429Y52695181D01*
D11*
X0Y42500000D02*
X0Y52586420D01*
X25000000Y42500000D02*
X25000000Y52586420D01*
X0Y52000000D02*
X25000000Y52000000D01*
X0Y52000000D02*
X25000000Y52000000D01*
X0Y52000000D02*
X1126504Y52586421D01*
X0Y52000000D02*
X1126504Y51413579D01*
X25000000Y52000000D02*
X23873496Y51413579D01*
X25000000Y52000000D02*
X23873496Y52586421D01*
D10*
%TO.C,H2*%
X48850000Y4000000D02*
G75*
G02*
X43150000Y4000000I-2850000J0D01*
G01*
X43150000Y4000000D02*
G75*
G02*
X48850000Y4000000I2850000J0D01*
G01*
%TO.C,H1*%
X6850000Y38000000D02*
G75*
G02*
X1150000Y38000000I-2850000J0D01*
G01*
X1150000Y38000000D02*
G75*
G02*
X6850000Y38000000I2850000J0D01*
G01*
%TO.C,H4*%
X6850000Y4000000D02*
G75*
G02*
X1150000Y4000000I-2850000J0D01*
G01*
X1150000Y4000000D02*
G75*
G02*
X6850000Y4000000I2850000J0D01*
G01*
%TO.C,H3*%
X48850000Y38000000D02*
G75*
G02*
X43150000Y38000000I-2850000J0D01*
G01*
X43150000Y38000000D02*
G75*
G02*
X48850000Y38000000I2850000J0D01*
G01*
%TD*%
M02*
