M48
; DRILL file {KiCad 8.0.2} date 2025-01-07T09:10:32-0300
; FORMAT={-:-/ absolute / inch / decimal}
; #@! TF.CreationDate,2025-01-07T09:10:32-03:00
; #@! TF.GenerationSoftware,Kicad,Pcbnew,8.0.2
; #@! TF.FileFunction,Plated,1,4,PTH
FMAT,2
INCH
; #@! TA.AperFunction,Plated,PTH,ComponentDrill
T1C0.0079
; #@! TA.AperFunction,Plated,PTH,ViaDrill
T2C0.0118
; #@! TA.AperFunction,Plated,PTH,ComponentDrill
T3C0.0394
; #@! TA.AperFunction,Plated,PTH,ComponentDrill
T4C0.0433
%
G90
G05
T1
X0.9528Y0.7008
X0.9528Y0.6378
X0.9528Y0.6693
X0.9843Y0.7008
X0.9843Y0.6693
X0.9843Y0.6378
X1.0157Y0.6693
X1.0157Y0.7008
X1.0157Y0.6378
T2
X0.1181Y1.1811
X0.4331Y0.8661
X0.4331Y0.4724
X0.4724Y1.1811
X0.5512Y0.9843
X0.5906Y0.315
X0.748Y0.9449
X0.748Y0.8661
X0.748Y0.5906
X0.748Y0.5512
X0.748Y0.5118
X0.748Y0.4724
X0.748Y0.4331
X0.748Y0.3937
X0.7874Y0.5906
X0.7874Y0.5512
X0.7874Y0.5118
X0.7874Y0.4724
X0.7874Y0.4331
X0.7874Y0.3937
X0.8268Y0.9449
X0.8268Y0.8661
X0.8268Y0.5906
X0.8268Y0.5512
X0.8268Y0.5118
X0.8268Y0.4724
X0.8268Y0.4331
X0.8268Y0.3937
X0.8661Y0.5906
X0.8661Y0.5512
X0.8661Y0.5118
X0.8661Y0.4724
X0.8661Y0.4331
X0.8661Y0.3937
X0.9012Y0.5862
X0.9055Y0.5512
X0.9055Y0.5118
X0.9055Y0.4724
X0.9055Y0.4331
X0.9055Y0.3937
X0.9449Y0.5512
X0.9449Y0.5118
X0.9449Y0.4724
X0.9449Y0.4331
X0.9843Y1.2598
X0.9843Y1.063
X0.9843Y0.8268
X0.9843Y0.5512
X1.0236Y0.5512
X1.0236Y0.5118
X1.0236Y0.4724
X1.0236Y0.4331
X1.063Y0.5512
X1.063Y0.5118
X1.063Y0.4724
X1.063Y0.4331
X1.063Y0.3937
X1.0827Y0.3346
X1.1024Y0.6299
X1.1024Y0.5906
X1.1024Y0.5512
X1.1024Y0.5118
X1.1024Y0.4724
X1.1024Y0.4331
X1.1024Y0.3937
X1.1417Y0.9449
X1.1417Y0.8661
X1.1417Y0.5906
X1.1417Y0.5512
X1.1417Y0.5118
X1.1417Y0.4724
X1.1417Y0.4331
X1.1417Y0.3937
X1.1811Y0.5906
X1.1811Y0.5512
X1.1811Y0.5118
X1.1811Y0.4724
X1.1811Y0.4331
X1.1811Y0.3937
X1.2205Y0.9449
X1.2205Y0.8661
X1.2205Y0.5906
X1.2205Y0.5512
X1.2205Y0.5118
X1.2205Y0.4724
X1.2205Y0.4331
X1.2205Y0.3937
X1.378Y0.315
X1.4173Y0.9843
X1.5354Y0.8661
X1.5354Y0.4724
T3
X0.4518Y0.1575
X0.5518Y0.1575
X0.6518Y0.1575
X1.3179Y0.1575
X1.4179Y0.1575
X1.5179Y0.1575
T4
X0.9343Y0.1575
X1.0343Y0.1575
M30
