M48
; DRILL file {KiCad 8.0.2} date 2025-01-11T00:45:04-0300
; FORMAT={-:-/ absolute / inch / decimal}
; #@! TF.CreationDate,2025-01-11T00:45:04-03:00
; #@! TF.GenerationSoftware,Kicad,Pcbnew,8.0.2
; #@! TF.FileFunction,Plated,1,2,PTH
FMAT,2
INCH
; #@! TA.AperFunction,Plated,PTH,ViaDrill
T1C0.0118
; #@! TA.AperFunction,Plated,PTH,ComponentDrill
T2C0.0512
%
G90
G05
T1
X4.5276Y-4.252
X4.5276Y-4.3307
X4.5276Y-4.4094
X4.5276Y-4.4882
X4.5669Y-4.3307
X4.5669Y-4.4094
X4.6063Y-4.3307
X4.6063Y-4.4094
X4.6457Y-4.3307
X4.6457Y-4.4094
X4.685Y-4.3307
X4.685Y-4.4094
X4.7244Y-4.3307
X4.7244Y-4.4094
X4.7638Y-4.3307
X4.7638Y-4.4094
X4.8031Y-3.7402
X4.8031Y-3.8189
X4.8031Y-4.3307
X4.8031Y-4.4094
X4.8425Y-3.7402
X4.8425Y-3.8189
X4.8425Y-4.252
X4.8425Y-4.2913
X4.8425Y-4.3307
X4.8425Y-4.4094
X4.8819Y-3.7402
X4.8819Y-3.8189
X4.8819Y-4.252
X4.8819Y-4.4094
X4.9213Y-3.7008
X4.9213Y-3.8583
X4.9213Y-3.8976
X4.9213Y-4.252
X4.9213Y-4.4094
X4.9606Y-3.6614
X4.9606Y-4.2126
X4.9606Y-4.4094
X5.0Y-3.7795
X5.0Y-3.8189
X5.0Y-3.8583
X5.0Y-3.8976
X5.0Y-4.1732
X5.0Y-4.2913
X5.0Y-4.3307
X5.0Y-4.3701
X5.0Y-4.4094
X5.0197Y-3.6575
X5.0197Y-3.7362
X5.0394Y-4.1732
X5.0394Y-4.252
X5.0787Y-4.1732
X5.0787Y-4.252
X5.0984Y-3.6575
X5.0984Y-3.7362
X5.1181Y-3.7795
X5.1181Y-3.8189
X5.1181Y-3.8976
X5.1181Y-3.937
X5.1181Y-3.9764
X5.1181Y-4.0157
X5.1181Y-4.0551
X5.1181Y-4.0945
X5.1181Y-4.1339
X5.1181Y-4.1732
X5.1181Y-4.252
X5.1575Y-3.6614
X5.1575Y-4.252
X5.1969Y-3.7008
X5.1969Y-3.7402
X5.1969Y-3.7795
X5.1969Y-3.8189
X5.1969Y-3.8976
X5.1969Y-3.937
X5.1969Y-3.9764
X5.1969Y-4.0157
X5.1969Y-4.0551
X5.1969Y-4.0945
X5.1969Y-4.1339
X5.1969Y-4.1732
X5.1969Y-4.252
X5.2362Y-4.1732
X5.2362Y-4.252
X5.2756Y-4.1732
X5.2756Y-4.252
X5.315Y-4.0945
X5.315Y-4.1732
X5.315Y-4.252
X5.315Y-4.3307
T2
X4.5276Y-3.7992
X4.7244Y-3.7992
M30
