M48
; DRILL file {KiCad 8.0.2} date 2024-10-27T20:41:52-0300
; FORMAT={-:-/ absolute / inch / decimal}
; #@! TF.CreationDate,2024-10-27T20:41:52-03:00
; #@! TF.GenerationSoftware,Kicad,Pcbnew,8.0.2
; #@! TF.FileFunction,Plated,1,2,PTH
FMAT,2
INCH
; #@! TA.AperFunction,Plated,PTH,ViaDrill
T1C0.0118
; #@! TA.AperFunction,Plated,PTH,ViaDrill
T2C0.0197
; #@! TA.AperFunction,Plated,PTH,ComponentDrill
T3C0.0394
; #@! TA.AperFunction,Plated,PTH,ComponentDrill
T4C0.0433
; #@! TA.AperFunction,Plated,PTH,ComponentDrill
T5C0.0610
; #@! TA.AperFunction,Plated,PTH,ComponentDrill
T6C0.0650
; #@! TA.AperFunction,Plated,PTH,ComponentDrill
T7C0.0866
%
G90
G05
T1
X0.0787Y1.378
X0.0787Y1.2992
X0.0787Y1.2205
X0.0787Y1.1417
X0.0787Y1.063
X0.0787Y0.9843
X0.0787Y0.9055
X0.0787Y0.8268
X0.0787Y0.748
X0.0787Y0.6693
X0.0787Y0.5906
X0.0787Y0.5118
X0.0787Y0.4331
X0.0787Y0.3543
X0.0787Y0.2756
X0.1575Y2.4803
X0.1575Y2.4016
X0.1575Y2.3228
X0.1575Y2.2441
X0.1575Y2.1654
X0.1575Y2.0866
X0.1575Y2.0079
X0.1575Y1.5354
X0.1575Y1.4567
X0.1575Y1.378
X0.1575Y1.2992
X0.1575Y1.2205
X0.1575Y0.8268
X0.1575Y0.3543
X0.1575Y0.2756
X0.2362Y2.6378
X0.2362Y2.5591
X0.2362Y2.4803
X0.2362Y2.4016
X0.2362Y2.3228
X0.2362Y2.2441
X0.2362Y1.2205
X0.2362Y0.8268
X0.315Y2.4016
X0.315Y2.3228
X0.315Y2.2441
X0.315Y2.1654
X0.315Y2.0866
X0.315Y2.0079
X0.315Y1.5354
X0.315Y1.4567
X0.315Y1.378
X0.315Y1.2992
X0.315Y1.2205
X0.315Y0.8268
X0.3937Y2.2441
X0.3937Y2.1654
X0.3937Y2.0079
X0.3937Y1.9291
X0.3937Y1.6142
X0.3937Y1.5354
X0.3937Y1.4567
X0.3937Y1.378
X0.3937Y1.2992
X0.3937Y1.2205
X0.3937Y0.8268
X0.4331Y2.2047
X0.4724Y2.0079
X0.4724Y1.8504
X0.4724Y1.6929
X0.4724Y1.6142
X0.4724Y1.5354
X0.4724Y1.4567
X0.4724Y1.378
X0.4724Y1.2992
X0.4724Y1.2205
X0.4724Y0.8268
X0.4724Y0.5118
X0.5118Y0.2756
X0.5512Y1.9291
X0.5512Y1.378
X0.5512Y1.2205
X0.5512Y1.1417
X0.5512Y1.063
X0.5512Y0.9843
X0.5512Y0.8268
X0.5512Y0.748
X0.5512Y0.6693
X0.5512Y0.5118
X0.5906Y1.9685
X0.5906Y1.4567
X0.6299Y2.4016
X0.6299Y1.9291
X0.6299Y1.8504
X0.6299Y1.378
X0.6299Y1.2205
X0.6299Y1.063
X0.6299Y0.8268
X0.6299Y0.748
X0.6299Y0.6693
X0.6299Y0.5118
X0.6299Y0.3543
X0.6299Y0.2756
X0.6299Y0.1969
X0.7087Y2.3228
X0.7087Y1.9291
X0.7087Y1.5354
X0.7087Y1.4567
X0.7087Y1.378
X0.7087Y1.2205
X0.7087Y1.1417
X0.7087Y0.9055
X0.7087Y0.8268
X0.7087Y0.748
X0.7087Y0.6693
X0.748Y1.1811
X0.7874Y2.3228
X0.7874Y2.0079
X0.7874Y1.9291
X0.7874Y1.5354
X0.7874Y1.4567
X0.7874Y1.378
X0.7874Y1.2205
X0.7874Y0.1969
X0.7874Y0.1181
X0.8661Y2.0079
X0.8661Y1.8504
X0.8661Y1.7717
X0.8661Y1.4567
X0.8661Y1.063
X0.8661Y0.9843
X0.8661Y0.9055
X0.8661Y0.1969
X0.8661Y0.1181
X0.9055Y1.6929
X0.9055Y1.4567
X0.937Y1.6614
X0.9449Y2.0079
X0.9449Y1.4567
X0.9449Y1.1417
X0.9449Y1.063
X0.9449Y0.9843
X0.9449Y0.9055
X1.0069Y1.6496
X1.0236Y1.7913
X1.0236Y1.7677
X1.0236Y1.7402
X1.0236Y1.378
X1.0236Y1.2205
X1.0236Y1.1417
X1.0236Y1.063
X1.0236Y0.9843
X1.0236Y0.9055
X1.0236Y0.4331
X1.0236Y0.3543
X1.0236Y0.2756
X1.0236Y0.1969
X1.0236Y0.1181
X1.0472Y1.7913
X1.0472Y1.7677
X1.0472Y1.7402
X1.063Y0.8268
X1.0748Y1.7913
X1.0748Y1.7677
X1.0748Y1.7402
X1.1024Y1.9291
X1.1024Y1.6142
X1.1024Y1.2205
X1.1024Y1.1417
X1.1024Y1.063
X1.1024Y0.9843
X1.1024Y0.9055
X1.1024Y0.4331
X1.1024Y0.3543
X1.1024Y0.2756
X1.1024Y0.1969
X1.1024Y0.1181
X1.1811Y1.8504
X1.1811Y1.6142
X1.1811Y1.2205
X1.1811Y1.1417
X1.1811Y1.063
X1.1811Y0.9843
X1.1811Y0.4331
X1.1811Y0.1181
X1.2598Y2.2441
X1.2598Y2.1654
X1.2598Y0.1181
X1.2992Y1.7551
X1.3386Y2.6378
X1.3386Y1.4567
X1.3386Y0.1181
X1.378Y2.1654
X1.378Y2.126
X1.378Y2.0866
X1.378Y2.0472
X1.378Y2.0079
X1.4173Y2.6378
X1.4173Y1.4567
X1.4173Y1.378
X1.4173Y1.2992
X1.4173Y1.2205
X1.4173Y1.1417
X1.4173Y1.063
X1.4173Y0.1181
X1.4961Y2.6378
X1.4961Y2.2441
X1.4961Y2.1654
X1.4961Y2.0866
X1.4961Y2.0079
X1.4961Y1.6929
X1.4961Y1.378
X1.4961Y1.2992
X1.4961Y1.2205
X1.4961Y1.1417
X1.4961Y1.063
X1.4961Y0.1181
X1.5748Y2.6378
X1.5748Y2.1654
X1.5748Y2.126
X1.5748Y2.0866
X1.5748Y2.0472
X1.5748Y2.0079
X1.5748Y0.1181
X1.6535Y2.6378
X1.6535Y1.063
X1.6535Y0.9843
X1.6535Y0.9055
X1.6535Y0.8268
X1.6535Y0.748
X1.6535Y0.6693
X1.6535Y0.2756
X1.6535Y0.1969
X1.6535Y0.1181
X1.7323Y1.5354
X1.7323Y1.2205
X1.7323Y0.6693
X1.7323Y0.2756
X1.7323Y0.1969
X1.811Y1.5354
X1.811Y1.2205
X1.811Y0.6693
X1.811Y0.2756
X1.8898Y2.4803
X1.8898Y2.3622
X1.8898Y2.2441
X1.8898Y1.5354
X1.8898Y1.2205
X1.8898Y0.6693
T2
X0.2362Y1.2992
T3
X0.1969Y1.1236
X0.1969Y1.0236
X0.1969Y0.9236
X0.2362Y2.0472
X0.4331Y1.1236
X0.4331Y1.0236
X0.4331Y0.9236
X0.6299Y1.2992
X0.6693Y2.2047
X0.8268Y2.2047
X1.2992Y1.1024
X1.5748Y1.1102
X1.811Y1.0039
X1.8898Y2.0866
X1.8898Y1.9291
T4
X0.3331Y0.1575
X0.3724Y2.5591
X0.4331Y0.1575
X0.4724Y2.5591
X0.5724Y2.5591
X0.9236Y2.5591
X1.0236Y2.5591
X1.811Y1.7547
X1.811Y1.6547
X1.811Y1.4173
X1.811Y1.3173
T5
X0.2362Y1.7638
X0.2756Y0.5906
X1.7717Y0.4724
T6
X0.1362Y1.8638
X0.1362Y1.6638
X0.1756Y0.6906
X0.1756Y0.4906
X0.3362Y1.8638
X0.3362Y1.6638
X0.3756Y0.6906
X0.3756Y0.4906
X1.6717Y0.5724
X1.6717Y0.3724
X1.8717Y0.5724
X1.8717Y0.3724
T7
X0.1181Y2.6378
X0.1181Y0.1181
X1.8504Y2.6378
X1.8504Y0.1181
M30
