%TF.GenerationSoftware,KiCad,Pcbnew,8.0.2*%
%TF.CreationDate,2024-10-27T20:41:51-03:00*%
%TF.ProjectId,LumiCom_Transmitter,4c756d69-436f-46d5-9f54-72616e736d69,rev?*%
%TF.SameCoordinates,Original*%
%TF.FileFunction,Copper,L2,Bot*%
%TF.FilePolarity,Positive*%
%FSLAX46Y46*%
G04 Gerber Fmt 4.6, Leading zero omitted, Abs format (unit mm)*
G04 Created by KiCad (PCBNEW 8.0.2) date 2024-10-27 20:41:51*
%MOMM*%
%LPD*%
G01*
G04 APERTURE LIST*
%TA.AperFunction,ComponentPad*%
%ADD10C,3.800000*%
%TD*%
%TA.AperFunction,ComponentPad*%
%ADD11R,1.700000X1.700000*%
%TD*%
%TA.AperFunction,ComponentPad*%
%ADD12O,1.700000X1.700000*%
%TD*%
%TA.AperFunction,ComponentPad*%
%ADD13R,2.200000X2.200000*%
%TD*%
%TA.AperFunction,ComponentPad*%
%ADD14C,2.200000*%
%TD*%
%TA.AperFunction,ComponentPad*%
%ADD15C,2.325000*%
%TD*%
%TA.AperFunction,ComponentPad*%
%ADD16C,2.475000*%
%TD*%
%TA.AperFunction,ViaPad*%
%ADD17C,0.400000*%
%TD*%
%TA.AperFunction,ViaPad*%
%ADD18C,0.600000*%
%TD*%
%TA.AperFunction,ViaPad*%
%ADD19C,0.800000*%
%TD*%
%TA.AperFunction,ViaPad*%
%ADD20C,0.500000*%
%TD*%
%TA.AperFunction,Conductor*%
%ADD21C,0.400000*%
%TD*%
%TA.AperFunction,Conductor*%
%ADD22C,1.000000*%
%TD*%
%TA.AperFunction,Conductor*%
%ADD23C,0.800000*%
%TD*%
%TA.AperFunction,Conductor*%
%ADD24C,2.000000*%
%TD*%
%TA.AperFunction,Conductor*%
%ADD25C,0.200000*%
%TD*%
G04 APERTURE END LIST*
D10*
%TO.P,H2,1*%
%TO.N,N/C*%
X47000000Y3000000D03*
%TD*%
%TO.P,H1,1*%
%TO.N,N/C*%
X3000000Y67000000D03*
%TD*%
D11*
%TO.P,J8,1,Pin_1*%
%TO.N,GND*%
X5000000Y28540000D03*
D12*
%TO.P,J8,2,Pin_2*%
%TO.N,Net-(J8-Pin_2)*%
X5000000Y26000000D03*
%TO.P,J8,3,Pin_3*%
%TO.N,VCC*%
X5000000Y23460000D03*
%TD*%
D13*
%TO.P,J2,1,Pin_1*%
%TO.N,Vanode*%
X26000000Y65000000D03*
D14*
%TO.P,J2,2,Pin_2*%
%TO.N,GND*%
X23460000Y65000000D03*
%TD*%
D13*
%TO.P,J4,1,Pin_1*%
%TO.N,Net-(J4-Pin_1)*%
X46000000Y33460000D03*
D14*
%TO.P,J4,2,Pin_2*%
%TO.N,GND*%
X46000000Y36000000D03*
%TD*%
D11*
%TO.P,TP3,1,1*%
%TO.N,Net-(R6-Pad2)*%
X21000000Y56000000D03*
%TD*%
D10*
%TO.P,H4,1*%
%TO.N,N/C*%
X3000000Y3000000D03*
%TD*%
D11*
%TO.P,TP1,1,1*%
%TO.N,Net-(J3-In)*%
X6000000Y52000000D03*
%TD*%
%TO.P,TP4,1,1*%
%TO.N,Net-(R7-Pad1)*%
X17000000Y56000000D03*
%TD*%
%TO.P,TP8,1,1*%
%TO.N,Net-(R19-Pad1)*%
X48000000Y53000000D03*
%TD*%
D10*
%TO.P,H3,1*%
%TO.N,N/C*%
X47000000Y67000000D03*
%TD*%
D11*
%TO.P,TP6,1,1*%
%TO.N,Net-(R15-Pad1)*%
X33000000Y28000000D03*
%TD*%
%TO.P,J9,1,Pin_1*%
%TO.N,VCC*%
X11000000Y23460000D03*
D12*
%TO.P,J9,2,Pin_2*%
%TO.N,Net-(J9-Pin_2)*%
X11000000Y26000000D03*
%TO.P,J9,3,Pin_3*%
%TO.N,GND*%
X11000000Y28540000D03*
%TD*%
D13*
%TO.P,J10,1,Pin_1*%
%TO.N,Net-(J10-Pin_1)*%
X8460000Y4000000D03*
D14*
%TO.P,J10,2,Pin_2*%
%TO.N,GND*%
X11000000Y4000000D03*
%TD*%
D13*
%TO.P,J1,1,Pin_1*%
%TO.N,VEE*%
X14540000Y65000000D03*
D14*
%TO.P,J1,2,Pin_2*%
%TO.N,GND*%
X12000000Y65000000D03*
%TO.P,J1,3,Pin_3*%
%TO.N,VCC*%
X9460000Y65000000D03*
%TD*%
D15*
%TO.P,J6,1,In*%
%TO.N,Net-(J6-In)*%
X45000000Y12000000D03*
D16*
%TO.P,J6,2,Ext*%
%TO.N,GND*%
X42460000Y9460000D03*
X47540000Y9460000D03*
X42460000Y14540000D03*
X47540000Y14540000D03*
%TD*%
D11*
%TO.P,TP2,1,1*%
%TO.N,Net-(R5-Pad2)*%
X16000000Y33000000D03*
%TD*%
%TO.P,TP5,1,1*%
%TO.N,Net-(R13-Pad1)*%
X48000000Y49000000D03*
%TD*%
%TO.P,TP7,1,1*%
%TO.N,Net-(R18-Pad1)*%
X40000000Y28200000D03*
%TD*%
D13*
%TO.P,J5,1,Pin_1*%
%TO.N,Net-(J5-Pin_1)*%
X46000000Y42030000D03*
D14*
%TO.P,J5,2,Pin_2*%
%TO.N,GND*%
X46000000Y44570000D03*
%TD*%
D15*
%TO.P,J7,1,In*%
%TO.N,Net-(J7-In)*%
X7000000Y15000000D03*
D16*
%TO.P,J7,2,Ext*%
%TO.N,GND*%
X9540000Y17540000D03*
X4460000Y17540000D03*
X9540000Y12460000D03*
X4460000Y12460000D03*
%TD*%
D11*
%TO.P,TP9,1,1*%
%TO.N,GND*%
X46000000Y25500000D03*
%TD*%
D15*
%TO.P,J3,1,In*%
%TO.N,Net-(J3-In)*%
X6000000Y44800000D03*
D16*
%TO.P,J3,2,Ext*%
%TO.N,GND*%
X8540000Y47340000D03*
X3460000Y47340000D03*
X8540000Y42260000D03*
X3460000Y42260000D03*
%TD*%
D17*
%TO.N,GND*%
X36000000Y27000000D03*
X4000000Y53000000D03*
X14000000Y19000000D03*
X44000000Y5000000D03*
X44000000Y7000000D03*
X6000000Y61000000D03*
X14000000Y49000000D03*
X10000000Y35000000D03*
X34000000Y37000000D03*
X36000000Y67000000D03*
X26600000Y44900000D03*
X4000000Y31000000D03*
X26000000Y11000000D03*
X42000000Y21000000D03*
X48000000Y57000000D03*
X42000000Y27000000D03*
X36000000Y35000000D03*
X26000000Y9000000D03*
X18000000Y17000000D03*
X20000000Y39000000D03*
X36000000Y37000000D03*
X10000000Y51000000D03*
X4000000Y63000000D03*
X28000000Y25000000D03*
X48000000Y31000000D03*
X6000000Y57000000D03*
X38000000Y3000000D03*
X48000000Y39000000D03*
X42000000Y67000000D03*
X30000000Y11000000D03*
X20000000Y59000000D03*
X16000000Y47000000D03*
X8000000Y59000000D03*
X4000000Y57000000D03*
X18000000Y49000000D03*
X16000000Y61000000D03*
X40000000Y3000000D03*
X14000000Y13000000D03*
X6000000Y59000000D03*
X22000000Y23000000D03*
X4000000Y37000000D03*
X12000000Y39000000D03*
X38000000Y57000000D03*
X26000000Y3000000D03*
X42000000Y17000000D03*
X20000000Y31000000D03*
X20000000Y51000000D03*
X8000000Y33000000D03*
X18000000Y31000000D03*
X16000000Y31000000D03*
X24000000Y37000000D03*
X18000000Y21000000D03*
X28000000Y29000000D03*
X16000000Y21000000D03*
X36000000Y29000000D03*
X26600000Y44200000D03*
X2000000Y13000000D03*
X10000000Y57000000D03*
X42000000Y3000000D03*
X12000000Y21000000D03*
X42000000Y23000000D03*
X20000000Y5000000D03*
X26000000Y45500000D03*
X4000000Y9000000D03*
X30000000Y47000000D03*
X28000000Y7000000D03*
X26000000Y25000000D03*
X34000000Y3000000D03*
X12000000Y35000000D03*
X6000000Y21000000D03*
X36000000Y3000000D03*
X24000000Y27000000D03*
X2000000Y11000000D03*
X4000000Y39000000D03*
X26000000Y35000000D03*
X44000000Y17000000D03*
X20000000Y49000000D03*
X38000000Y67000000D03*
X44000000Y31000000D03*
X16000000Y13000000D03*
X8000000Y35000000D03*
X4000000Y35000000D03*
X14000000Y29000000D03*
X8000000Y55000000D03*
X10000000Y41000000D03*
X46000000Y39000000D03*
X28000000Y5000000D03*
X16000000Y17000000D03*
X38000000Y27000000D03*
X22000000Y47000000D03*
X2000000Y15000000D03*
X18000000Y29000000D03*
X30000000Y25000000D03*
X48000000Y17000000D03*
X2000000Y25000000D03*
X16000000Y27000000D03*
X18000000Y19000000D03*
X4000000Y61000000D03*
D18*
X23000000Y37000000D03*
D17*
X30000000Y41000000D03*
X24000000Y29000000D03*
X26000000Y31000000D03*
X26000000Y23000000D03*
X22000000Y45000000D03*
X42000000Y5000000D03*
X46000000Y7000000D03*
X14000000Y31000000D03*
X20000000Y37000000D03*
D18*
X19000000Y30000000D03*
D17*
X2000000Y7000000D03*
X6000000Y67000000D03*
X8000000Y53000000D03*
X28000000Y11000000D03*
X16000000Y7000000D03*
X8000000Y21000000D03*
X32000000Y57000000D03*
X2000000Y9000000D03*
X14000000Y35000000D03*
X48000000Y63000000D03*
X8000000Y57000000D03*
X42000000Y25000000D03*
X30000000Y27000000D03*
X12000000Y37000000D03*
X2000000Y35000000D03*
X26000000Y44200000D03*
X10000000Y49000000D03*
X12000000Y31000000D03*
D19*
X6000000Y33000000D03*
D17*
X6000000Y31000000D03*
X26000000Y29000000D03*
X26000000Y44900000D03*
X22000000Y25000000D03*
X8000000Y61000000D03*
X18000000Y37000000D03*
X22000000Y5000000D03*
X2000000Y33000000D03*
X28000000Y41000000D03*
X14000000Y17000000D03*
X4000000Y33000000D03*
X8000000Y39000000D03*
X10000000Y55000000D03*
X18000000Y39000000D03*
X6000000Y65000000D03*
X2000000Y19000000D03*
X28000000Y23000000D03*
X27300000Y45500000D03*
X4000000Y7000000D03*
X2000000Y29000000D03*
X6000000Y63000000D03*
X42000000Y7000000D03*
X30000000Y31000000D03*
X12000000Y51000000D03*
X38000000Y35000000D03*
X20000000Y3000000D03*
X10000000Y33000000D03*
X42000000Y19000000D03*
X22000000Y51000000D03*
X22000000Y3000000D03*
X26000000Y5000000D03*
X38000000Y33000000D03*
X28000000Y3000000D03*
X22000000Y37000000D03*
X26600000Y45500000D03*
X26000000Y27000000D03*
X12000000Y43000000D03*
X2000000Y17000000D03*
X44000000Y39000000D03*
X30000000Y29000000D03*
X38000000Y53000000D03*
X38000000Y55000000D03*
X14000000Y21000000D03*
X4000000Y59000000D03*
X18000000Y35000000D03*
X8000000Y51000000D03*
X12000000Y41000000D03*
X36000000Y33000000D03*
X18000000Y59000000D03*
X10000000Y37000000D03*
X38000000Y31000000D03*
X8000000Y31000000D03*
X26000000Y7000000D03*
X30000000Y3000000D03*
X4000000Y21000000D03*
X16000000Y49000000D03*
X16000000Y5000000D03*
X2000000Y21000000D03*
X28000000Y49000000D03*
X34000000Y67000000D03*
X32000000Y55000000D03*
X40000000Y67000000D03*
X10000000Y21000000D03*
X12000000Y13000000D03*
X8000000Y37000000D03*
X16000000Y35000000D03*
D18*
X38000000Y43000000D03*
D17*
X12000000Y47000000D03*
X36000000Y31000000D03*
X14000000Y25000000D03*
X10000000Y31000000D03*
X24000000Y23000000D03*
X14000000Y27000000D03*
X28000000Y27000000D03*
X4000000Y51000000D03*
X46000000Y17000000D03*
X28000000Y9000000D03*
X32000000Y3000000D03*
X28000000Y31000000D03*
X2000000Y31000000D03*
X38000000Y29000000D03*
X18000000Y23000000D03*
X20000000Y35000000D03*
X10000000Y39000000D03*
X38000000Y51000000D03*
X16000000Y9000000D03*
X2000000Y27000000D03*
X24000000Y25000000D03*
X48000000Y60000000D03*
X27300000Y44200000D03*
X22000000Y27000000D03*
X27300000Y44900000D03*
X46000000Y31000000D03*
X4000000Y55000000D03*
X24000000Y51000000D03*
X16000000Y19000000D03*
X2000000Y23000000D03*
X12000000Y33000000D03*
%TO.N,VEE*%
X23000000Y43000000D03*
D18*
X15000000Y50000000D03*
X15000000Y37000000D03*
%TO.N,VCC*%
X11000000Y56000000D03*
X33000000Y44578549D03*
%TO.N,Net-(J5-Pin_1)*%
X40000000Y51000000D03*
X40000000Y53000000D03*
X40000000Y55000000D03*
X40000000Y52000000D03*
X40000000Y54000000D03*
%TO.N,Net-(J4-Pin_1)*%
X35000000Y51000000D03*
X35000000Y52000000D03*
X35000000Y53000000D03*
X35000000Y54000000D03*
X35000000Y55000000D03*
D17*
%TO.N,Net-(J9-Pin_2)*%
X25574999Y41900000D03*
%TO.N,Net-(J8-Pin_2)*%
X23800000Y42200000D03*
D20*
%TO.N,Net-(J10-Pin_1)*%
X27000000Y21000000D03*
X13000000Y7000000D03*
%TD*%
D21*
%TO.N,VEE*%
X15000000Y50000000D02*
X15000000Y37000000D01*
X15000000Y37100000D02*
X15000000Y37000000D01*
X15000000Y43000000D02*
X23000000Y43000000D01*
D22*
%TO.N,VCC*%
X33000000Y40727207D02*
X33000000Y44578549D01*
D23*
X13500000Y56000000D02*
X11000000Y56000000D01*
D22*
X11000000Y23460000D02*
X15732793Y23460000D01*
D23*
X24631371Y53500000D02*
X16000000Y53500000D01*
X33000000Y44577549D02*
X33000000Y45131371D01*
D22*
X15732793Y23460000D02*
X33000000Y40727207D01*
D23*
X11000000Y23460000D02*
X5000000Y23460000D01*
X33000000Y45131371D02*
X24631371Y53500000D01*
X16000000Y53500000D02*
X13500000Y56000000D01*
D24*
%TO.N,Net-(J5-Pin_1)*%
X42800000Y42000000D02*
X45970000Y42000000D01*
X40000000Y51000000D02*
X40000000Y44900000D01*
X40070711Y44729290D02*
X42800000Y42000000D01*
X40000000Y55000000D02*
X40000000Y51000000D01*
X40000000Y44900000D02*
X40001994Y44852375D01*
X45970000Y42000000D02*
X46000000Y42030000D01*
X40000000Y51000000D02*
X40000000Y53000000D01*
X40001994Y44852375D02*
G75*
G03*
X40070706Y44729284I212906J38125D01*
G01*
%TO.N,Net-(J4-Pin_1)*%
X35000000Y55000000D02*
X35000000Y41900000D01*
X35000000Y41900000D02*
X43440000Y33460000D01*
X43440000Y33460000D02*
X46000000Y33460000D01*
D25*
%TO.N,Net-(J9-Pin_2)*%
X24800000Y41125001D02*
X24800000Y37092893D01*
X13707107Y26000000D02*
X11000000Y26000000D01*
X24800000Y37092893D02*
X13707107Y26000000D01*
X25574999Y41900000D02*
X24800000Y41125001D01*
%TO.N,Net-(J8-Pin_2)*%
X23800000Y42200000D02*
X22402081Y42200000D01*
X6202081Y26000000D02*
X5000000Y26000000D01*
X22402081Y42200000D02*
X6202081Y26000000D01*
D21*
%TO.N,Net-(J10-Pin_1)*%
X27000000Y21000000D02*
X13000000Y7000000D01*
%TD*%
%TA.AperFunction,Conductor*%
%TO.N,GND*%
G36*
X45690682Y68980315D02*
G01*
X45736437Y68927511D01*
X45746381Y68858353D01*
X45717356Y68794797D01*
X45692535Y68772900D01*
X45676475Y68762169D01*
X45657542Y68749518D01*
X45440672Y68559328D01*
X45250478Y68342453D01*
X45090223Y68102614D01*
X45090219Y68102607D01*
X44962642Y67843906D01*
X44869921Y67570761D01*
X44869917Y67570746D01*
X44823158Y67335668D01*
X44813644Y67287839D01*
X44794778Y67000000D01*
X44800072Y66919222D01*
X44813644Y66712163D01*
X44813646Y66712151D01*
X44869917Y66429255D01*
X44869921Y66429240D01*
X44962642Y66156095D01*
X45090219Y65897394D01*
X45090223Y65897387D01*
X45250478Y65657548D01*
X45440672Y65440673D01*
X45657547Y65250479D01*
X45686372Y65231219D01*
X45897389Y65090222D01*
X46156098Y64962641D01*
X46429247Y64869919D01*
X46712161Y64813644D01*
X47000000Y64794778D01*
X47287839Y64813644D01*
X47570753Y64869919D01*
X47843902Y64962641D01*
X48102611Y65090222D01*
X48342454Y65250480D01*
X48559327Y65440673D01*
X48749520Y65657546D01*
X48772898Y65692535D01*
X48826509Y65737339D01*
X48895834Y65746046D01*
X48958862Y65715892D01*
X48995582Y65656449D01*
X49000000Y65623643D01*
X49000000Y54274500D01*
X48980315Y54207461D01*
X48927511Y54161706D01*
X48876000Y54150500D01*
X47105143Y54150500D01*
X47105117Y54150498D01*
X47080012Y54147587D01*
X47080008Y54147585D01*
X46977235Y54102207D01*
X46897794Y54022766D01*
X46852415Y53919994D01*
X46852415Y53919992D01*
X46849500Y53894869D01*
X46849500Y52105144D01*
X46849502Y52105118D01*
X46852413Y52080013D01*
X46852415Y52080009D01*
X46897793Y51977236D01*
X46897794Y51977235D01*
X46977235Y51897794D01*
X47080009Y51852415D01*
X47105135Y51849500D01*
X48876000Y51849501D01*
X48943039Y51829816D01*
X48988794Y51777013D01*
X49000000Y51725501D01*
X49000000Y50274500D01*
X48980315Y50207461D01*
X48927511Y50161706D01*
X48876000Y50150500D01*
X47105143Y50150500D01*
X47105117Y50150498D01*
X47080012Y50147587D01*
X47080008Y50147585D01*
X46977235Y50102207D01*
X46897794Y50022766D01*
X46852415Y49919994D01*
X46852415Y49919992D01*
X46849500Y49894869D01*
X46849500Y48105144D01*
X46849502Y48105118D01*
X46852413Y48080013D01*
X46852415Y48080009D01*
X46897793Y47977236D01*
X46897794Y47977235D01*
X46977235Y47897794D01*
X47080009Y47852415D01*
X47105135Y47849500D01*
X48876000Y47849501D01*
X48943039Y47829816D01*
X48988794Y47777013D01*
X49000000Y47725501D01*
X49000000Y45323257D01*
X48980315Y45256218D01*
X48927511Y45210463D01*
X48858353Y45200519D01*
X48828548Y45208696D01*
X48744332Y45243579D01*
X48744322Y45243582D01*
X48608995Y45270500D01*
X48608993Y45270500D01*
X48471007Y45270500D01*
X48471005Y45270500D01*
X48335677Y45243582D01*
X48335667Y45243579D01*
X48208195Y45190779D01*
X48208182Y45190772D01*
X48093458Y45114115D01*
X48093454Y45114112D01*
X47995888Y45016546D01*
X47995885Y45016542D01*
X47919228Y44901818D01*
X47919221Y44901805D01*
X47866421Y44774333D01*
X47866418Y44774323D01*
X47839500Y44638996D01*
X47839500Y44638993D01*
X47839500Y44501007D01*
X47839500Y44501005D01*
X47839499Y44501005D01*
X47866418Y44365678D01*
X47866421Y44365668D01*
X47919221Y44238196D01*
X47919228Y44238183D01*
X47995885Y44123459D01*
X47995888Y44123455D01*
X48093454Y44025889D01*
X48093458Y44025886D01*
X48208182Y43949229D01*
X48208195Y43949222D01*
X48331068Y43898327D01*
X48335672Y43896420D01*
X48335676Y43896420D01*
X48335677Y43896419D01*
X48471004Y43869500D01*
X48471007Y43869500D01*
X48608995Y43869500D01*
X48700041Y43887611D01*
X48744328Y43896420D01*
X48828548Y43931306D01*
X48898016Y43938774D01*
X48960496Y43907499D01*
X48996148Y43847410D01*
X49000000Y43816744D01*
X49000000Y42783257D01*
X48980315Y42716218D01*
X48927511Y42670463D01*
X48858353Y42660519D01*
X48828548Y42668696D01*
X48744332Y42703579D01*
X48744322Y42703582D01*
X48608995Y42730500D01*
X48608993Y42730500D01*
X48471007Y42730500D01*
X48471005Y42730500D01*
X48335677Y42703582D01*
X48335667Y42703579D01*
X48208195Y42650779D01*
X48208182Y42650772D01*
X48093458Y42574115D01*
X48093454Y42574112D01*
X47995888Y42476546D01*
X47995885Y42476542D01*
X47919228Y42361818D01*
X47919221Y42361805D01*
X47866421Y42234333D01*
X47866418Y42234323D01*
X47839500Y42098996D01*
X47839500Y42098993D01*
X47839500Y41961007D01*
X47839500Y41961005D01*
X47839499Y41961005D01*
X47866418Y41825678D01*
X47866421Y41825668D01*
X47919221Y41698196D01*
X47919228Y41698183D01*
X47995885Y41583459D01*
X47995888Y41583455D01*
X48093454Y41485889D01*
X48093458Y41485886D01*
X48208182Y41409229D01*
X48208195Y41409222D01*
X48335667Y41356422D01*
X48335672Y41356420D01*
X48335676Y41356420D01*
X48335677Y41356419D01*
X48471004Y41329500D01*
X48471007Y41329500D01*
X48608995Y41329500D01*
X48703954Y41348389D01*
X48744328Y41356420D01*
X48828548Y41391306D01*
X48898016Y41398774D01*
X48960496Y41367499D01*
X48996148Y41307410D01*
X49000000Y41276744D01*
X49000000Y36753257D01*
X48980315Y36686218D01*
X48927511Y36640463D01*
X48858353Y36630519D01*
X48828548Y36638696D01*
X48744332Y36673579D01*
X48744322Y36673582D01*
X48608995Y36700500D01*
X48608993Y36700500D01*
X48471007Y36700500D01*
X48471005Y36700500D01*
X48335677Y36673582D01*
X48335667Y36673579D01*
X48208195Y36620779D01*
X48208182Y36620772D01*
X48093458Y36544115D01*
X48093454Y36544112D01*
X47995888Y36446546D01*
X47995885Y36446542D01*
X47919228Y36331818D01*
X47919221Y36331805D01*
X47866421Y36204333D01*
X47866418Y36204323D01*
X47839500Y36068996D01*
X47839500Y36068993D01*
X47839500Y35931007D01*
X47839500Y35931005D01*
X47839499Y35931005D01*
X47866418Y35795678D01*
X47866421Y35795668D01*
X47919221Y35668196D01*
X47919228Y35668183D01*
X47995885Y35553459D01*
X47995888Y35553455D01*
X48093454Y35455889D01*
X48093458Y35455886D01*
X48208182Y35379229D01*
X48208195Y35379222D01*
X48335667Y35326422D01*
X48335672Y35326420D01*
X48335676Y35326420D01*
X48335677Y35326419D01*
X48471004Y35299500D01*
X48471007Y35299500D01*
X48608995Y35299500D01*
X48700041Y35317611D01*
X48744328Y35326420D01*
X48828548Y35361306D01*
X48898016Y35368774D01*
X48960496Y35337499D01*
X48996148Y35277410D01*
X49000000Y35246744D01*
X49000000Y34213257D01*
X48980315Y34146218D01*
X48927511Y34100463D01*
X48858353Y34090519D01*
X48828548Y34098696D01*
X48744332Y34133579D01*
X48744322Y34133582D01*
X48608995Y34160500D01*
X48608993Y34160500D01*
X48471007Y34160500D01*
X48471005Y34160500D01*
X48335677Y34133582D01*
X48335667Y34133579D01*
X48208195Y34080779D01*
X48208182Y34080772D01*
X48093458Y34004115D01*
X48093454Y34004112D01*
X47995888Y33906546D01*
X47995885Y33906542D01*
X47919228Y33791818D01*
X47919221Y33791805D01*
X47866421Y33664333D01*
X47866418Y33664323D01*
X47839500Y33528996D01*
X47839500Y33528993D01*
X47839500Y33391007D01*
X47839500Y33391005D01*
X47839499Y33391005D01*
X47866418Y33255678D01*
X47866421Y33255668D01*
X47919221Y33128196D01*
X47919228Y33128183D01*
X47995885Y33013459D01*
X47995888Y33013455D01*
X48093454Y32915889D01*
X48093458Y32915886D01*
X48208182Y32839229D01*
X48208195Y32839222D01*
X48335667Y32786422D01*
X48335672Y32786420D01*
X48335676Y32786420D01*
X48335677Y32786419D01*
X48471004Y32759500D01*
X48471007Y32759500D01*
X48608995Y32759500D01*
X48700041Y32777611D01*
X48744328Y32786420D01*
X48828548Y32821306D01*
X48898016Y32828774D01*
X48960496Y32797499D01*
X48996148Y32737410D01*
X49000000Y32706744D01*
X49000000Y15344257D01*
X48980315Y15277218D01*
X48963681Y15256576D01*
X48358921Y14651816D01*
X48333296Y14780644D01*
X48271106Y14930784D01*
X48180819Y15065907D01*
X48065907Y15180819D01*
X47930784Y15271106D01*
X47780644Y15333296D01*
X47651814Y15358922D01*
X48216751Y15923859D01*
X48016582Y16006772D01*
X47781265Y16063266D01*
X47540000Y16082254D01*
X47298734Y16063266D01*
X47063417Y16006772D01*
X46863247Y15923859D01*
X47428185Y15358922D01*
X47299356Y15333296D01*
X47149216Y15271106D01*
X47014093Y15180819D01*
X46899181Y15065907D01*
X46808894Y14930784D01*
X46746704Y14780644D01*
X46721078Y14651816D01*
X46156141Y15216753D01*
X46073228Y15016583D01*
X46016734Y14781266D01*
X45997746Y14540000D01*
X46016734Y14298735D01*
X46073228Y14063418D01*
X46156141Y13863249D01*
X46721078Y14428186D01*
X46746704Y14299356D01*
X46808894Y14149216D01*
X46899181Y14014093D01*
X47014093Y13899181D01*
X47149216Y13808894D01*
X47299356Y13746704D01*
X47428185Y13721079D01*
X46863247Y13156143D01*
X47063414Y13073231D01*
X47063426Y13073227D01*
X47298734Y13016735D01*
X47540000Y12997747D01*
X47781265Y13016735D01*
X48016573Y13073227D01*
X48016585Y13073231D01*
X48216751Y13156143D01*
X47651815Y13721079D01*
X47780644Y13746704D01*
X47930784Y13808894D01*
X48065907Y13899181D01*
X48180819Y14014093D01*
X48271106Y14149216D01*
X48333296Y14299356D01*
X48358921Y14428186D01*
X48963681Y13823426D01*
X48997166Y13762103D01*
X49000000Y13735745D01*
X49000000Y10264257D01*
X48980315Y10197218D01*
X48963681Y10176576D01*
X48358921Y9571816D01*
X48333296Y9700644D01*
X48271106Y9850784D01*
X48180819Y9985907D01*
X48065907Y10100819D01*
X47930784Y10191106D01*
X47780644Y10253296D01*
X47651814Y10278922D01*
X48216751Y10843859D01*
X48016582Y10926772D01*
X47781265Y10983266D01*
X47540000Y11002254D01*
X47298734Y10983266D01*
X47063417Y10926772D01*
X46863247Y10843859D01*
X47428185Y10278922D01*
X47299356Y10253296D01*
X47149216Y10191106D01*
X47014093Y10100819D01*
X46899181Y9985907D01*
X46808894Y9850784D01*
X46746704Y9700644D01*
X46721078Y9571816D01*
X46156141Y10136753D01*
X46073228Y9936583D01*
X46016734Y9701266D01*
X45997746Y9460000D01*
X46016734Y9218735D01*
X46073228Y8983418D01*
X46156141Y8783249D01*
X46721078Y9348186D01*
X46746704Y9219356D01*
X46808894Y9069216D01*
X46899181Y8934093D01*
X47014093Y8819181D01*
X47149216Y8728894D01*
X47299356Y8666704D01*
X47428185Y8641079D01*
X46863247Y8076143D01*
X47063414Y7993231D01*
X47063426Y7993227D01*
X47298734Y7936735D01*
X47540000Y7917747D01*
X47781265Y7936735D01*
X48016573Y7993227D01*
X48016585Y7993231D01*
X48216751Y8076143D01*
X47651815Y8641079D01*
X47780644Y8666704D01*
X47930784Y8728894D01*
X48065907Y8819181D01*
X48180819Y8934093D01*
X48271106Y9069216D01*
X48333296Y9219356D01*
X48358921Y9348186D01*
X48963681Y8743426D01*
X48997166Y8682103D01*
X49000000Y8655745D01*
X49000000Y4376358D01*
X48980315Y4309319D01*
X48927511Y4263564D01*
X48858353Y4253620D01*
X48794797Y4282645D01*
X48772898Y4307467D01*
X48749519Y4342456D01*
X48559327Y4559328D01*
X48342452Y4749522D01*
X48102613Y4909777D01*
X48102606Y4909781D01*
X47843905Y5037358D01*
X47570760Y5130079D01*
X47570754Y5130081D01*
X47570753Y5130081D01*
X47570751Y5130082D01*
X47570745Y5130083D01*
X47287849Y5186354D01*
X47287839Y5186356D01*
X47000000Y5205222D01*
X46712161Y5186356D01*
X46712155Y5186355D01*
X46712150Y5186354D01*
X46429254Y5130083D01*
X46429239Y5130079D01*
X46156094Y5037358D01*
X45897393Y4909781D01*
X45897386Y4909777D01*
X45657547Y4749522D01*
X45440672Y4559328D01*
X45250478Y4342453D01*
X45090223Y4102614D01*
X45090219Y4102607D01*
X44962642Y3843906D01*
X44869921Y3570761D01*
X44869917Y3570746D01*
X44841696Y3428868D01*
X44813644Y3287839D01*
X44794778Y3000000D01*
X44813554Y2713527D01*
X44813644Y2712163D01*
X44813646Y2712151D01*
X44869917Y2429255D01*
X44869921Y2429240D01*
X44962642Y2156095D01*
X45090219Y1897394D01*
X45090223Y1897387D01*
X45250478Y1657548D01*
X45440672Y1440673D01*
X45657542Y1250483D01*
X45657544Y1250482D01*
X45657546Y1250480D01*
X45692534Y1227102D01*
X45737339Y1173491D01*
X45746046Y1104166D01*
X45715892Y1041138D01*
X45656449Y1004418D01*
X45623643Y1000000D01*
X11753257Y1000000D01*
X11686218Y1019685D01*
X11640463Y1072489D01*
X11630519Y1141647D01*
X11638696Y1171452D01*
X11671429Y1250480D01*
X11673580Y1255672D01*
X11700500Y1391007D01*
X11700500Y1528993D01*
X11700500Y1528996D01*
X11673581Y1664323D01*
X11673580Y1664324D01*
X11673580Y1664328D01*
X11643338Y1737339D01*
X11620778Y1791805D01*
X11620771Y1791818D01*
X11544114Y1906542D01*
X11544111Y1906546D01*
X11446545Y2004112D01*
X11446541Y2004115D01*
X11331817Y2080772D01*
X11331804Y2080779D01*
X11204332Y2133579D01*
X11204322Y2133582D01*
X11068995Y2160500D01*
X11068993Y2160500D01*
X10931007Y2160500D01*
X10931005Y2160500D01*
X10795677Y2133582D01*
X10795667Y2133579D01*
X10668195Y2080779D01*
X10668182Y2080772D01*
X10553458Y2004115D01*
X10553454Y2004112D01*
X10455888Y1906546D01*
X10455885Y1906542D01*
X10379228Y1791818D01*
X10379221Y1791805D01*
X10326421Y1664333D01*
X10326418Y1664323D01*
X10299500Y1528996D01*
X10299500Y1528993D01*
X10299500Y1391007D01*
X10299500Y1391005D01*
X10299499Y1391005D01*
X10326418Y1255678D01*
X10326421Y1255668D01*
X10361304Y1171452D01*
X10368773Y1101982D01*
X10337497Y1039503D01*
X10277408Y1003852D01*
X10246743Y1000000D01*
X9213257Y1000000D01*
X9146218Y1019685D01*
X9100463Y1072489D01*
X9090519Y1141647D01*
X9098696Y1171452D01*
X9131429Y1250480D01*
X9133580Y1255672D01*
X9160500Y1391007D01*
X9160500Y1528993D01*
X9160500Y1528996D01*
X9133581Y1664323D01*
X9133580Y1664324D01*
X9133580Y1664328D01*
X9103338Y1737339D01*
X9080778Y1791805D01*
X9080771Y1791818D01*
X9004114Y1906542D01*
X9004111Y1906546D01*
X8906545Y2004112D01*
X8906541Y2004115D01*
X8791817Y2080772D01*
X8791804Y2080779D01*
X8664332Y2133579D01*
X8664322Y2133582D01*
X8528995Y2160500D01*
X8528993Y2160500D01*
X8391007Y2160500D01*
X8391005Y2160500D01*
X8255677Y2133582D01*
X8255667Y2133579D01*
X8128195Y2080779D01*
X8128182Y2080772D01*
X8013458Y2004115D01*
X8013454Y2004112D01*
X7915888Y1906546D01*
X7915885Y1906542D01*
X7839228Y1791818D01*
X7839221Y1791805D01*
X7786421Y1664333D01*
X7786418Y1664323D01*
X7759500Y1528996D01*
X7759500Y1528993D01*
X7759500Y1391007D01*
X7759500Y1391005D01*
X7759499Y1391005D01*
X7786418Y1255678D01*
X7786421Y1255668D01*
X7821304Y1171452D01*
X7828773Y1101982D01*
X7797497Y1039503D01*
X7737408Y1003852D01*
X7706743Y1000000D01*
X4376357Y1000000D01*
X4309318Y1019685D01*
X4263563Y1072489D01*
X4253619Y1141647D01*
X4282644Y1205203D01*
X4307464Y1227101D01*
X4342454Y1250480D01*
X4559327Y1440673D01*
X4749520Y1657546D01*
X4909778Y1897389D01*
X5037359Y2156098D01*
X5130081Y2429247D01*
X5186356Y2712161D01*
X5205222Y3000000D01*
X5186356Y3287839D01*
X5130081Y3570753D01*
X5037359Y3843902D01*
X4909778Y4102611D01*
X4909776Y4102614D01*
X4749521Y4342453D01*
X4559327Y4559328D01*
X4342452Y4749522D01*
X4102613Y4909777D01*
X4102606Y4909781D01*
X3843905Y5037358D01*
X3570760Y5130079D01*
X3570754Y5130081D01*
X3570753Y5130081D01*
X3570751Y5130082D01*
X3570745Y5130083D01*
X3496410Y5144869D01*
X7059500Y5144869D01*
X7059500Y2855144D01*
X7059502Y2855118D01*
X7062413Y2830013D01*
X7062415Y2830009D01*
X7107793Y2727236D01*
X7107794Y2727235D01*
X7187235Y2647794D01*
X7290009Y2602415D01*
X7315135Y2599500D01*
X9604864Y2599501D01*
X9604879Y2599503D01*
X9604882Y2599503D01*
X9629987Y2602414D01*
X9629988Y2602415D01*
X9629991Y2602415D01*
X9732765Y2647794D01*
X9803787Y2718816D01*
X10425919Y2718816D01*
X10435693Y2713527D01*
X10435707Y2713521D01*
X10655139Y2638189D01*
X10883993Y2600000D01*
X11116007Y2600000D01*
X11344860Y2638189D01*
X11564290Y2713519D01*
X11564299Y2713523D01*
X11574078Y2718816D01*
X11574079Y2718816D01*
X10996531Y3296364D01*
X10983350Y3287557D01*
X10980315Y3277219D01*
X10963681Y3256577D01*
X10425919Y2718816D01*
X9803787Y2718816D01*
X9812206Y2727235D01*
X9857585Y2830009D01*
X9860500Y2855135D01*
X9860499Y3516248D01*
X9880183Y3583284D01*
X9896818Y3603926D01*
X10292893Y4000001D01*
X10220485Y4072409D01*
X10450000Y4072409D01*
X10450000Y3927591D01*
X10487482Y3787708D01*
X10559890Y3662292D01*
X10662292Y3559890D01*
X10787708Y3487482D01*
X10927591Y3450000D01*
X11072409Y3450000D01*
X11212292Y3487482D01*
X11337708Y3559890D01*
X11440110Y3662292D01*
X11512518Y3787708D01*
X11550000Y3927591D01*
X11550000Y4003469D01*
X11703636Y4003469D01*
X12278238Y3428867D01*
X12278239Y3428868D01*
X12328681Y3543860D01*
X12385638Y3768782D01*
X12404798Y4000000D01*
X12404798Y4000006D01*
X12385638Y4231219D01*
X12328682Y4456135D01*
X12278238Y4571135D01*
X11743424Y4036319D01*
X11715339Y4020984D01*
X11703636Y4003469D01*
X11550000Y4003469D01*
X11550000Y4072409D01*
X11512518Y4212292D01*
X11440110Y4337708D01*
X11337708Y4440110D01*
X11212292Y4512518D01*
X11072409Y4550000D01*
X10927591Y4550000D01*
X10787708Y4512518D01*
X10662292Y4440110D01*
X10559890Y4337708D01*
X10487482Y4212292D01*
X10450000Y4072409D01*
X10220485Y4072409D01*
X9896818Y4396076D01*
X9863333Y4457399D01*
X9860499Y4483757D01*
X9860499Y5144857D01*
X9860499Y5144864D01*
X9860497Y5144883D01*
X9857586Y5169988D01*
X9857585Y5169990D01*
X9857585Y5169991D01*
X9812206Y5272765D01*
X9803785Y5281186D01*
X10425919Y5281186D01*
X10999998Y4707108D01*
X10999999Y4707107D01*
X11000000Y4707107D01*
X11000000Y4707108D01*
X11574079Y5281186D01*
X11574078Y5281187D01*
X11564300Y5286478D01*
X11344860Y5361812D01*
X11116007Y5400000D01*
X10883993Y5400000D01*
X10655139Y5361812D01*
X10435709Y5286481D01*
X10435702Y5286479D01*
X10425919Y5281186D01*
X9803785Y5281186D01*
X9732765Y5352206D01*
X9732763Y5352207D01*
X9629992Y5397585D01*
X9604865Y5400500D01*
X7315143Y5400500D01*
X7315117Y5400498D01*
X7290012Y5397587D01*
X7290008Y5397585D01*
X7187235Y5352207D01*
X7107794Y5272766D01*
X7062415Y5169994D01*
X7062415Y5169992D01*
X7059500Y5144869D01*
X3496410Y5144869D01*
X3287849Y5186354D01*
X3287839Y5186356D01*
X3000000Y5205222D01*
X2712161Y5186356D01*
X2712155Y5186355D01*
X2712150Y5186354D01*
X2429254Y5130083D01*
X2429239Y5130079D01*
X2156094Y5037358D01*
X1897393Y4909781D01*
X1897386Y4909777D01*
X1657547Y4749522D01*
X1440672Y4559328D01*
X1250480Y4342456D01*
X1227102Y4307467D01*
X1173489Y4262662D01*
X1104164Y4253955D01*
X1041137Y4284110D01*
X1004418Y4343553D01*
X1000000Y4376358D01*
X1000000Y7000001D01*
X12444750Y7000001D01*
X12444750Y7000000D01*
X12463670Y6856292D01*
X12463671Y6856288D01*
X12519137Y6722378D01*
X12519138Y6722376D01*
X12519139Y6722375D01*
X12607379Y6607379D01*
X12722375Y6519139D01*
X12856291Y6463670D01*
X12983280Y6446952D01*
X12999999Y6444750D01*
X13000000Y6444750D01*
X13000001Y6444750D01*
X13014977Y6446722D01*
X13143709Y6463670D01*
X13277625Y6519139D01*
X13392621Y6607379D01*
X13480861Y6722375D01*
X13507252Y6786093D01*
X13534129Y6826317D01*
X16167812Y9460000D01*
X40917746Y9460000D01*
X40936734Y9218735D01*
X40993228Y8983418D01*
X41076141Y8783249D01*
X41641078Y9348186D01*
X41666704Y9219356D01*
X41728894Y9069216D01*
X41819181Y8934093D01*
X41934093Y8819181D01*
X42069216Y8728894D01*
X42219356Y8666704D01*
X42348185Y8641079D01*
X41783247Y8076143D01*
X41983414Y7993231D01*
X41983426Y7993227D01*
X42218734Y7936735D01*
X42460000Y7917747D01*
X42701265Y7936735D01*
X42936573Y7993227D01*
X42936585Y7993231D01*
X43136751Y8076143D01*
X42571815Y8641079D01*
X42700644Y8666704D01*
X42850784Y8728894D01*
X42985907Y8819181D01*
X43100819Y8934093D01*
X43191106Y9069216D01*
X43253296Y9219356D01*
X43278921Y9348186D01*
X43843857Y8783249D01*
X43926769Y8983415D01*
X43926773Y8983427D01*
X43983265Y9218735D01*
X44002253Y9460000D01*
X43983265Y9701266D01*
X43926773Y9936574D01*
X43926769Y9936586D01*
X43843857Y10136753D01*
X43278921Y9571816D01*
X43253296Y9700644D01*
X43191106Y9850784D01*
X43100819Y9985907D01*
X42985907Y10100819D01*
X42850784Y10191106D01*
X42700644Y10253296D01*
X42571814Y10278922D01*
X43136751Y10843859D01*
X42936582Y10926772D01*
X42701265Y10983266D01*
X42460000Y11002254D01*
X42218734Y10983266D01*
X41983417Y10926772D01*
X41783247Y10843859D01*
X42348185Y10278922D01*
X42219356Y10253296D01*
X42069216Y10191106D01*
X41934093Y10100819D01*
X41819181Y9985907D01*
X41728894Y9850784D01*
X41666704Y9700644D01*
X41641078Y9571816D01*
X41076141Y10136753D01*
X40993228Y9936583D01*
X40936734Y9701266D01*
X40917746Y9460000D01*
X16167812Y9460000D01*
X18707818Y12000006D01*
X43531986Y12000006D01*
X43531986Y11999995D01*
X43552007Y11758377D01*
X43575221Y11666704D01*
X43611527Y11523337D01*
X43708920Y11301303D01*
X43841531Y11098327D01*
X44005741Y10919947D01*
X44197072Y10771028D01*
X44410305Y10655632D01*
X44639624Y10576907D01*
X44878772Y10537000D01*
X44878773Y10537000D01*
X45121227Y10537000D01*
X45121228Y10537000D01*
X45360376Y10576907D01*
X45589695Y10655632D01*
X45802928Y10771028D01*
X45994259Y10919947D01*
X46158469Y11098327D01*
X46291080Y11301303D01*
X46388473Y11523337D01*
X46447992Y11758373D01*
X46468014Y12000000D01*
X46447992Y12241627D01*
X46388473Y12476663D01*
X46291080Y12698697D01*
X46158469Y12901673D01*
X45994259Y13080053D01*
X45802928Y13228972D01*
X45802926Y13228973D01*
X45802925Y13228974D01*
X45589696Y13344368D01*
X45589690Y13344370D01*
X45360378Y13423093D01*
X45200944Y13449698D01*
X45121228Y13463000D01*
X44878772Y13463000D01*
X44818985Y13453024D01*
X44639621Y13423093D01*
X44410309Y13344370D01*
X44410303Y13344368D01*
X44197074Y13228974D01*
X44005742Y13080054D01*
X43841531Y12901673D01*
X43708918Y12698694D01*
X43611526Y12476662D01*
X43552007Y12241624D01*
X43531986Y12000006D01*
X18707818Y12000006D01*
X21247812Y14540000D01*
X40917746Y14540000D01*
X40936734Y14298735D01*
X40993228Y14063418D01*
X41076141Y13863249D01*
X41641078Y14428186D01*
X41666704Y14299356D01*
X41728894Y14149216D01*
X41819181Y14014093D01*
X41934093Y13899181D01*
X42069216Y13808894D01*
X42219356Y13746704D01*
X42348185Y13721079D01*
X41783247Y13156143D01*
X41983414Y13073231D01*
X41983426Y13073227D01*
X42218734Y13016735D01*
X42460000Y12997747D01*
X42701265Y13016735D01*
X42936573Y13073227D01*
X42936585Y13073231D01*
X43136751Y13156143D01*
X42571815Y13721079D01*
X42700644Y13746704D01*
X42850784Y13808894D01*
X42985907Y13899181D01*
X43100819Y14014093D01*
X43191106Y14149216D01*
X43253296Y14299356D01*
X43278921Y14428186D01*
X43843857Y13863249D01*
X43926769Y14063415D01*
X43926773Y14063427D01*
X43983265Y14298735D01*
X44002253Y14540000D01*
X43983265Y14781266D01*
X43926773Y15016574D01*
X43926769Y15016586D01*
X43843857Y15216753D01*
X43278921Y14651816D01*
X43253296Y14780644D01*
X43191106Y14930784D01*
X43100819Y15065907D01*
X42985907Y15180819D01*
X42850784Y15271106D01*
X42700644Y15333296D01*
X42571814Y15358922D01*
X43136751Y15923859D01*
X42936582Y16006772D01*
X42701265Y16063266D01*
X42460000Y16082254D01*
X42218734Y16063266D01*
X41983417Y16006772D01*
X41783247Y15923859D01*
X42348185Y15358922D01*
X42219356Y15333296D01*
X42069216Y15271106D01*
X41934093Y15180819D01*
X41819181Y15065907D01*
X41728894Y14930784D01*
X41666704Y14780644D01*
X41641078Y14651816D01*
X41076141Y15216753D01*
X40993228Y15016583D01*
X40936734Y14781266D01*
X40917746Y14540000D01*
X21247812Y14540000D01*
X27173683Y20465871D01*
X27213907Y20492748D01*
X27277625Y20519139D01*
X27392621Y20607379D01*
X27480861Y20722375D01*
X27536330Y20856291D01*
X27555250Y21000000D01*
X27536330Y21143709D01*
X27480861Y21277625D01*
X27392621Y21392621D01*
X27277625Y21480861D01*
X27277624Y21480862D01*
X27277622Y21480863D01*
X27143712Y21536329D01*
X27143710Y21536330D01*
X27143709Y21536330D01*
X27071854Y21545790D01*
X27000001Y21555250D01*
X26999999Y21555250D01*
X26856291Y21536330D01*
X26856287Y21536329D01*
X26722377Y21480863D01*
X26607379Y21392621D01*
X26519137Y21277622D01*
X26492747Y21213911D01*
X26465867Y21173683D01*
X12826317Y7534133D01*
X12786089Y7507253D01*
X12722378Y7480863D01*
X12607379Y7392621D01*
X12519137Y7277623D01*
X12463671Y7143713D01*
X12463670Y7143709D01*
X12444750Y7000001D01*
X1000000Y7000001D01*
X1000000Y12460000D01*
X2917746Y12460000D01*
X2936734Y12218735D01*
X2993228Y11983418D01*
X3076141Y11783249D01*
X3641078Y12348186D01*
X3666704Y12219356D01*
X3728894Y12069216D01*
X3819181Y11934093D01*
X3934093Y11819181D01*
X4069216Y11728894D01*
X4219356Y11666704D01*
X4348185Y11641079D01*
X3783247Y11076143D01*
X3983414Y10993231D01*
X3983426Y10993227D01*
X4218734Y10936735D01*
X4460000Y10917747D01*
X4701265Y10936735D01*
X4936573Y10993227D01*
X4936585Y10993231D01*
X5136751Y11076143D01*
X4571815Y11641079D01*
X4700644Y11666704D01*
X4850784Y11728894D01*
X4985907Y11819181D01*
X5100819Y11934093D01*
X5191106Y12069216D01*
X5253296Y12219356D01*
X5278921Y12348186D01*
X5843857Y11783249D01*
X5926769Y11983415D01*
X5926773Y11983427D01*
X5983265Y12218735D01*
X6002253Y12460000D01*
X7997746Y12460000D01*
X8016734Y12218735D01*
X8073228Y11983418D01*
X8156141Y11783249D01*
X8721078Y12348186D01*
X8746704Y12219356D01*
X8808894Y12069216D01*
X8899181Y11934093D01*
X9014093Y11819181D01*
X9149216Y11728894D01*
X9299356Y11666704D01*
X9428185Y11641079D01*
X8863247Y11076143D01*
X9063414Y10993231D01*
X9063426Y10993227D01*
X9298734Y10936735D01*
X9540000Y10917747D01*
X9781265Y10936735D01*
X10016573Y10993227D01*
X10016585Y10993231D01*
X10216751Y11076143D01*
X9651815Y11641079D01*
X9780644Y11666704D01*
X9930784Y11728894D01*
X10065907Y11819181D01*
X10180819Y11934093D01*
X10271106Y12069216D01*
X10333296Y12219356D01*
X10358921Y12348186D01*
X10923857Y11783249D01*
X11006769Y11983415D01*
X11006773Y11983427D01*
X11063265Y12218735D01*
X11082253Y12460000D01*
X11063265Y12701266D01*
X11006773Y12936574D01*
X11006769Y12936586D01*
X10923857Y13136753D01*
X10358921Y12571816D01*
X10333296Y12700644D01*
X10271106Y12850784D01*
X10180819Y12985907D01*
X10065907Y13100819D01*
X9930784Y13191106D01*
X9780644Y13253296D01*
X9651814Y13278922D01*
X10216751Y13843859D01*
X10016582Y13926772D01*
X9781265Y13983266D01*
X9540000Y14002254D01*
X9298734Y13983266D01*
X9063417Y13926772D01*
X8863247Y13843859D01*
X9428185Y13278922D01*
X9299356Y13253296D01*
X9149216Y13191106D01*
X9014093Y13100819D01*
X8899181Y12985907D01*
X8808894Y12850784D01*
X8746704Y12700644D01*
X8721078Y12571816D01*
X8156141Y13136753D01*
X8073228Y12936583D01*
X8016734Y12701266D01*
X7997746Y12460000D01*
X6002253Y12460000D01*
X5983265Y12701266D01*
X5926773Y12936574D01*
X5926769Y12936586D01*
X5843857Y13136753D01*
X5278921Y12571816D01*
X5253296Y12700644D01*
X5191106Y12850784D01*
X5100819Y12985907D01*
X4985907Y13100819D01*
X4850784Y13191106D01*
X4700644Y13253296D01*
X4571814Y13278922D01*
X5136751Y13843859D01*
X4936582Y13926772D01*
X4701265Y13983266D01*
X4460000Y14002254D01*
X4218734Y13983266D01*
X3983417Y13926772D01*
X3783247Y13843859D01*
X4348185Y13278922D01*
X4219356Y13253296D01*
X4069216Y13191106D01*
X3934093Y13100819D01*
X3819181Y12985907D01*
X3728894Y12850784D01*
X3666704Y12700644D01*
X3641078Y12571816D01*
X3076141Y13136753D01*
X2993228Y12936583D01*
X2936734Y12701266D01*
X2917746Y12460000D01*
X1000000Y12460000D01*
X1000000Y15000006D01*
X5531986Y15000006D01*
X5531986Y14999995D01*
X5552007Y14758377D01*
X5611526Y14523339D01*
X5639859Y14458745D01*
X5708920Y14301303D01*
X5841531Y14098327D01*
X6005741Y13919947D01*
X6197072Y13771028D01*
X6410305Y13655632D01*
X6639624Y13576907D01*
X6878772Y13537000D01*
X6878773Y13537000D01*
X7121227Y13537000D01*
X7121228Y13537000D01*
X7360376Y13576907D01*
X7589695Y13655632D01*
X7802928Y13771028D01*
X7994259Y13919947D01*
X8158469Y14098327D01*
X8291080Y14301303D01*
X8388473Y14523337D01*
X8447992Y14758373D01*
X8468014Y15000000D01*
X8447992Y15241627D01*
X8388473Y15476663D01*
X8291080Y15698697D01*
X8158469Y15901673D01*
X7994259Y16080053D01*
X7802928Y16228972D01*
X7802926Y16228973D01*
X7802925Y16228974D01*
X7589696Y16344368D01*
X7589690Y16344370D01*
X7360378Y16423093D01*
X7200944Y16449698D01*
X7121228Y16463000D01*
X6878772Y16463000D01*
X6818985Y16453024D01*
X6639621Y16423093D01*
X6410309Y16344370D01*
X6410303Y16344368D01*
X6197074Y16228974D01*
X6005742Y16080054D01*
X5841531Y15901673D01*
X5708918Y15698694D01*
X5611526Y15476662D01*
X5552007Y15241624D01*
X5531986Y15000006D01*
X1000000Y15000006D01*
X1000000Y17540000D01*
X2917746Y17540000D01*
X2936734Y17298735D01*
X2993228Y17063418D01*
X3076141Y16863249D01*
X3641078Y17428186D01*
X3666704Y17299356D01*
X3728894Y17149216D01*
X3819181Y17014093D01*
X3934093Y16899181D01*
X4069216Y16808894D01*
X4219356Y16746704D01*
X4348185Y16721079D01*
X3783247Y16156143D01*
X3983414Y16073231D01*
X3983426Y16073227D01*
X4218734Y16016735D01*
X4460000Y15997747D01*
X4701265Y16016735D01*
X4936573Y16073227D01*
X4936585Y16073231D01*
X5136751Y16156143D01*
X4571815Y16721079D01*
X4700644Y16746704D01*
X4850784Y16808894D01*
X4985907Y16899181D01*
X5100819Y17014093D01*
X5191106Y17149216D01*
X5253296Y17299356D01*
X5278921Y17428186D01*
X5843857Y16863249D01*
X5926769Y17063415D01*
X5926773Y17063427D01*
X5983265Y17298735D01*
X6002253Y17540000D01*
X7997746Y17540000D01*
X8016734Y17298735D01*
X8073228Y17063418D01*
X8156141Y16863249D01*
X8721078Y17428186D01*
X8746704Y17299356D01*
X8808894Y17149216D01*
X8899181Y17014093D01*
X9014093Y16899181D01*
X9149216Y16808894D01*
X9299356Y16746704D01*
X9428185Y16721079D01*
X8863247Y16156143D01*
X9063414Y16073231D01*
X9063426Y16073227D01*
X9298734Y16016735D01*
X9540000Y15997747D01*
X9781265Y16016735D01*
X10016573Y16073227D01*
X10016585Y16073231D01*
X10216751Y16156143D01*
X9651815Y16721079D01*
X9780644Y16746704D01*
X9930784Y16808894D01*
X10065907Y16899181D01*
X10180819Y17014093D01*
X10271106Y17149216D01*
X10333296Y17299356D01*
X10358921Y17428186D01*
X10923857Y16863249D01*
X11006769Y17063415D01*
X11006773Y17063427D01*
X11063265Y17298735D01*
X11082253Y17540000D01*
X11063265Y17781266D01*
X11006773Y18016574D01*
X11006769Y18016586D01*
X10923857Y18216753D01*
X10358921Y17651816D01*
X10333296Y17780644D01*
X10271106Y17930784D01*
X10180819Y18065907D01*
X10065907Y18180819D01*
X9930784Y18271106D01*
X9780644Y18333296D01*
X9651814Y18358922D01*
X10216751Y18923859D01*
X10016582Y19006772D01*
X9781265Y19063266D01*
X9540000Y19082254D01*
X9298734Y19063266D01*
X9063417Y19006772D01*
X8863247Y18923859D01*
X9428185Y18358922D01*
X9299356Y18333296D01*
X9149216Y18271106D01*
X9014093Y18180819D01*
X8899181Y18065907D01*
X8808894Y17930784D01*
X8746704Y17780644D01*
X8721078Y17651816D01*
X8156141Y18216753D01*
X8073228Y18016583D01*
X8016734Y17781266D01*
X7997746Y17540000D01*
X6002253Y17540000D01*
X5983265Y17781266D01*
X5926773Y18016574D01*
X5926769Y18016586D01*
X5843857Y18216753D01*
X5278921Y17651816D01*
X5253296Y17780644D01*
X5191106Y17930784D01*
X5100819Y18065907D01*
X4985907Y18180819D01*
X4850784Y18271106D01*
X4700644Y18333296D01*
X4571814Y18358922D01*
X5136751Y18923859D01*
X4936582Y19006772D01*
X4701265Y19063266D01*
X4460000Y19082254D01*
X4218734Y19063266D01*
X3983417Y19006772D01*
X3783247Y18923859D01*
X4348185Y18358922D01*
X4219356Y18333296D01*
X4069216Y18271106D01*
X3934093Y18180819D01*
X3819181Y18065907D01*
X3728894Y17930784D01*
X3666704Y17780644D01*
X3641078Y17651816D01*
X3076141Y18216753D01*
X2993228Y18016583D01*
X2936734Y17781266D01*
X2917746Y17540000D01*
X1000000Y17540000D01*
X1000000Y26000001D01*
X3844571Y26000001D01*
X3844571Y26000000D01*
X3864244Y25787690D01*
X3922596Y25582608D01*
X3922596Y25582606D01*
X4017632Y25391747D01*
X4146127Y25221594D01*
X4146128Y25221593D01*
X4303698Y25077948D01*
X4484981Y24965702D01*
X4683802Y24888679D01*
X4880613Y24851889D01*
X4942893Y24820221D01*
X4978166Y24759908D01*
X4975232Y24690100D01*
X4935023Y24632960D01*
X4880613Y24608112D01*
X4683802Y24571321D01*
X4683799Y24571321D01*
X4683799Y24571320D01*
X4484982Y24494299D01*
X4484980Y24494298D01*
X4303699Y24382053D01*
X4146127Y24238407D01*
X4017632Y24068254D01*
X3922596Y23877395D01*
X3922596Y23877393D01*
X3864244Y23672311D01*
X3844571Y23460001D01*
X3844571Y23460000D01*
X3864244Y23247690D01*
X3922596Y23042608D01*
X3922596Y23042606D01*
X4017632Y22851747D01*
X4139581Y22690262D01*
X4146128Y22681593D01*
X4303698Y22537948D01*
X4484981Y22425702D01*
X4683802Y22348679D01*
X4893390Y22309500D01*
X4893392Y22309500D01*
X5106608Y22309500D01*
X5106610Y22309500D01*
X5316198Y22348679D01*
X5515019Y22425702D01*
X5696302Y22537948D01*
X5853872Y22681593D01*
X5875495Y22710228D01*
X5931603Y22751863D01*
X5974449Y22759500D01*
X9725501Y22759500D01*
X9792540Y22739815D01*
X9838295Y22687011D01*
X9849501Y22635500D01*
X9849501Y22565144D01*
X9849502Y22565118D01*
X9852413Y22540013D01*
X9852415Y22540009D01*
X9897793Y22437236D01*
X9897794Y22437235D01*
X9977235Y22357794D01*
X10080009Y22312415D01*
X10105135Y22309500D01*
X11894864Y22309501D01*
X11894879Y22309503D01*
X11894882Y22309503D01*
X11919987Y22312414D01*
X11919988Y22312415D01*
X11919991Y22312415D01*
X12022765Y22357794D01*
X12102206Y22437235D01*
X12147585Y22540009D01*
X12148720Y22549792D01*
X12176001Y22614116D01*
X12233727Y22653480D01*
X12271894Y22659500D01*
X15811637Y22659500D01*
X15811638Y22659501D01*
X15966290Y22690263D01*
X16111972Y22750606D01*
X16243082Y22838211D01*
X18010086Y24605215D01*
X44850001Y24605215D01*
X44850002Y24605192D01*
X44852908Y24580131D01*
X44852909Y24580127D01*
X44898211Y24477526D01*
X44898214Y24477521D01*
X44977520Y24398215D01*
X44977525Y24398212D01*
X45080123Y24352911D01*
X45105206Y24350001D01*
X45499999Y24350001D01*
X46500000Y24350001D01*
X46894786Y24350001D01*
X46894808Y24350003D01*
X46919869Y24352909D01*
X46919873Y24352910D01*
X47022474Y24398212D01*
X47022479Y24398215D01*
X47101785Y24477521D01*
X47101788Y24477526D01*
X47147089Y24580123D01*
X47147089Y24580125D01*
X47149999Y24605206D01*
X47150000Y24605209D01*
X47150000Y25000000D01*
X46500000Y25000000D01*
X46500000Y24350001D01*
X45499999Y24350001D01*
X45500000Y24350002D01*
X45500000Y25000000D01*
X44850001Y25000000D01*
X44850001Y24605215D01*
X18010086Y24605215D01*
X18970696Y25565826D01*
X45500000Y25565826D01*
X45500000Y25434174D01*
X45534075Y25307007D01*
X45599901Y25192993D01*
X45692993Y25099901D01*
X45807007Y25034075D01*
X45934174Y25000000D01*
X46065826Y25000000D01*
X46192993Y25034075D01*
X46307007Y25099901D01*
X46400099Y25192993D01*
X46465925Y25307007D01*
X46500000Y25434174D01*
X46500000Y25565826D01*
X46465925Y25692993D01*
X46400099Y25807007D01*
X46307007Y25900099D01*
X46192993Y25965925D01*
X46065826Y26000000D01*
X46500000Y26000000D01*
X47149999Y26000000D01*
X47149999Y26394786D01*
X47149997Y26394809D01*
X47147091Y26419870D01*
X47147090Y26419874D01*
X47101788Y26522475D01*
X47101785Y26522480D01*
X47022479Y26601786D01*
X47022474Y26601789D01*
X46919876Y26647090D01*
X46894794Y26650000D01*
X46500000Y26650000D01*
X46500000Y26000000D01*
X46065826Y26000000D01*
X45934174Y26000000D01*
X45807007Y25965925D01*
X45692993Y25900099D01*
X45599901Y25807007D01*
X45534075Y25692993D01*
X45500000Y25565826D01*
X18970696Y25565826D01*
X19799665Y26394795D01*
X44850000Y26394795D01*
X44850000Y26000000D01*
X45500000Y26000000D01*
X45500000Y26650000D01*
X45105214Y26650000D01*
X45105191Y26649998D01*
X45080130Y26647092D01*
X45080126Y26647091D01*
X44977525Y26601789D01*
X44977520Y26601786D01*
X44898214Y26522480D01*
X44898211Y26522475D01*
X44852910Y26419878D01*
X44852910Y26419876D01*
X44850000Y26394795D01*
X19799665Y26394795D01*
X22299739Y28894869D01*
X31849500Y28894869D01*
X31849500Y27105144D01*
X31849502Y27105118D01*
X31852413Y27080013D01*
X31852415Y27080009D01*
X31897793Y26977236D01*
X31897794Y26977235D01*
X31977235Y26897794D01*
X32080009Y26852415D01*
X32105135Y26849500D01*
X33894864Y26849501D01*
X33894879Y26849503D01*
X33894882Y26849503D01*
X33919987Y26852414D01*
X33919988Y26852415D01*
X33919991Y26852415D01*
X34022765Y26897794D01*
X34102206Y26977235D01*
X34147585Y27080009D01*
X34150500Y27105135D01*
X34150499Y28894864D01*
X34150497Y28894883D01*
X34147586Y28919988D01*
X34147585Y28919990D01*
X34147585Y28919991D01*
X34102206Y29022765D01*
X34030102Y29094869D01*
X38849500Y29094869D01*
X38849500Y27305144D01*
X38849502Y27305118D01*
X38852413Y27280013D01*
X38852415Y27280009D01*
X38897793Y27177236D01*
X38897794Y27177235D01*
X38977235Y27097794D01*
X39080009Y27052415D01*
X39105135Y27049500D01*
X40894864Y27049501D01*
X40894879Y27049503D01*
X40894882Y27049503D01*
X40919987Y27052414D01*
X40919988Y27052415D01*
X40919991Y27052415D01*
X41022765Y27097794D01*
X41102206Y27177235D01*
X41147585Y27280009D01*
X41150500Y27305135D01*
X41150499Y29094864D01*
X41149648Y29102206D01*
X41147586Y29119988D01*
X41147585Y29119990D01*
X41147585Y29119991D01*
X41102206Y29222765D01*
X41022765Y29302206D01*
X40986832Y29318072D01*
X40919992Y29347585D01*
X40894865Y29350500D01*
X39105143Y29350500D01*
X39105117Y29350498D01*
X39080012Y29347587D01*
X39080008Y29347585D01*
X38977235Y29302207D01*
X38897794Y29222766D01*
X38852415Y29119994D01*
X38852415Y29119992D01*
X38849500Y29094869D01*
X34030102Y29094869D01*
X34022765Y29102206D01*
X34022763Y29102207D01*
X33919992Y29147585D01*
X33894865Y29150500D01*
X32105143Y29150500D01*
X32105117Y29150498D01*
X32080012Y29147587D01*
X32080008Y29147585D01*
X31977235Y29102207D01*
X31897794Y29022766D01*
X31852415Y28919994D01*
X31852415Y28919992D01*
X31849500Y28894869D01*
X22299739Y28894869D01*
X33505958Y40101089D01*
X33505969Y40101098D01*
X33621786Y40216915D01*
X33621789Y40216918D01*
X33709394Y40348028D01*
X33769737Y40493710D01*
X33790780Y40599500D01*
X33797327Y40632414D01*
X33800500Y40648363D01*
X33800500Y40960953D01*
X33820185Y41027992D01*
X33872989Y41073747D01*
X33942147Y41083691D01*
X34005703Y41054666D01*
X34012181Y41048634D01*
X42592786Y32468029D01*
X42747749Y32355444D01*
X42758390Y32347713D01*
X42871640Y32290009D01*
X42940776Y32254782D01*
X42940778Y32254782D01*
X42940781Y32254780D01*
X43045137Y32220873D01*
X43135465Y32191523D01*
X43236557Y32175512D01*
X43337648Y32159500D01*
X44624167Y32159500D01*
X44691206Y32139815D01*
X44711848Y32123181D01*
X44727235Y32107794D01*
X44830009Y32062415D01*
X44855135Y32059500D01*
X47144864Y32059501D01*
X47144879Y32059503D01*
X47144882Y32059503D01*
X47169987Y32062414D01*
X47169988Y32062415D01*
X47169991Y32062415D01*
X47272765Y32107794D01*
X47352206Y32187235D01*
X47397585Y32290009D01*
X47400500Y32315135D01*
X47400499Y34604864D01*
X47400497Y34604883D01*
X47397586Y34629988D01*
X47397585Y34629990D01*
X47397585Y34629991D01*
X47352206Y34732765D01*
X47272765Y34812206D01*
X47272763Y34812207D01*
X47169992Y34857585D01*
X47144868Y34860500D01*
X46483756Y34860500D01*
X46416717Y34880185D01*
X46396075Y34896819D01*
X45996531Y35296364D01*
X45983350Y35287557D01*
X45980315Y35277218D01*
X45963681Y35256576D01*
X45603923Y34896819D01*
X45542600Y34863334D01*
X45516242Y34860500D01*
X44855143Y34860500D01*
X44855117Y34860498D01*
X44830012Y34857587D01*
X44830008Y34857585D01*
X44727235Y34812207D01*
X44727234Y34812206D01*
X44711848Y34796819D01*
X44650525Y34763334D01*
X44624167Y34760500D01*
X44030047Y34760500D01*
X43963008Y34780185D01*
X43942366Y34796819D01*
X42739179Y36000006D01*
X44595202Y36000006D01*
X44595202Y36000000D01*
X44614361Y35768782D01*
X44671318Y35543863D01*
X44721759Y35428868D01*
X44721760Y35428867D01*
X45292892Y36000000D01*
X45292893Y36000001D01*
X45220485Y36072409D01*
X45450000Y36072409D01*
X45450000Y35927591D01*
X45487482Y35787708D01*
X45559890Y35662292D01*
X45662292Y35559890D01*
X45787708Y35487482D01*
X45927591Y35450000D01*
X46072409Y35450000D01*
X46212292Y35487482D01*
X46337708Y35559890D01*
X46440110Y35662292D01*
X46512518Y35787708D01*
X46550000Y35927591D01*
X46550000Y36003469D01*
X46703636Y36003469D01*
X47278238Y35428867D01*
X47278239Y35428868D01*
X47328681Y35543860D01*
X47385638Y35768782D01*
X47404798Y36000000D01*
X47404798Y36000006D01*
X47385638Y36231219D01*
X47328682Y36456135D01*
X47278238Y36571135D01*
X46743424Y36036319D01*
X46715339Y36020984D01*
X46703636Y36003469D01*
X46550000Y36003469D01*
X46550000Y36072409D01*
X46512518Y36212292D01*
X46440110Y36337708D01*
X46337708Y36440110D01*
X46212292Y36512518D01*
X46072409Y36550000D01*
X45927591Y36550000D01*
X45787708Y36512518D01*
X45662292Y36440110D01*
X45559890Y36337708D01*
X45487482Y36212292D01*
X45450000Y36072409D01*
X45220485Y36072409D01*
X44721760Y36571134D01*
X44671317Y36456136D01*
X44614361Y36231219D01*
X44595202Y36000006D01*
X42739179Y36000006D01*
X41457999Y37281186D01*
X45425919Y37281186D01*
X45999998Y36707108D01*
X45999999Y36707107D01*
X46000000Y36707107D01*
X46000000Y36707108D01*
X46574079Y37281186D01*
X46574078Y37281187D01*
X46564300Y37286478D01*
X46344860Y37361812D01*
X46116007Y37400000D01*
X45883993Y37400000D01*
X45655139Y37361812D01*
X45435709Y37286481D01*
X45435702Y37286479D01*
X45425919Y37281186D01*
X41457999Y37281186D01*
X36336819Y42402366D01*
X36303334Y42463689D01*
X36300500Y42490047D01*
X36300500Y44947863D01*
X38696357Y44947863D01*
X38696357Y44947855D01*
X38699391Y44875395D01*
X38699500Y44870208D01*
X38699500Y44797649D01*
X38700847Y44789142D01*
X38702364Y44771218D01*
X38702862Y44729214D01*
X38704839Y44718170D01*
X38706670Y44701523D01*
X38706914Y44695711D01*
X38724098Y44610462D01*
X38724611Y44607761D01*
X38739593Y44523875D01*
X38739597Y44523857D01*
X38742788Y44513894D01*
X38746249Y44500589D01*
X38747366Y44495047D01*
X38747369Y44495038D01*
X38756898Y44469412D01*
X38758764Y44464017D01*
X38801117Y44331782D01*
X38848290Y44232292D01*
X38887529Y44149534D01*
X38997307Y43980329D01*
X39059691Y43907499D01*
X39060285Y43906806D01*
X39066427Y43899026D01*
X39078744Y43882073D01*
X39094368Y43866449D01*
X39100861Y43859435D01*
X39128516Y43827149D01*
X39128526Y43827139D01*
X39174338Y43786203D01*
X39179397Y43781420D01*
X41808033Y41152782D01*
X41952786Y41008029D01*
X42090817Y40907746D01*
X42118390Y40887713D01*
X42237620Y40826963D01*
X42300780Y40794780D01*
X42300786Y40794778D01*
X42351147Y40778416D01*
X42398121Y40763153D01*
X42398122Y40763152D01*
X42416333Y40757235D01*
X42495465Y40731523D01*
X42697648Y40699500D01*
X42902351Y40699500D01*
X44657150Y40699500D01*
X44716557Y40682056D01*
X44716725Y40682435D01*
X44719620Y40681157D01*
X44724189Y40679815D01*
X44727224Y40677802D01*
X44727232Y40677797D01*
X44727235Y40677794D01*
X44830009Y40632415D01*
X44855135Y40629500D01*
X47144864Y40629501D01*
X47144879Y40629503D01*
X47144882Y40629503D01*
X47169987Y40632414D01*
X47169988Y40632415D01*
X47169991Y40632415D01*
X47272765Y40677794D01*
X47352206Y40757235D01*
X47397585Y40860009D01*
X47400500Y40885135D01*
X47400499Y43174864D01*
X47399914Y43179909D01*
X47397586Y43199988D01*
X47397585Y43199990D01*
X47397585Y43199991D01*
X47352206Y43302765D01*
X47272765Y43382206D01*
X47231333Y43400500D01*
X47169992Y43427585D01*
X47144868Y43430500D01*
X46483756Y43430500D01*
X46416717Y43450185D01*
X46396075Y43466819D01*
X45996531Y43866364D01*
X45983350Y43857557D01*
X45980315Y43847218D01*
X45963681Y43826576D01*
X45603923Y43466819D01*
X45542600Y43433334D01*
X45516242Y43430500D01*
X44855143Y43430500D01*
X44855117Y43430498D01*
X44830012Y43427587D01*
X44830008Y43427585D01*
X44727235Y43382207D01*
X44681846Y43336818D01*
X44620523Y43303334D01*
X44594166Y43300500D01*
X43390047Y43300500D01*
X43323008Y43320185D01*
X43302366Y43336819D01*
X42069180Y44570006D01*
X44595202Y44570006D01*
X44595202Y44570000D01*
X44614361Y44338782D01*
X44671318Y44113863D01*
X44721759Y43998868D01*
X44721760Y43998867D01*
X45292892Y44570000D01*
X45292893Y44570001D01*
X45220485Y44642409D01*
X45450000Y44642409D01*
X45450000Y44497591D01*
X45487482Y44357708D01*
X45559890Y44232292D01*
X45662292Y44129890D01*
X45787708Y44057482D01*
X45927591Y44020000D01*
X46072409Y44020000D01*
X46212292Y44057482D01*
X46337708Y44129890D01*
X46440110Y44232292D01*
X46512518Y44357708D01*
X46550000Y44497591D01*
X46550000Y44573469D01*
X46703636Y44573469D01*
X47278238Y43998867D01*
X47278239Y43998868D01*
X47328681Y44113860D01*
X47385638Y44338782D01*
X47404798Y44570000D01*
X47404798Y44570006D01*
X47385638Y44801219D01*
X47328682Y45026135D01*
X47278238Y45141135D01*
X46743424Y44606319D01*
X46715339Y44590984D01*
X46703636Y44573469D01*
X46550000Y44573469D01*
X46550000Y44642409D01*
X46512518Y44782292D01*
X46440110Y44907708D01*
X46337708Y45010110D01*
X46212292Y45082518D01*
X46072409Y45120000D01*
X45927591Y45120000D01*
X45787708Y45082518D01*
X45662292Y45010110D01*
X45559890Y44907708D01*
X45487482Y44782292D01*
X45450000Y44642409D01*
X45220485Y44642409D01*
X44721760Y45141134D01*
X44671317Y45026136D01*
X44614361Y44801219D01*
X44595202Y44570006D01*
X42069180Y44570006D01*
X41336819Y45302367D01*
X41303334Y45363690D01*
X41300500Y45390048D01*
X41300500Y45851186D01*
X45425919Y45851186D01*
X45999998Y45277108D01*
X45999999Y45277107D01*
X46000000Y45277107D01*
X46000000Y45277108D01*
X46574079Y45851186D01*
X46574078Y45851187D01*
X46564300Y45856478D01*
X46344860Y45931812D01*
X46116007Y45970000D01*
X45883993Y45970000D01*
X45655139Y45931812D01*
X45435709Y45856481D01*
X45435702Y45856479D01*
X45425919Y45851186D01*
X41300500Y45851186D01*
X41300500Y55102352D01*
X41268477Y55304535D01*
X41205218Y55499224D01*
X41119125Y55668189D01*
X41112287Y55681610D01*
X41104556Y55692251D01*
X40991971Y55847214D01*
X40847213Y55991972D01*
X40681613Y56112285D01*
X40681612Y56112286D01*
X40681610Y56112287D01*
X40624653Y56141309D01*
X40499223Y56205219D01*
X40304534Y56268478D01*
X40129995Y56296122D01*
X40102352Y56300500D01*
X39897648Y56300500D01*
X39873329Y56296649D01*
X39695465Y56268478D01*
X39500776Y56205219D01*
X39318386Y56112285D01*
X39152786Y55991972D01*
X39008028Y55847214D01*
X38887715Y55681614D01*
X38794781Y55499224D01*
X38731522Y55304535D01*
X38699500Y55102352D01*
X38699500Y44982170D01*
X38698678Y44967913D01*
X38696357Y44947863D01*
X36300500Y44947863D01*
X36300500Y55102352D01*
X36268477Y55304535D01*
X36205218Y55499224D01*
X36119125Y55668189D01*
X36112287Y55681610D01*
X36104556Y55692251D01*
X35991971Y55847214D01*
X35847213Y55991972D01*
X35681613Y56112285D01*
X35681612Y56112286D01*
X35681610Y56112287D01*
X35624653Y56141309D01*
X35499223Y56205219D01*
X35304534Y56268478D01*
X35129995Y56296122D01*
X35102352Y56300500D01*
X34897648Y56300500D01*
X34873329Y56296649D01*
X34695465Y56268478D01*
X34500776Y56205219D01*
X34318386Y56112285D01*
X34152786Y55991972D01*
X34008028Y55847214D01*
X33887715Y55681614D01*
X33794781Y55499224D01*
X33731522Y55304535D01*
X33699500Y55102352D01*
X33699500Y45721891D01*
X33679815Y45654852D01*
X33627011Y45609097D01*
X33557853Y45599153D01*
X33494297Y45628178D01*
X33487819Y45634210D01*
X25077916Y54044113D01*
X24963178Y54120778D01*
X24835703Y54173579D01*
X24835693Y54173582D01*
X24700367Y54200500D01*
X24700365Y54200500D01*
X24700364Y54200500D01*
X16341519Y54200500D01*
X16274480Y54220185D01*
X16253838Y54236819D01*
X13946546Y56544112D01*
X13946545Y56544113D01*
X13831807Y56620778D01*
X13704332Y56673579D01*
X13704322Y56673582D01*
X13568996Y56700500D01*
X13568994Y56700500D01*
X13568993Y56700500D01*
X10931007Y56700500D01*
X10931005Y56700500D01*
X10795677Y56673582D01*
X10795667Y56673579D01*
X10668195Y56620779D01*
X10668182Y56620772D01*
X10553458Y56544115D01*
X10553454Y56544112D01*
X10455888Y56446546D01*
X10455885Y56446542D01*
X10379228Y56331818D01*
X10379221Y56331805D01*
X10326421Y56204333D01*
X10326418Y56204323D01*
X10299500Y56068996D01*
X10299500Y56068993D01*
X10299500Y55931007D01*
X10299500Y55931005D01*
X10299499Y55931005D01*
X10326418Y55795678D01*
X10326421Y55795668D01*
X10379221Y55668196D01*
X10379228Y55668183D01*
X10455885Y55553459D01*
X10455888Y55553455D01*
X10553454Y55455889D01*
X10553458Y55455886D01*
X10668182Y55379229D01*
X10668195Y55379222D01*
X10795667Y55326422D01*
X10795672Y55326420D01*
X10795676Y55326420D01*
X10795677Y55326419D01*
X10931004Y55299500D01*
X10931007Y55299500D01*
X13158481Y55299500D01*
X13225520Y55279815D01*
X13246162Y55263181D01*
X15553453Y52955889D01*
X15553454Y52955888D01*
X15668192Y52879223D01*
X15795667Y52826422D01*
X15795672Y52826420D01*
X15795676Y52826420D01*
X15795677Y52826419D01*
X15931003Y52799500D01*
X15931006Y52799500D01*
X15931007Y52799500D01*
X24289852Y52799500D01*
X24356891Y52779815D01*
X24377533Y52763181D01*
X32200612Y44940102D01*
X32234097Y44878779D01*
X32231591Y44816424D01*
X32230261Y44812043D01*
X32199500Y44657396D01*
X32199500Y41110147D01*
X32179815Y41043108D01*
X32163181Y41022466D01*
X15437534Y24296819D01*
X15376211Y24263334D01*
X15349853Y24260500D01*
X12271893Y24260500D01*
X12204854Y24280185D01*
X12159099Y24332989D01*
X12148718Y24370217D01*
X12147585Y24379991D01*
X12102206Y24482765D01*
X12022765Y24562206D01*
X12002124Y24571320D01*
X11919992Y24607585D01*
X11894868Y24610500D01*
X11166243Y24610500D01*
X11099204Y24630185D01*
X11053449Y24682989D01*
X11043505Y24752147D01*
X11072530Y24815703D01*
X11131308Y24853477D01*
X11143441Y24856386D01*
X11316198Y24888679D01*
X11515019Y24965702D01*
X11696302Y25077948D01*
X11853872Y25221593D01*
X11982366Y25391745D01*
X12003493Y25434174D01*
X12051593Y25530771D01*
X12099096Y25582009D01*
X12162593Y25599500D01*
X13759832Y25599500D01*
X13759834Y25599500D01*
X13861695Y25626793D01*
X13953020Y25679520D01*
X25035703Y36762206D01*
X25035708Y36762209D01*
X25045911Y36772413D01*
X25045913Y36772413D01*
X25120480Y36846980D01*
X25173207Y36938306D01*
X25189738Y37000000D01*
X25200501Y37040166D01*
X25200501Y37145620D01*
X25200501Y37153215D01*
X25200500Y37153233D01*
X25200500Y40907746D01*
X25220185Y40974785D01*
X25236819Y40995427D01*
X25419124Y41177732D01*
X25615991Y41374600D01*
X25668736Y41405894D01*
X25785049Y41440046D01*
X25785049Y41440047D01*
X25785052Y41440047D01*
X25906127Y41517857D01*
X26000376Y41626627D01*
X26060164Y41757543D01*
X26080646Y41900000D01*
X26060164Y42042457D01*
X26000376Y42173373D01*
X25906127Y42282143D01*
X25785052Y42359953D01*
X25785050Y42359954D01*
X25785048Y42359955D01*
X25785049Y42359955D01*
X25646962Y42400500D01*
X25646960Y42400500D01*
X25503038Y42400500D01*
X25503035Y42400500D01*
X25364948Y42359955D01*
X25243872Y42282144D01*
X25149622Y42173374D01*
X25149621Y42173372D01*
X25089834Y42042459D01*
X25089833Y42042455D01*
X25085425Y42011796D01*
X25056399Y41948241D01*
X25050368Y41941764D01*
X24479522Y41370917D01*
X24479520Y41370914D01*
X24426793Y41279589D01*
X24410395Y41218390D01*
X24410395Y41218389D01*
X24410394Y41218390D01*
X24399500Y41177732D01*
X24399500Y37310148D01*
X24379815Y37243109D01*
X24363181Y37222467D01*
X13577533Y26436819D01*
X13516210Y26403334D01*
X13489852Y26400500D01*
X12162593Y26400500D01*
X12095554Y26420185D01*
X12051593Y26469229D01*
X11982367Y26608254D01*
X11853872Y26778407D01*
X11775886Y26849501D01*
X11696302Y26922052D01*
X11515019Y27034298D01*
X11515017Y27034299D01*
X11316201Y27111320D01*
X11316200Y27111321D01*
X11316198Y27111321D01*
X11118026Y27148366D01*
X11055746Y27180035D01*
X11020473Y27240347D01*
X11023407Y27310155D01*
X11063616Y27367295D01*
X11118027Y27392144D01*
X11316058Y27429163D01*
X11316063Y27429164D01*
X11514789Y27506150D01*
X11514798Y27506154D01*
X11695997Y27618347D01*
X11695999Y27618349D01*
X11853499Y27761929D01*
X11981940Y27932011D01*
X12035712Y28040000D01*
X11065826Y28040000D01*
X11192993Y28074075D01*
X11307007Y28139901D01*
X11400099Y28232993D01*
X11465925Y28347007D01*
X11500000Y28474174D01*
X11500000Y28605826D01*
X11465925Y28732993D01*
X11400099Y28847007D01*
X11307007Y28940099D01*
X11192993Y29005925D01*
X11065826Y29040000D01*
X11500000Y29040000D01*
X12035712Y29040000D01*
X12035712Y29040001D01*
X11981940Y29147990D01*
X11853499Y29318072D01*
X11695999Y29461652D01*
X11695997Y29461654D01*
X11514801Y29573845D01*
X11514793Y29573849D01*
X11500000Y29579581D01*
X11500000Y29040000D01*
X11065826Y29040000D01*
X10934174Y29040000D01*
X10807007Y29005925D01*
X10692993Y28940099D01*
X10599901Y28847007D01*
X10534075Y28732993D01*
X10500000Y28605826D01*
X10500000Y28474174D01*
X10534075Y28347007D01*
X10599901Y28232993D01*
X10692993Y28139901D01*
X10807007Y28074075D01*
X10934174Y28040000D01*
X9964288Y28040000D01*
X10018059Y27932011D01*
X10146500Y27761929D01*
X10304000Y27618349D01*
X10304002Y27618347D01*
X10485201Y27506154D01*
X10485210Y27506150D01*
X10683936Y27429164D01*
X10683941Y27429163D01*
X10881972Y27392144D01*
X10944253Y27360476D01*
X10979526Y27300164D01*
X10976592Y27230355D01*
X10936383Y27173215D01*
X10881973Y27148366D01*
X10859217Y27144112D01*
X10683802Y27111321D01*
X10683800Y27111321D01*
X10683798Y27111320D01*
X10484982Y27034299D01*
X10484980Y27034298D01*
X10303699Y26922053D01*
X10146127Y26778407D01*
X10017632Y26608254D01*
X9922596Y26417395D01*
X9922596Y26417393D01*
X9864244Y26212311D01*
X9844571Y26000001D01*
X9844571Y26000000D01*
X9864244Y25787690D01*
X9922596Y25582608D01*
X9922596Y25582606D01*
X10017632Y25391747D01*
X10146127Y25221594D01*
X10146128Y25221593D01*
X10303698Y25077948D01*
X10484981Y24965702D01*
X10683802Y24888679D01*
X10856544Y24856388D01*
X10918823Y24824721D01*
X10954096Y24764409D01*
X10951162Y24694600D01*
X10910953Y24637460D01*
X10846235Y24611129D01*
X10833757Y24610500D01*
X10105143Y24610500D01*
X10105117Y24610498D01*
X10080012Y24607587D01*
X10080008Y24607585D01*
X9977235Y24562207D01*
X9897794Y24482766D01*
X9852415Y24379994D01*
X9852415Y24379992D01*
X9849500Y24354869D01*
X9849500Y24284500D01*
X9829815Y24217461D01*
X9777011Y24171706D01*
X9725500Y24160500D01*
X5974449Y24160500D01*
X5907410Y24180185D01*
X5875496Y24209772D01*
X5853872Y24238407D01*
X5696302Y24382052D01*
X5515019Y24494298D01*
X5515017Y24494299D01*
X5415608Y24532810D01*
X5316198Y24571321D01*
X5119385Y24608112D01*
X5057106Y24639779D01*
X5021833Y24700092D01*
X5024767Y24769900D01*
X5064976Y24827040D01*
X5119384Y24851889D01*
X5316198Y24888679D01*
X5515019Y24965702D01*
X5696302Y25077948D01*
X5853872Y25221593D01*
X5982366Y25391745D01*
X6003493Y25434174D01*
X6051593Y25530771D01*
X6099096Y25582009D01*
X6162593Y25599500D01*
X6254806Y25599500D01*
X6254808Y25599500D01*
X6356669Y25626793D01*
X6447994Y25679520D01*
X9794009Y29025536D01*
X9855331Y29059020D01*
X9925023Y29054036D01*
X9943772Y29040000D01*
X10500000Y29040000D01*
X10500000Y29597411D01*
X10488837Y29611085D01*
X10480930Y29680506D01*
X10511809Y29743182D01*
X10515397Y29746924D01*
X14637820Y33869347D01*
X14699142Y33902831D01*
X14768834Y33897847D01*
X14824767Y33855975D01*
X14849184Y33790511D01*
X14849500Y33781665D01*
X14849500Y32105144D01*
X14849502Y32105118D01*
X14852413Y32080013D01*
X14852415Y32080009D01*
X14897793Y31977236D01*
X14897794Y31977235D01*
X14977235Y31897794D01*
X15080009Y31852415D01*
X15105135Y31849500D01*
X16894864Y31849501D01*
X16894879Y31849503D01*
X16894882Y31849503D01*
X16919987Y31852414D01*
X16919988Y31852415D01*
X16919991Y31852415D01*
X17022765Y31897794D01*
X17102206Y31977235D01*
X17147585Y32080009D01*
X17150500Y32105135D01*
X17150499Y33894864D01*
X17149145Y33906542D01*
X17147586Y33919988D01*
X17147585Y33919990D01*
X17147585Y33919991D01*
X17102206Y34022765D01*
X17022765Y34102206D01*
X16951712Y34133579D01*
X16919992Y34147585D01*
X16894868Y34150500D01*
X15218334Y34150500D01*
X15151295Y34170185D01*
X15105540Y34222989D01*
X15095596Y34292147D01*
X15124621Y34355703D01*
X15130633Y34362160D01*
X22531654Y41763182D01*
X22592977Y41796666D01*
X22619335Y41799500D01*
X23461026Y41799500D01*
X23528064Y41779816D01*
X23589949Y41740046D01*
X23728036Y41699501D01*
X23728038Y41699500D01*
X23728039Y41699500D01*
X23871962Y41699500D01*
X23871962Y41699501D01*
X24010053Y41740047D01*
X24131128Y41817857D01*
X24225377Y41926627D01*
X24285165Y42057543D01*
X24305647Y42200000D01*
X24285165Y42342457D01*
X24225377Y42473373D01*
X24131128Y42582143D01*
X24010053Y42659953D01*
X24010051Y42659954D01*
X24010049Y42659955D01*
X24010050Y42659955D01*
X23871963Y42700500D01*
X23871961Y42700500D01*
X23728039Y42700500D01*
X23728035Y42700500D01*
X23625250Y42670320D01*
X23555380Y42670320D01*
X23496602Y42708095D01*
X23467578Y42771651D01*
X23477522Y42840809D01*
X23477524Y42840813D01*
X23485165Y42857543D01*
X23490111Y42891947D01*
X23493074Y42906394D01*
X23494263Y42910835D01*
X23500500Y42934108D01*
X23500500Y42955333D01*
X23501762Y42972980D01*
X23505647Y43000001D01*
X23501762Y43027023D01*
X23500500Y43044669D01*
X23500500Y43065890D01*
X23500500Y43065892D01*
X23493073Y43093610D01*
X23490111Y43108054D01*
X23485165Y43142455D01*
X23485165Y43142457D01*
X23476928Y43160491D01*
X23469949Y43179909D01*
X23466392Y43193186D01*
X23448316Y43224494D01*
X23442911Y43234980D01*
X23425380Y43273367D01*
X23425379Y43273369D01*
X23425377Y43273373D01*
X23425372Y43273379D01*
X23417306Y43282688D01*
X23403628Y43301896D01*
X23400499Y43307315D01*
X23369677Y43338137D01*
X23363659Y43344599D01*
X23331128Y43382143D01*
X23331125Y43382146D01*
X23327066Y43384754D01*
X23311793Y43397063D01*
X23307318Y43400496D01*
X23307314Y43400500D01*
X23295404Y43407377D01*
X23263121Y43426016D01*
X23258085Y43429085D01*
X23225252Y43450185D01*
X23210053Y43459953D01*
X23210051Y43459954D01*
X23210049Y43459955D01*
X23209004Y43460433D01*
X23199375Y43463829D01*
X23193192Y43466390D01*
X23193187Y43466392D01*
X23193186Y43466392D01*
X23136701Y43481527D01*
X23133862Y43482325D01*
X23071963Y43500500D01*
X23071961Y43500500D01*
X23065892Y43500500D01*
X15624500Y43500500D01*
X15557461Y43520185D01*
X15511706Y43572989D01*
X15500500Y43624500D01*
X15500500Y49334456D01*
X15502187Y49354841D01*
X15502971Y49359550D01*
X15502973Y49359553D01*
X15580275Y49823374D01*
X15583665Y49835192D01*
X15582939Y49835386D01*
X15585041Y49843232D01*
X15585044Y49843238D01*
X15590252Y49882809D01*
X15590873Y49886964D01*
X15596379Y49919992D01*
X15599080Y49936199D01*
X15602155Y49960732D01*
X15602314Y49962616D01*
X15602620Y49972134D01*
X15603618Y49984326D01*
X15605682Y49999999D01*
X15605682Y50000002D01*
X15585869Y50150498D01*
X15585044Y50156762D01*
X15524536Y50302841D01*
X15428282Y50428282D01*
X15302841Y50524536D01*
X15156762Y50585044D01*
X15156760Y50585045D01*
X15000001Y50605682D01*
X14999999Y50605682D01*
X14843239Y50585045D01*
X14843237Y50585044D01*
X14697160Y50524537D01*
X14571718Y50428282D01*
X14475463Y50302840D01*
X14414956Y50156763D01*
X14414955Y50156761D01*
X14394318Y50000002D01*
X14394318Y49999998D01*
X14399931Y49957359D01*
X14400968Y49938747D01*
X14400918Y49936210D01*
X14400919Y49936204D01*
X14400919Y49936202D01*
X14403621Y49919991D01*
X14409127Y49886948D01*
X14409751Y49882757D01*
X14414955Y49843240D01*
X14417059Y49835387D01*
X14416344Y49835196D01*
X14419721Y49823383D01*
X14497813Y49354839D01*
X14499500Y49334453D01*
X14499500Y37665548D01*
X14497813Y37645162D01*
X14419719Y37176609D01*
X14416341Y37164796D01*
X14417057Y37164604D01*
X14414955Y37156761D01*
X14409757Y37117277D01*
X14409131Y37113082D01*
X14400920Y37063810D01*
X14397827Y37039082D01*
X14397672Y37037236D01*
X14397671Y37037215D01*
X14397371Y37027835D01*
X14396374Y37015622D01*
X14394318Y37000004D01*
X14394318Y37000001D01*
X14394318Y37000000D01*
X14397446Y36976235D01*
X14414955Y36843240D01*
X14414956Y36843238D01*
X14475464Y36697159D01*
X14571718Y36571718D01*
X14697159Y36475464D01*
X14843238Y36414956D01*
X14921619Y36404637D01*
X14999999Y36394318D01*
X15000000Y36394318D01*
X15000001Y36394318D01*
X15052254Y36401198D01*
X15156762Y36414956D01*
X15302841Y36475464D01*
X15428282Y36571718D01*
X15524536Y36697159D01*
X15585044Y36843238D01*
X15605682Y37000000D01*
X15605681Y37000004D01*
X15603625Y37015622D01*
X15600066Y37042649D01*
X15599030Y37061278D01*
X15599080Y37063802D01*
X15590867Y37113082D01*
X15590244Y37117263D01*
X15589613Y37122051D01*
X15585044Y37156762D01*
X15585040Y37156772D01*
X15582939Y37164615D01*
X15583668Y37164811D01*
X15580275Y37176626D01*
X15502973Y37640447D01*
X15502971Y37640451D01*
X15502187Y37645160D01*
X15500500Y37665545D01*
X15500500Y42375500D01*
X15520185Y42442539D01*
X15572989Y42488294D01*
X15624500Y42499500D01*
X21835826Y42499500D01*
X21902865Y42479815D01*
X21948620Y42427011D01*
X21958564Y42357853D01*
X21929539Y42294297D01*
X21923507Y42287819D01*
X6191180Y26555494D01*
X6129857Y26522009D01*
X6060165Y26526993D01*
X6004232Y26568865D01*
X5992502Y26587899D01*
X5982366Y26608255D01*
X5982365Y26608256D01*
X5982365Y26608257D01*
X5853872Y26778407D01*
X5775886Y26849501D01*
X5696302Y26922052D01*
X5515019Y27034298D01*
X5515017Y27034299D01*
X5397014Y27080013D01*
X5316198Y27111321D01*
X5140781Y27144113D01*
X5078501Y27175781D01*
X5043228Y27236093D01*
X5046162Y27305901D01*
X5086371Y27363041D01*
X5151089Y27389372D01*
X5163567Y27390001D01*
X5894786Y27390001D01*
X5894808Y27390003D01*
X5919869Y27392909D01*
X5919873Y27392910D01*
X6022474Y27438212D01*
X6022479Y27438215D01*
X6101785Y27517521D01*
X6101788Y27517526D01*
X6147089Y27620123D01*
X6147089Y27620125D01*
X6149999Y27645206D01*
X6150000Y27645209D01*
X6150000Y28040000D01*
X5065826Y28040000D01*
X5192993Y28074075D01*
X5307007Y28139901D01*
X5400099Y28232993D01*
X5465925Y28347007D01*
X5500000Y28474174D01*
X5500000Y28605826D01*
X5465925Y28732993D01*
X5400099Y28847007D01*
X5307007Y28940099D01*
X5192993Y29005925D01*
X5065826Y29040000D01*
X5500000Y29040000D01*
X6149999Y29040000D01*
X6149999Y29434786D01*
X6149997Y29434809D01*
X6147091Y29459870D01*
X6147090Y29459874D01*
X6101788Y29562475D01*
X6101785Y29562480D01*
X6022479Y29641786D01*
X6022474Y29641789D01*
X5919876Y29687090D01*
X5894794Y29690000D01*
X5500000Y29690000D01*
X5500000Y29040000D01*
X5065826Y29040000D01*
X4934174Y29040000D01*
X4807007Y29005925D01*
X4692993Y28940099D01*
X4599901Y28847007D01*
X4534075Y28732993D01*
X4500000Y28605826D01*
X4500000Y28474174D01*
X4534075Y28347007D01*
X4599901Y28232993D01*
X4692993Y28139901D01*
X4807007Y28074075D01*
X4934174Y28040000D01*
X3850001Y28040000D01*
X3850001Y27645215D01*
X3850002Y27645192D01*
X3852908Y27620131D01*
X3852909Y27620127D01*
X3898211Y27517526D01*
X3898214Y27517521D01*
X3977520Y27438215D01*
X3977525Y27438212D01*
X4080123Y27392911D01*
X4105206Y27390001D01*
X4836431Y27390001D01*
X4903470Y27370317D01*
X4949225Y27317513D01*
X4959169Y27248354D01*
X4930144Y27184798D01*
X4871366Y27147024D01*
X4859215Y27144112D01*
X4683802Y27111321D01*
X4683800Y27111321D01*
X4683798Y27111320D01*
X4484982Y27034299D01*
X4484980Y27034298D01*
X4303699Y26922053D01*
X4146127Y26778407D01*
X4017632Y26608254D01*
X3922596Y26417395D01*
X3922596Y26417393D01*
X3864244Y26212311D01*
X3844571Y26000001D01*
X1000000Y26000001D01*
X1000000Y29434795D01*
X3850000Y29434795D01*
X3850000Y29040000D01*
X4500000Y29040000D01*
X4500000Y29690000D01*
X4105214Y29690000D01*
X4105191Y29689998D01*
X4080130Y29687092D01*
X4080126Y29687091D01*
X3977525Y29641789D01*
X3977520Y29641786D01*
X3898214Y29562480D01*
X3898211Y29562475D01*
X3852910Y29459878D01*
X3852910Y29459876D01*
X3850000Y29434795D01*
X1000000Y29434795D01*
X1000000Y42260000D01*
X1917746Y42260000D01*
X1936734Y42018735D01*
X1993228Y41783418D01*
X2076141Y41583249D01*
X2641078Y42148186D01*
X2666704Y42019356D01*
X2728894Y41869216D01*
X2819181Y41734093D01*
X2934093Y41619181D01*
X3069216Y41528894D01*
X3219356Y41466704D01*
X3348185Y41441079D01*
X2783247Y40876143D01*
X2983414Y40793231D01*
X2983426Y40793227D01*
X3218734Y40736735D01*
X3460000Y40717747D01*
X3701265Y40736735D01*
X3936573Y40793227D01*
X3936585Y40793231D01*
X4136751Y40876143D01*
X3571815Y41441079D01*
X3700644Y41466704D01*
X3850784Y41528894D01*
X3985907Y41619181D01*
X4100819Y41734093D01*
X4191106Y41869216D01*
X4253296Y42019356D01*
X4278921Y42148186D01*
X4843857Y41583249D01*
X4926769Y41783415D01*
X4926773Y41783427D01*
X4983265Y42018735D01*
X5002253Y42260000D01*
X6997746Y42260000D01*
X7016734Y42018735D01*
X7073228Y41783418D01*
X7156141Y41583249D01*
X7721078Y42148186D01*
X7746704Y42019356D01*
X7808894Y41869216D01*
X7899181Y41734093D01*
X8014093Y41619181D01*
X8149216Y41528894D01*
X8299356Y41466704D01*
X8428185Y41441079D01*
X7863247Y40876143D01*
X8063414Y40793231D01*
X8063426Y40793227D01*
X8298734Y40736735D01*
X8540000Y40717747D01*
X8781265Y40736735D01*
X9016573Y40793227D01*
X9016585Y40793231D01*
X9216751Y40876143D01*
X8651815Y41441079D01*
X8780644Y41466704D01*
X8930784Y41528894D01*
X9065907Y41619181D01*
X9180819Y41734093D01*
X9271106Y41869216D01*
X9333296Y42019356D01*
X9358921Y42148185D01*
X9923857Y41583249D01*
X10006769Y41783415D01*
X10006773Y41783427D01*
X10063265Y42018735D01*
X10082253Y42260000D01*
X10063265Y42501266D01*
X10006773Y42736574D01*
X10006769Y42736586D01*
X9923857Y42936753D01*
X9358921Y42371816D01*
X9333296Y42500644D01*
X9271106Y42650784D01*
X9180819Y42785907D01*
X9065907Y42900819D01*
X8930784Y42991106D01*
X8780644Y43053296D01*
X8651814Y43078922D01*
X9216751Y43643859D01*
X9016582Y43726772D01*
X8781265Y43783266D01*
X8540000Y43802254D01*
X8298734Y43783266D01*
X8063417Y43726772D01*
X7863247Y43643859D01*
X8428185Y43078922D01*
X8299356Y43053296D01*
X8149216Y42991106D01*
X8014093Y42900819D01*
X7899181Y42785907D01*
X7808894Y42650784D01*
X7746704Y42500644D01*
X7721078Y42371816D01*
X7156141Y42936753D01*
X7073228Y42736583D01*
X7016734Y42501266D01*
X6997746Y42260000D01*
X5002253Y42260000D01*
X4983265Y42501266D01*
X4926773Y42736574D01*
X4926769Y42736586D01*
X4843857Y42936753D01*
X4278921Y42371816D01*
X4253296Y42500644D01*
X4191106Y42650784D01*
X4100819Y42785907D01*
X3985907Y42900819D01*
X3850784Y42991106D01*
X3700644Y43053296D01*
X3571814Y43078922D01*
X4136751Y43643859D01*
X3936582Y43726772D01*
X3701265Y43783266D01*
X3460000Y43802254D01*
X3218734Y43783266D01*
X2983417Y43726772D01*
X2783247Y43643859D01*
X3348185Y43078922D01*
X3219356Y43053296D01*
X3069216Y42991106D01*
X2934093Y42900819D01*
X2819181Y42785907D01*
X2728894Y42650784D01*
X2666704Y42500644D01*
X2641078Y42371816D01*
X2076141Y42936753D01*
X1993228Y42736583D01*
X1936734Y42501266D01*
X1917746Y42260000D01*
X1000000Y42260000D01*
X1000000Y44800006D01*
X4531986Y44800006D01*
X4531986Y44799995D01*
X4552007Y44558377D01*
X4611526Y44323339D01*
X4703410Y44113863D01*
X4708920Y44101303D01*
X4841531Y43898327D01*
X5005741Y43719947D01*
X5197072Y43571028D01*
X5197074Y43571027D01*
X5401433Y43460433D01*
X5410305Y43455632D01*
X5639624Y43376907D01*
X5878772Y43337000D01*
X5878773Y43337000D01*
X6121227Y43337000D01*
X6121228Y43337000D01*
X6360376Y43376907D01*
X6589695Y43455632D01*
X6802928Y43571028D01*
X6994259Y43719947D01*
X7158469Y43898327D01*
X7291080Y44101303D01*
X7388473Y44323337D01*
X7447992Y44558373D01*
X7461233Y44718170D01*
X7468014Y44799995D01*
X7468014Y44800006D01*
X7452919Y44982170D01*
X7447992Y45041627D01*
X7388473Y45276663D01*
X7291080Y45498697D01*
X7158469Y45701673D01*
X6994259Y45880053D01*
X6802928Y46028972D01*
X6802926Y46028973D01*
X6802925Y46028974D01*
X6589696Y46144368D01*
X6589690Y46144370D01*
X6360378Y46223093D01*
X6200944Y46249698D01*
X6121228Y46263000D01*
X5878772Y46263000D01*
X5818985Y46253024D01*
X5639621Y46223093D01*
X5410309Y46144370D01*
X5410303Y46144368D01*
X5197074Y46028974D01*
X5103501Y45956143D01*
X5005741Y45880053D01*
X4984040Y45856479D01*
X4841531Y45701673D01*
X4708918Y45498694D01*
X4611526Y45276662D01*
X4552007Y45041624D01*
X4531986Y44800006D01*
X1000000Y44800006D01*
X1000000Y47340000D01*
X1917746Y47340000D01*
X1936734Y47098735D01*
X1993228Y46863418D01*
X2076141Y46663249D01*
X2641078Y47228186D01*
X2666704Y47099356D01*
X2728894Y46949216D01*
X2819181Y46814093D01*
X2934093Y46699181D01*
X3069216Y46608894D01*
X3219356Y46546704D01*
X3348185Y46521079D01*
X2783247Y45956143D01*
X2983414Y45873231D01*
X2983426Y45873227D01*
X3218734Y45816735D01*
X3460000Y45797747D01*
X3701265Y45816735D01*
X3936573Y45873227D01*
X3936585Y45873231D01*
X4136751Y45956143D01*
X3571815Y46521079D01*
X3700644Y46546704D01*
X3850784Y46608894D01*
X3985907Y46699181D01*
X4100819Y46814093D01*
X4191106Y46949216D01*
X4253296Y47099356D01*
X4278921Y47228186D01*
X4843857Y46663249D01*
X4926769Y46863415D01*
X4926773Y46863427D01*
X4983265Y47098735D01*
X5002253Y47340000D01*
X6997746Y47340000D01*
X7016734Y47098735D01*
X7073228Y46863418D01*
X7156141Y46663249D01*
X7721078Y47228186D01*
X7746704Y47099356D01*
X7808894Y46949216D01*
X7899181Y46814093D01*
X8014093Y46699181D01*
X8149216Y46608894D01*
X8299356Y46546704D01*
X8428185Y46521079D01*
X7863247Y45956143D01*
X8063414Y45873231D01*
X8063426Y45873227D01*
X8298734Y45816735D01*
X8540000Y45797747D01*
X8781265Y45816735D01*
X9016573Y45873227D01*
X9016585Y45873231D01*
X9216751Y45956143D01*
X8651815Y46521079D01*
X8780644Y46546704D01*
X8930784Y46608894D01*
X9065907Y46699181D01*
X9180819Y46814093D01*
X9271106Y46949216D01*
X9333296Y47099356D01*
X9358921Y47228185D01*
X9923857Y46663249D01*
X10006769Y46863415D01*
X10006773Y46863427D01*
X10063265Y47098735D01*
X10082253Y47340000D01*
X10063265Y47581266D01*
X10006773Y47816574D01*
X10006769Y47816586D01*
X9923857Y48016753D01*
X9358921Y47451816D01*
X9333296Y47580644D01*
X9271106Y47730784D01*
X9180819Y47865907D01*
X9065907Y47980819D01*
X8930784Y48071106D01*
X8780644Y48133296D01*
X8651814Y48158922D01*
X9216751Y48723859D01*
X9016582Y48806772D01*
X8781265Y48863266D01*
X8540000Y48882254D01*
X8298734Y48863266D01*
X8063417Y48806772D01*
X7863247Y48723859D01*
X8428185Y48158922D01*
X8299356Y48133296D01*
X8149216Y48071106D01*
X8014093Y47980819D01*
X7899181Y47865907D01*
X7808894Y47730784D01*
X7746704Y47580644D01*
X7721078Y47451816D01*
X7156141Y48016753D01*
X7073228Y47816583D01*
X7016734Y47581266D01*
X6997746Y47340000D01*
X5002253Y47340000D01*
X4983265Y47581266D01*
X4926773Y47816574D01*
X4926769Y47816586D01*
X4843857Y48016753D01*
X4278921Y47451816D01*
X4253296Y47580644D01*
X4191106Y47730784D01*
X4100819Y47865907D01*
X3985907Y47980819D01*
X3850784Y48071106D01*
X3700644Y48133296D01*
X3571814Y48158922D01*
X4136751Y48723859D01*
X3936582Y48806772D01*
X3701265Y48863266D01*
X3460000Y48882254D01*
X3218734Y48863266D01*
X2983417Y48806772D01*
X2783247Y48723859D01*
X3348185Y48158922D01*
X3219356Y48133296D01*
X3069216Y48071106D01*
X2934093Y47980819D01*
X2819181Y47865907D01*
X2728894Y47730784D01*
X2666704Y47580644D01*
X2641078Y47451816D01*
X2076141Y48016753D01*
X1993228Y47816583D01*
X1936734Y47581266D01*
X1917746Y47340000D01*
X1000000Y47340000D01*
X1000000Y52894869D01*
X4849500Y52894869D01*
X4849500Y51105144D01*
X4849502Y51105118D01*
X4852413Y51080013D01*
X4852415Y51080009D01*
X4897793Y50977236D01*
X4897794Y50977235D01*
X4977235Y50897794D01*
X5080009Y50852415D01*
X5105135Y50849500D01*
X6894864Y50849501D01*
X6894879Y50849503D01*
X6894882Y50849503D01*
X6919987Y50852414D01*
X6919988Y50852415D01*
X6919991Y50852415D01*
X7022765Y50897794D01*
X7102206Y50977235D01*
X7147585Y51080009D01*
X7150500Y51105135D01*
X7150499Y52894864D01*
X7150497Y52894883D01*
X7147586Y52919988D01*
X7147585Y52919990D01*
X7147585Y52919991D01*
X7102206Y53022765D01*
X7022765Y53102206D01*
X7022434Y53102352D01*
X6919992Y53147585D01*
X6894865Y53150500D01*
X5105143Y53150500D01*
X5105117Y53150498D01*
X5080012Y53147587D01*
X5080008Y53147585D01*
X4977235Y53102207D01*
X4897794Y53022766D01*
X4852415Y52919994D01*
X4852415Y52919992D01*
X4849500Y52894869D01*
X1000000Y52894869D01*
X1000000Y56894869D01*
X15849500Y56894869D01*
X15849500Y55105144D01*
X15849502Y55105118D01*
X15852413Y55080013D01*
X15852415Y55080009D01*
X15897793Y54977236D01*
X15897794Y54977235D01*
X15977235Y54897794D01*
X16080009Y54852415D01*
X16105135Y54849500D01*
X17894864Y54849501D01*
X17894879Y54849503D01*
X17894882Y54849503D01*
X17919987Y54852414D01*
X17919988Y54852415D01*
X17919991Y54852415D01*
X18022765Y54897794D01*
X18102206Y54977235D01*
X18147585Y55080009D01*
X18150500Y55105135D01*
X18150499Y56894864D01*
X18150498Y56894869D01*
X19849500Y56894869D01*
X19849500Y55105144D01*
X19849502Y55105118D01*
X19852413Y55080013D01*
X19852415Y55080009D01*
X19897793Y54977236D01*
X19897794Y54977235D01*
X19977235Y54897794D01*
X20080009Y54852415D01*
X20105135Y54849500D01*
X21894864Y54849501D01*
X21894879Y54849503D01*
X21894882Y54849503D01*
X21919987Y54852414D01*
X21919988Y54852415D01*
X21919991Y54852415D01*
X22022765Y54897794D01*
X22102206Y54977235D01*
X22147585Y55080009D01*
X22150500Y55105135D01*
X22150499Y56894864D01*
X22150497Y56894883D01*
X22147586Y56919988D01*
X22147585Y56919990D01*
X22147585Y56919991D01*
X22102206Y57022765D01*
X22022765Y57102206D01*
X22022763Y57102207D01*
X21919992Y57147585D01*
X21894865Y57150500D01*
X20105143Y57150500D01*
X20105117Y57150498D01*
X20080012Y57147587D01*
X20080008Y57147585D01*
X19977235Y57102207D01*
X19897794Y57022766D01*
X19852415Y56919994D01*
X19852415Y56919992D01*
X19849500Y56894869D01*
X18150498Y56894869D01*
X18150497Y56894883D01*
X18147586Y56919988D01*
X18147585Y56919990D01*
X18147585Y56919991D01*
X18102206Y57022765D01*
X18022765Y57102206D01*
X18022763Y57102207D01*
X17919992Y57147585D01*
X17894865Y57150500D01*
X16105143Y57150500D01*
X16105117Y57150498D01*
X16080012Y57147587D01*
X16080008Y57147585D01*
X15977235Y57102207D01*
X15897794Y57022766D01*
X15852415Y56919994D01*
X15852415Y56919992D01*
X15849500Y56894869D01*
X1000000Y56894869D01*
X1000000Y65623643D01*
X1019685Y65690682D01*
X1072489Y65736437D01*
X1141647Y65746381D01*
X1205203Y65717356D01*
X1227100Y65692536D01*
X1242928Y65668849D01*
X1250482Y65657543D01*
X1440672Y65440673D01*
X1657547Y65250479D01*
X1686372Y65231219D01*
X1897389Y65090222D01*
X2156098Y64962641D01*
X2429247Y64869919D01*
X2712161Y64813644D01*
X3000000Y64794778D01*
X3287839Y64813644D01*
X3570753Y64869919D01*
X3843902Y64962641D01*
X3919673Y65000007D01*
X8054700Y65000007D01*
X8054700Y64999994D01*
X8073864Y64768703D01*
X8073866Y64768692D01*
X8130842Y64543700D01*
X8224075Y64331152D01*
X8351016Y64136853D01*
X8351019Y64136849D01*
X8351021Y64136847D01*
X8508216Y63966087D01*
X8508219Y63966085D01*
X8508222Y63966082D01*
X8691365Y63823536D01*
X8691371Y63823532D01*
X8691374Y63823530D01*
X8858860Y63732891D01*
X8894652Y63713521D01*
X8895497Y63713064D01*
X9009487Y63673932D01*
X9115015Y63637703D01*
X9115017Y63637703D01*
X9115019Y63637702D01*
X9343951Y63599500D01*
X9343952Y63599500D01*
X9576048Y63599500D01*
X9576049Y63599500D01*
X9804981Y63637702D01*
X10024503Y63713064D01*
X10035132Y63718816D01*
X11425919Y63718816D01*
X11435693Y63713527D01*
X11435707Y63713521D01*
X11655139Y63638189D01*
X11883993Y63600000D01*
X12116007Y63600000D01*
X12344860Y63638189D01*
X12564290Y63713519D01*
X12564299Y63713523D01*
X12574078Y63718816D01*
X12574079Y63718816D01*
X11996531Y64296364D01*
X11983350Y64287557D01*
X11980315Y64277219D01*
X11963681Y64256577D01*
X11425919Y63718816D01*
X10035132Y63718816D01*
X10228626Y63823530D01*
X10236951Y63830009D01*
X10290129Y63871400D01*
X10411784Y63966087D01*
X10568979Y64136847D01*
X10695924Y64331151D01*
X10742717Y64437830D01*
X10768591Y64475699D01*
X11292893Y65000001D01*
X11220485Y65072409D01*
X11450000Y65072409D01*
X11450000Y64927591D01*
X11487482Y64787708D01*
X11559890Y64662292D01*
X11662292Y64559890D01*
X11787708Y64487482D01*
X11927591Y64450000D01*
X12072409Y64450000D01*
X12212292Y64487482D01*
X12337708Y64559890D01*
X12440110Y64662292D01*
X12512518Y64787708D01*
X12550000Y64927591D01*
X12550000Y65003469D01*
X12703636Y65003469D01*
X13103181Y64603925D01*
X13136666Y64542602D01*
X13139500Y64516244D01*
X13139500Y63855144D01*
X13139502Y63855118D01*
X13142413Y63830013D01*
X13142415Y63830009D01*
X13187793Y63727236D01*
X13187794Y63727235D01*
X13267235Y63647794D01*
X13370009Y63602415D01*
X13395135Y63599500D01*
X15684864Y63599501D01*
X15684879Y63599503D01*
X15684882Y63599503D01*
X15709987Y63602414D01*
X15709988Y63602415D01*
X15709991Y63602415D01*
X15812765Y63647794D01*
X15883787Y63718816D01*
X22885919Y63718816D01*
X22895693Y63713527D01*
X22895707Y63713521D01*
X23115139Y63638189D01*
X23343993Y63600000D01*
X23576007Y63600000D01*
X23804860Y63638189D01*
X24024290Y63713519D01*
X24024299Y63713523D01*
X24034078Y63718816D01*
X24034079Y63718816D01*
X23456531Y64296364D01*
X23443350Y64287557D01*
X23440315Y64277219D01*
X23423681Y64256577D01*
X22885919Y63718816D01*
X15883787Y63718816D01*
X15892206Y63727235D01*
X15937585Y63830009D01*
X15940500Y63855135D01*
X15940499Y65000006D01*
X22055202Y65000006D01*
X22055202Y65000000D01*
X22074361Y64768782D01*
X22131318Y64543863D01*
X22181759Y64428868D01*
X22181760Y64428867D01*
X22752892Y65000000D01*
X22752893Y65000001D01*
X22680485Y65072409D01*
X22910000Y65072409D01*
X22910000Y64927591D01*
X22947482Y64787708D01*
X23019890Y64662292D01*
X23122292Y64559890D01*
X23247708Y64487482D01*
X23387591Y64450000D01*
X23532409Y64450000D01*
X23672292Y64487482D01*
X23797708Y64559890D01*
X23900110Y64662292D01*
X23972518Y64787708D01*
X24010000Y64927591D01*
X24010000Y65003469D01*
X24163636Y65003469D01*
X24563181Y64603925D01*
X24596666Y64542602D01*
X24599500Y64516244D01*
X24599500Y63855144D01*
X24599502Y63855118D01*
X24602413Y63830013D01*
X24602415Y63830009D01*
X24647793Y63727236D01*
X24647794Y63727235D01*
X24727235Y63647794D01*
X24830009Y63602415D01*
X24855135Y63599500D01*
X27144864Y63599501D01*
X27144879Y63599503D01*
X27144882Y63599503D01*
X27169987Y63602414D01*
X27169988Y63602415D01*
X27169991Y63602415D01*
X27272765Y63647794D01*
X27352206Y63727235D01*
X27397585Y63830009D01*
X27400500Y63855135D01*
X27400499Y66144864D01*
X27399197Y66156095D01*
X27397586Y66169988D01*
X27397585Y66169990D01*
X27397585Y66169991D01*
X27352206Y66272765D01*
X27272765Y66352206D01*
X27272763Y66352207D01*
X27169992Y66397585D01*
X27144865Y66400500D01*
X24855143Y66400500D01*
X24855117Y66400498D01*
X24830012Y66397587D01*
X24830008Y66397585D01*
X24727235Y66352207D01*
X24647794Y66272766D01*
X24602415Y66169994D01*
X24602415Y66169992D01*
X24599500Y66144869D01*
X24599500Y65483757D01*
X24579815Y65416718D01*
X24563181Y65396076D01*
X24203424Y65036319D01*
X24175339Y65020984D01*
X24163636Y65003469D01*
X24010000Y65003469D01*
X24010000Y65072409D01*
X23972518Y65212292D01*
X23900110Y65337708D01*
X23797708Y65440110D01*
X23672292Y65512518D01*
X23532409Y65550000D01*
X23387591Y65550000D01*
X23247708Y65512518D01*
X23122292Y65440110D01*
X23019890Y65337708D01*
X22947482Y65212292D01*
X22910000Y65072409D01*
X22680485Y65072409D01*
X22181760Y65571134D01*
X22131317Y65456136D01*
X22074361Y65231219D01*
X22055202Y65000006D01*
X15940499Y65000006D01*
X15940499Y66144864D01*
X15939197Y66156095D01*
X15937586Y66169988D01*
X15937585Y66169990D01*
X15937585Y66169991D01*
X15892206Y66272765D01*
X15883785Y66281186D01*
X22885919Y66281186D01*
X23459998Y65707108D01*
X23459999Y65707107D01*
X23460000Y65707107D01*
X23460000Y65707108D01*
X24034079Y66281186D01*
X24034078Y66281187D01*
X24024300Y66286478D01*
X23804860Y66361812D01*
X23576007Y66400000D01*
X23343993Y66400000D01*
X23115139Y66361812D01*
X22895709Y66286481D01*
X22895702Y66286479D01*
X22885919Y66281186D01*
X15883785Y66281186D01*
X15812765Y66352206D01*
X15812763Y66352207D01*
X15709992Y66397585D01*
X15684865Y66400500D01*
X13395143Y66400500D01*
X13395117Y66400498D01*
X13370012Y66397587D01*
X13370008Y66397585D01*
X13267235Y66352207D01*
X13187794Y66272766D01*
X13142415Y66169994D01*
X13142415Y66169992D01*
X13139500Y66144869D01*
X13139500Y65483757D01*
X13119815Y65416718D01*
X13103181Y65396076D01*
X12743424Y65036319D01*
X12715339Y65020984D01*
X12703636Y65003469D01*
X12550000Y65003469D01*
X12550000Y65072409D01*
X12512518Y65212292D01*
X12440110Y65337708D01*
X12337708Y65440110D01*
X12212292Y65512518D01*
X12072409Y65550000D01*
X11927591Y65550000D01*
X11787708Y65512518D01*
X11662292Y65440110D01*
X11559890Y65337708D01*
X11487482Y65212292D01*
X11450000Y65072409D01*
X11220485Y65072409D01*
X10768591Y65524303D01*
X10742716Y65562174D01*
X10695924Y65668849D01*
X10568983Y65863148D01*
X10568980Y65863151D01*
X10568979Y65863153D01*
X10411784Y66033913D01*
X10411779Y66033917D01*
X10411777Y66033919D01*
X10228634Y66176465D01*
X10228628Y66176469D01*
X10035129Y66281186D01*
X11425919Y66281186D01*
X11999998Y65707108D01*
X11999999Y65707107D01*
X12000000Y65707107D01*
X12000000Y65707108D01*
X12574079Y66281186D01*
X12574078Y66281187D01*
X12564300Y66286478D01*
X12344860Y66361812D01*
X12116007Y66400000D01*
X11883993Y66400000D01*
X11655139Y66361812D01*
X11435709Y66286481D01*
X11435702Y66286479D01*
X11425919Y66281186D01*
X10035129Y66281186D01*
X10024504Y66286936D01*
X10024495Y66286939D01*
X9804984Y66362298D01*
X9633282Y66390950D01*
X9576049Y66400500D01*
X9343951Y66400500D01*
X9298164Y66392860D01*
X9115015Y66362298D01*
X8895504Y66286939D01*
X8895495Y66286936D01*
X8691371Y66176469D01*
X8691365Y66176465D01*
X8508222Y66033919D01*
X8508219Y66033916D01*
X8351016Y65863148D01*
X8224075Y65668849D01*
X8130842Y65456301D01*
X8073866Y65231309D01*
X8073864Y65231298D01*
X8054700Y65000007D01*
X3919673Y65000007D01*
X4102611Y65090222D01*
X4342454Y65250480D01*
X4559327Y65440673D01*
X4749520Y65657546D01*
X4909778Y65897389D01*
X5037359Y66156098D01*
X5130081Y66429247D01*
X5186356Y66712161D01*
X5205222Y67000000D01*
X5186356Y67287839D01*
X5149922Y67471005D01*
X8759499Y67471005D01*
X8786418Y67335678D01*
X8786421Y67335668D01*
X8839221Y67208196D01*
X8839228Y67208183D01*
X8915885Y67093459D01*
X8915888Y67093455D01*
X9013454Y66995889D01*
X9013458Y66995886D01*
X9128182Y66919229D01*
X9128195Y66919222D01*
X9255667Y66866422D01*
X9255672Y66866420D01*
X9255676Y66866420D01*
X9255677Y66866419D01*
X9391004Y66839500D01*
X9391007Y66839500D01*
X9528995Y66839500D01*
X9620041Y66857611D01*
X9664328Y66866420D01*
X9791811Y66919225D01*
X9906542Y66995886D01*
X10004114Y67093458D01*
X10080775Y67208189D01*
X10133580Y67335672D01*
X10160500Y67471005D01*
X11299499Y67471005D01*
X11326418Y67335678D01*
X11326421Y67335668D01*
X11379221Y67208196D01*
X11379228Y67208183D01*
X11455885Y67093459D01*
X11455888Y67093455D01*
X11553454Y66995889D01*
X11553458Y66995886D01*
X11668182Y66919229D01*
X11668195Y66919222D01*
X11795667Y66866422D01*
X11795672Y66866420D01*
X11795676Y66866420D01*
X11795677Y66866419D01*
X11931004Y66839500D01*
X11931007Y66839500D01*
X12068995Y66839500D01*
X12160041Y66857611D01*
X12204328Y66866420D01*
X12331811Y66919225D01*
X12446542Y66995886D01*
X12544114Y67093458D01*
X12620775Y67208189D01*
X12673580Y67335672D01*
X12700500Y67471005D01*
X13839499Y67471005D01*
X13866418Y67335678D01*
X13866421Y67335668D01*
X13919221Y67208196D01*
X13919228Y67208183D01*
X13995885Y67093459D01*
X13995888Y67093455D01*
X14093454Y66995889D01*
X14093458Y66995886D01*
X14208182Y66919229D01*
X14208195Y66919222D01*
X14335667Y66866422D01*
X14335672Y66866420D01*
X14335676Y66866420D01*
X14335677Y66866419D01*
X14471004Y66839500D01*
X14471007Y66839500D01*
X14608995Y66839500D01*
X14700041Y66857611D01*
X14744328Y66866420D01*
X14871811Y66919225D01*
X14986542Y66995886D01*
X15084114Y67093458D01*
X15160775Y67208189D01*
X15213580Y67335672D01*
X15240500Y67471005D01*
X22759499Y67471005D01*
X22786418Y67335678D01*
X22786421Y67335668D01*
X22839221Y67208196D01*
X22839228Y67208183D01*
X22915885Y67093459D01*
X22915888Y67093455D01*
X23013454Y66995889D01*
X23013458Y66995886D01*
X23128182Y66919229D01*
X23128195Y66919222D01*
X23255667Y66866422D01*
X23255672Y66866420D01*
X23255676Y66866420D01*
X23255677Y66866419D01*
X23391004Y66839500D01*
X23391007Y66839500D01*
X23528995Y66839500D01*
X23620041Y66857611D01*
X23664328Y66866420D01*
X23791811Y66919225D01*
X23906542Y66995886D01*
X24004114Y67093458D01*
X24080775Y67208189D01*
X24133580Y67335672D01*
X24160500Y67471005D01*
X25299499Y67471005D01*
X25326418Y67335678D01*
X25326421Y67335668D01*
X25379221Y67208196D01*
X25379228Y67208183D01*
X25455885Y67093459D01*
X25455888Y67093455D01*
X25553454Y66995889D01*
X25553458Y66995886D01*
X25668182Y66919229D01*
X25668195Y66919222D01*
X25795667Y66866422D01*
X25795672Y66866420D01*
X25795676Y66866420D01*
X25795677Y66866419D01*
X25931004Y66839500D01*
X25931007Y66839500D01*
X26068995Y66839500D01*
X26160041Y66857611D01*
X26204328Y66866420D01*
X26331811Y66919225D01*
X26446542Y66995886D01*
X26544114Y67093458D01*
X26620775Y67208189D01*
X26673580Y67335672D01*
X26700500Y67471007D01*
X26700500Y67608993D01*
X26700500Y67608996D01*
X26673581Y67744323D01*
X26673580Y67744324D01*
X26673580Y67744328D01*
X26673578Y67744333D01*
X26620778Y67871805D01*
X26620771Y67871818D01*
X26544114Y67986542D01*
X26544111Y67986546D01*
X26446545Y68084112D01*
X26446541Y68084115D01*
X26331817Y68160772D01*
X26331804Y68160779D01*
X26204332Y68213579D01*
X26204322Y68213582D01*
X26068995Y68240500D01*
X26068993Y68240500D01*
X25931007Y68240500D01*
X25931005Y68240500D01*
X25795677Y68213582D01*
X25795667Y68213579D01*
X25668195Y68160779D01*
X25668182Y68160772D01*
X25553458Y68084115D01*
X25553454Y68084112D01*
X25455888Y67986546D01*
X25455885Y67986542D01*
X25379228Y67871818D01*
X25379221Y67871805D01*
X25326421Y67744333D01*
X25326418Y67744323D01*
X25299500Y67608996D01*
X25299500Y67608993D01*
X25299500Y67471007D01*
X25299500Y67471005D01*
X25299499Y67471005D01*
X24160500Y67471005D01*
X24160500Y67471007D01*
X24160500Y67608993D01*
X24160500Y67608996D01*
X24133581Y67744323D01*
X24133580Y67744324D01*
X24133580Y67744328D01*
X24133578Y67744333D01*
X24080778Y67871805D01*
X24080771Y67871818D01*
X24004114Y67986542D01*
X24004111Y67986546D01*
X23906545Y68084112D01*
X23906541Y68084115D01*
X23791817Y68160772D01*
X23791804Y68160779D01*
X23664332Y68213579D01*
X23664322Y68213582D01*
X23528995Y68240500D01*
X23528993Y68240500D01*
X23391007Y68240500D01*
X23391005Y68240500D01*
X23255677Y68213582D01*
X23255667Y68213579D01*
X23128195Y68160779D01*
X23128182Y68160772D01*
X23013458Y68084115D01*
X23013454Y68084112D01*
X22915888Y67986546D01*
X22915885Y67986542D01*
X22839228Y67871818D01*
X22839221Y67871805D01*
X22786421Y67744333D01*
X22786418Y67744323D01*
X22759500Y67608996D01*
X22759500Y67608993D01*
X22759500Y67471007D01*
X22759500Y67471005D01*
X22759499Y67471005D01*
X15240500Y67471005D01*
X15240500Y67471007D01*
X15240500Y67608993D01*
X15240500Y67608996D01*
X15213581Y67744323D01*
X15213580Y67744324D01*
X15213580Y67744328D01*
X15213578Y67744333D01*
X15160778Y67871805D01*
X15160771Y67871818D01*
X15084114Y67986542D01*
X15084111Y67986546D01*
X14986545Y68084112D01*
X14986541Y68084115D01*
X14871817Y68160772D01*
X14871804Y68160779D01*
X14744332Y68213579D01*
X14744322Y68213582D01*
X14608995Y68240500D01*
X14608993Y68240500D01*
X14471007Y68240500D01*
X14471005Y68240500D01*
X14335677Y68213582D01*
X14335667Y68213579D01*
X14208195Y68160779D01*
X14208182Y68160772D01*
X14093458Y68084115D01*
X14093454Y68084112D01*
X13995888Y67986546D01*
X13995885Y67986542D01*
X13919228Y67871818D01*
X13919221Y67871805D01*
X13866421Y67744333D01*
X13866418Y67744323D01*
X13839500Y67608996D01*
X13839500Y67608993D01*
X13839500Y67471007D01*
X13839500Y67471005D01*
X13839499Y67471005D01*
X12700500Y67471005D01*
X12700500Y67471007D01*
X12700500Y67608993D01*
X12700500Y67608996D01*
X12673581Y67744323D01*
X12673580Y67744324D01*
X12673580Y67744328D01*
X12673578Y67744333D01*
X12620778Y67871805D01*
X12620771Y67871818D01*
X12544114Y67986542D01*
X12544111Y67986546D01*
X12446545Y68084112D01*
X12446541Y68084115D01*
X12331817Y68160772D01*
X12331804Y68160779D01*
X12204332Y68213579D01*
X12204322Y68213582D01*
X12068995Y68240500D01*
X12068993Y68240500D01*
X11931007Y68240500D01*
X11931005Y68240500D01*
X11795677Y68213582D01*
X11795667Y68213579D01*
X11668195Y68160779D01*
X11668182Y68160772D01*
X11553458Y68084115D01*
X11553454Y68084112D01*
X11455888Y67986546D01*
X11455885Y67986542D01*
X11379228Y67871818D01*
X11379221Y67871805D01*
X11326421Y67744333D01*
X11326418Y67744323D01*
X11299500Y67608996D01*
X11299500Y67608993D01*
X11299500Y67471007D01*
X11299500Y67471005D01*
X11299499Y67471005D01*
X10160500Y67471005D01*
X10160500Y67471007D01*
X10160500Y67608993D01*
X10160500Y67608996D01*
X10133581Y67744323D01*
X10133580Y67744324D01*
X10133580Y67744328D01*
X10133578Y67744333D01*
X10080778Y67871805D01*
X10080771Y67871818D01*
X10004114Y67986542D01*
X10004111Y67986546D01*
X9906545Y68084112D01*
X9906541Y68084115D01*
X9791817Y68160772D01*
X9791804Y68160779D01*
X9664332Y68213579D01*
X9664322Y68213582D01*
X9528995Y68240500D01*
X9528993Y68240500D01*
X9391007Y68240500D01*
X9391005Y68240500D01*
X9255677Y68213582D01*
X9255667Y68213579D01*
X9128195Y68160779D01*
X9128182Y68160772D01*
X9013458Y68084115D01*
X9013454Y68084112D01*
X8915888Y67986546D01*
X8915885Y67986542D01*
X8839228Y67871818D01*
X8839221Y67871805D01*
X8786421Y67744333D01*
X8786418Y67744323D01*
X8759500Y67608996D01*
X8759500Y67608993D01*
X8759500Y67471007D01*
X8759500Y67471005D01*
X8759499Y67471005D01*
X5149922Y67471005D01*
X5130081Y67570753D01*
X5037359Y67843902D01*
X4909778Y68102611D01*
X4835630Y68213582D01*
X4749521Y68342453D01*
X4559327Y68559328D01*
X4342457Y68749518D01*
X4342180Y68749703D01*
X4307465Y68772899D01*
X4262661Y68826509D01*
X4253954Y68895834D01*
X4284108Y68958862D01*
X4343551Y68995582D01*
X4376357Y69000000D01*
X45623643Y69000000D01*
X45690682Y68980315D01*
G37*
%TD.AperFunction*%
%TD*%
%TA.AperFunction,Conductor*%
%TO.N,VEE*%
G36*
X15198362Y37596573D02*
G01*
X15201630Y37590223D01*
X15297737Y37013578D01*
X15295717Y37004855D01*
X15288119Y37000114D01*
X15286235Y36999955D01*
X15000039Y36999001D01*
X14999961Y36999001D01*
X14713764Y36999955D01*
X14705502Y37003409D01*
X14702103Y37011694D01*
X14702260Y37013566D01*
X14798370Y37590225D01*
X14803111Y37597821D01*
X14809911Y37600000D01*
X15190089Y37600000D01*
X15198362Y37596573D01*
G37*
%TD.AperFunction*%
%TD*%
%TA.AperFunction,Conductor*%
%TO.N,VEE*%
G36*
X15286235Y50000046D02*
G01*
X15294497Y49996592D01*
X15297896Y49988307D01*
X15297737Y49986423D01*
X15201630Y49409777D01*
X15196889Y49402179D01*
X15190089Y49400000D01*
X14809911Y49400000D01*
X14801638Y49403427D01*
X14798370Y49409777D01*
X14702262Y49986426D01*
X14704282Y49995146D01*
X14711880Y49999887D01*
X14713762Y50000046D01*
X15000000Y50001000D01*
X15286235Y50000046D01*
G37*
%TD.AperFunction*%
%TD*%
M02*
