%TF.GenerationSoftware,KiCad,Pcbnew,8.0.2*%
%TF.CreationDate,2024-10-27T20:41:51-03:00*%
%TF.ProjectId,LumiCom_Transmitter,4c756d69-436f-46d5-9f54-72616e736d69,rev?*%
%TF.SameCoordinates,Original*%
%TF.FileFunction,Soldermask,Top*%
%TF.FilePolarity,Negative*%
%FSLAX46Y46*%
G04 Gerber Fmt 4.6, Leading zero omitted, Abs format (unit mm)*
G04 Created by KiCad (PCBNEW 8.0.2) date 2024-10-27 20:41:51*
%MOMM*%
%LPD*%
G01*
G04 APERTURE LIST*
G04 Aperture macros list*
%AMRoundRect*
0 Rectangle with rounded corners*
0 $1 Rounding radius*
0 $2 $3 $4 $5 $6 $7 $8 $9 X,Y pos of 4 corners*
0 Add a 4 corners polygon primitive as box body*
4,1,4,$2,$3,$4,$5,$6,$7,$8,$9,$2,$3,0*
0 Add four circle primitives for the rounded corners*
1,1,$1+$1,$2,$3*
1,1,$1+$1,$4,$5*
1,1,$1+$1,$6,$7*
1,1,$1+$1,$8,$9*
0 Add four rect primitives between the rounded corners*
20,1,$1+$1,$2,$3,$4,$5,0*
20,1,$1+$1,$4,$5,$6,$7,0*
20,1,$1+$1,$6,$7,$8,$9,0*
20,1,$1+$1,$8,$9,$2,$3,0*%
G04 Aperture macros list end*
%ADD10RoundRect,0.200000X-0.275000X0.200000X-0.275000X-0.200000X0.275000X-0.200000X0.275000X0.200000X0*%
%ADD11RoundRect,0.225000X-0.225000X-0.250000X0.225000X-0.250000X0.225000X0.250000X-0.225000X0.250000X0*%
%ADD12RoundRect,0.200000X0.275000X-0.200000X0.275000X0.200000X-0.275000X0.200000X-0.275000X-0.200000X0*%
%ADD13RoundRect,0.200000X0.200000X0.275000X-0.200000X0.275000X-0.200000X-0.275000X0.200000X-0.275000X0*%
%ADD14C,3.800000*%
%ADD15RoundRect,0.200000X-0.200000X-0.275000X0.200000X-0.275000X0.200000X0.275000X-0.200000X0.275000X0*%
%ADD16RoundRect,0.225000X-0.250000X0.225000X-0.250000X-0.225000X0.250000X-0.225000X0.250000X0.225000X0*%
%ADD17R,1.700000X1.700000*%
%ADD18O,1.700000X1.700000*%
%ADD19R,0.330200X0.965200*%
%ADD20R,0.965200X0.330200*%
%ADD21R,2.260600X2.260600*%
%ADD22C,1.100000*%
%ADD23R,2.200000X2.200000*%
%ADD24C,2.200000*%
%ADD25RoundRect,0.225000X0.225000X0.250000X-0.225000X0.250000X-0.225000X-0.250000X0.225000X-0.250000X0*%
%ADD26RoundRect,0.225000X0.250000X-0.225000X0.250000X0.225000X-0.250000X0.225000X-0.250000X-0.225000X0*%
%ADD27RoundRect,0.218750X0.218750X0.256250X-0.218750X0.256250X-0.218750X-0.256250X0.218750X-0.256250X0*%
%ADD28RoundRect,0.150000X0.587500X0.150000X-0.587500X0.150000X-0.587500X-0.150000X0.587500X-0.150000X0*%
%ADD29R,4.100000X1.850000*%
%ADD30RoundRect,0.218750X-0.218750X-0.256250X0.218750X-0.256250X0.218750X0.256250X-0.218750X0.256250X0*%
%ADD31C,2.529000*%
%ADD32C,2.679000*%
%ADD33RoundRect,0.250000X-0.400000X-1.075000X0.400000X-1.075000X0.400000X1.075000X-0.400000X1.075000X0*%
%ADD34RoundRect,0.218750X0.256250X-0.218750X0.256250X0.218750X-0.256250X0.218750X-0.256250X-0.218750X0*%
G04 APERTURE END LIST*
D10*
%TO.C,R29*%
X13000000Y10825000D03*
X13000000Y9175000D03*
%TD*%
D11*
%TO.C,C10*%
X33450000Y40000000D03*
X35000000Y40000000D03*
%TD*%
D10*
%TO.C,R12*%
X32000000Y50825000D03*
X32000000Y49175000D03*
%TD*%
D11*
%TO.C,C9*%
X33425000Y46000000D03*
X34975000Y46000000D03*
%TD*%
D10*
%TO.C,R32*%
X20000000Y26075000D03*
X20000000Y24425000D03*
%TD*%
D12*
%TO.C,R27*%
X27000000Y18175000D03*
X27000000Y19825000D03*
%TD*%
D13*
%TO.C,R13*%
X44825000Y49000000D03*
X43175000Y49000000D03*
%TD*%
D14*
%TO.C,H2*%
X47000000Y3000000D03*
%TD*%
%TO.C,H1*%
X3000000Y67000000D03*
%TD*%
D12*
%TO.C,R8*%
X26900000Y38050000D03*
X26900000Y39700000D03*
%TD*%
D15*
%TO.C,R23*%
X32175000Y24000000D03*
X33825000Y24000000D03*
%TD*%
D12*
%TO.C,R28*%
X21000000Y7175000D03*
X21000000Y8825000D03*
%TD*%
D16*
%TO.C,C16*%
X20000000Y21775000D03*
X20000000Y20225000D03*
%TD*%
D13*
%TO.C,R20*%
X37825000Y12000000D03*
X36175000Y12000000D03*
%TD*%
D10*
%TO.C,R10*%
X24000000Y59825000D03*
X24000000Y58175000D03*
%TD*%
D17*
%TO.C,J8*%
X5000000Y28540000D03*
D18*
X5000000Y26000000D03*
X5000000Y23460000D03*
%TD*%
D10*
%TO.C,R31*%
X18000000Y10825000D03*
X18000000Y9175000D03*
%TD*%
D13*
%TO.C,R19*%
X44825000Y52000000D03*
X43175000Y52000000D03*
%TD*%
D12*
%TO.C,R18*%
X40000000Y31275000D03*
X40000000Y32925000D03*
%TD*%
D19*
%TO.C,U1*%
X27574999Y46794850D03*
X26925001Y46794850D03*
X26274999Y46794850D03*
X25625001Y46794850D03*
D20*
X24707700Y45877549D03*
X24707700Y45227551D03*
X24707700Y44577549D03*
X24707700Y43927551D03*
D19*
X25625001Y43010250D03*
X26274999Y43010250D03*
X26925001Y43010250D03*
X27574999Y43010250D03*
D20*
X28492300Y43927551D03*
X28492300Y44577549D03*
X28492300Y45227551D03*
X28492300Y45877549D03*
D21*
X26600000Y44902550D03*
%TD*%
D13*
%TO.C,R9*%
X30425000Y52700000D03*
X28775000Y52700000D03*
%TD*%
D10*
%TO.C,R1*%
X6000000Y36125000D03*
X6000000Y34475000D03*
%TD*%
D13*
%TO.C,R5*%
X22825000Y33000000D03*
X21175000Y33000000D03*
%TD*%
D22*
%TO.C,J2*%
X26000000Y67540000D03*
X23460000Y67540000D03*
D23*
X26000000Y65000000D03*
D24*
X23460000Y65000000D03*
%TD*%
D22*
%TO.C,J4*%
X48540000Y33460000D03*
X48540000Y36000000D03*
D23*
X46000000Y33460000D03*
D24*
X46000000Y36000000D03*
%TD*%
D25*
%TO.C,C12*%
X35775000Y16000000D03*
X34225000Y16000000D03*
%TD*%
D17*
%TO.C,TP3*%
X21000000Y56000000D03*
%TD*%
D14*
%TO.C,H4*%
X3000000Y3000000D03*
%TD*%
D15*
%TO.C,R21*%
X34175000Y20000000D03*
X35825000Y20000000D03*
%TD*%
D17*
%TO.C,TP1*%
X6000000Y52000000D03*
%TD*%
%TO.C,TP4*%
X17000000Y56000000D03*
%TD*%
D11*
%TO.C,C11*%
X30225000Y5000000D03*
X31775000Y5000000D03*
%TD*%
D17*
%TO.C,TP8*%
X48000000Y53000000D03*
%TD*%
D26*
%TO.C,C14*%
X24000000Y7225000D03*
X24000000Y8775000D03*
%TD*%
D13*
%TO.C,R6*%
X27825000Y56000000D03*
X26175000Y56000000D03*
%TD*%
D27*
%TO.C,L5*%
X37787500Y24000000D03*
X36212500Y24000000D03*
%TD*%
D15*
%TO.C,R33*%
X16175000Y15000000D03*
X17825000Y15000000D03*
%TD*%
D14*
%TO.C,H3*%
X47000000Y67000000D03*
%TD*%
D17*
%TO.C,TP6*%
X33000000Y28000000D03*
%TD*%
D28*
%TO.C,Q1*%
X21937500Y14050000D03*
X21937500Y15950000D03*
X20062500Y15000000D03*
%TD*%
D26*
%TO.C,C3*%
X23000000Y38225000D03*
X23000000Y39775000D03*
%TD*%
D12*
%TO.C,R15*%
X33000000Y31175000D03*
X33000000Y32825000D03*
%TD*%
D13*
%TO.C,R22*%
X37825000Y5000000D03*
X36175000Y5000000D03*
%TD*%
D17*
%TO.C,J9*%
X11000000Y23460000D03*
D18*
X11000000Y26000000D03*
X11000000Y28540000D03*
%TD*%
D15*
%TO.C,R14*%
X29175000Y36000000D03*
X30825000Y36000000D03*
%TD*%
D29*
%TO.C,L4*%
X42000000Y58175000D03*
X42000000Y61825000D03*
%TD*%
D25*
%TO.C,C13*%
X27775000Y14000000D03*
X26225000Y14000000D03*
%TD*%
D22*
%TO.C,J10*%
X8460000Y1460000D03*
X11000000Y1460000D03*
D23*
X8460000Y4000000D03*
D24*
X11000000Y4000000D03*
%TD*%
D25*
%TO.C,C15*%
X15775000Y3000000D03*
X14225000Y3000000D03*
%TD*%
D29*
%TO.C,L3*%
X35000000Y58175000D03*
X35000000Y61825000D03*
%TD*%
D13*
%TO.C,R25*%
X31825000Y8000000D03*
X30175000Y8000000D03*
%TD*%
D30*
%TO.C,L6*%
X36212500Y8000000D03*
X37787500Y8000000D03*
%TD*%
D22*
%TO.C,J1*%
X14540000Y67540000D03*
X12000000Y67540000D03*
X9460000Y67540000D03*
D23*
X14540000Y65000000D03*
D24*
X12000000Y65000000D03*
X9460000Y65000000D03*
%TD*%
D13*
%TO.C,R24*%
X33825000Y12000000D03*
X32175000Y12000000D03*
%TD*%
D31*
%TO.C,J6*%
X45000000Y12000000D03*
D32*
X42460000Y9460000D03*
X47540000Y9460000D03*
X42460000Y14540000D03*
X47540000Y14540000D03*
%TD*%
D10*
%TO.C,R7*%
X17000000Y52825000D03*
X17000000Y51175000D03*
%TD*%
D17*
%TO.C,TP2*%
X16000000Y33000000D03*
%TD*%
D25*
%TO.C,C17*%
X13775000Y15000000D03*
X12225000Y15000000D03*
%TD*%
D10*
%TO.C,R3*%
X15000000Y41825000D03*
X15000000Y40175000D03*
%TD*%
D11*
%TO.C,C1*%
X34225000Y43000000D03*
X35775000Y43000000D03*
%TD*%
D33*
%TO.C,R17*%
X37450000Y40000000D03*
X40550000Y40000000D03*
%TD*%
D17*
%TO.C,TP5*%
X48000000Y49000000D03*
%TD*%
%TO.C,TP7*%
X40000000Y28200000D03*
%TD*%
D22*
%TO.C,J5*%
X48540000Y42030000D03*
X48540000Y44570000D03*
D23*
X46000000Y42030000D03*
D24*
X46000000Y44570000D03*
%TD*%
D15*
%TO.C,R4*%
X17175000Y45000000D03*
X18825000Y45000000D03*
%TD*%
D31*
%TO.C,J7*%
X7000000Y15000000D03*
D32*
X9540000Y17540000D03*
X4460000Y17540000D03*
X9540000Y12460000D03*
X4460000Y12460000D03*
%TD*%
D34*
%TO.C,L7*%
X18000000Y5425000D03*
X18000000Y7000000D03*
%TD*%
D10*
%TO.C,R30*%
X24000000Y21825000D03*
X24000000Y20175000D03*
%TD*%
D17*
%TO.C,TP9*%
X46000000Y25500000D03*
%TD*%
D15*
%TO.C,R11*%
X21175000Y30000000D03*
X22825000Y30000000D03*
%TD*%
D10*
%TO.C,R2*%
X11000000Y53825000D03*
X11000000Y52175000D03*
%TD*%
D12*
%TO.C,R26*%
X24000000Y3175000D03*
X24000000Y4825000D03*
%TD*%
D31*
%TO.C,J3*%
X6000000Y44800000D03*
D32*
X8540000Y47340000D03*
X3460000Y47340000D03*
X8540000Y42260000D03*
X3460000Y42260000D03*
%TD*%
D11*
%TO.C,C5*%
X12225000Y45000000D03*
X13775000Y45000000D03*
%TD*%
D33*
%TO.C,R16*%
X37350000Y46000000D03*
X40450000Y46000000D03*
%TD*%
M02*
