%TF.GenerationSoftware,KiCad,Pcbnew,8.0.2*%
%TF.CreationDate,2025-01-11T01:11:34-03:00*%
%TF.ProjectId,LTC6268-10,4c544336-3236-4382-9d31-302e6b696361,rev?*%
%TF.SameCoordinates,Original*%
%TF.FileFunction,Paste,Top*%
%TF.FilePolarity,Positive*%
%FSLAX46Y46*%
G04 Gerber Fmt 4.6, Leading zero omitted, Abs format (unit mm)*
G04 Created by KiCad (PCBNEW 8.0.2) date 2025-01-11 01:11:34*
%MOMM*%
%LPD*%
G01*
G04 APERTURE LIST*
G04 Aperture macros list*
%AMRoundRect*
0 Rectangle with rounded corners*
0 $1 Rounding radius*
0 $2 $3 $4 $5 $6 $7 $8 $9 X,Y pos of 4 corners*
0 Add a 4 corners polygon primitive as box body*
4,1,4,$2,$3,$4,$5,$6,$7,$8,$9,$2,$3,0*
0 Add four circle primitives for the rounded corners*
1,1,$1+$1,$2,$3*
1,1,$1+$1,$4,$5*
1,1,$1+$1,$6,$7*
1,1,$1+$1,$8,$9*
0 Add four rect primitives between the rounded corners*
20,1,$1+$1,$2,$3,$4,$5,0*
20,1,$1+$1,$4,$5,$6,$7,0*
20,1,$1+$1,$6,$7,$8,$9,0*
20,1,$1+$1,$8,$9,$2,$3,0*%
G04 Aperture macros list end*
%ADD10R,3.600000X1.270000*%
%ADD11R,4.200000X1.350000*%
%ADD12RoundRect,0.237500X-0.250000X-0.237500X0.250000X-0.237500X0.250000X0.237500X-0.250000X0.237500X0*%
%ADD13RoundRect,0.237500X-0.300000X-0.237500X0.300000X-0.237500X0.300000X0.237500X-0.300000X0.237500X0*%
%ADD14RoundRect,0.237500X0.250000X0.237500X-0.250000X0.237500X-0.250000X-0.237500X0.250000X-0.237500X0*%
%ADD15R,0.870699X0.507200*%
%ADD16RoundRect,0.237500X0.287500X0.237500X-0.287500X0.237500X-0.287500X-0.237500X0.287500X-0.237500X0*%
%ADD17RoundRect,0.155000X-0.212500X-0.155000X0.212500X-0.155000X0.212500X0.155000X-0.212500X0.155000X0*%
%ADD18RoundRect,0.155000X0.259862X-0.040659X-0.040659X0.259862X-0.259862X0.040659X0.040659X-0.259862X0*%
%ADD19R,1.270000X3.600000*%
%ADD20R,1.350000X4.200000*%
%ADD21RoundRect,0.155000X0.155000X-0.212500X0.155000X0.212500X-0.155000X0.212500X-0.155000X-0.212500X0*%
%ADD22RoundRect,0.218750X0.256250X-0.218750X0.256250X0.218750X-0.256250X0.218750X-0.256250X-0.218750X0*%
%ADD23RoundRect,0.140000X-0.140000X-0.170000X0.140000X-0.170000X0.140000X0.170000X-0.140000X0.170000X0*%
%ADD24RoundRect,0.237500X0.344715X-0.008839X-0.008839X0.344715X-0.344715X0.008839X0.008839X-0.344715X0*%
%ADD25RoundRect,0.237500X0.237500X-0.250000X0.237500X0.250000X-0.237500X0.250000X-0.237500X-0.250000X0*%
%ADD26RoundRect,0.237500X-0.237500X0.250000X-0.237500X-0.250000X0.237500X-0.250000X0.237500X0.250000X0*%
%ADD27RoundRect,0.135000X-0.135000X-0.185000X0.135000X-0.185000X0.135000X0.185000X-0.135000X0.185000X0*%
%ADD28RoundRect,0.237500X0.300000X0.237500X-0.300000X0.237500X-0.300000X-0.237500X0.300000X-0.237500X0*%
G04 APERTURE END LIST*
D10*
%TO.C,J4*%
X134620001Y-70000000D03*
D11*
X134420001Y-72825000D03*
X134420001Y-67175000D03*
%TD*%
D12*
%TO.C,R7*%
X128007501Y-69000000D03*
X129832501Y-69000000D03*
%TD*%
D13*
%TO.C,C4*%
X117057501Y-74000000D03*
X118782501Y-74000000D03*
%TD*%
D14*
%TO.C,R3*%
X130832501Y-63000000D03*
X129007501Y-63000000D03*
%TD*%
D15*
%TO.C,U1*%
X119231652Y-69950001D03*
X119231652Y-69000000D03*
X119231652Y-68049999D03*
X116608350Y-68049999D03*
X116608350Y-69000000D03*
X116608350Y-69950001D03*
%TD*%
D16*
%TO.C,L1*%
X126795001Y-76000000D03*
X125045001Y-76000000D03*
%TD*%
D13*
%TO.C,C5*%
X117057501Y-72000000D03*
X118782501Y-72000000D03*
%TD*%
D17*
%TO.C,C7*%
X128352501Y-71000000D03*
X129487501Y-71000000D03*
%TD*%
D10*
%TO.C,J1*%
X109220001Y-68000000D03*
D11*
X109420001Y-65175000D03*
X109420001Y-70825000D03*
%TD*%
D18*
%TO.C,C3*%
X117321284Y-83401283D03*
X116518718Y-82598717D03*
%TD*%
D19*
%TO.C,J3*%
X120920001Y-90700000D03*
D20*
X118095001Y-90500000D03*
X123745001Y-90500000D03*
%TD*%
D21*
%TO.C,C1*%
X120920001Y-80567500D03*
X120920001Y-79432500D03*
%TD*%
D22*
%TO.C,D1*%
X123920001Y-80787500D03*
X123920001Y-79212500D03*
%TD*%
D23*
%TO.C,Cf2*%
X117440001Y-63500000D03*
X118400001Y-63500000D03*
%TD*%
D13*
%TO.C,C2*%
X117057501Y-77000000D03*
X118782501Y-77000000D03*
%TD*%
D12*
%TO.C,R6*%
X124007501Y-70000000D03*
X125832501Y-70000000D03*
%TD*%
D24*
%TO.C,R2*%
X114920001Y-81000000D03*
X113629531Y-79709530D03*
%TD*%
D25*
%TO.C,JP1*%
X112920001Y-69912500D03*
X112920001Y-68087500D03*
%TD*%
D26*
%TO.C,R5*%
X123920001Y-83087500D03*
X123920001Y-84912500D03*
%TD*%
D14*
%TO.C,R4*%
X126832501Y-63000000D03*
X125007501Y-63000000D03*
%TD*%
D27*
%TO.C,Rf1*%
X117410001Y-65700000D03*
X118430001Y-65700000D03*
%TD*%
D25*
%TO.C,R1*%
X120920001Y-84912500D03*
X120920001Y-83087500D03*
%TD*%
D28*
%TO.C,C6*%
X126782501Y-65000000D03*
X125057501Y-65000000D03*
%TD*%
D23*
%TO.C,Cf1*%
X117440001Y-64600000D03*
X118400001Y-64600000D03*
%TD*%
M02*
