%TF.GenerationSoftware,KiCad,Pcbnew,8.0.2*%
%TF.CreationDate,2025-01-11T01:11:34-03:00*%
%TF.ProjectId,LTC6268-10,4c544336-3236-4382-9d31-302e6b696361,rev?*%
%TF.SameCoordinates,Original*%
%TF.FileFunction,Copper,L1,Top*%
%TF.FilePolarity,Positive*%
%FSLAX46Y46*%
G04 Gerber Fmt 4.6, Leading zero omitted, Abs format (unit mm)*
G04 Created by KiCad (PCBNEW 8.0.2) date 2025-01-11 01:11:34*
%MOMM*%
%LPD*%
G01*
G04 APERTURE LIST*
G04 Aperture macros list*
%AMRoundRect*
0 Rectangle with rounded corners*
0 $1 Rounding radius*
0 $2 $3 $4 $5 $6 $7 $8 $9 X,Y pos of 4 corners*
0 Add a 4 corners polygon primitive as box body*
4,1,4,$2,$3,$4,$5,$6,$7,$8,$9,$2,$3,0*
0 Add four circle primitives for the rounded corners*
1,1,$1+$1,$2,$3*
1,1,$1+$1,$4,$5*
1,1,$1+$1,$6,$7*
1,1,$1+$1,$8,$9*
0 Add four rect primitives between the rounded corners*
20,1,$1+$1,$2,$3,$4,$5,0*
20,1,$1+$1,$4,$5,$6,$7,0*
20,1,$1+$1,$6,$7,$8,$9,0*
20,1,$1+$1,$8,$9,$2,$3,0*%
G04 Aperture macros list end*
%TA.AperFunction,SMDPad,CuDef*%
%ADD10R,3.600000X1.270000*%
%TD*%
%TA.AperFunction,SMDPad,CuDef*%
%ADD11R,4.200000X1.350000*%
%TD*%
%TA.AperFunction,SMDPad,CuDef*%
%ADD12RoundRect,0.237500X-0.250000X-0.237500X0.250000X-0.237500X0.250000X0.237500X-0.250000X0.237500X0*%
%TD*%
%TA.AperFunction,SMDPad,CuDef*%
%ADD13RoundRect,0.237500X-0.300000X-0.237500X0.300000X-0.237500X0.300000X0.237500X-0.300000X0.237500X0*%
%TD*%
%TA.AperFunction,ComponentPad*%
%ADD14R,2.600000X2.600000*%
%TD*%
%TA.AperFunction,ComponentPad*%
%ADD15C,2.600000*%
%TD*%
%TA.AperFunction,SMDPad,CuDef*%
%ADD16RoundRect,0.237500X0.250000X0.237500X-0.250000X0.237500X-0.250000X-0.237500X0.250000X-0.237500X0*%
%TD*%
%TA.AperFunction,SMDPad,CuDef*%
%ADD17R,0.870699X0.507200*%
%TD*%
%TA.AperFunction,SMDPad,CuDef*%
%ADD18RoundRect,0.237500X0.287500X0.237500X-0.287500X0.237500X-0.287500X-0.237500X0.287500X-0.237500X0*%
%TD*%
%TA.AperFunction,SMDPad,CuDef*%
%ADD19RoundRect,0.155000X-0.212500X-0.155000X0.212500X-0.155000X0.212500X0.155000X-0.212500X0.155000X0*%
%TD*%
%TA.AperFunction,SMDPad,CuDef*%
%ADD20RoundRect,0.155000X0.259862X-0.040659X-0.040659X0.259862X-0.259862X0.040659X0.040659X-0.259862X0*%
%TD*%
%TA.AperFunction,SMDPad,CuDef*%
%ADD21R,1.270000X3.600000*%
%TD*%
%TA.AperFunction,SMDPad,CuDef*%
%ADD22R,1.350000X4.200000*%
%TD*%
%TA.AperFunction,SMDPad,CuDef*%
%ADD23RoundRect,0.155000X0.155000X-0.212500X0.155000X0.212500X-0.155000X0.212500X-0.155000X-0.212500X0*%
%TD*%
%TA.AperFunction,SMDPad,CuDef*%
%ADD24RoundRect,0.218750X0.256250X-0.218750X0.256250X0.218750X-0.256250X0.218750X-0.256250X-0.218750X0*%
%TD*%
%TA.AperFunction,SMDPad,CuDef*%
%ADD25RoundRect,0.140000X-0.140000X-0.170000X0.140000X-0.170000X0.140000X0.170000X-0.140000X0.170000X0*%
%TD*%
%TA.AperFunction,SMDPad,CuDef*%
%ADD26RoundRect,0.237500X0.344715X-0.008839X-0.008839X0.344715X-0.344715X0.008839X0.008839X-0.344715X0*%
%TD*%
%TA.AperFunction,SMDPad,CuDef*%
%ADD27RoundRect,0.237500X0.237500X-0.250000X0.237500X0.250000X-0.237500X0.250000X-0.237500X-0.250000X0*%
%TD*%
%TA.AperFunction,SMDPad,CuDef*%
%ADD28RoundRect,0.237500X-0.237500X0.250000X-0.237500X-0.250000X0.237500X-0.250000X0.237500X0.250000X0*%
%TD*%
%TA.AperFunction,SMDPad,CuDef*%
%ADD29RoundRect,0.135000X-0.135000X-0.185000X0.135000X-0.185000X0.135000X0.185000X-0.135000X0.185000X0*%
%TD*%
%TA.AperFunction,ComponentPad*%
%ADD30R,1.700000X1.700000*%
%TD*%
%TA.AperFunction,ComponentPad*%
%ADD31O,1.700000X1.700000*%
%TD*%
%TA.AperFunction,SMDPad,CuDef*%
%ADD32RoundRect,0.237500X0.300000X0.237500X-0.300000X0.237500X-0.300000X-0.237500X0.300000X-0.237500X0*%
%TD*%
%TA.AperFunction,ViaPad*%
%ADD33C,0.450000*%
%TD*%
%TA.AperFunction,Conductor*%
%ADD34C,0.349300*%
%TD*%
%TA.AperFunction,Conductor*%
%ADD35C,0.600000*%
%TD*%
G04 APERTURE END LIST*
D10*
%TO.P,J4,1,In*%
%TO.N,Net-(J4-In)*%
X134620001Y-70000000D03*
D11*
%TO.P,J4,2,Ext*%
%TO.N,GND*%
X134420001Y-72825000D03*
X134420001Y-67175000D03*
%TD*%
D12*
%TO.P,R7,1*%
%TO.N,Net-(C7-Pad1)*%
X128007501Y-69000000D03*
%TO.P,R7,2*%
%TO.N,Net-(J4-In)*%
X129832501Y-69000000D03*
%TD*%
D13*
%TO.P,C4,1*%
%TO.N,VCC*%
X117057501Y-74000000D03*
%TO.P,C4,2*%
%TO.N,GND*%
X118782501Y-74000000D03*
%TD*%
D14*
%TO.P,J2,1,Pin_1*%
%TO.N,GND*%
X130920001Y-85000000D03*
D15*
%TO.P,J2,2,Pin_2*%
%TO.N,Net-(J2-Pin_2)*%
X130920001Y-80000000D03*
%TD*%
D16*
%TO.P,R3,1*%
%TO.N,VCC*%
X130832501Y-63000000D03*
%TO.P,R3,2*%
%TO.N,Net-(U1-+IN)*%
X129007501Y-63000000D03*
%TD*%
D17*
%TO.P,U1,1,OUT*%
%TO.N,Net-(U1-OUT)*%
X119231652Y-69950001D03*
%TO.P,U1,2,V-*%
%TO.N,GND*%
X119231652Y-69000000D03*
%TO.P,U1,3,+IN*%
%TO.N,Net-(U1-+IN)*%
X119231652Y-68049999D03*
%TO.P,U1,4,-IN*%
%TO.N,Net-(J1-In)*%
X116608350Y-68049999D03*
%TO.P,U1,5,\u002ASHDN*%
%TO.N,/Shutdown_L*%
X116608350Y-69000000D03*
%TO.P,U1,6,V+*%
%TO.N,VCC*%
X116608350Y-69950001D03*
%TD*%
D18*
%TO.P,L1,1*%
%TO.N,Net-(J2-Pin_2)*%
X126795001Y-76000000D03*
%TO.P,L1,2*%
%TO.N,VCC*%
X125045001Y-76000000D03*
%TD*%
D13*
%TO.P,C5,1*%
%TO.N,VCC*%
X117057501Y-72000000D03*
%TO.P,C5,2*%
%TO.N,GND*%
X118782501Y-72000000D03*
%TD*%
D19*
%TO.P,C7,1*%
%TO.N,Net-(C7-Pad1)*%
X128352501Y-71000000D03*
%TO.P,C7,2*%
%TO.N,Net-(J4-In)*%
X129487501Y-71000000D03*
%TD*%
D10*
%TO.P,J1,1,In*%
%TO.N,Net-(J1-In)*%
X109220001Y-68000000D03*
D11*
%TO.P,J1,2,Ext*%
%TO.N,GND*%
X109420001Y-65175000D03*
X109420001Y-70825000D03*
%TD*%
D20*
%TO.P,C3,1*%
%TO.N,Net-(J3-In)*%
X117321284Y-83401283D03*
%TO.P,C3,2*%
%TO.N,Net-(C3-Pad2)*%
X116518718Y-82598717D03*
%TD*%
D21*
%TO.P,J3,1,In*%
%TO.N,Net-(J3-In)*%
X120920001Y-90700000D03*
D22*
%TO.P,J3,2,Ext*%
%TO.N,GND*%
X118095001Y-90500000D03*
X123745001Y-90500000D03*
%TD*%
D23*
%TO.P,C1,1*%
%TO.N,Net-(C1-Pad1)*%
X120920001Y-80567500D03*
%TO.P,C1,2*%
%TO.N,GND*%
X120920001Y-79432500D03*
%TD*%
D24*
%TO.P,D1,1,K*%
%TO.N,Net-(D1-K)*%
X123920001Y-80787500D03*
%TO.P,D1,2,A*%
%TO.N,VCC*%
X123920001Y-79212500D03*
%TD*%
D25*
%TO.P,Cf2,1*%
%TO.N,Net-(J1-In)*%
X117440001Y-63500000D03*
%TO.P,Cf2,2*%
%TO.N,Net-(U1-OUT)*%
X118400001Y-63500000D03*
%TD*%
D13*
%TO.P,C2,1*%
%TO.N,VCC*%
X117057501Y-77000000D03*
%TO.P,C2,2*%
%TO.N,GND*%
X118782501Y-77000000D03*
%TD*%
D12*
%TO.P,R6,1*%
%TO.N,Net-(U1-OUT)*%
X124007501Y-70000000D03*
%TO.P,R6,2*%
%TO.N,Net-(C7-Pad1)*%
X125832501Y-70000000D03*
%TD*%
D26*
%TO.P,R2,1*%
%TO.N,Net-(C3-Pad2)*%
X114920001Y-81000000D03*
%TO.P,R2,2*%
%TO.N,Net-(JP1-A)*%
X113629531Y-79709530D03*
%TD*%
D27*
%TO.P,JP1,1,A*%
%TO.N,Net-(JP1-A)*%
X112920001Y-69912500D03*
%TO.P,JP1,2,B*%
%TO.N,Net-(J1-In)*%
X112920001Y-68087500D03*
%TD*%
D28*
%TO.P,R5,1*%
%TO.N,Net-(D1-K)*%
X123920001Y-83087500D03*
%TO.P,R5,2*%
%TO.N,GND*%
X123920001Y-84912500D03*
%TD*%
D16*
%TO.P,R4,1*%
%TO.N,Net-(U1-+IN)*%
X126832501Y-63000000D03*
%TO.P,R4,2*%
%TO.N,GND*%
X125007501Y-63000000D03*
%TD*%
D29*
%TO.P,Rf1,1*%
%TO.N,Net-(J1-In)*%
X117410001Y-65700000D03*
%TO.P,Rf1,2*%
%TO.N,Net-(U1-OUT)*%
X118430001Y-65700000D03*
%TD*%
D30*
%TO.P,SD_L1,1,A*%
%TO.N,VCC*%
X109920001Y-82540000D03*
D31*
%TO.P,SD_L1,2,C*%
%TO.N,/Shutdown_L*%
X109920001Y-80000000D03*
%TO.P,SD_L1,3,B*%
%TO.N,GND*%
X109920001Y-77460000D03*
%TD*%
D27*
%TO.P,R1,1*%
%TO.N,Net-(J3-In)*%
X120920001Y-84912500D03*
%TO.P,R1,2*%
%TO.N,Net-(C1-Pad1)*%
X120920001Y-83087500D03*
%TD*%
D32*
%TO.P,C6,1*%
%TO.N,Net-(U1-+IN)*%
X126782501Y-65000000D03*
%TO.P,C6,2*%
%TO.N,GND*%
X125057501Y-65000000D03*
%TD*%
D25*
%TO.P,Cf1,1*%
%TO.N,Net-(J1-In)*%
X117440001Y-64600000D03*
%TO.P,Cf1,2*%
%TO.N,Net-(U1-OUT)*%
X118400001Y-64600000D03*
%TD*%
D33*
%TO.N,GND*%
X131920001Y-66500000D03*
X131920001Y-67500000D03*
X131920001Y-73500000D03*
X123920001Y-65000000D03*
X117920001Y-88000000D03*
X121420001Y-74000000D03*
X121420001Y-72000000D03*
X111920001Y-64500000D03*
X120920001Y-69000000D03*
X120920001Y-77000000D03*
X131920001Y-72500000D03*
X123920001Y-88000000D03*
X122920001Y-88000000D03*
X123920001Y-63000000D03*
X118920001Y-88000000D03*
X111420001Y-70000000D03*
X111920001Y-65500000D03*
X111420001Y-71500000D03*
%TO.N,VCC*%
X123919997Y-78000004D03*
X131920001Y-63000000D03*
X115720001Y-72000000D03*
%TO.N,Net-(U1-+IN)*%
X127919998Y-65000003D03*
X120920001Y-68000000D03*
%TO.N,/Shutdown_L*%
X114920001Y-69000000D03*
%TD*%
D34*
%TO.N,GND*%
X122920001Y-89000000D02*
X122920001Y-88000000D01*
X135135001Y-66500000D02*
X135810001Y-67175000D01*
X109745001Y-65500000D02*
X111920001Y-65500000D01*
X109420001Y-70825000D02*
X110245001Y-70000000D01*
X123745001Y-89825000D02*
X122920001Y-89000000D01*
X131920001Y-66500000D02*
X135135001Y-66500000D01*
X135485001Y-67500000D02*
X131920001Y-67500000D01*
X135135001Y-73500000D02*
X131920001Y-73500000D01*
X118782502Y-72000000D02*
X121420001Y-72000000D01*
X110095001Y-71500000D02*
X109420001Y-70825000D01*
X110245001Y-70000000D02*
X111420001Y-70000000D01*
X109420001Y-65175000D02*
X110095001Y-64500000D01*
X118782501Y-74000000D02*
X121420001Y-74000000D01*
X123920001Y-90325000D02*
X123920001Y-88000000D01*
X135485001Y-72500000D02*
X135810001Y-72825000D01*
X135810001Y-72825000D02*
X135135001Y-73500000D01*
X125007501Y-63000000D02*
X123920001Y-63000000D01*
X117920001Y-90325000D02*
X117920001Y-88000000D01*
X118920001Y-89000000D02*
X118920001Y-88000000D01*
X118782501Y-77000000D02*
X120920001Y-77000000D01*
X120920001Y-79432500D02*
X120920001Y-77000000D01*
X123920001Y-84912500D02*
X123920001Y-88000000D01*
X125057501Y-65000000D02*
X123920001Y-65000000D01*
X123745001Y-90500000D02*
X123745001Y-89825000D01*
X131920001Y-72500000D02*
X135485001Y-72500000D01*
X117920001Y-90000000D02*
X118920001Y-89000000D01*
X123745001Y-90500000D02*
X123920001Y-90325000D01*
X135810001Y-67175000D02*
X135485001Y-67500000D01*
X109420001Y-65175000D02*
X109745001Y-65500000D01*
X117920001Y-90325000D02*
X117920001Y-90000000D01*
X111420001Y-71500000D02*
X110095001Y-71500000D01*
X119231652Y-69000000D02*
X120920001Y-69000000D01*
X110095001Y-64500000D02*
X111920001Y-64500000D01*
X118095001Y-90500000D02*
X117920001Y-90325000D01*
%TO.N,Net-(C1-Pad1)*%
X120920001Y-83087500D02*
X120920001Y-80567500D01*
%TO.N,Net-(J3-In)*%
X120920001Y-90700000D02*
X120920001Y-84912500D01*
X118832501Y-84912500D02*
X117321284Y-83401283D01*
X120920001Y-84912500D02*
X118832501Y-84912500D01*
%TO.N,VCC*%
X116920001Y-77000000D02*
X115720001Y-75800000D01*
X115720001Y-74000000D02*
X115720001Y-73800000D01*
X115720001Y-70300000D02*
X116070000Y-69950001D01*
X116070000Y-69950001D02*
X116608350Y-69950001D01*
X117057501Y-74000000D02*
X115720001Y-74000000D01*
X123920001Y-79212500D02*
X123920001Y-78000008D01*
X123919997Y-76062505D02*
X123919997Y-78000004D01*
X130832501Y-63000000D02*
X131920001Y-63000000D01*
X115720001Y-73800000D02*
X115720001Y-72000000D01*
X123920001Y-78000008D02*
X123919997Y-78000004D01*
X115720001Y-72000000D02*
X117057500Y-72000000D01*
X115720001Y-72000000D02*
X115720001Y-70300000D01*
X123982502Y-76000000D02*
X123919997Y-76062505D01*
X115720001Y-75800000D02*
X115720001Y-73800000D01*
X117057501Y-77000000D02*
X116920001Y-77000000D01*
X125045002Y-76000000D02*
X123982502Y-76000000D01*
%TO.N,Net-(C3-Pad2)*%
X116518718Y-82598717D02*
X114920001Y-81000000D01*
%TO.N,Net-(U1-+IN)*%
X119231652Y-68049999D02*
X120920001Y-68000000D01*
X126832501Y-63000000D02*
X129007501Y-63000000D01*
X127920001Y-65000000D02*
X127919998Y-65000003D01*
X126782501Y-65000000D02*
X126782504Y-65000003D01*
X127920001Y-63000000D02*
X127920001Y-65000000D01*
X126782504Y-65000003D02*
X127919998Y-65000003D01*
%TO.N,Net-(J4-In)*%
X129832501Y-69000000D02*
X130832501Y-70000000D01*
X129920001Y-71000000D02*
X129487501Y-71000000D01*
X130832501Y-70000000D02*
X130832501Y-70087500D01*
X130832501Y-70000000D02*
X134510001Y-70000000D01*
X130832501Y-70087500D02*
X129920001Y-71000000D01*
%TO.N,Net-(U1-OUT)*%
X121920001Y-64600000D02*
X121920001Y-69950001D01*
X123957502Y-69950001D02*
X124007501Y-70000000D01*
X121920001Y-69950001D02*
X123957502Y-69950001D01*
X119231652Y-69950001D02*
X121920001Y-69950001D01*
X120820001Y-63500000D02*
X118400001Y-63500000D01*
X121920001Y-64600000D02*
X118400001Y-64600000D01*
X118430001Y-65700000D02*
X121920001Y-65700000D01*
X121920001Y-64600000D02*
X120820001Y-63500000D01*
%TO.N,Net-(J1-In)*%
X117440001Y-63500000D02*
X115020001Y-63500000D01*
X112920001Y-68087500D02*
X113007501Y-68000000D01*
X117410001Y-65700000D02*
X113920001Y-65700000D01*
X114920001Y-68000000D02*
X116487642Y-68000000D01*
X113007501Y-68000000D02*
X114920001Y-68000000D01*
X112832501Y-68000000D02*
X112920001Y-68087500D01*
X113920001Y-64600000D02*
X113920001Y-67900000D01*
X113920001Y-64600000D02*
X117440001Y-64600000D01*
X115020001Y-63500000D02*
X113920001Y-64600000D01*
X109830001Y-68000000D02*
X112832501Y-68000000D01*
X116487642Y-68000000D02*
G75*
G02*
X116608328Y-68050021I-42J-170700D01*
G01*
%TO.N,Net-(D1-K)*%
X123920001Y-83087500D02*
X123920001Y-80787500D01*
D35*
%TO.N,Net-(J2-Pin_2)*%
X130920001Y-78000000D02*
X128920001Y-76000000D01*
X128920001Y-76000000D02*
X126795000Y-76000000D01*
X130920001Y-80000000D02*
X130920001Y-78000000D01*
D34*
%TO.N,/Shutdown_L*%
X114920001Y-69000000D02*
X116608350Y-69000000D01*
%TO.N,Net-(JP1-A)*%
X113629531Y-79709530D02*
X112920001Y-79000000D01*
X112920001Y-79000000D02*
X112920001Y-69912500D01*
%TO.N,Net-(C7-Pad1)*%
X127920001Y-71000000D02*
X128352501Y-71000000D01*
X127007501Y-70000000D02*
X128007501Y-69000000D01*
X125832501Y-70000000D02*
X126920001Y-70000000D01*
X126920001Y-70000000D02*
X127920001Y-71000000D01*
X126920001Y-70000000D02*
X127007501Y-70000000D01*
%TD*%
M02*
