%TF.GenerationSoftware,KiCad,Pcbnew,8.0.2*%
%TF.CreationDate,2025-01-11T01:11:34-03:00*%
%TF.ProjectId,LTC6268-10,4c544336-3236-4382-9d31-302e6b696361,rev?*%
%TF.SameCoordinates,Original*%
%TF.FileFunction,Copper,L3,Inr*%
%TF.FilePolarity,Positive*%
%FSLAX46Y46*%
G04 Gerber Fmt 4.6, Leading zero omitted, Abs format (unit mm)*
G04 Created by KiCad (PCBNEW 8.0.2) date 2025-01-11 01:11:34*
%MOMM*%
%LPD*%
G01*
G04 APERTURE LIST*
%TA.AperFunction,ComponentPad*%
%ADD10R,2.600000X2.600000*%
%TD*%
%TA.AperFunction,ComponentPad*%
%ADD11C,2.600000*%
%TD*%
%TA.AperFunction,ComponentPad*%
%ADD12R,1.700000X1.700000*%
%TD*%
%TA.AperFunction,ComponentPad*%
%ADD13O,1.700000X1.700000*%
%TD*%
%TA.AperFunction,ViaPad*%
%ADD14C,0.450000*%
%TD*%
G04 APERTURE END LIST*
D10*
%TO.N,GND*%
%TO.C,J2*%
X130920001Y-85000000D03*
D11*
%TO.N,Net-(J2-Pin_2)*%
X130920001Y-80000000D03*
%TD*%
D12*
%TO.N,VCC*%
%TO.C,SD_L1*%
X109920001Y-82540000D03*
D13*
%TO.N,/Shutdown_L*%
X109920001Y-80000000D03*
%TO.N,GND*%
X109920001Y-77460000D03*
%TD*%
D14*
%TO.N,GND*%
X131920001Y-66500000D03*
X131920001Y-67500000D03*
X131920001Y-73500000D03*
X123920001Y-65000000D03*
X117920001Y-88000000D03*
X121420001Y-74000000D03*
X121420001Y-72000000D03*
X111920001Y-64500000D03*
X120920001Y-69000000D03*
X120920001Y-77000000D03*
X131920001Y-72500000D03*
X123920001Y-88000000D03*
X122920001Y-88000000D03*
X123920001Y-63000000D03*
X118920001Y-88000000D03*
X111420001Y-70000000D03*
X111920001Y-65500000D03*
X111420001Y-71500000D03*
%TO.N,VCC*%
X123919997Y-78000004D03*
X131920001Y-63000000D03*
X115720001Y-72000000D03*
%TO.N,Net-(U1-+IN)*%
X127919998Y-65000003D03*
X120920001Y-68000000D03*
%TO.N,/Shutdown_L*%
X114920001Y-69000000D03*
%TD*%
%TA.AperFunction,Conductor*%
%TO.N,VCC*%
G36*
X132119741Y-53514352D02*
G01*
X132134093Y-53549000D01*
X132119741Y-53583648D01*
X132097775Y-53596330D01*
X131836814Y-53666254D01*
X131836808Y-53666256D01*
X131836804Y-53666257D01*
X131836802Y-53666258D01*
X131739832Y-53703480D01*
X131494263Y-53797745D01*
X131167350Y-53964317D01*
X130859630Y-54164151D01*
X130859628Y-54164153D01*
X130574499Y-54395047D01*
X130574484Y-54395060D01*
X130315061Y-54654483D01*
X130315048Y-54654498D01*
X130084154Y-54939627D01*
X130084152Y-54939629D01*
X129884318Y-55247349D01*
X129717746Y-55574262D01*
X129676746Y-55681072D01*
X129614460Y-55843336D01*
X129586257Y-55916807D01*
X129586255Y-55916813D01*
X129491296Y-56271204D01*
X129433898Y-56633604D01*
X129414697Y-57000000D01*
X129433898Y-57366395D01*
X129491296Y-57728795D01*
X129586255Y-58083186D01*
X129586257Y-58083192D01*
X129586259Y-58083199D01*
X129670613Y-58302952D01*
X129717746Y-58425737D01*
X129739876Y-58469169D01*
X129883222Y-58750500D01*
X129884318Y-58752650D01*
X130084152Y-59060370D01*
X130084154Y-59060372D01*
X130315048Y-59345501D01*
X130315061Y-59345516D01*
X130574484Y-59604939D01*
X130574491Y-59604945D01*
X130574495Y-59604949D01*
X130574499Y-59604952D01*
X130859628Y-59835846D01*
X130859630Y-59835848D01*
X130859635Y-59835851D01*
X131167349Y-60035682D01*
X131494265Y-60202255D01*
X131836802Y-60333742D01*
X132191207Y-60428705D01*
X132553597Y-60486102D01*
X132920001Y-60505304D01*
X133286405Y-60486102D01*
X133648795Y-60428705D01*
X134003200Y-60333742D01*
X134345737Y-60202255D01*
X134672653Y-60035682D01*
X134980367Y-59835851D01*
X135265507Y-59604949D01*
X135524950Y-59345506D01*
X135755852Y-59060366D01*
X135955683Y-58752652D01*
X136122256Y-58425736D01*
X136253743Y-58083199D01*
X136323671Y-57822224D01*
X136346501Y-57792472D01*
X136383683Y-57787577D01*
X136413436Y-57810407D01*
X136420001Y-57834907D01*
X136420001Y-92451000D01*
X136405649Y-92485648D01*
X136371001Y-92500000D01*
X111754909Y-92500000D01*
X111720261Y-92485648D01*
X111705909Y-92451000D01*
X111720261Y-92416352D01*
X111742227Y-92403670D01*
X111804632Y-92386948D01*
X112003200Y-92333742D01*
X112345737Y-92202255D01*
X112672653Y-92035682D01*
X112980367Y-91835851D01*
X113265507Y-91604949D01*
X113524950Y-91345506D01*
X113755852Y-91060366D01*
X113955683Y-90752652D01*
X114122256Y-90425736D01*
X114253743Y-90083199D01*
X114348706Y-89728794D01*
X114406103Y-89366404D01*
X114425305Y-89000000D01*
X114406103Y-88633596D01*
X114348706Y-88271206D01*
X114276036Y-88000000D01*
X117489197Y-88000000D01*
X117510282Y-88133126D01*
X117510282Y-88133127D01*
X117510283Y-88133128D01*
X117571468Y-88253213D01*
X117571473Y-88253220D01*
X117666780Y-88348527D01*
X117666787Y-88348532D01*
X117746843Y-88389322D01*
X117786875Y-88409719D01*
X117920001Y-88430804D01*
X118053127Y-88409719D01*
X118136421Y-88367278D01*
X118173214Y-88348532D01*
X118173216Y-88348530D01*
X118173221Y-88348528D01*
X118268529Y-88253220D01*
X118329720Y-88133126D01*
X118350805Y-88000000D01*
X118489197Y-88000000D01*
X118510282Y-88133126D01*
X118510282Y-88133127D01*
X118510283Y-88133128D01*
X118571468Y-88253213D01*
X118571473Y-88253220D01*
X118666780Y-88348527D01*
X118666787Y-88348532D01*
X118746843Y-88389322D01*
X118786875Y-88409719D01*
X118920001Y-88430804D01*
X119053127Y-88409719D01*
X119136421Y-88367278D01*
X119173214Y-88348532D01*
X119173216Y-88348530D01*
X119173221Y-88348528D01*
X119268529Y-88253220D01*
X119329720Y-88133126D01*
X119350805Y-88000000D01*
X122489197Y-88000000D01*
X122510282Y-88133126D01*
X122510282Y-88133127D01*
X122510283Y-88133128D01*
X122571468Y-88253213D01*
X122571473Y-88253220D01*
X122666780Y-88348527D01*
X122666787Y-88348532D01*
X122746843Y-88389322D01*
X122786875Y-88409719D01*
X122920001Y-88430804D01*
X123053127Y-88409719D01*
X123136421Y-88367278D01*
X123173214Y-88348532D01*
X123173216Y-88348530D01*
X123173221Y-88348528D01*
X123268529Y-88253220D01*
X123329720Y-88133126D01*
X123350805Y-88000000D01*
X123489197Y-88000000D01*
X123510282Y-88133126D01*
X123510282Y-88133127D01*
X123510283Y-88133128D01*
X123571468Y-88253213D01*
X123571473Y-88253220D01*
X123666780Y-88348527D01*
X123666787Y-88348532D01*
X123746843Y-88389322D01*
X123786875Y-88409719D01*
X123920001Y-88430804D01*
X124053127Y-88409719D01*
X124136421Y-88367278D01*
X124173214Y-88348532D01*
X124173216Y-88348530D01*
X124173221Y-88348528D01*
X124268529Y-88253220D01*
X124329720Y-88133126D01*
X124350805Y-88000000D01*
X124329720Y-87866874D01*
X124292208Y-87793252D01*
X124268533Y-87746786D01*
X124268528Y-87746779D01*
X124173221Y-87651472D01*
X124173214Y-87651467D01*
X124053129Y-87590282D01*
X124053128Y-87590281D01*
X124053127Y-87590281D01*
X123920001Y-87569196D01*
X123786875Y-87590281D01*
X123786873Y-87590281D01*
X123786872Y-87590282D01*
X123666787Y-87651467D01*
X123666780Y-87651472D01*
X123571473Y-87746779D01*
X123571468Y-87746786D01*
X123510283Y-87866871D01*
X123510282Y-87866872D01*
X123510282Y-87866874D01*
X123489197Y-88000000D01*
X123350805Y-88000000D01*
X123329720Y-87866874D01*
X123292208Y-87793252D01*
X123268533Y-87746786D01*
X123268528Y-87746779D01*
X123173221Y-87651472D01*
X123173214Y-87651467D01*
X123053129Y-87590282D01*
X123053128Y-87590281D01*
X123053127Y-87590281D01*
X122920001Y-87569196D01*
X122786875Y-87590281D01*
X122786873Y-87590281D01*
X122786872Y-87590282D01*
X122666787Y-87651467D01*
X122666780Y-87651472D01*
X122571473Y-87746779D01*
X122571468Y-87746786D01*
X122510283Y-87866871D01*
X122510282Y-87866872D01*
X122510282Y-87866874D01*
X122489197Y-88000000D01*
X119350805Y-88000000D01*
X119329720Y-87866874D01*
X119292208Y-87793252D01*
X119268533Y-87746786D01*
X119268528Y-87746779D01*
X119173221Y-87651472D01*
X119173214Y-87651467D01*
X119053129Y-87590282D01*
X119053128Y-87590281D01*
X119053127Y-87590281D01*
X118920001Y-87569196D01*
X118786875Y-87590281D01*
X118786873Y-87590281D01*
X118786872Y-87590282D01*
X118666787Y-87651467D01*
X118666780Y-87651472D01*
X118571473Y-87746779D01*
X118571468Y-87746786D01*
X118510283Y-87866871D01*
X118510282Y-87866872D01*
X118510282Y-87866874D01*
X118489197Y-88000000D01*
X118350805Y-88000000D01*
X118329720Y-87866874D01*
X118292208Y-87793252D01*
X118268533Y-87746786D01*
X118268528Y-87746779D01*
X118173221Y-87651472D01*
X118173214Y-87651467D01*
X118053129Y-87590282D01*
X118053128Y-87590281D01*
X118053127Y-87590281D01*
X117920001Y-87569196D01*
X117786875Y-87590281D01*
X117786873Y-87590281D01*
X117786872Y-87590282D01*
X117666787Y-87651467D01*
X117666780Y-87651472D01*
X117571473Y-87746779D01*
X117571468Y-87746786D01*
X117510283Y-87866871D01*
X117510282Y-87866872D01*
X117510282Y-87866874D01*
X117489197Y-88000000D01*
X114276036Y-88000000D01*
X114253743Y-87916801D01*
X114122256Y-87574264D01*
X113955683Y-87247348D01*
X113755852Y-86939634D01*
X113755849Y-86939629D01*
X113755847Y-86939627D01*
X113524953Y-86654498D01*
X113524940Y-86654483D01*
X113265517Y-86395060D01*
X113265502Y-86395047D01*
X112980373Y-86164153D01*
X112980371Y-86164151D01*
X112672651Y-85964317D01*
X112345738Y-85797745D01*
X112222953Y-85750612D01*
X112003200Y-85666258D01*
X112003193Y-85666256D01*
X112003187Y-85666254D01*
X111648796Y-85571295D01*
X111550484Y-85555724D01*
X111286405Y-85513898D01*
X111286400Y-85513897D01*
X111286396Y-85513897D01*
X110920001Y-85494696D01*
X110553605Y-85513897D01*
X110553599Y-85513897D01*
X110553597Y-85513898D01*
X110387827Y-85540153D01*
X110191205Y-85571295D01*
X109836814Y-85666254D01*
X109836808Y-85666256D01*
X109836804Y-85666257D01*
X109836802Y-85666258D01*
X109739832Y-85703480D01*
X109494263Y-85797745D01*
X109167350Y-85964317D01*
X108859630Y-86164151D01*
X108859628Y-86164153D01*
X108574499Y-86395047D01*
X108574484Y-86395060D01*
X108315061Y-86654483D01*
X108315048Y-86654498D01*
X108084154Y-86939627D01*
X108084152Y-86939629D01*
X107884318Y-87247349D01*
X107717746Y-87574262D01*
X107651521Y-87746786D01*
X107614460Y-87843336D01*
X107586257Y-87916807D01*
X107586255Y-87916813D01*
X107516331Y-88177774D01*
X107493501Y-88207527D01*
X107456319Y-88212422D01*
X107426566Y-88189592D01*
X107420001Y-88165092D01*
X107420001Y-81642165D01*
X108570001Y-81642165D01*
X108570001Y-82290000D01*
X109486989Y-82290000D01*
X109454076Y-82347007D01*
X109420001Y-82474174D01*
X109420001Y-82605826D01*
X109454076Y-82732993D01*
X109486989Y-82790000D01*
X108570001Y-82790000D01*
X108570001Y-83437834D01*
X108576402Y-83497372D01*
X108576402Y-83497373D01*
X108626649Y-83632091D01*
X108712812Y-83747188D01*
X108827909Y-83833351D01*
X108962627Y-83883598D01*
X109022167Y-83890000D01*
X109670001Y-83890000D01*
X109670001Y-82973012D01*
X109727008Y-83005925D01*
X109854175Y-83040000D01*
X109985827Y-83040000D01*
X110112994Y-83005925D01*
X110170001Y-82973012D01*
X110170001Y-83890000D01*
X110817835Y-83890000D01*
X110877373Y-83883598D01*
X110877374Y-83883598D01*
X111012092Y-83833351D01*
X111127189Y-83747188D01*
X111177298Y-83680252D01*
X129419501Y-83680252D01*
X129419501Y-86319748D01*
X129431134Y-86378231D01*
X129442373Y-86395051D01*
X129475448Y-86444552D01*
X129502013Y-86462301D01*
X129541770Y-86488867D01*
X129600253Y-86500500D01*
X129600256Y-86500500D01*
X132239746Y-86500500D01*
X132239749Y-86500500D01*
X132298232Y-86488867D01*
X132364553Y-86444552D01*
X132408868Y-86378231D01*
X132420501Y-86319748D01*
X132420501Y-83680252D01*
X132408868Y-83621769D01*
X132382302Y-83582012D01*
X132364553Y-83555447D01*
X132324796Y-83528882D01*
X132298232Y-83511133D01*
X132239749Y-83499500D01*
X129600253Y-83499500D01*
X129541770Y-83511133D01*
X129475448Y-83555447D01*
X129431134Y-83621769D01*
X129419501Y-83680252D01*
X111177298Y-83680252D01*
X111213352Y-83632091D01*
X111263599Y-83497373D01*
X111263599Y-83497372D01*
X111270001Y-83437834D01*
X111270001Y-82790000D01*
X110353013Y-82790000D01*
X110385926Y-82732993D01*
X110420001Y-82605826D01*
X110420001Y-82474174D01*
X110385926Y-82347007D01*
X110353013Y-82290000D01*
X111270001Y-82290000D01*
X111270001Y-81642165D01*
X111263599Y-81582627D01*
X111263599Y-81582626D01*
X111213352Y-81447908D01*
X111127189Y-81332811D01*
X111012092Y-81246648D01*
X110877374Y-81196401D01*
X110817835Y-81190000D01*
X110170001Y-81190000D01*
X110170001Y-82106988D01*
X110112994Y-82074075D01*
X109985827Y-82040000D01*
X109854175Y-82040000D01*
X109727008Y-82074075D01*
X109670001Y-82106988D01*
X109670001Y-81190000D01*
X109022167Y-81190000D01*
X108962628Y-81196401D01*
X108962627Y-81196401D01*
X108827909Y-81246648D01*
X108712812Y-81332811D01*
X108626649Y-81447908D01*
X108576402Y-81582626D01*
X108576402Y-81582627D01*
X108570001Y-81642165D01*
X107420001Y-81642165D01*
X107420001Y-80000000D01*
X108864418Y-80000000D01*
X108884701Y-80205934D01*
X108944769Y-80403954D01*
X109042316Y-80586450D01*
X109173591Y-80746410D01*
X109333551Y-80877685D01*
X109516047Y-80975232D01*
X109714067Y-81035300D01*
X109920001Y-81055583D01*
X110125935Y-81035300D01*
X110323955Y-80975232D01*
X110506451Y-80877685D01*
X110666411Y-80746410D01*
X110797686Y-80586450D01*
X110895233Y-80403954D01*
X110955301Y-80205934D01*
X110975584Y-80000000D01*
X129414358Y-80000000D01*
X129434893Y-80247821D01*
X129474431Y-80403954D01*
X129495939Y-80488883D01*
X129595826Y-80716604D01*
X129595833Y-80716616D01*
X129731835Y-80924784D01*
X129833572Y-81035299D01*
X129900257Y-81107738D01*
X130096492Y-81260474D01*
X130096499Y-81260478D01*
X130096501Y-81260479D01*
X130315183Y-81378824D01*
X130315185Y-81378824D01*
X130315191Y-81378828D01*
X130550387Y-81459571D01*
X130795666Y-81500500D01*
X130795669Y-81500500D01*
X131044333Y-81500500D01*
X131044336Y-81500500D01*
X131289615Y-81459571D01*
X131524811Y-81378828D01*
X131743510Y-81260474D01*
X131939745Y-81107738D01*
X132108165Y-80924785D01*
X132244174Y-80716607D01*
X132344064Y-80488881D01*
X132405109Y-80247821D01*
X132425644Y-80000000D01*
X132405109Y-79752179D01*
X132344064Y-79511119D01*
X132244174Y-79283393D01*
X132244172Y-79283390D01*
X132244168Y-79283383D01*
X132108166Y-79075215D01*
X131939745Y-78892262D01*
X131743514Y-78739529D01*
X131743513Y-78739528D01*
X131743510Y-78739526D01*
X131743505Y-78739523D01*
X131743500Y-78739520D01*
X131524818Y-78621175D01*
X131524812Y-78621172D01*
X131524811Y-78621172D01*
X131505963Y-78614701D01*
X131289616Y-78540429D01*
X131228295Y-78530196D01*
X131044336Y-78499500D01*
X130795666Y-78499500D01*
X130648498Y-78524057D01*
X130550385Y-78540429D01*
X130315193Y-78621171D01*
X130315183Y-78621175D01*
X130096501Y-78739520D01*
X130096487Y-78739529D01*
X129900256Y-78892262D01*
X129900255Y-78892262D01*
X129731835Y-79075215D01*
X129595833Y-79283383D01*
X129595826Y-79283395D01*
X129495939Y-79511116D01*
X129495938Y-79511119D01*
X129434893Y-79752179D01*
X129414358Y-80000000D01*
X110975584Y-80000000D01*
X110955301Y-79794066D01*
X110895233Y-79596046D01*
X110797686Y-79413550D01*
X110666411Y-79253590D01*
X110506451Y-79122315D01*
X110323955Y-79024768D01*
X110125935Y-78964700D01*
X109920001Y-78944417D01*
X109714066Y-78964700D01*
X109714065Y-78964700D01*
X109516044Y-79024769D01*
X109333549Y-79122316D01*
X109173591Y-79253590D01*
X109042317Y-79413548D01*
X108944770Y-79596043D01*
X108884701Y-79794064D01*
X108884701Y-79794065D01*
X108884701Y-79794066D01*
X108864418Y-80000000D01*
X107420001Y-80000000D01*
X107420001Y-77460000D01*
X108864418Y-77460000D01*
X108884701Y-77665934D01*
X108944769Y-77863954D01*
X109042316Y-78046450D01*
X109173591Y-78206410D01*
X109333551Y-78337685D01*
X109516047Y-78435232D01*
X109714067Y-78495300D01*
X109920001Y-78515583D01*
X110125935Y-78495300D01*
X110323955Y-78435232D01*
X110506451Y-78337685D01*
X110666411Y-78206410D01*
X110797686Y-78046450D01*
X110895233Y-77863954D01*
X110955301Y-77665934D01*
X110975584Y-77460000D01*
X110955301Y-77254066D01*
X110895233Y-77056046D01*
X110865276Y-77000000D01*
X120489197Y-77000000D01*
X120510282Y-77133126D01*
X120510282Y-77133127D01*
X120510283Y-77133128D01*
X120571468Y-77253213D01*
X120571473Y-77253220D01*
X120666780Y-77348527D01*
X120666787Y-77348532D01*
X120746843Y-77389322D01*
X120786875Y-77409719D01*
X120920001Y-77430804D01*
X121053127Y-77409719D01*
X121136421Y-77367278D01*
X121173214Y-77348532D01*
X121173216Y-77348530D01*
X121173221Y-77348528D01*
X121268529Y-77253220D01*
X121329720Y-77133126D01*
X121350805Y-77000000D01*
X121329720Y-76866874D01*
X121309323Y-76826842D01*
X121268533Y-76746786D01*
X121268528Y-76746779D01*
X121173221Y-76651472D01*
X121173214Y-76651467D01*
X121053129Y-76590282D01*
X121053128Y-76590281D01*
X121053127Y-76590281D01*
X120920001Y-76569196D01*
X120786875Y-76590281D01*
X120786873Y-76590281D01*
X120786872Y-76590282D01*
X120666787Y-76651467D01*
X120666780Y-76651472D01*
X120571473Y-76746779D01*
X120571468Y-76746786D01*
X120510283Y-76866871D01*
X120510282Y-76866872D01*
X120510282Y-76866874D01*
X120489197Y-77000000D01*
X110865276Y-77000000D01*
X110797686Y-76873550D01*
X110666411Y-76713590D01*
X110506451Y-76582315D01*
X110323955Y-76484768D01*
X110125935Y-76424700D01*
X109920001Y-76404417D01*
X109714066Y-76424700D01*
X109714065Y-76424700D01*
X109516044Y-76484769D01*
X109333549Y-76582316D01*
X109173591Y-76713590D01*
X109042317Y-76873548D01*
X108944770Y-77056043D01*
X108884701Y-77254064D01*
X108884701Y-77254065D01*
X108867294Y-77430804D01*
X108864418Y-77460000D01*
X107420001Y-77460000D01*
X107420001Y-74000000D01*
X120989197Y-74000000D01*
X121010282Y-74133126D01*
X121010282Y-74133127D01*
X121010283Y-74133128D01*
X121071468Y-74253213D01*
X121071473Y-74253220D01*
X121166780Y-74348527D01*
X121166787Y-74348532D01*
X121246843Y-74389322D01*
X121286875Y-74409719D01*
X121420001Y-74430804D01*
X121553127Y-74409719D01*
X121636421Y-74367278D01*
X121673214Y-74348532D01*
X121673216Y-74348530D01*
X121673221Y-74348528D01*
X121768529Y-74253220D01*
X121829720Y-74133126D01*
X121850805Y-74000000D01*
X121829720Y-73866874D01*
X121809323Y-73826842D01*
X121768533Y-73746786D01*
X121768528Y-73746779D01*
X121673221Y-73651472D01*
X121673214Y-73651467D01*
X121553129Y-73590282D01*
X121553128Y-73590281D01*
X121553127Y-73590281D01*
X121420001Y-73569196D01*
X121286875Y-73590281D01*
X121286873Y-73590281D01*
X121286872Y-73590282D01*
X121166787Y-73651467D01*
X121166780Y-73651472D01*
X121071473Y-73746779D01*
X121071468Y-73746786D01*
X121010283Y-73866871D01*
X121010282Y-73866872D01*
X121010282Y-73866874D01*
X120989197Y-74000000D01*
X107420001Y-74000000D01*
X107420001Y-73500000D01*
X131489197Y-73500000D01*
X131510282Y-73633126D01*
X131510282Y-73633127D01*
X131510283Y-73633128D01*
X131571468Y-73753213D01*
X131571473Y-73753220D01*
X131666780Y-73848527D01*
X131666787Y-73848532D01*
X131746843Y-73889322D01*
X131786875Y-73909719D01*
X131920001Y-73930804D01*
X132053127Y-73909719D01*
X132137221Y-73866871D01*
X132173214Y-73848532D01*
X132173216Y-73848530D01*
X132173221Y-73848528D01*
X132268529Y-73753220D01*
X132271808Y-73746786D01*
X132287279Y-73716420D01*
X132329720Y-73633126D01*
X132350805Y-73500000D01*
X132329720Y-73366874D01*
X132309323Y-73326842D01*
X132268533Y-73246786D01*
X132268528Y-73246779D01*
X132173221Y-73151472D01*
X132173214Y-73151467D01*
X132053129Y-73090282D01*
X132053128Y-73090281D01*
X132053127Y-73090281D01*
X131920001Y-73069196D01*
X131786875Y-73090281D01*
X131786873Y-73090281D01*
X131786872Y-73090282D01*
X131666787Y-73151467D01*
X131666780Y-73151472D01*
X131571473Y-73246779D01*
X131571468Y-73246786D01*
X131510283Y-73366871D01*
X131510282Y-73366872D01*
X131510282Y-73366874D01*
X131489197Y-73500000D01*
X107420001Y-73500000D01*
X107420001Y-72500000D01*
X131489197Y-72500000D01*
X131510282Y-72633126D01*
X131510282Y-72633127D01*
X131510283Y-72633128D01*
X131571468Y-72753213D01*
X131571473Y-72753220D01*
X131666780Y-72848527D01*
X131666787Y-72848532D01*
X131746843Y-72889322D01*
X131786875Y-72909719D01*
X131920001Y-72930804D01*
X132053127Y-72909719D01*
X132136421Y-72867278D01*
X132173214Y-72848532D01*
X132173216Y-72848530D01*
X132173221Y-72848528D01*
X132268529Y-72753220D01*
X132329720Y-72633126D01*
X132350805Y-72500000D01*
X132329720Y-72366874D01*
X132309323Y-72326842D01*
X132268533Y-72246786D01*
X132268528Y-72246779D01*
X132173221Y-72151472D01*
X132173214Y-72151467D01*
X132053129Y-72090282D01*
X132053128Y-72090281D01*
X132053127Y-72090281D01*
X131920001Y-72069196D01*
X131786875Y-72090281D01*
X131786873Y-72090281D01*
X131786872Y-72090282D01*
X131666787Y-72151467D01*
X131666780Y-72151472D01*
X131571473Y-72246779D01*
X131571468Y-72246786D01*
X131510283Y-72366871D01*
X131510282Y-72366872D01*
X131510282Y-72366874D01*
X131489197Y-72500000D01*
X107420001Y-72500000D01*
X107420001Y-72000000D01*
X120989197Y-72000000D01*
X121010282Y-72133126D01*
X121010282Y-72133127D01*
X121010283Y-72133128D01*
X121071468Y-72253213D01*
X121071473Y-72253220D01*
X121166780Y-72348527D01*
X121166787Y-72348532D01*
X121246843Y-72389322D01*
X121286875Y-72409719D01*
X121420001Y-72430804D01*
X121553127Y-72409719D01*
X121637221Y-72366871D01*
X121673214Y-72348532D01*
X121673216Y-72348530D01*
X121673221Y-72348528D01*
X121768529Y-72253220D01*
X121771808Y-72246786D01*
X121787279Y-72216420D01*
X121829720Y-72133126D01*
X121850805Y-72000000D01*
X121829720Y-71866874D01*
X121809323Y-71826842D01*
X121768533Y-71746786D01*
X121768528Y-71746779D01*
X121673221Y-71651472D01*
X121673214Y-71651467D01*
X121553129Y-71590282D01*
X121553128Y-71590281D01*
X121553127Y-71590281D01*
X121420001Y-71569196D01*
X121286875Y-71590281D01*
X121286873Y-71590281D01*
X121286872Y-71590282D01*
X121166787Y-71651467D01*
X121166780Y-71651472D01*
X121071473Y-71746779D01*
X121071468Y-71746786D01*
X121010283Y-71866871D01*
X121010282Y-71866872D01*
X121010282Y-71866874D01*
X120989197Y-72000000D01*
X107420001Y-72000000D01*
X107420001Y-71500000D01*
X110989197Y-71500000D01*
X111010282Y-71633126D01*
X111010282Y-71633127D01*
X111010283Y-71633128D01*
X111071468Y-71753213D01*
X111071473Y-71753220D01*
X111166780Y-71848527D01*
X111166787Y-71848532D01*
X111246843Y-71889322D01*
X111286875Y-71909719D01*
X111420001Y-71930804D01*
X111553127Y-71909719D01*
X111637221Y-71866871D01*
X111673214Y-71848532D01*
X111673216Y-71848530D01*
X111673221Y-71848528D01*
X111768529Y-71753220D01*
X111771808Y-71746786D01*
X111787279Y-71716420D01*
X111829720Y-71633126D01*
X111850805Y-71500000D01*
X111829720Y-71366874D01*
X111809323Y-71326842D01*
X111768533Y-71246786D01*
X111768528Y-71246779D01*
X111673221Y-71151472D01*
X111673214Y-71151467D01*
X111553129Y-71090282D01*
X111553128Y-71090281D01*
X111553127Y-71090281D01*
X111420001Y-71069196D01*
X111286875Y-71090281D01*
X111286873Y-71090281D01*
X111286872Y-71090282D01*
X111166787Y-71151467D01*
X111166780Y-71151472D01*
X111071473Y-71246779D01*
X111071468Y-71246786D01*
X111010283Y-71366871D01*
X111010282Y-71366872D01*
X111010282Y-71366874D01*
X110989197Y-71500000D01*
X107420001Y-71500000D01*
X107420001Y-70000000D01*
X110989197Y-70000000D01*
X111010282Y-70133126D01*
X111010282Y-70133127D01*
X111010283Y-70133128D01*
X111071468Y-70253213D01*
X111071473Y-70253220D01*
X111166780Y-70348527D01*
X111166787Y-70348532D01*
X111246843Y-70389322D01*
X111286875Y-70409719D01*
X111420001Y-70430804D01*
X111553127Y-70409719D01*
X111636421Y-70367278D01*
X111673214Y-70348532D01*
X111673216Y-70348530D01*
X111673221Y-70348528D01*
X111768529Y-70253220D01*
X111829720Y-70133126D01*
X111850805Y-70000000D01*
X111829720Y-69866874D01*
X111795646Y-69800000D01*
X111768533Y-69746786D01*
X111768528Y-69746779D01*
X111673221Y-69651472D01*
X111673214Y-69651467D01*
X111553129Y-69590282D01*
X111553128Y-69590281D01*
X111553127Y-69590281D01*
X111420001Y-69569196D01*
X111286875Y-69590281D01*
X111286873Y-69590281D01*
X111286872Y-69590282D01*
X111166787Y-69651467D01*
X111166780Y-69651472D01*
X111071473Y-69746779D01*
X111071468Y-69746786D01*
X111010283Y-69866871D01*
X111010282Y-69866872D01*
X111010282Y-69866874D01*
X110989197Y-70000000D01*
X107420001Y-70000000D01*
X107420001Y-69049000D01*
X107434353Y-69014352D01*
X107469001Y-69000000D01*
X113271001Y-69000000D01*
X113305649Y-69014352D01*
X113320001Y-69049000D01*
X113320001Y-69100000D01*
X114463918Y-69100000D01*
X114498566Y-69114352D01*
X114508100Y-69129910D01*
X114508531Y-69129691D01*
X114571468Y-69253213D01*
X114571473Y-69253220D01*
X114666780Y-69348527D01*
X114666787Y-69348532D01*
X114746843Y-69389322D01*
X114786875Y-69409719D01*
X114920001Y-69430804D01*
X115053127Y-69409719D01*
X115136421Y-69367278D01*
X115173214Y-69348532D01*
X115173216Y-69348530D01*
X115173221Y-69348528D01*
X115268529Y-69253220D01*
X115329720Y-69133126D01*
X115344258Y-69041333D01*
X115363854Y-69009358D01*
X115392655Y-69000000D01*
X117545001Y-69000000D01*
X117545001Y-67000000D01*
X114569001Y-67000000D01*
X114534353Y-66985648D01*
X114520001Y-66951000D01*
X114520001Y-66549000D01*
X114534353Y-66514352D01*
X114569001Y-66500000D01*
X121271001Y-66500000D01*
X121305649Y-66514352D01*
X121320001Y-66549000D01*
X121320001Y-67679956D01*
X121305649Y-67714604D01*
X121271001Y-67728956D01*
X121236353Y-67714604D01*
X121173221Y-67651472D01*
X121173214Y-67651467D01*
X121053129Y-67590282D01*
X121053128Y-67590281D01*
X121053127Y-67590281D01*
X120920001Y-67569196D01*
X120786875Y-67590281D01*
X120786873Y-67590281D01*
X120786872Y-67590282D01*
X120666787Y-67651467D01*
X120666780Y-67651472D01*
X120571473Y-67746779D01*
X120571468Y-67746786D01*
X120510283Y-67866871D01*
X120510282Y-67866872D01*
X120510282Y-67866874D01*
X120489197Y-68000000D01*
X120510282Y-68133126D01*
X120510282Y-68133127D01*
X120510283Y-68133128D01*
X120571468Y-68253213D01*
X120571473Y-68253220D01*
X120666780Y-68348527D01*
X120666787Y-68348532D01*
X120746843Y-68389322D01*
X120786875Y-68409719D01*
X120920001Y-68430804D01*
X121053127Y-68409719D01*
X121136421Y-68367278D01*
X121173214Y-68348532D01*
X121173216Y-68348530D01*
X121173221Y-68348528D01*
X121236353Y-68285396D01*
X121271001Y-68271044D01*
X121305649Y-68285396D01*
X121320001Y-68320044D01*
X121320001Y-68679956D01*
X121305649Y-68714604D01*
X121271001Y-68728956D01*
X121236353Y-68714604D01*
X121173221Y-68651472D01*
X121173214Y-68651467D01*
X121053129Y-68590282D01*
X121053128Y-68590281D01*
X121053127Y-68590281D01*
X120920001Y-68569196D01*
X120786875Y-68590281D01*
X120786873Y-68590281D01*
X120786872Y-68590282D01*
X120666787Y-68651467D01*
X120666780Y-68651472D01*
X120571473Y-68746779D01*
X120571468Y-68746786D01*
X120510283Y-68866871D01*
X120510282Y-68866872D01*
X120510282Y-68866874D01*
X120489197Y-69000000D01*
X120510282Y-69133126D01*
X120510282Y-69133127D01*
X120510283Y-69133128D01*
X120571468Y-69253213D01*
X120571473Y-69253220D01*
X120666780Y-69348527D01*
X120666787Y-69348532D01*
X120746843Y-69389322D01*
X120786875Y-69409719D01*
X120920001Y-69430804D01*
X121053127Y-69409719D01*
X121136421Y-69367278D01*
X121173214Y-69348532D01*
X121173216Y-69348530D01*
X121173221Y-69348528D01*
X121236353Y-69285396D01*
X121271001Y-69271044D01*
X121305649Y-69285396D01*
X121320001Y-69320044D01*
X121320001Y-69800000D01*
X122520001Y-69800000D01*
X122520001Y-67500000D01*
X131489197Y-67500000D01*
X131510282Y-67633126D01*
X131510282Y-67633127D01*
X131510283Y-67633128D01*
X131571468Y-67753213D01*
X131571473Y-67753220D01*
X131666780Y-67848527D01*
X131666787Y-67848532D01*
X131746843Y-67889322D01*
X131786875Y-67909719D01*
X131920001Y-67930804D01*
X132053127Y-67909719D01*
X132137221Y-67866871D01*
X132173214Y-67848532D01*
X132173216Y-67848530D01*
X132173221Y-67848528D01*
X132268529Y-67753220D01*
X132271808Y-67746786D01*
X132288205Y-67714604D01*
X132329720Y-67633126D01*
X132350805Y-67500000D01*
X132329720Y-67366874D01*
X132309323Y-67326842D01*
X132268533Y-67246786D01*
X132268528Y-67246779D01*
X132173221Y-67151472D01*
X132173214Y-67151467D01*
X132053129Y-67090282D01*
X132053128Y-67090281D01*
X132053127Y-67090281D01*
X131920001Y-67069196D01*
X131786875Y-67090281D01*
X131786873Y-67090281D01*
X131786872Y-67090282D01*
X131666787Y-67151467D01*
X131666780Y-67151472D01*
X131571473Y-67246779D01*
X131571468Y-67246786D01*
X131510283Y-67366871D01*
X131510282Y-67366872D01*
X131510282Y-67366874D01*
X131489197Y-67500000D01*
X122520001Y-67500000D01*
X122520001Y-66500000D01*
X131489197Y-66500000D01*
X131510282Y-66633126D01*
X131510282Y-66633127D01*
X131510283Y-66633128D01*
X131571468Y-66753213D01*
X131571473Y-66753220D01*
X131666780Y-66848527D01*
X131666787Y-66848532D01*
X131746843Y-66889322D01*
X131786875Y-66909719D01*
X131920001Y-66930804D01*
X132053127Y-66909719D01*
X132136421Y-66867278D01*
X132173214Y-66848532D01*
X132173216Y-66848530D01*
X132173221Y-66848528D01*
X132268529Y-66753220D01*
X132329720Y-66633126D01*
X132350805Y-66500000D01*
X132329720Y-66366874D01*
X132309323Y-66326842D01*
X132268533Y-66246786D01*
X132268528Y-66246779D01*
X132173221Y-66151472D01*
X132173214Y-66151467D01*
X132053129Y-66090282D01*
X132053128Y-66090281D01*
X132053127Y-66090281D01*
X131920001Y-66069196D01*
X131786875Y-66090281D01*
X131786873Y-66090281D01*
X131786872Y-66090282D01*
X131666787Y-66151467D01*
X131666780Y-66151472D01*
X131571473Y-66246779D01*
X131571468Y-66246786D01*
X131510283Y-66366871D01*
X131510282Y-66366872D01*
X131510282Y-66366874D01*
X131489197Y-66500000D01*
X122520001Y-66500000D01*
X122520001Y-65000000D01*
X123489197Y-65000000D01*
X123510282Y-65133126D01*
X123510282Y-65133127D01*
X123510283Y-65133128D01*
X123571468Y-65253213D01*
X123571473Y-65253220D01*
X123666780Y-65348527D01*
X123666787Y-65348532D01*
X123746843Y-65389322D01*
X123786875Y-65409719D01*
X123920001Y-65430804D01*
X124053127Y-65409719D01*
X124137221Y-65366871D01*
X124173214Y-65348532D01*
X124173216Y-65348530D01*
X124173221Y-65348528D01*
X124268529Y-65253220D01*
X124271808Y-65246786D01*
X124287279Y-65216420D01*
X124329720Y-65133126D01*
X124350805Y-65000003D01*
X127489194Y-65000003D01*
X127510279Y-65133129D01*
X127510279Y-65133130D01*
X127510280Y-65133131D01*
X127571465Y-65253216D01*
X127571470Y-65253223D01*
X127666777Y-65348530D01*
X127666784Y-65348535D01*
X127746840Y-65389325D01*
X127786872Y-65409722D01*
X127919998Y-65430807D01*
X128053124Y-65409722D01*
X128137224Y-65366871D01*
X128173211Y-65348535D01*
X128173213Y-65348533D01*
X128173218Y-65348531D01*
X128268526Y-65253223D01*
X128268532Y-65253213D01*
X128287276Y-65216423D01*
X128329717Y-65133129D01*
X128350802Y-65000003D01*
X128329717Y-64866877D01*
X128309320Y-64826845D01*
X128268530Y-64746789D01*
X128268525Y-64746782D01*
X128173218Y-64651475D01*
X128173211Y-64651470D01*
X128053126Y-64590285D01*
X128053125Y-64590284D01*
X128053124Y-64590284D01*
X127919998Y-64569199D01*
X127786872Y-64590284D01*
X127786870Y-64590284D01*
X127786869Y-64590285D01*
X127666784Y-64651470D01*
X127666777Y-64651475D01*
X127571470Y-64746782D01*
X127571465Y-64746789D01*
X127510280Y-64866874D01*
X127510279Y-64866875D01*
X127510279Y-64866877D01*
X127489194Y-65000003D01*
X124350805Y-65000003D01*
X124350805Y-65000000D01*
X124329720Y-64866874D01*
X124309323Y-64826842D01*
X124268533Y-64746786D01*
X124268528Y-64746779D01*
X124173221Y-64651472D01*
X124173214Y-64651467D01*
X124053129Y-64590282D01*
X124053128Y-64590281D01*
X124053127Y-64590281D01*
X123920001Y-64569196D01*
X123786875Y-64590281D01*
X123786873Y-64590281D01*
X123786872Y-64590282D01*
X123666787Y-64651467D01*
X123666780Y-64651472D01*
X123571473Y-64746779D01*
X123571468Y-64746786D01*
X123510283Y-64866871D01*
X123510282Y-64866872D01*
X123510282Y-64866874D01*
X123489197Y-65000000D01*
X122520001Y-65000000D01*
X122520001Y-64200000D01*
X121320001Y-63000000D01*
X123489197Y-63000000D01*
X123510282Y-63133126D01*
X123510282Y-63133127D01*
X123510283Y-63133128D01*
X123571468Y-63253213D01*
X123571473Y-63253220D01*
X123666780Y-63348527D01*
X123666787Y-63348532D01*
X123746843Y-63389322D01*
X123786875Y-63409719D01*
X123920001Y-63430804D01*
X124053127Y-63409719D01*
X124136421Y-63367278D01*
X124173214Y-63348532D01*
X124173216Y-63348530D01*
X124173221Y-63348528D01*
X124268529Y-63253220D01*
X124329720Y-63133126D01*
X124350805Y-63000000D01*
X124329720Y-62866874D01*
X124309323Y-62826842D01*
X124268533Y-62746786D01*
X124268528Y-62746779D01*
X124173221Y-62651472D01*
X124173214Y-62651467D01*
X124053129Y-62590282D01*
X124053128Y-62590281D01*
X124053127Y-62590281D01*
X123920001Y-62569196D01*
X123786875Y-62590281D01*
X123786873Y-62590281D01*
X123786872Y-62590282D01*
X123666787Y-62651467D01*
X123666780Y-62651472D01*
X123571473Y-62746779D01*
X123571468Y-62746786D01*
X123510283Y-62866871D01*
X123510282Y-62866872D01*
X123510282Y-62866874D01*
X123489197Y-63000000D01*
X121320001Y-63000000D01*
X114520001Y-63000000D01*
X113320001Y-64199999D01*
X113320001Y-66951000D01*
X113305649Y-66985648D01*
X113271001Y-67000000D01*
X107469001Y-67000000D01*
X107434353Y-66985648D01*
X107420001Y-66951000D01*
X107420001Y-65500000D01*
X111489197Y-65500000D01*
X111510282Y-65633126D01*
X111510282Y-65633127D01*
X111510283Y-65633128D01*
X111571468Y-65753213D01*
X111571473Y-65753220D01*
X111666780Y-65848527D01*
X111666787Y-65848532D01*
X111746843Y-65889322D01*
X111786875Y-65909719D01*
X111920001Y-65930804D01*
X112053127Y-65909719D01*
X112136421Y-65867278D01*
X112173214Y-65848532D01*
X112173216Y-65848530D01*
X112173221Y-65848528D01*
X112268529Y-65753220D01*
X112329720Y-65633126D01*
X112350805Y-65500000D01*
X112329720Y-65366874D01*
X112309323Y-65326842D01*
X112268533Y-65246786D01*
X112268528Y-65246779D01*
X112173221Y-65151472D01*
X112173214Y-65151467D01*
X112053129Y-65090282D01*
X112053128Y-65090281D01*
X112053127Y-65090281D01*
X111920001Y-65069196D01*
X111786875Y-65090281D01*
X111786873Y-65090281D01*
X111786872Y-65090282D01*
X111666787Y-65151467D01*
X111666780Y-65151472D01*
X111571473Y-65246779D01*
X111571468Y-65246786D01*
X111510283Y-65366871D01*
X111510282Y-65366872D01*
X111510282Y-65366874D01*
X111489197Y-65500000D01*
X107420001Y-65500000D01*
X107420001Y-64500000D01*
X111489197Y-64500000D01*
X111510282Y-64633126D01*
X111510282Y-64633127D01*
X111510283Y-64633128D01*
X111571468Y-64753213D01*
X111571473Y-64753220D01*
X111666780Y-64848527D01*
X111666787Y-64848532D01*
X111746843Y-64889322D01*
X111786875Y-64909719D01*
X111920001Y-64930804D01*
X112053127Y-64909719D01*
X112137221Y-64866871D01*
X112173214Y-64848532D01*
X112173216Y-64848530D01*
X112173221Y-64848528D01*
X112268529Y-64753220D01*
X112271808Y-64746786D01*
X112287279Y-64716420D01*
X112329720Y-64633126D01*
X112350805Y-64500000D01*
X112329720Y-64366874D01*
X112309323Y-64326842D01*
X112268533Y-64246786D01*
X112268528Y-64246779D01*
X112173221Y-64151472D01*
X112173214Y-64151467D01*
X112053129Y-64090282D01*
X112053128Y-64090281D01*
X112053127Y-64090281D01*
X111920001Y-64069196D01*
X111786875Y-64090281D01*
X111786873Y-64090281D01*
X111786872Y-64090282D01*
X111666787Y-64151467D01*
X111666780Y-64151472D01*
X111571473Y-64246779D01*
X111571468Y-64246786D01*
X111510283Y-64366871D01*
X111510282Y-64366872D01*
X111510282Y-64366874D01*
X111489197Y-64500000D01*
X107420001Y-64500000D01*
X107420001Y-57834907D01*
X107434353Y-57800259D01*
X107469001Y-57785907D01*
X107503649Y-57800259D01*
X107516331Y-57822225D01*
X107586255Y-58083186D01*
X107586257Y-58083192D01*
X107586259Y-58083199D01*
X107670613Y-58302952D01*
X107717746Y-58425737D01*
X107739876Y-58469169D01*
X107883222Y-58750500D01*
X107884318Y-58752650D01*
X108084152Y-59060370D01*
X108084154Y-59060372D01*
X108315048Y-59345501D01*
X108315061Y-59345516D01*
X108574484Y-59604939D01*
X108574491Y-59604945D01*
X108574495Y-59604949D01*
X108574499Y-59604952D01*
X108859628Y-59835846D01*
X108859630Y-59835848D01*
X108859635Y-59835851D01*
X109167349Y-60035682D01*
X109494265Y-60202255D01*
X109836802Y-60333742D01*
X110191207Y-60428705D01*
X110553597Y-60486102D01*
X110920001Y-60505304D01*
X111286405Y-60486102D01*
X111648795Y-60428705D01*
X112003200Y-60333742D01*
X112345737Y-60202255D01*
X112672653Y-60035682D01*
X112980367Y-59835851D01*
X113265507Y-59604949D01*
X113524950Y-59345506D01*
X113755852Y-59060366D01*
X113955683Y-58752652D01*
X114122256Y-58425736D01*
X114253743Y-58083199D01*
X114348706Y-57728794D01*
X114406103Y-57366404D01*
X114425305Y-57000000D01*
X114406103Y-56633596D01*
X114348706Y-56271206D01*
X114253743Y-55916801D01*
X114122256Y-55574264D01*
X113955683Y-55247348D01*
X113755852Y-54939634D01*
X113755849Y-54939629D01*
X113755847Y-54939627D01*
X113524953Y-54654498D01*
X113524940Y-54654483D01*
X113265517Y-54395060D01*
X113265502Y-54395047D01*
X112980373Y-54164153D01*
X112980371Y-54164151D01*
X112672651Y-53964317D01*
X112345738Y-53797745D01*
X112222953Y-53750612D01*
X112003200Y-53666258D01*
X112003193Y-53666256D01*
X112003187Y-53666254D01*
X111742227Y-53596330D01*
X111712474Y-53573500D01*
X111707579Y-53536318D01*
X111730409Y-53506565D01*
X111754909Y-53500000D01*
X132085093Y-53500000D01*
X132119741Y-53514352D01*
G37*
%TD.AperFunction*%
%TD*%
M02*
