%TF.GenerationSoftware,KiCad,Pcbnew,8.0.2*%
%TF.CreationDate,2025-01-11T01:25:53-03:00*%
%TF.ProjectId,PD,50442e6b-6963-4616-945f-706362585858,rev?*%
%TF.SameCoordinates,Original*%
%TF.FileFunction,Copper,L2,Bot*%
%TF.FilePolarity,Positive*%
%FSLAX46Y46*%
G04 Gerber Fmt 4.6, Leading zero omitted, Abs format (unit mm)*
G04 Created by KiCad (PCBNEW 8.0.2) date 2025-01-11 01:25:53*
%MOMM*%
%LPD*%
G01*
G04 APERTURE LIST*
%TA.AperFunction,ComponentPad*%
%ADD10O,1.600000X1.200000*%
%TD*%
%TA.AperFunction,ComponentPad*%
%ADD11O,1.200000X1.200000*%
%TD*%
%TA.AperFunction,ComponentPad*%
%ADD12R,1.800000X1.800000*%
%TD*%
%TA.AperFunction,ComponentPad*%
%ADD13C,1.800000*%
%TD*%
%TA.AperFunction,ComponentPad*%
%ADD14R,3.000000X3.000000*%
%TD*%
%TA.AperFunction,ComponentPad*%
%ADD15C,3.000000*%
%TD*%
%TA.AperFunction,ComponentPad*%
%ADD16C,2.050000*%
%TD*%
%TA.AperFunction,ComponentPad*%
%ADD17C,2.250000*%
%TD*%
%TA.AperFunction,ViaPad*%
%ADD18C,0.812800*%
%TD*%
G04 APERTURE END LIST*
D10*
%TO.P,D1,1,K*%
%TO.N,Net-(D1-K)*%
X114414724Y-67184724D03*
D11*
%TO.P,D1,2,C*%
%TO.N,GND*%
X115684724Y-68454724D03*
%TO.P,D1,3,A*%
%TO.N,Net-(D1-A)*%
X116954724Y-67184724D03*
%TD*%
D12*
%TO.P,D3,1,K*%
%TO.N,Net-(D1-K)*%
X114725000Y-88000000D03*
D13*
%TO.P,D3,2,A*%
%TO.N,Net-(D3-A)*%
X117265000Y-88000000D03*
%TD*%
D14*
%TO.P,J5,1,Pin_1*%
%TO.N,GND*%
X106000000Y-66000000D03*
D15*
%TO.P,J5,2,Pin_2*%
%TO.N,Net-(J5-Pin_2)*%
X106000000Y-71080000D03*
%TD*%
D16*
%TO.P,J4,1,In*%
%TO.N,Net-(D3-A)*%
X125500000Y-88000000D03*
D17*
%TO.P,J4,2,Ext*%
%TO.N,GND*%
X128040000Y-90540000D03*
X128040000Y-85460000D03*
X122960000Y-90540000D03*
X122960000Y-85460000D03*
%TD*%
D16*
%TO.P,J2,1,In*%
%TO.N,Net-(D1-A)*%
X125500000Y-67000000D03*
D17*
%TO.P,J2,2,Ext*%
%TO.N,GND*%
X128040000Y-69540000D03*
X128040000Y-64460000D03*
X122960000Y-69540000D03*
X122960000Y-64460000D03*
%TD*%
D16*
%TO.P,J3,1,In*%
%TO.N,Net-(J3-In)*%
X125500000Y-77500000D03*
D17*
%TO.P,J3,2,Ext*%
%TO.N,GND*%
X128040000Y-80040000D03*
X128040000Y-74960000D03*
X122960000Y-80040000D03*
X122960000Y-74960000D03*
%TD*%
D18*
%TO.N,GND*%
X106000000Y-86500000D03*
%TD*%
%TA.AperFunction,Conductor*%
%TO.N,GND*%
G36*
X131442539Y-60520185D02*
G01*
X131488294Y-60572989D01*
X131499500Y-60624500D01*
X131499500Y-93375500D01*
X131479815Y-93442539D01*
X131427011Y-93488294D01*
X131375500Y-93499500D01*
X100624500Y-93499500D01*
X100557461Y-93479815D01*
X100511706Y-93427011D01*
X100500500Y-93375500D01*
X100500500Y-87052135D01*
X113324500Y-87052135D01*
X113324500Y-88947870D01*
X113324501Y-88947876D01*
X113330908Y-89007483D01*
X113381202Y-89142328D01*
X113381206Y-89142335D01*
X113467452Y-89257544D01*
X113467455Y-89257547D01*
X113582664Y-89343793D01*
X113582671Y-89343797D01*
X113717517Y-89394091D01*
X113717516Y-89394091D01*
X113724444Y-89394835D01*
X113777127Y-89400500D01*
X115672872Y-89400499D01*
X115732483Y-89394091D01*
X115832667Y-89356725D01*
X115902359Y-89351741D01*
X115963682Y-89385226D01*
X115997166Y-89446549D01*
X116000000Y-89472907D01*
X116000000Y-89500000D01*
X121470049Y-89500000D01*
X121537088Y-89519685D01*
X121582843Y-89572489D01*
X121592787Y-89641647D01*
X121575777Y-89688790D01*
X121507633Y-89799990D01*
X121409752Y-90036297D01*
X121350042Y-90285010D01*
X121329975Y-90540000D01*
X121350042Y-90794989D01*
X121409752Y-91043702D01*
X121507634Y-91280012D01*
X121507636Y-91280015D01*
X121563362Y-91370951D01*
X122143752Y-90790561D01*
X122206740Y-90942626D01*
X122299762Y-91081844D01*
X122418156Y-91200238D01*
X122557374Y-91293260D01*
X122709437Y-91356247D01*
X122129047Y-91936636D01*
X122129047Y-91936637D01*
X122219984Y-91992363D01*
X122219987Y-91992365D01*
X122456297Y-92090247D01*
X122705011Y-92149957D01*
X122705010Y-92149957D01*
X122960000Y-92170024D01*
X123214989Y-92149957D01*
X123463702Y-92090247D01*
X123700010Y-91992365D01*
X123790950Y-91936636D01*
X123210562Y-91356247D01*
X123362626Y-91293260D01*
X123501844Y-91200238D01*
X123620238Y-91081844D01*
X123713260Y-90942626D01*
X123776247Y-90790561D01*
X124356636Y-91370950D01*
X124412365Y-91280010D01*
X124510247Y-91043702D01*
X124569957Y-90794989D01*
X124590024Y-90540000D01*
X124569957Y-90285010D01*
X124510247Y-90036297D01*
X124412366Y-89799990D01*
X124344223Y-89688790D01*
X124325979Y-89621344D01*
X124347096Y-89554741D01*
X124400867Y-89510128D01*
X124449951Y-89500000D01*
X125198556Y-89500000D01*
X125227501Y-89503425D01*
X125260621Y-89511377D01*
X125500000Y-89530217D01*
X125739379Y-89511377D01*
X125772498Y-89503425D01*
X125801444Y-89500000D01*
X126550049Y-89500000D01*
X126617088Y-89519685D01*
X126662843Y-89572489D01*
X126672787Y-89641647D01*
X126655777Y-89688790D01*
X126587633Y-89799990D01*
X126489752Y-90036297D01*
X126430042Y-90285010D01*
X126409975Y-90540000D01*
X126430042Y-90794989D01*
X126489752Y-91043702D01*
X126587634Y-91280012D01*
X126587636Y-91280015D01*
X126643362Y-91370951D01*
X127223752Y-90790561D01*
X127286740Y-90942626D01*
X127379762Y-91081844D01*
X127498156Y-91200238D01*
X127637374Y-91293260D01*
X127789437Y-91356247D01*
X127209047Y-91936636D01*
X127209047Y-91936637D01*
X127299984Y-91992363D01*
X127299987Y-91992365D01*
X127536297Y-92090247D01*
X127785011Y-92149957D01*
X127785010Y-92149957D01*
X128040000Y-92170024D01*
X128294989Y-92149957D01*
X128543702Y-92090247D01*
X128780010Y-91992365D01*
X128870950Y-91936636D01*
X128290562Y-91356247D01*
X128442626Y-91293260D01*
X128581844Y-91200238D01*
X128700238Y-91081844D01*
X128793260Y-90942626D01*
X128856247Y-90790561D01*
X129436636Y-91370950D01*
X129492365Y-91280010D01*
X129590247Y-91043702D01*
X129649957Y-90794989D01*
X129670024Y-90540000D01*
X129649957Y-90285010D01*
X129590247Y-90036297D01*
X129492365Y-89799987D01*
X129492363Y-89799984D01*
X129436636Y-89709047D01*
X128856246Y-90289436D01*
X128793260Y-90137374D01*
X128700238Y-89998156D01*
X128581844Y-89879762D01*
X128442626Y-89786740D01*
X128290561Y-89723752D01*
X128870951Y-89143362D01*
X128780015Y-89087636D01*
X128780012Y-89087634D01*
X128543702Y-88989752D01*
X128294988Y-88930042D01*
X128294989Y-88930042D01*
X128040000Y-88909975D01*
X127785010Y-88930042D01*
X127536297Y-88989752D01*
X127299990Y-89087633D01*
X127188790Y-89155777D01*
X127121344Y-89174021D01*
X127054741Y-89152904D01*
X127010128Y-89099133D01*
X127000000Y-89050049D01*
X127000000Y-88301444D01*
X127003426Y-88272497D01*
X127011376Y-88239382D01*
X127011377Y-88239379D01*
X127030217Y-88000000D01*
X127011377Y-87760621D01*
X127003426Y-87727500D01*
X127000000Y-87698555D01*
X127000000Y-86949950D01*
X127019685Y-86882911D01*
X127072489Y-86837156D01*
X127141647Y-86827212D01*
X127188790Y-86844223D01*
X127299984Y-86912363D01*
X127299987Y-86912365D01*
X127536297Y-87010247D01*
X127785011Y-87069957D01*
X127785010Y-87069957D01*
X128040000Y-87090024D01*
X128294989Y-87069957D01*
X128543702Y-87010247D01*
X128780010Y-86912365D01*
X128870950Y-86856636D01*
X128290561Y-86276247D01*
X128442626Y-86213260D01*
X128581844Y-86120238D01*
X128700238Y-86001844D01*
X128793260Y-85862626D01*
X128856247Y-85710561D01*
X129436636Y-86290950D01*
X129492365Y-86200010D01*
X129590247Y-85963702D01*
X129649957Y-85714989D01*
X129670024Y-85460000D01*
X129649957Y-85205010D01*
X129590247Y-84956297D01*
X129492365Y-84719987D01*
X129492363Y-84719984D01*
X129436636Y-84629047D01*
X128856246Y-85209436D01*
X128793260Y-85057374D01*
X128700238Y-84918156D01*
X128581844Y-84799762D01*
X128442626Y-84706740D01*
X128290561Y-84643752D01*
X128870951Y-84063362D01*
X128780015Y-84007636D01*
X128780012Y-84007634D01*
X128543702Y-83909752D01*
X128294988Y-83850042D01*
X128294989Y-83850042D01*
X128040000Y-83829975D01*
X127785010Y-83850042D01*
X127536297Y-83909752D01*
X127299995Y-84007631D01*
X127299985Y-84007636D01*
X127209047Y-84063362D01*
X127789438Y-84643752D01*
X127637374Y-84706740D01*
X127498156Y-84799762D01*
X127379762Y-84918156D01*
X127286740Y-85057374D01*
X127223752Y-85209437D01*
X126643362Y-84629047D01*
X126587636Y-84719985D01*
X126587631Y-84719995D01*
X126489752Y-84956297D01*
X126430042Y-85205010D01*
X126409975Y-85460000D01*
X126430042Y-85714989D01*
X126489752Y-85963702D01*
X126587633Y-86200009D01*
X126655777Y-86311210D01*
X126674021Y-86378656D01*
X126652904Y-86445259D01*
X126599133Y-86489872D01*
X126550049Y-86500000D01*
X125801444Y-86500000D01*
X125772498Y-86496574D01*
X125767231Y-86495309D01*
X125739382Y-86488623D01*
X125500000Y-86469783D01*
X125260617Y-86488623D01*
X125231615Y-86495586D01*
X125227501Y-86496574D01*
X125198556Y-86500000D01*
X124449951Y-86500000D01*
X124382912Y-86480315D01*
X124337157Y-86427511D01*
X124327213Y-86358353D01*
X124344223Y-86311210D01*
X124412366Y-86200009D01*
X124510247Y-85963702D01*
X124569957Y-85714989D01*
X124590024Y-85460000D01*
X124569957Y-85205010D01*
X124510247Y-84956297D01*
X124412365Y-84719987D01*
X124412363Y-84719984D01*
X124356636Y-84629047D01*
X123776246Y-85209436D01*
X123713260Y-85057374D01*
X123620238Y-84918156D01*
X123501844Y-84799762D01*
X123362626Y-84706740D01*
X123210561Y-84643752D01*
X123790951Y-84063362D01*
X123700015Y-84007636D01*
X123700012Y-84007634D01*
X123463702Y-83909752D01*
X123214988Y-83850042D01*
X123214989Y-83850042D01*
X122960000Y-83829975D01*
X122705010Y-83850042D01*
X122456297Y-83909752D01*
X122219995Y-84007631D01*
X122219985Y-84007636D01*
X122129047Y-84063362D01*
X122709438Y-84643752D01*
X122557374Y-84706740D01*
X122418156Y-84799762D01*
X122299762Y-84918156D01*
X122206740Y-85057374D01*
X122143752Y-85209437D01*
X121563362Y-84629047D01*
X121507636Y-84719985D01*
X121507631Y-84719995D01*
X121409752Y-84956297D01*
X121350042Y-85205010D01*
X121329975Y-85460000D01*
X121350042Y-85714989D01*
X121409752Y-85963702D01*
X121507633Y-86200009D01*
X121575777Y-86311210D01*
X121594021Y-86378656D01*
X121572904Y-86445259D01*
X121519133Y-86489872D01*
X121470049Y-86500000D01*
X116000000Y-86500000D01*
X116000000Y-86527092D01*
X115980315Y-86594131D01*
X115927511Y-86639886D01*
X115858353Y-86649830D01*
X115832668Y-86643274D01*
X115732485Y-86605909D01*
X115732483Y-86605908D01*
X115672883Y-86599501D01*
X115672881Y-86599500D01*
X115672873Y-86599500D01*
X115672864Y-86599500D01*
X113777129Y-86599500D01*
X113777123Y-86599501D01*
X113717516Y-86605908D01*
X113582671Y-86656202D01*
X113582664Y-86656206D01*
X113467455Y-86742452D01*
X113467452Y-86742455D01*
X113381206Y-86857664D01*
X113381202Y-86857671D01*
X113330908Y-86992517D01*
X113324501Y-87052116D01*
X113324500Y-87052135D01*
X100500500Y-87052135D01*
X100500500Y-76000000D01*
X116000000Y-76000000D01*
X116000000Y-79000000D01*
X121470049Y-79000000D01*
X121537088Y-79019685D01*
X121582843Y-79072489D01*
X121592787Y-79141647D01*
X121575777Y-79188790D01*
X121507633Y-79299990D01*
X121409752Y-79536297D01*
X121350042Y-79785010D01*
X121329975Y-80040000D01*
X121350042Y-80294989D01*
X121409752Y-80543702D01*
X121507634Y-80780012D01*
X121507636Y-80780015D01*
X121563362Y-80870951D01*
X122143752Y-80290561D01*
X122206740Y-80442626D01*
X122299762Y-80581844D01*
X122418156Y-80700238D01*
X122557374Y-80793260D01*
X122709437Y-80856247D01*
X122129047Y-81436636D01*
X122129047Y-81436637D01*
X122219984Y-81492363D01*
X122219987Y-81492365D01*
X122456297Y-81590247D01*
X122705011Y-81649957D01*
X122705010Y-81649957D01*
X122960000Y-81670024D01*
X123214989Y-81649957D01*
X123463702Y-81590247D01*
X123700010Y-81492365D01*
X123790950Y-81436636D01*
X123210562Y-80856247D01*
X123362626Y-80793260D01*
X123501844Y-80700238D01*
X123620238Y-80581844D01*
X123713260Y-80442626D01*
X123776247Y-80290561D01*
X124356636Y-80870950D01*
X124412365Y-80780010D01*
X124510247Y-80543702D01*
X124569957Y-80294989D01*
X124590024Y-80040000D01*
X124569957Y-79785010D01*
X124510247Y-79536297D01*
X124412366Y-79299990D01*
X124344223Y-79188790D01*
X124325979Y-79121344D01*
X124347096Y-79054741D01*
X124400867Y-79010128D01*
X124449951Y-79000000D01*
X125198556Y-79000000D01*
X125227501Y-79003425D01*
X125260621Y-79011377D01*
X125500000Y-79030217D01*
X125739379Y-79011377D01*
X125772498Y-79003425D01*
X125801444Y-79000000D01*
X126550049Y-79000000D01*
X126617088Y-79019685D01*
X126662843Y-79072489D01*
X126672787Y-79141647D01*
X126655777Y-79188790D01*
X126587633Y-79299990D01*
X126489752Y-79536297D01*
X126430042Y-79785010D01*
X126409975Y-80040000D01*
X126430042Y-80294989D01*
X126489752Y-80543702D01*
X126587634Y-80780012D01*
X126587636Y-80780015D01*
X126643362Y-80870951D01*
X127223752Y-80290561D01*
X127286740Y-80442626D01*
X127379762Y-80581844D01*
X127498156Y-80700238D01*
X127637374Y-80793260D01*
X127789437Y-80856247D01*
X127209047Y-81436636D01*
X127209047Y-81436637D01*
X127299984Y-81492363D01*
X127299987Y-81492365D01*
X127536297Y-81590247D01*
X127785011Y-81649957D01*
X127785010Y-81649957D01*
X128040000Y-81670024D01*
X128294989Y-81649957D01*
X128543702Y-81590247D01*
X128780010Y-81492365D01*
X128870950Y-81436636D01*
X128290562Y-80856247D01*
X128442626Y-80793260D01*
X128581844Y-80700238D01*
X128700238Y-80581844D01*
X128793260Y-80442626D01*
X128856247Y-80290561D01*
X129436636Y-80870950D01*
X129492365Y-80780010D01*
X129590247Y-80543702D01*
X129649957Y-80294989D01*
X129670024Y-80040000D01*
X129649957Y-79785010D01*
X129590247Y-79536297D01*
X129492365Y-79299987D01*
X129492363Y-79299984D01*
X129436636Y-79209047D01*
X128856246Y-79789436D01*
X128793260Y-79637374D01*
X128700238Y-79498156D01*
X128581844Y-79379762D01*
X128442626Y-79286740D01*
X128290561Y-79223752D01*
X128870951Y-78643362D01*
X128780015Y-78587636D01*
X128780012Y-78587634D01*
X128543702Y-78489752D01*
X128294988Y-78430042D01*
X128294989Y-78430042D01*
X128040000Y-78409975D01*
X127785010Y-78430042D01*
X127536297Y-78489752D01*
X127299990Y-78587633D01*
X127188790Y-78655777D01*
X127121344Y-78674021D01*
X127054741Y-78652904D01*
X127010128Y-78599133D01*
X127000000Y-78550049D01*
X127000000Y-77801444D01*
X127003426Y-77772497D01*
X127011376Y-77739382D01*
X127011377Y-77739379D01*
X127030217Y-77500000D01*
X127011377Y-77260621D01*
X127003426Y-77227500D01*
X127000000Y-77198555D01*
X127000000Y-76449950D01*
X127019685Y-76382911D01*
X127072489Y-76337156D01*
X127141647Y-76327212D01*
X127188790Y-76344223D01*
X127299984Y-76412363D01*
X127299987Y-76412365D01*
X127536297Y-76510247D01*
X127785011Y-76569957D01*
X127785010Y-76569957D01*
X128040000Y-76590024D01*
X128294989Y-76569957D01*
X128543702Y-76510247D01*
X128780010Y-76412365D01*
X128870950Y-76356636D01*
X128290561Y-75776247D01*
X128442626Y-75713260D01*
X128581844Y-75620238D01*
X128700238Y-75501844D01*
X128793260Y-75362626D01*
X128856247Y-75210561D01*
X129436636Y-75790950D01*
X129492365Y-75700010D01*
X129590247Y-75463702D01*
X129649957Y-75214989D01*
X129670024Y-74960000D01*
X129649957Y-74705010D01*
X129590247Y-74456297D01*
X129492365Y-74219987D01*
X129492363Y-74219984D01*
X129436636Y-74129047D01*
X128856246Y-74709436D01*
X128793260Y-74557374D01*
X128700238Y-74418156D01*
X128581844Y-74299762D01*
X128442626Y-74206740D01*
X128290561Y-74143752D01*
X128870951Y-73563362D01*
X128780015Y-73507636D01*
X128780012Y-73507634D01*
X128543702Y-73409752D01*
X128294988Y-73350042D01*
X128294989Y-73350042D01*
X128040000Y-73329975D01*
X127785010Y-73350042D01*
X127536297Y-73409752D01*
X127299995Y-73507631D01*
X127299985Y-73507636D01*
X127209047Y-73563362D01*
X127789438Y-74143752D01*
X127637374Y-74206740D01*
X127498156Y-74299762D01*
X127379762Y-74418156D01*
X127286740Y-74557374D01*
X127223752Y-74709437D01*
X126643362Y-74129047D01*
X126587636Y-74219985D01*
X126587631Y-74219995D01*
X126489752Y-74456297D01*
X126430042Y-74705010D01*
X126409975Y-74960000D01*
X126430042Y-75214989D01*
X126489752Y-75463702D01*
X126587633Y-75700009D01*
X126655777Y-75811210D01*
X126674021Y-75878656D01*
X126652904Y-75945259D01*
X126599133Y-75989872D01*
X126550049Y-76000000D01*
X125801444Y-76000000D01*
X125772498Y-75996574D01*
X125767231Y-75995309D01*
X125739382Y-75988623D01*
X125500000Y-75969783D01*
X125260617Y-75988623D01*
X125231615Y-75995586D01*
X125227501Y-75996574D01*
X125198556Y-76000000D01*
X124449951Y-76000000D01*
X124382912Y-75980315D01*
X124337157Y-75927511D01*
X124327213Y-75858353D01*
X124344223Y-75811210D01*
X124412366Y-75700009D01*
X124510247Y-75463702D01*
X124569957Y-75214989D01*
X124590024Y-74960000D01*
X124569957Y-74705010D01*
X124510247Y-74456297D01*
X124412365Y-74219987D01*
X124412363Y-74219984D01*
X124356636Y-74129047D01*
X123776246Y-74709436D01*
X123713260Y-74557374D01*
X123620238Y-74418156D01*
X123501844Y-74299762D01*
X123362626Y-74206740D01*
X123210561Y-74143752D01*
X123790951Y-73563362D01*
X123700015Y-73507636D01*
X123700012Y-73507634D01*
X123463702Y-73409752D01*
X123214988Y-73350042D01*
X123214989Y-73350042D01*
X122960000Y-73329975D01*
X122705010Y-73350042D01*
X122456297Y-73409752D01*
X122219995Y-73507631D01*
X122219985Y-73507636D01*
X122129047Y-73563362D01*
X122709438Y-74143752D01*
X122557374Y-74206740D01*
X122418156Y-74299762D01*
X122299762Y-74418156D01*
X122206740Y-74557374D01*
X122143752Y-74709437D01*
X121563362Y-74129047D01*
X121507636Y-74219985D01*
X121507631Y-74219995D01*
X121409752Y-74456297D01*
X121350042Y-74705010D01*
X121329975Y-74960000D01*
X121350042Y-75214989D01*
X121409752Y-75463702D01*
X121507633Y-75700009D01*
X121575777Y-75811210D01*
X121594021Y-75878656D01*
X121572904Y-75945259D01*
X121519133Y-75989872D01*
X121470049Y-76000000D01*
X116000000Y-76000000D01*
X100500500Y-76000000D01*
X100500500Y-71079998D01*
X103994390Y-71079998D01*
X103994390Y-71080001D01*
X104014804Y-71365433D01*
X104075628Y-71645037D01*
X104175635Y-71913166D01*
X104312770Y-72164309D01*
X104312775Y-72164317D01*
X104484254Y-72393387D01*
X104484270Y-72393405D01*
X104686594Y-72595729D01*
X104686612Y-72595745D01*
X104915682Y-72767224D01*
X104915690Y-72767229D01*
X105166833Y-72904364D01*
X105166832Y-72904364D01*
X105166836Y-72904365D01*
X105166839Y-72904367D01*
X105434954Y-73004369D01*
X105434960Y-73004370D01*
X105434962Y-73004371D01*
X105714566Y-73065195D01*
X105714568Y-73065195D01*
X105714572Y-73065196D01*
X105968220Y-73083337D01*
X105999999Y-73085610D01*
X106000000Y-73085610D01*
X106000001Y-73085610D01*
X106028595Y-73083564D01*
X106285428Y-73065196D01*
X106565046Y-73004369D01*
X106833161Y-72904367D01*
X107084315Y-72767226D01*
X107313395Y-72595739D01*
X107515739Y-72393395D01*
X107687226Y-72164315D01*
X107824367Y-71913161D01*
X107924369Y-71645046D01*
X107985196Y-71365428D01*
X108005610Y-71080000D01*
X107985196Y-70794572D01*
X107924369Y-70514954D01*
X107824367Y-70246839D01*
X107713445Y-70043702D01*
X107687229Y-69995690D01*
X107687224Y-69995682D01*
X107515745Y-69766612D01*
X107515729Y-69766594D01*
X107313405Y-69564270D01*
X107313387Y-69564254D01*
X107084317Y-69392775D01*
X107084309Y-69392770D01*
X106833166Y-69255635D01*
X106833167Y-69255635D01*
X106681231Y-69198966D01*
X106565046Y-69155631D01*
X106565043Y-69155630D01*
X106565037Y-69155628D01*
X106285433Y-69094804D01*
X106000001Y-69074390D01*
X105999999Y-69074390D01*
X105714566Y-69094804D01*
X105434962Y-69155628D01*
X105166833Y-69255635D01*
X104915690Y-69392770D01*
X104915682Y-69392775D01*
X104686612Y-69564254D01*
X104686594Y-69564270D01*
X104484270Y-69766594D01*
X104484254Y-69766612D01*
X104312775Y-69995682D01*
X104312770Y-69995690D01*
X104175635Y-70246833D01*
X104075628Y-70514962D01*
X104014804Y-70794566D01*
X103994390Y-71079998D01*
X100500500Y-71079998D01*
X100500500Y-68854724D01*
X114655074Y-68854724D01*
X114745476Y-69036278D01*
X114868332Y-69198966D01*
X115018984Y-69336302D01*
X115192310Y-69443622D01*
X115192315Y-69443624D01*
X115284723Y-69479423D01*
X115284724Y-69479423D01*
X115284724Y-68854724D01*
X114655074Y-68854724D01*
X100500500Y-68854724D01*
X100500500Y-64452155D01*
X104000000Y-64452155D01*
X104000000Y-65600000D01*
X105353228Y-65600000D01*
X105326497Y-65640005D01*
X105269207Y-65778316D01*
X105240000Y-65925147D01*
X105240000Y-66074853D01*
X105269207Y-66221684D01*
X105326497Y-66359995D01*
X105353228Y-66400000D01*
X104000000Y-66400000D01*
X104000000Y-67547844D01*
X104006401Y-67607372D01*
X104006403Y-67607379D01*
X104056645Y-67742086D01*
X104056649Y-67742093D01*
X104142809Y-67857187D01*
X104142812Y-67857190D01*
X104257906Y-67943350D01*
X104257913Y-67943354D01*
X104392620Y-67993596D01*
X104392627Y-67993598D01*
X104452155Y-67999999D01*
X104452172Y-68000000D01*
X105600000Y-68000000D01*
X105600000Y-66646772D01*
X105640005Y-66673503D01*
X105778316Y-66730793D01*
X105925147Y-66760000D01*
X106074853Y-66760000D01*
X106221684Y-66730793D01*
X106359995Y-66673503D01*
X106400000Y-66646772D01*
X106400000Y-68000000D01*
X107547828Y-68000000D01*
X107547844Y-67999999D01*
X107607372Y-67993598D01*
X107607379Y-67993596D01*
X107742086Y-67943354D01*
X107742093Y-67943350D01*
X107857187Y-67857190D01*
X107857190Y-67857187D01*
X107943350Y-67742093D01*
X107943354Y-67742086D01*
X107993596Y-67607379D01*
X107993598Y-67607372D01*
X107999999Y-67547844D01*
X108000000Y-67547827D01*
X108000000Y-67098113D01*
X113114224Y-67098113D01*
X113114224Y-67271335D01*
X113141322Y-67442425D01*
X113194851Y-67607169D01*
X113273492Y-67761512D01*
X113375310Y-67901652D01*
X113497796Y-68024138D01*
X113637936Y-68125956D01*
X113792279Y-68204597D01*
X113957023Y-68258126D01*
X114128113Y-68285224D01*
X114128114Y-68285224D01*
X114701334Y-68285224D01*
X114701335Y-68285224D01*
X114872425Y-68258126D01*
X115037169Y-68204597D01*
X115191512Y-68125956D01*
X115228431Y-68099133D01*
X115256960Y-68078406D01*
X115322766Y-68054926D01*
X115329845Y-68054724D01*
X115876000Y-68054724D01*
X115943039Y-68074409D01*
X115988794Y-68127213D01*
X116000000Y-68178724D01*
X116000000Y-68300798D01*
X115964794Y-68239819D01*
X115899629Y-68174654D01*
X115819819Y-68128576D01*
X115730802Y-68104724D01*
X115638646Y-68104724D01*
X115549629Y-68128576D01*
X115469819Y-68174654D01*
X115404654Y-68239819D01*
X115358576Y-68319629D01*
X115334724Y-68408646D01*
X115334724Y-68500802D01*
X115358576Y-68589819D01*
X115404654Y-68669629D01*
X115469819Y-68734794D01*
X115549629Y-68780872D01*
X115638646Y-68804724D01*
X115730802Y-68804724D01*
X115819819Y-68780872D01*
X115899629Y-68734794D01*
X115964794Y-68669629D01*
X116010872Y-68589819D01*
X116029215Y-68521360D01*
X116073518Y-68572489D01*
X116084724Y-68624000D01*
X116084724Y-69479423D01*
X116177132Y-69443624D01*
X116177137Y-69443622D01*
X116350463Y-69336302D01*
X116501115Y-69198966D01*
X116623969Y-69036280D01*
X116714837Y-68853793D01*
X116714840Y-68853787D01*
X116770626Y-68657716D01*
X116770627Y-68657713D01*
X116774811Y-68612559D01*
X116800597Y-68547622D01*
X116857397Y-68506934D01*
X116898282Y-68500000D01*
X121470049Y-68500000D01*
X121537088Y-68519685D01*
X121582843Y-68572489D01*
X121592787Y-68641647D01*
X121575777Y-68688790D01*
X121507633Y-68799990D01*
X121409752Y-69036297D01*
X121350042Y-69285010D01*
X121329975Y-69540000D01*
X121350042Y-69794989D01*
X121409752Y-70043702D01*
X121507634Y-70280012D01*
X121507636Y-70280015D01*
X121563362Y-70370951D01*
X122143752Y-69790561D01*
X122206740Y-69942626D01*
X122299762Y-70081844D01*
X122418156Y-70200238D01*
X122557374Y-70293260D01*
X122709437Y-70356247D01*
X122129047Y-70936636D01*
X122129047Y-70936637D01*
X122219984Y-70992363D01*
X122219987Y-70992365D01*
X122456297Y-71090247D01*
X122705011Y-71149957D01*
X122705010Y-71149957D01*
X122960000Y-71170024D01*
X123214989Y-71149957D01*
X123463702Y-71090247D01*
X123700010Y-70992365D01*
X123790950Y-70936636D01*
X123210562Y-70356247D01*
X123362626Y-70293260D01*
X123501844Y-70200238D01*
X123620238Y-70081844D01*
X123713260Y-69942626D01*
X123776247Y-69790561D01*
X124356636Y-70370950D01*
X124412365Y-70280010D01*
X124510247Y-70043702D01*
X124569957Y-69794989D01*
X124590024Y-69540000D01*
X124569957Y-69285010D01*
X124510247Y-69036297D01*
X124412366Y-68799990D01*
X124344223Y-68688790D01*
X124325979Y-68621344D01*
X124347096Y-68554741D01*
X124400867Y-68510128D01*
X124449951Y-68500000D01*
X125198556Y-68500000D01*
X125227501Y-68503425D01*
X125260621Y-68511377D01*
X125500000Y-68530217D01*
X125739379Y-68511377D01*
X125772498Y-68503425D01*
X125801444Y-68500000D01*
X126550049Y-68500000D01*
X126617088Y-68519685D01*
X126662843Y-68572489D01*
X126672787Y-68641647D01*
X126655777Y-68688790D01*
X126587633Y-68799990D01*
X126489752Y-69036297D01*
X126430042Y-69285010D01*
X126409975Y-69540000D01*
X126430042Y-69794989D01*
X126489752Y-70043702D01*
X126587634Y-70280012D01*
X126587636Y-70280015D01*
X126643362Y-70370951D01*
X127223752Y-69790561D01*
X127286740Y-69942626D01*
X127379762Y-70081844D01*
X127498156Y-70200238D01*
X127637374Y-70293260D01*
X127789437Y-70356247D01*
X127209047Y-70936636D01*
X127209047Y-70936637D01*
X127299984Y-70992363D01*
X127299987Y-70992365D01*
X127536297Y-71090247D01*
X127785011Y-71149957D01*
X127785010Y-71149957D01*
X128040000Y-71170024D01*
X128294989Y-71149957D01*
X128543702Y-71090247D01*
X128780010Y-70992365D01*
X128870950Y-70936636D01*
X128290562Y-70356247D01*
X128442626Y-70293260D01*
X128581844Y-70200238D01*
X128700238Y-70081844D01*
X128793260Y-69942626D01*
X128856247Y-69790561D01*
X129436636Y-70370950D01*
X129492365Y-70280010D01*
X129590247Y-70043702D01*
X129649957Y-69794989D01*
X129670024Y-69540000D01*
X129649957Y-69285010D01*
X129590247Y-69036297D01*
X129492365Y-68799987D01*
X129492363Y-68799984D01*
X129436636Y-68709047D01*
X128856246Y-69289436D01*
X128793260Y-69137374D01*
X128700238Y-68998156D01*
X128581844Y-68879762D01*
X128442626Y-68786740D01*
X128290561Y-68723752D01*
X128870951Y-68143362D01*
X128780015Y-68087636D01*
X128780012Y-68087634D01*
X128543702Y-67989752D01*
X128294988Y-67930042D01*
X128294989Y-67930042D01*
X128040000Y-67909975D01*
X127785010Y-67930042D01*
X127536297Y-67989752D01*
X127299990Y-68087633D01*
X127188790Y-68155777D01*
X127121344Y-68174021D01*
X127054741Y-68152904D01*
X127010128Y-68099133D01*
X127000000Y-68050049D01*
X127000000Y-67301444D01*
X127003426Y-67272497D01*
X127011376Y-67239382D01*
X127011377Y-67239379D01*
X127030217Y-67000000D01*
X127011377Y-66760621D01*
X127003426Y-66727500D01*
X127000000Y-66698555D01*
X127000000Y-65949950D01*
X127019685Y-65882911D01*
X127072489Y-65837156D01*
X127141647Y-65827212D01*
X127188790Y-65844223D01*
X127299984Y-65912363D01*
X127299987Y-65912365D01*
X127536297Y-66010247D01*
X127785011Y-66069957D01*
X127785010Y-66069957D01*
X128040000Y-66090024D01*
X128294989Y-66069957D01*
X128543702Y-66010247D01*
X128780010Y-65912365D01*
X128870950Y-65856636D01*
X128290561Y-65276247D01*
X128442626Y-65213260D01*
X128581844Y-65120238D01*
X128700238Y-65001844D01*
X128793260Y-64862626D01*
X128856247Y-64710561D01*
X129436636Y-65290950D01*
X129492365Y-65200010D01*
X129590247Y-64963702D01*
X129649957Y-64714989D01*
X129670024Y-64460000D01*
X129649957Y-64205010D01*
X129590247Y-63956297D01*
X129492365Y-63719987D01*
X129492363Y-63719984D01*
X129436636Y-63629047D01*
X128856246Y-64209436D01*
X128793260Y-64057374D01*
X128700238Y-63918156D01*
X128581844Y-63799762D01*
X128442626Y-63706740D01*
X128290561Y-63643752D01*
X128870951Y-63063362D01*
X128780015Y-63007636D01*
X128780012Y-63007634D01*
X128543702Y-62909752D01*
X128294988Y-62850042D01*
X128294989Y-62850042D01*
X128040000Y-62829975D01*
X127785010Y-62850042D01*
X127536297Y-62909752D01*
X127299995Y-63007631D01*
X127299985Y-63007636D01*
X127209047Y-63063362D01*
X127789438Y-63643752D01*
X127637374Y-63706740D01*
X127498156Y-63799762D01*
X127379762Y-63918156D01*
X127286740Y-64057374D01*
X127223752Y-64209437D01*
X126643362Y-63629047D01*
X126587636Y-63719985D01*
X126587631Y-63719995D01*
X126489752Y-63956297D01*
X126430042Y-64205010D01*
X126409975Y-64460000D01*
X126430042Y-64714989D01*
X126489752Y-64963702D01*
X126587633Y-65200009D01*
X126655777Y-65311210D01*
X126674021Y-65378656D01*
X126652904Y-65445259D01*
X126599133Y-65489872D01*
X126550049Y-65500000D01*
X125801444Y-65500000D01*
X125772498Y-65496574D01*
X125767231Y-65495309D01*
X125739382Y-65488623D01*
X125500000Y-65469783D01*
X125260617Y-65488623D01*
X125231615Y-65495586D01*
X125227501Y-65496574D01*
X125198556Y-65500000D01*
X124449951Y-65500000D01*
X124382912Y-65480315D01*
X124337157Y-65427511D01*
X124327213Y-65358353D01*
X124344223Y-65311210D01*
X124412366Y-65200009D01*
X124510247Y-64963702D01*
X124569957Y-64714989D01*
X124590024Y-64460000D01*
X124569957Y-64205010D01*
X124510247Y-63956297D01*
X124412365Y-63719987D01*
X124412363Y-63719984D01*
X124356636Y-63629047D01*
X123776246Y-64209436D01*
X123713260Y-64057374D01*
X123620238Y-63918156D01*
X123501844Y-63799762D01*
X123362626Y-63706740D01*
X123210561Y-63643752D01*
X123790951Y-63063362D01*
X123700015Y-63007636D01*
X123700012Y-63007634D01*
X123463702Y-62909752D01*
X123214988Y-62850042D01*
X123214989Y-62850042D01*
X122960000Y-62829975D01*
X122705010Y-62850042D01*
X122456297Y-62909752D01*
X122219995Y-63007631D01*
X122219985Y-63007636D01*
X122129047Y-63063362D01*
X122709438Y-63643752D01*
X122557374Y-63706740D01*
X122418156Y-63799762D01*
X122299762Y-63918156D01*
X122206740Y-64057374D01*
X122143752Y-64209437D01*
X121563362Y-63629047D01*
X121507636Y-63719985D01*
X121507631Y-63719995D01*
X121409752Y-63956297D01*
X121350042Y-64205010D01*
X121329975Y-64460000D01*
X121350042Y-64714989D01*
X121409752Y-64963702D01*
X121507633Y-65200009D01*
X121575777Y-65311210D01*
X121594021Y-65378656D01*
X121572904Y-65445259D01*
X121519133Y-65489872D01*
X121470049Y-65500000D01*
X116000000Y-65500000D01*
X116000000Y-66603965D01*
X115987000Y-66659236D01*
X115924143Y-66785468D01*
X115924143Y-66785470D01*
X115903886Y-66856665D01*
X115866606Y-66915758D01*
X115803296Y-66945315D01*
X115734057Y-66935953D01*
X115680871Y-66890642D01*
X115666689Y-66861048D01*
X115665265Y-66856665D01*
X115634597Y-66762279D01*
X115555956Y-66607936D01*
X115454138Y-66467796D01*
X115331652Y-66345310D01*
X115191512Y-66243492D01*
X115037169Y-66164851D01*
X114872425Y-66111322D01*
X114872423Y-66111321D01*
X114872422Y-66111321D01*
X114737955Y-66090024D01*
X114701335Y-66084224D01*
X114128113Y-66084224D01*
X114091493Y-66090024D01*
X113957026Y-66111321D01*
X113792276Y-66164852D01*
X113637935Y-66243492D01*
X113557980Y-66301583D01*
X113497796Y-66345310D01*
X113497794Y-66345312D01*
X113497793Y-66345312D01*
X113375312Y-66467793D01*
X113375312Y-66467794D01*
X113375310Y-66467796D01*
X113331583Y-66527980D01*
X113273492Y-66607935D01*
X113194852Y-66762276D01*
X113141321Y-66927026D01*
X113114224Y-67098113D01*
X108000000Y-67098113D01*
X108000000Y-66400000D01*
X106646772Y-66400000D01*
X106673503Y-66359995D01*
X106730793Y-66221684D01*
X106760000Y-66074853D01*
X106760000Y-65925147D01*
X106730793Y-65778316D01*
X106673503Y-65640005D01*
X106646772Y-65600000D01*
X108000000Y-65600000D01*
X108000000Y-64452172D01*
X107999999Y-64452155D01*
X107993598Y-64392627D01*
X107993596Y-64392620D01*
X107943354Y-64257913D01*
X107943350Y-64257906D01*
X107857190Y-64142812D01*
X107857187Y-64142809D01*
X107742093Y-64056649D01*
X107742086Y-64056645D01*
X107607379Y-64006403D01*
X107607372Y-64006401D01*
X107547844Y-64000000D01*
X106400000Y-64000000D01*
X106400000Y-65353227D01*
X106359995Y-65326497D01*
X106221684Y-65269207D01*
X106074853Y-65240000D01*
X105925147Y-65240000D01*
X105778316Y-65269207D01*
X105640005Y-65326497D01*
X105600000Y-65353227D01*
X105600000Y-64000000D01*
X104452155Y-64000000D01*
X104392627Y-64006401D01*
X104392620Y-64006403D01*
X104257913Y-64056645D01*
X104257906Y-64056649D01*
X104142812Y-64142809D01*
X104142809Y-64142812D01*
X104056649Y-64257906D01*
X104056645Y-64257913D01*
X104006403Y-64392620D01*
X104006401Y-64392627D01*
X104000000Y-64452155D01*
X100500500Y-64452155D01*
X100500500Y-60624500D01*
X100520185Y-60557461D01*
X100572989Y-60511706D01*
X100624500Y-60500500D01*
X131375500Y-60500500D01*
X131442539Y-60520185D01*
G37*
%TD.AperFunction*%
%TD*%
M02*
