%TF.GenerationSoftware,KiCad,Pcbnew,8.0.2*%
%TF.CreationDate,2025-01-11T01:25:54-03:00*%
%TF.ProjectId,PD,50442e6b-6963-4616-945f-706362585858,rev?*%
%TF.SameCoordinates,Original*%
%TF.FileFunction,Legend,Bot*%
%TF.FilePolarity,Positive*%
%FSLAX46Y46*%
G04 Gerber Fmt 4.6, Leading zero omitted, Abs format (unit mm)*
G04 Created by KiCad (PCBNEW 8.0.2) date 2025-01-11 01:25:54*
%MOMM*%
%LPD*%
G01*
G04 APERTURE LIST*
%ADD10C,0.150000*%
%ADD11C,0.120000*%
G04 APERTURE END LIST*
D10*
G36*
X127889204Y-82603635D02*
G01*
X127937461Y-82622612D01*
X127969957Y-82645635D01*
X128003179Y-82682101D01*
X128027280Y-82726014D01*
X128041276Y-82772397D01*
X128101849Y-83063534D01*
X128107009Y-83113967D01*
X128097406Y-83164193D01*
X128083042Y-83190052D01*
X128044694Y-83222777D01*
X127995522Y-83236755D01*
X127973133Y-83237923D01*
X127923838Y-83232267D01*
X127875593Y-83213193D01*
X127843195Y-83190052D01*
X127809974Y-83153504D01*
X127785873Y-83109683D01*
X127771876Y-83063534D01*
X127711304Y-82772397D01*
X127706143Y-82721715D01*
X127715746Y-82671417D01*
X127730111Y-82645635D01*
X127768339Y-82613077D01*
X127817566Y-82599170D01*
X127840020Y-82598007D01*
X127889204Y-82603635D01*
G37*
G36*
X128412389Y-83536369D02*
G01*
X127400644Y-83536369D01*
X127400644Y-82685726D01*
X127511755Y-82685726D01*
X127514336Y-82721715D01*
X127515411Y-82736704D01*
X127522260Y-82777281D01*
X127580879Y-83058893D01*
X127594648Y-83112154D01*
X127613241Y-83162025D01*
X127636657Y-83208507D01*
X127664898Y-83251601D01*
X127697306Y-83290665D01*
X127733225Y-83325057D01*
X127772655Y-83354778D01*
X127815596Y-83379829D01*
X127861391Y-83399704D01*
X127909385Y-83413900D01*
X127959577Y-83422418D01*
X128011967Y-83425258D01*
X128063273Y-83422418D01*
X128115482Y-83412436D01*
X128161857Y-83395267D01*
X128189532Y-83379829D01*
X128229250Y-83347786D01*
X128260477Y-83308445D01*
X128283212Y-83261805D01*
X128286740Y-83251601D01*
X128297931Y-83202882D01*
X128301278Y-83149875D01*
X128297667Y-83099156D01*
X128290892Y-83058893D01*
X128232274Y-82777281D01*
X128218413Y-82723624D01*
X128199790Y-82673539D01*
X128176404Y-82627026D01*
X128148255Y-82584085D01*
X128115847Y-82545235D01*
X128079928Y-82510996D01*
X128040498Y-82481366D01*
X127997557Y-82456346D01*
X127951746Y-82436471D01*
X127903706Y-82422274D01*
X127853438Y-82413756D01*
X127800941Y-82410917D01*
X127749742Y-82413756D01*
X127697617Y-82423738D01*
X127651287Y-82440908D01*
X127623621Y-82456346D01*
X127583903Y-82488341D01*
X127552676Y-82527539D01*
X127529941Y-82573941D01*
X127526412Y-82584085D01*
X127515123Y-82632645D01*
X127511755Y-82685726D01*
X127400644Y-82685726D01*
X127400644Y-82299806D01*
X128412389Y-82299806D01*
X128412389Y-83536369D01*
G37*
G36*
X103653782Y-75536369D02*
G01*
X101073490Y-75536369D01*
X101073490Y-74720689D01*
X101184601Y-74720689D01*
X101185240Y-74754078D01*
X101375260Y-74754078D01*
X101379794Y-74705291D01*
X101390892Y-74669570D01*
X101419347Y-74628267D01*
X101434123Y-74616570D01*
X101480079Y-74599475D01*
X101501290Y-74598007D01*
X101551298Y-74603722D01*
X101599268Y-74622990D01*
X101630738Y-74646367D01*
X101662632Y-74684093D01*
X101686445Y-74731113D01*
X101701080Y-74781922D01*
X101757745Y-75054741D01*
X101764232Y-75105527D01*
X101758920Y-75156268D01*
X101743579Y-75190052D01*
X101706646Y-75222777D01*
X101657115Y-75236755D01*
X101634158Y-75237923D01*
X101583548Y-75230163D01*
X101536865Y-75206882D01*
X101524249Y-75197379D01*
X101489444Y-75162048D01*
X101462367Y-75121333D01*
X101443648Y-75082096D01*
X101253628Y-75082096D01*
X101272643Y-75128128D01*
X101296979Y-75177015D01*
X101324094Y-75221933D01*
X101353987Y-75262882D01*
X101357919Y-75267721D01*
X101394835Y-75308100D01*
X101434418Y-75342683D01*
X101476666Y-75371469D01*
X101501290Y-75384958D01*
X101547181Y-75404439D01*
X101595005Y-75417544D01*
X101644760Y-75424274D01*
X101673237Y-75425258D01*
X101726421Y-75422556D01*
X101779976Y-75413057D01*
X101826885Y-75396718D01*
X101854465Y-75382027D01*
X101893534Y-75350991D01*
X101923731Y-75312227D01*
X101945054Y-75265735D01*
X101948254Y-75255509D01*
X101957893Y-75205955D01*
X101959881Y-75150992D01*
X101955225Y-75097594D01*
X101947766Y-75054741D01*
X101891101Y-74781922D01*
X101878696Y-74731910D01*
X101874932Y-74720689D01*
X102022843Y-74720689D01*
X102023481Y-74754078D01*
X102213502Y-74754078D01*
X102218035Y-74705291D01*
X102229133Y-74669570D01*
X102257589Y-74628267D01*
X102272364Y-74616570D01*
X102318320Y-74599475D01*
X102339531Y-74598007D01*
X102389539Y-74603722D01*
X102437510Y-74622990D01*
X102468980Y-74646367D01*
X102500874Y-74684093D01*
X102524686Y-74731113D01*
X102539322Y-74781922D01*
X102595986Y-75054741D01*
X102602474Y-75105527D01*
X102597162Y-75156268D01*
X102581820Y-75190052D01*
X102544888Y-75222777D01*
X102495357Y-75236755D01*
X102472399Y-75237923D01*
X102421790Y-75230163D01*
X102375107Y-75206882D01*
X102362490Y-75197379D01*
X102327685Y-75162048D01*
X102300609Y-75121333D01*
X102281890Y-75082096D01*
X102091869Y-75082096D01*
X102110884Y-75128128D01*
X102135221Y-75177015D01*
X102162336Y-75221933D01*
X102192229Y-75262882D01*
X102196161Y-75267721D01*
X102233077Y-75308100D01*
X102272659Y-75342683D01*
X102314908Y-75371469D01*
X102339531Y-75384958D01*
X102385423Y-75404439D01*
X102433246Y-75417544D01*
X102483001Y-75424274D01*
X102511478Y-75425258D01*
X102564662Y-75422556D01*
X102618217Y-75413057D01*
X102665126Y-75396718D01*
X102692706Y-75382027D01*
X102731776Y-75350991D01*
X102761972Y-75312227D01*
X102783296Y-75265735D01*
X102786496Y-75255509D01*
X102796134Y-75205955D01*
X102798122Y-75150992D01*
X102793466Y-75097594D01*
X102786007Y-75054741D01*
X102729343Y-74781922D01*
X102716937Y-74731910D01*
X102701306Y-74685311D01*
X102679492Y-74636233D01*
X102653465Y-74591613D01*
X102646300Y-74581154D01*
X102615175Y-74542198D01*
X102575815Y-74504210D01*
X102531858Y-74472405D01*
X102499999Y-74454637D01*
X102454554Y-74435509D01*
X102406148Y-74421847D01*
X102400408Y-74420931D01*
X102752302Y-74420931D01*
X103282309Y-75415000D01*
X103425435Y-75415000D01*
X103542671Y-74420931D01*
X103354116Y-74420931D01*
X103285240Y-75084050D01*
X102940857Y-74420931D01*
X102752302Y-74420931D01*
X102400408Y-74420931D01*
X102354781Y-74413650D01*
X102300452Y-74410917D01*
X102250918Y-74414105D01*
X102201182Y-74425125D01*
X102152919Y-74446337D01*
X102144870Y-74451217D01*
X102105021Y-74483224D01*
X102072791Y-74523831D01*
X102050103Y-74568210D01*
X102033965Y-74619210D01*
X102025518Y-74670616D01*
X102022843Y-74720689D01*
X101874932Y-74720689D01*
X101863065Y-74685311D01*
X101841251Y-74636233D01*
X101815224Y-74591613D01*
X101808059Y-74581154D01*
X101776933Y-74542198D01*
X101737574Y-74504210D01*
X101693617Y-74472405D01*
X101661757Y-74454637D01*
X101616313Y-74435509D01*
X101567907Y-74421847D01*
X101516540Y-74413650D01*
X101462211Y-74410917D01*
X101412677Y-74414105D01*
X101362941Y-74425125D01*
X101314678Y-74446337D01*
X101306628Y-74451217D01*
X101266779Y-74483224D01*
X101234550Y-74523831D01*
X101211862Y-74568210D01*
X101195724Y-74619210D01*
X101187277Y-74670616D01*
X101184601Y-74720689D01*
X101073490Y-74720689D01*
X101073490Y-74299806D01*
X103653782Y-74299806D01*
X103653782Y-75536369D01*
G37*
G36*
X101696047Y-62234504D02*
G01*
X101553558Y-62234504D01*
X101500177Y-62230139D01*
X101452998Y-62217044D01*
X101408264Y-62192557D01*
X101404570Y-62189808D01*
X101369066Y-62154697D01*
X101343490Y-62111159D01*
X101328854Y-62064267D01*
X101268038Y-61771664D01*
X101263205Y-61720105D01*
X101274907Y-61670410D01*
X101291485Y-61645879D01*
X101332334Y-61617098D01*
X101379871Y-61604205D01*
X101421911Y-61601427D01*
X101564453Y-61601427D01*
X101696047Y-62234504D01*
G37*
G36*
X103857679Y-62536369D02*
G01*
X100958029Y-62536369D01*
X100958029Y-61660869D01*
X101069140Y-61660869D01*
X101070119Y-61716396D01*
X101070637Y-61720105D01*
X101077153Y-61766762D01*
X101079238Y-61777281D01*
X101137856Y-62058893D01*
X101151198Y-62110291D01*
X101169242Y-62158483D01*
X101191987Y-62203470D01*
X101219434Y-62245251D01*
X101251323Y-62283108D01*
X101287638Y-62316570D01*
X101328381Y-62345635D01*
X101373551Y-62370303D01*
X101422888Y-62389858D01*
X101476377Y-62403825D01*
X101526586Y-62411464D01*
X101579974Y-62414825D01*
X101595812Y-62415000D01*
X101733565Y-62415000D01*
X101916747Y-62415000D01*
X101710117Y-61420931D01*
X101945079Y-61420931D01*
X102151464Y-62414267D01*
X102376656Y-62414267D01*
X102572312Y-61697249D01*
X102721283Y-62414267D01*
X102896405Y-62414267D01*
X102748142Y-61700672D01*
X102956952Y-61700672D01*
X102956977Y-61706207D01*
X103154814Y-61706207D01*
X103170699Y-61658559D01*
X103197801Y-61631224D01*
X103244297Y-61609895D01*
X103285484Y-61604846D01*
X103334251Y-61610618D01*
X103382250Y-61630081D01*
X103414688Y-61653695D01*
X103447799Y-61690775D01*
X103471906Y-61735187D01*
X103486007Y-61781922D01*
X103547068Y-62075258D01*
X103550777Y-62124282D01*
X103536699Y-62171579D01*
X103524598Y-62188586D01*
X103484774Y-62217638D01*
X103434650Y-62230047D01*
X103412002Y-62231085D01*
X103363043Y-62225630D01*
X103315164Y-62207237D01*
X103283041Y-62184923D01*
X103247596Y-62145184D01*
X103224276Y-62099765D01*
X103211722Y-62056207D01*
X103208059Y-62039598D01*
X103355093Y-62039598D01*
X103317724Y-61859347D01*
X102980669Y-61859347D01*
X103020969Y-62053276D01*
X103033050Y-62100967D01*
X103051323Y-62152151D01*
X103074358Y-62199794D01*
X103102156Y-62243895D01*
X103105965Y-62249159D01*
X103138450Y-62288695D01*
X103174353Y-62323531D01*
X103213676Y-62353664D01*
X103256419Y-62379096D01*
X103301894Y-62399292D01*
X103349659Y-62413717D01*
X103399713Y-62422373D01*
X103452057Y-62425258D01*
X103503654Y-62422556D01*
X103556299Y-62413057D01*
X103603225Y-62396718D01*
X103631332Y-62382027D01*
X103671813Y-62351396D01*
X103703803Y-62313849D01*
X103727302Y-62269384D01*
X103730983Y-62259661D01*
X103743543Y-62207650D01*
X103746568Y-62156475D01*
X103742671Y-62107516D01*
X103737089Y-62075258D01*
X103676028Y-61781922D01*
X103664054Y-61734254D01*
X103645903Y-61683154D01*
X103622990Y-61635656D01*
X103595314Y-61591761D01*
X103591520Y-61586528D01*
X103559036Y-61547113D01*
X103523132Y-61512400D01*
X103483809Y-61482389D01*
X103441067Y-61457079D01*
X103395469Y-61436883D01*
X103347583Y-61422458D01*
X103297406Y-61413802D01*
X103244940Y-61410917D01*
X103192122Y-61414519D01*
X103143884Y-61425324D01*
X103096112Y-61445529D01*
X103092044Y-61447798D01*
X103050870Y-61476645D01*
X103016680Y-61512477D01*
X102991660Y-61551113D01*
X102971473Y-61599302D01*
X102960635Y-61647769D01*
X102956952Y-61700672D01*
X102748142Y-61700672D01*
X102690020Y-61420931D01*
X102466049Y-61420931D01*
X102271564Y-62148266D01*
X102120445Y-61420931D01*
X101945079Y-61420931D01*
X101710117Y-61420931D01*
X101617794Y-61420931D01*
X101388450Y-61420931D01*
X101333710Y-61423215D01*
X101283979Y-61430066D01*
X101230913Y-61444317D01*
X101185060Y-61465146D01*
X101140681Y-61497759D01*
X101124667Y-61514476D01*
X101094945Y-61558942D01*
X101076302Y-61610700D01*
X101069140Y-61660869D01*
X100958029Y-61660869D01*
X100958029Y-61299806D01*
X103857679Y-61299806D01*
X103857679Y-62536369D01*
G37*
G36*
X127575110Y-72349089D02*
G01*
X127363746Y-72349089D01*
X127314375Y-72339507D01*
X127276307Y-72315139D01*
X127245105Y-72275755D01*
X127227943Y-72229405D01*
X127227215Y-72225990D01*
X127224101Y-72174883D01*
X127238694Y-72135376D01*
X127278288Y-72106201D01*
X127312211Y-72101427D01*
X127523630Y-72101427D01*
X127575110Y-72349089D01*
G37*
G36*
X128490725Y-72575258D02*
G01*
X128258335Y-72575258D01*
X128304081Y-72236249D01*
X128490725Y-72575258D01*
G37*
G36*
X128986232Y-73026111D02*
G01*
X126917926Y-73026111D01*
X126917926Y-72165346D01*
X127029037Y-72165346D01*
X127030183Y-72174883D01*
X127034951Y-72214543D01*
X127037194Y-72225990D01*
X127050439Y-72275675D01*
X127069016Y-72321689D01*
X127095911Y-72368510D01*
X127108513Y-72385969D01*
X127143694Y-72425707D01*
X127183598Y-72459433D01*
X127228225Y-72487149D01*
X127237717Y-72491971D01*
X127287081Y-72511677D01*
X127339307Y-72524085D01*
X127388757Y-72529012D01*
X127405756Y-72529340D01*
X127612578Y-72529340D01*
X127692742Y-72915000D01*
X127875924Y-72915000D01*
X128015386Y-72915000D01*
X128212490Y-72915000D01*
X128233979Y-72755753D01*
X128590098Y-72755753D01*
X128677773Y-72915000D01*
X128875121Y-72915000D01*
X128296754Y-71920931D01*
X128180494Y-71920931D01*
X128071815Y-72575258D01*
X128015386Y-72915000D01*
X127875924Y-72915000D01*
X127669294Y-71920931D01*
X127585519Y-71920931D01*
X127279238Y-71920931D01*
X127230035Y-71923945D01*
X127181119Y-71934364D01*
X127134310Y-71954419D01*
X127126587Y-71959033D01*
X127086161Y-71991720D01*
X127056107Y-72032993D01*
X127041834Y-72065279D01*
X127030487Y-72115124D01*
X127029037Y-72165346D01*
X126917926Y-72165346D01*
X126917926Y-71809820D01*
X128986232Y-71809820D01*
X128986232Y-73026111D01*
G37*
G36*
X128478940Y-62526111D02*
G01*
X127334457Y-62526111D01*
X127334457Y-61420931D01*
X127445568Y-61420931D01*
X127652198Y-62415000D01*
X127835624Y-62415000D01*
X127751906Y-62012243D01*
X128100929Y-62012243D01*
X128184647Y-62415000D01*
X128367829Y-62415000D01*
X128161200Y-61420931D01*
X127978018Y-61420931D01*
X128063462Y-61831992D01*
X127714439Y-61831992D01*
X127628995Y-61420931D01*
X127445568Y-61420931D01*
X127334457Y-61420931D01*
X127334457Y-61309820D01*
X128478940Y-61309820D01*
X128478940Y-62526111D01*
G37*
G36*
X106460641Y-62825259D02*
G01*
X106513296Y-62821478D01*
X106563123Y-62810136D01*
X106605966Y-62793263D01*
X106648724Y-62768039D01*
X106688721Y-62733543D01*
X106714165Y-62702893D01*
X106600104Y-62620827D01*
X106567521Y-62658329D01*
X106544661Y-62672851D01*
X106497602Y-62688146D01*
X106460641Y-62691169D01*
X106409054Y-62685195D01*
X106362651Y-62665051D01*
X106334612Y-62640611D01*
X106307226Y-62596922D01*
X106293226Y-62546736D01*
X106289671Y-62498462D01*
X106289671Y-61821176D01*
X106150208Y-61821176D01*
X106150208Y-62499194D01*
X106153059Y-62554908D01*
X106161611Y-62605726D01*
X106178795Y-62658829D01*
X106203740Y-62705270D01*
X106231297Y-62739774D01*
X106269904Y-62773083D01*
X106314985Y-62798211D01*
X106366542Y-62815157D01*
X106415887Y-62823172D01*
X106460641Y-62825259D01*
G37*
G36*
X105647312Y-62825259D02*
G01*
X105701458Y-62821183D01*
X105750566Y-62808955D01*
X105799791Y-62785456D01*
X105833670Y-62760046D01*
X105866658Y-62723974D01*
X105892837Y-62681216D01*
X105912209Y-62631773D01*
X105923574Y-62583024D01*
X105924772Y-62575643D01*
X105924772Y-62575154D01*
X105785310Y-62575154D01*
X105785310Y-62575643D01*
X105770594Y-62624308D01*
X105741590Y-62660883D01*
X105696979Y-62684515D01*
X105647312Y-62691169D01*
X105597936Y-62683793D01*
X105553386Y-62656949D01*
X105543753Y-62646473D01*
X105518709Y-62600351D01*
X105508405Y-62549655D01*
X105507117Y-62520444D01*
X105507117Y-62436913D01*
X105511446Y-62385354D01*
X105527725Y-62335659D01*
X105543753Y-62311128D01*
X105584755Y-62279221D01*
X105635031Y-62267066D01*
X105647312Y-62266675D01*
X105695746Y-62276373D01*
X105716922Y-62287192D01*
X105755600Y-62319229D01*
X105775784Y-62344589D01*
X105903035Y-62344589D01*
X105903035Y-61821176D01*
X105396475Y-61821176D01*
X105396475Y-61953556D01*
X105763572Y-61953556D01*
X105763572Y-62177282D01*
X105721074Y-62150904D01*
X105705442Y-62144554D01*
X105656395Y-62133563D01*
X105639741Y-62132830D01*
X105585710Y-62136640D01*
X105537312Y-62148071D01*
X105488899Y-62170465D01*
X105447843Y-62202812D01*
X105438729Y-62212453D01*
X105407634Y-62256341D01*
X105387713Y-62301429D01*
X105374595Y-62352759D01*
X105368765Y-62401723D01*
X105367654Y-62436913D01*
X105367654Y-62520444D01*
X105370230Y-62572714D01*
X105379747Y-62627835D01*
X105396276Y-62676645D01*
X105423754Y-62724699D01*
X105440927Y-62745636D01*
X105481212Y-62780471D01*
X105529038Y-62805353D01*
X105577071Y-62818960D01*
X105630878Y-62824948D01*
X105647312Y-62825259D01*
G37*
G36*
X125977738Y-83425258D02*
G01*
X126030393Y-83421477D01*
X126080220Y-83410135D01*
X126123063Y-83393262D01*
X126165821Y-83368038D01*
X126205818Y-83333542D01*
X126231262Y-83302892D01*
X126117201Y-83220826D01*
X126084618Y-83258328D01*
X126061758Y-83272850D01*
X126014699Y-83288145D01*
X125977738Y-83291168D01*
X125926151Y-83285194D01*
X125879748Y-83265050D01*
X125851709Y-83240610D01*
X125824323Y-83196921D01*
X125810323Y-83146735D01*
X125806768Y-83098461D01*
X125806768Y-82421175D01*
X125667305Y-82421175D01*
X125667305Y-83099193D01*
X125670156Y-83154907D01*
X125678708Y-83205725D01*
X125695892Y-83258828D01*
X125720837Y-83305269D01*
X125748394Y-83339773D01*
X125787001Y-83373082D01*
X125832082Y-83398210D01*
X125883639Y-83415156D01*
X125932984Y-83423171D01*
X125977738Y-83425258D01*
G37*
G36*
X125455547Y-83262592D02*
G01*
X125455547Y-83141448D01*
X125121911Y-82421664D01*
X124978541Y-82421664D01*
X125303872Y-83133387D01*
X124816363Y-83133387D01*
X124816363Y-83262592D01*
X125455547Y-83262592D01*
G37*
G36*
X125026901Y-83415732D02*
G01*
X125026901Y-82830526D01*
X124890857Y-82830526D01*
X124890857Y-83415732D01*
X125026901Y-83415732D01*
G37*
G36*
X125941102Y-62425258D02*
G01*
X125993757Y-62421477D01*
X126043584Y-62410135D01*
X126086427Y-62393262D01*
X126129185Y-62368038D01*
X126169182Y-62333542D01*
X126194626Y-62302892D01*
X126080565Y-62220826D01*
X126047982Y-62258328D01*
X126025122Y-62272850D01*
X125978063Y-62288145D01*
X125941102Y-62291168D01*
X125889515Y-62285194D01*
X125843112Y-62265050D01*
X125815073Y-62240610D01*
X125787687Y-62196921D01*
X125773687Y-62146735D01*
X125770132Y-62098461D01*
X125770132Y-61421175D01*
X125630669Y-61421175D01*
X125630669Y-62099193D01*
X125633520Y-62154907D01*
X125642072Y-62205725D01*
X125659256Y-62258828D01*
X125684201Y-62305269D01*
X125711758Y-62339773D01*
X125750365Y-62373082D01*
X125795446Y-62398210D01*
X125847003Y-62415156D01*
X125896348Y-62423171D01*
X125941102Y-62425258D01*
G37*
G36*
X125420376Y-62415000D02*
G01*
X125420376Y-62294099D01*
X125073796Y-61831992D01*
X125045599Y-61789003D01*
X125026901Y-61749926D01*
X125012830Y-61701182D01*
X125010048Y-61669815D01*
X125010048Y-61668593D01*
X125017723Y-61618626D01*
X125044975Y-61576270D01*
X125087229Y-61551540D01*
X125136223Y-61543426D01*
X125144138Y-61543297D01*
X125192503Y-61550169D01*
X125237475Y-61574853D01*
X125242323Y-61579200D01*
X125271321Y-61619408D01*
X125286668Y-61668748D01*
X125288485Y-61680806D01*
X125288485Y-61681538D01*
X125432588Y-61681538D01*
X125432588Y-61680806D01*
X125421851Y-61627369D01*
X125405667Y-61579472D01*
X125380503Y-61531517D01*
X125348224Y-61490797D01*
X125339043Y-61481748D01*
X125298743Y-61450759D01*
X125253070Y-61428625D01*
X125202023Y-61415344D01*
X125152949Y-61410986D01*
X125145603Y-61410917D01*
X125089861Y-61414155D01*
X125039962Y-61423867D01*
X124990091Y-61442895D01*
X124947852Y-61470380D01*
X124938485Y-61478572D01*
X124906428Y-61515896D01*
X124883530Y-61560211D01*
X124869792Y-61611517D01*
X124865284Y-61662145D01*
X124865212Y-61669815D01*
X124865212Y-61670547D01*
X124870042Y-61721133D01*
X124883266Y-61770381D01*
X124887194Y-61781189D01*
X124907718Y-61827176D01*
X124933966Y-61871470D01*
X124948011Y-61891343D01*
X125235729Y-62282376D01*
X124859839Y-62282376D01*
X124859839Y-62415000D01*
X125420376Y-62415000D01*
G37*
G36*
X125949406Y-72925258D02*
G01*
X126002061Y-72921477D01*
X126051888Y-72910135D01*
X126094731Y-72893262D01*
X126137489Y-72868038D01*
X126177486Y-72833542D01*
X126202930Y-72802892D01*
X126088869Y-72720826D01*
X126056286Y-72758328D01*
X126033426Y-72772850D01*
X125986367Y-72788145D01*
X125949406Y-72791168D01*
X125897819Y-72785194D01*
X125851416Y-72765050D01*
X125823377Y-72740610D01*
X125795991Y-72696921D01*
X125781991Y-72646735D01*
X125778436Y-72598461D01*
X125778436Y-71921175D01*
X125638973Y-71921175D01*
X125638973Y-72599193D01*
X125641824Y-72654907D01*
X125650376Y-72705725D01*
X125667560Y-72758828D01*
X125692505Y-72805269D01*
X125720062Y-72839773D01*
X125758669Y-72873082D01*
X125803750Y-72898210D01*
X125855307Y-72915156D01*
X125904652Y-72923171D01*
X125949406Y-72925258D01*
G37*
G36*
X125156594Y-72925258D02*
G01*
X125207079Y-72922300D01*
X125257929Y-72912215D01*
X125303872Y-72894972D01*
X125347813Y-72868296D01*
X125384747Y-72834064D01*
X125405477Y-72807044D01*
X125430241Y-72760527D01*
X125446243Y-72711792D01*
X125454570Y-72667581D01*
X125312421Y-72667581D01*
X125298055Y-72717196D01*
X125266868Y-72757756D01*
X125261862Y-72761615D01*
X125215029Y-72783780D01*
X125164533Y-72791053D01*
X125156594Y-72791168D01*
X125105552Y-72785082D01*
X125059381Y-72762932D01*
X125049371Y-72754288D01*
X125021847Y-72713111D01*
X125011362Y-72662768D01*
X125011025Y-72650484D01*
X125011025Y-72620443D01*
X125016108Y-72569346D01*
X125034888Y-72521802D01*
X125047173Y-72505404D01*
X125087716Y-72476127D01*
X125137565Y-72464974D01*
X125149755Y-72464616D01*
X125220097Y-72464616D01*
X125220097Y-72331992D01*
X125149755Y-72331992D01*
X125100528Y-72324317D01*
X125059141Y-72297065D01*
X125034366Y-72251890D01*
X125027420Y-72202576D01*
X125027389Y-72198635D01*
X125027389Y-72167861D01*
X125034849Y-72118580D01*
X125061339Y-72077002D01*
X125105216Y-72051846D01*
X125157326Y-72044762D01*
X125205870Y-72052212D01*
X125246475Y-72074560D01*
X125277372Y-72112967D01*
X125294990Y-72160698D01*
X125296789Y-72168593D01*
X125438206Y-72168593D01*
X125426408Y-72117414D01*
X125406800Y-72065478D01*
X125380658Y-72020534D01*
X125347983Y-71982581D01*
X125343440Y-71978328D01*
X125304239Y-71948836D01*
X125260153Y-71927770D01*
X125211182Y-71915130D01*
X125157326Y-71910917D01*
X125103807Y-71914155D01*
X125055873Y-71923867D01*
X125007933Y-71942895D01*
X124967289Y-71970380D01*
X124958269Y-71978572D01*
X124924265Y-72020995D01*
X124903383Y-72066035D01*
X124891293Y-72117975D01*
X124887927Y-72169082D01*
X124887927Y-72185690D01*
X124892689Y-72234596D01*
X124908746Y-72282681D01*
X124928227Y-72315139D01*
X124963157Y-72352302D01*
X125007499Y-72381359D01*
X125042288Y-72396228D01*
X124995033Y-72411350D01*
X124951317Y-72438232D01*
X124916259Y-72475851D01*
X124890811Y-72522820D01*
X124876844Y-72572432D01*
X124871737Y-72622711D01*
X124871562Y-72634609D01*
X124871562Y-72651217D01*
X124875127Y-72705473D01*
X124885821Y-72754120D01*
X124906772Y-72802846D01*
X124937036Y-72844245D01*
X124946056Y-72853450D01*
X124987150Y-72884866D01*
X125035938Y-72907306D01*
X125084938Y-72919578D01*
X125139829Y-72924977D01*
X125156594Y-72925258D01*
G37*
D11*
%TO.C,J5*%
X102190000Y-63460000D02*
X102190000Y-73620000D01*
X102190000Y-73620000D02*
X109810000Y-73620000D01*
X108540000Y-63460000D02*
X108540000Y-73620000D01*
X109810000Y-63460000D02*
X102190000Y-63460000D01*
X109810000Y-73620000D02*
X109810000Y-63460000D01*
%TO.C,J4*%
X121890000Y-89660000D02*
X121890000Y-86340000D01*
X123840000Y-84390000D02*
X127160000Y-84390000D01*
X123840000Y-91610000D02*
X127160000Y-91610000D01*
X129110000Y-89660000D02*
X129110000Y-86340000D01*
%TO.C,J2*%
X121890000Y-68660000D02*
X121890000Y-65340000D01*
X123840000Y-63390000D02*
X127160000Y-63390000D01*
X123840000Y-70610000D02*
X127160000Y-70610000D01*
X129110000Y-68660000D02*
X129110000Y-65340000D01*
%TO.C,J3*%
X121890000Y-79160000D02*
X121890000Y-75840000D01*
X123840000Y-73890000D02*
X127160000Y-73890000D01*
X123840000Y-81110000D02*
X127160000Y-81110000D01*
X129110000Y-79160000D02*
X129110000Y-75840000D01*
%TD*%
M02*
