%TF.GenerationSoftware,KiCad,Pcbnew,8.0.2*%
%TF.CreationDate,2025-01-11T01:25:53-03:00*%
%TF.ProjectId,PD,50442e6b-6963-4616-945f-706362585858,rev?*%
%TF.SameCoordinates,Original*%
%TF.FileFunction,Legend,Top*%
%TF.FilePolarity,Positive*%
%FSLAX46Y46*%
G04 Gerber Fmt 4.6, Leading zero omitted, Abs format (unit mm)*
G04 Created by KiCad (PCBNEW 8.0.2) date 2025-01-11 01:25:53*
%MOMM*%
%LPD*%
G01*
G04 APERTURE LIST*
%ADD10C,0.150000*%
%ADD11C,0.120000*%
%ADD12C,0.152400*%
G04 APERTURE END LIST*
D10*
G36*
X115210405Y-71399724D02*
G01*
X115210405Y-71267100D01*
X115435352Y-71267100D01*
X115487223Y-71263543D01*
X115538207Y-71251039D01*
X115585700Y-71226586D01*
X115605834Y-71210191D01*
X115637776Y-71169891D01*
X115657888Y-71120432D01*
X115665874Y-71068088D01*
X115666406Y-71048991D01*
X115666406Y-70756388D01*
X115662620Y-70707402D01*
X115649311Y-70659263D01*
X115623284Y-70614431D01*
X115605834Y-70595432D01*
X115563158Y-70565293D01*
X115516511Y-70547711D01*
X115462059Y-70539172D01*
X115435352Y-70538279D01*
X115210405Y-70538279D01*
X115210405Y-70405899D01*
X115431200Y-70405899D01*
X115485607Y-70408177D01*
X115536019Y-70415011D01*
X115591240Y-70429225D01*
X115640708Y-70449999D01*
X115684423Y-70477333D01*
X115710370Y-70499200D01*
X115743987Y-70536867D01*
X115770648Y-70579892D01*
X115790355Y-70628275D01*
X115803106Y-70682016D01*
X115808419Y-70730893D01*
X115809288Y-70762005D01*
X115809288Y-71043617D01*
X115806510Y-71097961D01*
X115798175Y-71148153D01*
X115782157Y-71199656D01*
X115764836Y-71236081D01*
X115736644Y-71277894D01*
X115702076Y-71313756D01*
X115661133Y-71343667D01*
X115635631Y-71357714D01*
X115585138Y-71378021D01*
X115535518Y-71390493D01*
X115481441Y-71397713D01*
X115430467Y-71399724D01*
X115210405Y-71399724D01*
G37*
G36*
X115116127Y-71399724D02*
G01*
X115116127Y-70405899D01*
X115255590Y-70405899D01*
X115255590Y-71399724D01*
X115116127Y-71399724D01*
G37*
G36*
X116253810Y-70405899D02*
G01*
X116253810Y-71399724D01*
X116114347Y-71399724D01*
X116114347Y-70557574D01*
X115972931Y-70644280D01*
X115972931Y-70500177D01*
X116114347Y-70405899D01*
X116253810Y-70405899D01*
G37*
G36*
X114366190Y-63309982D02*
G01*
X114317329Y-63308365D01*
X114266330Y-63302916D01*
X114229658Y-63296304D01*
X114179194Y-63282934D01*
X114131390Y-63265049D01*
X114110223Y-63255271D01*
X114066146Y-63230788D01*
X114024407Y-63201790D01*
X114005932Y-63186883D01*
X114092638Y-63080393D01*
X114133090Y-63111259D01*
X114176198Y-63136352D01*
X114217690Y-63154155D01*
X114266092Y-63168199D01*
X114317265Y-63176414D01*
X114366190Y-63178823D01*
X114417130Y-63176305D01*
X114467175Y-63167450D01*
X114513762Y-63150133D01*
X114533496Y-63138523D01*
X114569812Y-63103650D01*
X114590240Y-63055793D01*
X114593092Y-63025683D01*
X114593092Y-63024950D01*
X114585581Y-62974942D01*
X114563050Y-62938244D01*
X114523302Y-62909118D01*
X114484159Y-62893303D01*
X114436324Y-62880692D01*
X114387999Y-62870954D01*
X114377181Y-62869123D01*
X114327840Y-62860134D01*
X114278125Y-62849836D01*
X114263852Y-62846653D01*
X114215787Y-62832354D01*
X114168127Y-62810913D01*
X114159072Y-62805864D01*
X114118325Y-62774502D01*
X114087750Y-62735740D01*
X114082135Y-62726241D01*
X114063317Y-62678248D01*
X114054887Y-62628697D01*
X114053071Y-62587511D01*
X114053071Y-62586779D01*
X114056316Y-62536953D01*
X114068308Y-62484380D01*
X114089135Y-62437790D01*
X114118797Y-62397185D01*
X114145394Y-62371845D01*
X114189409Y-62342152D01*
X114240670Y-62319753D01*
X114290375Y-62306357D01*
X114345404Y-62298320D01*
X114395329Y-62295716D01*
X114405757Y-62295641D01*
X114455469Y-62298146D01*
X114504466Y-62305659D01*
X114552747Y-62318181D01*
X114562317Y-62321287D01*
X114609820Y-62339834D01*
X114656465Y-62363724D01*
X114702251Y-62392957D01*
X114711305Y-62399444D01*
X114632170Y-62510086D01*
X114589558Y-62481453D01*
X114543549Y-62457332D01*
X114518842Y-62447316D01*
X114469548Y-62433291D01*
X114419973Y-62427120D01*
X114405757Y-62426800D01*
X114352061Y-62430026D01*
X114300827Y-62441179D01*
X114254718Y-62462649D01*
X114247488Y-62467588D01*
X114213107Y-62502771D01*
X114193768Y-62551660D01*
X114191068Y-62582627D01*
X114191068Y-62583359D01*
X114199250Y-62632696D01*
X114223796Y-62668844D01*
X114267228Y-62697026D01*
X114309770Y-62712319D01*
X114357641Y-62724174D01*
X114408505Y-62735374D01*
X114423587Y-62738453D01*
X114471459Y-62748912D01*
X114519330Y-62761054D01*
X114533008Y-62764832D01*
X114582098Y-62782263D01*
X114626788Y-62805704D01*
X114632415Y-62809284D01*
X114670400Y-62841255D01*
X114700550Y-62882671D01*
X114703978Y-62888907D01*
X114721531Y-62935065D01*
X114729791Y-62986688D01*
X114731089Y-63020798D01*
X114731089Y-63022264D01*
X114727723Y-63071557D01*
X114715287Y-63123552D01*
X114693689Y-63169611D01*
X114662928Y-63209732D01*
X114635346Y-63234755D01*
X114589825Y-63264067D01*
X114544854Y-63283461D01*
X114494387Y-63297566D01*
X114438425Y-63306382D01*
X114387592Y-63309688D01*
X114366190Y-63309982D01*
G37*
G36*
X115186113Y-63309982D02*
G01*
X115131968Y-63305906D01*
X115082859Y-63293678D01*
X115033634Y-63270179D01*
X114999756Y-63244769D01*
X114966768Y-63208697D01*
X114940588Y-63165939D01*
X114921217Y-63116496D01*
X114909851Y-63067747D01*
X114908653Y-63060366D01*
X114908653Y-63059877D01*
X115048116Y-63059877D01*
X115048116Y-63060366D01*
X115062832Y-63109031D01*
X115091835Y-63145606D01*
X115136446Y-63169238D01*
X115186113Y-63175892D01*
X115235489Y-63168516D01*
X115280040Y-63141672D01*
X115289672Y-63131196D01*
X115314717Y-63085074D01*
X115325021Y-63034378D01*
X115326309Y-63005167D01*
X115326309Y-62921636D01*
X115321979Y-62870077D01*
X115305701Y-62820382D01*
X115289672Y-62795851D01*
X115248671Y-62763944D01*
X115198395Y-62751789D01*
X115186113Y-62751398D01*
X115137680Y-62761096D01*
X115116504Y-62771915D01*
X115077826Y-62803952D01*
X115057641Y-62829312D01*
X114930391Y-62829312D01*
X114930391Y-62305899D01*
X115436951Y-62305899D01*
X115436951Y-62438279D01*
X115069854Y-62438279D01*
X115069854Y-62662005D01*
X115112352Y-62635627D01*
X115127983Y-62629277D01*
X115177030Y-62618286D01*
X115193685Y-62617553D01*
X115247716Y-62621363D01*
X115296113Y-62632794D01*
X115344527Y-62655188D01*
X115385582Y-62687535D01*
X115394697Y-62697176D01*
X115425792Y-62741064D01*
X115445712Y-62786152D01*
X115458830Y-62837482D01*
X115464661Y-62886446D01*
X115465771Y-62921636D01*
X115465771Y-63005167D01*
X115463195Y-63057437D01*
X115453678Y-63112558D01*
X115437149Y-63161368D01*
X115409672Y-63209422D01*
X115392498Y-63230359D01*
X115352214Y-63265194D01*
X115304388Y-63290076D01*
X115256354Y-63303683D01*
X115202547Y-63309671D01*
X115186113Y-63309982D01*
G37*
G36*
X115982497Y-62299486D02*
G01*
X116031679Y-62311022D01*
X116080932Y-62333622D01*
X116122766Y-62366266D01*
X116132066Y-62375997D01*
X116163802Y-62420236D01*
X116184133Y-62465806D01*
X116197522Y-62517782D01*
X116203472Y-62567430D01*
X116204606Y-62603143D01*
X116204606Y-62603876D01*
X116201663Y-62654942D01*
X116193723Y-62705013D01*
X116186776Y-62735523D01*
X116172584Y-62783704D01*
X116154526Y-62831193D01*
X116134752Y-62873764D01*
X115922994Y-63299724D01*
X115772540Y-63299724D01*
X115995791Y-62859107D01*
X115987675Y-62867911D01*
X115969400Y-62877428D01*
X115921544Y-62889602D01*
X115888800Y-62891594D01*
X115837677Y-62886617D01*
X115786404Y-62869122D01*
X115741738Y-62839030D01*
X115715632Y-62811971D01*
X115686994Y-62768892D01*
X115666539Y-62719280D01*
X115655352Y-62670511D01*
X115650430Y-62616738D01*
X115650175Y-62600456D01*
X115650175Y-62599724D01*
X115650415Y-62594839D01*
X115789637Y-62594839D01*
X115789637Y-62595571D01*
X115793880Y-62646684D01*
X115809833Y-62696001D01*
X115825541Y-62720379D01*
X115865855Y-62752111D01*
X115915490Y-62764199D01*
X115927634Y-62764587D01*
X115976099Y-62757251D01*
X116019798Y-62730554D01*
X116029239Y-62720135D01*
X116053783Y-62674274D01*
X116063881Y-62623876D01*
X116065143Y-62594839D01*
X116065143Y-62594350D01*
X116060901Y-62544495D01*
X116044947Y-62496439D01*
X116029239Y-62472717D01*
X115989032Y-62441687D01*
X115939692Y-62429866D01*
X115927634Y-62429486D01*
X115878854Y-62436621D01*
X115834990Y-62462585D01*
X115825541Y-62472717D01*
X115800997Y-62517250D01*
X115790899Y-62566434D01*
X115789637Y-62594839D01*
X115650415Y-62594839D01*
X115652733Y-62547703D01*
X115662187Y-62492807D01*
X115678606Y-62444152D01*
X115705900Y-62396189D01*
X115722959Y-62375264D01*
X115763045Y-62340429D01*
X115810520Y-62315547D01*
X115858121Y-62301939D01*
X115911379Y-62295952D01*
X115927634Y-62295641D01*
X115982497Y-62299486D01*
G37*
G36*
X116902163Y-62305899D02*
G01*
X116902163Y-62430219D01*
X116644976Y-63299724D01*
X116496720Y-63299724D01*
X116753664Y-62438279D01*
X116500872Y-62438279D01*
X116500872Y-62581161D01*
X116361410Y-62581161D01*
X116361410Y-62305899D01*
X116902163Y-62305899D01*
G37*
G36*
X117333008Y-62305899D02*
G01*
X117333008Y-63299724D01*
X117193545Y-63299724D01*
X117193545Y-62457574D01*
X117052128Y-62544280D01*
X117052128Y-62400177D01*
X117193545Y-62305899D01*
X117333008Y-62305899D01*
G37*
G36*
X115386836Y-84455000D02*
G01*
X115386836Y-84322376D01*
X115611783Y-84322376D01*
X115663654Y-84318819D01*
X115714638Y-84306315D01*
X115762131Y-84281862D01*
X115782265Y-84265467D01*
X115814207Y-84225167D01*
X115834319Y-84175708D01*
X115842305Y-84123364D01*
X115842837Y-84104267D01*
X115842837Y-83811664D01*
X115839051Y-83762678D01*
X115825742Y-83714539D01*
X115799715Y-83669707D01*
X115782265Y-83650708D01*
X115739589Y-83620569D01*
X115692942Y-83602987D01*
X115638490Y-83594448D01*
X115611783Y-83593555D01*
X115386836Y-83593555D01*
X115386836Y-83461175D01*
X115607631Y-83461175D01*
X115662038Y-83463453D01*
X115712450Y-83470287D01*
X115767671Y-83484501D01*
X115817139Y-83505275D01*
X115860854Y-83532609D01*
X115886801Y-83554476D01*
X115920418Y-83592143D01*
X115947079Y-83635168D01*
X115966786Y-83683551D01*
X115979537Y-83737292D01*
X115984850Y-83786169D01*
X115985719Y-83817281D01*
X115985719Y-84098893D01*
X115982941Y-84153237D01*
X115974606Y-84203429D01*
X115958588Y-84254932D01*
X115941267Y-84291357D01*
X115913075Y-84333170D01*
X115878507Y-84369032D01*
X115837564Y-84398943D01*
X115812062Y-84412990D01*
X115761569Y-84433297D01*
X115711949Y-84445769D01*
X115657872Y-84452989D01*
X115606898Y-84455000D01*
X115386836Y-84455000D01*
G37*
G36*
X115292558Y-84455000D02*
G01*
X115292558Y-83461175D01*
X115432021Y-83461175D01*
X115432021Y-84455000D01*
X115292558Y-84455000D01*
G37*
G36*
X116440499Y-84465258D02*
G01*
X116390014Y-84462300D01*
X116339164Y-84452215D01*
X116293221Y-84434972D01*
X116249280Y-84408296D01*
X116212346Y-84374064D01*
X116191616Y-84347044D01*
X116166852Y-84300527D01*
X116150850Y-84251792D01*
X116142523Y-84207581D01*
X116284672Y-84207581D01*
X116299038Y-84257196D01*
X116330225Y-84297756D01*
X116335231Y-84301615D01*
X116382064Y-84323780D01*
X116432560Y-84331053D01*
X116440499Y-84331168D01*
X116491541Y-84325082D01*
X116537712Y-84302932D01*
X116547722Y-84294288D01*
X116575246Y-84253111D01*
X116585731Y-84202768D01*
X116586068Y-84190484D01*
X116586068Y-84160443D01*
X116580985Y-84109346D01*
X116562205Y-84061802D01*
X116549920Y-84045404D01*
X116509377Y-84016127D01*
X116459528Y-84004974D01*
X116447338Y-84004616D01*
X116376996Y-84004616D01*
X116376996Y-83871992D01*
X116447338Y-83871992D01*
X116496565Y-83864317D01*
X116537952Y-83837065D01*
X116562727Y-83791890D01*
X116569673Y-83742576D01*
X116569704Y-83738635D01*
X116569704Y-83707861D01*
X116562244Y-83658580D01*
X116535754Y-83617002D01*
X116491877Y-83591846D01*
X116439767Y-83584762D01*
X116391223Y-83592212D01*
X116350618Y-83614560D01*
X116319721Y-83652967D01*
X116302103Y-83700698D01*
X116300304Y-83708593D01*
X116158887Y-83708593D01*
X116170685Y-83657414D01*
X116190293Y-83605478D01*
X116216435Y-83560534D01*
X116249110Y-83522581D01*
X116253653Y-83518328D01*
X116292854Y-83488836D01*
X116336940Y-83467770D01*
X116385911Y-83455130D01*
X116439767Y-83450917D01*
X116493287Y-83454155D01*
X116541220Y-83463867D01*
X116589160Y-83482895D01*
X116629804Y-83510380D01*
X116638824Y-83518572D01*
X116672828Y-83560995D01*
X116693710Y-83606035D01*
X116705800Y-83657975D01*
X116709166Y-83709082D01*
X116709166Y-83725690D01*
X116704404Y-83774596D01*
X116688347Y-83822681D01*
X116668866Y-83855139D01*
X116633936Y-83892302D01*
X116589594Y-83921359D01*
X116554805Y-83936228D01*
X116602060Y-83951350D01*
X116645776Y-83978232D01*
X116680834Y-84015851D01*
X116706282Y-84062820D01*
X116720249Y-84112432D01*
X116725356Y-84162711D01*
X116725531Y-84174609D01*
X116725531Y-84191217D01*
X116721966Y-84245473D01*
X116711272Y-84294120D01*
X116690321Y-84342846D01*
X116660057Y-84384245D01*
X116651037Y-84393450D01*
X116609943Y-84424866D01*
X116561155Y-84447306D01*
X116512155Y-84459578D01*
X116457264Y-84464977D01*
X116440499Y-84465258D01*
G37*
G36*
X114006131Y-92385258D02*
G01*
X113957270Y-92383641D01*
X113906271Y-92378192D01*
X113869599Y-92371580D01*
X113819135Y-92358210D01*
X113771331Y-92340325D01*
X113750164Y-92330547D01*
X113706087Y-92306064D01*
X113664348Y-92277066D01*
X113645873Y-92262159D01*
X113732579Y-92155669D01*
X113773031Y-92186535D01*
X113816139Y-92211628D01*
X113857631Y-92229431D01*
X113906033Y-92243475D01*
X113957206Y-92251690D01*
X114006131Y-92254099D01*
X114057071Y-92251581D01*
X114107116Y-92242726D01*
X114153703Y-92225409D01*
X114173437Y-92213799D01*
X114209753Y-92178926D01*
X114230181Y-92131069D01*
X114233033Y-92100959D01*
X114233033Y-92100226D01*
X114225522Y-92050218D01*
X114202991Y-92013520D01*
X114163243Y-91984394D01*
X114124100Y-91968579D01*
X114076265Y-91955968D01*
X114027940Y-91946230D01*
X114017122Y-91944399D01*
X113967781Y-91935410D01*
X113918066Y-91925112D01*
X113903793Y-91921929D01*
X113855728Y-91907630D01*
X113808068Y-91886189D01*
X113799013Y-91881140D01*
X113758266Y-91849778D01*
X113727691Y-91811016D01*
X113722076Y-91801517D01*
X113703258Y-91753524D01*
X113694828Y-91703973D01*
X113693012Y-91662787D01*
X113693012Y-91662055D01*
X113696257Y-91612229D01*
X113708249Y-91559656D01*
X113729076Y-91513066D01*
X113758738Y-91472461D01*
X113785335Y-91447121D01*
X113829350Y-91417428D01*
X113880611Y-91395029D01*
X113930316Y-91381633D01*
X113985345Y-91373596D01*
X114035270Y-91370992D01*
X114045698Y-91370917D01*
X114095410Y-91373422D01*
X114144407Y-91380935D01*
X114192688Y-91393457D01*
X114202258Y-91396563D01*
X114249761Y-91415110D01*
X114296406Y-91439000D01*
X114342192Y-91468233D01*
X114351246Y-91474720D01*
X114272111Y-91585362D01*
X114229499Y-91556729D01*
X114183490Y-91532608D01*
X114158783Y-91522592D01*
X114109489Y-91508567D01*
X114059914Y-91502396D01*
X114045698Y-91502076D01*
X113992002Y-91505302D01*
X113940768Y-91516455D01*
X113894659Y-91537925D01*
X113887429Y-91542864D01*
X113853048Y-91578047D01*
X113833709Y-91626936D01*
X113831009Y-91657903D01*
X113831009Y-91658635D01*
X113839191Y-91707972D01*
X113863737Y-91744120D01*
X113907169Y-91772302D01*
X113949711Y-91787595D01*
X113997582Y-91799450D01*
X114048446Y-91810650D01*
X114063528Y-91813729D01*
X114111400Y-91824188D01*
X114159271Y-91836330D01*
X114172949Y-91840108D01*
X114222039Y-91857539D01*
X114266729Y-91880980D01*
X114272356Y-91884560D01*
X114310341Y-91916531D01*
X114340491Y-91957947D01*
X114343919Y-91964183D01*
X114361472Y-92010341D01*
X114369732Y-92061964D01*
X114371030Y-92096074D01*
X114371030Y-92097540D01*
X114367664Y-92146833D01*
X114355228Y-92198828D01*
X114333630Y-92244887D01*
X114302869Y-92285008D01*
X114275287Y-92310031D01*
X114229766Y-92339343D01*
X114184795Y-92358737D01*
X114134328Y-92372842D01*
X114078366Y-92381658D01*
X114027533Y-92384964D01*
X114006131Y-92385258D01*
G37*
G36*
X114555433Y-92375000D02*
G01*
X114555433Y-91381175D01*
X114694896Y-91381175D01*
X114694896Y-92375000D01*
X114555433Y-92375000D01*
G37*
G36*
X114623821Y-91956612D02*
G01*
X114623821Y-91823988D01*
X115105712Y-91823988D01*
X115105712Y-91956612D01*
X114623821Y-91956612D01*
G37*
G36*
X114623821Y-91513555D02*
G01*
X114623821Y-91381175D01*
X115180939Y-91381175D01*
X115180939Y-91513555D01*
X114623821Y-91513555D01*
G37*
G36*
X115916354Y-92375000D02*
G01*
X115916354Y-91381175D01*
X116055817Y-91381175D01*
X116055817Y-92375000D01*
X115916354Y-92375000D01*
G37*
G36*
X115351665Y-92375000D02*
G01*
X115351665Y-91381175D01*
X115491127Y-91381175D01*
X115491127Y-92375000D01*
X115351665Y-92375000D01*
G37*
G36*
X115438371Y-91951971D02*
G01*
X115438371Y-91819347D01*
X115990116Y-91819347D01*
X115990116Y-91951971D01*
X115438371Y-91951971D01*
G37*
G36*
X116265621Y-92375000D02*
G01*
X116265621Y-92254099D01*
X116612202Y-91791992D01*
X116640399Y-91749003D01*
X116659097Y-91709926D01*
X116673168Y-91661182D01*
X116675949Y-91629815D01*
X116675949Y-91628593D01*
X116668275Y-91578626D01*
X116641023Y-91536270D01*
X116598769Y-91511540D01*
X116549775Y-91503426D01*
X116541860Y-91503297D01*
X116493494Y-91510169D01*
X116448523Y-91534853D01*
X116443675Y-91539200D01*
X116414677Y-91579408D01*
X116399329Y-91628748D01*
X116397513Y-91640806D01*
X116397513Y-91641538D01*
X116253409Y-91641538D01*
X116253409Y-91640806D01*
X116264147Y-91587369D01*
X116280330Y-91539472D01*
X116305495Y-91491517D01*
X116337773Y-91450797D01*
X116346954Y-91441748D01*
X116387254Y-91410759D01*
X116432928Y-91388625D01*
X116483975Y-91375344D01*
X116533048Y-91370986D01*
X116540395Y-91370917D01*
X116596137Y-91374155D01*
X116646035Y-91383867D01*
X116695907Y-91402895D01*
X116738146Y-91430380D01*
X116747513Y-91438572D01*
X116779569Y-91475896D01*
X116802467Y-91520211D01*
X116816206Y-91571517D01*
X116820714Y-91622145D01*
X116820785Y-91629815D01*
X116820785Y-91630547D01*
X116815955Y-91681133D01*
X116802732Y-91730381D01*
X116798804Y-91741189D01*
X116778280Y-91787176D01*
X116752032Y-91831470D01*
X116737987Y-91851343D01*
X116450269Y-92242376D01*
X116826159Y-92242376D01*
X116826159Y-92375000D01*
X116265621Y-92375000D01*
G37*
G36*
X117337690Y-91371355D02*
G01*
X117390305Y-91381094D01*
X117436258Y-91398009D01*
X117480619Y-91426127D01*
X117499536Y-91443702D01*
X117530845Y-91484689D01*
X117553209Y-91532911D01*
X117565439Y-91581042D01*
X117570820Y-91634712D01*
X117571099Y-91651064D01*
X117571099Y-92102913D01*
X117567675Y-92157904D01*
X117557402Y-92207472D01*
X117537275Y-92257481D01*
X117508202Y-92300406D01*
X117499536Y-92310031D01*
X117459526Y-92342943D01*
X117410815Y-92366451D01*
X117361055Y-92379307D01*
X117304633Y-92384964D01*
X117287289Y-92385258D01*
X117236491Y-92382579D01*
X117183563Y-92372681D01*
X117137462Y-92355491D01*
X117093132Y-92326914D01*
X117074310Y-92309054D01*
X117043428Y-92267594D01*
X117021370Y-92219417D01*
X117009307Y-92171752D01*
X117003999Y-92118945D01*
X117003723Y-92102913D01*
X117003723Y-91651064D01*
X117143186Y-91651064D01*
X117143186Y-92102913D01*
X117148749Y-92154751D01*
X117168992Y-92202343D01*
X117176892Y-92212822D01*
X117218057Y-92241398D01*
X117268841Y-92252012D01*
X117287289Y-92252634D01*
X117338763Y-92247035D01*
X117383536Y-92226352D01*
X117397687Y-92212822D01*
X117422055Y-92168723D01*
X117431106Y-92119911D01*
X117431637Y-92102913D01*
X117431637Y-91651064D01*
X117426034Y-91598990D01*
X117405644Y-91551527D01*
X117397687Y-91541154D01*
X117356643Y-91512579D01*
X117305791Y-91501965D01*
X117287289Y-91501343D01*
X117235930Y-91506941D01*
X117191117Y-91527625D01*
X117176892Y-91541154D01*
X117152699Y-91585011D01*
X117143713Y-91633959D01*
X117143186Y-91651064D01*
X117003723Y-91651064D01*
X117007159Y-91596073D01*
X117017468Y-91546505D01*
X117037664Y-91496496D01*
X117066835Y-91453570D01*
X117075531Y-91443946D01*
X117115693Y-91411034D01*
X117164374Y-91387526D01*
X117213957Y-91374670D01*
X117270062Y-91369013D01*
X117287289Y-91368719D01*
X117337690Y-91371355D01*
G37*
G36*
X118025635Y-92385258D02*
G01*
X117975151Y-92382300D01*
X117924301Y-92372215D01*
X117878357Y-92354972D01*
X117834416Y-92328296D01*
X117797482Y-92294064D01*
X117776752Y-92267044D01*
X117751988Y-92220527D01*
X117735986Y-92171792D01*
X117727659Y-92127581D01*
X117869808Y-92127581D01*
X117884174Y-92177196D01*
X117915361Y-92217756D01*
X117920367Y-92221615D01*
X117967200Y-92243780D01*
X118017697Y-92251053D01*
X118025635Y-92251168D01*
X118076677Y-92245082D01*
X118122848Y-92222932D01*
X118132858Y-92214288D01*
X118160382Y-92173111D01*
X118170867Y-92122768D01*
X118171204Y-92110484D01*
X118171204Y-92080443D01*
X118166121Y-92029346D01*
X118147341Y-91981802D01*
X118135056Y-91965404D01*
X118094513Y-91936127D01*
X118044664Y-91924974D01*
X118032474Y-91924616D01*
X117962132Y-91924616D01*
X117962132Y-91791992D01*
X118032474Y-91791992D01*
X118081701Y-91784317D01*
X118123088Y-91757065D01*
X118147863Y-91711890D01*
X118154809Y-91662576D01*
X118154840Y-91658635D01*
X118154840Y-91627861D01*
X118147380Y-91578580D01*
X118120890Y-91537002D01*
X118077013Y-91511846D01*
X118024903Y-91504762D01*
X117976359Y-91512212D01*
X117935754Y-91534560D01*
X117904857Y-91572967D01*
X117887239Y-91620698D01*
X117885440Y-91628593D01*
X117744023Y-91628593D01*
X117755821Y-91577414D01*
X117775429Y-91525478D01*
X117801571Y-91480534D01*
X117834246Y-91442581D01*
X117838790Y-91438328D01*
X117877991Y-91408836D01*
X117922076Y-91387770D01*
X117971047Y-91375130D01*
X118024903Y-91370917D01*
X118078423Y-91374155D01*
X118126356Y-91383867D01*
X118174296Y-91402895D01*
X118214940Y-91430380D01*
X118223961Y-91438572D01*
X118257964Y-91480995D01*
X118278847Y-91526035D01*
X118290937Y-91577975D01*
X118294303Y-91629082D01*
X118294303Y-91645690D01*
X118289541Y-91694596D01*
X118273483Y-91742681D01*
X118254002Y-91775139D01*
X118219072Y-91812302D01*
X118174730Y-91841359D01*
X118139941Y-91856228D01*
X118187196Y-91871350D01*
X118230912Y-91898232D01*
X118265970Y-91935851D01*
X118291418Y-91982820D01*
X118305385Y-92032432D01*
X118310492Y-92082711D01*
X118310667Y-92094609D01*
X118310667Y-92111217D01*
X118307102Y-92165473D01*
X118296408Y-92214120D01*
X118275457Y-92262846D01*
X118245194Y-92304245D01*
X118236173Y-92313450D01*
X118195079Y-92344866D01*
X118146291Y-92367306D01*
X118097291Y-92379578D01*
X118042400Y-92384977D01*
X118025635Y-92385258D01*
G37*
G36*
X107845000Y-78010466D02*
G01*
X106851175Y-78010466D01*
X106851175Y-77871003D01*
X107845000Y-77871003D01*
X107845000Y-78010466D01*
G37*
G36*
X107845000Y-77940857D02*
G01*
X107712376Y-77940857D01*
X107712376Y-77372015D01*
X107845000Y-77372015D01*
X107845000Y-77940857D01*
G37*
G36*
X106851175Y-76989043D02*
G01*
X107845000Y-76989043D01*
X107845000Y-77128505D01*
X107002850Y-77128505D01*
X107089556Y-77269922D01*
X106945453Y-77269922D01*
X106851175Y-77128505D01*
X106851175Y-76989043D01*
G37*
G36*
X115396721Y-75415000D02*
G01*
X115396721Y-75282376D01*
X115621668Y-75282376D01*
X115673539Y-75278819D01*
X115724523Y-75266315D01*
X115772016Y-75241862D01*
X115792150Y-75225467D01*
X115824092Y-75185167D01*
X115844204Y-75135708D01*
X115852190Y-75083364D01*
X115852722Y-75064267D01*
X115852722Y-74771664D01*
X115848936Y-74722678D01*
X115835627Y-74674539D01*
X115809600Y-74629707D01*
X115792150Y-74610708D01*
X115749474Y-74580569D01*
X115702827Y-74562987D01*
X115648375Y-74554448D01*
X115621668Y-74553555D01*
X115396721Y-74553555D01*
X115396721Y-74421175D01*
X115617516Y-74421175D01*
X115671923Y-74423453D01*
X115722335Y-74430287D01*
X115777556Y-74444501D01*
X115827024Y-74465275D01*
X115870739Y-74492609D01*
X115896686Y-74514476D01*
X115930303Y-74552143D01*
X115956964Y-74595168D01*
X115976671Y-74643551D01*
X115989422Y-74697292D01*
X115994735Y-74746169D01*
X115995604Y-74777281D01*
X115995604Y-75058893D01*
X115992826Y-75113237D01*
X115984491Y-75163429D01*
X115968473Y-75214932D01*
X115951152Y-75251357D01*
X115922960Y-75293170D01*
X115888392Y-75329032D01*
X115847449Y-75358943D01*
X115821947Y-75372990D01*
X115771454Y-75393297D01*
X115721834Y-75405769D01*
X115667757Y-75412989D01*
X115616783Y-75415000D01*
X115396721Y-75415000D01*
G37*
G36*
X115302443Y-75415000D02*
G01*
X115302443Y-74421175D01*
X115441906Y-74421175D01*
X115441906Y-75415000D01*
X115302443Y-75415000D01*
G37*
G36*
X116185137Y-75415000D02*
G01*
X116185137Y-75294099D01*
X116531717Y-74831992D01*
X116559914Y-74789003D01*
X116578612Y-74749926D01*
X116592683Y-74701182D01*
X116595465Y-74669815D01*
X116595465Y-74668593D01*
X116587790Y-74618626D01*
X116560538Y-74576270D01*
X116518284Y-74551540D01*
X116469290Y-74543426D01*
X116461375Y-74543297D01*
X116413009Y-74550169D01*
X116368038Y-74574853D01*
X116363190Y-74579200D01*
X116334192Y-74619408D01*
X116318844Y-74668748D01*
X116317028Y-74680806D01*
X116317028Y-74681538D01*
X116172924Y-74681538D01*
X116172924Y-74680806D01*
X116183662Y-74627369D01*
X116199845Y-74579472D01*
X116225010Y-74531517D01*
X116257288Y-74490797D01*
X116266469Y-74481748D01*
X116306769Y-74450759D01*
X116352443Y-74428625D01*
X116403490Y-74415344D01*
X116452563Y-74410986D01*
X116459910Y-74410917D01*
X116515652Y-74414155D01*
X116565551Y-74423867D01*
X116615422Y-74442895D01*
X116657661Y-74470380D01*
X116667028Y-74478572D01*
X116699085Y-74515896D01*
X116721982Y-74560211D01*
X116735721Y-74611517D01*
X116740229Y-74662145D01*
X116740301Y-74669815D01*
X116740301Y-74670547D01*
X116735471Y-74721133D01*
X116722247Y-74770381D01*
X116718319Y-74781189D01*
X116697795Y-74827176D01*
X116671547Y-74871470D01*
X116657502Y-74891343D01*
X116369784Y-75282376D01*
X116745674Y-75282376D01*
X116745674Y-75415000D01*
X116185137Y-75415000D01*
G37*
G36*
X107855258Y-84216887D02*
G01*
X107852373Y-84267185D01*
X107842230Y-84319940D01*
X107824784Y-84368637D01*
X107809096Y-84398848D01*
X107780193Y-84439911D01*
X107745417Y-84475449D01*
X107704768Y-84505462D01*
X107679647Y-84519748D01*
X107630458Y-84540527D01*
X107583037Y-84553289D01*
X107532135Y-84560678D01*
X107484741Y-84562735D01*
X107211922Y-84562735D01*
X107157670Y-84560048D01*
X107107020Y-84551988D01*
X107059972Y-84538554D01*
X107016528Y-84519748D01*
X106972517Y-84492805D01*
X106934456Y-84460337D01*
X106902347Y-84422343D01*
X106887079Y-84398848D01*
X106864764Y-84352855D01*
X106849753Y-84302806D01*
X106842044Y-84248699D01*
X106840917Y-84216887D01*
X106844519Y-84164456D01*
X106855324Y-84114934D01*
X106873332Y-84068323D01*
X106877798Y-84059350D01*
X106903734Y-84016913D01*
X106935443Y-83979055D01*
X106972924Y-83945777D01*
X106981113Y-83939671D01*
X107024699Y-83912628D01*
X107072723Y-83891643D01*
X107119737Y-83877936D01*
X107136207Y-83874458D01*
X107136207Y-84017340D01*
X107088721Y-84036057D01*
X107052431Y-84060815D01*
X107017140Y-84098288D01*
X106996744Y-84132134D01*
X106980550Y-84179146D01*
X106976716Y-84216887D01*
X106981836Y-84265567D01*
X106999534Y-84312994D01*
X107029874Y-84353408D01*
X107041441Y-84364165D01*
X107085795Y-84393531D01*
X107132649Y-84410662D01*
X107186070Y-84418982D01*
X107211922Y-84419852D01*
X107484741Y-84419852D01*
X107535132Y-84416372D01*
X107585580Y-84404136D01*
X107633885Y-84380208D01*
X107654979Y-84364165D01*
X107688853Y-84325854D01*
X107710181Y-84280531D01*
X107718964Y-84228195D01*
X107719214Y-84216887D01*
X107712442Y-84165349D01*
X107694170Y-84119994D01*
X107678182Y-84094521D01*
X107642324Y-84056763D01*
X107600523Y-84031444D01*
X107559968Y-84017340D01*
X107559968Y-83874458D01*
X107608199Y-83886568D01*
X107657620Y-83905868D01*
X107702653Y-83931323D01*
X107715307Y-83940159D01*
X107753813Y-83972603D01*
X107786595Y-84009482D01*
X107813652Y-84050799D01*
X107818377Y-84059594D01*
X107837826Y-84105495D01*
X107850071Y-84154353D01*
X107855114Y-84206169D01*
X107855258Y-84216887D01*
G37*
G36*
X106851175Y-83457291D02*
G01*
X107845000Y-83457291D01*
X107845000Y-83596754D01*
X107002850Y-83596754D01*
X107089556Y-83738171D01*
X106945453Y-83738171D01*
X106851175Y-83596754D01*
X106851175Y-83457291D01*
G37*
D11*
%TO.C,D1*%
X112200276Y-64690225D02*
X113112443Y-65602393D01*
X113190225Y-63700276D02*
X112200276Y-64690225D01*
X114102393Y-64612443D02*
X113190225Y-63700276D01*
X114102393Y-64612443D02*
G75*
G02*
X113112574Y-65602180I1582331J-2572281D01*
G01*
%TO.C,D3*%
X113435000Y-86455000D02*
X113435000Y-89545000D01*
X113435000Y-86455170D02*
G75*
G02*
X118985000Y-88000462I2560000J-1544830D01*
G01*
X118985000Y-87999538D02*
G75*
G02*
X113435000Y-89544830I-2990000J-462D01*
G01*
X118495000Y-88000000D02*
G75*
G02*
X113495000Y-88000000I-2500000J0D01*
G01*
X113495000Y-88000000D02*
G75*
G02*
X118495000Y-88000000I2500000J0D01*
G01*
%TO.C,L1*%
X105490000Y-77328733D02*
X105490000Y-77671267D01*
X106510000Y-77328733D02*
X106510000Y-77671267D01*
D12*
%TO.C,D2*%
X114272800Y-78973200D02*
X117727200Y-78973200D01*
X117727200Y-76026800D02*
X114272800Y-76026800D01*
X119454400Y-78198500D02*
G75*
G02*
X119251200Y-78198500I-101600J0D01*
G01*
X119251200Y-78198500D02*
G75*
G02*
X119454400Y-78198500I101600J0D01*
G01*
D11*
%TO.C,C1*%
X105490000Y-83853733D02*
X105490000Y-84146267D01*
X106510000Y-83853733D02*
X106510000Y-84146267D01*
%TD*%
M02*
