%TF.GenerationSoftware,KiCad,Pcbnew,8.0.2*%
%TF.CreationDate,2025-01-11T01:27:01-03:00*%
%TF.ProjectId,LMH34400,4c4d4833-3434-4303-902e-6b696361645f,rev?*%
%TF.SameCoordinates,Original*%
%TF.FileFunction,Copper,L1,Top*%
%TF.FilePolarity,Positive*%
%FSLAX46Y46*%
G04 Gerber Fmt 4.6, Leading zero omitted, Abs format (unit mm)*
G04 Created by KiCad (PCBNEW 8.0.2) date 2025-01-11 01:27:01*
%MOMM*%
%LPD*%
G01*
G04 APERTURE LIST*
G04 Aperture macros list*
%AMRoundRect*
0 Rectangle with rounded corners*
0 $1 Rounding radius*
0 $2 $3 $4 $5 $6 $7 $8 $9 X,Y pos of 4 corners*
0 Add a 4 corners polygon primitive as box body*
4,1,4,$2,$3,$4,$5,$6,$7,$8,$9,$2,$3,0*
0 Add four circle primitives for the rounded corners*
1,1,$1+$1,$2,$3*
1,1,$1+$1,$4,$5*
1,1,$1+$1,$6,$7*
1,1,$1+$1,$8,$9*
0 Add four rect primitives between the rounded corners*
20,1,$1+$1,$2,$3,$4,$5,0*
20,1,$1+$1,$4,$5,$6,$7,0*
20,1,$1+$1,$6,$7,$8,$9,0*
20,1,$1+$1,$8,$9,$2,$3,0*%
G04 Aperture macros list end*
%TA.AperFunction,SMDPad,CuDef*%
%ADD10RoundRect,0.237500X0.237500X-0.250000X0.237500X0.250000X-0.237500X0.250000X-0.237500X-0.250000X0*%
%TD*%
%TA.AperFunction,ComponentPad*%
%ADD11R,2.600000X2.600000*%
%TD*%
%TA.AperFunction,ComponentPad*%
%ADD12C,2.600000*%
%TD*%
%TA.AperFunction,SMDPad,CuDef*%
%ADD13RoundRect,0.237500X0.287500X0.237500X-0.287500X0.237500X-0.287500X-0.237500X0.287500X-0.237500X0*%
%TD*%
%TA.AperFunction,ComponentPad*%
%ADD14R,1.700000X1.700000*%
%TD*%
%TA.AperFunction,ComponentPad*%
%ADD15O,1.700000X1.700000*%
%TD*%
%TA.AperFunction,SMDPad,CuDef*%
%ADD16R,0.706399X0.229400*%
%TD*%
%TA.AperFunction,SMDPad,CuDef*%
%ADD17RoundRect,0.237500X-0.250000X-0.237500X0.250000X-0.237500X0.250000X0.237500X-0.250000X0.237500X0*%
%TD*%
%TA.AperFunction,SMDPad,CuDef*%
%ADD18RoundRect,0.155000X0.259862X-0.040659X-0.040659X0.259862X-0.259862X0.040659X0.040659X-0.259862X0*%
%TD*%
%TA.AperFunction,SMDPad,CuDef*%
%ADD19RoundRect,0.237500X-0.300000X-0.237500X0.300000X-0.237500X0.300000X0.237500X-0.300000X0.237500X0*%
%TD*%
%TA.AperFunction,SMDPad,CuDef*%
%ADD20RoundRect,0.218750X0.256250X-0.218750X0.256250X0.218750X-0.256250X0.218750X-0.256250X-0.218750X0*%
%TD*%
%TA.AperFunction,SMDPad,CuDef*%
%ADD21R,3.600000X1.270000*%
%TD*%
%TA.AperFunction,SMDPad,CuDef*%
%ADD22R,4.200000X1.350000*%
%TD*%
%TA.AperFunction,SMDPad,CuDef*%
%ADD23RoundRect,0.155000X-0.212500X-0.155000X0.212500X-0.155000X0.212500X0.155000X-0.212500X0.155000X0*%
%TD*%
%TA.AperFunction,SMDPad,CuDef*%
%ADD24R,1.270000X3.600000*%
%TD*%
%TA.AperFunction,SMDPad,CuDef*%
%ADD25R,1.350000X4.200000*%
%TD*%
%TA.AperFunction,SMDPad,CuDef*%
%ADD26RoundRect,0.237500X-0.237500X0.250000X-0.237500X-0.250000X0.237500X-0.250000X0.237500X0.250000X0*%
%TD*%
%TA.AperFunction,ViaPad*%
%ADD27C,0.450000*%
%TD*%
%TA.AperFunction,Conductor*%
%ADD28C,0.349300*%
%TD*%
%TA.AperFunction,Conductor*%
%ADD29C,0.300000*%
%TD*%
%TA.AperFunction,Conductor*%
%ADD30C,0.800000*%
%TD*%
%TA.AperFunction,Conductor*%
%ADD31C,0.600000*%
%TD*%
%TA.AperFunction,Conductor*%
%ADD32C,0.200000*%
%TD*%
G04 APERTURE END LIST*
D10*
%TO.P,JP1,1,A*%
%TO.N,Net-(JP1-A)*%
X113500000Y-69412500D03*
%TO.P,JP1,2,B*%
%TO.N,Net-(J2-In)*%
X113500000Y-67587500D03*
%TD*%
D11*
%TO.P,J3,1,Pin_1*%
%TO.N,GND*%
X135500000Y-88500000D03*
D12*
%TO.P,J3,2,Pin_2*%
%TO.N,Net-(J3-Pin_2)*%
X135500000Y-83500000D03*
%TD*%
D10*
%TO.P,R1,1*%
%TO.N,Net-(J1-In)*%
X124000000Y-84912500D03*
%TO.P,R1,2*%
%TO.N,Net-(C1-Pad1)*%
X124000000Y-83087500D03*
%TD*%
D13*
%TO.P,L1,1*%
%TO.N,Net-(J3-Pin_2)*%
X135875000Y-75000000D03*
%TO.P,L1,2*%
%TO.N,VCC*%
X134125000Y-75000000D03*
%TD*%
D14*
%TO.P,J5,1,Pin_1*%
%TO.N,VCC*%
X130000000Y-73000000D03*
D15*
%TO.P,J5,2,Pin_2*%
%TO.N,Net-(J5-Pin_2)*%
X127460000Y-73000000D03*
%TO.P,J5,3,Pin_3*%
%TO.N,GND*%
X124920000Y-73000000D03*
%TD*%
D16*
%TO.P,U1,1,IN*%
%TO.N,Net-(J2-In)*%
X117202300Y-67500001D03*
%TO.P,U1,2,VDD*%
%TO.N,VCC*%
X117202300Y-68000000D03*
%TO.P,U1,3,\u002AEN*%
%TO.N,Net-(J4-Pin_2)*%
X117202300Y-68499999D03*
%TO.P,U1,4,OUT*%
%TO.N,Net-(U1-OUT)*%
X118797700Y-68499999D03*
%TO.P,U1,5,GND*%
%TO.N,GND*%
X118797700Y-68000000D03*
%TO.P,U1,6,\u002AIDC_EN*%
%TO.N,Net-(J5-Pin_2)*%
X118797700Y-67500001D03*
%TD*%
D14*
%TO.P,J4,1,Pin_1*%
%TO.N,VCC*%
X130000000Y-77000000D03*
D15*
%TO.P,J4,2,Pin_2*%
%TO.N,Net-(J4-Pin_2)*%
X127460000Y-77000000D03*
%TO.P,J4,3,Pin_3*%
%TO.N,GND*%
X124920000Y-77000000D03*
%TD*%
D17*
%TO.P,R4,1*%
%TO.N,Net-(U1-OUT)*%
X123487500Y-68500000D03*
%TO.P,R4,2*%
%TO.N,Net-(C6-Pad1)*%
X125312500Y-68500000D03*
%TD*%
D18*
%TO.P,C1,1*%
%TO.N,Net-(C1-Pad1)*%
X121901283Y-79901283D03*
%TO.P,C1,2*%
%TO.N,GND*%
X121098717Y-79098717D03*
%TD*%
D19*
%TO.P,C4,1*%
%TO.N,VCC*%
X117137500Y-73000000D03*
%TO.P,C4,2*%
%TO.N,GND*%
X118862500Y-73000000D03*
%TD*%
%TO.P,C3,1*%
%TO.N,VCC*%
X117137500Y-75000000D03*
%TO.P,C3,2*%
%TO.N,GND*%
X118862500Y-75000000D03*
%TD*%
D17*
%TO.P,R5,1*%
%TO.N,Net-(C6-Pad1)*%
X128175000Y-65500000D03*
%TO.P,R5,2*%
%TO.N,Net-(J6-In)*%
X130000000Y-65500000D03*
%TD*%
D20*
%TO.P,D1,1,K*%
%TO.N,Net-(D1-K)*%
X127000000Y-82787500D03*
%TO.P,D1,2,A*%
%TO.N,VCC*%
X127000000Y-81212500D03*
%TD*%
D21*
%TO.P,J2,1,In*%
%TO.N,Net-(J2-In)*%
X109300000Y-67500000D03*
D22*
%TO.P,J2,2,Ext*%
%TO.N,GND*%
X109500000Y-64675000D03*
X109500000Y-70325000D03*
%TD*%
D23*
%TO.P,C6,1*%
%TO.N,Net-(C6-Pad1)*%
X128432500Y-68500000D03*
%TO.P,C6,2*%
%TO.N,Net-(J6-In)*%
X129567500Y-68500000D03*
%TD*%
D21*
%TO.P,J6,1,In*%
%TO.N,Net-(J6-In)*%
X138537500Y-68500000D03*
D22*
%TO.P,J6,2,Ext*%
%TO.N,GND*%
X138337500Y-71325000D03*
X138337500Y-65675000D03*
%TD*%
D19*
%TO.P,C5,1*%
%TO.N,VCC*%
X117137500Y-71000000D03*
%TO.P,C5,2*%
%TO.N,GND*%
X118862500Y-71000000D03*
%TD*%
D18*
%TO.P,C2,1*%
%TO.N,Net-(J1-In)*%
X116401283Y-83401283D03*
%TO.P,C2,2*%
%TO.N,Net-(C2-Pad2)*%
X115598717Y-82598717D03*
%TD*%
D10*
%TO.P,R2,1*%
%TO.N,Net-(C2-Pad2)*%
X113500000Y-79825000D03*
%TO.P,R2,2*%
%TO.N,Net-(JP1-A)*%
X113500000Y-78000000D03*
%TD*%
D24*
%TO.P,J1,1,In*%
%TO.N,Net-(J1-In)*%
X124000000Y-90537500D03*
D25*
%TO.P,J1,2,Ext*%
%TO.N,GND*%
X121175000Y-90337500D03*
X126825000Y-90337500D03*
%TD*%
D26*
%TO.P,R3,1*%
%TO.N,Net-(D1-K)*%
X127000000Y-85087500D03*
%TO.P,R3,2*%
%TO.N,GND*%
X127000000Y-86912500D03*
%TD*%
D27*
%TO.N,GND*%
X135500000Y-71000000D03*
X120500000Y-88000000D03*
X120500003Y-67916096D03*
X121000000Y-71000000D03*
X135500000Y-66000000D03*
X112000000Y-71000000D03*
X121500000Y-88000000D03*
X135500000Y-72000000D03*
X112000000Y-70000000D03*
X126000000Y-88000000D03*
X112000000Y-65000000D03*
X119500000Y-77500000D03*
X127500000Y-88000000D03*
X112000000Y-64000000D03*
X135500000Y-65000000D03*
X121000000Y-73000000D03*
X121000000Y-75000000D03*
%TO.N,VCC*%
X115000000Y-72000000D03*
%TO.N,Net-(J4-Pin_2)*%
X116000000Y-69000000D03*
%TO.N,Net-(J5-Pin_2)*%
X120750000Y-66750000D03*
%TD*%
D28*
%TO.N,GND*%
X121500000Y-88000000D02*
X121500000Y-90012500D01*
X139012500Y-66000000D02*
X139337500Y-65675000D01*
X120416099Y-68000000D02*
X120500003Y-67916096D01*
X118862500Y-75000000D02*
X121000000Y-75000000D01*
X126000000Y-89512500D02*
X126825000Y-90337500D01*
X110175000Y-64000000D02*
X112000000Y-64000000D01*
D29*
X119758030Y-68000000D02*
X118797700Y-68000000D01*
D28*
X127500000Y-89662500D02*
X126825000Y-90337500D01*
X127000000Y-90162500D02*
X126825000Y-90337500D01*
D29*
X119782681Y-68024651D02*
X119758030Y-68000000D01*
D28*
X120500000Y-89662500D02*
X120500000Y-88000000D01*
X109500000Y-64675000D02*
X109825000Y-65000000D01*
X109500000Y-70325000D02*
X109825000Y-70000000D01*
X119500000Y-77500000D02*
X120890120Y-78890120D01*
X121500000Y-90012500D02*
X121175000Y-90337500D01*
X118862501Y-71000000D02*
X121000000Y-71000000D01*
X121175000Y-90337500D02*
X120500000Y-89662500D01*
X110175000Y-71000000D02*
X112000000Y-71000000D01*
X109825000Y-65000000D02*
X112000000Y-65000000D01*
D29*
X120300000Y-68000000D02*
X120275349Y-68024651D01*
D28*
X139012500Y-71000000D02*
X138012500Y-72000000D01*
X109500000Y-64675000D02*
X110175000Y-64000000D01*
X118862501Y-73000000D02*
X121000000Y-73000000D01*
X109500000Y-70325000D02*
X110175000Y-71000000D01*
X135500000Y-71000000D02*
X139012500Y-71000000D01*
X126000000Y-88000000D02*
X126000000Y-89512500D01*
X138662500Y-65000000D02*
X135500000Y-65000000D01*
X139337500Y-65675000D02*
X138662500Y-65000000D01*
D29*
X120275349Y-68024651D02*
X119782681Y-68024651D01*
D28*
X127000000Y-86912500D02*
X127000000Y-90162500D01*
X138012500Y-72000000D02*
X135500000Y-72000000D01*
X135500000Y-66000000D02*
X139012500Y-66000000D01*
X127500000Y-88000000D02*
X127500000Y-89662500D01*
X109825000Y-70000000D02*
X112000000Y-70000000D01*
D29*
%TO.N,Net-(U1-OUT)*%
X118872702Y-68575001D02*
X121324999Y-68575001D01*
X121324999Y-68575001D02*
X121400000Y-68500000D01*
D28*
X121400000Y-68500000D02*
X123487500Y-68500000D01*
D29*
X118797700Y-68499999D02*
X118872702Y-68575001D01*
D30*
%TO.N,Net-(J3-Pin_2)*%
X138000000Y-76000000D02*
X137000000Y-75000000D01*
X137000000Y-75000000D02*
X135874999Y-75000000D01*
X135500000Y-83500000D02*
X138000000Y-81000000D01*
X138000000Y-81000000D02*
X138000000Y-76000000D01*
D31*
%TO.N,VCC*%
X130000000Y-75000000D02*
X134125001Y-75000000D01*
D28*
X115000000Y-72000000D02*
X115000000Y-68500000D01*
X116000000Y-73000000D02*
X117137499Y-73000000D01*
X130000000Y-77000000D02*
X130000000Y-75000000D01*
X115000000Y-71000000D02*
X117137499Y-71000000D01*
X115000000Y-68500000D02*
X115450700Y-68049300D01*
X115000000Y-72000000D02*
X116000000Y-73000000D01*
X115000000Y-74000000D02*
X115000000Y-72000000D01*
X127000000Y-80000000D02*
X130000000Y-77000000D01*
X115450700Y-68049300D02*
X116000000Y-68049300D01*
X117137500Y-75000000D02*
X116000000Y-75000000D01*
D32*
X117202300Y-68000000D02*
X116049300Y-68000000D01*
D28*
X127000000Y-81212500D02*
X127000000Y-80000000D01*
X130000000Y-75000000D02*
X130000000Y-73000000D01*
X116000000Y-75000000D02*
X115000000Y-74000000D01*
D32*
X116049300Y-68000000D02*
X116000000Y-68049300D01*
D28*
%TO.N,Net-(J1-In)*%
X117912500Y-84912500D02*
X124000000Y-84912500D01*
X116609880Y-83609880D02*
X117912500Y-84912500D01*
X124000000Y-90090000D02*
X124000000Y-84912500D01*
%TO.N,Net-(C1-Pad1)*%
X124000000Y-83087500D02*
X124000000Y-82000000D01*
X124000000Y-82000000D02*
X122109880Y-80109880D01*
%TO.N,Net-(C2-Pad2)*%
X113500000Y-80500000D02*
X113500000Y-79825000D01*
X115390120Y-82390120D02*
X113500000Y-80500000D01*
%TO.N,Net-(J6-In)*%
X132000000Y-68500000D02*
X138537499Y-68500000D01*
X129862500Y-68500000D02*
X132000000Y-68500000D01*
X131500000Y-65500000D02*
X132000000Y-66000000D01*
X132000000Y-66000000D02*
X132000000Y-68500000D01*
X130500000Y-65500000D02*
X131500000Y-65500000D01*
%TO.N,Net-(C6-Pad1)*%
X125312500Y-68500000D02*
X126500000Y-68500000D01*
X126500000Y-68500000D02*
X126500000Y-66000000D01*
X127000000Y-65500000D02*
X128175000Y-65500000D01*
X126500000Y-66000000D02*
X127000000Y-65500000D01*
X126500000Y-68500000D02*
X128137500Y-68500000D01*
D29*
%TO.N,Net-(J2-In)*%
X116000000Y-67500001D02*
X117202300Y-67500001D01*
D28*
X109800000Y-67500000D02*
X109800001Y-67500001D01*
X109800001Y-67500001D02*
X113412501Y-67500001D01*
X113587499Y-67500001D02*
X116000000Y-67500001D01*
%TO.N,Net-(J4-Pin_2)*%
X116000000Y-69000000D02*
X115999999Y-69000001D01*
D32*
X116500001Y-68499999D02*
X115999999Y-69000001D01*
X117202300Y-68499999D02*
X116500001Y-68499999D01*
D29*
%TO.N,Net-(J5-Pin_2)*%
X119999999Y-67500001D02*
X118797700Y-67500001D01*
D28*
X120750000Y-66750000D02*
X119999999Y-67500001D01*
%TO.N,Net-(JP1-A)*%
X113500000Y-78000000D02*
X113500000Y-69412500D01*
%TO.N,Net-(D1-K)*%
X127000000Y-85087500D02*
X127000000Y-82750000D01*
%TD*%
M02*
