%TF.GenerationSoftware,KiCad,Pcbnew,8.0.5-8.0.5-0~ubuntu22.04.1*%
%TF.CreationDate,2025-01-09T15:44:54-03:00*%
%TF.ProjectId,tx_amplifier,74785f61-6d70-46c6-9966-6965722e6b69,v1.1*%
%TF.SameCoordinates,Original*%
%TF.FileFunction,Copper,L1,Top*%
%TF.FilePolarity,Positive*%
%FSLAX46Y46*%
G04 Gerber Fmt 4.6, Leading zero omitted, Abs format (unit mm)*
G04 Created by KiCad (PCBNEW 8.0.5-8.0.5-0~ubuntu22.04.1) date 2025-01-09 15:44:54*
%MOMM*%
%LPD*%
G01*
G04 APERTURE LIST*
G04 Aperture macros list*
%AMRoundRect*
0 Rectangle with rounded corners*
0 $1 Rounding radius*
0 $2 $3 $4 $5 $6 $7 $8 $9 X,Y pos of 4 corners*
0 Add a 4 corners polygon primitive as box body*
4,1,4,$2,$3,$4,$5,$6,$7,$8,$9,$2,$3,0*
0 Add four circle primitives for the rounded corners*
1,1,$1+$1,$2,$3*
1,1,$1+$1,$4,$5*
1,1,$1+$1,$6,$7*
1,1,$1+$1,$8,$9*
0 Add four rect primitives between the rounded corners*
20,1,$1+$1,$2,$3,$4,$5,0*
20,1,$1+$1,$4,$5,$6,$7,0*
20,1,$1+$1,$6,$7,$8,$9,0*
20,1,$1+$1,$8,$9,$2,$3,0*%
G04 Aperture macros list end*
%TA.AperFunction,Conductor*%
%ADD10C,0.200000*%
%TD*%
%TA.AperFunction,SMDPad,CuDef*%
%ADD11RoundRect,0.237500X0.300000X0.237500X-0.300000X0.237500X-0.300000X-0.237500X0.300000X-0.237500X0*%
%TD*%
%TA.AperFunction,SMDPad,CuDef*%
%ADD12RoundRect,0.250000X-0.400000X-0.625000X0.400000X-0.625000X0.400000X0.625000X-0.400000X0.625000X0*%
%TD*%
%TA.AperFunction,SMDPad,CuDef*%
%ADD13RoundRect,0.237500X-0.300000X-0.237500X0.300000X-0.237500X0.300000X0.237500X-0.300000X0.237500X0*%
%TD*%
%TA.AperFunction,SMDPad,CuDef*%
%ADD14RoundRect,0.237500X-0.287500X-0.237500X0.287500X-0.237500X0.287500X0.237500X-0.287500X0.237500X0*%
%TD*%
%TA.AperFunction,SMDPad,CuDef*%
%ADD15R,3.600000X1.270000*%
%TD*%
%TA.AperFunction,SMDPad,CuDef*%
%ADD16R,4.200000X1.350000*%
%TD*%
%TA.AperFunction,SMDPad,CuDef*%
%ADD17RoundRect,0.237500X0.250000X0.237500X-0.250000X0.237500X-0.250000X-0.237500X0.250000X-0.237500X0*%
%TD*%
%TA.AperFunction,ComponentPad*%
%ADD18R,3.000000X3.000000*%
%TD*%
%TA.AperFunction,ComponentPad*%
%ADD19C,3.000000*%
%TD*%
%TA.AperFunction,SMDPad,CuDef*%
%ADD20RoundRect,0.237500X-0.250000X-0.237500X0.250000X-0.237500X0.250000X0.237500X-0.250000X0.237500X0*%
%TD*%
%TA.AperFunction,SMDPad,CuDef*%
%ADD21RoundRect,0.250000X0.400000X0.625000X-0.400000X0.625000X-0.400000X-0.625000X0.400000X-0.625000X0*%
%TD*%
%TA.AperFunction,SMDPad,CuDef*%
%ADD22R,0.225000X0.350000*%
%TD*%
%TA.AperFunction,SMDPad,CuDef*%
%ADD23R,0.600000X0.450000*%
%TD*%
%TA.AperFunction,ViaPad*%
%ADD24C,0.600000*%
%TD*%
%TA.AperFunction,Conductor*%
%ADD25C,0.800000*%
%TD*%
%TA.AperFunction,Conductor*%
%ADD26C,0.500000*%
%TD*%
G04 APERTURE END LIST*
D10*
%TO.N,Net-(Q1-C)*%
X115196022Y-110136321D02*
X114647312Y-109838480D01*
X115196022Y-109577521D01*
X115196022Y-110136321D01*
%TA.AperFunction,Conductor*%
G36*
X115196022Y-110136321D02*
G01*
X114647312Y-109838480D01*
X115196022Y-109577521D01*
X115196022Y-110136321D01*
G37*
%TD.AperFunction*%
%TO.N,Net-(Q1-B)*%
X113416510Y-109873441D02*
X112867800Y-110134400D01*
X112867800Y-109575600D01*
X113416510Y-109873441D01*
%TA.AperFunction,Conductor*%
G36*
X113416510Y-109873441D02*
G01*
X112867800Y-110134400D01*
X112867800Y-109575600D01*
X113416510Y-109873441D01*
G37*
%TD.AperFunction*%
%TD*%
D11*
%TO.P,C2,1*%
%TO.N,Net-(C2-Pad1)*%
X111606500Y-103124000D03*
%TO.P,C2,2*%
%TO.N,GND*%
X109881500Y-103124000D03*
%TD*%
D12*
%TO.P,R1,1*%
%TO.N,Net-(C2-Pad1)*%
X113994000Y-103124000D03*
%TO.P,R1,2*%
%TO.N,+3.3V*%
X117094000Y-103124000D03*
%TD*%
D13*
%TO.P,C6,1*%
%TO.N,Net-(C6-Pad1)*%
X115369000Y-111760000D03*
%TO.P,C6,2*%
%TO.N,Net-(Q1-C)*%
X117094000Y-111760000D03*
%TD*%
D14*
%TO.P,L1,1,1*%
%TO.N,Net-(Q1-C)*%
X117094000Y-109855000D03*
%TO.P,L1,2,2*%
%TO.N,Net-(C5-Pad1)*%
X118844000Y-109855000D03*
%TD*%
D15*
%TO.P,J2,1,In*%
%TO.N,Net-(J2-In)*%
X127254000Y-109855000D03*
D16*
%TO.P,J2,2,Ext*%
%TO.N,GND*%
X127054000Y-112680000D03*
X127054000Y-107030000D03*
%TD*%
D13*
%TO.P,C5,1*%
%TO.N,Net-(C5-Pad1)*%
X121565500Y-109855000D03*
%TO.P,C5,2*%
%TO.N,Net-(J2-In)*%
X123290500Y-109855000D03*
%TD*%
D17*
%TO.P,R4,1*%
%TO.N,Net-(C6-Pad1)*%
X112672500Y-111760000D03*
%TO.P,R4,2*%
%TO.N,Net-(Q1-B)*%
X110847500Y-111760000D03*
%TD*%
D15*
%TO.P,J1,1,In*%
%TO.N,Net-(J1-In)*%
X102616000Y-109855000D03*
D16*
%TO.P,J1,2,Ext*%
%TO.N,GND*%
X102816000Y-107030000D03*
X102816000Y-112680000D03*
%TD*%
D18*
%TO.P,J3,1,Pin_1*%
%TO.N,+3.3V*%
X117080000Y-96000000D03*
D19*
%TO.P,J3,2,Pin_2*%
%TO.N,GND*%
X112000000Y-96000000D03*
%TD*%
D13*
%TO.P,C1,1*%
%TO.N,Net-(J1-In)*%
X108104000Y-109855000D03*
%TO.P,C1,2*%
%TO.N,Net-(Q1-B)*%
X109829000Y-109855000D03*
%TD*%
D14*
%TO.P,L2,1,1*%
%TO.N,Net-(C5-Pad1)*%
X121553000Y-112014000D03*
%TO.P,L2,2,2*%
%TO.N,Net-(C4-Pad2)*%
X123303000Y-112014000D03*
%TD*%
D20*
%TO.P,R2,1*%
%TO.N,Net-(Q1-B)*%
X109831500Y-106172000D03*
%TO.P,R2,2*%
%TO.N,Net-(C2-Pad1)*%
X111656500Y-106172000D03*
%TD*%
D13*
%TO.P,C4,1*%
%TO.N,GND*%
X121539000Y-114300000D03*
%TO.P,C4,2*%
%TO.N,Net-(C4-Pad2)*%
X123264000Y-114300000D03*
%TD*%
D11*
%TO.P,C3,1*%
%TO.N,GND*%
X123290500Y-106045000D03*
%TO.P,C3,2*%
%TO.N,Net-(Q1-C)*%
X121565500Y-106045000D03*
%TD*%
D21*
%TO.P,R3,1*%
%TO.N,Net-(Q1-C)*%
X117094000Y-106045000D03*
%TO.P,R3,2*%
%TO.N,Net-(C2-Pad1)*%
X113994000Y-106045000D03*
%TD*%
D22*
%TO.P,Q1,1,B*%
%TO.N,Net-(Q1-B)*%
X113874100Y-109855000D03*
%TO.P,Q1,2,C*%
%TO.N,Net-(Q1-C)*%
X114248600Y-109855000D03*
D23*
%TO.P,Q1,3,E*%
%TO.N,GND*%
X114061600Y-109255000D03*
%TD*%
D24*
%TO.N,GND*%
X102819200Y-114249200D03*
X127050800Y-105410000D03*
X102819200Y-105460800D03*
X114071400Y-108178600D03*
X123291600Y-104698800D03*
X121539000Y-115620800D03*
X127050800Y-114249200D03*
X109882100Y-101854000D03*
%TD*%
D10*
%TO.N,Net-(Q1-C)*%
X114248600Y-109855000D02*
X115315400Y-109855000D01*
%TO.N,Net-(Q1-B)*%
X113874100Y-109855000D02*
X112750000Y-109855000D01*
D25*
X109831500Y-106172000D02*
X109831500Y-109852500D01*
X111604000Y-109858000D02*
X111607000Y-109855000D01*
X111099000Y-109855000D02*
X111607000Y-109855000D01*
X109831500Y-109852500D02*
X109829000Y-109855000D01*
X110847500Y-111760000D02*
X110847500Y-110106500D01*
X110847500Y-110106500D02*
X111099000Y-109855000D01*
X111607000Y-109855000D02*
X112750000Y-109855000D01*
X111099000Y-109855000D02*
X109829000Y-109855000D01*
%TO.N,Net-(J1-In)*%
X108104000Y-109855000D02*
X102616000Y-109855000D01*
%TO.N,GND*%
X109881500Y-101854600D02*
X109882100Y-101854000D01*
X102816000Y-112680000D02*
X102816000Y-114246000D01*
X109881500Y-103124000D02*
X109881500Y-101854600D01*
X102816000Y-107030000D02*
X102816000Y-105464000D01*
D26*
X114061600Y-108188400D02*
X114071400Y-108178600D01*
D25*
X102816000Y-114246000D02*
X102819200Y-114249200D01*
X127054000Y-105413200D02*
X127050800Y-105410000D01*
X121539000Y-114300000D02*
X121539000Y-115620800D01*
X123290500Y-106045000D02*
X123290500Y-104699900D01*
X127054000Y-114246000D02*
X127050800Y-114249200D01*
X123290500Y-104699900D02*
X123291600Y-104698800D01*
X127054000Y-107030000D02*
X127054000Y-105413200D01*
X102816000Y-105464000D02*
X102819200Y-105460800D01*
D26*
X114061600Y-109255000D02*
X114061600Y-108188400D01*
D25*
X127054000Y-112680000D02*
X127054000Y-114246000D01*
%TO.N,Net-(C2-Pad1)*%
X112776000Y-103124000D02*
X113994000Y-103124000D01*
X112776000Y-103124000D02*
X112776000Y-106070400D01*
X112674400Y-106172000D02*
X113867000Y-106172000D01*
X111606500Y-103124000D02*
X112776000Y-103124000D01*
X111656500Y-106172000D02*
X112674400Y-106172000D01*
X112776000Y-106070400D02*
X112674400Y-106172000D01*
X113867000Y-106172000D02*
X113994000Y-106045000D01*
%TO.N,Net-(Q1-C)*%
X117094000Y-106045000D02*
X121565500Y-106045000D01*
X115315400Y-109855000D02*
X117094000Y-109855000D01*
X117094000Y-109855000D02*
X117094000Y-106045000D01*
X117094000Y-111760000D02*
X117094000Y-109855000D01*
%TO.N,Net-(C4-Pad2)*%
X123303000Y-112014000D02*
X123303000Y-114261000D01*
X123303000Y-114261000D02*
X123264000Y-114300000D01*
%TO.N,Net-(C5-Pad1)*%
X121565500Y-112001500D02*
X121553000Y-112014000D01*
X121565500Y-109855000D02*
X121565500Y-112001500D01*
X118844000Y-109855000D02*
X121565500Y-109855000D01*
%TO.N,Net-(J2-In)*%
X123290500Y-109855000D02*
X127254000Y-109855000D01*
%TO.N,Net-(C6-Pad1)*%
X115369000Y-111760000D02*
X112672500Y-111760000D01*
%TO.N,+3.3V*%
X117094000Y-96014000D02*
X117080000Y-96000000D01*
X117094000Y-103124000D02*
X117094000Y-96014000D01*
%TD*%
M02*
