%TF.GenerationSoftware,KiCad,Pcbnew,8.0.5-8.0.5-0~ubuntu22.04.1*%
%TF.CreationDate,2025-01-09T15:44:55-03:00*%
%TF.ProjectId,tx_amplifier,74785f61-6d70-46c6-9966-6965722e6b69,v1.1*%
%TF.SameCoordinates,Original*%
%TF.FileFunction,Copper,L2,Bot*%
%TF.FilePolarity,Positive*%
%FSLAX46Y46*%
G04 Gerber Fmt 4.6, Leading zero omitted, Abs format (unit mm)*
G04 Created by KiCad (PCBNEW 8.0.5-8.0.5-0~ubuntu22.04.1) date 2025-01-09 15:44:55*
%MOMM*%
%LPD*%
G01*
G04 APERTURE LIST*
%TA.AperFunction,SMDPad,CuDef*%
%ADD10R,4.200000X1.350000*%
%TD*%
%TA.AperFunction,ComponentPad*%
%ADD11R,3.000000X3.000000*%
%TD*%
%TA.AperFunction,ComponentPad*%
%ADD12C,3.000000*%
%TD*%
%TA.AperFunction,ViaPad*%
%ADD13C,0.600000*%
%TD*%
G04 APERTURE END LIST*
D10*
%TO.P,J2,2,Ext*%
%TO.N,GND*%
X127054000Y-112680000D03*
X127054000Y-107030000D03*
%TD*%
%TO.P,J1,2,Ext*%
%TO.N,GND*%
X102816000Y-107030000D03*
X102816000Y-112680000D03*
%TD*%
D11*
%TO.P,J3,1,Pin_1*%
%TO.N,+3.3V*%
X117080000Y-96000000D03*
D12*
%TO.P,J3,2,Pin_2*%
%TO.N,GND*%
X112000000Y-96000000D03*
%TD*%
D13*
%TO.N,GND*%
X102819200Y-114249200D03*
X127050800Y-105410000D03*
X102819200Y-105460800D03*
X114071400Y-108178600D03*
X123291600Y-104698800D03*
X121539000Y-115620800D03*
X127050800Y-114249200D03*
X109882100Y-101854000D03*
%TD*%
%TA.AperFunction,Conductor*%
%TO.N,GND*%
G36*
X129443039Y-90519685D02*
G01*
X129488794Y-90572489D01*
X129500000Y-90624000D01*
X129500000Y-105771809D01*
X129480315Y-105838848D01*
X129427511Y-105884603D01*
X129358353Y-105894547D01*
X129332668Y-105887991D01*
X129261383Y-105861403D01*
X129261372Y-105861401D01*
X129201844Y-105855000D01*
X127454000Y-105855000D01*
X127454000Y-108205000D01*
X129201828Y-108205000D01*
X129201844Y-108204999D01*
X129261372Y-108198598D01*
X129261376Y-108198597D01*
X129332666Y-108172008D01*
X129402358Y-108167024D01*
X129463681Y-108200509D01*
X129497166Y-108261832D01*
X129500000Y-108288190D01*
X129500000Y-111421809D01*
X129480315Y-111488848D01*
X129427511Y-111534603D01*
X129358353Y-111544547D01*
X129332668Y-111537991D01*
X129261383Y-111511403D01*
X129261372Y-111511401D01*
X129201844Y-111505000D01*
X127454000Y-111505000D01*
X127454000Y-113855000D01*
X129201828Y-113855000D01*
X129201844Y-113854999D01*
X129261372Y-113848598D01*
X129261376Y-113848597D01*
X129332666Y-113822008D01*
X129402358Y-113817024D01*
X129463681Y-113850509D01*
X129497166Y-113911832D01*
X129500000Y-113938190D01*
X129500000Y-119376000D01*
X129480315Y-119443039D01*
X129427511Y-119488794D01*
X129376000Y-119500000D01*
X100624000Y-119500000D01*
X100556961Y-119480315D01*
X100511206Y-119427511D01*
X100500000Y-119376000D01*
X100500000Y-117385258D01*
X101249500Y-117385258D01*
X101249500Y-117614741D01*
X101274446Y-117804215D01*
X101279452Y-117842238D01*
X101279453Y-117842240D01*
X101338842Y-118063887D01*
X101426650Y-118275876D01*
X101426657Y-118275890D01*
X101541392Y-118474617D01*
X101681081Y-118656661D01*
X101681089Y-118656670D01*
X101843330Y-118818911D01*
X101843338Y-118818918D01*
X102025382Y-118958607D01*
X102025385Y-118958608D01*
X102025388Y-118958611D01*
X102224112Y-119073344D01*
X102224117Y-119073346D01*
X102224123Y-119073349D01*
X102315480Y-119111190D01*
X102436113Y-119161158D01*
X102657762Y-119220548D01*
X102885266Y-119250500D01*
X102885273Y-119250500D01*
X103114727Y-119250500D01*
X103114734Y-119250500D01*
X103342238Y-119220548D01*
X103563887Y-119161158D01*
X103775888Y-119073344D01*
X103974612Y-118958611D01*
X104156661Y-118818919D01*
X104156665Y-118818914D01*
X104156670Y-118818911D01*
X104318911Y-118656670D01*
X104318914Y-118656665D01*
X104318919Y-118656661D01*
X104458611Y-118474612D01*
X104573344Y-118275888D01*
X104661158Y-118063887D01*
X104720548Y-117842238D01*
X104750500Y-117614734D01*
X104750500Y-117385266D01*
X104750499Y-117385258D01*
X125249500Y-117385258D01*
X125249500Y-117614741D01*
X125274446Y-117804215D01*
X125279452Y-117842238D01*
X125279453Y-117842240D01*
X125338842Y-118063887D01*
X125426650Y-118275876D01*
X125426657Y-118275890D01*
X125541392Y-118474617D01*
X125681081Y-118656661D01*
X125681089Y-118656670D01*
X125843330Y-118818911D01*
X125843338Y-118818918D01*
X126025382Y-118958607D01*
X126025385Y-118958608D01*
X126025388Y-118958611D01*
X126224112Y-119073344D01*
X126224117Y-119073346D01*
X126224123Y-119073349D01*
X126315480Y-119111190D01*
X126436113Y-119161158D01*
X126657762Y-119220548D01*
X126885266Y-119250500D01*
X126885273Y-119250500D01*
X127114727Y-119250500D01*
X127114734Y-119250500D01*
X127342238Y-119220548D01*
X127563887Y-119161158D01*
X127775888Y-119073344D01*
X127974612Y-118958611D01*
X128156661Y-118818919D01*
X128156665Y-118818914D01*
X128156670Y-118818911D01*
X128318911Y-118656670D01*
X128318914Y-118656665D01*
X128318919Y-118656661D01*
X128458611Y-118474612D01*
X128573344Y-118275888D01*
X128661158Y-118063887D01*
X128720548Y-117842238D01*
X128750500Y-117614734D01*
X128750500Y-117385266D01*
X128720548Y-117157762D01*
X128661158Y-116936113D01*
X128573344Y-116724112D01*
X128458611Y-116525388D01*
X128458608Y-116525385D01*
X128458607Y-116525382D01*
X128318918Y-116343338D01*
X128318911Y-116343330D01*
X128156670Y-116181089D01*
X128156661Y-116181081D01*
X127974617Y-116041392D01*
X127775890Y-115926657D01*
X127775876Y-115926650D01*
X127563887Y-115838842D01*
X127342238Y-115779452D01*
X127304215Y-115774446D01*
X127114741Y-115749500D01*
X127114734Y-115749500D01*
X126885266Y-115749500D01*
X126885258Y-115749500D01*
X126668715Y-115778009D01*
X126657762Y-115779452D01*
X126564076Y-115804554D01*
X126436112Y-115838842D01*
X126224123Y-115926650D01*
X126224109Y-115926657D01*
X126025382Y-116041392D01*
X125843338Y-116181081D01*
X125681081Y-116343338D01*
X125541392Y-116525382D01*
X125426657Y-116724109D01*
X125426650Y-116724123D01*
X125338842Y-116936112D01*
X125279453Y-117157759D01*
X125279451Y-117157770D01*
X125249500Y-117385258D01*
X104750499Y-117385258D01*
X104720548Y-117157762D01*
X104661158Y-116936113D01*
X104573344Y-116724112D01*
X104458611Y-116525388D01*
X104458608Y-116525385D01*
X104458607Y-116525382D01*
X104318918Y-116343338D01*
X104318911Y-116343330D01*
X104156670Y-116181089D01*
X104156661Y-116181081D01*
X103974617Y-116041392D01*
X103775890Y-115926657D01*
X103775876Y-115926650D01*
X103563887Y-115838842D01*
X103342238Y-115779452D01*
X103304215Y-115774446D01*
X103114741Y-115749500D01*
X103114734Y-115749500D01*
X102885266Y-115749500D01*
X102885258Y-115749500D01*
X102668715Y-115778009D01*
X102657762Y-115779452D01*
X102564076Y-115804554D01*
X102436112Y-115838842D01*
X102224123Y-115926650D01*
X102224109Y-115926657D01*
X102025382Y-116041392D01*
X101843338Y-116181081D01*
X101681081Y-116343338D01*
X101541392Y-116525382D01*
X101426657Y-116724109D01*
X101426650Y-116724123D01*
X101338842Y-116936112D01*
X101279453Y-117157759D01*
X101279451Y-117157770D01*
X101249500Y-117385258D01*
X100500000Y-117385258D01*
X100500000Y-113974965D01*
X100519685Y-113907926D01*
X100572489Y-113862171D01*
X100637259Y-113851676D01*
X100668163Y-113854999D01*
X100668172Y-113855000D01*
X102416000Y-113855000D01*
X103216000Y-113855000D01*
X104963828Y-113855000D01*
X104963844Y-113854999D01*
X105023372Y-113848598D01*
X105023379Y-113848596D01*
X105158086Y-113798354D01*
X105158093Y-113798350D01*
X105273187Y-113712190D01*
X105273190Y-113712187D01*
X105359350Y-113597093D01*
X105359354Y-113597086D01*
X105409596Y-113462379D01*
X105409598Y-113462372D01*
X105415999Y-113402844D01*
X124454000Y-113402844D01*
X124460401Y-113462372D01*
X124460403Y-113462379D01*
X124510645Y-113597086D01*
X124510649Y-113597093D01*
X124596809Y-113712187D01*
X124596812Y-113712190D01*
X124711906Y-113798350D01*
X124711913Y-113798354D01*
X124846620Y-113848596D01*
X124846627Y-113848598D01*
X124906155Y-113854999D01*
X124906172Y-113855000D01*
X126654000Y-113855000D01*
X126654000Y-113080000D01*
X124454000Y-113080000D01*
X124454000Y-113402844D01*
X105415999Y-113402844D01*
X105416000Y-113402827D01*
X105416000Y-113080000D01*
X103216000Y-113080000D01*
X103216000Y-113855000D01*
X102416000Y-113855000D01*
X102416000Y-112280000D01*
X103216000Y-112280000D01*
X105416000Y-112280000D01*
X105416000Y-111957172D01*
X105415999Y-111957155D01*
X124454000Y-111957155D01*
X124454000Y-112280000D01*
X126654000Y-112280000D01*
X126654000Y-111505000D01*
X124906155Y-111505000D01*
X124846627Y-111511401D01*
X124846620Y-111511403D01*
X124711913Y-111561645D01*
X124711906Y-111561649D01*
X124596812Y-111647809D01*
X124596809Y-111647812D01*
X124510649Y-111762906D01*
X124510645Y-111762913D01*
X124460403Y-111897620D01*
X124460401Y-111897627D01*
X124454000Y-111957155D01*
X105415999Y-111957155D01*
X105409598Y-111897627D01*
X105409596Y-111897620D01*
X105359354Y-111762913D01*
X105359350Y-111762906D01*
X105273190Y-111647812D01*
X105273187Y-111647809D01*
X105158093Y-111561649D01*
X105158086Y-111561645D01*
X105023379Y-111511403D01*
X105023372Y-111511401D01*
X104963844Y-111505000D01*
X103216000Y-111505000D01*
X103216000Y-112280000D01*
X102416000Y-112280000D01*
X102416000Y-111505000D01*
X100668172Y-111505000D01*
X100668153Y-111505001D01*
X100637255Y-111508323D01*
X100568496Y-111495918D01*
X100517358Y-111448308D01*
X100500000Y-111385034D01*
X100500000Y-108324965D01*
X100519685Y-108257926D01*
X100572489Y-108212171D01*
X100637259Y-108201676D01*
X100668163Y-108204999D01*
X100668172Y-108205000D01*
X102416000Y-108205000D01*
X103216000Y-108205000D01*
X104963828Y-108205000D01*
X104963844Y-108204999D01*
X105023372Y-108198598D01*
X105023379Y-108198596D01*
X105158086Y-108148354D01*
X105158093Y-108148350D01*
X105273187Y-108062190D01*
X105273190Y-108062187D01*
X105359350Y-107947093D01*
X105359354Y-107947086D01*
X105409596Y-107812379D01*
X105409598Y-107812372D01*
X105415999Y-107752844D01*
X124454000Y-107752844D01*
X124460401Y-107812372D01*
X124460403Y-107812379D01*
X124510645Y-107947086D01*
X124510649Y-107947093D01*
X124596809Y-108062187D01*
X124596812Y-108062190D01*
X124711906Y-108148350D01*
X124711913Y-108148354D01*
X124846620Y-108198596D01*
X124846627Y-108198598D01*
X124906155Y-108204999D01*
X124906172Y-108205000D01*
X126654000Y-108205000D01*
X126654000Y-107430000D01*
X124454000Y-107430000D01*
X124454000Y-107752844D01*
X105415999Y-107752844D01*
X105416000Y-107752827D01*
X105416000Y-107430000D01*
X103216000Y-107430000D01*
X103216000Y-108205000D01*
X102416000Y-108205000D01*
X102416000Y-106630000D01*
X103216000Y-106630000D01*
X105416000Y-106630000D01*
X105416000Y-106307172D01*
X105415999Y-106307155D01*
X124454000Y-106307155D01*
X124454000Y-106630000D01*
X126654000Y-106630000D01*
X126654000Y-105855000D01*
X124906155Y-105855000D01*
X124846627Y-105861401D01*
X124846620Y-105861403D01*
X124711913Y-105911645D01*
X124711906Y-105911649D01*
X124596812Y-105997809D01*
X124596809Y-105997812D01*
X124510649Y-106112906D01*
X124510645Y-106112913D01*
X124460403Y-106247620D01*
X124460401Y-106247627D01*
X124454000Y-106307155D01*
X105415999Y-106307155D01*
X105409598Y-106247627D01*
X105409596Y-106247620D01*
X105359354Y-106112913D01*
X105359350Y-106112906D01*
X105273190Y-105997812D01*
X105273187Y-105997809D01*
X105158093Y-105911649D01*
X105158086Y-105911645D01*
X105023379Y-105861403D01*
X105023372Y-105861401D01*
X104963844Y-105855000D01*
X103216000Y-105855000D01*
X103216000Y-106630000D01*
X102416000Y-106630000D01*
X102416000Y-105855000D01*
X100668172Y-105855000D01*
X100668153Y-105855001D01*
X100637255Y-105858323D01*
X100568496Y-105845918D01*
X100517358Y-105798308D01*
X100500000Y-105735034D01*
X100500000Y-95999998D01*
X109994891Y-95999998D01*
X109994891Y-96000001D01*
X110015300Y-96285362D01*
X110076109Y-96564895D01*
X110176091Y-96832958D01*
X110313196Y-97084047D01*
X110329066Y-97105246D01*
X110329067Y-97105246D01*
X111259820Y-96174493D01*
X111269207Y-96221684D01*
X111326497Y-96359995D01*
X111409670Y-96484472D01*
X111515528Y-96590330D01*
X111640005Y-96673503D01*
X111778316Y-96730793D01*
X111825505Y-96740179D01*
X110894752Y-97670932D01*
X110915954Y-97686804D01*
X110915960Y-97686807D01*
X111167042Y-97823908D01*
X111167041Y-97823908D01*
X111435104Y-97923890D01*
X111714637Y-97984699D01*
X111999999Y-98005109D01*
X112000001Y-98005109D01*
X112285362Y-97984699D01*
X112564895Y-97923890D01*
X112832958Y-97823908D01*
X113084040Y-97686806D01*
X113105246Y-97670931D01*
X112174495Y-96740179D01*
X112221684Y-96730793D01*
X112359995Y-96673503D01*
X112484472Y-96590330D01*
X112590330Y-96484472D01*
X112673503Y-96359995D01*
X112730793Y-96221684D01*
X112740179Y-96174494D01*
X113670931Y-97105246D01*
X113686806Y-97084040D01*
X113823908Y-96832958D01*
X113923890Y-96564895D01*
X113984699Y-96285362D01*
X114005109Y-96000001D01*
X114005109Y-95999998D01*
X113984699Y-95714637D01*
X113923890Y-95435104D01*
X113823908Y-95167041D01*
X113686807Y-94915960D01*
X113686804Y-94915954D01*
X113670932Y-94894752D01*
X112740179Y-95825505D01*
X112730793Y-95778316D01*
X112673503Y-95640005D01*
X112590330Y-95515528D01*
X112484472Y-95409670D01*
X112359995Y-95326497D01*
X112221684Y-95269207D01*
X112174494Y-95259820D01*
X112982178Y-94452135D01*
X115079500Y-94452135D01*
X115079500Y-97547870D01*
X115079501Y-97547876D01*
X115085908Y-97607483D01*
X115136202Y-97742328D01*
X115136206Y-97742335D01*
X115222452Y-97857544D01*
X115222455Y-97857547D01*
X115337664Y-97943793D01*
X115337671Y-97943797D01*
X115472517Y-97994091D01*
X115472516Y-97994091D01*
X115479444Y-97994835D01*
X115532127Y-98000500D01*
X118627872Y-98000499D01*
X118687483Y-97994091D01*
X118822331Y-97943796D01*
X118937546Y-97857546D01*
X119023796Y-97742331D01*
X119074091Y-97607483D01*
X119080500Y-97547873D01*
X119080499Y-94452128D01*
X119074091Y-94392517D01*
X119050425Y-94329066D01*
X119023797Y-94257671D01*
X119023793Y-94257664D01*
X118937547Y-94142455D01*
X118937544Y-94142452D01*
X118822335Y-94056206D01*
X118822328Y-94056202D01*
X118687482Y-94005908D01*
X118687483Y-94005908D01*
X118627883Y-93999501D01*
X118627881Y-93999500D01*
X118627873Y-93999500D01*
X118627864Y-93999500D01*
X115532129Y-93999500D01*
X115532123Y-93999501D01*
X115472516Y-94005908D01*
X115337671Y-94056202D01*
X115337664Y-94056206D01*
X115222455Y-94142452D01*
X115222452Y-94142455D01*
X115136206Y-94257664D01*
X115136202Y-94257671D01*
X115085908Y-94392517D01*
X115079501Y-94452116D01*
X115079501Y-94452123D01*
X115079500Y-94452135D01*
X112982178Y-94452135D01*
X113105246Y-94329067D01*
X113105246Y-94329066D01*
X113084047Y-94313196D01*
X112832957Y-94176091D01*
X112832958Y-94176091D01*
X112564895Y-94076109D01*
X112285362Y-94015300D01*
X112000001Y-93994891D01*
X111999999Y-93994891D01*
X111714637Y-94015300D01*
X111435104Y-94076109D01*
X111167041Y-94176091D01*
X110915954Y-94313196D01*
X110894752Y-94329066D01*
X111825506Y-95259820D01*
X111778316Y-95269207D01*
X111640005Y-95326497D01*
X111515528Y-95409670D01*
X111409670Y-95515528D01*
X111326497Y-95640005D01*
X111269207Y-95778316D01*
X111259820Y-95825506D01*
X110329066Y-94894752D01*
X110313196Y-94915954D01*
X110176091Y-95167041D01*
X110076109Y-95435104D01*
X110015300Y-95714637D01*
X109994891Y-95999998D01*
X100500000Y-95999998D01*
X100500000Y-92385258D01*
X101249500Y-92385258D01*
X101249500Y-92614741D01*
X101274446Y-92804215D01*
X101279452Y-92842238D01*
X101279453Y-92842240D01*
X101338842Y-93063887D01*
X101426650Y-93275876D01*
X101426657Y-93275890D01*
X101541392Y-93474617D01*
X101681081Y-93656661D01*
X101681089Y-93656670D01*
X101843330Y-93818911D01*
X101843338Y-93818918D01*
X102025382Y-93958607D01*
X102025385Y-93958608D01*
X102025388Y-93958611D01*
X102224112Y-94073344D01*
X102224117Y-94073346D01*
X102224123Y-94073349D01*
X102315480Y-94111190D01*
X102436113Y-94161158D01*
X102657762Y-94220548D01*
X102885266Y-94250500D01*
X102885273Y-94250500D01*
X103114727Y-94250500D01*
X103114734Y-94250500D01*
X103342238Y-94220548D01*
X103563887Y-94161158D01*
X103775888Y-94073344D01*
X103974612Y-93958611D01*
X104156661Y-93818919D01*
X104156665Y-93818914D01*
X104156670Y-93818911D01*
X104318911Y-93656670D01*
X104318914Y-93656665D01*
X104318919Y-93656661D01*
X104458611Y-93474612D01*
X104573344Y-93275888D01*
X104661158Y-93063887D01*
X104720548Y-92842238D01*
X104750500Y-92614734D01*
X104750500Y-92385266D01*
X104750499Y-92385258D01*
X125249500Y-92385258D01*
X125249500Y-92614741D01*
X125274446Y-92804215D01*
X125279452Y-92842238D01*
X125279453Y-92842240D01*
X125338842Y-93063887D01*
X125426650Y-93275876D01*
X125426657Y-93275890D01*
X125541392Y-93474617D01*
X125681081Y-93656661D01*
X125681089Y-93656670D01*
X125843330Y-93818911D01*
X125843338Y-93818918D01*
X126025382Y-93958607D01*
X126025385Y-93958608D01*
X126025388Y-93958611D01*
X126224112Y-94073344D01*
X126224117Y-94073346D01*
X126224123Y-94073349D01*
X126315480Y-94111190D01*
X126436113Y-94161158D01*
X126657762Y-94220548D01*
X126885266Y-94250500D01*
X126885273Y-94250500D01*
X127114727Y-94250500D01*
X127114734Y-94250500D01*
X127342238Y-94220548D01*
X127563887Y-94161158D01*
X127775888Y-94073344D01*
X127974612Y-93958611D01*
X128156661Y-93818919D01*
X128156665Y-93818914D01*
X128156670Y-93818911D01*
X128318911Y-93656670D01*
X128318914Y-93656665D01*
X128318919Y-93656661D01*
X128458611Y-93474612D01*
X128573344Y-93275888D01*
X128661158Y-93063887D01*
X128720548Y-92842238D01*
X128750500Y-92614734D01*
X128750500Y-92385266D01*
X128720548Y-92157762D01*
X128661158Y-91936113D01*
X128573344Y-91724112D01*
X128458611Y-91525388D01*
X128458608Y-91525385D01*
X128458607Y-91525382D01*
X128318918Y-91343338D01*
X128318911Y-91343330D01*
X128156670Y-91181089D01*
X128156661Y-91181081D01*
X127974617Y-91041392D01*
X127775890Y-90926657D01*
X127775876Y-90926650D01*
X127563887Y-90838842D01*
X127342238Y-90779452D01*
X127304215Y-90774446D01*
X127114741Y-90749500D01*
X127114734Y-90749500D01*
X126885266Y-90749500D01*
X126885258Y-90749500D01*
X126668715Y-90778009D01*
X126657762Y-90779452D01*
X126564076Y-90804554D01*
X126436112Y-90838842D01*
X126224123Y-90926650D01*
X126224109Y-90926657D01*
X126025382Y-91041392D01*
X125843338Y-91181081D01*
X125681081Y-91343338D01*
X125541392Y-91525382D01*
X125426657Y-91724109D01*
X125426650Y-91724123D01*
X125338842Y-91936112D01*
X125279453Y-92157759D01*
X125279451Y-92157770D01*
X125249500Y-92385258D01*
X104750499Y-92385258D01*
X104720548Y-92157762D01*
X104661158Y-91936113D01*
X104573344Y-91724112D01*
X104458611Y-91525388D01*
X104458608Y-91525385D01*
X104458607Y-91525382D01*
X104318918Y-91343338D01*
X104318911Y-91343330D01*
X104156670Y-91181089D01*
X104156661Y-91181081D01*
X103974617Y-91041392D01*
X103775890Y-90926657D01*
X103775876Y-90926650D01*
X103563887Y-90838842D01*
X103342238Y-90779452D01*
X103304215Y-90774446D01*
X103114741Y-90749500D01*
X103114734Y-90749500D01*
X102885266Y-90749500D01*
X102885258Y-90749500D01*
X102668715Y-90778009D01*
X102657762Y-90779452D01*
X102564076Y-90804554D01*
X102436112Y-90838842D01*
X102224123Y-90926650D01*
X102224109Y-90926657D01*
X102025382Y-91041392D01*
X101843338Y-91181081D01*
X101681081Y-91343338D01*
X101541392Y-91525382D01*
X101426657Y-91724109D01*
X101426650Y-91724123D01*
X101338842Y-91936112D01*
X101279453Y-92157759D01*
X101279451Y-92157770D01*
X101249500Y-92385258D01*
X100500000Y-92385258D01*
X100500000Y-90624000D01*
X100519685Y-90556961D01*
X100572489Y-90511206D01*
X100624000Y-90500000D01*
X129376000Y-90500000D01*
X129443039Y-90519685D01*
G37*
%TD.AperFunction*%
%TD*%
M02*
