%TF.GenerationSoftware,KiCad,Pcbnew,8.0.5-8.0.5-0~ubuntu22.04.1*%
%TF.CreationDate,2025-01-09T17:41:27-03:00*%
%TF.ProjectId,tx_amplifier,74785f61-6d70-46c6-9966-6965722e6b69,v1.2*%
%TF.SameCoordinates,Original*%
%TF.FileFunction,Copper,L1,Top*%
%TF.FilePolarity,Positive*%
%FSLAX46Y46*%
G04 Gerber Fmt 4.6, Leading zero omitted, Abs format (unit mm)*
G04 Created by KiCad (PCBNEW 8.0.5-8.0.5-0~ubuntu22.04.1) date 2025-01-09 17:41:27*
%MOMM*%
%LPD*%
G01*
G04 APERTURE LIST*
G04 Aperture macros list*
%AMRoundRect*
0 Rectangle with rounded corners*
0 $1 Rounding radius*
0 $2 $3 $4 $5 $6 $7 $8 $9 X,Y pos of 4 corners*
0 Add a 4 corners polygon primitive as box body*
4,1,4,$2,$3,$4,$5,$6,$7,$8,$9,$2,$3,0*
0 Add four circle primitives for the rounded corners*
1,1,$1+$1,$2,$3*
1,1,$1+$1,$4,$5*
1,1,$1+$1,$6,$7*
1,1,$1+$1,$8,$9*
0 Add four rect primitives between the rounded corners*
20,1,$1+$1,$2,$3,$4,$5,0*
20,1,$1+$1,$4,$5,$6,$7,0*
20,1,$1+$1,$6,$7,$8,$9,0*
20,1,$1+$1,$8,$9,$2,$3,0*%
G04 Aperture macros list end*
%TA.AperFunction,Conductor*%
%ADD10C,0.200000*%
%TD*%
%TA.AperFunction,SMDPad,CuDef*%
%ADD11RoundRect,0.237500X0.300000X0.237500X-0.300000X0.237500X-0.300000X-0.237500X0.300000X-0.237500X0*%
%TD*%
%TA.AperFunction,SMDPad,CuDef*%
%ADD12RoundRect,0.250000X-0.400000X-0.625000X0.400000X-0.625000X0.400000X0.625000X-0.400000X0.625000X0*%
%TD*%
%TA.AperFunction,SMDPad,CuDef*%
%ADD13RoundRect,0.237500X-0.300000X-0.237500X0.300000X-0.237500X0.300000X0.237500X-0.300000X0.237500X0*%
%TD*%
%TA.AperFunction,SMDPad,CuDef*%
%ADD14RoundRect,0.237500X-0.287500X-0.237500X0.287500X-0.237500X0.287500X0.237500X-0.287500X0.237500X0*%
%TD*%
%TA.AperFunction,SMDPad,CuDef*%
%ADD15R,3.600000X1.270000*%
%TD*%
%TA.AperFunction,SMDPad,CuDef*%
%ADD16R,4.200000X1.350000*%
%TD*%
%TA.AperFunction,SMDPad,CuDef*%
%ADD17RoundRect,0.237500X0.250000X0.237500X-0.250000X0.237500X-0.250000X-0.237500X0.250000X-0.237500X0*%
%TD*%
%TA.AperFunction,ComponentPad*%
%ADD18R,3.000000X3.000000*%
%TD*%
%TA.AperFunction,ComponentPad*%
%ADD19C,3.000000*%
%TD*%
%TA.AperFunction,SMDPad,CuDef*%
%ADD20RoundRect,0.237500X-0.250000X-0.237500X0.250000X-0.237500X0.250000X0.237500X-0.250000X0.237500X0*%
%TD*%
%TA.AperFunction,SMDPad,CuDef*%
%ADD21RoundRect,0.250000X0.400000X0.625000X-0.400000X0.625000X-0.400000X-0.625000X0.400000X-0.625000X0*%
%TD*%
%TA.AperFunction,SMDPad,CuDef*%
%ADD22R,0.225000X0.350000*%
%TD*%
%TA.AperFunction,SMDPad,CuDef*%
%ADD23R,0.600000X0.450000*%
%TD*%
%TA.AperFunction,ViaPad*%
%ADD24C,0.500000*%
%TD*%
%TA.AperFunction,ViaPad*%
%ADD25C,0.600000*%
%TD*%
%TA.AperFunction,Conductor*%
%ADD26C,0.800000*%
%TD*%
%TA.AperFunction,Conductor*%
%ADD27C,0.500000*%
%TD*%
G04 APERTURE END LIST*
D10*
%TO.N,Net-(Q1-C)*%
X115196022Y-110136321D02*
X114647312Y-109838480D01*
X115196022Y-109577521D01*
X115196022Y-110136321D01*
%TA.AperFunction,Conductor*%
G36*
X115196022Y-110136321D02*
G01*
X114647312Y-109838480D01*
X115196022Y-109577521D01*
X115196022Y-110136321D01*
G37*
%TD.AperFunction*%
%TO.N,Net-(Q1-B)*%
X113416510Y-109873441D02*
X112867800Y-110134400D01*
X112867800Y-109575600D01*
X113416510Y-109873441D01*
%TA.AperFunction,Conductor*%
G36*
X113416510Y-109873441D02*
G01*
X112867800Y-110134400D01*
X112867800Y-109575600D01*
X113416510Y-109873441D01*
G37*
%TD.AperFunction*%
%TD*%
D11*
%TO.P,C2,1*%
%TO.N,Net-(C2-Pad1)*%
X111606500Y-103124000D03*
%TO.P,C2,2*%
%TO.N,GND*%
X109881500Y-103124000D03*
%TD*%
D12*
%TO.P,R1,1*%
%TO.N,Net-(C2-Pad1)*%
X113994000Y-103124000D03*
%TO.P,R1,2*%
%TO.N,+3.3V*%
X117094000Y-103124000D03*
%TD*%
D13*
%TO.P,C6,1*%
%TO.N,Net-(C6-Pad1)*%
X115369000Y-111760000D03*
%TO.P,C6,2*%
%TO.N,Net-(Q1-C)*%
X117094000Y-111760000D03*
%TD*%
D14*
%TO.P,L1,1,1*%
%TO.N,Net-(Q1-C)*%
X117094000Y-109855000D03*
%TO.P,L1,2,2*%
%TO.N,Net-(C5-Pad1)*%
X118844000Y-109855000D03*
%TD*%
D15*
%TO.P,J2,1,In*%
%TO.N,Net-(J2-In)*%
X127254000Y-109855000D03*
D16*
%TO.P,J2,2,Ext*%
%TO.N,GND*%
X127054000Y-112680000D03*
X127054000Y-107030000D03*
%TD*%
D13*
%TO.P,C5,1*%
%TO.N,Net-(C5-Pad1)*%
X121565500Y-109855000D03*
%TO.P,C5,2*%
%TO.N,Net-(J2-In)*%
X123290500Y-109855000D03*
%TD*%
D17*
%TO.P,R4,1*%
%TO.N,Net-(C6-Pad1)*%
X112672500Y-111760000D03*
%TO.P,R4,2*%
%TO.N,Net-(Q1-B)*%
X110847500Y-111760000D03*
%TD*%
D15*
%TO.P,J1,1,In*%
%TO.N,Net-(J1-In)*%
X102616000Y-109855000D03*
D16*
%TO.P,J1,2,Ext*%
%TO.N,GND*%
X102816000Y-107030000D03*
X102816000Y-112680000D03*
%TD*%
D18*
%TO.P,J3,1,Pin_1*%
%TO.N,+3.3V*%
X117080000Y-96000000D03*
D19*
%TO.P,J3,2,Pin_2*%
%TO.N,GND*%
X112000000Y-96000000D03*
%TD*%
D13*
%TO.P,C1,1*%
%TO.N,Net-(J1-In)*%
X108104000Y-109855000D03*
%TO.P,C1,2*%
%TO.N,Net-(Q1-B)*%
X109829000Y-109855000D03*
%TD*%
D14*
%TO.P,L2,1,1*%
%TO.N,Net-(C5-Pad1)*%
X121553000Y-112014000D03*
%TO.P,L2,2,2*%
%TO.N,Net-(C4-Pad2)*%
X123303000Y-112014000D03*
%TD*%
D20*
%TO.P,R2,1*%
%TO.N,Net-(Q1-B)*%
X109831500Y-106172000D03*
%TO.P,R2,2*%
%TO.N,Net-(C2-Pad1)*%
X111656500Y-106172000D03*
%TD*%
D13*
%TO.P,C4,1*%
%TO.N,GND*%
X121539000Y-114300000D03*
%TO.P,C4,2*%
%TO.N,Net-(C4-Pad2)*%
X123264000Y-114300000D03*
%TD*%
D11*
%TO.P,C3,1*%
%TO.N,GND*%
X123290500Y-106045000D03*
%TO.P,C3,2*%
%TO.N,Net-(Q1-C)*%
X121565500Y-106045000D03*
%TD*%
D21*
%TO.P,R3,1*%
%TO.N,Net-(Q1-C)*%
X117094000Y-106045000D03*
%TO.P,R3,2*%
%TO.N,Net-(C2-Pad1)*%
X113994000Y-106045000D03*
%TD*%
D22*
%TO.P,Q1,1,B*%
%TO.N,Net-(Q1-B)*%
X113874100Y-109855000D03*
%TO.P,Q1,2,C*%
%TO.N,Net-(Q1-C)*%
X114248600Y-109855000D03*
D23*
%TO.P,Q1,3,E*%
%TO.N,GND*%
X114061600Y-109255000D03*
%TD*%
D24*
%TO.N,GND*%
X105500000Y-111000000D03*
X120500000Y-111000000D03*
D25*
X102819200Y-114249200D03*
D24*
X119000000Y-105000000D03*
X124500000Y-111000000D03*
X113500000Y-107500000D03*
X124000000Y-115500000D03*
X103500000Y-108600000D03*
X122500000Y-111000000D03*
X108500000Y-107500000D03*
X115200000Y-109000000D03*
X126000000Y-111000000D03*
X118000000Y-100500000D03*
X116200000Y-108000000D03*
X111500000Y-104250000D03*
X114500000Y-113000000D03*
X118000000Y-98500000D03*
X127000000Y-108600000D03*
X102500000Y-111000000D03*
X122000000Y-105000000D03*
X118500000Y-112000000D03*
X115500000Y-101500000D03*
X120000000Y-105000000D03*
X115500000Y-105500000D03*
X123500000Y-111000000D03*
X118500000Y-113000000D03*
X117500000Y-113000000D03*
X107500000Y-108600000D03*
D25*
X127050800Y-105410000D03*
D24*
X101500000Y-108600000D03*
X113000000Y-110750000D03*
X121500000Y-113000000D03*
X119500000Y-111000000D03*
X113500000Y-101500000D03*
X112500000Y-113000000D03*
X123500000Y-108600000D03*
X101500000Y-111000000D03*
X111000000Y-108000000D03*
X114000000Y-110750000D03*
X111500000Y-102000000D03*
X114500000Y-101500000D03*
X108500000Y-111000000D03*
X115000000Y-104500000D03*
X119500000Y-108600000D03*
X115500000Y-113000000D03*
X112500000Y-102000000D03*
X118500000Y-111000000D03*
D25*
X102819200Y-105460800D03*
D24*
X123000000Y-115500000D03*
X116200000Y-109000000D03*
X106500000Y-111000000D03*
X117000000Y-104500000D03*
X114000000Y-104500000D03*
X108500000Y-105500000D03*
X126000000Y-108600000D03*
D25*
X114071400Y-108178600D03*
D24*
X127000000Y-111000000D03*
X105500000Y-108600000D03*
X109500000Y-112000000D03*
X113500000Y-113000000D03*
X108500000Y-106500000D03*
X106500000Y-108600000D03*
X118500000Y-103500000D03*
X121500000Y-108600000D03*
X112000000Y-110750000D03*
X115500000Y-106500000D03*
X120500000Y-112000000D03*
X121500000Y-107000000D03*
D25*
X123291600Y-104698800D03*
D24*
X122500000Y-108600000D03*
X118500000Y-107500000D03*
X107500000Y-111000000D03*
X112500000Y-107500000D03*
X120500000Y-113000000D03*
X116500000Y-113000000D03*
X108500000Y-108600000D03*
X115500000Y-107500000D03*
X116000000Y-99500000D03*
X120500000Y-108600000D03*
X102500000Y-108600000D03*
X111000000Y-107000000D03*
X104500000Y-108600000D03*
X113000000Y-109000000D03*
X116000000Y-100500000D03*
X109500000Y-111000000D03*
X111000000Y-109000000D03*
D25*
X121539000Y-115620800D03*
D24*
X116000000Y-98500000D03*
X119500000Y-107000000D03*
X104500000Y-111000000D03*
X121000000Y-105000000D03*
X112000000Y-109000000D03*
X116000000Y-104500000D03*
X109500000Y-113000000D03*
D25*
X127050800Y-114249200D03*
D24*
X118500000Y-108600000D03*
X118000000Y-101500000D03*
X118000000Y-104500000D03*
X111500000Y-113000000D03*
X124500000Y-108600000D03*
X128000000Y-111000000D03*
X118000000Y-99500000D03*
X120500000Y-107000000D03*
X115500000Y-102500000D03*
X116000000Y-110750000D03*
D25*
X109882100Y-101854000D03*
D24*
X115000000Y-110750000D03*
X111500000Y-105000000D03*
X114500000Y-107500000D03*
X110500000Y-105000000D03*
X103500000Y-111000000D03*
X118500000Y-102500000D03*
X109500000Y-105000000D03*
X128000000Y-108600000D03*
X110500000Y-113000000D03*
X115500000Y-103500000D03*
%TD*%
D26*
%TO.N,Net-(Q1-B)*%
X109831500Y-106172000D02*
X109831500Y-109852500D01*
X111604000Y-109858000D02*
X111607000Y-109855000D01*
X111099000Y-109855000D02*
X111607000Y-109855000D01*
X109831500Y-109852500D02*
X109829000Y-109855000D01*
X110847500Y-111760000D02*
X110847500Y-110106500D01*
X110847500Y-110106500D02*
X111099000Y-109855000D01*
X111607000Y-109855000D02*
X112750000Y-109855000D01*
D10*
X113874100Y-109855000D02*
X112750000Y-109855000D01*
D26*
X111099000Y-109855000D02*
X109829000Y-109855000D01*
%TO.N,Net-(J1-In)*%
X108104000Y-109855000D02*
X102616000Y-109855000D01*
%TO.N,GND*%
X109881500Y-101854600D02*
X109882100Y-101854000D01*
X102816000Y-112680000D02*
X102816000Y-114246000D01*
X109881500Y-103124000D02*
X109881500Y-101854600D01*
X102816000Y-107030000D02*
X102816000Y-105464000D01*
D27*
X114061600Y-108188400D02*
X114071400Y-108178600D01*
D26*
X102816000Y-114246000D02*
X102819200Y-114249200D01*
X127054000Y-105413200D02*
X127050800Y-105410000D01*
X121539000Y-114300000D02*
X121539000Y-115620800D01*
X123290500Y-106045000D02*
X123290500Y-104699900D01*
X127054000Y-114246000D02*
X127050800Y-114249200D01*
X123290500Y-104699900D02*
X123291600Y-104698800D01*
X127054000Y-107030000D02*
X127054000Y-105413200D01*
X102816000Y-105464000D02*
X102819200Y-105460800D01*
D27*
X114061600Y-109255000D02*
X114061600Y-108188400D01*
D26*
X127054000Y-112680000D02*
X127054000Y-114246000D01*
%TO.N,Net-(C2-Pad1)*%
X112776000Y-103124000D02*
X113994000Y-103124000D01*
X112776000Y-103124000D02*
X112776000Y-106070400D01*
X112674400Y-106172000D02*
X113867000Y-106172000D01*
X111606500Y-103124000D02*
X112776000Y-103124000D01*
X111656500Y-106172000D02*
X112674400Y-106172000D01*
X112776000Y-106070400D02*
X112674400Y-106172000D01*
X113867000Y-106172000D02*
X113994000Y-106045000D01*
%TO.N,Net-(Q1-C)*%
X117094000Y-106045000D02*
X121565500Y-106045000D01*
X115315400Y-109855000D02*
X117094000Y-109855000D01*
X117094000Y-109855000D02*
X117094000Y-106045000D01*
X117094000Y-111760000D02*
X117094000Y-109855000D01*
D10*
X114248600Y-109855000D02*
X115315400Y-109855000D01*
D26*
%TO.N,Net-(C4-Pad2)*%
X123303000Y-112014000D02*
X123303000Y-114261000D01*
X123303000Y-114261000D02*
X123264000Y-114300000D01*
%TO.N,Net-(C5-Pad1)*%
X121565500Y-112001500D02*
X121553000Y-112014000D01*
X121565500Y-109855000D02*
X121565500Y-112001500D01*
X118844000Y-109855000D02*
X121565500Y-109855000D01*
%TO.N,Net-(J2-In)*%
X123290500Y-109855000D02*
X127254000Y-109855000D01*
%TO.N,Net-(C6-Pad1)*%
X115369000Y-111760000D02*
X112672500Y-111760000D01*
%TO.N,+3.3V*%
X117094000Y-96014000D02*
X117080000Y-96000000D01*
X117094000Y-103124000D02*
X117094000Y-96014000D01*
%TD*%
%TA.AperFunction,Conductor*%
%TO.N,GND*%
G36*
X129443039Y-90519685D02*
G01*
X129488794Y-90572489D01*
X129500000Y-90624000D01*
X129500000Y-105771809D01*
X129480315Y-105838848D01*
X129427511Y-105884603D01*
X129358353Y-105894547D01*
X129332668Y-105887991D01*
X129261383Y-105861403D01*
X129261372Y-105861401D01*
X129201844Y-105855000D01*
X127454000Y-105855000D01*
X127454000Y-108205000D01*
X129201828Y-108205000D01*
X129201844Y-108204999D01*
X129261372Y-108198598D01*
X129261376Y-108198597D01*
X129332666Y-108172008D01*
X129402358Y-108167024D01*
X129463681Y-108200509D01*
X129497166Y-108261832D01*
X129500000Y-108288190D01*
X129500000Y-109175469D01*
X129480315Y-109242508D01*
X129427511Y-109288263D01*
X129358353Y-109298207D01*
X129294797Y-109269182D01*
X129257023Y-109210404D01*
X129254383Y-109199660D01*
X129242868Y-109141770D01*
X129242867Y-109141769D01*
X129198552Y-109075447D01*
X129132230Y-109031132D01*
X129132229Y-109031131D01*
X129073752Y-109019500D01*
X129073748Y-109019500D01*
X125434252Y-109019500D01*
X125434247Y-109019500D01*
X125375770Y-109031131D01*
X125375769Y-109031132D01*
X125309447Y-109075447D01*
X125265132Y-109141769D01*
X125265131Y-109141770D01*
X125262562Y-109154691D01*
X125230178Y-109216602D01*
X125169462Y-109251176D01*
X125140945Y-109254500D01*
X123877052Y-109254500D01*
X123810013Y-109234815D01*
X123803419Y-109230271D01*
X123797476Y-109225885D01*
X123797475Y-109225884D01*
X123797473Y-109225883D01*
X123672848Y-109182274D01*
X123672849Y-109182274D01*
X123643260Y-109179500D01*
X123643256Y-109179500D01*
X122937744Y-109179500D01*
X122937740Y-109179500D01*
X122908150Y-109182274D01*
X122783523Y-109225884D01*
X122677289Y-109304288D01*
X122677288Y-109304289D01*
X122598884Y-109410523D01*
X122555274Y-109535150D01*
X122552500Y-109564739D01*
X122552500Y-110145260D01*
X122555274Y-110174849D01*
X122598884Y-110299476D01*
X122677288Y-110405710D01*
X122677289Y-110405711D01*
X122783523Y-110484115D01*
X122783524Y-110484115D01*
X122783525Y-110484116D01*
X122908151Y-110527725D01*
X122908150Y-110527725D01*
X122937740Y-110530500D01*
X122937744Y-110530500D01*
X123643260Y-110530500D01*
X123672849Y-110527725D01*
X123708500Y-110515250D01*
X123797475Y-110484116D01*
X123803419Y-110479728D01*
X123869048Y-110455759D01*
X123877052Y-110455500D01*
X125140945Y-110455500D01*
X125207984Y-110475185D01*
X125253739Y-110527989D01*
X125262562Y-110555309D01*
X125265131Y-110568229D01*
X125265132Y-110568230D01*
X125309447Y-110634552D01*
X125375769Y-110678867D01*
X125375770Y-110678868D01*
X125434247Y-110690499D01*
X125434250Y-110690500D01*
X125434252Y-110690500D01*
X129073750Y-110690500D01*
X129073751Y-110690499D01*
X129088568Y-110687552D01*
X129132229Y-110678868D01*
X129132229Y-110678867D01*
X129132231Y-110678867D01*
X129198552Y-110634552D01*
X129242867Y-110568231D01*
X129242867Y-110568229D01*
X129242868Y-110568229D01*
X129254383Y-110510339D01*
X129286767Y-110448428D01*
X129347483Y-110413854D01*
X129417253Y-110417593D01*
X129473925Y-110458459D01*
X129499506Y-110523477D01*
X129500000Y-110534530D01*
X129500000Y-111421809D01*
X129480315Y-111488848D01*
X129427511Y-111534603D01*
X129358353Y-111544547D01*
X129332668Y-111537991D01*
X129261383Y-111511403D01*
X129261372Y-111511401D01*
X129201844Y-111505000D01*
X127454000Y-111505000D01*
X127454000Y-113855000D01*
X129201828Y-113855000D01*
X129201844Y-113854999D01*
X129261372Y-113848598D01*
X129261376Y-113848597D01*
X129332666Y-113822008D01*
X129402358Y-113817024D01*
X129463681Y-113850509D01*
X129497166Y-113911832D01*
X129500000Y-113938190D01*
X129500000Y-119376000D01*
X129480315Y-119443039D01*
X129427511Y-119488794D01*
X129376000Y-119500000D01*
X100624000Y-119500000D01*
X100556961Y-119480315D01*
X100511206Y-119427511D01*
X100500000Y-119376000D01*
X100500000Y-117385258D01*
X101249500Y-117385258D01*
X101249500Y-117614741D01*
X101274446Y-117804215D01*
X101279452Y-117842238D01*
X101279453Y-117842240D01*
X101338842Y-118063887D01*
X101426650Y-118275876D01*
X101426657Y-118275890D01*
X101541392Y-118474617D01*
X101681081Y-118656661D01*
X101681089Y-118656670D01*
X101843330Y-118818911D01*
X101843338Y-118818918D01*
X102025382Y-118958607D01*
X102025385Y-118958608D01*
X102025388Y-118958611D01*
X102224112Y-119073344D01*
X102224117Y-119073346D01*
X102224123Y-119073349D01*
X102315480Y-119111190D01*
X102436113Y-119161158D01*
X102657762Y-119220548D01*
X102885266Y-119250500D01*
X102885273Y-119250500D01*
X103114727Y-119250500D01*
X103114734Y-119250500D01*
X103342238Y-119220548D01*
X103563887Y-119161158D01*
X103775888Y-119073344D01*
X103974612Y-118958611D01*
X104156661Y-118818919D01*
X104156665Y-118818914D01*
X104156670Y-118818911D01*
X104318911Y-118656670D01*
X104318914Y-118656665D01*
X104318919Y-118656661D01*
X104458611Y-118474612D01*
X104573344Y-118275888D01*
X104661158Y-118063887D01*
X104720548Y-117842238D01*
X104750500Y-117614734D01*
X104750500Y-117385266D01*
X104750499Y-117385258D01*
X125249500Y-117385258D01*
X125249500Y-117614741D01*
X125274446Y-117804215D01*
X125279452Y-117842238D01*
X125279453Y-117842240D01*
X125338842Y-118063887D01*
X125426650Y-118275876D01*
X125426657Y-118275890D01*
X125541392Y-118474617D01*
X125681081Y-118656661D01*
X125681089Y-118656670D01*
X125843330Y-118818911D01*
X125843338Y-118818918D01*
X126025382Y-118958607D01*
X126025385Y-118958608D01*
X126025388Y-118958611D01*
X126224112Y-119073344D01*
X126224117Y-119073346D01*
X126224123Y-119073349D01*
X126315480Y-119111190D01*
X126436113Y-119161158D01*
X126657762Y-119220548D01*
X126885266Y-119250500D01*
X126885273Y-119250500D01*
X127114727Y-119250500D01*
X127114734Y-119250500D01*
X127342238Y-119220548D01*
X127563887Y-119161158D01*
X127775888Y-119073344D01*
X127974612Y-118958611D01*
X128156661Y-118818919D01*
X128156665Y-118818914D01*
X128156670Y-118818911D01*
X128318911Y-118656670D01*
X128318914Y-118656665D01*
X128318919Y-118656661D01*
X128458611Y-118474612D01*
X128573344Y-118275888D01*
X128661158Y-118063887D01*
X128720548Y-117842238D01*
X128750500Y-117614734D01*
X128750500Y-117385266D01*
X128720548Y-117157762D01*
X128661158Y-116936113D01*
X128573344Y-116724112D01*
X128458611Y-116525388D01*
X128458608Y-116525385D01*
X128458607Y-116525382D01*
X128318918Y-116343338D01*
X128318911Y-116343330D01*
X128156670Y-116181089D01*
X128156661Y-116181081D01*
X127974617Y-116041392D01*
X127775890Y-115926657D01*
X127775876Y-115926650D01*
X127563887Y-115838842D01*
X127342238Y-115779452D01*
X127304215Y-115774446D01*
X127114741Y-115749500D01*
X127114734Y-115749500D01*
X126885266Y-115749500D01*
X126885258Y-115749500D01*
X126668715Y-115778009D01*
X126657762Y-115779452D01*
X126564076Y-115804554D01*
X126436112Y-115838842D01*
X126224123Y-115926650D01*
X126224109Y-115926657D01*
X126025382Y-116041392D01*
X125843338Y-116181081D01*
X125681081Y-116343338D01*
X125541392Y-116525382D01*
X125426657Y-116724109D01*
X125426650Y-116724123D01*
X125338842Y-116936112D01*
X125279453Y-117157759D01*
X125279451Y-117157770D01*
X125249500Y-117385258D01*
X104750499Y-117385258D01*
X104720548Y-117157762D01*
X104661158Y-116936113D01*
X104573344Y-116724112D01*
X104458611Y-116525388D01*
X104458608Y-116525385D01*
X104458607Y-116525382D01*
X104318918Y-116343338D01*
X104318911Y-116343330D01*
X104156670Y-116181089D01*
X104156661Y-116181081D01*
X103974617Y-116041392D01*
X103775890Y-115926657D01*
X103775876Y-115926650D01*
X103563887Y-115838842D01*
X103342238Y-115779452D01*
X103304215Y-115774446D01*
X103114741Y-115749500D01*
X103114734Y-115749500D01*
X102885266Y-115749500D01*
X102885258Y-115749500D01*
X102668715Y-115778009D01*
X102657762Y-115779452D01*
X102564076Y-115804554D01*
X102436112Y-115838842D01*
X102224123Y-115926650D01*
X102224109Y-115926657D01*
X102025382Y-116041392D01*
X101843338Y-116181081D01*
X101681081Y-116343338D01*
X101541392Y-116525382D01*
X101426657Y-116724109D01*
X101426650Y-116724123D01*
X101338842Y-116936112D01*
X101279453Y-117157759D01*
X101279451Y-117157770D01*
X101249500Y-117385258D01*
X100500000Y-117385258D01*
X100500000Y-114700000D01*
X120515911Y-114700000D01*
X120566046Y-114851300D01*
X120566051Y-114851311D01*
X120656552Y-114998034D01*
X120656555Y-114998038D01*
X120778461Y-115119944D01*
X120778465Y-115119947D01*
X120925188Y-115210448D01*
X120925199Y-115210453D01*
X121088847Y-115264680D01*
X121139000Y-115269803D01*
X121139000Y-114700000D01*
X120515911Y-114700000D01*
X100500000Y-114700000D01*
X100500000Y-113974965D01*
X100519685Y-113907926D01*
X100528832Y-113900000D01*
X120515911Y-113900000D01*
X121139000Y-113900000D01*
X121139000Y-113330195D01*
X121939000Y-113330195D01*
X121939000Y-115269802D01*
X121989150Y-115264680D01*
X121989153Y-115264680D01*
X122152800Y-115210453D01*
X122152811Y-115210448D01*
X122299534Y-115119947D01*
X122299538Y-115119944D01*
X122421445Y-114998037D01*
X122484888Y-114895180D01*
X122536836Y-114848455D01*
X122605798Y-114837232D01*
X122664060Y-114860505D01*
X122757025Y-114929116D01*
X122881651Y-114972725D01*
X122881650Y-114972725D01*
X122911240Y-114975500D01*
X122911244Y-114975500D01*
X123616760Y-114975500D01*
X123646349Y-114972725D01*
X123770975Y-114929116D01*
X123877211Y-114850711D01*
X123955616Y-114744475D01*
X123999225Y-114619849D01*
X124002000Y-114590256D01*
X124002000Y-114009744D01*
X123999225Y-113980151D01*
X123997410Y-113974965D01*
X123971179Y-113900000D01*
X123955616Y-113855525D01*
X123927728Y-113817737D01*
X123903758Y-113752107D01*
X123903500Y-113744105D01*
X123903500Y-113402844D01*
X124454000Y-113402844D01*
X124460401Y-113462372D01*
X124460403Y-113462379D01*
X124510645Y-113597086D01*
X124510649Y-113597093D01*
X124596809Y-113712187D01*
X124596812Y-113712190D01*
X124711906Y-113798350D01*
X124711913Y-113798354D01*
X124846620Y-113848596D01*
X124846627Y-113848598D01*
X124906155Y-113854999D01*
X124906172Y-113855000D01*
X126654000Y-113855000D01*
X126654000Y-113080000D01*
X124454000Y-113080000D01*
X124454000Y-113402844D01*
X123903500Y-113402844D01*
X123903500Y-112605799D01*
X123923185Y-112538760D01*
X123927718Y-112532181D01*
X123982116Y-112458475D01*
X124025725Y-112333849D01*
X124028500Y-112304256D01*
X124028500Y-111957155D01*
X124454000Y-111957155D01*
X124454000Y-112280000D01*
X126654000Y-112280000D01*
X126654000Y-111505000D01*
X124906155Y-111505000D01*
X124846627Y-111511401D01*
X124846620Y-111511403D01*
X124711913Y-111561645D01*
X124711906Y-111561649D01*
X124596812Y-111647809D01*
X124596809Y-111647812D01*
X124510649Y-111762906D01*
X124510645Y-111762913D01*
X124460403Y-111897620D01*
X124460401Y-111897627D01*
X124454000Y-111957155D01*
X124028500Y-111957155D01*
X124028500Y-111723744D01*
X124025725Y-111694151D01*
X123982116Y-111569525D01*
X123976303Y-111561649D01*
X123903711Y-111463289D01*
X123903710Y-111463288D01*
X123797476Y-111384884D01*
X123672848Y-111341274D01*
X123672849Y-111341274D01*
X123643260Y-111338500D01*
X123643256Y-111338500D01*
X122962744Y-111338500D01*
X122962740Y-111338500D01*
X122933150Y-111341274D01*
X122808523Y-111384884D01*
X122702289Y-111463288D01*
X122702288Y-111463289D01*
X122623884Y-111569523D01*
X122580274Y-111694150D01*
X122577500Y-111723739D01*
X122577500Y-112304260D01*
X122580274Y-112333849D01*
X122599614Y-112389116D01*
X122623884Y-112458475D01*
X122678270Y-112532167D01*
X122702241Y-112597794D01*
X122702500Y-112605799D01*
X122702500Y-113620385D01*
X122682815Y-113687424D01*
X122630011Y-113733179D01*
X122560853Y-113743123D01*
X122497297Y-113714098D01*
X122472962Y-113685483D01*
X122421445Y-113601962D01*
X122299538Y-113480055D01*
X122299534Y-113480052D01*
X122152811Y-113389551D01*
X122152798Y-113389545D01*
X121989149Y-113335318D01*
X121939000Y-113330195D01*
X121139000Y-113330195D01*
X121138999Y-113330195D01*
X121088850Y-113335318D01*
X120925201Y-113389545D01*
X120925188Y-113389551D01*
X120778465Y-113480052D01*
X120778461Y-113480055D01*
X120656555Y-113601961D01*
X120656552Y-113601965D01*
X120566051Y-113748688D01*
X120566046Y-113748699D01*
X120515911Y-113900000D01*
X100528832Y-113900000D01*
X100572489Y-113862171D01*
X100637259Y-113851676D01*
X100668163Y-113854999D01*
X100668172Y-113855000D01*
X102416000Y-113855000D01*
X103216000Y-113855000D01*
X104963828Y-113855000D01*
X104963844Y-113854999D01*
X105023372Y-113848598D01*
X105023379Y-113848596D01*
X105158086Y-113798354D01*
X105158093Y-113798350D01*
X105273187Y-113712190D01*
X105273190Y-113712187D01*
X105359350Y-113597093D01*
X105359354Y-113597086D01*
X105409596Y-113462379D01*
X105409598Y-113462372D01*
X105415999Y-113402844D01*
X105416000Y-113402827D01*
X105416000Y-113080000D01*
X103216000Y-113080000D01*
X103216000Y-113855000D01*
X102416000Y-113855000D01*
X102416000Y-112280000D01*
X103216000Y-112280000D01*
X105416000Y-112280000D01*
X105416000Y-111957172D01*
X105415999Y-111957155D01*
X105409598Y-111897627D01*
X105409596Y-111897620D01*
X105359354Y-111762913D01*
X105359350Y-111762906D01*
X105273190Y-111647812D01*
X105273187Y-111647809D01*
X105158093Y-111561649D01*
X105158086Y-111561645D01*
X105023379Y-111511403D01*
X105023372Y-111511401D01*
X104963844Y-111505000D01*
X103216000Y-111505000D01*
X103216000Y-112280000D01*
X102416000Y-112280000D01*
X102416000Y-111505000D01*
X100668172Y-111505000D01*
X100668153Y-111505001D01*
X100637255Y-111508323D01*
X100568496Y-111495918D01*
X100517358Y-111448308D01*
X100500000Y-111385034D01*
X100500000Y-110751982D01*
X100519685Y-110684943D01*
X100572489Y-110639188D01*
X100641647Y-110629244D01*
X100692889Y-110648879D01*
X100737769Y-110678867D01*
X100737771Y-110678867D01*
X100737772Y-110678868D01*
X100737770Y-110678868D01*
X100796247Y-110690499D01*
X100796250Y-110690500D01*
X100796252Y-110690500D01*
X104435750Y-110690500D01*
X104435751Y-110690499D01*
X104450568Y-110687552D01*
X104494229Y-110678868D01*
X104494229Y-110678867D01*
X104494231Y-110678867D01*
X104560552Y-110634552D01*
X104604867Y-110568231D01*
X104604867Y-110568229D01*
X104604868Y-110568229D01*
X104607438Y-110555309D01*
X104639822Y-110493398D01*
X104700538Y-110458824D01*
X104729055Y-110455500D01*
X107517448Y-110455500D01*
X107584487Y-110475185D01*
X107591076Y-110479726D01*
X107597025Y-110484116D01*
X107721651Y-110527725D01*
X107721650Y-110527725D01*
X107751240Y-110530500D01*
X107751244Y-110530500D01*
X108456760Y-110530500D01*
X108486349Y-110527725D01*
X108522000Y-110515250D01*
X108610975Y-110484116D01*
X108717211Y-110405711D01*
X108795616Y-110299475D01*
X108839225Y-110174849D01*
X108841038Y-110155520D01*
X108842000Y-110145260D01*
X108842000Y-109564739D01*
X109091000Y-109564739D01*
X109091000Y-110145260D01*
X109093774Y-110174849D01*
X109137384Y-110299476D01*
X109215788Y-110405710D01*
X109215789Y-110405711D01*
X109322023Y-110484115D01*
X109322024Y-110484115D01*
X109322025Y-110484116D01*
X109446651Y-110527725D01*
X109446650Y-110527725D01*
X109476240Y-110530500D01*
X110123000Y-110530500D01*
X110190039Y-110550185D01*
X110235794Y-110602989D01*
X110247000Y-110654500D01*
X110247000Y-111219010D01*
X110227315Y-111286049D01*
X110222772Y-111292641D01*
X110205884Y-111315523D01*
X110162274Y-111440150D01*
X110159500Y-111469739D01*
X110159500Y-112050260D01*
X110162274Y-112079849D01*
X110205884Y-112204476D01*
X110284288Y-112310710D01*
X110284289Y-112310711D01*
X110390523Y-112389115D01*
X110390524Y-112389115D01*
X110390525Y-112389116D01*
X110515151Y-112432725D01*
X110515150Y-112432725D01*
X110544740Y-112435500D01*
X110544744Y-112435500D01*
X111150260Y-112435500D01*
X111179849Y-112432725D01*
X111304475Y-112389116D01*
X111410711Y-112310711D01*
X111489116Y-112204475D01*
X111532725Y-112079849D01*
X111535500Y-112050256D01*
X111535500Y-111469744D01*
X111535500Y-111469739D01*
X111984500Y-111469739D01*
X111984500Y-112050260D01*
X111987274Y-112079849D01*
X112030884Y-112204476D01*
X112109288Y-112310710D01*
X112109289Y-112310711D01*
X112215523Y-112389115D01*
X112215524Y-112389115D01*
X112215525Y-112389116D01*
X112340151Y-112432725D01*
X112340150Y-112432725D01*
X112369740Y-112435500D01*
X112369744Y-112435500D01*
X112975260Y-112435500D01*
X113004849Y-112432725D01*
X113129475Y-112389116D01*
X113135419Y-112384728D01*
X113201048Y-112360759D01*
X113209052Y-112360500D01*
X114782448Y-112360500D01*
X114849487Y-112380185D01*
X114856076Y-112384726D01*
X114862025Y-112389116D01*
X114986651Y-112432725D01*
X114986650Y-112432725D01*
X115016240Y-112435500D01*
X115016244Y-112435500D01*
X115721760Y-112435500D01*
X115751349Y-112432725D01*
X115875975Y-112389116D01*
X115982211Y-112310711D01*
X116060616Y-112204475D01*
X116104225Y-112079849D01*
X116107000Y-112050256D01*
X116107000Y-111469744D01*
X116104225Y-111440151D01*
X116060616Y-111315525D01*
X115982211Y-111209289D01*
X115914749Y-111159500D01*
X115875976Y-111130884D01*
X115751348Y-111087274D01*
X115751349Y-111087274D01*
X115721760Y-111084500D01*
X115721756Y-111084500D01*
X115016244Y-111084500D01*
X115016240Y-111084500D01*
X114986650Y-111087274D01*
X114862026Y-111130883D01*
X114862023Y-111130885D01*
X114856081Y-111135271D01*
X114790452Y-111159241D01*
X114782448Y-111159500D01*
X113209052Y-111159500D01*
X113142013Y-111139815D01*
X113135419Y-111135271D01*
X113129476Y-111130885D01*
X113129475Y-111130884D01*
X113129473Y-111130883D01*
X113004848Y-111087274D01*
X113004849Y-111087274D01*
X112975260Y-111084500D01*
X112975256Y-111084500D01*
X112369744Y-111084500D01*
X112369740Y-111084500D01*
X112340150Y-111087274D01*
X112215523Y-111130884D01*
X112109289Y-111209288D01*
X112109288Y-111209289D01*
X112030884Y-111315523D01*
X111987274Y-111440150D01*
X111984500Y-111469739D01*
X111535500Y-111469739D01*
X111532725Y-111440151D01*
X111489116Y-111315525D01*
X111489115Y-111315523D01*
X111472228Y-111292641D01*
X111448258Y-111227012D01*
X111448000Y-111219010D01*
X111448000Y-110582501D01*
X111467685Y-110515462D01*
X111520489Y-110469707D01*
X111572000Y-110458501D01*
X111683055Y-110458501D01*
X111683057Y-110458501D01*
X111683058Y-110458500D01*
X111691113Y-110457440D01*
X111691193Y-110458052D01*
X111710581Y-110455500D01*
X112829055Y-110455500D01*
X112829057Y-110455500D01*
X112884426Y-110440663D01*
X112884745Y-110440579D01*
X112890486Y-110439057D01*
X112999009Y-110410289D01*
X113341381Y-110247461D01*
X113509475Y-110167519D01*
X113562731Y-110155500D01*
X113640917Y-110155500D01*
X113690376Y-110170023D01*
X113691591Y-110167092D01*
X113702875Y-110171765D01*
X113702878Y-110171767D01*
X113746780Y-110180500D01*
X114001421Y-110180500D01*
X114029828Y-110174849D01*
X114037158Y-110173391D01*
X114085542Y-110173391D01*
X114092872Y-110174849D01*
X114121279Y-110180500D01*
X114121280Y-110180500D01*
X114375920Y-110180500D01*
X114419822Y-110171767D01*
X114419826Y-110171763D01*
X114431109Y-110167092D01*
X114432429Y-110170279D01*
X114479575Y-110155520D01*
X114481783Y-110155500D01*
X114559483Y-110155500D01*
X114618638Y-110170520D01*
X114637024Y-110180500D01*
X115050282Y-110404817D01*
X115112418Y-110430159D01*
X115146800Y-110433344D01*
X115167448Y-110437039D01*
X115236343Y-110455500D01*
X116369500Y-110455500D01*
X116436539Y-110475185D01*
X116482294Y-110527989D01*
X116493500Y-110579500D01*
X116493500Y-111151263D01*
X116473815Y-111218302D01*
X116469271Y-111224896D01*
X116402383Y-111315525D01*
X116358774Y-111440150D01*
X116356000Y-111469739D01*
X116356000Y-112050260D01*
X116358774Y-112079849D01*
X116402384Y-112204476D01*
X116480788Y-112310710D01*
X116480789Y-112310711D01*
X116587023Y-112389115D01*
X116587024Y-112389115D01*
X116587025Y-112389116D01*
X116711651Y-112432725D01*
X116711650Y-112432725D01*
X116741240Y-112435500D01*
X116741244Y-112435500D01*
X117446760Y-112435500D01*
X117476349Y-112432725D01*
X117600975Y-112389116D01*
X117707211Y-112310711D01*
X117785616Y-112204475D01*
X117829225Y-112079849D01*
X117832000Y-112050256D01*
X117832000Y-111469744D01*
X117829225Y-111440151D01*
X117785616Y-111315525D01*
X117718728Y-111224894D01*
X117694759Y-111159267D01*
X117694500Y-111151263D01*
X117694500Y-110446799D01*
X117714185Y-110379760D01*
X117718718Y-110373181D01*
X117773116Y-110299475D01*
X117816725Y-110174849D01*
X117818538Y-110155520D01*
X117819500Y-110145260D01*
X117819500Y-109564739D01*
X118118500Y-109564739D01*
X118118500Y-110145260D01*
X118121274Y-110174849D01*
X118164884Y-110299476D01*
X118243288Y-110405710D01*
X118243289Y-110405711D01*
X118349523Y-110484115D01*
X118349524Y-110484115D01*
X118349525Y-110484116D01*
X118474151Y-110527725D01*
X118474150Y-110527725D01*
X118503740Y-110530500D01*
X118503744Y-110530500D01*
X119184260Y-110530500D01*
X119213849Y-110527725D01*
X119249500Y-110515250D01*
X119338475Y-110484116D01*
X119344419Y-110479728D01*
X119410048Y-110455759D01*
X119418052Y-110455500D01*
X120841000Y-110455500D01*
X120908039Y-110475185D01*
X120953794Y-110527989D01*
X120965000Y-110579500D01*
X120965000Y-111405263D01*
X120945315Y-111472302D01*
X120940771Y-111478896D01*
X120873883Y-111569525D01*
X120830274Y-111694150D01*
X120827500Y-111723739D01*
X120827500Y-112304260D01*
X120830274Y-112333849D01*
X120873884Y-112458476D01*
X120952288Y-112564710D01*
X120952289Y-112564711D01*
X121058523Y-112643115D01*
X121058524Y-112643115D01*
X121058525Y-112643116D01*
X121183151Y-112686725D01*
X121183150Y-112686725D01*
X121212740Y-112689500D01*
X121212744Y-112689500D01*
X121893260Y-112689500D01*
X121922849Y-112686725D01*
X122047475Y-112643116D01*
X122153711Y-112564711D01*
X122232116Y-112458475D01*
X122275725Y-112333849D01*
X122278500Y-112304256D01*
X122278500Y-111723744D01*
X122275725Y-111694151D01*
X122232116Y-111569525D01*
X122232115Y-111569523D01*
X122190229Y-111512768D01*
X122166259Y-111447139D01*
X122166000Y-111439136D01*
X122166000Y-110463736D01*
X122185685Y-110396697D01*
X122190217Y-110390119D01*
X122257116Y-110299475D01*
X122300725Y-110174849D01*
X122302538Y-110155520D01*
X122303500Y-110145260D01*
X122303500Y-109564739D01*
X122300725Y-109535150D01*
X122257115Y-109410523D01*
X122178711Y-109304289D01*
X122178710Y-109304288D01*
X122072476Y-109225884D01*
X121947848Y-109182274D01*
X121947849Y-109182274D01*
X121918260Y-109179500D01*
X121918256Y-109179500D01*
X121212744Y-109179500D01*
X121212740Y-109179500D01*
X121183150Y-109182274D01*
X121058526Y-109225883D01*
X121058523Y-109225885D01*
X121052581Y-109230271D01*
X120986952Y-109254241D01*
X120978948Y-109254500D01*
X119418052Y-109254500D01*
X119351013Y-109234815D01*
X119344419Y-109230271D01*
X119338476Y-109225885D01*
X119338475Y-109225884D01*
X119338473Y-109225883D01*
X119213848Y-109182274D01*
X119213849Y-109182274D01*
X119184260Y-109179500D01*
X119184256Y-109179500D01*
X118503744Y-109179500D01*
X118503740Y-109179500D01*
X118474150Y-109182274D01*
X118349523Y-109225884D01*
X118243289Y-109304288D01*
X118243288Y-109304289D01*
X118164884Y-109410523D01*
X118121274Y-109535150D01*
X118118500Y-109564739D01*
X117819500Y-109564739D01*
X117816725Y-109535150D01*
X117773116Y-109410525D01*
X117718729Y-109336833D01*
X117694759Y-109271204D01*
X117694500Y-109263200D01*
X117694500Y-107752844D01*
X124454000Y-107752844D01*
X124460401Y-107812372D01*
X124460403Y-107812379D01*
X124510645Y-107947086D01*
X124510649Y-107947093D01*
X124596809Y-108062187D01*
X124596812Y-108062190D01*
X124711906Y-108148350D01*
X124711913Y-108148354D01*
X124846620Y-108198596D01*
X124846627Y-108198598D01*
X124906155Y-108204999D01*
X124906172Y-108205000D01*
X126654000Y-108205000D01*
X126654000Y-107430000D01*
X124454000Y-107430000D01*
X124454000Y-107752844D01*
X117694500Y-107752844D01*
X117694500Y-107144529D01*
X117714185Y-107077490D01*
X117744867Y-107044759D01*
X117785457Y-107014802D01*
X117816150Y-106992150D01*
X117896793Y-106882882D01*
X117925404Y-106801116D01*
X117941646Y-106754701D01*
X117943256Y-106747330D01*
X117945379Y-106747793D01*
X117967198Y-106693018D01*
X118024041Y-106652391D01*
X118064802Y-106645500D01*
X120978948Y-106645500D01*
X121045987Y-106665185D01*
X121052576Y-106669726D01*
X121058525Y-106674116D01*
X121183151Y-106717725D01*
X121183150Y-106717725D01*
X121212740Y-106720500D01*
X121212744Y-106720500D01*
X121918260Y-106720500D01*
X121947849Y-106717725D01*
X121961386Y-106712988D01*
X122072475Y-106674116D01*
X122165440Y-106605505D01*
X122231067Y-106581535D01*
X122299238Y-106596850D01*
X122344610Y-106640179D01*
X122408052Y-106743034D01*
X122408055Y-106743038D01*
X122529961Y-106864944D01*
X122529965Y-106864947D01*
X122676688Y-106955448D01*
X122676699Y-106955453D01*
X122840347Y-107009680D01*
X122890500Y-107014803D01*
X122890500Y-106445000D01*
X123690500Y-106445000D01*
X123690500Y-107014802D01*
X123740650Y-107009680D01*
X123740653Y-107009680D01*
X123904300Y-106955453D01*
X123904311Y-106955448D01*
X124051034Y-106864947D01*
X124051038Y-106864944D01*
X124172944Y-106743038D01*
X124172945Y-106743036D01*
X124240961Y-106632766D01*
X124292909Y-106586041D01*
X124361871Y-106574818D01*
X124425954Y-106602662D01*
X124434181Y-106610181D01*
X124454000Y-106630000D01*
X126654000Y-106630000D01*
X126654000Y-105855000D01*
X124906155Y-105855000D01*
X124846627Y-105861401D01*
X124846620Y-105861403D01*
X124711913Y-105911645D01*
X124711906Y-105911649D01*
X124596812Y-105997809D01*
X124596809Y-105997812D01*
X124510649Y-106112906D01*
X124510645Y-106112913D01*
X124460403Y-106247620D01*
X124460401Y-106247627D01*
X124454000Y-106307155D01*
X124454000Y-106321000D01*
X124434315Y-106388039D01*
X124381511Y-106433794D01*
X124330000Y-106445000D01*
X123690500Y-106445000D01*
X122890500Y-106445000D01*
X122890500Y-105645000D01*
X123690500Y-105645000D01*
X124313588Y-105645000D01*
X124263453Y-105493699D01*
X124263448Y-105493688D01*
X124172947Y-105346965D01*
X124172944Y-105346961D01*
X124051038Y-105225055D01*
X124051034Y-105225052D01*
X123904311Y-105134551D01*
X123904298Y-105134545D01*
X123740649Y-105080318D01*
X123690500Y-105075195D01*
X123690500Y-105645000D01*
X122890500Y-105645000D01*
X122890500Y-105075195D01*
X122890499Y-105075195D01*
X122840350Y-105080318D01*
X122676701Y-105134545D01*
X122676688Y-105134551D01*
X122529965Y-105225052D01*
X122529961Y-105225055D01*
X122408054Y-105346962D01*
X122344610Y-105449821D01*
X122292662Y-105496545D01*
X122223699Y-105507766D01*
X122165439Y-105484494D01*
X122072474Y-105415883D01*
X121947848Y-105372274D01*
X121947849Y-105372274D01*
X121918260Y-105369500D01*
X121918256Y-105369500D01*
X121212744Y-105369500D01*
X121212740Y-105369500D01*
X121183150Y-105372274D01*
X121058526Y-105415883D01*
X121058523Y-105415885D01*
X121052581Y-105420271D01*
X120986952Y-105444241D01*
X120978948Y-105444500D01*
X118064802Y-105444500D01*
X117997763Y-105424815D01*
X117952008Y-105372011D01*
X117944122Y-105342480D01*
X117943256Y-105342670D01*
X117941646Y-105335298D01*
X117896793Y-105207119D01*
X117896792Y-105207117D01*
X117843236Y-105134551D01*
X117816150Y-105097850D01*
X117706882Y-105017207D01*
X117706880Y-105017206D01*
X117578700Y-104972353D01*
X117548270Y-104969500D01*
X117548266Y-104969500D01*
X116639734Y-104969500D01*
X116639730Y-104969500D01*
X116609300Y-104972353D01*
X116609298Y-104972353D01*
X116481119Y-105017206D01*
X116481117Y-105017207D01*
X116371850Y-105097850D01*
X116291207Y-105207117D01*
X116291206Y-105207119D01*
X116246353Y-105335298D01*
X116246353Y-105335300D01*
X116243500Y-105365730D01*
X116243500Y-106724269D01*
X116246353Y-106754699D01*
X116246353Y-106754701D01*
X116278826Y-106847500D01*
X116291207Y-106882882D01*
X116371849Y-106992149D01*
X116371851Y-106992151D01*
X116443133Y-107044759D01*
X116485384Y-107100406D01*
X116493500Y-107144529D01*
X116493500Y-109130500D01*
X116473815Y-109197539D01*
X116421011Y-109243294D01*
X116369500Y-109254500D01*
X115236343Y-109254500D01*
X115083611Y-109295424D01*
X115083054Y-109295655D01*
X115067394Y-109300947D01*
X115064816Y-109301630D01*
X114715037Y-109467981D01*
X114661780Y-109480000D01*
X113363549Y-109480000D01*
X113304394Y-109464980D01*
X113013545Y-109307106D01*
X112951403Y-109281761D01*
X112930388Y-109279814D01*
X112909740Y-109276118D01*
X112829058Y-109254500D01*
X112829057Y-109254500D01*
X111693670Y-109254500D01*
X111693654Y-109254499D01*
X111686058Y-109254499D01*
X111527943Y-109254499D01*
X111520347Y-109254499D01*
X111520331Y-109254500D01*
X111185670Y-109254500D01*
X111185654Y-109254499D01*
X111178058Y-109254499D01*
X111019943Y-109254499D01*
X111012347Y-109254499D01*
X111012331Y-109254500D01*
X110556000Y-109254500D01*
X110488961Y-109234815D01*
X110443206Y-109182011D01*
X110432000Y-109130500D01*
X110432000Y-108982155D01*
X113261600Y-108982155D01*
X113261600Y-109030000D01*
X113836600Y-109030000D01*
X114286600Y-109030000D01*
X114861600Y-109030000D01*
X114861600Y-108982172D01*
X114861599Y-108982155D01*
X114855198Y-108922627D01*
X114855196Y-108922620D01*
X114804954Y-108787913D01*
X114804950Y-108787906D01*
X114718790Y-108672812D01*
X114718787Y-108672809D01*
X114603693Y-108586649D01*
X114603686Y-108586645D01*
X114468979Y-108536403D01*
X114468972Y-108536401D01*
X114409444Y-108530000D01*
X114286600Y-108530000D01*
X114286600Y-109030000D01*
X113836600Y-109030000D01*
X113836600Y-108530000D01*
X113713755Y-108530000D01*
X113654227Y-108536401D01*
X113654220Y-108536403D01*
X113519513Y-108586645D01*
X113519506Y-108586649D01*
X113404412Y-108672809D01*
X113404409Y-108672812D01*
X113318249Y-108787906D01*
X113318245Y-108787913D01*
X113268003Y-108922620D01*
X113268001Y-108922627D01*
X113261600Y-108982155D01*
X110432000Y-108982155D01*
X110432000Y-106712988D01*
X110451685Y-106645949D01*
X110456230Y-106639354D01*
X110473116Y-106616475D01*
X110516725Y-106491849D01*
X110519500Y-106462256D01*
X110519500Y-105881744D01*
X110517592Y-105861401D01*
X110516725Y-105852150D01*
X110482640Y-105754744D01*
X110473116Y-105727525D01*
X110394711Y-105621289D01*
X110327249Y-105571500D01*
X110288476Y-105542884D01*
X110163848Y-105499274D01*
X110163849Y-105499274D01*
X110134260Y-105496500D01*
X110134256Y-105496500D01*
X109528744Y-105496500D01*
X109528740Y-105496500D01*
X109499150Y-105499274D01*
X109374523Y-105542884D01*
X109268289Y-105621288D01*
X109268288Y-105621289D01*
X109189884Y-105727523D01*
X109146274Y-105852150D01*
X109143500Y-105881739D01*
X109143500Y-106462260D01*
X109146274Y-106491849D01*
X109175307Y-106574818D01*
X109189884Y-106616475D01*
X109206770Y-106639354D01*
X109230741Y-106704983D01*
X109231000Y-106712988D01*
X109231000Y-109242875D01*
X109211315Y-109309914D01*
X109206771Y-109316508D01*
X109137383Y-109410525D01*
X109093774Y-109535150D01*
X109091000Y-109564739D01*
X108842000Y-109564739D01*
X108839225Y-109535150D01*
X108795615Y-109410523D01*
X108717211Y-109304289D01*
X108717210Y-109304288D01*
X108610976Y-109225884D01*
X108486348Y-109182274D01*
X108486349Y-109182274D01*
X108456760Y-109179500D01*
X108456756Y-109179500D01*
X107751244Y-109179500D01*
X107751240Y-109179500D01*
X107721650Y-109182274D01*
X107597026Y-109225883D01*
X107597023Y-109225885D01*
X107591081Y-109230271D01*
X107525452Y-109254241D01*
X107517448Y-109254500D01*
X104729055Y-109254500D01*
X104662016Y-109234815D01*
X104616261Y-109182011D01*
X104607438Y-109154691D01*
X104604868Y-109141770D01*
X104604867Y-109141769D01*
X104560552Y-109075447D01*
X104494230Y-109031132D01*
X104494229Y-109031131D01*
X104435752Y-109019500D01*
X104435748Y-109019500D01*
X100796252Y-109019500D01*
X100796247Y-109019500D01*
X100737770Y-109031131D01*
X100737766Y-109031133D01*
X100692890Y-109061119D01*
X100626213Y-109081997D01*
X100558833Y-109063512D01*
X100512143Y-109011533D01*
X100500000Y-108958017D01*
X100500000Y-108324965D01*
X100519685Y-108257926D01*
X100572489Y-108212171D01*
X100637259Y-108201676D01*
X100668163Y-108204999D01*
X100668172Y-108205000D01*
X102416000Y-108205000D01*
X103216000Y-108205000D01*
X104963828Y-108205000D01*
X104963844Y-108204999D01*
X105023372Y-108198598D01*
X105023379Y-108198596D01*
X105158086Y-108148354D01*
X105158093Y-108148350D01*
X105273187Y-108062190D01*
X105273190Y-108062187D01*
X105359350Y-107947093D01*
X105359354Y-107947086D01*
X105409596Y-107812379D01*
X105409598Y-107812372D01*
X105415999Y-107752844D01*
X105416000Y-107752827D01*
X105416000Y-107430000D01*
X103216000Y-107430000D01*
X103216000Y-108205000D01*
X102416000Y-108205000D01*
X102416000Y-106630000D01*
X103216000Y-106630000D01*
X105416000Y-106630000D01*
X105416000Y-106307172D01*
X105415999Y-106307155D01*
X105409598Y-106247627D01*
X105409596Y-106247620D01*
X105359354Y-106112913D01*
X105359350Y-106112906D01*
X105273190Y-105997812D01*
X105273187Y-105997809D01*
X105158093Y-105911649D01*
X105158086Y-105911645D01*
X105023379Y-105861403D01*
X105023372Y-105861401D01*
X104963844Y-105855000D01*
X103216000Y-105855000D01*
X103216000Y-106630000D01*
X102416000Y-106630000D01*
X102416000Y-105855000D01*
X100668172Y-105855000D01*
X100668153Y-105855001D01*
X100637255Y-105858323D01*
X100568496Y-105845918D01*
X100517358Y-105798308D01*
X100500000Y-105735034D01*
X100500000Y-103524000D01*
X108858411Y-103524000D01*
X108908546Y-103675300D01*
X108908551Y-103675311D01*
X108999052Y-103822034D01*
X108999055Y-103822038D01*
X109120961Y-103943944D01*
X109120965Y-103943947D01*
X109267688Y-104034448D01*
X109267699Y-104034453D01*
X109431347Y-104088680D01*
X109481500Y-104093803D01*
X109481500Y-103524000D01*
X108858411Y-103524000D01*
X100500000Y-103524000D01*
X100500000Y-102724000D01*
X108858411Y-102724000D01*
X109481500Y-102724000D01*
X109481500Y-102154195D01*
X110281500Y-102154195D01*
X110281500Y-104093802D01*
X110331650Y-104088680D01*
X110331653Y-104088680D01*
X110495300Y-104034453D01*
X110495311Y-104034448D01*
X110642034Y-103943947D01*
X110642038Y-103943944D01*
X110763945Y-103822037D01*
X110827388Y-103719180D01*
X110879336Y-103672455D01*
X110948298Y-103661232D01*
X111006558Y-103684504D01*
X111099525Y-103753116D01*
X111224151Y-103796725D01*
X111224150Y-103796725D01*
X111253740Y-103799500D01*
X111253744Y-103799500D01*
X111959260Y-103799500D01*
X111978984Y-103797650D01*
X111988849Y-103796725D01*
X112010542Y-103789133D01*
X112080320Y-103785570D01*
X112140949Y-103820296D01*
X112173178Y-103882289D01*
X112175500Y-103906174D01*
X112175500Y-105389825D01*
X112155815Y-105456864D01*
X112103011Y-105502619D01*
X112033853Y-105512563D01*
X112010545Y-105506866D01*
X111988850Y-105499274D01*
X111959260Y-105496500D01*
X111959256Y-105496500D01*
X111353744Y-105496500D01*
X111353740Y-105496500D01*
X111324150Y-105499274D01*
X111199523Y-105542884D01*
X111093289Y-105621288D01*
X111093288Y-105621289D01*
X111014884Y-105727523D01*
X110971274Y-105852150D01*
X110968500Y-105881739D01*
X110968500Y-106462260D01*
X110971274Y-106491849D01*
X111014884Y-106616476D01*
X111093288Y-106722710D01*
X111093289Y-106722711D01*
X111199523Y-106801115D01*
X111199524Y-106801115D01*
X111199525Y-106801116D01*
X111324151Y-106844725D01*
X111324150Y-106844725D01*
X111353740Y-106847500D01*
X111353744Y-106847500D01*
X111959260Y-106847500D01*
X111988849Y-106844725D01*
X112113475Y-106801116D01*
X112119419Y-106796728D01*
X112185048Y-106772759D01*
X112193052Y-106772500D01*
X112587731Y-106772500D01*
X112587747Y-106772501D01*
X112595343Y-106772501D01*
X112761053Y-106772501D01*
X112761069Y-106772500D01*
X113064600Y-106772500D01*
X113131639Y-106792185D01*
X113177394Y-106844989D01*
X113181642Y-106855547D01*
X113191205Y-106882879D01*
X113191206Y-106882881D01*
X113191207Y-106882882D01*
X113271850Y-106992150D01*
X113381118Y-107072793D01*
X113423845Y-107087744D01*
X113509299Y-107117646D01*
X113539730Y-107120500D01*
X113539734Y-107120500D01*
X114448270Y-107120500D01*
X114478699Y-107117646D01*
X114478701Y-107117646D01*
X114542790Y-107095219D01*
X114606882Y-107072793D01*
X114716150Y-106992150D01*
X114796793Y-106882882D01*
X114825404Y-106801116D01*
X114841646Y-106754701D01*
X114841646Y-106754699D01*
X114844500Y-106724269D01*
X114844500Y-105365730D01*
X114841646Y-105335300D01*
X114841646Y-105335298D01*
X114796793Y-105207119D01*
X114796792Y-105207117D01*
X114743236Y-105134551D01*
X114716150Y-105097850D01*
X114606882Y-105017207D01*
X114606880Y-105017206D01*
X114478700Y-104972353D01*
X114448270Y-104969500D01*
X114448266Y-104969500D01*
X113539734Y-104969500D01*
X113539730Y-104969500D01*
X113512077Y-104972093D01*
X113443492Y-104958754D01*
X113393007Y-104910452D01*
X113376500Y-104848635D01*
X113376500Y-104320364D01*
X113396185Y-104253325D01*
X113448989Y-104207570D01*
X113512078Y-104196906D01*
X113539734Y-104199500D01*
X113539735Y-104199500D01*
X114448270Y-104199500D01*
X114478699Y-104196646D01*
X114478701Y-104196646D01*
X114542790Y-104174219D01*
X114606882Y-104151793D01*
X114716150Y-104071150D01*
X114796793Y-103961882D01*
X114824644Y-103882289D01*
X114841646Y-103833701D01*
X114841646Y-103833699D01*
X114844500Y-103803269D01*
X114844500Y-102444730D01*
X114841646Y-102414300D01*
X114841646Y-102414298D01*
X114796793Y-102286119D01*
X114796792Y-102286117D01*
X114743236Y-102213551D01*
X114716150Y-102176850D01*
X114606882Y-102096207D01*
X114606880Y-102096206D01*
X114478700Y-102051353D01*
X114448270Y-102048500D01*
X114448266Y-102048500D01*
X113539734Y-102048500D01*
X113539730Y-102048500D01*
X113509300Y-102051353D01*
X113509298Y-102051353D01*
X113381119Y-102096206D01*
X113381117Y-102096207D01*
X113271850Y-102176850D01*
X113191207Y-102286117D01*
X113191206Y-102286119D01*
X113146353Y-102414298D01*
X113144744Y-102421670D01*
X113142620Y-102421206D01*
X113120802Y-102475982D01*
X113063959Y-102516609D01*
X113023198Y-102523500D01*
X112193052Y-102523500D01*
X112126013Y-102503815D01*
X112119419Y-102499271D01*
X112113476Y-102494885D01*
X112113475Y-102494884D01*
X112113473Y-102494883D01*
X111988848Y-102451274D01*
X111988849Y-102451274D01*
X111959260Y-102448500D01*
X111959256Y-102448500D01*
X111253744Y-102448500D01*
X111253740Y-102448500D01*
X111224150Y-102451274D01*
X111099525Y-102494883D01*
X111006560Y-102563494D01*
X110940930Y-102587464D01*
X110872760Y-102572148D01*
X110827388Y-102528820D01*
X110763943Y-102425960D01*
X110642038Y-102304055D01*
X110642034Y-102304052D01*
X110495311Y-102213551D01*
X110495298Y-102213545D01*
X110331649Y-102159318D01*
X110281500Y-102154195D01*
X109481500Y-102154195D01*
X109481499Y-102154195D01*
X109431350Y-102159318D01*
X109267701Y-102213545D01*
X109267688Y-102213551D01*
X109120965Y-102304052D01*
X109120961Y-102304055D01*
X108999055Y-102425961D01*
X108999052Y-102425965D01*
X108908551Y-102572688D01*
X108908546Y-102572699D01*
X108858411Y-102724000D01*
X100500000Y-102724000D01*
X100500000Y-95999998D01*
X109994891Y-95999998D01*
X109994891Y-96000001D01*
X110015300Y-96285362D01*
X110076109Y-96564895D01*
X110176091Y-96832958D01*
X110313196Y-97084047D01*
X110329066Y-97105246D01*
X110329067Y-97105246D01*
X111259820Y-96174493D01*
X111269207Y-96221684D01*
X111326497Y-96359995D01*
X111409670Y-96484472D01*
X111515528Y-96590330D01*
X111640005Y-96673503D01*
X111778316Y-96730793D01*
X111825505Y-96740179D01*
X110894752Y-97670932D01*
X110915954Y-97686804D01*
X110915960Y-97686807D01*
X111167042Y-97823908D01*
X111167041Y-97823908D01*
X111435104Y-97923890D01*
X111714637Y-97984699D01*
X111999999Y-98005109D01*
X112000001Y-98005109D01*
X112285362Y-97984699D01*
X112564895Y-97923890D01*
X112832958Y-97823908D01*
X113084040Y-97686806D01*
X113105246Y-97670931D01*
X112174495Y-96740179D01*
X112221684Y-96730793D01*
X112359995Y-96673503D01*
X112484472Y-96590330D01*
X112590330Y-96484472D01*
X112673503Y-96359995D01*
X112730793Y-96221684D01*
X112740179Y-96174494D01*
X113670931Y-97105246D01*
X113686806Y-97084040D01*
X113823908Y-96832958D01*
X113923890Y-96564895D01*
X113984699Y-96285362D01*
X114005109Y-96000001D01*
X114005109Y-95999998D01*
X113984699Y-95714637D01*
X113923890Y-95435104D01*
X113823908Y-95167041D01*
X113686807Y-94915960D01*
X113686804Y-94915954D01*
X113670932Y-94894752D01*
X112740179Y-95825505D01*
X112730793Y-95778316D01*
X112673503Y-95640005D01*
X112590330Y-95515528D01*
X112484472Y-95409670D01*
X112359995Y-95326497D01*
X112221684Y-95269207D01*
X112174494Y-95259820D01*
X112954066Y-94480247D01*
X115379500Y-94480247D01*
X115379500Y-97519752D01*
X115391131Y-97578229D01*
X115391132Y-97578230D01*
X115435447Y-97644552D01*
X115501769Y-97688867D01*
X115501770Y-97688868D01*
X115560247Y-97700499D01*
X115560250Y-97700500D01*
X115560252Y-97700500D01*
X116369500Y-97700500D01*
X116436539Y-97720185D01*
X116482294Y-97772989D01*
X116493500Y-97824500D01*
X116493500Y-102024470D01*
X116473815Y-102091509D01*
X116443134Y-102124240D01*
X116371850Y-102176850D01*
X116291207Y-102286117D01*
X116291206Y-102286119D01*
X116246353Y-102414298D01*
X116246353Y-102414300D01*
X116243500Y-102444730D01*
X116243500Y-103803269D01*
X116246353Y-103833699D01*
X116246353Y-103833701D01*
X116284930Y-103943944D01*
X116291207Y-103961882D01*
X116371850Y-104071150D01*
X116481118Y-104151793D01*
X116523845Y-104166744D01*
X116609299Y-104196646D01*
X116639730Y-104199500D01*
X116639734Y-104199500D01*
X117548270Y-104199500D01*
X117578699Y-104196646D01*
X117578701Y-104196646D01*
X117642790Y-104174219D01*
X117706882Y-104151793D01*
X117816150Y-104071150D01*
X117896793Y-103961882D01*
X117924644Y-103882289D01*
X117941646Y-103833701D01*
X117941646Y-103833699D01*
X117944500Y-103803269D01*
X117944500Y-102444730D01*
X117941646Y-102414300D01*
X117941646Y-102414298D01*
X117896793Y-102286119D01*
X117896792Y-102286117D01*
X117843236Y-102213551D01*
X117816150Y-102176850D01*
X117744866Y-102124240D01*
X117702615Y-102068592D01*
X117694500Y-102024470D01*
X117694500Y-97824500D01*
X117714185Y-97757461D01*
X117766989Y-97711706D01*
X117818500Y-97700500D01*
X118599750Y-97700500D01*
X118599751Y-97700499D01*
X118614568Y-97697552D01*
X118658229Y-97688868D01*
X118658229Y-97688867D01*
X118658231Y-97688867D01*
X118724552Y-97644552D01*
X118768867Y-97578231D01*
X118768867Y-97578229D01*
X118768868Y-97578229D01*
X118780499Y-97519752D01*
X118780500Y-97519750D01*
X118780500Y-94480249D01*
X118780499Y-94480247D01*
X118768868Y-94421770D01*
X118768867Y-94421769D01*
X118724552Y-94355447D01*
X118658230Y-94311132D01*
X118658229Y-94311131D01*
X118599752Y-94299500D01*
X118599748Y-94299500D01*
X115560252Y-94299500D01*
X115560247Y-94299500D01*
X115501770Y-94311131D01*
X115501769Y-94311132D01*
X115435447Y-94355447D01*
X115391132Y-94421769D01*
X115391131Y-94421770D01*
X115379500Y-94480247D01*
X112954066Y-94480247D01*
X113105246Y-94329067D01*
X113105246Y-94329066D01*
X113084047Y-94313196D01*
X112832957Y-94176091D01*
X112832958Y-94176091D01*
X112564895Y-94076109D01*
X112285362Y-94015300D01*
X112000001Y-93994891D01*
X111999999Y-93994891D01*
X111714637Y-94015300D01*
X111435104Y-94076109D01*
X111167041Y-94176091D01*
X110915954Y-94313196D01*
X110894752Y-94329066D01*
X111825506Y-95259820D01*
X111778316Y-95269207D01*
X111640005Y-95326497D01*
X111515528Y-95409670D01*
X111409670Y-95515528D01*
X111326497Y-95640005D01*
X111269207Y-95778316D01*
X111259820Y-95825506D01*
X110329066Y-94894752D01*
X110313196Y-94915954D01*
X110176091Y-95167041D01*
X110076109Y-95435104D01*
X110015300Y-95714637D01*
X109994891Y-95999998D01*
X100500000Y-95999998D01*
X100500000Y-92385258D01*
X101249500Y-92385258D01*
X101249500Y-92614741D01*
X101274446Y-92804215D01*
X101279452Y-92842238D01*
X101279453Y-92842240D01*
X101338842Y-93063887D01*
X101426650Y-93275876D01*
X101426657Y-93275890D01*
X101541392Y-93474617D01*
X101681081Y-93656661D01*
X101681089Y-93656670D01*
X101843330Y-93818911D01*
X101843338Y-93818918D01*
X102025382Y-93958607D01*
X102025385Y-93958608D01*
X102025388Y-93958611D01*
X102224112Y-94073344D01*
X102224117Y-94073346D01*
X102224123Y-94073349D01*
X102315480Y-94111190D01*
X102436113Y-94161158D01*
X102657762Y-94220548D01*
X102885266Y-94250500D01*
X102885273Y-94250500D01*
X103114727Y-94250500D01*
X103114734Y-94250500D01*
X103342238Y-94220548D01*
X103563887Y-94161158D01*
X103775888Y-94073344D01*
X103974612Y-93958611D01*
X104156661Y-93818919D01*
X104156665Y-93818914D01*
X104156670Y-93818911D01*
X104318911Y-93656670D01*
X104318914Y-93656665D01*
X104318919Y-93656661D01*
X104458611Y-93474612D01*
X104573344Y-93275888D01*
X104661158Y-93063887D01*
X104720548Y-92842238D01*
X104750500Y-92614734D01*
X104750500Y-92385266D01*
X104750499Y-92385258D01*
X125249500Y-92385258D01*
X125249500Y-92614741D01*
X125274446Y-92804215D01*
X125279452Y-92842238D01*
X125279453Y-92842240D01*
X125338842Y-93063887D01*
X125426650Y-93275876D01*
X125426657Y-93275890D01*
X125541392Y-93474617D01*
X125681081Y-93656661D01*
X125681089Y-93656670D01*
X125843330Y-93818911D01*
X125843338Y-93818918D01*
X126025382Y-93958607D01*
X126025385Y-93958608D01*
X126025388Y-93958611D01*
X126224112Y-94073344D01*
X126224117Y-94073346D01*
X126224123Y-94073349D01*
X126315480Y-94111190D01*
X126436113Y-94161158D01*
X126657762Y-94220548D01*
X126885266Y-94250500D01*
X126885273Y-94250500D01*
X127114727Y-94250500D01*
X127114734Y-94250500D01*
X127342238Y-94220548D01*
X127563887Y-94161158D01*
X127775888Y-94073344D01*
X127974612Y-93958611D01*
X128156661Y-93818919D01*
X128156665Y-93818914D01*
X128156670Y-93818911D01*
X128318911Y-93656670D01*
X128318914Y-93656665D01*
X128318919Y-93656661D01*
X128458611Y-93474612D01*
X128573344Y-93275888D01*
X128661158Y-93063887D01*
X128720548Y-92842238D01*
X128750500Y-92614734D01*
X128750500Y-92385266D01*
X128720548Y-92157762D01*
X128661158Y-91936113D01*
X128573344Y-91724112D01*
X128458611Y-91525388D01*
X128458608Y-91525385D01*
X128458607Y-91525382D01*
X128318918Y-91343338D01*
X128318911Y-91343330D01*
X128156670Y-91181089D01*
X128156661Y-91181081D01*
X127974617Y-91041392D01*
X127775890Y-90926657D01*
X127775876Y-90926650D01*
X127563887Y-90838842D01*
X127342238Y-90779452D01*
X127304215Y-90774446D01*
X127114741Y-90749500D01*
X127114734Y-90749500D01*
X126885266Y-90749500D01*
X126885258Y-90749500D01*
X126668715Y-90778009D01*
X126657762Y-90779452D01*
X126564076Y-90804554D01*
X126436112Y-90838842D01*
X126224123Y-90926650D01*
X126224109Y-90926657D01*
X126025382Y-91041392D01*
X125843338Y-91181081D01*
X125681081Y-91343338D01*
X125541392Y-91525382D01*
X125426657Y-91724109D01*
X125426650Y-91724123D01*
X125338842Y-91936112D01*
X125279453Y-92157759D01*
X125279451Y-92157770D01*
X125249500Y-92385258D01*
X104750499Y-92385258D01*
X104720548Y-92157762D01*
X104661158Y-91936113D01*
X104573344Y-91724112D01*
X104458611Y-91525388D01*
X104458608Y-91525385D01*
X104458607Y-91525382D01*
X104318918Y-91343338D01*
X104318911Y-91343330D01*
X104156670Y-91181089D01*
X104156661Y-91181081D01*
X103974617Y-91041392D01*
X103775890Y-90926657D01*
X103775876Y-90926650D01*
X103563887Y-90838842D01*
X103342238Y-90779452D01*
X103304215Y-90774446D01*
X103114741Y-90749500D01*
X103114734Y-90749500D01*
X102885266Y-90749500D01*
X102885258Y-90749500D01*
X102668715Y-90778009D01*
X102657762Y-90779452D01*
X102564076Y-90804554D01*
X102436112Y-90838842D01*
X102224123Y-90926650D01*
X102224109Y-90926657D01*
X102025382Y-91041392D01*
X101843338Y-91181081D01*
X101681081Y-91343338D01*
X101541392Y-91525382D01*
X101426657Y-91724109D01*
X101426650Y-91724123D01*
X101338842Y-91936112D01*
X101279453Y-92157759D01*
X101279451Y-92157770D01*
X101249500Y-92385258D01*
X100500000Y-92385258D01*
X100500000Y-90624000D01*
X100519685Y-90556961D01*
X100572489Y-90511206D01*
X100624000Y-90500000D01*
X129376000Y-90500000D01*
X129443039Y-90519685D01*
G37*
%TD.AperFunction*%
%TD*%
M02*
