%TF.GenerationSoftware,KiCad,Pcbnew,8.0.2*%
%TF.CreationDate,2025-01-11T01:13:48-03:00*%
%TF.ProjectId,tx_amplifier,74785f61-6d70-46c6-9966-6965722e6b69,v1.2*%
%TF.SameCoordinates,Original*%
%TF.FileFunction,Copper,L2,Bot*%
%TF.FilePolarity,Positive*%
%FSLAX46Y46*%
G04 Gerber Fmt 4.6, Leading zero omitted, Abs format (unit mm)*
G04 Created by KiCad (PCBNEW 8.0.2) date 2025-01-11 01:13:48*
%MOMM*%
%LPD*%
G01*
G04 APERTURE LIST*
%TA.AperFunction,SMDPad,CuDef*%
%ADD10R,4.200000X1.350000*%
%TD*%
%TA.AperFunction,ComponentPad*%
%ADD11R,3.000000X3.000000*%
%TD*%
%TA.AperFunction,ComponentPad*%
%ADD12C,3.000000*%
%TD*%
%TA.AperFunction,ViaPad*%
%ADD13C,0.500000*%
%TD*%
G04 APERTURE END LIST*
D10*
%TO.P,J2,2,Ext*%
%TO.N,GND*%
X127054000Y-112680000D03*
X127054000Y-107030000D03*
%TD*%
%TO.P,J1,2,Ext*%
%TO.N,GND*%
X102816000Y-107030000D03*
X102816000Y-112680000D03*
%TD*%
D11*
%TO.P,J3,1,Pin_1*%
%TO.N,+3.3V*%
X117080000Y-96000000D03*
D12*
%TO.P,J3,2,Pin_2*%
%TO.N,GND*%
X112000000Y-96000000D03*
%TD*%
D13*
%TO.N,GND*%
X105500000Y-111000000D03*
X120500000Y-111000000D03*
X119000000Y-105000000D03*
X113500000Y-107500000D03*
X103500000Y-108600000D03*
X108500000Y-107500000D03*
X115200000Y-109000000D03*
X126000000Y-111000000D03*
X118000000Y-100500000D03*
X116200000Y-108000000D03*
X111500000Y-104250000D03*
X114500000Y-113000000D03*
X118000000Y-98500000D03*
X127000000Y-108600000D03*
X102500000Y-111000000D03*
X122000000Y-105000000D03*
X118500000Y-112000000D03*
X115500000Y-101500000D03*
X120000000Y-105000000D03*
X115500000Y-105500000D03*
X118500000Y-113000000D03*
X117500000Y-113000000D03*
X107500000Y-108600000D03*
X101500000Y-108600000D03*
X113000000Y-110750000D03*
X119500000Y-111000000D03*
X113500000Y-101500000D03*
X112500000Y-113000000D03*
X123500000Y-108600000D03*
X101500000Y-111000000D03*
X111000000Y-108000000D03*
X114000000Y-110750000D03*
X111500000Y-102000000D03*
X114500000Y-101500000D03*
X108500000Y-111000000D03*
X119500000Y-108600000D03*
X115500000Y-113000000D03*
X112500000Y-102000000D03*
X118500000Y-111000000D03*
X116200000Y-109000000D03*
X106500000Y-111000000D03*
X117000000Y-104500000D03*
X108500000Y-105500000D03*
X126000000Y-108600000D03*
X124500000Y-111000000D03*
X127000000Y-111000000D03*
X105500000Y-108600000D03*
X109500000Y-112000000D03*
X113500000Y-113000000D03*
X108500000Y-106500000D03*
X106500000Y-108600000D03*
X118500000Y-103500000D03*
X121500000Y-108600000D03*
X112000000Y-110750000D03*
X115500000Y-106500000D03*
X120500000Y-112000000D03*
X121500000Y-107000000D03*
X122500000Y-108600000D03*
X118500000Y-107500000D03*
X107500000Y-111000000D03*
X112500000Y-107500000D03*
X116500000Y-113000000D03*
X108500000Y-108600000D03*
X115500000Y-107500000D03*
X116000000Y-99500000D03*
X120500000Y-108600000D03*
X102500000Y-108600000D03*
X111000000Y-107000000D03*
X104500000Y-108600000D03*
X113000000Y-109000000D03*
X116000000Y-100500000D03*
X109500000Y-111000000D03*
X111000000Y-109000000D03*
X116000000Y-98500000D03*
X119500000Y-107000000D03*
X104500000Y-111000000D03*
X121000000Y-105000000D03*
X112000000Y-109000000D03*
X109500000Y-113000000D03*
X118500000Y-108600000D03*
X118000000Y-101500000D03*
X118000000Y-104500000D03*
X111500000Y-113000000D03*
X124500000Y-108600000D03*
X128000000Y-111000000D03*
X118000000Y-99500000D03*
X120500000Y-107000000D03*
X115500000Y-102500000D03*
X116000000Y-110750000D03*
X115000000Y-110750000D03*
X111500000Y-105000000D03*
X114500000Y-107500000D03*
X110500000Y-105000000D03*
X103500000Y-111000000D03*
X118500000Y-102500000D03*
X109500000Y-105000000D03*
X128000000Y-108600000D03*
X110500000Y-113000000D03*
X115500000Y-103500000D03*
%TD*%
%TA.AperFunction,Conductor*%
%TO.N,GND*%
G36*
X124239681Y-90518954D02*
G01*
X124320463Y-90572930D01*
X124374439Y-90653712D01*
X124393393Y-90749000D01*
X124374439Y-90844288D01*
X124355227Y-90881476D01*
X124282100Y-90997856D01*
X124282087Y-90997880D01*
X124130995Y-91311626D01*
X124015982Y-91640318D01*
X123938491Y-91979827D01*
X123899500Y-92325867D01*
X123899500Y-92674132D01*
X123938491Y-93020172D01*
X124015982Y-93359681D01*
X124130995Y-93688373D01*
X124130998Y-93688379D01*
X124282094Y-94002133D01*
X124282098Y-94002139D01*
X124282100Y-94002143D01*
X124467369Y-94296996D01*
X124513983Y-94355448D01*
X124684494Y-94569263D01*
X124930737Y-94815506D01*
X125203003Y-95032630D01*
X125497867Y-95217906D01*
X125811621Y-95369002D01*
X125811624Y-95369003D01*
X125811626Y-95369004D01*
X125877455Y-95392038D01*
X126140319Y-95484018D01*
X126479829Y-95561509D01*
X126696106Y-95585877D01*
X126825867Y-95600499D01*
X126825880Y-95600500D01*
X127174120Y-95600500D01*
X127174132Y-95600499D01*
X127272434Y-95589422D01*
X127520171Y-95561509D01*
X127859681Y-95484018D01*
X128188379Y-95369002D01*
X128502133Y-95217906D01*
X128796997Y-95032630D01*
X129069263Y-94815506D01*
X129074933Y-94809835D01*
X129155712Y-94755862D01*
X129251000Y-94736908D01*
X129346288Y-94755862D01*
X129427070Y-94809838D01*
X129481046Y-94890620D01*
X129500000Y-94985908D01*
X129500000Y-115014092D01*
X129481046Y-115109380D01*
X129427070Y-115190162D01*
X129346288Y-115244138D01*
X129251000Y-115263092D01*
X129155712Y-115244138D01*
X129074933Y-115190164D01*
X129069263Y-115184494D01*
X128796997Y-114967370D01*
X128796998Y-114967370D01*
X128796996Y-114967369D01*
X128502143Y-114782100D01*
X128502139Y-114782098D01*
X128502133Y-114782094D01*
X128502123Y-114782089D01*
X128502119Y-114782087D01*
X128188373Y-114630995D01*
X127951659Y-114548166D01*
X127859681Y-114515982D01*
X127859683Y-114515982D01*
X127520172Y-114438491D01*
X127174132Y-114399500D01*
X127174120Y-114399500D01*
X126825880Y-114399500D01*
X126825867Y-114399500D01*
X126479827Y-114438491D01*
X126140318Y-114515982D01*
X125811626Y-114630995D01*
X125497880Y-114782087D01*
X125497856Y-114782100D01*
X125203003Y-114967369D01*
X124930740Y-115184491D01*
X124684491Y-115430740D01*
X124467369Y-115703003D01*
X124282100Y-115997856D01*
X124282087Y-115997880D01*
X124130995Y-116311626D01*
X124015982Y-116640318D01*
X123938491Y-116979827D01*
X123899500Y-117325867D01*
X123899500Y-117674132D01*
X123938491Y-118020172D01*
X124015982Y-118359681D01*
X124130995Y-118688373D01*
X124130998Y-118688379D01*
X124282094Y-119002133D01*
X124282098Y-119002139D01*
X124282100Y-119002143D01*
X124355227Y-119118524D01*
X124389875Y-119209291D01*
X124387150Y-119306408D01*
X124347468Y-119395089D01*
X124276869Y-119461834D01*
X124186102Y-119496482D01*
X124144393Y-119500000D01*
X105855607Y-119500000D01*
X105760319Y-119481046D01*
X105679537Y-119427070D01*
X105625561Y-119346288D01*
X105606607Y-119251000D01*
X105625561Y-119155712D01*
X105644773Y-119118524D01*
X105677377Y-119066634D01*
X105717906Y-119002133D01*
X105869002Y-118688379D01*
X105984018Y-118359681D01*
X106061509Y-118020171D01*
X106100500Y-117674120D01*
X106100500Y-117325880D01*
X106061509Y-116979829D01*
X105984018Y-116640319D01*
X105869002Y-116311621D01*
X105717906Y-115997867D01*
X105532630Y-115703003D01*
X105315506Y-115430737D01*
X105069263Y-115184494D01*
X104796997Y-114967370D01*
X104796998Y-114967370D01*
X104796996Y-114967369D01*
X104502143Y-114782100D01*
X104502139Y-114782098D01*
X104502133Y-114782094D01*
X104502123Y-114782089D01*
X104502119Y-114782087D01*
X104188373Y-114630995D01*
X103951659Y-114548166D01*
X103859681Y-114515982D01*
X103859683Y-114515982D01*
X103520172Y-114438491D01*
X103174132Y-114399500D01*
X103174120Y-114399500D01*
X102825880Y-114399500D01*
X102825867Y-114399500D01*
X102479827Y-114438491D01*
X102140318Y-114515982D01*
X101811626Y-114630995D01*
X101497880Y-114782087D01*
X101497856Y-114782100D01*
X101203003Y-114967369D01*
X100930740Y-115184491D01*
X100930737Y-115184493D01*
X100930737Y-115184494D01*
X100925066Y-115190164D01*
X100844288Y-115244138D01*
X100749000Y-115263092D01*
X100653712Y-115244138D01*
X100572930Y-115190162D01*
X100518954Y-115109380D01*
X100500000Y-115014092D01*
X100500000Y-96000000D01*
X109994891Y-96000000D01*
X110015301Y-96285364D01*
X110076108Y-96564891D01*
X110076112Y-96564902D01*
X110176087Y-96832947D01*
X110313194Y-97084043D01*
X110313195Y-97084044D01*
X110329066Y-97105245D01*
X111259819Y-96174491D01*
X111269207Y-96221684D01*
X111326497Y-96359995D01*
X111409670Y-96484472D01*
X111515528Y-96590330D01*
X111640005Y-96673503D01*
X111778316Y-96730793D01*
X111825505Y-96740179D01*
X110894753Y-97670932D01*
X110915956Y-97686805D01*
X111167052Y-97823912D01*
X111435097Y-97923887D01*
X111435108Y-97923891D01*
X111714635Y-97984698D01*
X112000000Y-98005108D01*
X112285364Y-97984698D01*
X112564891Y-97923891D01*
X112564902Y-97923887D01*
X112832952Y-97823910D01*
X113084042Y-97686806D01*
X113105245Y-97670932D01*
X112174493Y-96740180D01*
X112221684Y-96730793D01*
X112359995Y-96673503D01*
X112484472Y-96590330D01*
X112590330Y-96484472D01*
X112673503Y-96359995D01*
X112730793Y-96221684D01*
X112740180Y-96174493D01*
X113670932Y-97105245D01*
X113686806Y-97084042D01*
X113823910Y-96832952D01*
X113923887Y-96564902D01*
X113923891Y-96564891D01*
X113984698Y-96285364D01*
X114005108Y-96000000D01*
X113984698Y-95714635D01*
X113923891Y-95435108D01*
X113923887Y-95435097D01*
X113823912Y-95167052D01*
X113686805Y-94915956D01*
X113670932Y-94894753D01*
X112740179Y-95825505D01*
X112730793Y-95778316D01*
X112673503Y-95640005D01*
X112590330Y-95515528D01*
X112484472Y-95409670D01*
X112359995Y-95326497D01*
X112221684Y-95269207D01*
X112174491Y-95259819D01*
X112954059Y-94480252D01*
X115379500Y-94480252D01*
X115379500Y-97519748D01*
X115388224Y-97563610D01*
X115391133Y-97578232D01*
X115435445Y-97644548D01*
X115435448Y-97644552D01*
X115435451Y-97644554D01*
X115501767Y-97688866D01*
X115501769Y-97688867D01*
X115560252Y-97700500D01*
X115560255Y-97700500D01*
X118599745Y-97700500D01*
X118599748Y-97700500D01*
X118658231Y-97688867D01*
X118724552Y-97644552D01*
X118768867Y-97578231D01*
X118780500Y-97519748D01*
X118780500Y-94480252D01*
X118768867Y-94421769D01*
X118724552Y-94355448D01*
X118724548Y-94355445D01*
X118658232Y-94311133D01*
X118643610Y-94308224D01*
X118599748Y-94299500D01*
X115560252Y-94299500D01*
X115525162Y-94306479D01*
X115501767Y-94311133D01*
X115435451Y-94355445D01*
X115435445Y-94355451D01*
X115391133Y-94421767D01*
X115391133Y-94421769D01*
X115379500Y-94480252D01*
X112954059Y-94480252D01*
X113105245Y-94329066D01*
X113084044Y-94313195D01*
X113084043Y-94313194D01*
X112832947Y-94176087D01*
X112564902Y-94076112D01*
X112564891Y-94076108D01*
X112285364Y-94015301D01*
X112000000Y-93994891D01*
X111714635Y-94015301D01*
X111435108Y-94076108D01*
X111435097Y-94076112D01*
X111167052Y-94176087D01*
X110915959Y-94313193D01*
X110915952Y-94313197D01*
X110894753Y-94329066D01*
X111825506Y-95259819D01*
X111778316Y-95269207D01*
X111640005Y-95326497D01*
X111515528Y-95409670D01*
X111409670Y-95515528D01*
X111326497Y-95640005D01*
X111269207Y-95778316D01*
X111259819Y-95825506D01*
X110329066Y-94894753D01*
X110313197Y-94915952D01*
X110313193Y-94915959D01*
X110176087Y-95167052D01*
X110076112Y-95435097D01*
X110076108Y-95435108D01*
X110015301Y-95714635D01*
X109994891Y-96000000D01*
X100500000Y-96000000D01*
X100500000Y-94985908D01*
X100518954Y-94890620D01*
X100572930Y-94809838D01*
X100653712Y-94755862D01*
X100749000Y-94736908D01*
X100844288Y-94755862D01*
X100925066Y-94809835D01*
X100930737Y-94815506D01*
X101203003Y-95032630D01*
X101497867Y-95217906D01*
X101811621Y-95369002D01*
X101811624Y-95369003D01*
X101811626Y-95369004D01*
X101877455Y-95392038D01*
X102140319Y-95484018D01*
X102479829Y-95561509D01*
X102696106Y-95585877D01*
X102825867Y-95600499D01*
X102825880Y-95600500D01*
X103174120Y-95600500D01*
X103174132Y-95600499D01*
X103272434Y-95589422D01*
X103520171Y-95561509D01*
X103859681Y-95484018D01*
X104188379Y-95369002D01*
X104502133Y-95217906D01*
X104796997Y-95032630D01*
X105069263Y-94815506D01*
X105315506Y-94569263D01*
X105532630Y-94296997D01*
X105717906Y-94002133D01*
X105869002Y-93688379D01*
X105984018Y-93359681D01*
X106061509Y-93020171D01*
X106100500Y-92674120D01*
X106100500Y-92325880D01*
X106061509Y-91979829D01*
X105984018Y-91640319D01*
X105869002Y-91311621D01*
X105717906Y-90997867D01*
X105708194Y-90982411D01*
X105644773Y-90881476D01*
X105610125Y-90790709D01*
X105612850Y-90693592D01*
X105652532Y-90604911D01*
X105723131Y-90538166D01*
X105813898Y-90503518D01*
X105855607Y-90500000D01*
X124144393Y-90500000D01*
X124239681Y-90518954D01*
G37*
%TD.AperFunction*%
%TD*%
M02*
