M48
; DRILL file {KiCad 8.0.5-8.0.5-0~ubuntu22.04.1} date 2025-01-09T17:41:30-0300
; FORMAT={-:-/ absolute / inch / decimal}
; #@! TF.CreationDate,2025-01-09T17:41:30-03:00
; #@! TF.GenerationSoftware,Kicad,Pcbnew,8.0.5-8.0.5-0~ubuntu22.04.1
; #@! TF.FileFunction,Plated,1,2,PTH
FMAT,2
INCH
; #@! TA.AperFunction,Plated,PTH,ViaDrill
T1C0.0118
; #@! TA.AperFunction,Plated,PTH,ComponentDrill
T2C0.0598
%
G90
G05
T1
X3.9961Y-4.2756
X3.9961Y-4.3701
X4.0354Y-4.2756
X4.0354Y-4.3701
X4.048Y-4.152
X4.048Y-4.498
X4.0748Y-4.2756
X4.0748Y-4.3701
X4.1142Y-4.2756
X4.1142Y-4.3701
X4.1535Y-4.2756
X4.1535Y-4.3701
X4.1929Y-4.2756
X4.1929Y-4.3701
X4.2323Y-4.2756
X4.2323Y-4.3701
X4.2717Y-4.1535
X4.2717Y-4.1929
X4.2717Y-4.2323
X4.2717Y-4.2756
X4.2717Y-4.3701
X4.311Y-4.1339
X4.311Y-4.3701
X4.311Y-4.4094
X4.311Y-4.4488
X4.3261Y-4.01
X4.3504Y-4.1339
X4.3504Y-4.4488
X4.3701Y-4.2126
X4.3701Y-4.252
X4.3701Y-4.2913
X4.3898Y-4.0157
X4.3898Y-4.1043
X4.3898Y-4.1339
X4.3898Y-4.4488
X4.4094Y-4.2913
X4.4094Y-4.3602
X4.4291Y-4.0157
X4.4291Y-4.2323
X4.4291Y-4.4488
X4.4488Y-4.2913
X4.4488Y-4.3602
X4.4685Y-3.9961
X4.4685Y-4.2323
X4.4685Y-4.4488
X4.4882Y-4.1142
X4.4882Y-4.3602
X4.491Y-4.259
X4.5079Y-3.9961
X4.5079Y-4.2323
X4.5079Y-4.4488
X4.5276Y-4.1142
X4.5276Y-4.3602
X4.5354Y-4.2913
X4.5472Y-3.9961
X4.5472Y-4.0354
X4.5472Y-4.0748
X4.5472Y-4.1535
X4.5472Y-4.1929
X4.5472Y-4.2323
X4.5472Y-4.4488
X4.5669Y-3.878
X4.5669Y-3.9173
X4.5669Y-3.9567
X4.5669Y-4.1142
X4.5669Y-4.3602
X4.5748Y-4.252
X4.5748Y-4.2913
X4.5866Y-4.4488
X4.6063Y-4.1142
X4.626Y-4.4488
X4.6457Y-3.878
X4.6457Y-3.9173
X4.6457Y-3.9567
X4.6457Y-3.9961
X4.6457Y-4.1142
X4.6654Y-4.0354
X4.6654Y-4.0748
X4.6654Y-4.2323
X4.6654Y-4.2756
X4.6654Y-4.3701
X4.6654Y-4.4094
X4.6654Y-4.4488
X4.685Y-4.1339
X4.7047Y-4.2126
X4.7047Y-4.2756
X4.7047Y-4.3701
X4.7244Y-4.1339
X4.7441Y-4.2126
X4.7441Y-4.2756
X4.7441Y-4.3701
X4.7441Y-4.4094
X4.7441Y-4.4488
X4.7638Y-4.1339
X4.7835Y-4.2126
X4.7835Y-4.2756
X4.7835Y-4.4488
X4.785Y-4.552
X4.8031Y-4.1339
X4.8228Y-4.2756
X4.8228Y-4.3701
X4.8425Y-4.5472
X4.854Y-4.122
X4.8622Y-4.2756
X4.8622Y-4.3701
X4.8819Y-4.5472
X4.9016Y-4.2756
X4.9016Y-4.3701
X4.9606Y-4.2756
X4.9606Y-4.3701
X5.0Y-4.2756
X5.0Y-4.3701
X5.002Y-4.15
X5.002Y-4.498
X5.0394Y-4.2756
X5.0394Y-4.3701
T2
X4.4094Y-3.7795
X4.6094Y-3.7795
M30
