%TF.GenerationSoftware,KiCad,Pcbnew,8.0.2*%
%TF.CreationDate,2025-01-11T01:13:48-03:00*%
%TF.ProjectId,tx_amplifier,74785f61-6d70-46c6-9966-6965722e6b69,v1.2*%
%TF.SameCoordinates,Original*%
%TF.FileFunction,Copper,L1,Top*%
%TF.FilePolarity,Positive*%
%FSLAX46Y46*%
G04 Gerber Fmt 4.6, Leading zero omitted, Abs format (unit mm)*
G04 Created by KiCad (PCBNEW 8.0.2) date 2025-01-11 01:13:48*
%MOMM*%
%LPD*%
G01*
G04 APERTURE LIST*
G04 Aperture macros list*
%AMRoundRect*
0 Rectangle with rounded corners*
0 $1 Rounding radius*
0 $2 $3 $4 $5 $6 $7 $8 $9 X,Y pos of 4 corners*
0 Add a 4 corners polygon primitive as box body*
4,1,4,$2,$3,$4,$5,$6,$7,$8,$9,$2,$3,0*
0 Add four circle primitives for the rounded corners*
1,1,$1+$1,$2,$3*
1,1,$1+$1,$4,$5*
1,1,$1+$1,$6,$7*
1,1,$1+$1,$8,$9*
0 Add four rect primitives between the rounded corners*
20,1,$1+$1,$2,$3,$4,$5,0*
20,1,$1+$1,$4,$5,$6,$7,0*
20,1,$1+$1,$6,$7,$8,$9,0*
20,1,$1+$1,$8,$9,$2,$3,0*%
G04 Aperture macros list end*
%TA.AperFunction,Conductor*%
%ADD10C,0.200000*%
%TD*%
%TA.AperFunction,SMDPad,CuDef*%
%ADD11RoundRect,0.237500X0.300000X0.237500X-0.300000X0.237500X-0.300000X-0.237500X0.300000X-0.237500X0*%
%TD*%
%TA.AperFunction,SMDPad,CuDef*%
%ADD12RoundRect,0.250000X-0.400000X-0.625000X0.400000X-0.625000X0.400000X0.625000X-0.400000X0.625000X0*%
%TD*%
%TA.AperFunction,SMDPad,CuDef*%
%ADD13RoundRect,0.237500X-0.300000X-0.237500X0.300000X-0.237500X0.300000X0.237500X-0.300000X0.237500X0*%
%TD*%
%TA.AperFunction,SMDPad,CuDef*%
%ADD14RoundRect,0.237500X-0.287500X-0.237500X0.287500X-0.237500X0.287500X0.237500X-0.287500X0.237500X0*%
%TD*%
%TA.AperFunction,SMDPad,CuDef*%
%ADD15R,3.600000X1.270000*%
%TD*%
%TA.AperFunction,SMDPad,CuDef*%
%ADD16R,4.200000X1.350000*%
%TD*%
%TA.AperFunction,SMDPad,CuDef*%
%ADD17RoundRect,0.237500X0.250000X0.237500X-0.250000X0.237500X-0.250000X-0.237500X0.250000X-0.237500X0*%
%TD*%
%TA.AperFunction,ComponentPad*%
%ADD18R,3.000000X3.000000*%
%TD*%
%TA.AperFunction,ComponentPad*%
%ADD19C,3.000000*%
%TD*%
%TA.AperFunction,SMDPad,CuDef*%
%ADD20RoundRect,0.237500X-0.250000X-0.237500X0.250000X-0.237500X0.250000X0.237500X-0.250000X0.237500X0*%
%TD*%
%TA.AperFunction,SMDPad,CuDef*%
%ADD21RoundRect,0.250000X0.400000X0.625000X-0.400000X0.625000X-0.400000X-0.625000X0.400000X-0.625000X0*%
%TD*%
%TA.AperFunction,SMDPad,CuDef*%
%ADD22R,0.225000X0.350000*%
%TD*%
%TA.AperFunction,SMDPad,CuDef*%
%ADD23R,0.600000X0.450000*%
%TD*%
%TA.AperFunction,ViaPad*%
%ADD24C,0.500000*%
%TD*%
%TA.AperFunction,Conductor*%
%ADD25C,0.800000*%
%TD*%
G04 APERTURE END LIST*
D10*
%TO.N,Net-(Q1-C)*%
X115196022Y-110136321D02*
X114647312Y-109838480D01*
X115196022Y-109577521D01*
X115196022Y-110136321D01*
%TA.AperFunction,Conductor*%
G36*
X115196022Y-110136321D02*
G01*
X114647312Y-109838480D01*
X115196022Y-109577521D01*
X115196022Y-110136321D01*
G37*
%TD.AperFunction*%
%TO.N,Net-(Q1-B)*%
X113416510Y-109873441D02*
X112867800Y-110134400D01*
X112867800Y-109575600D01*
X113416510Y-109873441D01*
%TA.AperFunction,Conductor*%
G36*
X113416510Y-109873441D02*
G01*
X112867800Y-110134400D01*
X112867800Y-109575600D01*
X113416510Y-109873441D01*
G37*
%TD.AperFunction*%
%TD*%
D11*
%TO.P,C2,1*%
%TO.N,Net-(C2-Pad1)*%
X111606500Y-103124000D03*
%TO.P,C2,2*%
%TO.N,GND*%
X109881500Y-103124000D03*
%TD*%
D12*
%TO.P,R1,1*%
%TO.N,Net-(C2-Pad1)*%
X113994000Y-103124000D03*
%TO.P,R1,2*%
%TO.N,+3.3V*%
X117094000Y-103124000D03*
%TD*%
D13*
%TO.P,C6,1*%
%TO.N,Net-(C6-Pad1)*%
X115369000Y-111760000D03*
%TO.P,C6,2*%
%TO.N,Net-(Q1-C)*%
X117094000Y-111760000D03*
%TD*%
D14*
%TO.P,L1,1,1*%
%TO.N,Net-(Q1-C)*%
X117094000Y-109855000D03*
%TO.P,L1,2,2*%
%TO.N,Net-(C5-Pad1)*%
X118844000Y-109855000D03*
%TD*%
D15*
%TO.P,J2,1,In*%
%TO.N,Net-(J2-In)*%
X127254000Y-109855000D03*
D16*
%TO.P,J2,2,Ext*%
%TO.N,GND*%
X127054000Y-112680000D03*
X127054000Y-107030000D03*
%TD*%
D13*
%TO.P,C5,1*%
%TO.N,Net-(C5-Pad1)*%
X121565500Y-109855000D03*
%TO.P,C5,2*%
%TO.N,Net-(J2-In)*%
X123290500Y-109855000D03*
%TD*%
D17*
%TO.P,R4,1*%
%TO.N,Net-(C6-Pad1)*%
X112672500Y-111760000D03*
%TO.P,R4,2*%
%TO.N,Net-(Q1-B)*%
X110847500Y-111760000D03*
%TD*%
D15*
%TO.P,J1,1,In*%
%TO.N,Net-(J1-In)*%
X102616000Y-109855000D03*
D16*
%TO.P,J1,2,Ext*%
%TO.N,GND*%
X102816000Y-107030000D03*
X102816000Y-112680000D03*
%TD*%
D18*
%TO.P,J3,1,Pin_1*%
%TO.N,+3.3V*%
X117080000Y-96000000D03*
D19*
%TO.P,J3,2,Pin_2*%
%TO.N,GND*%
X112000000Y-96000000D03*
%TD*%
D13*
%TO.P,C1,1*%
%TO.N,Net-(J1-In)*%
X108104000Y-109855000D03*
%TO.P,C1,2*%
%TO.N,Net-(Q1-B)*%
X109829000Y-109855000D03*
%TD*%
D14*
%TO.P,L2,1,1*%
%TO.N,Net-(C5-Pad1)*%
X121553000Y-112014000D03*
%TO.P,L2,2,2*%
%TO.N,Net-(C4-Pad2)*%
X123303000Y-112014000D03*
%TD*%
D20*
%TO.P,R2,1*%
%TO.N,Net-(Q1-B)*%
X109831500Y-106172000D03*
%TO.P,R2,2*%
%TO.N,Net-(C2-Pad1)*%
X111656500Y-106172000D03*
%TD*%
D13*
%TO.P,C4,1*%
%TO.N,GND*%
X121539000Y-114300000D03*
%TO.P,C4,2*%
%TO.N,Net-(C4-Pad2)*%
X123264000Y-114300000D03*
%TD*%
D11*
%TO.P,C3,1*%
%TO.N,GND*%
X123290500Y-106045000D03*
%TO.P,C3,2*%
%TO.N,Net-(Q1-C)*%
X121565500Y-106045000D03*
%TD*%
D21*
%TO.P,R3,1*%
%TO.N,Net-(Q1-C)*%
X117094000Y-106045000D03*
%TO.P,R3,2*%
%TO.N,Net-(C2-Pad1)*%
X113994000Y-106045000D03*
%TD*%
D22*
%TO.P,Q1,1,B*%
%TO.N,Net-(Q1-B)*%
X113874100Y-109855000D03*
%TO.P,Q1,2,C*%
%TO.N,Net-(Q1-C)*%
X114248600Y-109855000D03*
D23*
%TO.P,Q1,3,E*%
%TO.N,GND*%
X114061600Y-109255000D03*
%TD*%
D24*
%TO.N,GND*%
X105500000Y-111000000D03*
X120500000Y-111000000D03*
X119000000Y-105000000D03*
X113500000Y-107500000D03*
X103500000Y-108600000D03*
X108500000Y-107500000D03*
X115200000Y-109000000D03*
X126000000Y-111000000D03*
X118000000Y-100500000D03*
X116200000Y-108000000D03*
X111500000Y-104250000D03*
X114500000Y-113000000D03*
X118000000Y-98500000D03*
X127000000Y-108600000D03*
X102500000Y-111000000D03*
X122000000Y-105000000D03*
X118500000Y-112000000D03*
X115500000Y-101500000D03*
X120000000Y-105000000D03*
X115500000Y-105500000D03*
X118500000Y-113000000D03*
X117500000Y-113000000D03*
X107500000Y-108600000D03*
X101500000Y-108600000D03*
X113000000Y-110750000D03*
X119500000Y-111000000D03*
X113500000Y-101500000D03*
X112500000Y-113000000D03*
X123500000Y-108600000D03*
X101500000Y-111000000D03*
X111000000Y-108000000D03*
X114000000Y-110750000D03*
X111500000Y-102000000D03*
X114500000Y-101500000D03*
X108500000Y-111000000D03*
X119500000Y-108600000D03*
X115500000Y-113000000D03*
X112500000Y-102000000D03*
X118500000Y-111000000D03*
X116200000Y-109000000D03*
X106500000Y-111000000D03*
X117000000Y-104500000D03*
X108500000Y-105500000D03*
X126000000Y-108600000D03*
X124500000Y-111000000D03*
X127000000Y-111000000D03*
X105500000Y-108600000D03*
X109500000Y-112000000D03*
X113500000Y-113000000D03*
X108500000Y-106500000D03*
X106500000Y-108600000D03*
X118500000Y-103500000D03*
X121500000Y-108600000D03*
X112000000Y-110750000D03*
X115500000Y-106500000D03*
X120500000Y-112000000D03*
X121500000Y-107000000D03*
X122500000Y-108600000D03*
X118500000Y-107500000D03*
X107500000Y-111000000D03*
X112500000Y-107500000D03*
X116500000Y-113000000D03*
X108500000Y-108600000D03*
X115500000Y-107500000D03*
X116000000Y-99500000D03*
X120500000Y-108600000D03*
X102500000Y-108600000D03*
X111000000Y-107000000D03*
X104500000Y-108600000D03*
X113000000Y-109000000D03*
X116000000Y-100500000D03*
X109500000Y-111000000D03*
X111000000Y-109000000D03*
X116000000Y-98500000D03*
X119500000Y-107000000D03*
X104500000Y-111000000D03*
X121000000Y-105000000D03*
X112000000Y-109000000D03*
X109500000Y-113000000D03*
X118500000Y-108600000D03*
X118000000Y-101500000D03*
X118000000Y-104500000D03*
X111500000Y-113000000D03*
X124500000Y-108600000D03*
X128000000Y-111000000D03*
X118000000Y-99500000D03*
X120500000Y-107000000D03*
X115500000Y-102500000D03*
X116000000Y-110750000D03*
X115000000Y-110750000D03*
X111500000Y-105000000D03*
X114500000Y-107500000D03*
X110500000Y-105000000D03*
X103500000Y-111000000D03*
X118500000Y-102500000D03*
X109500000Y-105000000D03*
X128000000Y-108600000D03*
X110500000Y-113000000D03*
X115500000Y-103500000D03*
%TD*%
D25*
%TO.N,Net-(Q1-B)*%
X109831500Y-106172000D02*
X109831500Y-109852500D01*
X111604000Y-109858000D02*
X111607000Y-109855000D01*
X111099000Y-109855000D02*
X111607000Y-109855000D01*
X109831500Y-109852500D02*
X109829000Y-109855000D01*
X110847500Y-111760000D02*
X110847500Y-110106500D01*
X110847500Y-110106500D02*
X111099000Y-109855000D01*
X111607000Y-109855000D02*
X112750000Y-109855000D01*
D10*
X113874100Y-109855000D02*
X112750000Y-109855000D01*
D25*
X111099000Y-109855000D02*
X109829000Y-109855000D01*
%TO.N,Net-(J1-In)*%
X108104000Y-109855000D02*
X102616000Y-109855000D01*
%TO.N,Net-(C2-Pad1)*%
X112776000Y-103124000D02*
X113994000Y-103124000D01*
X112776000Y-103124000D02*
X112776000Y-106070400D01*
X112674400Y-106172000D02*
X113867000Y-106172000D01*
X111606500Y-103124000D02*
X112776000Y-103124000D01*
X111656500Y-106172000D02*
X112674400Y-106172000D01*
X112776000Y-106070400D02*
X112674400Y-106172000D01*
X113867000Y-106172000D02*
X113994000Y-106045000D01*
%TO.N,Net-(Q1-C)*%
X117094000Y-106045000D02*
X121565500Y-106045000D01*
X115315400Y-109855000D02*
X117094000Y-109855000D01*
X117094000Y-109855000D02*
X117094000Y-106045000D01*
X117094000Y-111760000D02*
X117094000Y-109855000D01*
D10*
X114248600Y-109855000D02*
X115315400Y-109855000D01*
D25*
%TO.N,Net-(C4-Pad2)*%
X123303000Y-112014000D02*
X123303000Y-114261000D01*
X123303000Y-114261000D02*
X123264000Y-114300000D01*
%TO.N,Net-(C5-Pad1)*%
X121565500Y-112001500D02*
X121553000Y-112014000D01*
X121565500Y-109855000D02*
X121565500Y-112001500D01*
X118844000Y-109855000D02*
X121565500Y-109855000D01*
%TO.N,Net-(J2-In)*%
X123290500Y-109855000D02*
X127254000Y-109855000D01*
%TO.N,Net-(C6-Pad1)*%
X115369000Y-111760000D02*
X112672500Y-111760000D01*
%TO.N,+3.3V*%
X117094000Y-96014000D02*
X117080000Y-96000000D01*
X117094000Y-103124000D02*
X117094000Y-96014000D01*
%TD*%
%TA.AperFunction,Conductor*%
%TO.N,GND*%
G36*
X118028929Y-110211700D02*
G01*
X118116854Y-110253031D01*
X118169345Y-110305520D01*
X118243287Y-110405709D01*
X118243290Y-110405712D01*
X118317233Y-110460284D01*
X118349525Y-110484116D01*
X118474151Y-110527725D01*
X118503738Y-110530499D01*
X118503742Y-110530500D01*
X118503744Y-110530500D01*
X119184258Y-110530500D01*
X119184260Y-110530499D01*
X119213849Y-110527725D01*
X119338475Y-110484116D01*
X119338475Y-110484115D01*
X119356087Y-110477953D01*
X119356408Y-110478871D01*
X119431125Y-110456588D01*
X119454372Y-110455500D01*
X120716000Y-110455500D01*
X120811288Y-110474454D01*
X120892070Y-110528430D01*
X120946046Y-110609212D01*
X120965000Y-110704500D01*
X120965000Y-111364131D01*
X120946046Y-111459419D01*
X120916345Y-111511992D01*
X120873884Y-111569524D01*
X120830274Y-111694153D01*
X120827500Y-111723735D01*
X120827500Y-112304264D01*
X120830274Y-112333846D01*
X120873883Y-112458474D01*
X120952287Y-112564709D01*
X120952290Y-112564712D01*
X121058525Y-112643116D01*
X121183151Y-112686725D01*
X121212738Y-112689499D01*
X121212742Y-112689500D01*
X121212744Y-112689500D01*
X121893258Y-112689500D01*
X121893260Y-112689499D01*
X121922849Y-112686725D01*
X122047475Y-112643116D01*
X122153711Y-112564711D01*
X122227654Y-112464521D01*
X122299487Y-112399107D01*
X122390886Y-112366162D01*
X122487935Y-112370701D01*
X122575859Y-112412034D01*
X122628346Y-112464521D01*
X122653846Y-112499073D01*
X122695179Y-112586997D01*
X122702500Y-112646932D01*
X122702500Y-113597287D01*
X122683546Y-113692575D01*
X122653845Y-113745147D01*
X122572384Y-113855522D01*
X122528774Y-113980153D01*
X122526000Y-114009735D01*
X122526000Y-114590264D01*
X122528774Y-114619846D01*
X122572383Y-114744474D01*
X122650787Y-114850709D01*
X122650789Y-114850711D01*
X122757025Y-114929116D01*
X122881651Y-114972725D01*
X122911238Y-114975499D01*
X122911242Y-114975500D01*
X122911244Y-114975500D01*
X123616758Y-114975500D01*
X123616760Y-114975499D01*
X123646349Y-114972725D01*
X123770975Y-114929116D01*
X123877211Y-114850711D01*
X123955616Y-114744475D01*
X123999225Y-114619849D01*
X124002000Y-114590256D01*
X124002000Y-114009744D01*
X123999225Y-113980151D01*
X123955616Y-113855525D01*
X123955614Y-113855522D01*
X123955614Y-113855521D01*
X123952151Y-113850829D01*
X123910820Y-113762904D01*
X123903500Y-113702974D01*
X123903500Y-112646932D01*
X123922454Y-112551644D01*
X123952155Y-112499071D01*
X123982116Y-112458475D01*
X123991126Y-112432725D01*
X124025725Y-112333849D01*
X124028500Y-112304256D01*
X124028500Y-111723744D01*
X124025725Y-111694151D01*
X123982116Y-111569525D01*
X123908475Y-111469744D01*
X123903712Y-111463290D01*
X123903709Y-111463287D01*
X123797474Y-111384883D01*
X123672846Y-111341274D01*
X123643264Y-111338500D01*
X123643256Y-111338500D01*
X122962744Y-111338500D01*
X122962735Y-111338500D01*
X122933153Y-111341274D01*
X122808525Y-111384883D01*
X122702290Y-111463287D01*
X122702285Y-111463292D01*
X122628344Y-111563480D01*
X122556510Y-111628893D01*
X122465111Y-111661838D01*
X122368062Y-111657298D01*
X122280138Y-111615964D01*
X122227647Y-111563470D01*
X122222525Y-111556529D01*
X122214647Y-111545854D01*
X122173318Y-111457928D01*
X122166000Y-111398004D01*
X122166000Y-110504869D01*
X122184954Y-110409581D01*
X122214647Y-110357019D01*
X122214705Y-110356940D01*
X122227650Y-110339400D01*
X122299477Y-110273986D01*
X122390874Y-110241037D01*
X122487923Y-110245572D01*
X122575849Y-110286901D01*
X122628345Y-110339394D01*
X122677287Y-110405709D01*
X122677290Y-110405712D01*
X122751233Y-110460284D01*
X122783525Y-110484116D01*
X122908151Y-110527725D01*
X122937738Y-110530499D01*
X122937742Y-110530500D01*
X122937744Y-110530500D01*
X123643258Y-110530500D01*
X123643260Y-110530499D01*
X123672849Y-110527725D01*
X123797475Y-110484116D01*
X123797475Y-110484115D01*
X123815087Y-110477953D01*
X123815408Y-110478871D01*
X123890125Y-110456588D01*
X123913372Y-110455500D01*
X125056716Y-110455500D01*
X125152004Y-110474454D01*
X125232786Y-110528430D01*
X125263751Y-110566162D01*
X125265132Y-110568229D01*
X125265133Y-110568231D01*
X125309448Y-110634552D01*
X125309451Y-110634554D01*
X125375767Y-110678866D01*
X125375769Y-110678867D01*
X125434252Y-110690500D01*
X125434255Y-110690500D01*
X129073745Y-110690500D01*
X129073748Y-110690500D01*
X129132231Y-110678867D01*
X129132235Y-110678863D01*
X129154888Y-110669482D01*
X129156644Y-110673723D01*
X129202267Y-110654792D01*
X129299422Y-110654731D01*
X129389205Y-110691853D01*
X129457948Y-110760508D01*
X129495185Y-110850244D01*
X129500000Y-110898977D01*
X129500000Y-115014092D01*
X129481046Y-115109380D01*
X129427070Y-115190162D01*
X129346288Y-115244138D01*
X129251000Y-115263092D01*
X129155712Y-115244138D01*
X129074933Y-115190164D01*
X129069263Y-115184494D01*
X128807192Y-114975500D01*
X128796996Y-114967369D01*
X128502143Y-114782100D01*
X128502139Y-114782098D01*
X128502133Y-114782094D01*
X128502123Y-114782089D01*
X128502119Y-114782087D01*
X128188373Y-114630995D01*
X127951659Y-114548166D01*
X127859681Y-114515982D01*
X127859683Y-114515982D01*
X127520172Y-114438491D01*
X127174132Y-114399500D01*
X127174120Y-114399500D01*
X126825880Y-114399500D01*
X126825867Y-114399500D01*
X126479827Y-114438491D01*
X126140318Y-114515982D01*
X125811626Y-114630995D01*
X125497880Y-114782087D01*
X125497856Y-114782100D01*
X125203003Y-114967369D01*
X124930740Y-115184491D01*
X124684491Y-115430740D01*
X124467369Y-115703003D01*
X124282100Y-115997856D01*
X124282087Y-115997880D01*
X124130995Y-116311626D01*
X124015982Y-116640318D01*
X123938491Y-116979827D01*
X123899500Y-117325867D01*
X123899500Y-117674132D01*
X123938491Y-118020172D01*
X124015982Y-118359681D01*
X124130995Y-118688373D01*
X124130998Y-118688379D01*
X124282094Y-119002133D01*
X124282098Y-119002139D01*
X124282100Y-119002143D01*
X124355227Y-119118524D01*
X124389875Y-119209291D01*
X124387150Y-119306408D01*
X124347468Y-119395089D01*
X124276869Y-119461834D01*
X124186102Y-119496482D01*
X124144393Y-119500000D01*
X105855607Y-119500000D01*
X105760319Y-119481046D01*
X105679537Y-119427070D01*
X105625561Y-119346288D01*
X105606607Y-119251000D01*
X105625561Y-119155712D01*
X105644773Y-119118524D01*
X105677377Y-119066634D01*
X105717906Y-119002133D01*
X105869002Y-118688379D01*
X105984018Y-118359681D01*
X106061509Y-118020171D01*
X106100500Y-117674120D01*
X106100500Y-117325880D01*
X106061509Y-116979829D01*
X105984018Y-116640319D01*
X105869002Y-116311621D01*
X105717906Y-115997867D01*
X105532630Y-115703003D01*
X105315506Y-115430737D01*
X105069263Y-115184494D01*
X104807192Y-114975500D01*
X104796996Y-114967369D01*
X104502143Y-114782100D01*
X104502139Y-114782098D01*
X104502133Y-114782094D01*
X104502123Y-114782089D01*
X104502119Y-114782087D01*
X104188373Y-114630995D01*
X103951659Y-114548166D01*
X103859681Y-114515982D01*
X103859683Y-114515982D01*
X103520172Y-114438491D01*
X103174132Y-114399500D01*
X103174120Y-114399500D01*
X102825880Y-114399500D01*
X102825867Y-114399500D01*
X102479827Y-114438491D01*
X102140318Y-114515982D01*
X101811626Y-114630995D01*
X101497880Y-114782087D01*
X101497856Y-114782100D01*
X101203003Y-114967369D01*
X100930740Y-115184491D01*
X100930737Y-115184493D01*
X100930737Y-115184494D01*
X100925066Y-115190164D01*
X100844288Y-115244138D01*
X100749000Y-115263092D01*
X100653712Y-115244138D01*
X100572930Y-115190162D01*
X100518954Y-115109380D01*
X100500000Y-115014092D01*
X100500000Y-110934979D01*
X100518954Y-110839691D01*
X100572930Y-110758909D01*
X100653712Y-110704933D01*
X100749000Y-110685979D01*
X100784066Y-110689432D01*
X100784079Y-110689301D01*
X100796252Y-110690500D01*
X104435745Y-110690500D01*
X104435748Y-110690500D01*
X104494231Y-110678867D01*
X104560552Y-110634552D01*
X104604867Y-110568231D01*
X104604867Y-110568229D01*
X104606249Y-110566162D01*
X104674948Y-110497464D01*
X104764707Y-110460284D01*
X104813284Y-110455500D01*
X107481128Y-110455500D01*
X107576416Y-110474454D01*
X107596806Y-110484039D01*
X107597024Y-110484115D01*
X107597025Y-110484116D01*
X107721651Y-110527725D01*
X107751238Y-110530499D01*
X107751242Y-110530500D01*
X107751244Y-110530500D01*
X108456758Y-110530500D01*
X108456760Y-110530499D01*
X108486349Y-110527725D01*
X108610975Y-110484116D01*
X108717211Y-110405711D01*
X108766155Y-110339394D01*
X108837988Y-110273981D01*
X108929386Y-110241036D01*
X109026435Y-110245576D01*
X109114360Y-110286909D01*
X109166846Y-110339395D01*
X109215787Y-110405709D01*
X109215790Y-110405712D01*
X109289733Y-110460284D01*
X109322025Y-110484116D01*
X109446651Y-110527725D01*
X109476238Y-110530499D01*
X109476242Y-110530500D01*
X109998000Y-110530500D01*
X110093288Y-110549454D01*
X110174070Y-110603430D01*
X110228046Y-110684212D01*
X110247000Y-110779500D01*
X110247000Y-111177878D01*
X110228046Y-111273166D01*
X110213705Y-111298551D01*
X110214604Y-111299026D01*
X110205884Y-111315524D01*
X110162274Y-111440154D01*
X110159500Y-111469735D01*
X110159500Y-112050264D01*
X110162274Y-112079846D01*
X110205883Y-112204474D01*
X110284287Y-112310709D01*
X110284290Y-112310712D01*
X110359423Y-112366162D01*
X110390525Y-112389116D01*
X110515151Y-112432725D01*
X110544738Y-112435499D01*
X110544742Y-112435500D01*
X110544744Y-112435500D01*
X111150258Y-112435500D01*
X111150260Y-112435499D01*
X111179849Y-112432725D01*
X111304475Y-112389116D01*
X111410711Y-112310711D01*
X111489116Y-112204475D01*
X111524973Y-112102000D01*
X111574335Y-112018322D01*
X111651963Y-111959901D01*
X111746039Y-111935634D01*
X111842240Y-111949215D01*
X111925920Y-111998577D01*
X111984341Y-112076205D01*
X111995027Y-112102002D01*
X112030883Y-112204474D01*
X112109287Y-112310709D01*
X112109290Y-112310712D01*
X112184423Y-112366162D01*
X112215525Y-112389116D01*
X112340151Y-112432725D01*
X112369738Y-112435499D01*
X112369742Y-112435500D01*
X112369744Y-112435500D01*
X112975258Y-112435500D01*
X112975260Y-112435499D01*
X113004849Y-112432725D01*
X113129475Y-112389116D01*
X113129475Y-112389115D01*
X113147087Y-112382953D01*
X113147408Y-112383871D01*
X113222125Y-112361588D01*
X113245372Y-112360500D01*
X114746128Y-112360500D01*
X114841416Y-112379454D01*
X114861806Y-112389039D01*
X114862024Y-112389115D01*
X114862025Y-112389116D01*
X114986651Y-112432725D01*
X115016238Y-112435499D01*
X115016242Y-112435500D01*
X115016244Y-112435500D01*
X115721758Y-112435500D01*
X115721760Y-112435499D01*
X115751349Y-112432725D01*
X115875975Y-112389116D01*
X115982211Y-112310711D01*
X116031154Y-112244395D01*
X116102988Y-112178981D01*
X116194386Y-112146036D01*
X116291435Y-112150576D01*
X116379360Y-112191909D01*
X116431846Y-112244395D01*
X116480787Y-112310709D01*
X116480790Y-112310712D01*
X116555923Y-112366162D01*
X116587025Y-112389116D01*
X116711651Y-112432725D01*
X116741238Y-112435499D01*
X116741242Y-112435500D01*
X116741244Y-112435500D01*
X117446758Y-112435500D01*
X117446760Y-112435499D01*
X117476349Y-112432725D01*
X117600975Y-112389116D01*
X117707211Y-112310711D01*
X117785616Y-112204475D01*
X117829225Y-112079849D01*
X117832000Y-112050256D01*
X117832000Y-111469744D01*
X117829225Y-111440151D01*
X117785616Y-111315525D01*
X117743154Y-111257991D01*
X117701821Y-111170068D01*
X117694500Y-111110131D01*
X117694500Y-110487932D01*
X117713454Y-110392644D01*
X117743151Y-110340077D01*
X117750195Y-110330531D01*
X117768655Y-110305520D01*
X117840482Y-110240109D01*
X117931880Y-110207162D01*
X118028929Y-110211700D01*
G37*
%TD.AperFunction*%
%TA.AperFunction,Conductor*%
G36*
X113678557Y-110168326D02*
G01*
X113678825Y-110166983D01*
X113720270Y-110175226D01*
X113746778Y-110180499D01*
X113746779Y-110180500D01*
X113746780Y-110180500D01*
X114001421Y-110180500D01*
X114001421Y-110180499D01*
X114010517Y-110178690D01*
X114012767Y-110178243D01*
X114109918Y-110178240D01*
X114109930Y-110178242D01*
X114109933Y-110178243D01*
X114112992Y-110178851D01*
X114121278Y-110180499D01*
X114121279Y-110180500D01*
X114121280Y-110180500D01*
X114375921Y-110180500D01*
X114375921Y-110180499D01*
X114409116Y-110173896D01*
X114443875Y-110166983D01*
X114444142Y-110168326D01*
X114508622Y-110155500D01*
X114527744Y-110155500D01*
X114623032Y-110174454D01*
X114646530Y-110185660D01*
X114694504Y-110211700D01*
X115050282Y-110404817D01*
X115112418Y-110430159D01*
X115136239Y-110432366D01*
X115177696Y-110439785D01*
X115236343Y-110455500D01*
X116244500Y-110455500D01*
X116339788Y-110474454D01*
X116420570Y-110528430D01*
X116474546Y-110609212D01*
X116493500Y-110704500D01*
X116493500Y-111110131D01*
X116474546Y-111205419D01*
X116444843Y-111257994D01*
X116431843Y-111275608D01*
X116360008Y-111341021D01*
X116268609Y-111373964D01*
X116171560Y-111369423D01*
X116083637Y-111328088D01*
X116031154Y-111275605D01*
X115982212Y-111209290D01*
X115982209Y-111209287D01*
X115875974Y-111130883D01*
X115751346Y-111087274D01*
X115721764Y-111084500D01*
X115721756Y-111084500D01*
X115016244Y-111084500D01*
X115016235Y-111084500D01*
X114986654Y-111087274D01*
X114986651Y-111087274D01*
X114986651Y-111087275D01*
X114862025Y-111130884D01*
X114862024Y-111130884D01*
X114844413Y-111137047D01*
X114844091Y-111136128D01*
X114769375Y-111158412D01*
X114746128Y-111159500D01*
X113245372Y-111159500D01*
X113150084Y-111140546D01*
X113129693Y-111130960D01*
X113070167Y-111110131D01*
X113004849Y-111087275D01*
X113004847Y-111087274D01*
X113004845Y-111087274D01*
X112975264Y-111084500D01*
X112975256Y-111084500D01*
X112369744Y-111084500D01*
X112369735Y-111084500D01*
X112340153Y-111087274D01*
X112215525Y-111130883D01*
X112109290Y-111209287D01*
X112109287Y-111209290D01*
X112030882Y-111315526D01*
X111995025Y-111417999D01*
X111945662Y-111501679D01*
X111868034Y-111560099D01*
X111773958Y-111584365D01*
X111677757Y-111570783D01*
X111594077Y-111521420D01*
X111535657Y-111443792D01*
X111524975Y-111418004D01*
X111489116Y-111315525D01*
X111489114Y-111315522D01*
X111480396Y-111299026D01*
X111483359Y-111297459D01*
X111455317Y-111237797D01*
X111448000Y-111177878D01*
X111448000Y-110707501D01*
X111466954Y-110612213D01*
X111520930Y-110531431D01*
X111601712Y-110477455D01*
X111667374Y-110464393D01*
X111666879Y-110460631D01*
X111689676Y-110457630D01*
X111722174Y-110455500D01*
X112829054Y-110455500D01*
X112829057Y-110455500D01*
X112884675Y-110440596D01*
X112884773Y-110440571D01*
X112890484Y-110439056D01*
X112890486Y-110439057D01*
X112970783Y-110417771D01*
X112999002Y-110410291D01*
X112999003Y-110410290D01*
X112999009Y-110410289D01*
X113483998Y-110179634D01*
X113578191Y-110155827D01*
X113590941Y-110155500D01*
X113614076Y-110155500D01*
X113678557Y-110168326D01*
G37*
%TD.AperFunction*%
%TA.AperFunction,Conductor*%
G36*
X124239681Y-90518954D02*
G01*
X124320463Y-90572930D01*
X124374439Y-90653712D01*
X124393393Y-90749000D01*
X124374439Y-90844288D01*
X124355227Y-90881476D01*
X124282100Y-90997856D01*
X124282087Y-90997880D01*
X124130995Y-91311626D01*
X124015982Y-91640318D01*
X123938491Y-91979827D01*
X123899500Y-92325867D01*
X123899500Y-92674132D01*
X123938491Y-93020172D01*
X124015982Y-93359681D01*
X124130995Y-93688373D01*
X124130998Y-93688379D01*
X124282094Y-94002133D01*
X124282098Y-94002139D01*
X124282100Y-94002143D01*
X124467369Y-94296996D01*
X124513983Y-94355448D01*
X124684494Y-94569263D01*
X124930737Y-94815506D01*
X125203003Y-95032630D01*
X125497867Y-95217906D01*
X125811621Y-95369002D01*
X125811624Y-95369003D01*
X125811626Y-95369004D01*
X125877455Y-95392038D01*
X126140319Y-95484018D01*
X126479829Y-95561509D01*
X126696106Y-95585877D01*
X126825867Y-95600499D01*
X126825880Y-95600500D01*
X127174120Y-95600500D01*
X127174132Y-95600499D01*
X127272434Y-95589422D01*
X127520171Y-95561509D01*
X127859681Y-95484018D01*
X128188379Y-95369002D01*
X128502133Y-95217906D01*
X128796997Y-95032630D01*
X129069263Y-94815506D01*
X129074933Y-94809835D01*
X129155712Y-94755862D01*
X129251000Y-94736908D01*
X129346288Y-94755862D01*
X129427070Y-94809838D01*
X129481046Y-94890620D01*
X129500000Y-94985908D01*
X129500000Y-108811022D01*
X129481046Y-108906310D01*
X129427070Y-108987092D01*
X129346288Y-109041068D01*
X129251000Y-109060022D01*
X129155712Y-109041068D01*
X129153975Y-109040139D01*
X129132233Y-109031134D01*
X129132232Y-109031133D01*
X129132231Y-109031133D01*
X129073748Y-109019500D01*
X125434252Y-109019500D01*
X125399162Y-109026479D01*
X125375767Y-109031133D01*
X125309451Y-109075445D01*
X125309446Y-109075450D01*
X125263751Y-109143838D01*
X125195052Y-109212536D01*
X125105293Y-109249716D01*
X125056716Y-109254500D01*
X123913372Y-109254500D01*
X123818084Y-109235546D01*
X123797693Y-109225960D01*
X123746009Y-109207875D01*
X123672849Y-109182275D01*
X123672847Y-109182274D01*
X123672845Y-109182274D01*
X123643264Y-109179500D01*
X123643256Y-109179500D01*
X122937744Y-109179500D01*
X122937735Y-109179500D01*
X122908153Y-109182274D01*
X122783525Y-109225883D01*
X122677290Y-109304287D01*
X122677285Y-109304292D01*
X122628345Y-109370605D01*
X122556511Y-109436018D01*
X122465112Y-109468963D01*
X122368063Y-109464423D01*
X122280139Y-109423089D01*
X122227655Y-109370605D01*
X122178714Y-109304292D01*
X122178709Y-109304287D01*
X122072474Y-109225883D01*
X121947846Y-109182274D01*
X121918264Y-109179500D01*
X121918256Y-109179500D01*
X121212744Y-109179500D01*
X121212735Y-109179500D01*
X121183154Y-109182274D01*
X121183151Y-109182274D01*
X121183151Y-109182275D01*
X121058525Y-109225884D01*
X121058524Y-109225884D01*
X121040913Y-109232047D01*
X121040591Y-109231128D01*
X120965875Y-109253412D01*
X120942628Y-109254500D01*
X119454372Y-109254500D01*
X119359084Y-109235546D01*
X119338693Y-109225960D01*
X119287009Y-109207875D01*
X119213849Y-109182275D01*
X119213847Y-109182274D01*
X119213845Y-109182274D01*
X119184264Y-109179500D01*
X119184256Y-109179500D01*
X118503744Y-109179500D01*
X118503735Y-109179500D01*
X118474153Y-109182274D01*
X118349525Y-109225883D01*
X118243290Y-109304287D01*
X118243285Y-109304292D01*
X118169344Y-109404480D01*
X118097510Y-109469893D01*
X118006111Y-109502838D01*
X117909062Y-109498298D01*
X117821138Y-109456964D01*
X117768650Y-109404474D01*
X117743151Y-109369922D01*
X117701820Y-109281997D01*
X117694500Y-109222067D01*
X117694500Y-107207632D01*
X117713454Y-107112344D01*
X117767430Y-107031562D01*
X117795630Y-107007293D01*
X117816150Y-106992150D01*
X117896793Y-106882882D01*
X117921504Y-106812259D01*
X117970865Y-106728580D01*
X118048493Y-106670159D01*
X118142568Y-106645892D01*
X118156531Y-106645500D01*
X120942628Y-106645500D01*
X121037916Y-106664454D01*
X121058306Y-106674039D01*
X121058524Y-106674115D01*
X121058525Y-106674116D01*
X121183151Y-106717725D01*
X121212738Y-106720499D01*
X121212742Y-106720500D01*
X121212744Y-106720500D01*
X121918258Y-106720500D01*
X121918260Y-106720499D01*
X121947849Y-106717725D01*
X122072475Y-106674116D01*
X122178711Y-106595711D01*
X122257116Y-106489475D01*
X122300725Y-106364849D01*
X122303500Y-106335256D01*
X122303500Y-105754744D01*
X122300725Y-105725151D01*
X122257116Y-105600525D01*
X122235695Y-105571500D01*
X122178712Y-105494290D01*
X122178709Y-105494287D01*
X122072474Y-105415883D01*
X121947846Y-105372274D01*
X121918264Y-105369500D01*
X121918256Y-105369500D01*
X121212744Y-105369500D01*
X121212735Y-105369500D01*
X121183154Y-105372274D01*
X121183151Y-105372274D01*
X121183151Y-105372275D01*
X121058525Y-105415884D01*
X121058524Y-105415884D01*
X121040913Y-105422047D01*
X121040591Y-105421128D01*
X120965875Y-105443412D01*
X120942628Y-105444500D01*
X118156531Y-105444500D01*
X118061243Y-105425546D01*
X117980461Y-105371570D01*
X117926485Y-105290788D01*
X117921504Y-105277739D01*
X117896793Y-105207119D01*
X117896793Y-105207118D01*
X117816150Y-105097850D01*
X117706882Y-105017207D01*
X117706880Y-105017206D01*
X117651898Y-104997967D01*
X117578699Y-104972354D01*
X117578697Y-104972353D01*
X117578695Y-104972353D01*
X117548273Y-104969500D01*
X117548266Y-104969500D01*
X116639734Y-104969500D01*
X116639726Y-104969500D01*
X116609304Y-104972353D01*
X116481119Y-105017206D01*
X116481116Y-105017208D01*
X116371853Y-105097847D01*
X116371847Y-105097853D01*
X116291208Y-105207116D01*
X116291206Y-105207119D01*
X116246353Y-105335304D01*
X116243500Y-105365726D01*
X116243500Y-106724273D01*
X116246353Y-106754695D01*
X116246353Y-106754697D01*
X116246354Y-106754699D01*
X116260761Y-106795871D01*
X116287972Y-106873639D01*
X116291207Y-106882882D01*
X116371850Y-106992150D01*
X116392362Y-107007288D01*
X116457773Y-107079119D01*
X116490718Y-107170518D01*
X116493500Y-107207632D01*
X116493500Y-109005500D01*
X116474546Y-109100788D01*
X116420570Y-109181570D01*
X116339788Y-109235546D01*
X116244500Y-109254500D01*
X115236343Y-109254500D01*
X115075822Y-109297511D01*
X115075587Y-109297590D01*
X115075617Y-109297670D01*
X115064806Y-109301634D01*
X114598374Y-109523463D01*
X114504182Y-109547271D01*
X114442856Y-109542814D01*
X114375921Y-109529500D01*
X114375920Y-109529500D01*
X114121280Y-109529500D01*
X114121272Y-109529500D01*
X114109923Y-109531758D01*
X114012777Y-109531758D01*
X114001427Y-109529500D01*
X114001420Y-109529500D01*
X113746780Y-109529500D01*
X113746777Y-109529500D01*
X113678825Y-109543017D01*
X113678557Y-109541673D01*
X113614078Y-109554500D01*
X113532539Y-109554500D01*
X113437251Y-109535546D01*
X113413753Y-109524340D01*
X113227213Y-109423086D01*
X113013540Y-109307104D01*
X113013534Y-109307101D01*
X113013525Y-109307097D01*
X112951405Y-109281762D01*
X112951396Y-109281760D01*
X112940957Y-109280793D01*
X112899492Y-109273372D01*
X112829059Y-109254500D01*
X112829057Y-109254500D01*
X111701335Y-109254500D01*
X111701319Y-109254499D01*
X111686058Y-109254499D01*
X111527943Y-109254499D01*
X111512682Y-109254499D01*
X111512666Y-109254500D01*
X111193335Y-109254500D01*
X111193319Y-109254499D01*
X111178058Y-109254499D01*
X111019943Y-109254499D01*
X111004682Y-109254499D01*
X111004666Y-109254500D01*
X110681000Y-109254500D01*
X110585712Y-109235546D01*
X110504930Y-109181570D01*
X110450954Y-109100788D01*
X110432000Y-109005500D01*
X110432000Y-106754120D01*
X110450954Y-106658832D01*
X110465297Y-106633445D01*
X110464398Y-106632970D01*
X110473112Y-106616479D01*
X110473116Y-106616475D01*
X110508973Y-106514000D01*
X110558335Y-106430322D01*
X110635963Y-106371901D01*
X110730039Y-106347634D01*
X110826240Y-106361215D01*
X110909920Y-106410577D01*
X110968341Y-106488205D01*
X110979027Y-106514002D01*
X111014883Y-106616474D01*
X111093287Y-106722709D01*
X111093290Y-106722712D01*
X111186433Y-106791454D01*
X111199525Y-106801116D01*
X111324151Y-106844725D01*
X111353738Y-106847499D01*
X111353742Y-106847500D01*
X111353744Y-106847500D01*
X111959258Y-106847500D01*
X111959260Y-106847499D01*
X111988849Y-106844725D01*
X112113475Y-106801116D01*
X112113475Y-106801115D01*
X112131087Y-106794953D01*
X112131408Y-106795871D01*
X112206125Y-106773588D01*
X112229372Y-106772500D01*
X112580066Y-106772500D01*
X112580082Y-106772501D01*
X112595343Y-106772501D01*
X112768718Y-106772501D01*
X112768734Y-106772500D01*
X112984040Y-106772500D01*
X113079328Y-106791454D01*
X113160110Y-106845430D01*
X113184385Y-106873639D01*
X113271847Y-106992146D01*
X113271850Y-106992150D01*
X113381118Y-107072793D01*
X113509301Y-107117646D01*
X113539727Y-107120499D01*
X113539729Y-107120500D01*
X113539734Y-107120500D01*
X114448271Y-107120500D01*
X114448272Y-107120499D01*
X114478699Y-107117646D01*
X114606882Y-107072793D01*
X114716150Y-106992150D01*
X114796793Y-106882882D01*
X114841646Y-106754699D01*
X114844500Y-106724266D01*
X114844500Y-105365734D01*
X114841646Y-105335301D01*
X114796793Y-105207118D01*
X114716150Y-105097850D01*
X114606882Y-105017207D01*
X114606880Y-105017206D01*
X114551898Y-104997967D01*
X114478699Y-104972354D01*
X114478697Y-104972353D01*
X114478695Y-104972353D01*
X114448273Y-104969500D01*
X114448266Y-104969500D01*
X113625500Y-104969500D01*
X113530212Y-104950546D01*
X113449430Y-104896570D01*
X113395454Y-104815788D01*
X113376500Y-104720500D01*
X113376500Y-104448500D01*
X113395454Y-104353212D01*
X113449430Y-104272430D01*
X113530212Y-104218454D01*
X113625500Y-104199500D01*
X114448271Y-104199500D01*
X114448272Y-104199499D01*
X114478699Y-104196646D01*
X114606882Y-104151793D01*
X114716150Y-104071150D01*
X114796793Y-103961882D01*
X114841646Y-103833699D01*
X114844500Y-103803266D01*
X114844500Y-102444734D01*
X114841646Y-102414301D01*
X114796793Y-102286118D01*
X114716150Y-102176850D01*
X114606882Y-102096207D01*
X114606880Y-102096206D01*
X114493848Y-102056655D01*
X114478699Y-102051354D01*
X114478697Y-102051353D01*
X114478695Y-102051353D01*
X114448273Y-102048500D01*
X114448266Y-102048500D01*
X113539734Y-102048500D01*
X113539726Y-102048500D01*
X113509304Y-102051353D01*
X113381119Y-102096206D01*
X113381116Y-102096208D01*
X113271853Y-102176847D01*
X113271847Y-102176853D01*
X113191208Y-102286116D01*
X113191206Y-102286119D01*
X113166496Y-102356739D01*
X113117135Y-102440420D01*
X113039507Y-102498841D01*
X112945432Y-102523108D01*
X112931469Y-102523500D01*
X112229372Y-102523500D01*
X112134084Y-102504546D01*
X112113693Y-102494960D01*
X112062009Y-102476875D01*
X111988849Y-102451275D01*
X111988847Y-102451274D01*
X111988845Y-102451274D01*
X111959264Y-102448500D01*
X111959256Y-102448500D01*
X111253744Y-102448500D01*
X111253735Y-102448500D01*
X111224153Y-102451274D01*
X111099525Y-102494883D01*
X110993290Y-102573287D01*
X110993287Y-102573290D01*
X110914883Y-102679525D01*
X110871274Y-102804153D01*
X110868500Y-102833735D01*
X110868500Y-103414264D01*
X110871274Y-103443846D01*
X110914883Y-103568474D01*
X110993287Y-103674709D01*
X110993289Y-103674711D01*
X111099525Y-103753116D01*
X111224151Y-103796725D01*
X111253738Y-103799499D01*
X111253742Y-103799500D01*
X111926500Y-103799500D01*
X112021788Y-103818454D01*
X112102570Y-103872430D01*
X112156546Y-103953212D01*
X112175500Y-104048500D01*
X112175500Y-105247500D01*
X112156546Y-105342788D01*
X112102570Y-105423570D01*
X112021788Y-105477546D01*
X111926500Y-105496500D01*
X111353735Y-105496500D01*
X111324153Y-105499274D01*
X111199525Y-105542883D01*
X111093290Y-105621287D01*
X111093287Y-105621290D01*
X111014883Y-105727525D01*
X110979027Y-105829997D01*
X110929664Y-105913678D01*
X110852036Y-105972099D01*
X110757961Y-105996365D01*
X110661760Y-105982784D01*
X110578079Y-105933421D01*
X110519658Y-105855793D01*
X110508973Y-105829997D01*
X110473116Y-105727525D01*
X110394712Y-105621290D01*
X110394709Y-105621287D01*
X110288474Y-105542883D01*
X110163846Y-105499274D01*
X110134264Y-105496500D01*
X110134256Y-105496500D01*
X109528744Y-105496500D01*
X109528735Y-105496500D01*
X109499153Y-105499274D01*
X109374525Y-105542883D01*
X109268290Y-105621287D01*
X109268287Y-105621290D01*
X109189883Y-105727525D01*
X109146274Y-105852153D01*
X109143500Y-105881735D01*
X109143500Y-106462264D01*
X109146274Y-106491846D01*
X109189884Y-106616475D01*
X109198602Y-106632970D01*
X109195637Y-106634537D01*
X109223673Y-106694161D01*
X109231000Y-106754120D01*
X109231000Y-109201743D01*
X109212046Y-109297031D01*
X109182342Y-109349608D01*
X109166842Y-109370609D01*
X109095007Y-109436021D01*
X109003607Y-109468964D01*
X108906559Y-109464422D01*
X108818635Y-109423086D01*
X108766155Y-109370605D01*
X108717214Y-109304292D01*
X108717209Y-109304287D01*
X108610974Y-109225883D01*
X108486346Y-109182274D01*
X108456764Y-109179500D01*
X108456756Y-109179500D01*
X107751244Y-109179500D01*
X107751235Y-109179500D01*
X107721654Y-109182274D01*
X107721651Y-109182274D01*
X107721651Y-109182275D01*
X107597025Y-109225884D01*
X107597024Y-109225884D01*
X107579413Y-109232047D01*
X107579091Y-109231128D01*
X107504375Y-109253412D01*
X107481128Y-109254500D01*
X104813284Y-109254500D01*
X104717996Y-109235546D01*
X104637214Y-109181570D01*
X104606249Y-109143838D01*
X104560553Y-109075450D01*
X104560552Y-109075448D01*
X104509100Y-109041068D01*
X104494232Y-109031133D01*
X104479610Y-109028224D01*
X104435748Y-109019500D01*
X100796252Y-109019500D01*
X100796251Y-109019500D01*
X100784079Y-109020699D01*
X100783935Y-109019238D01*
X100700405Y-109019232D01*
X100610648Y-108982046D01*
X100541954Y-108913342D01*
X100504781Y-108823580D01*
X100500000Y-108775020D01*
X100500000Y-96000000D01*
X109994891Y-96000000D01*
X110015301Y-96285364D01*
X110076108Y-96564891D01*
X110076112Y-96564902D01*
X110176087Y-96832947D01*
X110313194Y-97084043D01*
X110313195Y-97084044D01*
X110329066Y-97105245D01*
X111259819Y-96174491D01*
X111269207Y-96221684D01*
X111326497Y-96359995D01*
X111409670Y-96484472D01*
X111515528Y-96590330D01*
X111640005Y-96673503D01*
X111778316Y-96730793D01*
X111825505Y-96740179D01*
X110894753Y-97670932D01*
X110915956Y-97686805D01*
X111167052Y-97823912D01*
X111435097Y-97923887D01*
X111435108Y-97923891D01*
X111714635Y-97984698D01*
X112000000Y-98005108D01*
X112285364Y-97984698D01*
X112564891Y-97923891D01*
X112564902Y-97923887D01*
X112832952Y-97823910D01*
X113084042Y-97686806D01*
X113105245Y-97670932D01*
X112174493Y-96740180D01*
X112221684Y-96730793D01*
X112359995Y-96673503D01*
X112484472Y-96590330D01*
X112590330Y-96484472D01*
X112673503Y-96359995D01*
X112730793Y-96221684D01*
X112740180Y-96174493D01*
X113670932Y-97105245D01*
X113686806Y-97084042D01*
X113823910Y-96832952D01*
X113923887Y-96564902D01*
X113923891Y-96564891D01*
X113984698Y-96285364D01*
X114005108Y-96000000D01*
X113984698Y-95714635D01*
X113923891Y-95435108D01*
X113923887Y-95435097D01*
X113823912Y-95167052D01*
X113686805Y-94915956D01*
X113670932Y-94894753D01*
X112740179Y-95825505D01*
X112730793Y-95778316D01*
X112673503Y-95640005D01*
X112590330Y-95515528D01*
X112484472Y-95409670D01*
X112359995Y-95326497D01*
X112221684Y-95269207D01*
X112174491Y-95259819D01*
X112954059Y-94480252D01*
X115379500Y-94480252D01*
X115379500Y-97519748D01*
X115388224Y-97563610D01*
X115391133Y-97578232D01*
X115435445Y-97644548D01*
X115435448Y-97644552D01*
X115435451Y-97644554D01*
X115501767Y-97688866D01*
X115501769Y-97688867D01*
X115560252Y-97700500D01*
X116244500Y-97700500D01*
X116339788Y-97719454D01*
X116420570Y-97773430D01*
X116474546Y-97854212D01*
X116493500Y-97949500D01*
X116493500Y-101961367D01*
X116474546Y-102056655D01*
X116420570Y-102137437D01*
X116392363Y-102161711D01*
X116371851Y-102176849D01*
X116371847Y-102176853D01*
X116291208Y-102286116D01*
X116291206Y-102286119D01*
X116246353Y-102414304D01*
X116243500Y-102444726D01*
X116243500Y-103803273D01*
X116246353Y-103833695D01*
X116246353Y-103833697D01*
X116246354Y-103833699D01*
X116291207Y-103961882D01*
X116371850Y-104071150D01*
X116481118Y-104151793D01*
X116609301Y-104196646D01*
X116639727Y-104199499D01*
X116639729Y-104199500D01*
X116639734Y-104199500D01*
X117548271Y-104199500D01*
X117548272Y-104199499D01*
X117578699Y-104196646D01*
X117706882Y-104151793D01*
X117816150Y-104071150D01*
X117896793Y-103961882D01*
X117941646Y-103833699D01*
X117944500Y-103803266D01*
X117944500Y-102444734D01*
X117941646Y-102414301D01*
X117896793Y-102286118D01*
X117816150Y-102176850D01*
X117795636Y-102161710D01*
X117730225Y-102089876D01*
X117697281Y-101998477D01*
X117694500Y-101961367D01*
X117694500Y-97949500D01*
X117713454Y-97854212D01*
X117767430Y-97773430D01*
X117848212Y-97719454D01*
X117943500Y-97700500D01*
X118599745Y-97700500D01*
X118599748Y-97700500D01*
X118658231Y-97688867D01*
X118724552Y-97644552D01*
X118768867Y-97578231D01*
X118780500Y-97519748D01*
X118780500Y-94480252D01*
X118768867Y-94421769D01*
X118724552Y-94355448D01*
X118724548Y-94355445D01*
X118658232Y-94311133D01*
X118643610Y-94308224D01*
X118599748Y-94299500D01*
X115560252Y-94299500D01*
X115525162Y-94306479D01*
X115501767Y-94311133D01*
X115435451Y-94355445D01*
X115435445Y-94355451D01*
X115391133Y-94421767D01*
X115391133Y-94421769D01*
X115379500Y-94480252D01*
X112954059Y-94480252D01*
X113105245Y-94329066D01*
X113084044Y-94313195D01*
X113084043Y-94313194D01*
X112832947Y-94176087D01*
X112564902Y-94076112D01*
X112564891Y-94076108D01*
X112285364Y-94015301D01*
X112000000Y-93994891D01*
X111714635Y-94015301D01*
X111435108Y-94076108D01*
X111435097Y-94076112D01*
X111167052Y-94176087D01*
X110915959Y-94313193D01*
X110915952Y-94313197D01*
X110894753Y-94329066D01*
X111825506Y-95259819D01*
X111778316Y-95269207D01*
X111640005Y-95326497D01*
X111515528Y-95409670D01*
X111409670Y-95515528D01*
X111326497Y-95640005D01*
X111269207Y-95778316D01*
X111259819Y-95825506D01*
X110329066Y-94894753D01*
X110313197Y-94915952D01*
X110313193Y-94915959D01*
X110176087Y-95167052D01*
X110076112Y-95435097D01*
X110076108Y-95435108D01*
X110015301Y-95714635D01*
X109994891Y-96000000D01*
X100500000Y-96000000D01*
X100500000Y-94985908D01*
X100518954Y-94890620D01*
X100572930Y-94809838D01*
X100653712Y-94755862D01*
X100749000Y-94736908D01*
X100844288Y-94755862D01*
X100925066Y-94809835D01*
X100930737Y-94815506D01*
X101203003Y-95032630D01*
X101497867Y-95217906D01*
X101811621Y-95369002D01*
X101811624Y-95369003D01*
X101811626Y-95369004D01*
X101877455Y-95392038D01*
X102140319Y-95484018D01*
X102479829Y-95561509D01*
X102696106Y-95585877D01*
X102825867Y-95600499D01*
X102825880Y-95600500D01*
X103174120Y-95600500D01*
X103174132Y-95600499D01*
X103272434Y-95589422D01*
X103520171Y-95561509D01*
X103859681Y-95484018D01*
X104188379Y-95369002D01*
X104502133Y-95217906D01*
X104796997Y-95032630D01*
X105069263Y-94815506D01*
X105315506Y-94569263D01*
X105532630Y-94296997D01*
X105717906Y-94002133D01*
X105869002Y-93688379D01*
X105984018Y-93359681D01*
X106061509Y-93020171D01*
X106100500Y-92674120D01*
X106100500Y-92325880D01*
X106061509Y-91979829D01*
X105984018Y-91640319D01*
X105869002Y-91311621D01*
X105717906Y-90997867D01*
X105708194Y-90982411D01*
X105644773Y-90881476D01*
X105610125Y-90790709D01*
X105612850Y-90693592D01*
X105652532Y-90604911D01*
X105723131Y-90538166D01*
X105813898Y-90503518D01*
X105855607Y-90500000D01*
X124144393Y-90500000D01*
X124239681Y-90518954D01*
G37*
%TD.AperFunction*%
%TD*%
M02*
