%TF.GenerationSoftware,KiCad,Pcbnew,8.0.5-8.0.5-0~ubuntu22.04.1*%
%TF.CreationDate,2025-01-09T17:41:28-03:00*%
%TF.ProjectId,tx_amplifier,74785f61-6d70-46c6-9966-6965722e6b69,v1.2*%
%TF.SameCoordinates,Original*%
%TF.FileFunction,Soldermask,Top*%
%TF.FilePolarity,Negative*%
%FSLAX46Y46*%
G04 Gerber Fmt 4.6, Leading zero omitted, Abs format (unit mm)*
G04 Created by KiCad (PCBNEW 8.0.5-8.0.5-0~ubuntu22.04.1) date 2025-01-09 17:41:28*
%MOMM*%
%LPD*%
G01*
G04 APERTURE LIST*
G04 Aperture macros list*
%AMRoundRect*
0 Rectangle with rounded corners*
0 $1 Rounding radius*
0 $2 $3 $4 $5 $6 $7 $8 $9 X,Y pos of 4 corners*
0 Add a 4 corners polygon primitive as box body*
4,1,4,$2,$3,$4,$5,$6,$7,$8,$9,$2,$3,0*
0 Add four circle primitives for the rounded corners*
1,1,$1+$1,$2,$3*
1,1,$1+$1,$4,$5*
1,1,$1+$1,$6,$7*
1,1,$1+$1,$8,$9*
0 Add four rect primitives between the rounded corners*
20,1,$1+$1,$2,$3,$4,$5,0*
20,1,$1+$1,$4,$5,$6,$7,0*
20,1,$1+$1,$6,$7,$8,$9,0*
20,1,$1+$1,$8,$9,$2,$3,0*%
G04 Aperture macros list end*
%ADD10C,0.000000*%
%ADD11RoundRect,0.237500X0.300000X0.237500X-0.300000X0.237500X-0.300000X-0.237500X0.300000X-0.237500X0*%
%ADD12RoundRect,0.250000X-0.400000X-0.625000X0.400000X-0.625000X0.400000X0.625000X-0.400000X0.625000X0*%
%ADD13RoundRect,0.237500X-0.300000X-0.237500X0.300000X-0.237500X0.300000X0.237500X-0.300000X0.237500X0*%
%ADD14RoundRect,0.237500X-0.287500X-0.237500X0.287500X-0.237500X0.287500X0.237500X-0.287500X0.237500X0*%
%ADD15R,3.600000X1.270000*%
%ADD16R,4.200000X1.350000*%
%ADD17RoundRect,0.237500X0.250000X0.237500X-0.250000X0.237500X-0.250000X-0.237500X0.250000X-0.237500X0*%
%ADD18R,3.000000X3.000000*%
%ADD19C,3.000000*%
%ADD20C,3.200000*%
%ADD21RoundRect,0.237500X-0.250000X-0.237500X0.250000X-0.237500X0.250000X0.237500X-0.250000X0.237500X0*%
%ADD22RoundRect,0.250000X0.400000X0.625000X-0.400000X0.625000X-0.400000X-0.625000X0.400000X-0.625000X0*%
G04 APERTURE END LIST*
%TO.C,Q1*%
G36*
X113761350Y-110030000D02*
G01*
X113986350Y-110030000D01*
X113986350Y-109680000D01*
X113761350Y-109680000D01*
X113761350Y-110030000D01*
G37*
G36*
X114136350Y-110030000D02*
G01*
X114361350Y-110030000D01*
X114361350Y-109680000D01*
X114136350Y-109680000D01*
X114136350Y-110030000D01*
G37*
D10*
G36*
X114361350Y-109480000D02*
G01*
X113761350Y-109480000D01*
X113761350Y-109030000D01*
X114361350Y-109030000D01*
X114361350Y-109480000D01*
G37*
%TD*%
D11*
%TO.C,C2*%
X111606500Y-103124000D03*
X109881500Y-103124000D03*
%TD*%
D12*
%TO.C,R1*%
X113994000Y-103124000D03*
X117094000Y-103124000D03*
%TD*%
D13*
%TO.C,C6*%
X115369000Y-111760000D03*
X117094000Y-111760000D03*
%TD*%
D14*
%TO.C,L1*%
X117094000Y-109855000D03*
X118844000Y-109855000D03*
%TD*%
D15*
%TO.C,J2*%
X127254000Y-109855000D03*
D16*
X127054000Y-112680000D03*
X127054000Y-107030000D03*
%TD*%
D13*
%TO.C,C5*%
X121565500Y-109855000D03*
X123290500Y-109855000D03*
%TD*%
D17*
%TO.C,R4*%
X112672500Y-111760000D03*
X110847500Y-111760000D03*
%TD*%
D15*
%TO.C,J1*%
X102616000Y-109855000D03*
D16*
X102816000Y-107030000D03*
X102816000Y-112680000D03*
%TD*%
D18*
%TO.C,J3*%
X117080000Y-96000000D03*
D19*
X112000000Y-96000000D03*
%TD*%
D13*
%TO.C,C1*%
X108104000Y-109855000D03*
X109829000Y-109855000D03*
%TD*%
D14*
%TO.C,L2*%
X121553000Y-112014000D03*
X123303000Y-112014000D03*
%TD*%
D20*
%TO.C,H1*%
X103000000Y-92500000D03*
%TD*%
D21*
%TO.C,R2*%
X109831500Y-106172000D03*
X111656500Y-106172000D03*
%TD*%
D20*
%TO.C,H2*%
X127000000Y-92500000D03*
%TD*%
D13*
%TO.C,C4*%
X121539000Y-114300000D03*
X123264000Y-114300000D03*
%TD*%
D11*
%TO.C,C3*%
X123290500Y-106045000D03*
X121565500Y-106045000D03*
%TD*%
D22*
%TO.C,R3*%
X117094000Y-106045000D03*
X113994000Y-106045000D03*
%TD*%
D20*
%TO.C,H4*%
X127000000Y-117500000D03*
%TD*%
%TO.C,H3*%
X103000000Y-117500000D03*
%TD*%
M02*
