%TF.GenerationSoftware,KiCad,Pcbnew,8.0.2*%
%TF.CreationDate,2025-01-11T01:11:34-03:00*%
%TF.ProjectId,LTC6268-10,4c544336-3236-4382-9d31-302e6b696361,rev?*%
%TF.SameCoordinates,Original*%
%TF.FileFunction,Legend,Top*%
%TF.FilePolarity,Positive*%
%FSLAX46Y46*%
G04 Gerber Fmt 4.6, Leading zero omitted, Abs format (unit mm)*
G04 Created by KiCad (PCBNEW 8.0.2) date 2025-01-11 01:11:34*
%MOMM*%
%LPD*%
G01*
G04 APERTURE LIST*
%ADD10C,0.250000*%
%ADD11C,0.300000*%
%ADD12C,0.150000*%
%ADD13C,0.120000*%
%ADD14C,0.152400*%
G04 APERTURE END LIST*
D10*
G36*
X108039820Y-72420931D02*
G01*
X108039820Y-73415000D01*
X107852485Y-73415000D01*
X107852485Y-72641238D01*
X107731585Y-72686912D01*
X107731585Y-72488098D01*
X107879841Y-72420931D01*
X108039820Y-72420931D01*
G37*
G36*
X108213720Y-73415000D02*
G01*
X108213720Y-73227665D01*
X108401055Y-73227665D01*
X108401055Y-73415000D01*
X108213720Y-73415000D01*
G37*
G36*
X108819211Y-72829190D02*
G01*
X108856323Y-72824420D01*
X108907633Y-72828137D01*
X108959775Y-72841486D01*
X109004986Y-72864544D01*
X109043268Y-72897311D01*
X109047566Y-72902090D01*
X109077272Y-72944801D01*
X109098490Y-72995512D01*
X109110094Y-73046446D01*
X109115200Y-73103504D01*
X109115465Y-73120931D01*
X109115465Y-73121664D01*
X109112786Y-73173519D01*
X109102888Y-73228264D01*
X109085698Y-73276815D01*
X109061215Y-73319172D01*
X109039261Y-73345635D01*
X108997236Y-73380470D01*
X108947365Y-73405352D01*
X108897291Y-73418959D01*
X108841210Y-73424947D01*
X108824083Y-73425258D01*
X108774507Y-73422493D01*
X108722159Y-73412278D01*
X108675725Y-73394537D01*
X108629899Y-73365044D01*
X108609882Y-73346612D01*
X108576543Y-73303274D01*
X108555185Y-73258766D01*
X108541120Y-73208111D01*
X108534348Y-73151309D01*
X108533897Y-73133632D01*
X108721013Y-73133632D01*
X108721013Y-73134120D01*
X108728595Y-73183921D01*
X108747880Y-73216186D01*
X108790450Y-73240744D01*
X108824328Y-73244762D01*
X108873632Y-73235643D01*
X108901508Y-73215942D01*
X108924387Y-73169974D01*
X108928131Y-73133143D01*
X108928131Y-73132655D01*
X108922281Y-73081528D01*
X108901508Y-73038377D01*
X108861370Y-73010438D01*
X108824083Y-73004916D01*
X108775809Y-73015580D01*
X108747880Y-73038621D01*
X108726155Y-73085273D01*
X108721013Y-73133632D01*
X108533897Y-73133632D01*
X108533679Y-73125083D01*
X108533679Y-73124351D01*
X108536255Y-73075178D01*
X108543983Y-73024012D01*
X108551997Y-72988796D01*
X108566375Y-72940000D01*
X108583985Y-72892013D01*
X108602799Y-72849089D01*
X108804300Y-72420931D01*
X109016302Y-72420931D01*
X108819211Y-72829190D01*
G37*
G36*
X109563406Y-73425258D02*
G01*
X109512894Y-73421529D01*
X109459687Y-73408138D01*
X109411304Y-73385007D01*
X109367745Y-73352138D01*
X109362639Y-73347344D01*
X109330682Y-73310218D01*
X109305551Y-73267015D01*
X109287245Y-73217734D01*
X109275765Y-73162376D01*
X109272269Y-73128014D01*
X109272269Y-73127281D01*
X109459603Y-73127281D01*
X109459603Y-73127770D01*
X109470961Y-73176435D01*
X109493309Y-73213011D01*
X109534906Y-73239038D01*
X109566093Y-73243297D01*
X109614488Y-73233096D01*
X109642297Y-73211057D01*
X109664219Y-73166397D01*
X109669408Y-73120443D01*
X109669408Y-73036912D01*
X109664095Y-72987982D01*
X109645228Y-72946542D01*
X109605082Y-72918327D01*
X109577084Y-72914546D01*
X109527328Y-72924243D01*
X109508452Y-72935062D01*
X109476683Y-72973008D01*
X109469129Y-72992459D01*
X109294007Y-72992459D01*
X109294007Y-72420931D01*
X109827921Y-72420931D01*
X109827921Y-72601427D01*
X109481341Y-72601427D01*
X109481341Y-72777281D01*
X109524483Y-72750043D01*
X109539715Y-72744553D01*
X109589628Y-72733974D01*
X109612011Y-72732829D01*
X109667088Y-72737806D01*
X109715570Y-72752735D01*
X109762230Y-72781427D01*
X109792750Y-72812452D01*
X109820747Y-72856340D01*
X109840744Y-72908379D01*
X109851680Y-72960600D01*
X109856180Y-73010328D01*
X109856742Y-73036912D01*
X109856742Y-73120443D01*
X109854046Y-73172713D01*
X109844085Y-73227834D01*
X109826784Y-73276644D01*
X109802144Y-73319142D01*
X109780050Y-73345635D01*
X109737750Y-73380470D01*
X109694251Y-73402786D01*
X109644698Y-73417482D01*
X109589091Y-73424558D01*
X109563406Y-73425258D01*
G37*
G36*
X110283190Y-73415000D02*
G01*
X109952241Y-72420931D01*
X110144949Y-72420931D01*
X110356219Y-73084050D01*
X110567489Y-72420931D01*
X110760196Y-72420931D01*
X110429492Y-73415000D01*
X110283190Y-73415000D01*
G37*
G36*
X111183958Y-73415000D02*
G01*
X111183958Y-72420931D01*
X111371292Y-72420931D01*
X111371292Y-73415000D01*
X111183958Y-73415000D01*
G37*
G36*
X111019338Y-73425258D02*
G01*
X110965742Y-73420235D01*
X110918527Y-73405169D01*
X110873037Y-73376212D01*
X110843239Y-73344902D01*
X110815884Y-73300602D01*
X110796344Y-73248060D01*
X110785659Y-73195323D01*
X110781262Y-73145096D01*
X110780713Y-73118244D01*
X110780713Y-73004916D01*
X110782911Y-72951773D01*
X110789506Y-72903353D01*
X110802756Y-72852831D01*
X110825226Y-72802964D01*
X110843239Y-72776060D01*
X110877692Y-72740691D01*
X110924080Y-72712979D01*
X110972093Y-72699084D01*
X111019338Y-72695216D01*
X111070139Y-72702675D01*
X111116754Y-72725054D01*
X111122653Y-72729166D01*
X111160226Y-72764128D01*
X111188920Y-72806388D01*
X111198368Y-72825153D01*
X111183958Y-72982201D01*
X111176355Y-72932279D01*
X111171501Y-72920652D01*
X111138514Y-72883758D01*
X111135598Y-72882062D01*
X111086898Y-72869079D01*
X111078689Y-72868872D01*
X111029322Y-72879005D01*
X110996868Y-72904776D01*
X110974380Y-72951058D01*
X110968075Y-73001387D01*
X110968047Y-73005404D01*
X110968047Y-73118244D01*
X110973564Y-73168627D01*
X110995095Y-73214722D01*
X110996868Y-73216919D01*
X111037062Y-73244963D01*
X111078689Y-73251601D01*
X111128026Y-73242385D01*
X111135598Y-73238656D01*
X111170727Y-73202558D01*
X111171501Y-73201043D01*
X111183654Y-73152112D01*
X111183958Y-73141448D01*
X111193483Y-73303625D01*
X111170382Y-73349439D01*
X111135152Y-73387321D01*
X111126805Y-73393506D01*
X111080566Y-73416297D01*
X111030824Y-73424979D01*
X111019338Y-73425258D01*
G37*
G36*
X111855626Y-73425258D02*
G01*
X111800794Y-73422235D01*
X111750788Y-73413168D01*
X111698547Y-73394949D01*
X111652874Y-73368502D01*
X111618954Y-73339284D01*
X111586216Y-73298281D01*
X111561519Y-73250500D01*
X111544863Y-73195940D01*
X111536986Y-73143779D01*
X111534935Y-73096507D01*
X111534935Y-73020547D01*
X111537889Y-72964768D01*
X111546750Y-72913935D01*
X111564555Y-72860881D01*
X111590401Y-72814559D01*
X111618954Y-72780212D01*
X111659009Y-72747094D01*
X111705655Y-72722109D01*
X111758893Y-72705259D01*
X111809771Y-72697291D01*
X111855870Y-72695216D01*
X111908745Y-72698102D01*
X111958375Y-72706760D01*
X112009223Y-72722951D01*
X112013651Y-72724769D01*
X112058912Y-72747892D01*
X112100454Y-72779897D01*
X112126247Y-72808545D01*
X112005102Y-72926270D01*
X111963766Y-72897414D01*
X111944774Y-72889145D01*
X111897355Y-72877299D01*
X111871257Y-72875711D01*
X111822599Y-72881069D01*
X111777119Y-72900864D01*
X111761348Y-72913813D01*
X111733298Y-72956120D01*
X111722612Y-73007906D01*
X111722269Y-73020547D01*
X111722269Y-73096507D01*
X111727764Y-73145130D01*
X111748067Y-73190484D01*
X111761348Y-73206172D01*
X111804961Y-73233871D01*
X111854046Y-73244159D01*
X111871257Y-73244762D01*
X111920329Y-73238556D01*
X111944774Y-73230352D01*
X111988296Y-73204766D01*
X112005102Y-73189319D01*
X112126247Y-73313883D01*
X112090835Y-73350416D01*
X112047249Y-73380149D01*
X112013651Y-73396193D01*
X111963131Y-73412740D01*
X111913748Y-73421823D01*
X111861074Y-73425229D01*
X111855626Y-73425258D01*
G37*
G36*
X107799864Y-77762281D02*
G01*
X107799864Y-77417655D01*
X107973277Y-77417655D01*
X108027560Y-77420372D01*
X108078301Y-77428523D01*
X108125501Y-77442109D01*
X108169160Y-77461130D01*
X108213308Y-77488309D01*
X108251506Y-77520936D01*
X108283753Y-77559011D01*
X108299097Y-77582518D01*
X108321411Y-77628509D01*
X108336423Y-77678826D01*
X108343636Y-77727187D01*
X108345259Y-77765701D01*
X108342557Y-77817037D01*
X108333058Y-77870813D01*
X108316719Y-77920378D01*
X108302028Y-77951081D01*
X108274772Y-77992793D01*
X108237916Y-78032568D01*
X108198831Y-78062452D01*
X108179662Y-78073935D01*
X108133082Y-78095069D01*
X108082367Y-78109286D01*
X108033816Y-78116117D01*
X107995259Y-78117655D01*
X107701923Y-78117655D01*
X107647671Y-78114953D01*
X107597021Y-78106847D01*
X107549973Y-78093337D01*
X107506529Y-78074424D01*
X107462518Y-78047245D01*
X107424457Y-78014617D01*
X107392348Y-77976542D01*
X107377080Y-77953035D01*
X107354765Y-77907045D01*
X107339754Y-77856727D01*
X107332541Y-77808367D01*
X107330918Y-77769853D01*
X107334520Y-77717035D01*
X107345325Y-77667271D01*
X107363333Y-77620559D01*
X107367799Y-77611583D01*
X107393735Y-77569122D01*
X107425444Y-77531193D01*
X107462925Y-77497796D01*
X107471114Y-77491660D01*
X107514700Y-77464359D01*
X107562724Y-77443212D01*
X107609738Y-77429441D01*
X107626208Y-77425959D01*
X107626208Y-77576901D01*
X107577278Y-77594438D01*
X107533710Y-77623312D01*
X107507750Y-77651639D01*
X107482746Y-77694137D01*
X107468681Y-77742658D01*
X107466717Y-77769853D01*
X107471837Y-77819162D01*
X107489535Y-77867152D01*
X107519875Y-77907986D01*
X107531442Y-77918841D01*
X107575796Y-77948336D01*
X107622650Y-77965542D01*
X107676071Y-77973899D01*
X107701923Y-77974772D01*
X107995259Y-77974772D01*
X108046768Y-77970232D01*
X108096885Y-77954538D01*
X108139513Y-77927633D01*
X108150841Y-77917375D01*
X108181625Y-77877901D01*
X108201007Y-77831223D01*
X108208987Y-77777341D01*
X108209215Y-77765701D01*
X108204347Y-77716293D01*
X108187517Y-77668284D01*
X108158666Y-77627526D01*
X108147666Y-77616712D01*
X108104475Y-77587088D01*
X108057528Y-77569808D01*
X108002929Y-77561414D01*
X107976208Y-77560537D01*
X107932977Y-77560537D01*
X107932977Y-77762281D01*
X107799864Y-77762281D01*
G37*
G36*
X108335001Y-77206140D02*
G01*
X107625475Y-77206140D01*
X107625475Y-77066678D01*
X108335001Y-77066678D01*
X108335001Y-77206140D01*
G37*
G36*
X108335001Y-76775540D02*
G01*
X107905133Y-76775540D01*
X107853522Y-76780967D01*
X107805463Y-76801016D01*
X107788873Y-76814130D01*
X107759421Y-76857447D01*
X107748482Y-76906534D01*
X107747841Y-76923795D01*
X107753807Y-76974241D01*
X107775516Y-77019726D01*
X107783989Y-77029553D01*
X107827525Y-77057396D01*
X107877741Y-77066533D01*
X107885838Y-77066678D01*
X107749062Y-77081088D01*
X107705041Y-77053691D01*
X107666731Y-77017576D01*
X107650144Y-76995359D01*
X107627530Y-76950441D01*
X107616445Y-76901816D01*
X107615217Y-76878122D01*
X107619934Y-76823625D01*
X107634085Y-76775662D01*
X107661281Y-76729513D01*
X107690688Y-76699336D01*
X107732347Y-76671661D01*
X107781852Y-76651892D01*
X107831605Y-76641081D01*
X107887365Y-76636324D01*
X107904400Y-76636077D01*
X108335001Y-76636077D01*
X108335001Y-76775540D01*
G37*
G36*
X108335001Y-76021318D02*
G01*
X107341176Y-76021318D01*
X107341176Y-75881855D01*
X108335001Y-75881855D01*
X108335001Y-76021318D01*
G37*
G36*
X108347213Y-76199615D02*
G01*
X108343601Y-76248549D01*
X108330630Y-76298176D01*
X108304760Y-76345978D01*
X108271742Y-76381332D01*
X108230129Y-76409222D01*
X108180761Y-76429143D01*
X108131203Y-76440037D01*
X108075708Y-76444830D01*
X108058762Y-76445079D01*
X107902202Y-76445079D01*
X107852651Y-76442881D01*
X107800399Y-76434760D01*
X107748009Y-76418152D01*
X107703434Y-76393727D01*
X107688734Y-76382553D01*
X107652133Y-76343344D01*
X107627511Y-76296060D01*
X107615681Y-76247249D01*
X107613019Y-76206454D01*
X107618460Y-76157187D01*
X107636492Y-76108006D01*
X107645991Y-76091416D01*
X107677017Y-76052254D01*
X107716912Y-76019702D01*
X107738315Y-76006908D01*
X107883151Y-76021318D01*
X107834144Y-76027087D01*
X107805970Y-76037682D01*
X107767701Y-76068903D01*
X107757122Y-76085310D01*
X107741915Y-76134310D01*
X107740269Y-76160781D01*
X107747404Y-76211782D01*
X107771046Y-76255165D01*
X107783500Y-76267759D01*
X107827799Y-76293638D01*
X107876411Y-76304286D01*
X107904400Y-76305617D01*
X108058762Y-76305617D01*
X108107807Y-76301143D01*
X108154978Y-76284322D01*
X108178197Y-76267759D01*
X108208350Y-76225398D01*
X108219550Y-76177573D01*
X108220206Y-76160781D01*
X108213432Y-76110463D01*
X108202865Y-76085310D01*
X108169763Y-76048066D01*
X108152551Y-76037682D01*
X108103805Y-76023252D01*
X108073905Y-76021318D01*
X108223626Y-76011793D01*
X108266305Y-76035771D01*
X108302169Y-76069190D01*
X108309355Y-76077738D01*
X108333866Y-76120476D01*
X108345401Y-76168155D01*
X108347213Y-76199615D01*
G37*
G36*
X107769578Y-81273272D02*
G01*
X107557820Y-81427145D01*
X107493584Y-81338973D01*
X107705342Y-81185100D01*
X107769578Y-81273272D01*
G37*
G36*
X107769578Y-81492602D02*
G01*
X107705342Y-81580774D01*
X107493584Y-81427145D01*
X107557820Y-81338973D01*
X107769578Y-81492602D01*
G37*
G36*
X107577603Y-81399790D02*
G01*
X107496271Y-81648429D01*
X107392956Y-81614968D01*
X107473556Y-81366329D01*
X107577603Y-81399790D01*
G37*
G36*
X107525580Y-81437403D02*
G01*
X107263751Y-81437403D01*
X107263751Y-81328715D01*
X107525580Y-81328715D01*
X107525580Y-81437403D01*
G37*
G36*
X107577603Y-81366329D02*
G01*
X107473556Y-81399790D01*
X107392956Y-81150906D01*
X107496271Y-81117445D01*
X107577603Y-81366329D01*
G37*
G36*
X108345259Y-80660467D02*
G01*
X108343642Y-80709328D01*
X108338193Y-80760327D01*
X108331581Y-80796998D01*
X108318211Y-80847463D01*
X108300326Y-80895267D01*
X108290548Y-80916433D01*
X108266065Y-80960510D01*
X108237067Y-81002249D01*
X108222160Y-81020725D01*
X108115670Y-80934019D01*
X108146536Y-80893566D01*
X108171629Y-80850459D01*
X108189432Y-80808966D01*
X108203476Y-80760564D01*
X108211691Y-80709392D01*
X108214100Y-80660467D01*
X108211582Y-80609527D01*
X108202727Y-80559482D01*
X108185410Y-80512894D01*
X108173800Y-80493160D01*
X108138927Y-80456845D01*
X108091070Y-80436417D01*
X108060960Y-80433565D01*
X108060227Y-80433565D01*
X108010219Y-80441076D01*
X107973521Y-80463607D01*
X107944395Y-80503355D01*
X107928580Y-80542497D01*
X107915969Y-80590332D01*
X107906231Y-80638658D01*
X107904400Y-80649476D01*
X107895411Y-80698817D01*
X107885113Y-80748532D01*
X107881930Y-80762804D01*
X107867631Y-80810870D01*
X107846190Y-80858529D01*
X107841141Y-80867585D01*
X107809779Y-80908332D01*
X107771017Y-80938906D01*
X107761518Y-80944521D01*
X107713525Y-80963340D01*
X107663974Y-80971770D01*
X107622788Y-80973586D01*
X107622056Y-80973586D01*
X107572230Y-80970340D01*
X107519657Y-80958349D01*
X107473067Y-80937522D01*
X107432462Y-80907859D01*
X107407122Y-80881262D01*
X107377429Y-80837248D01*
X107355030Y-80785987D01*
X107341634Y-80736281D01*
X107333597Y-80681252D01*
X107330993Y-80631328D01*
X107330918Y-80620899D01*
X107333423Y-80571187D01*
X107340936Y-80522191D01*
X107353458Y-80473910D01*
X107356564Y-80464340D01*
X107375111Y-80416836D01*
X107399001Y-80370192D01*
X107428234Y-80324406D01*
X107434721Y-80315352D01*
X107545363Y-80394486D01*
X107516730Y-80437099D01*
X107492609Y-80483108D01*
X107482593Y-80507815D01*
X107468568Y-80557109D01*
X107462397Y-80606684D01*
X107462077Y-80620899D01*
X107465303Y-80674596D01*
X107476456Y-80725830D01*
X107497926Y-80771939D01*
X107502865Y-80779169D01*
X107538048Y-80813550D01*
X107586937Y-80832889D01*
X107617904Y-80835589D01*
X107618636Y-80835589D01*
X107667973Y-80827407D01*
X107704121Y-80802860D01*
X107732303Y-80759429D01*
X107747596Y-80716887D01*
X107759451Y-80669015D01*
X107770651Y-80618152D01*
X107773730Y-80603070D01*
X107784189Y-80555198D01*
X107796331Y-80507326D01*
X107800109Y-80493649D01*
X107817540Y-80444558D01*
X107840981Y-80399868D01*
X107844561Y-80394242D01*
X107876532Y-80356257D01*
X107917948Y-80326107D01*
X107924184Y-80322679D01*
X107970342Y-80305126D01*
X108021965Y-80296865D01*
X108056075Y-80295568D01*
X108057541Y-80295568D01*
X108106834Y-80298934D01*
X108158829Y-80311369D01*
X108204888Y-80332968D01*
X108245009Y-80363729D01*
X108270032Y-80391311D01*
X108299344Y-80436832D01*
X108318738Y-80481803D01*
X108332843Y-80532270D01*
X108341659Y-80588232D01*
X108344965Y-80639065D01*
X108345259Y-80660467D01*
G37*
G36*
X108335001Y-80016887D02*
G01*
X108202377Y-80016887D01*
X108202377Y-79791939D01*
X108198820Y-79740068D01*
X108186316Y-79689085D01*
X108161863Y-79641591D01*
X108145468Y-79621458D01*
X108105168Y-79589515D01*
X108055709Y-79569403D01*
X108003365Y-79561418D01*
X107984268Y-79560885D01*
X107691665Y-79560885D01*
X107642679Y-79564671D01*
X107594540Y-79577981D01*
X107549708Y-79604008D01*
X107530709Y-79621458D01*
X107500570Y-79664133D01*
X107482988Y-79710780D01*
X107474449Y-79765233D01*
X107473556Y-79791939D01*
X107473556Y-80016887D01*
X107341176Y-80016887D01*
X107341176Y-79796091D01*
X107343454Y-79741684D01*
X107350288Y-79691272D01*
X107364502Y-79636051D01*
X107385276Y-79586583D01*
X107412610Y-79542869D01*
X107434477Y-79516922D01*
X107472144Y-79483305D01*
X107515169Y-79456643D01*
X107563552Y-79436937D01*
X107617293Y-79424186D01*
X107666170Y-79418873D01*
X107697282Y-79418003D01*
X107978894Y-79418003D01*
X108033238Y-79420782D01*
X108083430Y-79429116D01*
X108134933Y-79445135D01*
X108171358Y-79462456D01*
X108213171Y-79490648D01*
X108249033Y-79525215D01*
X108278944Y-79566159D01*
X108292991Y-79591660D01*
X108313298Y-79642154D01*
X108325770Y-79691773D01*
X108332990Y-79745850D01*
X108335001Y-79796824D01*
X108335001Y-80016887D01*
G37*
G36*
X108335001Y-80111165D02*
G01*
X107341176Y-80111165D01*
X107341176Y-79971702D01*
X108335001Y-79971702D01*
X108335001Y-80111165D01*
G37*
D11*
G36*
X134823601Y-76804554D02*
G01*
X131458237Y-76804554D01*
X131458237Y-75131397D01*
X131624904Y-75131397D01*
X131800758Y-76622500D01*
X132015448Y-76622500D01*
X132197318Y-76281389D01*
X132638467Y-76281389D01*
X132643927Y-76364681D01*
X132663271Y-76437806D01*
X132702381Y-76508927D01*
X132728467Y-76539152D01*
X132792627Y-76587512D01*
X132861877Y-76616603D01*
X132943364Y-76633353D01*
X133022950Y-76637887D01*
X133038918Y-76637716D01*
X133116956Y-76631756D01*
X133191989Y-76617280D01*
X133264017Y-76594289D01*
X133331108Y-76563499D01*
X133396973Y-76521448D01*
X133454527Y-76470825D01*
X133315675Y-76283979D01*
X133279937Y-76311353D01*
X133214192Y-76345528D01*
X133175985Y-76357835D01*
X133102084Y-76367144D01*
X133089307Y-76366917D01*
X133012691Y-76352672D01*
X132952608Y-76309258D01*
X132940162Y-76289883D01*
X132938080Y-76281389D01*
X133683338Y-76281389D01*
X133688798Y-76364681D01*
X133708142Y-76437806D01*
X133747252Y-76508927D01*
X133773338Y-76539152D01*
X133837498Y-76587512D01*
X133906748Y-76616603D01*
X133988235Y-76633353D01*
X134067820Y-76637887D01*
X134083789Y-76637716D01*
X134161827Y-76631756D01*
X134236860Y-76617280D01*
X134308888Y-76594289D01*
X134375979Y-76563499D01*
X134441844Y-76521448D01*
X134499398Y-76470825D01*
X134360546Y-76283979D01*
X134324808Y-76311353D01*
X134259063Y-76345528D01*
X134220856Y-76357835D01*
X134146955Y-76367144D01*
X134134178Y-76366917D01*
X134057562Y-76352672D01*
X133997479Y-76309258D01*
X133985033Y-76289883D01*
X133967339Y-76217696D01*
X133974398Y-76144760D01*
X133998211Y-76030821D01*
X134006023Y-75999671D01*
X134037302Y-75929314D01*
X134088703Y-75870720D01*
X134120662Y-75848451D01*
X134188852Y-75821604D01*
X134261994Y-75813567D01*
X134293153Y-75815161D01*
X134365675Y-75833717D01*
X134385510Y-75843144D01*
X134442611Y-75889405D01*
X134656934Y-75712817D01*
X134635281Y-75678879D01*
X134582230Y-75625433D01*
X134518449Y-75587154D01*
X134449525Y-75561915D01*
X134372723Y-75547153D01*
X134296065Y-75542824D01*
X134214475Y-75547306D01*
X134138140Y-75560753D01*
X134067059Y-75583164D01*
X133990774Y-75620641D01*
X133921641Y-75670319D01*
X133903307Y-75686668D01*
X133853062Y-75740661D01*
X133809953Y-75802073D01*
X133773979Y-75870903D01*
X133745141Y-75947153D01*
X133723438Y-76030821D01*
X133699624Y-76144760D01*
X133689710Y-76201902D01*
X133683338Y-76281389D01*
X132938080Y-76281389D01*
X132922468Y-76217696D01*
X132929527Y-76144760D01*
X132953340Y-76030821D01*
X132961152Y-75999671D01*
X132992431Y-75929314D01*
X133043832Y-75870720D01*
X133075792Y-75848451D01*
X133143981Y-75821604D01*
X133217123Y-75813567D01*
X133248283Y-75815161D01*
X133320804Y-75833717D01*
X133340639Y-75843144D01*
X133397740Y-75889405D01*
X133612063Y-75712817D01*
X133590410Y-75678879D01*
X133537359Y-75625433D01*
X133473578Y-75587154D01*
X133404654Y-75561915D01*
X133327852Y-75547153D01*
X133251195Y-75542824D01*
X133169604Y-75547306D01*
X133093269Y-75560753D01*
X133022188Y-75583164D01*
X132945903Y-75620641D01*
X132876770Y-75670319D01*
X132858436Y-75686668D01*
X132808191Y-75740661D01*
X132765082Y-75802073D01*
X132729108Y-75870903D01*
X132700270Y-75947153D01*
X132678567Y-76030821D01*
X132654753Y-76144760D01*
X132644839Y-76201902D01*
X132638467Y-76281389D01*
X132197318Y-76281389D01*
X132810458Y-75131397D01*
X132527625Y-75131397D01*
X132011051Y-76126076D01*
X131907737Y-75131397D01*
X131624904Y-75131397D01*
X131458237Y-75131397D01*
X131458237Y-74964730D01*
X134823601Y-74964730D01*
X134823601Y-76804554D01*
G37*
G36*
X132020552Y-64398755D02*
G01*
X132094393Y-64419615D01*
X132151735Y-64468452D01*
X132173282Y-64507126D01*
X132187686Y-64582572D01*
X132179945Y-64658595D01*
X132089087Y-65095301D01*
X132068092Y-65164524D01*
X132031940Y-65230256D01*
X131982108Y-65285078D01*
X131933512Y-65319790D01*
X131861144Y-65348400D01*
X131787202Y-65356885D01*
X131753618Y-65355132D01*
X131679861Y-65334165D01*
X131622339Y-65285078D01*
X131600792Y-65246289D01*
X131586387Y-65170951D01*
X131594129Y-65095301D01*
X131684987Y-64658595D01*
X131705981Y-64589022D01*
X131742133Y-64523152D01*
X131791965Y-64468452D01*
X131840710Y-64433918D01*
X131913095Y-64405453D01*
X131986871Y-64397011D01*
X132020552Y-64398755D01*
G37*
G36*
X135265436Y-65804554D02*
G01*
X131128318Y-65804554D01*
X131128318Y-65224813D01*
X131294985Y-65224813D01*
X131300005Y-65304324D01*
X131316791Y-65377402D01*
X131322083Y-65392708D01*
X131356186Y-65462667D01*
X131403027Y-65521679D01*
X131462604Y-65569743D01*
X131504116Y-65592901D01*
X131573678Y-65618655D01*
X131651991Y-65633628D01*
X131728951Y-65637887D01*
X131807536Y-65633628D01*
X131882824Y-65620851D01*
X131954814Y-65599556D01*
X132023507Y-65569743D01*
X132087919Y-65532168D01*
X132147064Y-65487586D01*
X132200942Y-65435997D01*
X132249554Y-65377402D01*
X132291915Y-65312761D01*
X132316076Y-65264802D01*
X132617882Y-65264802D01*
X132626061Y-65343001D01*
X132650156Y-65423619D01*
X132689924Y-65492807D01*
X132696866Y-65501732D01*
X132753374Y-65556279D01*
X132823731Y-65596941D01*
X132895060Y-65620744D01*
X132976565Y-65634345D01*
X133052258Y-65637887D01*
X133099188Y-65636612D01*
X133174097Y-65628819D01*
X133258534Y-65610118D01*
X133337021Y-65581215D01*
X133409556Y-65542111D01*
X133476142Y-65492807D01*
X133526456Y-65444553D01*
X133579419Y-65378951D01*
X133624292Y-65304951D01*
X133655509Y-65236870D01*
X133681108Y-65162956D01*
X133701089Y-65083211D01*
X133842651Y-64402140D01*
X133973298Y-64402140D01*
X134370353Y-64402140D01*
X134116547Y-65622500D01*
X134391320Y-65622500D01*
X134645126Y-64402140D01*
X135042715Y-64402140D01*
X135098769Y-64131397D01*
X134029352Y-64131397D01*
X133973298Y-64402140D01*
X133842651Y-64402140D01*
X133898926Y-64131397D01*
X133624153Y-64131397D01*
X133424851Y-65090172D01*
X133402697Y-65164697D01*
X133365766Y-65233699D01*
X133315674Y-65289108D01*
X133254197Y-65329365D01*
X133183109Y-65352911D01*
X133110144Y-65359816D01*
X133066592Y-65357330D01*
X132994327Y-65337444D01*
X132935022Y-65289108D01*
X132910199Y-65239298D01*
X132900719Y-65164697D01*
X132909743Y-65090172D01*
X133109045Y-64131397D01*
X132833905Y-64131397D01*
X132636068Y-65083211D01*
X132632794Y-65099627D01*
X132621218Y-65178206D01*
X132617882Y-65264802D01*
X132316076Y-65264802D01*
X132327040Y-65243038D01*
X132354930Y-65168231D01*
X132375583Y-65088340D01*
X132463511Y-64665922D01*
X132473785Y-64605056D01*
X132479269Y-64528589D01*
X132474217Y-64448968D01*
X132457283Y-64376128D01*
X132451990Y-64360911D01*
X132417887Y-64291309D01*
X132371047Y-64232512D01*
X132311470Y-64184520D01*
X132269970Y-64161362D01*
X132200476Y-64135608D01*
X132122288Y-64120635D01*
X132045489Y-64116376D01*
X131966744Y-64120635D01*
X131891342Y-64133412D01*
X131819282Y-64154707D01*
X131750566Y-64184520D01*
X131686155Y-64222049D01*
X131627010Y-64266494D01*
X131573131Y-64317853D01*
X131524519Y-64376128D01*
X131482296Y-64440540D01*
X131447216Y-64510309D01*
X131419281Y-64585437D01*
X131398490Y-64665922D01*
X131310563Y-65088340D01*
X131300400Y-65148735D01*
X131298819Y-65170951D01*
X131294985Y-65224813D01*
X131128318Y-65224813D01*
X131128318Y-63949709D01*
X135265436Y-63949709D01*
X135265436Y-65804554D01*
G37*
G36*
X120747148Y-58012275D02*
G01*
X120808086Y-58057566D01*
X120825292Y-58122293D01*
X120817978Y-58198982D01*
X120817978Y-58199715D01*
X120797201Y-58263158D01*
X120752765Y-58323913D01*
X120705792Y-58353465D01*
X120630766Y-58367144D01*
X120593265Y-58363753D01*
X120527451Y-58324279D01*
X120509247Y-58275882D01*
X120513529Y-58201181D01*
X120513895Y-58200448D01*
X120516397Y-58189115D01*
X120540640Y-58118840D01*
X120582772Y-58057932D01*
X120630897Y-58023371D01*
X120705138Y-58007374D01*
X120747148Y-58012275D01*
G37*
G36*
X122847148Y-58012275D02*
G01*
X122908086Y-58057566D01*
X122925292Y-58122293D01*
X122917978Y-58198982D01*
X122917978Y-58199715D01*
X122897201Y-58263158D01*
X122852765Y-58323913D01*
X122805792Y-58353465D01*
X122730766Y-58367144D01*
X122693265Y-58363753D01*
X122627451Y-58324279D01*
X122609247Y-58275882D01*
X122613529Y-58201181D01*
X122613895Y-58200448D01*
X122616397Y-58189115D01*
X122640640Y-58118840D01*
X122682772Y-58057932D01*
X122730897Y-58023371D01*
X122805138Y-58007374D01*
X122847148Y-58012275D01*
G37*
G36*
X123996516Y-58007665D02*
G01*
X124061401Y-58046209D01*
X124087186Y-58092280D01*
X124087779Y-58168208D01*
X124084848Y-58182496D01*
X124083728Y-58187640D01*
X124056363Y-58257326D01*
X124005347Y-58316219D01*
X124001433Y-58319352D01*
X123932968Y-58355954D01*
X123858801Y-58367144D01*
X123797411Y-58358860D01*
X123733138Y-58316952D01*
X123706577Y-58258791D01*
X123708958Y-58184694D01*
X123712255Y-58169307D01*
X123739641Y-58100339D01*
X123789558Y-58046575D01*
X123793405Y-58043712D01*
X123861079Y-58010270D01*
X123935005Y-58000047D01*
X123996516Y-58007665D01*
G37*
G36*
X124103324Y-57390975D02*
G01*
X124167646Y-57429984D01*
X124187525Y-57469467D01*
X124187430Y-57543923D01*
X124184499Y-57558211D01*
X124161336Y-57623577D01*
X124115623Y-57681310D01*
X124066025Y-57712866D01*
X123992158Y-57727472D01*
X123951350Y-57722999D01*
X123887011Y-57681676D01*
X123866986Y-57635674D01*
X123869059Y-57560043D01*
X123872357Y-57544656D01*
X123892402Y-57487544D01*
X123939401Y-57429984D01*
X123988999Y-57400431D01*
X124062866Y-57386753D01*
X124103324Y-57390975D01*
G37*
G36*
X126962748Y-57392220D02*
G01*
X127017960Y-57443539D01*
X127023627Y-57459098D01*
X127031413Y-57535760D01*
X127021624Y-57608403D01*
X126910616Y-58142562D01*
X126904765Y-58168059D01*
X126879584Y-58241277D01*
X126838808Y-58307426D01*
X126835636Y-58311100D01*
X126775346Y-58354022D01*
X126702521Y-58367144D01*
X126646896Y-58358746D01*
X126591512Y-58307426D01*
X126587119Y-58295768D01*
X126577720Y-58220320D01*
X126587482Y-58142562D01*
X126698491Y-57608403D01*
X126704433Y-57582746D01*
X126729911Y-57509324D01*
X126771031Y-57443539D01*
X126774225Y-57439865D01*
X126834572Y-57396943D01*
X126906952Y-57383822D01*
X126962748Y-57392220D01*
G37*
G36*
X122990626Y-55592887D02*
G01*
X122642041Y-55592887D01*
X122922007Y-55084373D01*
X122990626Y-55592887D01*
G37*
G36*
X127490793Y-61309167D02*
G01*
X116593460Y-61309167D01*
X116593460Y-59651397D01*
X121274834Y-59651397D01*
X121450688Y-61142500D01*
X121665378Y-61142500D01*
X122435109Y-61142500D01*
X122709882Y-61142500D01*
X123019827Y-59651397D01*
X122784987Y-59651397D01*
X122546850Y-59752147D01*
X122484935Y-60050368D01*
X122676543Y-59981857D01*
X122435109Y-61142500D01*
X121665378Y-61142500D01*
X122460388Y-59651397D01*
X122177555Y-59651397D01*
X121660981Y-60646076D01*
X121557667Y-59651397D01*
X121274834Y-59651397D01*
X116593460Y-59651397D01*
X116593460Y-58622500D01*
X116760127Y-58622500D01*
X116882493Y-58622500D01*
X117737221Y-58622500D01*
X117793641Y-58351756D01*
X117091177Y-58351756D01*
X117288567Y-57402140D01*
X117954841Y-57402140D01*
X118351895Y-57402140D01*
X118098089Y-58622500D01*
X118372863Y-58622500D01*
X118455224Y-58226488D01*
X118977143Y-58226488D01*
X118980125Y-58308933D01*
X118994583Y-58383264D01*
X118999383Y-58398602D01*
X119031368Y-58468340D01*
X119076663Y-58526486D01*
X119135267Y-58573040D01*
X119176637Y-58595078D01*
X119247001Y-58619585D01*
X119327333Y-58633834D01*
X119407109Y-58637887D01*
X119449824Y-58636411D01*
X119524457Y-58626316D01*
X119596192Y-58606658D01*
X119665029Y-58577437D01*
X119701965Y-58557204D01*
X119765337Y-58514024D01*
X119824711Y-58462150D01*
X119880085Y-58401582D01*
X119885983Y-58394323D01*
X119930823Y-58332899D01*
X119950345Y-58300560D01*
X120226978Y-58300560D01*
X120229963Y-58377860D01*
X120248831Y-58454911D01*
X120284185Y-58519918D01*
X120289747Y-58527175D01*
X120349952Y-58582128D01*
X120418794Y-58615307D01*
X120490864Y-58632242D01*
X120573979Y-58637887D01*
X120623856Y-58636021D01*
X120706100Y-58623774D01*
X120710180Y-58622500D01*
X121235999Y-58622500D01*
X122098787Y-58622500D01*
X122155207Y-58351756D01*
X121656586Y-58351756D01*
X121706892Y-58300560D01*
X122326978Y-58300560D01*
X122329963Y-58377860D01*
X122348831Y-58454911D01*
X122384185Y-58519918D01*
X122389747Y-58527175D01*
X122449952Y-58582128D01*
X122518794Y-58615307D01*
X122590864Y-58632242D01*
X122673979Y-58637887D01*
X122723856Y-58636021D01*
X122806100Y-58623774D01*
X122881927Y-58600097D01*
X122951337Y-58564990D01*
X123014332Y-58518452D01*
X123062481Y-58470251D01*
X123110484Y-58405388D01*
X123149686Y-58331234D01*
X123164585Y-58291487D01*
X123416565Y-58291487D01*
X123418655Y-58367699D01*
X123438215Y-58442248D01*
X123457657Y-58480962D01*
X123507624Y-58542254D01*
X123569740Y-58586596D01*
X123581554Y-58592807D01*
X123653027Y-58619805D01*
X123727545Y-58633830D01*
X123802381Y-58637887D01*
X123828269Y-58637436D01*
X123903343Y-58630674D01*
X123941194Y-58622500D01*
X125632737Y-58622500D01*
X125907510Y-58622500D01*
X125975422Y-58295784D01*
X126286294Y-58295784D01*
X126287622Y-58379384D01*
X126304703Y-58452909D01*
X126342751Y-58523581D01*
X126353981Y-58537423D01*
X126417231Y-58588659D01*
X126490922Y-58619022D01*
X126568888Y-58633868D01*
X126645734Y-58637887D01*
X126711165Y-58635132D01*
X126784392Y-58624553D01*
X126862530Y-58602183D01*
X126932815Y-58569015D01*
X126995246Y-58525047D01*
X127034886Y-58487709D01*
X127082778Y-58428464D01*
X127121800Y-58361084D01*
X127151951Y-58285570D01*
X127170734Y-58214370D01*
X127311418Y-57536596D01*
X127313881Y-57524247D01*
X127324126Y-57442555D01*
X127322135Y-57369172D01*
X127304876Y-57295481D01*
X127266355Y-57225553D01*
X127255038Y-57211933D01*
X127191501Y-57161517D01*
X127117702Y-57131641D01*
X127039753Y-57117033D01*
X126963006Y-57113079D01*
X126897777Y-57115834D01*
X126824722Y-57126412D01*
X126746686Y-57148782D01*
X126676399Y-57181951D01*
X126613860Y-57225919D01*
X126574229Y-57263257D01*
X126526380Y-57322502D01*
X126487435Y-57389881D01*
X126457397Y-57465395D01*
X126438738Y-57536596D01*
X126298054Y-58214370D01*
X126297195Y-58220320D01*
X126286294Y-58295784D01*
X125975422Y-58295784D01*
X126217454Y-57131397D01*
X125982615Y-57131397D01*
X125744478Y-57232147D01*
X125682563Y-57530368D01*
X125874171Y-57461857D01*
X125632737Y-58622500D01*
X123941194Y-58622500D01*
X123982204Y-58613644D01*
X124056272Y-58586596D01*
X124070458Y-58580021D01*
X124136969Y-58542254D01*
X124196110Y-58496330D01*
X124247880Y-58442248D01*
X124257298Y-58430446D01*
X124298421Y-58367699D01*
X124329598Y-58298727D01*
X124350828Y-58223529D01*
X124632196Y-58223529D01*
X125346606Y-58223529D01*
X125403027Y-57952786D01*
X124688616Y-57952786D01*
X124632196Y-58223529D01*
X124350828Y-58223529D01*
X124355957Y-58198982D01*
X124363651Y-58143959D01*
X124360079Y-58064601D01*
X124338372Y-57989056D01*
X124314902Y-57942779D01*
X124267933Y-57884613D01*
X124206847Y-57839945D01*
X124253330Y-57816704D01*
X124316699Y-57772998D01*
X124372444Y-57718679D01*
X124400479Y-57683284D01*
X124437281Y-57619751D01*
X124461104Y-57546854D01*
X124469164Y-57508019D01*
X124478365Y-57443873D01*
X124476086Y-57366078D01*
X124453653Y-57289123D01*
X124410179Y-57223354D01*
X124348481Y-57171641D01*
X124280354Y-57139882D01*
X124199726Y-57121495D01*
X124118920Y-57116376D01*
X124070869Y-57118048D01*
X123990912Y-57129017D01*
X123916214Y-57150225D01*
X123846776Y-57181670D01*
X123782597Y-57223354D01*
X123749046Y-57251204D01*
X123698129Y-57305257D01*
X123657133Y-57366078D01*
X123626061Y-57433665D01*
X123604911Y-57508019D01*
X123596851Y-57546854D01*
X123593033Y-57569231D01*
X123593094Y-57635674D01*
X123593103Y-57645115D01*
X123614070Y-57717213D01*
X123621221Y-57731863D01*
X123667509Y-57795356D01*
X123726544Y-57839945D01*
X123712786Y-57846453D01*
X123647564Y-57884613D01*
X123588280Y-57932148D01*
X123534935Y-57989056D01*
X123490335Y-58051745D01*
X123454084Y-58123762D01*
X123431254Y-58198982D01*
X123426125Y-58223529D01*
X123421165Y-58258791D01*
X123416565Y-58291487D01*
X123164585Y-58291487D01*
X123176283Y-58260278D01*
X123196415Y-58182496D01*
X123196415Y-58181397D01*
X123201488Y-58155256D01*
X123211092Y-58081334D01*
X123211651Y-58003621D01*
X123198250Y-57926055D01*
X123165274Y-57853135D01*
X123120944Y-57802164D01*
X123055307Y-57762230D01*
X122982950Y-57742206D01*
X122908819Y-57736631D01*
X122900542Y-57736730D01*
X122852415Y-57744225D01*
X123269321Y-57131397D01*
X122958278Y-57131397D01*
X122529265Y-57773633D01*
X122520776Y-57786430D01*
X122480562Y-57851016D01*
X122444068Y-57916604D01*
X122411296Y-57983194D01*
X122385794Y-58042529D01*
X122360921Y-58112767D01*
X122341687Y-58186526D01*
X122341687Y-58187625D01*
X122334465Y-58226964D01*
X122329489Y-58275882D01*
X122326978Y-58300560D01*
X121706892Y-58300560D01*
X122111976Y-57888306D01*
X122159110Y-57835841D01*
X122205585Y-57773832D01*
X122246432Y-57707322D01*
X122274855Y-57650946D01*
X122302274Y-57581727D01*
X122323002Y-57505821D01*
X122323002Y-57504722D01*
X122332967Y-57438154D01*
X122331948Y-57358573D01*
X122311260Y-57281579D01*
X122269879Y-57217859D01*
X122264044Y-57211615D01*
X122201508Y-57164343D01*
X122130788Y-57135800D01*
X122057225Y-57121232D01*
X121972758Y-57116376D01*
X121926041Y-57118202D01*
X121847784Y-57130186D01*
X121773981Y-57153354D01*
X121704630Y-57187708D01*
X121639733Y-57233246D01*
X121589127Y-57280421D01*
X121537608Y-57343924D01*
X121494189Y-57416543D01*
X121463419Y-57486043D01*
X121438599Y-57562241D01*
X121438232Y-57563340D01*
X121719967Y-57563340D01*
X121720333Y-57562241D01*
X121750960Y-57491777D01*
X121799101Y-57432548D01*
X121843850Y-57402898D01*
X121918170Y-57386753D01*
X121950891Y-57388814D01*
X122019653Y-57419726D01*
X122032658Y-57437929D01*
X122038703Y-57513148D01*
X122037971Y-57514980D01*
X122032498Y-57535932D01*
X122000968Y-57604007D01*
X121977647Y-57639367D01*
X121929161Y-57696697D01*
X121288756Y-58369342D01*
X121235999Y-58622500D01*
X120710180Y-58622500D01*
X120781927Y-58600097D01*
X120851337Y-58564990D01*
X120914332Y-58518452D01*
X120962481Y-58470251D01*
X121010484Y-58405388D01*
X121049686Y-58331234D01*
X121076283Y-58260278D01*
X121096415Y-58182496D01*
X121096415Y-58181397D01*
X121101488Y-58155256D01*
X121111092Y-58081334D01*
X121111651Y-58003621D01*
X121098250Y-57926055D01*
X121065274Y-57853135D01*
X121020944Y-57802164D01*
X120955307Y-57762230D01*
X120882950Y-57742206D01*
X120808819Y-57736631D01*
X120800542Y-57736730D01*
X120752415Y-57744225D01*
X121169321Y-57131397D01*
X120858278Y-57131397D01*
X120429265Y-57773633D01*
X120420776Y-57786430D01*
X120380562Y-57851016D01*
X120344068Y-57916604D01*
X120311296Y-57983194D01*
X120285794Y-58042529D01*
X120260921Y-58112767D01*
X120241687Y-58186526D01*
X120241687Y-58187625D01*
X120234465Y-58226964D01*
X120229489Y-58275882D01*
X120226978Y-58300560D01*
X119950345Y-58300560D01*
X119971495Y-58265523D01*
X120008000Y-58192192D01*
X120036523Y-58123145D01*
X119751491Y-58123145D01*
X119723413Y-58182000D01*
X119682798Y-58243072D01*
X119630591Y-58296069D01*
X119611666Y-58310323D01*
X119541642Y-58345245D01*
X119465727Y-58356885D01*
X119431291Y-58355132D01*
X119356994Y-58334165D01*
X119301596Y-58285078D01*
X119278584Y-58234402D01*
X119270615Y-58158290D01*
X119280347Y-58082112D01*
X119365343Y-57672883D01*
X119387297Y-57596670D01*
X119423016Y-57526140D01*
X119470856Y-57469551D01*
X119518061Y-57434485D01*
X119590018Y-57405583D01*
X119665029Y-57397011D01*
X119696846Y-57399213D01*
X119765780Y-57424855D01*
X119787943Y-57442400D01*
X119830626Y-57504356D01*
X119847273Y-57557937D01*
X119854073Y-57631118D01*
X120139105Y-57631118D01*
X120140062Y-57581034D01*
X120136049Y-57505924D01*
X120123378Y-57428815D01*
X120099171Y-57352315D01*
X120065139Y-57285746D01*
X120016795Y-57224836D01*
X119957022Y-57176826D01*
X119944947Y-57169506D01*
X119872553Y-57137687D01*
X119797949Y-57121158D01*
X119723648Y-57116376D01*
X119642154Y-57120475D01*
X119565103Y-57132771D01*
X119492495Y-57153264D01*
X119424328Y-57181955D01*
X119376539Y-57208608D01*
X119310603Y-57256316D01*
X119251564Y-57313297D01*
X119204876Y-57371732D01*
X119194128Y-57387420D01*
X119155087Y-57454350D01*
X119122367Y-57527966D01*
X119098920Y-57597865D01*
X119080312Y-57672883D01*
X118995315Y-58082112D01*
X118984127Y-58146392D01*
X118977143Y-58226488D01*
X118455224Y-58226488D01*
X118626669Y-57402140D01*
X119024258Y-57402140D01*
X119080312Y-57131397D01*
X118010895Y-57131397D01*
X117954841Y-57402140D01*
X117288567Y-57402140D01*
X117344844Y-57131397D01*
X117070071Y-57131397D01*
X116760127Y-58622500D01*
X116593460Y-58622500D01*
X116593460Y-54882140D01*
X120649816Y-54882140D01*
X121046870Y-54882140D01*
X120793064Y-56102500D01*
X121067838Y-56102500D01*
X121628741Y-56102500D01*
X121913773Y-56102500D01*
X122065447Y-56102500D01*
X122361470Y-56102500D01*
X122492982Y-55863630D01*
X123027161Y-55863630D01*
X123059394Y-56102500D01*
X123355050Y-56102500D01*
X123107387Y-54611397D01*
X122932998Y-54611397D01*
X122361949Y-55592887D01*
X122065447Y-56102500D01*
X121913773Y-56102500D01*
X122223717Y-54611397D01*
X121938685Y-54611397D01*
X121628741Y-56102500D01*
X121067838Y-56102500D01*
X121321644Y-54882140D01*
X121719233Y-54882140D01*
X121775287Y-54611397D01*
X120705870Y-54611397D01*
X120649816Y-54882140D01*
X116593460Y-54882140D01*
X116593460Y-54444730D01*
X127490793Y-54444730D01*
X127490793Y-61309167D01*
G37*
G36*
X134600194Y-89406308D02*
G01*
X134671498Y-89425647D01*
X134732772Y-89468818D01*
X134757639Y-89505615D01*
X134775192Y-89580158D01*
X134767943Y-89657496D01*
X134676718Y-90096400D01*
X134654765Y-90166739D01*
X134616401Y-90232046D01*
X134563145Y-90284712D01*
X134557603Y-90288836D01*
X134490502Y-90325567D01*
X134419734Y-90345209D01*
X134339663Y-90351756D01*
X134125930Y-90351756D01*
X134323320Y-89402140D01*
X134537133Y-89402140D01*
X134600194Y-89406308D01*
G37*
G36*
X135232956Y-90804554D02*
G01*
X130883481Y-90804554D01*
X130883481Y-90234713D01*
X131050148Y-90234713D01*
X131054685Y-90311475D01*
X131073526Y-90389492D01*
X131079047Y-90404076D01*
X131114295Y-90470773D01*
X131162280Y-90527095D01*
X131223002Y-90573040D01*
X131265163Y-90595078D01*
X131335552Y-90619585D01*
X131414519Y-90633834D01*
X131491914Y-90637887D01*
X131570430Y-90633559D01*
X131634386Y-90622500D01*
X133794879Y-90622500D01*
X133933365Y-90622500D01*
X134276282Y-90622500D01*
X134300038Y-90622238D01*
X134380121Y-90617196D01*
X134455434Y-90605738D01*
X134535668Y-90584787D01*
X134609674Y-90555455D01*
X134677428Y-90518452D01*
X134738542Y-90474855D01*
X134793016Y-90424663D01*
X134840849Y-90367876D01*
X134882020Y-90305205D01*
X134916137Y-90237725D01*
X134943202Y-90165437D01*
X134963215Y-90088340D01*
X135051142Y-89665922D01*
X135054270Y-89650143D01*
X135064821Y-89574595D01*
X135066289Y-89491304D01*
X135055547Y-89416051D01*
X135027583Y-89338413D01*
X134982999Y-89271714D01*
X134958978Y-89246638D01*
X134892409Y-89197719D01*
X134823630Y-89166476D01*
X134744032Y-89145100D01*
X134669435Y-89134823D01*
X134587325Y-89131397D01*
X134379597Y-89131397D01*
X134104824Y-89131397D01*
X133851157Y-90351756D01*
X133794879Y-90622500D01*
X131634386Y-90622500D01*
X131640747Y-90621400D01*
X132325392Y-90621400D01*
X132588075Y-90621400D01*
X132811530Y-89545872D01*
X133105015Y-90621400D01*
X133442803Y-90621400D01*
X133752381Y-89131397D01*
X133489332Y-89131397D01*
X133262652Y-90222396D01*
X132970926Y-89131397D01*
X132634970Y-89131397D01*
X132325392Y-90621400D01*
X131640747Y-90621400D01*
X131645512Y-90620576D01*
X131717159Y-90598938D01*
X131785371Y-90568644D01*
X131849485Y-90530496D01*
X131908470Y-90485296D01*
X131962325Y-90433043D01*
X132011052Y-90373738D01*
X132016766Y-90365843D01*
X132058463Y-90299691D01*
X132093016Y-90228227D01*
X132120424Y-90151451D01*
X132138546Y-90079914D01*
X132198997Y-89789021D01*
X131693414Y-89789021D01*
X131637360Y-90059398D01*
X131857911Y-90059398D01*
X131852416Y-90084310D01*
X131833585Y-90149647D01*
X131798606Y-90217776D01*
X131745438Y-90277384D01*
X131697254Y-90310856D01*
X131625435Y-90338445D01*
X131551997Y-90346627D01*
X131518025Y-90345071D01*
X131442839Y-90326457D01*
X131383103Y-90282880D01*
X131364951Y-90257369D01*
X131343834Y-90186423D01*
X131349398Y-90112887D01*
X131440989Y-89672883D01*
X131462141Y-89602780D01*
X131498301Y-89536163D01*
X131547967Y-89480542D01*
X131596625Y-89445122D01*
X131668624Y-89415927D01*
X131741774Y-89407269D01*
X131803554Y-89414843D01*
X131873299Y-89446837D01*
X131913951Y-89487839D01*
X131937779Y-89559310D01*
X132234534Y-89559310D01*
X132234572Y-89551009D01*
X132229048Y-89471654D01*
X132212790Y-89398953D01*
X132182510Y-89326669D01*
X132144979Y-89268716D01*
X132093695Y-89214968D01*
X132031934Y-89171697D01*
X132025832Y-89168293D01*
X131954174Y-89137986D01*
X131881817Y-89121778D01*
X131802590Y-89116376D01*
X131723891Y-89120704D01*
X131648626Y-89133687D01*
X131576796Y-89155325D01*
X131508400Y-89185619D01*
X131444286Y-89223583D01*
X131385302Y-89268600D01*
X131331446Y-89320670D01*
X131282720Y-89379792D01*
X131277028Y-89387642D01*
X131235514Y-89453485D01*
X131201145Y-89524731D01*
X131173919Y-89601381D01*
X131155958Y-89672883D01*
X131064366Y-90112887D01*
X131055993Y-90161274D01*
X131050148Y-90234713D01*
X130883481Y-90234713D01*
X130883481Y-88949709D01*
X135232956Y-88949709D01*
X135232956Y-90804554D01*
G37*
G36*
X109644821Y-62409301D02*
G01*
X109704212Y-62453065D01*
X109726103Y-62512324D01*
X109721432Y-62588986D01*
X109720339Y-62594107D01*
X109694595Y-62663633D01*
X109647792Y-62722709D01*
X109590691Y-62759261D01*
X109516634Y-62773633D01*
X109199588Y-62773633D01*
X109276808Y-62402140D01*
X109593937Y-62402140D01*
X109644821Y-62409301D01*
G37*
G36*
X110840354Y-62406308D02*
G01*
X110911658Y-62425647D01*
X110972932Y-62468818D01*
X110997799Y-62505615D01*
X111015352Y-62580158D01*
X111008103Y-62657496D01*
X110916878Y-63096400D01*
X110894925Y-63166739D01*
X110856561Y-63232046D01*
X110803305Y-63284712D01*
X110797763Y-63288836D01*
X110730662Y-63325567D01*
X110659894Y-63345209D01*
X110579823Y-63351756D01*
X110366090Y-63351756D01*
X110563480Y-62402140D01*
X110777293Y-62402140D01*
X110840354Y-62406308D01*
G37*
G36*
X111473116Y-63789167D02*
G01*
X108581701Y-63789167D01*
X108581701Y-63622500D01*
X108748368Y-63622500D01*
X109023141Y-63622500D01*
X110035039Y-63622500D01*
X110173525Y-63622500D01*
X110516442Y-63622500D01*
X110540198Y-63622238D01*
X110620281Y-63617196D01*
X110695594Y-63605738D01*
X110775828Y-63584787D01*
X110849834Y-63555455D01*
X110917588Y-63518452D01*
X110978702Y-63474855D01*
X111033176Y-63424663D01*
X111081009Y-63367876D01*
X111122180Y-63305205D01*
X111156297Y-63237725D01*
X111183362Y-63165437D01*
X111203375Y-63088340D01*
X111291302Y-62665922D01*
X111294430Y-62650143D01*
X111304981Y-62574595D01*
X111306449Y-62491304D01*
X111295707Y-62416051D01*
X111267743Y-62338413D01*
X111223159Y-62271714D01*
X111199138Y-62246638D01*
X111132569Y-62197719D01*
X111063790Y-62166476D01*
X110984192Y-62145100D01*
X110909595Y-62134823D01*
X110827485Y-62131397D01*
X110619757Y-62131397D01*
X110344984Y-62131397D01*
X110091317Y-63351756D01*
X110035039Y-63622500D01*
X109023141Y-63622500D01*
X109143387Y-63044010D01*
X109453619Y-63044010D01*
X109479117Y-63043518D01*
X109553293Y-63036128D01*
X109631632Y-63017516D01*
X109705678Y-62987957D01*
X109719916Y-62980724D01*
X109786856Y-62939150D01*
X109846712Y-62888560D01*
X109899485Y-62828954D01*
X109918387Y-62802765D01*
X109958730Y-62732533D01*
X109986596Y-62663513D01*
X110006463Y-62588986D01*
X110009827Y-62571815D01*
X110018699Y-62498020D01*
X110016523Y-62422686D01*
X109999502Y-62347918D01*
X109978093Y-62299489D01*
X109933013Y-62237580D01*
X109872374Y-62188550D01*
X109860789Y-62181629D01*
X109790575Y-62151546D01*
X109717202Y-62135918D01*
X109643396Y-62131397D01*
X109333085Y-62131397D01*
X109058312Y-62131397D01*
X108924815Y-62773633D01*
X108748368Y-63622500D01*
X108581701Y-63622500D01*
X108581701Y-61964730D01*
X111473116Y-61964730D01*
X111473116Y-63789167D01*
G37*
D10*
G36*
X108335001Y-83731995D02*
G01*
X107341176Y-84056105D01*
X107341176Y-83904430D01*
X108120311Y-83665805D01*
X107341176Y-83427180D01*
X107341176Y-83275505D01*
X108335001Y-83599371D01*
X108335001Y-83731995D01*
G37*
G36*
X108345259Y-82920620D02*
G01*
X108342425Y-82973165D01*
X108331957Y-83028606D01*
X108313774Y-83077737D01*
X108287878Y-83120556D01*
X108264659Y-83147277D01*
X108226134Y-83178588D01*
X108181297Y-83202208D01*
X108130150Y-83218138D01*
X108081286Y-83225672D01*
X108037024Y-83227633D01*
X107920032Y-83227633D01*
X107867762Y-83224808D01*
X107812641Y-83214372D01*
X107763831Y-83196244D01*
X107721332Y-83170427D01*
X107694840Y-83147277D01*
X107663815Y-83108966D01*
X107640410Y-83064344D01*
X107624625Y-83013410D01*
X107617161Y-82964729D01*
X107615217Y-82920620D01*
X107618103Y-82870164D01*
X107627944Y-82818354D01*
X107644770Y-82770411D01*
X107670290Y-82723917D01*
X107702885Y-82685185D01*
X107728546Y-82663677D01*
X107818915Y-82764305D01*
X107785470Y-82800755D01*
X107766403Y-82833914D01*
X107751394Y-82880565D01*
X107747841Y-82918666D01*
X107753180Y-82969807D01*
X107771183Y-83015855D01*
X107793026Y-83043718D01*
X107835667Y-83072500D01*
X107885905Y-83086044D01*
X107920032Y-83088171D01*
X108037024Y-83088171D01*
X108085816Y-83083830D01*
X108134542Y-83067160D01*
X108166961Y-83043718D01*
X108196533Y-83001635D01*
X108210449Y-82952199D01*
X108212635Y-82918666D01*
X108206375Y-82869971D01*
X108192851Y-82833914D01*
X108165339Y-82792054D01*
X108136675Y-82764305D01*
X108233884Y-82663677D01*
X108270417Y-82697268D01*
X108300150Y-82738690D01*
X108316194Y-82770655D01*
X108332741Y-82818789D01*
X108342420Y-82870503D01*
X108345259Y-82920620D01*
G37*
G36*
X108345259Y-82224040D02*
G01*
X108342425Y-82276584D01*
X108331957Y-82332026D01*
X108313774Y-82381156D01*
X108287878Y-82423976D01*
X108264659Y-82450697D01*
X108226134Y-82482007D01*
X108181297Y-82505628D01*
X108130150Y-82521558D01*
X108081286Y-82529091D01*
X108037024Y-82531053D01*
X107920032Y-82531053D01*
X107867762Y-82528228D01*
X107812641Y-82517791D01*
X107763831Y-82499664D01*
X107721332Y-82473846D01*
X107694840Y-82450697D01*
X107663815Y-82412386D01*
X107640410Y-82367763D01*
X107624625Y-82316829D01*
X107617161Y-82268149D01*
X107615217Y-82224040D01*
X107618103Y-82173583D01*
X107627944Y-82121773D01*
X107644770Y-82073830D01*
X107670290Y-82027336D01*
X107702885Y-81988605D01*
X107728546Y-81967096D01*
X107818915Y-82067724D01*
X107785470Y-82104174D01*
X107766403Y-82137333D01*
X107751394Y-82183985D01*
X107747841Y-82222086D01*
X107753180Y-82273227D01*
X107771183Y-82319274D01*
X107793026Y-82347138D01*
X107835667Y-82375919D01*
X107885905Y-82389463D01*
X107920032Y-82391590D01*
X108037024Y-82391590D01*
X108085816Y-82387249D01*
X108134542Y-82370579D01*
X108166961Y-82347138D01*
X108196533Y-82305055D01*
X108210449Y-82255618D01*
X108212635Y-82222086D01*
X108206375Y-82173391D01*
X108192851Y-82137333D01*
X108165339Y-82095473D01*
X108136675Y-82067724D01*
X108233884Y-81967096D01*
X108270417Y-82000687D01*
X108300150Y-82042109D01*
X108316194Y-82074074D01*
X108332741Y-82122209D01*
X108342420Y-82173922D01*
X108345259Y-82224040D01*
G37*
D11*
G36*
X116724555Y-91258239D02*
G01*
X114869710Y-91258239D01*
X114869710Y-91035518D01*
X115051398Y-91035518D01*
X115322141Y-91091572D01*
X115322141Y-90694517D01*
X116542501Y-90948324D01*
X116542501Y-90673550D01*
X115322141Y-90419743D01*
X115322141Y-90022155D01*
X115051398Y-89966101D01*
X115051398Y-91035518D01*
X114869710Y-91035518D01*
X114869710Y-89507779D01*
X115051398Y-89507779D01*
X115051398Y-89782553D01*
X116542501Y-90092497D01*
X116542501Y-89993212D01*
X116542501Y-89115403D01*
X116271757Y-89058983D01*
X116271757Y-89761446D01*
X115937633Y-89691994D01*
X115937633Y-89100382D01*
X115666890Y-89043962D01*
X115666890Y-89635716D01*
X115322141Y-89564056D01*
X115322141Y-88861513D01*
X115051398Y-88805459D01*
X115051398Y-89507779D01*
X114869710Y-89507779D01*
X114869710Y-88008250D01*
X115036377Y-88008250D01*
X115037427Y-88055603D01*
X115043842Y-88130960D01*
X115059238Y-88215508D01*
X115083031Y-88293642D01*
X115115223Y-88365363D01*
X115155812Y-88430668D01*
X115171127Y-88450854D01*
X115221712Y-88505796D01*
X115279251Y-88552314D01*
X115343745Y-88590409D01*
X115415195Y-88620080D01*
X115493600Y-88641328D01*
X115494699Y-88641328D01*
X115558904Y-88651930D01*
X115636120Y-88655066D01*
X115710854Y-88641694D01*
X115715878Y-88639919D01*
X115782478Y-88604783D01*
X115835417Y-88549737D01*
X115840776Y-88541605D01*
X115875122Y-88476057D01*
X115899165Y-88402458D01*
X115904013Y-88381679D01*
X115919451Y-88309130D01*
X115932504Y-88236862D01*
X115942341Y-88182834D01*
X115959981Y-88110832D01*
X115968053Y-88087000D01*
X116010906Y-88023638D01*
X116035364Y-88009083D01*
X116109824Y-88006785D01*
X116110923Y-88007151D01*
X116126525Y-88011031D01*
X116194489Y-88047917D01*
X116242815Y-88108634D01*
X116269305Y-88172288D01*
X116284799Y-88247890D01*
X116289343Y-88326987D01*
X116285586Y-88398443D01*
X116272776Y-88473903D01*
X116250875Y-88546073D01*
X116229625Y-88595143D01*
X116190195Y-88661106D01*
X116141698Y-88717898D01*
X116373240Y-88893020D01*
X116384080Y-88881983D01*
X116433738Y-88821291D01*
X116473258Y-88756366D01*
X116488087Y-88726249D01*
X116515445Y-88657017D01*
X116536272Y-88582343D01*
X116545729Y-88534166D01*
X116554848Y-88459840D01*
X116557888Y-88383041D01*
X116556039Y-88318303D01*
X116548527Y-88241551D01*
X116535238Y-88169432D01*
X116511663Y-88089005D01*
X116479768Y-88015250D01*
X116439552Y-87948167D01*
X116424338Y-87927407D01*
X116374179Y-87871001D01*
X116317245Y-87823405D01*
X116253536Y-87784619D01*
X116183053Y-87754643D01*
X116105794Y-87733477D01*
X116103596Y-87733111D01*
X116050720Y-87724025D01*
X115976767Y-87719664D01*
X115898798Y-87731645D01*
X115828182Y-87764985D01*
X115774601Y-87815909D01*
X115771805Y-87819660D01*
X115732615Y-87884632D01*
X115705358Y-87954029D01*
X115702366Y-87963794D01*
X115681838Y-88037769D01*
X115664692Y-88113031D01*
X115650737Y-88174860D01*
X115631353Y-88248585D01*
X115619777Y-88281359D01*
X115576764Y-88344573D01*
X115544118Y-88362777D01*
X115467954Y-88362891D01*
X115466855Y-88362891D01*
X115462080Y-88361823D01*
X115394829Y-88328289D01*
X115347420Y-88268735D01*
X115325009Y-88215241D01*
X115309072Y-88138579D01*
X115304922Y-88064304D01*
X115305426Y-88043227D01*
X115315123Y-87969276D01*
X115337162Y-87895044D01*
X115350244Y-87863522D01*
X115385392Y-87798583D01*
X115429852Y-87738240D01*
X115192082Y-87572643D01*
X115144769Y-87637045D01*
X115105594Y-87707334D01*
X115077043Y-87776342D01*
X115072119Y-87790600D01*
X115052262Y-87862363D01*
X115040348Y-87934913D01*
X115036377Y-88008250D01*
X114869710Y-88008250D01*
X114869710Y-87436356D01*
X115051398Y-87436356D01*
X115322141Y-87492410D01*
X115322141Y-87095354D01*
X116542501Y-87349161D01*
X116542501Y-87074388D01*
X115322141Y-86820581D01*
X115322141Y-86422992D01*
X115051398Y-86366938D01*
X115051398Y-87436356D01*
X114869710Y-87436356D01*
X114869710Y-86200271D01*
X116724555Y-86200271D01*
X116724555Y-91258239D01*
G37*
D12*
G36*
X128295472Y-67564658D02*
G01*
X128295472Y-67432034D01*
X128634481Y-67432034D01*
X128683114Y-67423946D01*
X128725053Y-67397331D01*
X128732179Y-67389780D01*
X128757390Y-67347358D01*
X128768159Y-67298589D01*
X128769059Y-67277428D01*
X128762972Y-67225385D01*
X128742803Y-67179437D01*
X128732179Y-67165565D01*
X128692344Y-67135061D01*
X128641990Y-67123233D01*
X128634481Y-67123066D01*
X128295472Y-67123066D01*
X128295472Y-66990443D01*
X128629108Y-66990443D01*
X128681177Y-66993949D01*
X128729000Y-67004468D01*
X128776701Y-67024137D01*
X128780783Y-67026346D01*
X128822014Y-67054378D01*
X128856377Y-67089105D01*
X128881655Y-67126486D01*
X128902096Y-67173303D01*
X128914053Y-67225431D01*
X128917559Y-67277428D01*
X128914005Y-67329215D01*
X128901886Y-67381332D01*
X128881167Y-67428370D01*
X128852938Y-67469323D01*
X128817956Y-67503523D01*
X128780294Y-67528754D01*
X128733338Y-67549195D01*
X128681129Y-67561151D01*
X128629108Y-67564658D01*
X128295472Y-67564658D01*
G37*
G36*
X128234656Y-67985000D02*
G01*
X128234656Y-66990443D01*
X128374119Y-66990443D01*
X128374119Y-67985000D01*
X128234656Y-67985000D01*
G37*
G36*
X128793728Y-67985000D02*
G01*
X128566093Y-67533883D01*
X128704823Y-67502376D01*
X128959324Y-67985000D01*
X128793728Y-67985000D01*
G37*
G36*
X129640029Y-66991175D02*
G01*
X129640029Y-67115495D01*
X129382842Y-67985000D01*
X129234586Y-67985000D01*
X129491530Y-67123555D01*
X129238738Y-67123555D01*
X129238738Y-67266437D01*
X129099276Y-67266437D01*
X129099276Y-66991175D01*
X129640029Y-66991175D01*
G37*
G36*
X120037516Y-74425258D02*
G01*
X119987218Y-74422373D01*
X119934463Y-74412230D01*
X119885766Y-74394784D01*
X119855555Y-74379096D01*
X119814492Y-74350193D01*
X119778954Y-74315417D01*
X119748941Y-74274768D01*
X119734655Y-74249647D01*
X119713876Y-74200458D01*
X119701114Y-74153037D01*
X119693725Y-74102135D01*
X119691668Y-74054741D01*
X119691668Y-73781922D01*
X119694355Y-73727670D01*
X119702415Y-73677020D01*
X119715849Y-73629972D01*
X119734655Y-73586528D01*
X119761598Y-73542517D01*
X119794066Y-73504456D01*
X119832060Y-73472347D01*
X119855555Y-73457079D01*
X119901548Y-73434764D01*
X119951597Y-73419753D01*
X120005704Y-73412044D01*
X120037516Y-73410917D01*
X120089947Y-73414519D01*
X120139469Y-73425324D01*
X120186080Y-73443332D01*
X120195053Y-73447798D01*
X120237490Y-73473734D01*
X120275348Y-73505443D01*
X120308626Y-73542924D01*
X120314732Y-73551113D01*
X120341775Y-73594699D01*
X120362760Y-73642723D01*
X120376467Y-73689737D01*
X120379945Y-73706207D01*
X120237063Y-73706207D01*
X120218346Y-73658721D01*
X120193588Y-73622431D01*
X120156115Y-73587140D01*
X120122269Y-73566744D01*
X120075257Y-73550550D01*
X120037516Y-73546716D01*
X119988836Y-73551836D01*
X119941409Y-73569534D01*
X119900995Y-73599874D01*
X119890238Y-73611441D01*
X119860872Y-73655795D01*
X119843741Y-73702649D01*
X119835421Y-73756070D01*
X119834551Y-73781922D01*
X119834551Y-74054741D01*
X119838031Y-74105132D01*
X119850267Y-74155580D01*
X119874195Y-74203885D01*
X119890238Y-74224979D01*
X119928549Y-74258853D01*
X119973872Y-74280181D01*
X120026208Y-74288964D01*
X120037516Y-74289214D01*
X120089054Y-74282442D01*
X120134409Y-74264170D01*
X120159882Y-74248182D01*
X120197640Y-74212324D01*
X120222959Y-74170523D01*
X120237063Y-74129968D01*
X120379945Y-74129968D01*
X120367835Y-74178199D01*
X120348535Y-74227620D01*
X120323080Y-74272653D01*
X120314244Y-74285307D01*
X120281800Y-74323813D01*
X120244921Y-74356595D01*
X120203604Y-74383652D01*
X120194809Y-74388377D01*
X120148908Y-74407826D01*
X120100050Y-74420071D01*
X120048234Y-74425114D01*
X120037516Y-74425258D01*
G37*
G36*
X120543588Y-74262592D02*
G01*
X120543588Y-74141448D01*
X120877223Y-73421664D01*
X121020594Y-73421664D01*
X120695262Y-74133387D01*
X121182771Y-74133387D01*
X121182771Y-74262592D01*
X120543588Y-74262592D01*
G37*
G36*
X120972234Y-74415732D02*
G01*
X120972234Y-73830526D01*
X121108277Y-73830526D01*
X121108277Y-74415732D01*
X120972234Y-74415732D01*
G37*
G36*
X129277886Y-64494658D02*
G01*
X129277886Y-64362034D01*
X129616895Y-64362034D01*
X129665528Y-64353946D01*
X129707467Y-64327331D01*
X129714593Y-64319780D01*
X129739804Y-64277358D01*
X129750573Y-64228589D01*
X129751473Y-64207428D01*
X129745386Y-64155385D01*
X129725217Y-64109437D01*
X129714593Y-64095565D01*
X129674758Y-64065061D01*
X129624404Y-64053233D01*
X129616895Y-64053066D01*
X129277886Y-64053066D01*
X129277886Y-63920443D01*
X129611522Y-63920443D01*
X129663591Y-63923949D01*
X129711414Y-63934468D01*
X129759115Y-63954137D01*
X129763197Y-63956346D01*
X129804428Y-63984378D01*
X129838791Y-64019105D01*
X129864069Y-64056486D01*
X129884510Y-64103303D01*
X129896467Y-64155431D01*
X129899973Y-64207428D01*
X129896419Y-64259215D01*
X129884300Y-64311332D01*
X129863581Y-64358370D01*
X129835352Y-64399323D01*
X129800370Y-64433523D01*
X129762708Y-64458754D01*
X129715752Y-64479195D01*
X129663543Y-64491151D01*
X129611522Y-64494658D01*
X129277886Y-64494658D01*
G37*
G36*
X129217070Y-64915000D02*
G01*
X129217070Y-63920443D01*
X129356533Y-63920443D01*
X129356533Y-64915000D01*
X129217070Y-64915000D01*
G37*
G36*
X129776142Y-64915000D02*
G01*
X129548507Y-64463883D01*
X129687237Y-64432376D01*
X129941738Y-64915000D01*
X129776142Y-64915000D01*
G37*
G36*
X130365988Y-64925258D02*
G01*
X130315503Y-64922300D01*
X130264653Y-64912215D01*
X130218710Y-64894972D01*
X130174769Y-64868296D01*
X130137835Y-64834064D01*
X130117105Y-64807044D01*
X130092341Y-64760527D01*
X130076339Y-64711792D01*
X130068012Y-64667581D01*
X130210161Y-64667581D01*
X130224527Y-64717196D01*
X130255714Y-64757756D01*
X130260720Y-64761615D01*
X130307553Y-64783780D01*
X130358049Y-64791053D01*
X130365988Y-64791168D01*
X130417030Y-64785082D01*
X130463201Y-64762932D01*
X130473211Y-64754288D01*
X130500735Y-64713111D01*
X130511220Y-64662768D01*
X130511557Y-64650484D01*
X130511557Y-64620443D01*
X130506474Y-64569346D01*
X130487694Y-64521802D01*
X130475409Y-64505404D01*
X130434866Y-64476127D01*
X130385017Y-64464974D01*
X130372827Y-64464616D01*
X130302485Y-64464616D01*
X130302485Y-64331992D01*
X130372827Y-64331992D01*
X130422054Y-64324317D01*
X130463441Y-64297065D01*
X130488216Y-64251890D01*
X130495162Y-64202576D01*
X130495193Y-64198635D01*
X130495193Y-64167861D01*
X130487733Y-64118580D01*
X130461243Y-64077002D01*
X130417366Y-64051846D01*
X130365256Y-64044762D01*
X130316712Y-64052212D01*
X130276107Y-64074560D01*
X130245210Y-64112967D01*
X130227592Y-64160698D01*
X130225793Y-64168593D01*
X130084376Y-64168593D01*
X130096174Y-64117414D01*
X130115782Y-64065478D01*
X130141924Y-64020534D01*
X130174599Y-63982581D01*
X130179142Y-63978328D01*
X130218343Y-63948836D01*
X130262429Y-63927770D01*
X130311400Y-63915130D01*
X130365256Y-63910917D01*
X130418775Y-63914155D01*
X130466709Y-63923867D01*
X130514649Y-63942895D01*
X130555293Y-63970380D01*
X130564313Y-63978572D01*
X130598317Y-64020995D01*
X130619199Y-64066035D01*
X130631289Y-64117975D01*
X130634655Y-64169082D01*
X130634655Y-64185690D01*
X130629893Y-64234596D01*
X130613836Y-64282681D01*
X130594355Y-64315139D01*
X130559425Y-64352302D01*
X130515083Y-64381359D01*
X130480294Y-64396228D01*
X130527549Y-64411350D01*
X130571265Y-64438232D01*
X130606323Y-64475851D01*
X130631770Y-64522820D01*
X130645738Y-64572432D01*
X130650845Y-64622711D01*
X130651020Y-64634609D01*
X130651020Y-64651217D01*
X130647455Y-64705473D01*
X130636761Y-64754120D01*
X130615810Y-64802846D01*
X130585546Y-64844245D01*
X130576526Y-64853450D01*
X130535432Y-64884866D01*
X130486644Y-64907306D01*
X130437644Y-64919578D01*
X130382753Y-64924977D01*
X130365988Y-64925258D01*
G37*
G36*
X119686749Y-67425258D02*
G01*
X119636672Y-67422896D01*
X119581397Y-67413829D01*
X119531377Y-67397961D01*
X119486611Y-67375292D01*
X119447101Y-67345822D01*
X119429317Y-67328538D01*
X119398356Y-67289468D01*
X119373801Y-67244800D01*
X119355652Y-67194534D01*
X119343908Y-67138669D01*
X119339015Y-67087839D01*
X119338214Y-67055474D01*
X119338214Y-66421175D01*
X119477677Y-66421175D01*
X119477677Y-67060115D01*
X119481096Y-67111390D01*
X119493118Y-67161740D01*
X119516626Y-67208576D01*
X119532387Y-67228398D01*
X119570970Y-67259696D01*
X119618330Y-67279403D01*
X119668459Y-67287227D01*
X119686749Y-67287749D01*
X119739739Y-67283054D01*
X119790143Y-67266825D01*
X119831626Y-67239005D01*
X119842332Y-67228398D01*
X119871312Y-67186357D01*
X119888217Y-67140321D01*
X119896428Y-67086520D01*
X119897286Y-67060115D01*
X119897286Y-66421175D01*
X120036749Y-66421175D01*
X120036749Y-67055474D01*
X120034513Y-67108637D01*
X120027804Y-67157913D01*
X120013851Y-67211912D01*
X119993458Y-67260312D01*
X119966624Y-67303113D01*
X119945158Y-67328538D01*
X119908166Y-67361407D01*
X119865886Y-67387476D01*
X119818316Y-67406745D01*
X119765456Y-67419213D01*
X119707307Y-67424880D01*
X119686749Y-67425258D01*
G37*
G36*
X120488598Y-66421175D02*
G01*
X120488598Y-67415000D01*
X120349135Y-67415000D01*
X120349135Y-66572850D01*
X120207719Y-66659556D01*
X120207719Y-66515453D01*
X120349135Y-66421175D01*
X120488598Y-66421175D01*
G37*
G36*
X122284534Y-76415000D02*
G01*
X122284534Y-75421175D01*
X122423997Y-75421175D01*
X122423997Y-76415000D01*
X122284534Y-76415000D01*
G37*
G36*
X122354143Y-76415000D02*
G01*
X122354143Y-76282376D01*
X122922985Y-76282376D01*
X122922985Y-76415000D01*
X122354143Y-76415000D01*
G37*
G36*
X123305957Y-75421175D02*
G01*
X123305957Y-76415000D01*
X123166495Y-76415000D01*
X123166495Y-75572850D01*
X123025078Y-75659556D01*
X123025078Y-75515453D01*
X123166495Y-75421175D01*
X123305957Y-75421175D01*
G37*
G36*
X120054613Y-72425258D02*
G01*
X120004315Y-72422373D01*
X119951560Y-72412230D01*
X119902863Y-72394784D01*
X119872652Y-72379096D01*
X119831589Y-72350193D01*
X119796051Y-72315417D01*
X119766038Y-72274768D01*
X119751752Y-72249647D01*
X119730973Y-72200458D01*
X119718211Y-72153037D01*
X119710822Y-72102135D01*
X119708765Y-72054741D01*
X119708765Y-71781922D01*
X119711452Y-71727670D01*
X119719512Y-71677020D01*
X119732946Y-71629972D01*
X119751752Y-71586528D01*
X119778695Y-71542517D01*
X119811163Y-71504456D01*
X119849157Y-71472347D01*
X119872652Y-71457079D01*
X119918645Y-71434764D01*
X119968694Y-71419753D01*
X120022801Y-71412044D01*
X120054613Y-71410917D01*
X120107044Y-71414519D01*
X120156566Y-71425324D01*
X120203177Y-71443332D01*
X120212150Y-71447798D01*
X120254587Y-71473734D01*
X120292445Y-71505443D01*
X120325723Y-71542924D01*
X120331829Y-71551113D01*
X120358872Y-71594699D01*
X120379857Y-71642723D01*
X120393564Y-71689737D01*
X120397042Y-71706207D01*
X120254160Y-71706207D01*
X120235443Y-71658721D01*
X120210685Y-71622431D01*
X120173212Y-71587140D01*
X120139366Y-71566744D01*
X120092354Y-71550550D01*
X120054613Y-71546716D01*
X120005933Y-71551836D01*
X119958506Y-71569534D01*
X119918092Y-71599874D01*
X119907335Y-71611441D01*
X119877969Y-71655795D01*
X119860838Y-71702649D01*
X119852518Y-71756070D01*
X119851648Y-71781922D01*
X119851648Y-72054741D01*
X119855128Y-72105132D01*
X119867364Y-72155580D01*
X119891292Y-72203885D01*
X119907335Y-72224979D01*
X119945646Y-72258853D01*
X119990969Y-72280181D01*
X120043305Y-72288964D01*
X120054613Y-72289214D01*
X120106151Y-72282442D01*
X120151506Y-72264170D01*
X120176979Y-72248182D01*
X120214737Y-72212324D01*
X120240056Y-72170523D01*
X120254160Y-72129968D01*
X120397042Y-72129968D01*
X120384932Y-72178199D01*
X120365632Y-72227620D01*
X120340177Y-72272653D01*
X120331341Y-72285307D01*
X120298897Y-72323813D01*
X120262018Y-72356595D01*
X120220701Y-72383652D01*
X120211906Y-72388377D01*
X120166005Y-72407826D01*
X120117147Y-72420071D01*
X120065331Y-72425114D01*
X120054613Y-72425258D01*
G37*
G36*
X120851822Y-72425258D02*
G01*
X120797676Y-72421182D01*
X120748568Y-72408954D01*
X120699343Y-72385455D01*
X120665465Y-72360045D01*
X120632477Y-72323973D01*
X120606297Y-72281215D01*
X120586925Y-72231772D01*
X120575560Y-72183023D01*
X120574362Y-72175642D01*
X120574362Y-72175153D01*
X120713825Y-72175153D01*
X120713825Y-72175642D01*
X120728540Y-72224307D01*
X120757544Y-72260882D01*
X120802155Y-72284514D01*
X120851822Y-72291168D01*
X120901198Y-72283792D01*
X120945749Y-72256948D01*
X120955381Y-72246472D01*
X120980425Y-72200350D01*
X120990729Y-72149654D01*
X120992017Y-72120443D01*
X120992017Y-72036912D01*
X120987688Y-71985353D01*
X120971409Y-71935658D01*
X120955381Y-71911127D01*
X120914380Y-71879220D01*
X120864104Y-71867065D01*
X120851822Y-71866674D01*
X120803388Y-71876372D01*
X120782213Y-71887191D01*
X120743535Y-71919228D01*
X120723350Y-71944588D01*
X120596100Y-71944588D01*
X120596100Y-71421175D01*
X121102659Y-71421175D01*
X121102659Y-71553555D01*
X120735562Y-71553555D01*
X120735562Y-71777281D01*
X120778061Y-71750903D01*
X120793692Y-71744553D01*
X120842739Y-71733562D01*
X120859394Y-71732829D01*
X120913424Y-71736639D01*
X120961822Y-71748070D01*
X121010235Y-71770464D01*
X121051291Y-71802811D01*
X121060405Y-71812452D01*
X121091501Y-71856340D01*
X121111421Y-71901428D01*
X121124539Y-71952758D01*
X121130370Y-72001722D01*
X121131480Y-72036912D01*
X121131480Y-72120443D01*
X121128904Y-72172713D01*
X121119387Y-72227834D01*
X121102858Y-72276644D01*
X121075381Y-72324698D01*
X121058207Y-72345635D01*
X121017922Y-72380470D01*
X120970097Y-72405352D01*
X120922063Y-72418959D01*
X120868256Y-72424947D01*
X120851822Y-72425258D01*
G37*
G36*
X128583434Y-73425258D02*
G01*
X128533136Y-73422373D01*
X128480381Y-73412230D01*
X128431684Y-73394784D01*
X128401473Y-73379096D01*
X128360410Y-73350193D01*
X128324872Y-73315417D01*
X128294859Y-73274768D01*
X128280573Y-73249647D01*
X128259794Y-73200458D01*
X128247032Y-73153037D01*
X128239643Y-73102135D01*
X128237586Y-73054741D01*
X128237586Y-72781922D01*
X128240273Y-72727670D01*
X128248333Y-72677020D01*
X128261767Y-72629972D01*
X128280573Y-72586528D01*
X128307516Y-72542517D01*
X128339984Y-72504456D01*
X128377978Y-72472347D01*
X128401473Y-72457079D01*
X128447466Y-72434764D01*
X128497515Y-72419753D01*
X128551622Y-72412044D01*
X128583434Y-72410917D01*
X128635865Y-72414519D01*
X128685387Y-72425324D01*
X128731998Y-72443332D01*
X128740971Y-72447798D01*
X128783408Y-72473734D01*
X128821266Y-72505443D01*
X128854544Y-72542924D01*
X128860650Y-72551113D01*
X128887693Y-72594699D01*
X128908678Y-72642723D01*
X128922385Y-72689737D01*
X128925863Y-72706207D01*
X128782981Y-72706207D01*
X128764264Y-72658721D01*
X128739506Y-72622431D01*
X128702033Y-72587140D01*
X128668187Y-72566744D01*
X128621175Y-72550550D01*
X128583434Y-72546716D01*
X128534754Y-72551836D01*
X128487327Y-72569534D01*
X128446913Y-72599874D01*
X128436156Y-72611441D01*
X128406790Y-72655795D01*
X128389659Y-72702649D01*
X128381339Y-72756070D01*
X128380469Y-72781922D01*
X128380469Y-73054741D01*
X128383949Y-73105132D01*
X128396185Y-73155580D01*
X128420113Y-73203885D01*
X128436156Y-73224979D01*
X128474467Y-73258853D01*
X128519790Y-73280181D01*
X128572126Y-73288964D01*
X128583434Y-73289214D01*
X128634972Y-73282442D01*
X128680327Y-73264170D01*
X128705800Y-73248182D01*
X128743558Y-73212324D01*
X128768877Y-73170523D01*
X128782981Y-73129968D01*
X128925863Y-73129968D01*
X128913753Y-73178199D01*
X128894453Y-73227620D01*
X128868998Y-73272653D01*
X128860162Y-73285307D01*
X128827718Y-73323813D01*
X128790839Y-73356595D01*
X128749522Y-73383652D01*
X128740727Y-73388377D01*
X128694826Y-73407826D01*
X128645968Y-73420071D01*
X128594152Y-73425114D01*
X128583434Y-73425258D01*
G37*
G36*
X129616582Y-72421175D02*
G01*
X129616582Y-72545495D01*
X129359394Y-73415000D01*
X129211138Y-73415000D01*
X129468082Y-72553555D01*
X129215291Y-72553555D01*
X129215291Y-72696437D01*
X129075828Y-72696437D01*
X129075828Y-72421175D01*
X129616582Y-72421175D01*
G37*
G36*
X115551048Y-83872941D02*
G01*
X115517522Y-83835335D01*
X115487391Y-83790860D01*
X115465293Y-83744089D01*
X115455024Y-83711634D01*
X115446425Y-83662161D01*
X115445886Y-83612441D01*
X115453407Y-83562476D01*
X115461069Y-83534611D01*
X115481157Y-83485136D01*
X115505665Y-83442580D01*
X115536434Y-83401363D01*
X115568492Y-83366395D01*
X115761404Y-83173483D01*
X115801666Y-83137020D01*
X115843180Y-83106905D01*
X115885947Y-83083136D01*
X115929965Y-83065715D01*
X115980137Y-83053646D01*
X116030008Y-83049691D01*
X116079579Y-83053852D01*
X116106988Y-83059670D01*
X116155289Y-83076413D01*
X116201294Y-83101188D01*
X116245004Y-83133996D01*
X116268296Y-83155694D01*
X116302823Y-83195315D01*
X116330200Y-83237972D01*
X116350425Y-83283665D01*
X116353612Y-83293168D01*
X116365280Y-83341516D01*
X116369628Y-83390706D01*
X116366656Y-83440740D01*
X116365183Y-83450848D01*
X116353485Y-83500791D01*
X116334366Y-83549588D01*
X116310814Y-83592524D01*
X116301628Y-83606629D01*
X116200595Y-83505596D01*
X116220938Y-83458784D01*
X116229091Y-83415616D01*
X116227549Y-83364165D01*
X116218038Y-83325809D01*
X116196247Y-83281116D01*
X116172271Y-83251719D01*
X116134229Y-83220917D01*
X116088179Y-83199896D01*
X116038148Y-83192771D01*
X116022363Y-83193344D01*
X115970234Y-83203943D01*
X115924991Y-83224960D01*
X115881332Y-83256851D01*
X115862437Y-83274516D01*
X115669525Y-83467428D01*
X115636354Y-83505521D01*
X115609334Y-83549845D01*
X115592097Y-83600922D01*
X115588526Y-83627181D01*
X115591663Y-83678224D01*
X115608630Y-83725354D01*
X115639427Y-83768570D01*
X115647246Y-83776744D01*
X115688477Y-83808398D01*
X115733468Y-83827548D01*
X115762786Y-83834255D01*
X115814840Y-83835599D01*
X115862301Y-83823945D01*
X115900950Y-83805241D01*
X116001983Y-83906274D01*
X115959316Y-83931816D01*
X115910722Y-83953114D01*
X115860880Y-83966957D01*
X115845685Y-83969657D01*
X115795516Y-83973944D01*
X115746257Y-83971046D01*
X115697910Y-83960964D01*
X115688350Y-83958085D01*
X115642141Y-83939381D01*
X115598934Y-83913492D01*
X115558729Y-83880418D01*
X115551048Y-83872941D01*
G37*
G36*
X116095417Y-84417310D02*
G01*
X116061810Y-84379520D01*
X116032985Y-84336433D01*
X116012691Y-84291753D01*
X116000483Y-84241819D01*
X115998572Y-84191497D01*
X116003019Y-84157733D01*
X116018401Y-84107330D01*
X116041547Y-84061554D01*
X116066921Y-84024404D01*
X116167435Y-84124919D01*
X116142510Y-84170160D01*
X116135883Y-84220892D01*
X116136694Y-84227161D01*
X116154137Y-84275950D01*
X116184701Y-84316799D01*
X116190233Y-84322495D01*
X116230628Y-84354282D01*
X116278939Y-84371268D01*
X116292129Y-84372234D01*
X116340708Y-84362580D01*
X116383719Y-84334396D01*
X116392644Y-84325949D01*
X116413887Y-84304706D01*
X116446423Y-84264981D01*
X116466762Y-84218082D01*
X116469670Y-84197801D01*
X116461704Y-84148431D01*
X116434342Y-84105296D01*
X116425976Y-84096423D01*
X116376237Y-84046683D01*
X116470016Y-83952904D01*
X116519755Y-84002643D01*
X116559990Y-84032025D01*
X116608526Y-84042020D01*
X116657988Y-84027596D01*
X116697769Y-83997636D01*
X116700578Y-83994872D01*
X116722339Y-83973111D01*
X116751911Y-83932990D01*
X116762579Y-83884858D01*
X116749342Y-83836044D01*
X116717503Y-83794188D01*
X116677910Y-83765130D01*
X116633396Y-83752220D01*
X116584390Y-83757531D01*
X116538181Y-83778824D01*
X116531326Y-83783134D01*
X116431330Y-83683138D01*
X116475861Y-83655291D01*
X116526450Y-83632432D01*
X116576716Y-83619136D01*
X116626658Y-83615404D01*
X116632877Y-83615610D01*
X116681451Y-83622475D01*
X116727520Y-83638752D01*
X116771085Y-83664442D01*
X116812146Y-83699545D01*
X116847701Y-83739678D01*
X116874728Y-83780440D01*
X116895172Y-83827794D01*
X116904476Y-83875968D01*
X116905062Y-83888139D01*
X116899108Y-83942181D01*
X116882027Y-83988795D01*
X116853849Y-84034071D01*
X116820090Y-84072589D01*
X116808347Y-84084333D01*
X116770398Y-84115548D01*
X116725042Y-84138195D01*
X116688316Y-84147371D01*
X116637338Y-84148950D01*
X116585437Y-84138142D01*
X116550324Y-84124056D01*
X116573046Y-84168163D01*
X116584949Y-84218084D01*
X116583138Y-84269474D01*
X116567920Y-84320680D01*
X116542715Y-84365638D01*
X116510774Y-84404802D01*
X116502485Y-84413338D01*
X116490741Y-84425082D01*
X116449855Y-84460926D01*
X116407895Y-84487762D01*
X116358625Y-84507402D01*
X116307952Y-84515277D01*
X116295065Y-84515407D01*
X116243793Y-84508563D01*
X116193428Y-84489933D01*
X116150102Y-84463962D01*
X116107470Y-84428966D01*
X116095417Y-84417310D01*
G37*
G36*
X120185259Y-80216887D02*
G01*
X120182374Y-80267185D01*
X120172231Y-80319940D01*
X120154785Y-80368637D01*
X120139097Y-80398848D01*
X120110194Y-80439911D01*
X120075418Y-80475449D01*
X120034769Y-80505462D01*
X120009648Y-80519748D01*
X119960459Y-80540527D01*
X119913038Y-80553289D01*
X119862136Y-80560678D01*
X119814742Y-80562735D01*
X119541923Y-80562735D01*
X119487671Y-80560048D01*
X119437021Y-80551988D01*
X119389973Y-80538554D01*
X119346529Y-80519748D01*
X119302518Y-80492805D01*
X119264457Y-80460337D01*
X119232348Y-80422343D01*
X119217080Y-80398848D01*
X119194765Y-80352855D01*
X119179754Y-80302806D01*
X119172045Y-80248699D01*
X119170918Y-80216887D01*
X119174520Y-80164456D01*
X119185325Y-80114934D01*
X119203333Y-80068323D01*
X119207799Y-80059350D01*
X119233735Y-80016913D01*
X119265444Y-79979055D01*
X119302925Y-79945777D01*
X119311114Y-79939671D01*
X119354700Y-79912628D01*
X119402724Y-79891643D01*
X119449738Y-79877936D01*
X119466208Y-79874458D01*
X119466208Y-80017340D01*
X119418722Y-80036057D01*
X119382432Y-80060815D01*
X119347141Y-80098288D01*
X119326745Y-80132134D01*
X119310551Y-80179146D01*
X119306717Y-80216887D01*
X119311837Y-80265567D01*
X119329535Y-80312994D01*
X119359875Y-80353408D01*
X119371442Y-80364165D01*
X119415796Y-80393531D01*
X119462650Y-80410662D01*
X119516071Y-80418982D01*
X119541923Y-80419852D01*
X119814742Y-80419852D01*
X119865133Y-80416372D01*
X119915581Y-80404136D01*
X119963886Y-80380208D01*
X119984980Y-80364165D01*
X120018854Y-80325854D01*
X120040182Y-80280531D01*
X120048965Y-80228195D01*
X120049215Y-80216887D01*
X120042443Y-80165349D01*
X120024171Y-80119994D01*
X120008183Y-80094521D01*
X119972325Y-80056763D01*
X119930524Y-80031444D01*
X119889969Y-80017340D01*
X119889969Y-79874458D01*
X119938200Y-79886568D01*
X119987621Y-79905868D01*
X120032654Y-79931323D01*
X120045308Y-79940159D01*
X120083814Y-79972603D01*
X120116596Y-80009482D01*
X120143653Y-80050799D01*
X120148378Y-80059594D01*
X120167827Y-80105495D01*
X120180072Y-80154353D01*
X120185115Y-80206169D01*
X120185259Y-80216887D01*
G37*
G36*
X119181176Y-79457291D02*
G01*
X120175001Y-79457291D01*
X120175001Y-79596754D01*
X119332851Y-79596754D01*
X119419557Y-79738171D01*
X119275454Y-79738171D01*
X119181176Y-79596754D01*
X119181176Y-79457291D01*
G37*
G36*
X122905001Y-80474318D02*
G01*
X122772377Y-80474318D01*
X122772377Y-80249371D01*
X122768820Y-80197500D01*
X122756316Y-80146516D01*
X122731863Y-80099023D01*
X122715468Y-80078889D01*
X122675168Y-80046947D01*
X122625709Y-80026835D01*
X122573365Y-80018849D01*
X122554268Y-80018317D01*
X122261665Y-80018317D01*
X122212679Y-80022103D01*
X122164540Y-80035412D01*
X122119708Y-80061439D01*
X122100709Y-80078889D01*
X122070570Y-80121565D01*
X122052988Y-80168212D01*
X122044449Y-80222664D01*
X122043556Y-80249371D01*
X122043556Y-80474318D01*
X121911176Y-80474318D01*
X121911176Y-80253523D01*
X121913454Y-80199116D01*
X121920288Y-80148704D01*
X121934502Y-80093483D01*
X121955276Y-80044015D01*
X121982610Y-80000300D01*
X122004477Y-79974353D01*
X122042144Y-79940736D01*
X122085169Y-79914075D01*
X122133552Y-79894368D01*
X122187293Y-79881617D01*
X122236170Y-79876304D01*
X122267282Y-79875435D01*
X122548894Y-79875435D01*
X122603238Y-79878213D01*
X122653430Y-79886548D01*
X122704933Y-79902566D01*
X122741358Y-79919887D01*
X122783171Y-79948079D01*
X122819033Y-79982647D01*
X122848944Y-80023590D01*
X122862991Y-80049092D01*
X122883298Y-80099585D01*
X122895770Y-80149205D01*
X122902990Y-80203282D01*
X122905001Y-80254256D01*
X122905001Y-80474318D01*
G37*
G36*
X122905001Y-80568596D02*
G01*
X121911176Y-80568596D01*
X121911176Y-80429133D01*
X122905001Y-80429133D01*
X122905001Y-80568596D01*
G37*
G36*
X121911176Y-79430913D02*
G01*
X122905001Y-79430913D01*
X122905001Y-79570376D01*
X122062851Y-79570376D01*
X122149557Y-79711792D01*
X122005454Y-79711792D01*
X121911176Y-79570376D01*
X121911176Y-79430913D01*
G37*
G36*
X114352380Y-63425258D02*
G01*
X114302082Y-63422373D01*
X114249327Y-63412230D01*
X114200630Y-63394784D01*
X114170419Y-63379096D01*
X114129356Y-63350193D01*
X114093818Y-63315417D01*
X114063805Y-63274768D01*
X114049519Y-63249647D01*
X114028740Y-63200458D01*
X114015978Y-63153037D01*
X114008589Y-63102135D01*
X114006532Y-63054741D01*
X114006532Y-62781922D01*
X114009219Y-62727670D01*
X114017279Y-62677020D01*
X114030713Y-62629972D01*
X114049519Y-62586528D01*
X114076462Y-62542517D01*
X114108930Y-62504456D01*
X114146924Y-62472347D01*
X114170419Y-62457079D01*
X114216412Y-62434764D01*
X114266461Y-62419753D01*
X114320568Y-62412044D01*
X114352380Y-62410917D01*
X114404811Y-62414519D01*
X114454333Y-62425324D01*
X114500944Y-62443332D01*
X114509917Y-62447798D01*
X114552354Y-62473734D01*
X114590212Y-62505443D01*
X114623490Y-62542924D01*
X114629596Y-62551113D01*
X114656639Y-62594699D01*
X114677624Y-62642723D01*
X114691331Y-62689737D01*
X114694809Y-62706207D01*
X114551927Y-62706207D01*
X114533210Y-62658721D01*
X114508452Y-62622431D01*
X114470979Y-62587140D01*
X114437133Y-62566744D01*
X114390121Y-62550550D01*
X114352380Y-62546716D01*
X114303700Y-62551836D01*
X114256273Y-62569534D01*
X114215859Y-62599874D01*
X114205102Y-62611441D01*
X114175736Y-62655795D01*
X114158605Y-62702649D01*
X114150285Y-62756070D01*
X114149415Y-62781922D01*
X114149415Y-63054741D01*
X114152895Y-63105132D01*
X114165131Y-63155580D01*
X114189059Y-63203885D01*
X114205102Y-63224979D01*
X114243413Y-63258853D01*
X114288736Y-63280181D01*
X114341072Y-63288964D01*
X114352380Y-63289214D01*
X114403918Y-63282442D01*
X114449273Y-63264170D01*
X114474746Y-63248182D01*
X114512504Y-63212324D01*
X114537823Y-63170523D01*
X114551927Y-63129968D01*
X114694809Y-63129968D01*
X114682699Y-63178199D01*
X114663399Y-63227620D01*
X114637944Y-63272653D01*
X114629108Y-63285307D01*
X114596664Y-63323813D01*
X114559785Y-63356595D01*
X114518468Y-63383652D01*
X114509673Y-63388377D01*
X114463772Y-63407826D01*
X114414914Y-63420071D01*
X114363098Y-63425114D01*
X114352380Y-63425258D01*
G37*
G36*
X114899484Y-63415000D02*
G01*
X114899484Y-62608998D01*
X114902885Y-62560050D01*
X114916276Y-62510194D01*
X114942471Y-62468314D01*
X114985339Y-62437794D01*
X115034016Y-62424122D01*
X115076560Y-62421175D01*
X115178898Y-62421175D01*
X115178898Y-62553555D01*
X115079247Y-62553555D01*
X115048472Y-62569675D01*
X115038947Y-62607777D01*
X115038947Y-63415000D01*
X114899484Y-63415000D01*
G37*
G36*
X114824258Y-62824420D02*
G01*
X114824258Y-62705474D01*
X115178898Y-62705474D01*
X115178898Y-62824420D01*
X114824258Y-62824420D01*
G37*
G36*
X115300531Y-63415000D02*
G01*
X115300531Y-63294099D01*
X115647112Y-62831992D01*
X115675309Y-62789003D01*
X115694006Y-62749926D01*
X115708078Y-62701182D01*
X115710859Y-62669815D01*
X115710859Y-62668593D01*
X115703185Y-62618626D01*
X115675932Y-62576270D01*
X115633678Y-62551540D01*
X115584685Y-62543426D01*
X115576770Y-62543297D01*
X115528404Y-62550169D01*
X115483433Y-62574853D01*
X115478584Y-62579200D01*
X115449586Y-62619408D01*
X115434239Y-62668748D01*
X115432422Y-62680806D01*
X115432422Y-62681538D01*
X115288319Y-62681538D01*
X115288319Y-62680806D01*
X115299056Y-62627369D01*
X115315240Y-62579472D01*
X115340405Y-62531517D01*
X115372683Y-62490797D01*
X115381864Y-62481748D01*
X115422164Y-62450759D01*
X115467837Y-62428625D01*
X115518884Y-62415344D01*
X115567958Y-62410986D01*
X115575304Y-62410917D01*
X115631047Y-62414155D01*
X115680945Y-62423867D01*
X115730816Y-62442895D01*
X115773055Y-62470380D01*
X115782422Y-62478572D01*
X115814479Y-62515896D01*
X115837377Y-62560211D01*
X115851116Y-62611517D01*
X115855624Y-62662145D01*
X115855695Y-62669815D01*
X115855695Y-62670547D01*
X115850865Y-62721133D01*
X115837642Y-62770381D01*
X115833713Y-62781189D01*
X115813189Y-62827176D01*
X115786942Y-62871470D01*
X115772897Y-62891343D01*
X115485179Y-63282376D01*
X115861068Y-63282376D01*
X115861068Y-63415000D01*
X115300531Y-63415000D01*
G37*
G36*
X114574153Y-77425258D02*
G01*
X114523855Y-77422373D01*
X114471100Y-77412230D01*
X114422403Y-77394784D01*
X114392192Y-77379096D01*
X114351129Y-77350193D01*
X114315591Y-77315417D01*
X114285578Y-77274768D01*
X114271292Y-77249647D01*
X114250513Y-77200458D01*
X114237751Y-77153037D01*
X114230362Y-77102135D01*
X114228305Y-77054741D01*
X114228305Y-76781922D01*
X114230992Y-76727670D01*
X114239052Y-76677020D01*
X114252486Y-76629972D01*
X114271292Y-76586528D01*
X114298235Y-76542517D01*
X114330703Y-76504456D01*
X114368697Y-76472347D01*
X114392192Y-76457079D01*
X114438185Y-76434764D01*
X114488234Y-76419753D01*
X114542341Y-76412044D01*
X114574153Y-76410917D01*
X114626584Y-76414519D01*
X114676106Y-76425324D01*
X114722717Y-76443332D01*
X114731690Y-76447798D01*
X114774127Y-76473734D01*
X114811985Y-76505443D01*
X114845263Y-76542924D01*
X114851369Y-76551113D01*
X114878412Y-76594699D01*
X114899397Y-76642723D01*
X114913104Y-76689737D01*
X114916582Y-76706207D01*
X114773700Y-76706207D01*
X114754983Y-76658721D01*
X114730225Y-76622431D01*
X114692752Y-76587140D01*
X114658906Y-76566744D01*
X114611894Y-76550550D01*
X114574153Y-76546716D01*
X114525473Y-76551836D01*
X114478046Y-76569534D01*
X114437632Y-76599874D01*
X114426875Y-76611441D01*
X114397509Y-76655795D01*
X114380378Y-76702649D01*
X114372058Y-76756070D01*
X114371188Y-76781922D01*
X114371188Y-77054741D01*
X114374668Y-77105132D01*
X114386904Y-77155580D01*
X114410832Y-77203885D01*
X114426875Y-77224979D01*
X114465186Y-77258853D01*
X114510509Y-77280181D01*
X114562845Y-77288964D01*
X114574153Y-77289214D01*
X114625691Y-77282442D01*
X114671046Y-77264170D01*
X114696519Y-77248182D01*
X114734277Y-77212324D01*
X114759596Y-77170523D01*
X114773700Y-77129968D01*
X114916582Y-77129968D01*
X114904472Y-77178199D01*
X114885172Y-77227620D01*
X114859717Y-77272653D01*
X114850881Y-77285307D01*
X114818437Y-77323813D01*
X114781558Y-77356595D01*
X114740241Y-77383652D01*
X114731446Y-77388377D01*
X114685545Y-77407826D01*
X114636687Y-77420071D01*
X114584871Y-77425114D01*
X114574153Y-77425258D01*
G37*
G36*
X115078759Y-77415000D02*
G01*
X115078759Y-77294099D01*
X115425340Y-76831992D01*
X115453537Y-76789003D01*
X115472234Y-76749926D01*
X115486306Y-76701182D01*
X115489087Y-76669815D01*
X115489087Y-76668593D01*
X115481413Y-76618626D01*
X115454160Y-76576270D01*
X115411906Y-76551540D01*
X115362913Y-76543426D01*
X115354998Y-76543297D01*
X115306632Y-76550169D01*
X115261661Y-76574853D01*
X115256812Y-76579200D01*
X115227814Y-76619408D01*
X115212467Y-76668748D01*
X115210650Y-76680806D01*
X115210650Y-76681538D01*
X115066547Y-76681538D01*
X115066547Y-76680806D01*
X115077284Y-76627369D01*
X115093468Y-76579472D01*
X115118633Y-76531517D01*
X115150911Y-76490797D01*
X115160092Y-76481748D01*
X115200392Y-76450759D01*
X115246065Y-76428625D01*
X115297112Y-76415344D01*
X115346186Y-76410986D01*
X115353532Y-76410917D01*
X115409275Y-76414155D01*
X115459173Y-76423867D01*
X115509044Y-76442895D01*
X115551283Y-76470380D01*
X115560650Y-76478572D01*
X115592707Y-76515896D01*
X115615605Y-76560211D01*
X115629344Y-76611517D01*
X115633852Y-76662145D01*
X115633923Y-76669815D01*
X115633923Y-76670547D01*
X115629093Y-76721133D01*
X115615870Y-76770381D01*
X115611941Y-76781189D01*
X115591417Y-76827176D01*
X115565170Y-76871470D01*
X115551125Y-76891343D01*
X115263407Y-77282376D01*
X115639296Y-77282376D01*
X115639296Y-77415000D01*
X115078759Y-77415000D01*
G37*
G36*
X124288633Y-71994658D02*
G01*
X124288633Y-71862034D01*
X124627642Y-71862034D01*
X124676275Y-71853946D01*
X124718214Y-71827331D01*
X124725340Y-71819780D01*
X124750551Y-71777358D01*
X124761320Y-71728589D01*
X124762220Y-71707428D01*
X124756133Y-71655385D01*
X124735964Y-71609437D01*
X124725340Y-71595565D01*
X124685505Y-71565061D01*
X124635151Y-71553233D01*
X124627642Y-71553066D01*
X124288633Y-71553066D01*
X124288633Y-71420443D01*
X124622269Y-71420443D01*
X124674338Y-71423949D01*
X124722161Y-71434468D01*
X124769862Y-71454137D01*
X124773944Y-71456346D01*
X124815175Y-71484378D01*
X124849538Y-71519105D01*
X124874816Y-71556486D01*
X124895257Y-71603303D01*
X124907214Y-71655431D01*
X124910720Y-71707428D01*
X124907166Y-71759215D01*
X124895047Y-71811332D01*
X124874328Y-71858370D01*
X124846099Y-71899323D01*
X124811117Y-71933523D01*
X124773455Y-71958754D01*
X124726499Y-71979195D01*
X124674290Y-71991151D01*
X124622269Y-71994658D01*
X124288633Y-71994658D01*
G37*
G36*
X124227817Y-72415000D02*
G01*
X124227817Y-71420443D01*
X124367280Y-71420443D01*
X124367280Y-72415000D01*
X124227817Y-72415000D01*
G37*
G36*
X124786889Y-72415000D02*
G01*
X124559254Y-71963883D01*
X124697984Y-71932376D01*
X124952485Y-72415000D01*
X124786889Y-72415000D01*
G37*
G36*
X125313555Y-71853151D02*
G01*
X125356847Y-71831027D01*
X125408243Y-71824420D01*
X125463441Y-71829275D01*
X125512046Y-71843838D01*
X125558843Y-71871826D01*
X125589471Y-71902090D01*
X125617574Y-71944817D01*
X125637648Y-71995573D01*
X125648625Y-72046572D01*
X125653456Y-72103719D01*
X125653707Y-72121175D01*
X125653707Y-72121664D01*
X125651156Y-72173519D01*
X125641735Y-72228264D01*
X125625371Y-72276815D01*
X125598168Y-72324717D01*
X125581167Y-72345635D01*
X125541141Y-72380470D01*
X125493605Y-72405352D01*
X125445851Y-72418959D01*
X125392346Y-72424947D01*
X125376003Y-72425258D01*
X125321140Y-72421494D01*
X125271958Y-72410204D01*
X125222705Y-72388085D01*
X125180871Y-72356135D01*
X125171571Y-72346612D01*
X125139942Y-72303274D01*
X125119679Y-72258766D01*
X125106336Y-72208111D01*
X125099911Y-72151309D01*
X125099476Y-72133387D01*
X125238738Y-72133387D01*
X125238738Y-72134120D01*
X125243787Y-72185995D01*
X125262440Y-72234100D01*
X125274642Y-72250624D01*
X125314795Y-72279726D01*
X125363989Y-72290812D01*
X125376003Y-72291168D01*
X125425335Y-72284437D01*
X125469235Y-72259940D01*
X125478585Y-72250380D01*
X125502961Y-72207791D01*
X125513373Y-72156272D01*
X125514244Y-72133387D01*
X125514244Y-72132655D01*
X125509799Y-72079868D01*
X125494813Y-72032487D01*
X125476631Y-72003939D01*
X125437548Y-71972717D01*
X125390206Y-71959380D01*
X125369164Y-71958265D01*
X125320210Y-71967054D01*
X125279588Y-71995977D01*
X125272932Y-72004183D01*
X125249557Y-72051393D01*
X125239940Y-72103394D01*
X125238738Y-72133387D01*
X125099476Y-72133387D01*
X125099275Y-72125083D01*
X125099275Y-72124351D01*
X125101748Y-72075075D01*
X125109167Y-72023600D01*
X125116861Y-71988063D01*
X125130995Y-71939134D01*
X125148881Y-71891416D01*
X125168396Y-71849089D01*
X125384307Y-71421175D01*
X125534760Y-71421175D01*
X125313555Y-71853151D01*
G37*
G36*
X112819208Y-80913979D02*
G01*
X112912988Y-80820199D01*
X113152703Y-81059915D01*
X113192811Y-81088585D01*
X113241286Y-81099420D01*
X113251664Y-81099119D01*
X113299488Y-81086950D01*
X113341587Y-81060080D01*
X113357187Y-81045753D01*
X113389683Y-81004649D01*
X113407911Y-80957897D01*
X113410208Y-80940575D01*
X113403610Y-80890838D01*
X113376368Y-80846869D01*
X113371176Y-80841442D01*
X113131460Y-80601727D01*
X113225240Y-80507947D01*
X113461156Y-80743864D01*
X113495495Y-80783161D01*
X113521873Y-80824415D01*
X113541694Y-80872053D01*
X113543018Y-80876502D01*
X113552352Y-80925478D01*
X113552094Y-80974332D01*
X113543536Y-81018638D01*
X113524886Y-81066197D01*
X113496480Y-81111512D01*
X113462192Y-81150758D01*
X113423060Y-81184864D01*
X113377638Y-81213147D01*
X113329727Y-81231757D01*
X113280808Y-81240755D01*
X113231889Y-81240202D01*
X113187417Y-81231412D01*
X113139760Y-81212663D01*
X113094388Y-81184200D01*
X113055124Y-81149895D01*
X112819208Y-80913979D01*
G37*
G36*
X112478978Y-81168202D02*
G01*
X113182236Y-80464944D01*
X113280851Y-80563559D01*
X112577593Y-81266817D01*
X112478978Y-81168202D01*
G37*
G36*
X112874302Y-81563525D02*
G01*
X113032327Y-81083576D01*
X113152703Y-81159394D01*
X112991396Y-81680620D01*
X112874302Y-81563525D01*
G37*
G36*
X113098992Y-81788215D02*
G01*
X113184481Y-81702726D01*
X113756310Y-81621036D01*
X113806646Y-81610577D01*
X113847499Y-81596167D01*
X113891916Y-81571649D01*
X113916063Y-81551436D01*
X113916926Y-81550572D01*
X113946832Y-81509813D01*
X113957512Y-81460593D01*
X113945120Y-81413228D01*
X113916215Y-81372847D01*
X113910709Y-81367159D01*
X113871650Y-81337818D01*
X113822396Y-81323473D01*
X113815893Y-81323119D01*
X113766958Y-81331045D01*
X113721217Y-81355082D01*
X113711406Y-81362323D01*
X113710888Y-81362841D01*
X113608992Y-81260945D01*
X113609510Y-81260427D01*
X113654888Y-81230234D01*
X113700199Y-81207809D01*
X113751903Y-81191694D01*
X113803521Y-81185725D01*
X113816412Y-81185818D01*
X113866820Y-81192402D01*
X113914767Y-81209047D01*
X113960254Y-81235751D01*
X113998036Y-81267370D01*
X114003279Y-81272516D01*
X114040406Y-81314221D01*
X114068822Y-81356372D01*
X114090631Y-81405091D01*
X114101064Y-81454393D01*
X114101894Y-81466810D01*
X114098170Y-81515869D01*
X114083026Y-81563396D01*
X114056462Y-81609389D01*
X114023850Y-81648376D01*
X114018477Y-81653850D01*
X114017959Y-81654368D01*
X113978774Y-81686723D01*
X113934600Y-81712196D01*
X113924180Y-81717061D01*
X113877150Y-81735066D01*
X113827269Y-81747826D01*
X113803286Y-81751947D01*
X113323337Y-81825002D01*
X113589131Y-82090796D01*
X113495351Y-82184575D01*
X113098992Y-81788215D01*
G37*
G36*
X122414659Y-84653349D02*
G01*
X122282035Y-84653349D01*
X122282035Y-84314340D01*
X122273947Y-84265707D01*
X122247332Y-84223768D01*
X122239781Y-84216642D01*
X122197359Y-84191431D01*
X122148590Y-84180662D01*
X122127429Y-84179762D01*
X122075386Y-84185849D01*
X122029438Y-84206018D01*
X122015566Y-84216642D01*
X121985062Y-84256477D01*
X121973234Y-84306831D01*
X121973067Y-84314340D01*
X121973067Y-84653349D01*
X121840444Y-84653349D01*
X121840444Y-84319713D01*
X121843950Y-84267644D01*
X121854469Y-84219821D01*
X121874138Y-84172120D01*
X121876347Y-84168038D01*
X121904379Y-84126807D01*
X121939106Y-84092444D01*
X121976487Y-84067166D01*
X122023304Y-84046725D01*
X122075432Y-84034768D01*
X122127429Y-84031262D01*
X122179216Y-84034816D01*
X122231333Y-84046935D01*
X122278371Y-84067654D01*
X122319324Y-84095883D01*
X122353524Y-84130865D01*
X122378755Y-84168527D01*
X122399196Y-84215483D01*
X122411152Y-84267692D01*
X122414659Y-84319713D01*
X122414659Y-84653349D01*
G37*
G36*
X122835001Y-84714165D02*
G01*
X121840444Y-84714165D01*
X121840444Y-84574702D01*
X122835001Y-84574702D01*
X122835001Y-84714165D01*
G37*
G36*
X122835001Y-84155093D02*
G01*
X122383884Y-84382728D01*
X122352377Y-84243998D01*
X122835001Y-83989497D01*
X122835001Y-84155093D01*
G37*
G36*
X122845259Y-83544730D02*
G01*
X122841183Y-83598876D01*
X122828955Y-83647984D01*
X122805456Y-83697209D01*
X122780046Y-83731088D01*
X122743974Y-83764076D01*
X122701216Y-83790255D01*
X122651773Y-83809627D01*
X122603024Y-83820992D01*
X122595643Y-83822190D01*
X122595154Y-83822190D01*
X122595154Y-83682728D01*
X122595643Y-83682728D01*
X122644308Y-83668012D01*
X122680883Y-83639008D01*
X122704515Y-83594397D01*
X122711169Y-83544730D01*
X122703793Y-83495354D01*
X122676949Y-83450804D01*
X122666473Y-83441171D01*
X122620351Y-83416127D01*
X122569655Y-83405823D01*
X122540444Y-83404535D01*
X122456913Y-83404535D01*
X122405354Y-83408864D01*
X122355659Y-83425143D01*
X122331128Y-83441171D01*
X122299221Y-83482173D01*
X122287066Y-83532449D01*
X122286675Y-83544730D01*
X122296373Y-83593164D01*
X122307192Y-83614340D01*
X122339229Y-83653018D01*
X122364589Y-83673202D01*
X122364589Y-83800453D01*
X121841176Y-83800453D01*
X121841176Y-83293893D01*
X121973556Y-83293893D01*
X121973556Y-83660990D01*
X122197282Y-83660990D01*
X122170904Y-83618492D01*
X122164554Y-83602860D01*
X122153563Y-83553813D01*
X122152830Y-83537159D01*
X122156640Y-83483128D01*
X122168071Y-83434730D01*
X122190465Y-83386317D01*
X122222812Y-83345261D01*
X122232453Y-83336147D01*
X122276341Y-83305052D01*
X122321429Y-83285131D01*
X122372759Y-83272013D01*
X122421723Y-83266183D01*
X122456913Y-83265072D01*
X122540444Y-83265072D01*
X122592714Y-83267648D01*
X122647835Y-83277165D01*
X122696645Y-83293695D01*
X122744699Y-83321172D01*
X122765636Y-83338345D01*
X122800471Y-83378630D01*
X122825353Y-83426456D01*
X122838960Y-83474489D01*
X122844948Y-83528296D01*
X122845259Y-83544730D01*
G37*
G36*
X122249554Y-62994658D02*
G01*
X122249554Y-62862034D01*
X122588563Y-62862034D01*
X122637196Y-62853946D01*
X122679135Y-62827331D01*
X122686261Y-62819780D01*
X122711472Y-62777358D01*
X122722241Y-62728589D01*
X122723141Y-62707428D01*
X122717054Y-62655385D01*
X122696885Y-62609437D01*
X122686261Y-62595565D01*
X122646426Y-62565061D01*
X122596072Y-62553233D01*
X122588563Y-62553066D01*
X122249554Y-62553066D01*
X122249554Y-62420443D01*
X122583190Y-62420443D01*
X122635259Y-62423949D01*
X122683082Y-62434468D01*
X122730783Y-62454137D01*
X122734865Y-62456346D01*
X122776096Y-62484378D01*
X122810459Y-62519105D01*
X122835737Y-62556486D01*
X122856178Y-62603303D01*
X122868135Y-62655431D01*
X122871641Y-62707428D01*
X122868087Y-62759215D01*
X122855968Y-62811332D01*
X122835249Y-62858370D01*
X122807020Y-62899323D01*
X122772038Y-62933523D01*
X122734376Y-62958754D01*
X122687420Y-62979195D01*
X122635211Y-62991151D01*
X122583190Y-62994658D01*
X122249554Y-62994658D01*
G37*
G36*
X122188738Y-63415000D02*
G01*
X122188738Y-62420443D01*
X122328201Y-62420443D01*
X122328201Y-63415000D01*
X122188738Y-63415000D01*
G37*
G36*
X122747810Y-63415000D02*
G01*
X122520175Y-62963883D01*
X122658905Y-62932376D01*
X122913406Y-63415000D01*
X122747810Y-63415000D01*
G37*
G36*
X123067035Y-63262592D02*
G01*
X123067035Y-63141448D01*
X123400671Y-62421664D01*
X123544041Y-62421664D01*
X123218710Y-63133387D01*
X123706219Y-63133387D01*
X123706219Y-63262592D01*
X123067035Y-63262592D01*
G37*
G36*
X123495681Y-63415732D02*
G01*
X123495681Y-62830526D01*
X123631725Y-62830526D01*
X123631725Y-63415732D01*
X123495681Y-63415732D01*
G37*
G36*
X114193378Y-65994658D02*
G01*
X114193378Y-65862034D01*
X114532387Y-65862034D01*
X114581020Y-65853946D01*
X114622959Y-65827331D01*
X114630085Y-65819780D01*
X114655296Y-65777358D01*
X114666065Y-65728589D01*
X114666965Y-65707428D01*
X114660878Y-65655385D01*
X114640709Y-65609437D01*
X114630085Y-65595565D01*
X114590250Y-65565061D01*
X114539896Y-65553233D01*
X114532387Y-65553066D01*
X114193378Y-65553066D01*
X114193378Y-65420443D01*
X114527014Y-65420443D01*
X114579083Y-65423949D01*
X114626906Y-65434468D01*
X114674607Y-65454137D01*
X114678689Y-65456346D01*
X114719920Y-65484378D01*
X114754283Y-65519105D01*
X114779561Y-65556486D01*
X114800002Y-65603303D01*
X114811959Y-65655431D01*
X114815465Y-65707428D01*
X114811911Y-65759215D01*
X114799792Y-65811332D01*
X114779073Y-65858370D01*
X114750844Y-65899323D01*
X114715862Y-65933523D01*
X114678200Y-65958754D01*
X114631244Y-65979195D01*
X114579035Y-65991151D01*
X114527014Y-65994658D01*
X114193378Y-65994658D01*
G37*
G36*
X114132562Y-66415000D02*
G01*
X114132562Y-65420443D01*
X114272025Y-65420443D01*
X114272025Y-66415000D01*
X114132562Y-66415000D01*
G37*
G36*
X114691634Y-66415000D02*
G01*
X114463999Y-65963883D01*
X114602729Y-65932376D01*
X114857230Y-66415000D01*
X114691634Y-66415000D01*
G37*
G36*
X115051892Y-66415000D02*
G01*
X115051892Y-65608998D01*
X115055292Y-65560050D01*
X115068684Y-65510194D01*
X115094879Y-65468314D01*
X115137746Y-65437794D01*
X115186424Y-65424122D01*
X115228968Y-65421175D01*
X115331306Y-65421175D01*
X115331306Y-65553555D01*
X115231655Y-65553555D01*
X115200880Y-65569675D01*
X115191355Y-65607777D01*
X115191355Y-66415000D01*
X115051892Y-66415000D01*
G37*
G36*
X114976665Y-65824420D02*
G01*
X114976665Y-65705474D01*
X115331306Y-65705474D01*
X115331306Y-65824420D01*
X114976665Y-65824420D01*
G37*
G36*
X115707928Y-65421175D02*
G01*
X115707928Y-66415000D01*
X115568466Y-66415000D01*
X115568466Y-65572850D01*
X115427049Y-65659556D01*
X115427049Y-65515453D01*
X115568466Y-65421175D01*
X115707928Y-65421175D01*
G37*
G36*
X119484659Y-84504849D02*
G01*
X119352035Y-84504849D01*
X119352035Y-84165840D01*
X119343947Y-84117207D01*
X119317332Y-84075268D01*
X119309781Y-84068142D01*
X119267359Y-84042931D01*
X119218590Y-84032162D01*
X119197429Y-84031262D01*
X119145386Y-84037349D01*
X119099438Y-84057518D01*
X119085566Y-84068142D01*
X119055062Y-84107977D01*
X119043234Y-84158331D01*
X119043067Y-84165840D01*
X119043067Y-84504849D01*
X118910444Y-84504849D01*
X118910444Y-84171213D01*
X118913950Y-84119144D01*
X118924469Y-84071321D01*
X118944138Y-84023620D01*
X118946347Y-84019538D01*
X118974379Y-83978307D01*
X119009106Y-83943944D01*
X119046487Y-83918666D01*
X119093304Y-83898225D01*
X119145432Y-83886268D01*
X119197429Y-83882762D01*
X119249216Y-83886316D01*
X119301333Y-83898435D01*
X119348371Y-83919154D01*
X119389324Y-83947383D01*
X119423524Y-83982365D01*
X119448755Y-84020027D01*
X119469196Y-84066983D01*
X119481152Y-84119192D01*
X119484659Y-84171213D01*
X119484659Y-84504849D01*
G37*
G36*
X119905001Y-84565665D02*
G01*
X118910444Y-84565665D01*
X118910444Y-84426202D01*
X119905001Y-84426202D01*
X119905001Y-84565665D01*
G37*
G36*
X119905001Y-84006593D02*
G01*
X119453884Y-84234228D01*
X119422377Y-84095498D01*
X119905001Y-83840997D01*
X119905001Y-84006593D01*
G37*
G36*
X118911176Y-83433844D02*
G01*
X119905001Y-83433844D01*
X119905001Y-83573306D01*
X119062851Y-83573306D01*
X119149557Y-83714723D01*
X119005454Y-83714723D01*
X118911176Y-83573306D01*
X118911176Y-83433844D01*
G37*
G36*
X122576595Y-65425258D02*
G01*
X122526297Y-65422373D01*
X122473542Y-65412230D01*
X122424845Y-65394784D01*
X122394634Y-65379096D01*
X122353571Y-65350193D01*
X122318033Y-65315417D01*
X122288020Y-65274768D01*
X122273734Y-65249647D01*
X122252955Y-65200458D01*
X122240193Y-65153037D01*
X122232804Y-65102135D01*
X122230747Y-65054741D01*
X122230747Y-64781922D01*
X122233434Y-64727670D01*
X122241494Y-64677020D01*
X122254928Y-64629972D01*
X122273734Y-64586528D01*
X122300677Y-64542517D01*
X122333145Y-64504456D01*
X122371139Y-64472347D01*
X122394634Y-64457079D01*
X122440627Y-64434764D01*
X122490676Y-64419753D01*
X122544783Y-64412044D01*
X122576595Y-64410917D01*
X122629026Y-64414519D01*
X122678548Y-64425324D01*
X122725159Y-64443332D01*
X122734132Y-64447798D01*
X122776569Y-64473734D01*
X122814427Y-64505443D01*
X122847705Y-64542924D01*
X122853811Y-64551113D01*
X122880854Y-64594699D01*
X122901839Y-64642723D01*
X122915546Y-64689737D01*
X122919024Y-64706207D01*
X122776142Y-64706207D01*
X122757425Y-64658721D01*
X122732667Y-64622431D01*
X122695194Y-64587140D01*
X122661348Y-64566744D01*
X122614336Y-64550550D01*
X122576595Y-64546716D01*
X122527915Y-64551836D01*
X122480488Y-64569534D01*
X122440074Y-64599874D01*
X122429317Y-64611441D01*
X122399951Y-64655795D01*
X122382820Y-64702649D01*
X122374500Y-64756070D01*
X122373630Y-64781922D01*
X122373630Y-65054741D01*
X122377110Y-65105132D01*
X122389346Y-65155580D01*
X122413274Y-65203885D01*
X122429317Y-65224979D01*
X122467628Y-65258853D01*
X122512951Y-65280181D01*
X122565287Y-65288964D01*
X122576595Y-65289214D01*
X122628133Y-65282442D01*
X122673488Y-65264170D01*
X122698961Y-65248182D01*
X122736719Y-65212324D01*
X122762038Y-65170523D01*
X122776142Y-65129968D01*
X122919024Y-65129968D01*
X122906914Y-65178199D01*
X122887614Y-65227620D01*
X122862159Y-65272653D01*
X122853323Y-65285307D01*
X122820879Y-65323813D01*
X122784000Y-65356595D01*
X122742683Y-65383652D01*
X122733888Y-65388377D01*
X122687987Y-65407826D01*
X122639129Y-65420071D01*
X122587313Y-65425114D01*
X122576595Y-65425258D01*
G37*
G36*
X123290107Y-64853152D02*
G01*
X123333399Y-64831027D01*
X123384795Y-64824420D01*
X123439994Y-64829275D01*
X123488598Y-64843838D01*
X123535395Y-64871826D01*
X123566023Y-64902090D01*
X123594126Y-64944817D01*
X123614200Y-64995573D01*
X123625178Y-65046572D01*
X123630008Y-65103719D01*
X123630259Y-65121175D01*
X123630259Y-65121664D01*
X123627709Y-65173519D01*
X123618287Y-65228264D01*
X123601923Y-65276815D01*
X123574720Y-65324717D01*
X123557719Y-65345635D01*
X123517694Y-65380470D01*
X123470158Y-65405352D01*
X123422403Y-65418959D01*
X123368898Y-65424947D01*
X123352555Y-65425258D01*
X123297693Y-65421494D01*
X123248510Y-65410204D01*
X123199257Y-65388085D01*
X123157423Y-65356135D01*
X123148124Y-65346612D01*
X123116494Y-65303274D01*
X123096232Y-65258766D01*
X123082888Y-65208111D01*
X123076463Y-65151309D01*
X123076029Y-65133387D01*
X123215290Y-65133387D01*
X123215290Y-65134120D01*
X123220339Y-65185995D01*
X123238992Y-65234100D01*
X123251194Y-65250624D01*
X123291347Y-65279726D01*
X123340541Y-65290812D01*
X123352555Y-65291168D01*
X123401888Y-65284437D01*
X123445787Y-65259940D01*
X123455137Y-65250380D01*
X123479513Y-65207791D01*
X123489926Y-65156272D01*
X123490796Y-65133387D01*
X123490796Y-65132655D01*
X123486352Y-65079868D01*
X123471365Y-65032487D01*
X123453183Y-65003939D01*
X123414100Y-64972717D01*
X123366758Y-64959380D01*
X123345716Y-64958265D01*
X123296763Y-64967054D01*
X123256141Y-64995977D01*
X123249484Y-65004183D01*
X123226110Y-65051393D01*
X123216493Y-65103394D01*
X123215290Y-65133387D01*
X123076029Y-65133387D01*
X123075828Y-65125083D01*
X123075828Y-65124351D01*
X123078301Y-65075075D01*
X123085720Y-65023600D01*
X123093413Y-64988063D01*
X123107547Y-64939134D01*
X123125433Y-64891416D01*
X123144948Y-64849089D01*
X123360859Y-64421175D01*
X123511313Y-64421175D01*
X123290107Y-64853152D01*
G37*
G36*
X114481340Y-65025258D02*
G01*
X114431042Y-65022373D01*
X114378287Y-65012230D01*
X114329590Y-64994784D01*
X114299379Y-64979096D01*
X114258316Y-64950193D01*
X114222778Y-64915417D01*
X114192765Y-64874768D01*
X114178479Y-64849647D01*
X114157700Y-64800458D01*
X114144938Y-64753037D01*
X114137549Y-64702135D01*
X114135492Y-64654741D01*
X114135492Y-64381922D01*
X114138179Y-64327670D01*
X114146239Y-64277020D01*
X114159673Y-64229972D01*
X114178479Y-64186528D01*
X114205422Y-64142517D01*
X114237890Y-64104456D01*
X114275884Y-64072347D01*
X114299379Y-64057079D01*
X114345372Y-64034764D01*
X114395421Y-64019753D01*
X114449528Y-64012044D01*
X114481340Y-64010917D01*
X114533771Y-64014519D01*
X114583293Y-64025324D01*
X114629904Y-64043332D01*
X114638877Y-64047798D01*
X114681314Y-64073734D01*
X114719172Y-64105443D01*
X114752450Y-64142924D01*
X114758556Y-64151113D01*
X114785599Y-64194699D01*
X114806584Y-64242723D01*
X114820291Y-64289737D01*
X114823769Y-64306207D01*
X114680887Y-64306207D01*
X114662170Y-64258721D01*
X114637412Y-64222431D01*
X114599939Y-64187140D01*
X114566093Y-64166744D01*
X114519081Y-64150550D01*
X114481340Y-64146716D01*
X114432660Y-64151836D01*
X114385233Y-64169534D01*
X114344819Y-64199874D01*
X114334062Y-64211441D01*
X114304696Y-64255795D01*
X114287565Y-64302649D01*
X114279245Y-64356070D01*
X114278375Y-64381922D01*
X114278375Y-64654741D01*
X114281855Y-64705132D01*
X114294091Y-64755580D01*
X114318019Y-64803885D01*
X114334062Y-64824979D01*
X114372373Y-64858853D01*
X114417696Y-64880181D01*
X114470032Y-64888964D01*
X114481340Y-64889214D01*
X114532878Y-64882442D01*
X114578233Y-64864170D01*
X114603706Y-64848182D01*
X114641464Y-64812324D01*
X114666783Y-64770523D01*
X114680887Y-64729968D01*
X114823769Y-64729968D01*
X114811659Y-64778199D01*
X114792359Y-64827620D01*
X114766904Y-64872653D01*
X114758068Y-64885307D01*
X114725624Y-64923813D01*
X114688745Y-64956595D01*
X114647428Y-64983652D01*
X114638633Y-64988377D01*
X114592732Y-65007826D01*
X114543874Y-65020071D01*
X114492058Y-65025114D01*
X114481340Y-65025258D01*
G37*
G36*
X115028444Y-65015000D02*
G01*
X115028444Y-64208998D01*
X115031845Y-64160050D01*
X115045236Y-64110194D01*
X115071431Y-64068314D01*
X115114299Y-64037794D01*
X115162976Y-64024122D01*
X115205520Y-64021175D01*
X115307858Y-64021175D01*
X115307858Y-64153555D01*
X115208207Y-64153555D01*
X115177432Y-64169675D01*
X115167907Y-64207777D01*
X115167907Y-65015000D01*
X115028444Y-65015000D01*
G37*
G36*
X114953218Y-64424420D02*
G01*
X114953218Y-64305474D01*
X115307858Y-64305474D01*
X115307858Y-64424420D01*
X114953218Y-64424420D01*
G37*
G36*
X115684481Y-64021175D02*
G01*
X115684481Y-65015000D01*
X115545018Y-65015000D01*
X115545018Y-64172850D01*
X115403601Y-64259556D01*
X115403601Y-64115453D01*
X115545018Y-64021175D01*
X115684481Y-64021175D01*
G37*
D13*
%TO.C,J4*%
X131660001Y-69750000D02*
X131660001Y-70250000D01*
X131660001Y-70250000D02*
X132160001Y-70000000D01*
X132160001Y-70000000D02*
X131660001Y-69750000D01*
X132710001Y-69160000D02*
X132710001Y-68050000D01*
X132710001Y-71950000D02*
X132710001Y-70840000D01*
X136420001Y-69160000D02*
X136420001Y-68050000D01*
X136420001Y-71950000D02*
X136420001Y-70840000D01*
%TO.C,R7*%
X128665277Y-68477500D02*
X129174725Y-68477500D01*
X128665277Y-69522500D02*
X129174725Y-69522500D01*
%TO.C,C4*%
X117773734Y-73490000D02*
X118066268Y-73490000D01*
X117773734Y-74510000D02*
X118066268Y-74510000D01*
%TO.C,J2*%
X125659001Y-77440000D02*
X135580001Y-77440000D01*
X125659001Y-87560000D02*
X125659001Y-77440000D01*
X125659001Y-87560000D02*
X135580001Y-87560000D01*
X128619001Y-87560000D02*
X128619001Y-77440000D01*
X129645001Y-78930000D02*
X129681001Y-78965000D01*
X129851001Y-78725000D02*
X129897001Y-78772000D01*
X131943001Y-81227000D02*
X131989001Y-81274000D01*
X132159001Y-81034000D02*
X132194001Y-81069000D01*
X133520001Y-87560000D02*
X133520001Y-77440000D01*
X135020001Y-87560000D02*
X135020001Y-77440000D01*
X135080001Y-87800000D02*
X135820001Y-87800000D01*
X135580001Y-87560000D02*
X135580001Y-77440000D01*
X135820001Y-87800000D02*
X135820001Y-87300000D01*
X129384574Y-85683042D02*
G75*
G02*
X129385001Y-84316000I1535420J683041D01*
G01*
X130236959Y-83464573D02*
G75*
G02*
X131604001Y-83465000I683042J-1535427D01*
G01*
X131603043Y-86535427D02*
G75*
G02*
X130236001Y-86535000I-683041J1535420D01*
G01*
X132454757Y-84316682D02*
G75*
G02*
X132600001Y-85000000I-1534756J-683318D01*
G01*
X132600254Y-84971195D02*
G75*
G02*
X132455001Y-85684000I-1680254J-28806D01*
G01*
X132600001Y-80000000D02*
G75*
G02*
X129240001Y-80000000I-1680000J0D01*
G01*
X129240001Y-80000000D02*
G75*
G02*
X132600001Y-80000000I1680000J0D01*
G01*
%TO.C,R3*%
X130174725Y-62477500D02*
X129665277Y-62477500D01*
X130174725Y-63522500D02*
X129665277Y-63522500D01*
D14*
%TO.C,U1*%
X116916701Y-70574800D02*
X118923301Y-70574800D01*
X118923301Y-67425200D02*
X116916701Y-67425200D01*
D10*
X120620001Y-70300000D02*
G75*
G02*
X120369999Y-70300000I-125001J0D01*
G01*
X120369999Y-70300000D02*
G75*
G02*
X120620001Y-70300000I125001J0D01*
G01*
D13*
%TO.C,L1*%
X126091268Y-75490000D02*
X125748734Y-75490000D01*
X126091268Y-76510000D02*
X125748734Y-76510000D01*
%TO.C,C5*%
X117773734Y-71490000D02*
X118066268Y-71490000D01*
X117773734Y-72510000D02*
X118066268Y-72510000D01*
%TO.C,C7*%
X128804166Y-70640000D02*
X129035836Y-70640000D01*
X128804166Y-71360000D02*
X129035836Y-71360000D01*
%TO.C,J1*%
X107420001Y-66050000D02*
X107420001Y-67160000D01*
X107420001Y-68840000D02*
X107420001Y-69950000D01*
X111130001Y-66050000D02*
X111130001Y-67160000D01*
X111130001Y-68840000D02*
X111130001Y-69950000D01*
X111680001Y-68000000D02*
X112180001Y-68250000D01*
X112180001Y-67750000D02*
X111680001Y-68000000D01*
X112180001Y-68250000D02*
X112180001Y-67750000D01*
%TO.C,C3*%
X116747350Y-83336466D02*
X116583535Y-83172651D01*
X117256467Y-82827349D02*
X117092652Y-82663534D01*
%TO.C,J3*%
X118970001Y-88790000D02*
X120080001Y-88790000D01*
X118970001Y-92500000D02*
X120080001Y-92500000D01*
X120670001Y-87740000D02*
X120920001Y-88240000D01*
X120920001Y-88240000D02*
X121170001Y-87740000D01*
X121170001Y-87740000D02*
X120670001Y-87740000D01*
X121760001Y-88790000D02*
X122870001Y-88790000D01*
X121760001Y-92500000D02*
X122870001Y-92500000D01*
%TO.C,C1*%
X120560001Y-80115835D02*
X120560001Y-79884165D01*
X121280001Y-80115835D02*
X121280001Y-79884165D01*
%TO.C,D1*%
X123185001Y-79200000D02*
X123185001Y-81485000D01*
X123185001Y-81485000D02*
X124655001Y-81485000D01*
X124655001Y-81485000D02*
X124655001Y-79200000D01*
%TO.C,Cf2*%
X117812165Y-63140000D02*
X118027837Y-63140000D01*
X117812165Y-63860000D02*
X118027837Y-63860000D01*
%TO.C,C2*%
X117773734Y-76490000D02*
X118066268Y-76490000D01*
X117773734Y-77510000D02*
X118066268Y-77510000D01*
%TO.C,R6*%
X124665277Y-69477500D02*
X125174725Y-69477500D01*
X124665277Y-70522500D02*
X125174725Y-70522500D01*
%TO.C,R2*%
X114085420Y-80904345D02*
X113725186Y-80544111D01*
X114824346Y-80165419D02*
X114464112Y-79805185D01*
%TO.C,JP1*%
X112397501Y-69254724D02*
X112397501Y-68745276D01*
X113442501Y-69254724D02*
X113442501Y-68745276D01*
%TO.C,R5*%
X123397501Y-83745276D02*
X123397501Y-84254724D01*
X124442501Y-83745276D02*
X124442501Y-84254724D01*
%TO.C,R4*%
X126174725Y-62477500D02*
X125665277Y-62477500D01*
X126174725Y-63522500D02*
X125665277Y-63522500D01*
%TO.C,Rf1*%
X117766360Y-65320000D02*
X118073642Y-65320000D01*
X117766360Y-66080000D02*
X118073642Y-66080000D01*
%TO.C,SD_L1*%
X108590001Y-81270000D02*
X108590001Y-76130000D01*
X111250001Y-76130000D02*
X108590001Y-76130000D01*
X111250001Y-81270000D02*
X108590001Y-81270000D01*
X111250001Y-81270000D02*
X111250001Y-76130000D01*
X111250001Y-82540000D02*
X111250001Y-83870000D01*
X111250001Y-83870000D02*
X109920001Y-83870000D01*
%TO.C,R1*%
X120397501Y-84254724D02*
X120397501Y-83745276D01*
X121442501Y-84254724D02*
X121442501Y-83745276D01*
%TO.C,C6*%
X126066268Y-64490000D02*
X125773734Y-64490000D01*
X126066268Y-65510000D02*
X125773734Y-65510000D01*
%TO.C,Cf1*%
X117812165Y-64240000D02*
X118027837Y-64240000D01*
X117812165Y-64960000D02*
X118027837Y-64960000D01*
%TD*%
M02*
