%TF.GenerationSoftware,KiCad,Pcbnew,8.0.2*%
%TF.CreationDate,2025-01-11T01:17:19-03:00*%
%TF.ProjectId,LumiCom_Transmitter,4c756d69-436f-46d5-9f54-72616e736d69,rev?*%
%TF.SameCoordinates,Original*%
%TF.FileFunction,Copper,L3,Inr*%
%TF.FilePolarity,Positive*%
%FSLAX46Y46*%
G04 Gerber Fmt 4.6, Leading zero omitted, Abs format (unit mm)*
G04 Created by KiCad (PCBNEW 8.0.2) date 2025-01-11 01:17:19*
%MOMM*%
%LPD*%
G01*
G04 APERTURE LIST*
%TA.AperFunction,ComponentPad*%
%ADD10R,1.700000X1.700000*%
%TD*%
%TA.AperFunction,ComponentPad*%
%ADD11O,1.700000X1.700000*%
%TD*%
%TA.AperFunction,HeatsinkPad*%
%ADD12C,0.500000*%
%TD*%
%TA.AperFunction,ComponentPad*%
%ADD13R,2.600000X2.600000*%
%TD*%
%TA.AperFunction,ComponentPad*%
%ADD14C,2.600000*%
%TD*%
%TA.AperFunction,ViaPad*%
%ADD15C,0.500000*%
%TD*%
%TA.AperFunction,ViaPad*%
%ADD16C,0.800000*%
%TD*%
G04 APERTURE END LIST*
D10*
%TO.N,VCC*%
%TO.C,JP_A1*%
X136000000Y-88000000D03*
D11*
%TO.N,Net-(JP_A1-C)*%
X138540000Y-88000000D03*
%TO.N,GND*%
X141080000Y-88000000D03*
%TD*%
D12*
%TO.N,GND*%
%TO.C,U1*%
X124200000Y-74200000D03*
X124200000Y-75000000D03*
X124200000Y-75800000D03*
X125000000Y-74200000D03*
X125000000Y-75000000D03*
X125000000Y-75800000D03*
X125800000Y-74200000D03*
X125800000Y-75000000D03*
X125800000Y-75800000D03*
%TD*%
D10*
%TO.N,GND*%
%TO.C,JP_A0*%
X109000000Y-88000000D03*
D11*
%TO.N,Net-(JP_A0-C)*%
X111540000Y-88000000D03*
%TO.N,VCC*%
X114080000Y-88000000D03*
%TD*%
D13*
%TO.N,Net-(J1-Pin_1)*%
%TO.C,J1*%
X123000000Y-87000000D03*
D14*
%TO.N,GND*%
X128000000Y-87000000D03*
%TD*%
D15*
%TO.N,GND*%
X129000000Y-77000000D03*
X129000000Y-79000000D03*
X123000000Y-78000000D03*
X127000000Y-78000000D03*
X126000000Y-79000000D03*
X122000000Y-82000000D03*
X128000000Y-78000000D03*
X121000000Y-79000000D03*
X121000000Y-77000000D03*
X119000000Y-81000000D03*
X119000000Y-78000000D03*
D16*
X106000000Y-78000000D03*
D15*
X121000000Y-82000000D03*
X120000000Y-78000000D03*
X120000000Y-81000000D03*
X124000000Y-81000000D03*
X120000000Y-82000000D03*
X120000000Y-80000000D03*
X111000000Y-80000000D03*
X115000000Y-84000000D03*
X123000000Y-79000000D03*
X123000000Y-77000000D03*
X125000000Y-78000000D03*
X120000000Y-77000000D03*
X119000000Y-79000000D03*
X128000000Y-79000000D03*
X124000000Y-79000000D03*
X128000000Y-81000000D03*
X122000000Y-77000000D03*
X123000000Y-81000000D03*
X131000000Y-78000000D03*
X126000000Y-80000000D03*
X119000000Y-80000000D03*
X130000000Y-80000000D03*
X131000000Y-79000000D03*
X122000000Y-78000000D03*
X124000000Y-80000000D03*
X135000000Y-84000000D03*
X131000000Y-82000000D03*
X129000000Y-78000000D03*
X114000000Y-67000000D03*
X123000000Y-80000000D03*
X130000000Y-79000000D03*
D16*
X132000000Y-56000000D03*
X118000000Y-56000000D03*
D15*
X119000000Y-82000000D03*
X122000000Y-80000000D03*
X136000000Y-67000000D03*
X127000000Y-79000000D03*
X125000000Y-65000000D03*
X129000000Y-82000000D03*
X122000000Y-79000000D03*
D16*
X112000000Y-56000000D03*
D15*
X129000000Y-81000000D03*
X119000000Y-77000000D03*
X128000000Y-77000000D03*
X128000000Y-80000000D03*
X120000000Y-79000000D03*
X126000000Y-81000000D03*
X121000000Y-80000000D03*
X139000000Y-80000000D03*
X121000000Y-78000000D03*
X122000000Y-81000000D03*
X130000000Y-81000000D03*
X127000000Y-81000000D03*
D16*
X144000000Y-78000000D03*
D15*
X128000000Y-82000000D03*
D16*
X144000000Y-72000000D03*
D15*
X131000000Y-80000000D03*
X124000000Y-78000000D03*
D16*
X106000000Y-72000000D03*
D15*
X131000000Y-81000000D03*
X130000000Y-77000000D03*
X129000000Y-80000000D03*
X123000000Y-82000000D03*
D16*
X138000000Y-56000000D03*
D15*
X130000000Y-82000000D03*
X127000000Y-82000000D03*
X103000000Y-62000000D03*
X127000000Y-80000000D03*
X130000000Y-78000000D03*
X131000000Y-77000000D03*
X121000000Y-81000000D03*
%TO.N,VCC*%
X125000000Y-60000000D03*
X112000000Y-62000000D03*
X111000000Y-70000000D03*
X125000000Y-71000000D03*
X108000000Y-84000000D03*
X139000000Y-70000000D03*
%TO.N,Net-(JP_A0-C)*%
X126000000Y-78000000D03*
%TO.N,Net-(JP_A1-C)*%
X128000000Y-76000000D03*
%TD*%
%TA.AperFunction,Conductor*%
%TO.N,VCC*%
G36*
X149443039Y-50519685D02*
G01*
X149488794Y-50572489D01*
X149500000Y-50624000D01*
X149500000Y-91376000D01*
X149480315Y-91443039D01*
X149427511Y-91488794D01*
X149376000Y-91500000D01*
X100624000Y-91500000D01*
X100556961Y-91480315D01*
X100511206Y-91427511D01*
X100500000Y-91376000D01*
X100500000Y-87885258D01*
X102249500Y-87885258D01*
X102249500Y-88114741D01*
X102259803Y-88192993D01*
X102279452Y-88342238D01*
X102314426Y-88472764D01*
X102338842Y-88563887D01*
X102426650Y-88775876D01*
X102426657Y-88775890D01*
X102541392Y-88974617D01*
X102681081Y-89156661D01*
X102681089Y-89156670D01*
X102843330Y-89318911D01*
X102843338Y-89318918D01*
X103025382Y-89458607D01*
X103025385Y-89458608D01*
X103025388Y-89458611D01*
X103224112Y-89573344D01*
X103224117Y-89573346D01*
X103224123Y-89573349D01*
X103315480Y-89611190D01*
X103436113Y-89661158D01*
X103657762Y-89720548D01*
X103885266Y-89750500D01*
X103885273Y-89750500D01*
X104114727Y-89750500D01*
X104114734Y-89750500D01*
X104342238Y-89720548D01*
X104563887Y-89661158D01*
X104775888Y-89573344D01*
X104974612Y-89458611D01*
X105156661Y-89318919D01*
X105156665Y-89318914D01*
X105156670Y-89318911D01*
X105318911Y-89156670D01*
X105318914Y-89156665D01*
X105318919Y-89156661D01*
X105458611Y-88974612D01*
X105573344Y-88775888D01*
X105661158Y-88563887D01*
X105720548Y-88342238D01*
X105750500Y-88114734D01*
X105750500Y-87885266D01*
X105720548Y-87657762D01*
X105661158Y-87436113D01*
X105573344Y-87224112D01*
X105504651Y-87105131D01*
X107849500Y-87105131D01*
X107849500Y-88894856D01*
X107849502Y-88894882D01*
X107852413Y-88919987D01*
X107852415Y-88919991D01*
X107897793Y-89022764D01*
X107897794Y-89022765D01*
X107977235Y-89102206D01*
X108080009Y-89147585D01*
X108105135Y-89150500D01*
X109894864Y-89150499D01*
X109894879Y-89150497D01*
X109894882Y-89150497D01*
X109919987Y-89147586D01*
X109919988Y-89147585D01*
X109919991Y-89147585D01*
X110022765Y-89102206D01*
X110102206Y-89022765D01*
X110147585Y-88919991D01*
X110150500Y-88894865D01*
X110150499Y-88156046D01*
X110170183Y-88089009D01*
X110222987Y-88043254D01*
X110292146Y-88033310D01*
X110355702Y-88062335D01*
X110393476Y-88121113D01*
X110397970Y-88144606D01*
X110402454Y-88192993D01*
X110404244Y-88212310D01*
X110457675Y-88400099D01*
X110462596Y-88417392D01*
X110462596Y-88417394D01*
X110557632Y-88608253D01*
X110684227Y-88775890D01*
X110686128Y-88778407D01*
X110843698Y-88922052D01*
X111024981Y-89034298D01*
X111223802Y-89111321D01*
X111433390Y-89150500D01*
X111433392Y-89150500D01*
X111646608Y-89150500D01*
X111646610Y-89150500D01*
X111856198Y-89111321D01*
X112055019Y-89034298D01*
X112236302Y-88922052D01*
X112393872Y-88778407D01*
X112522366Y-88608255D01*
X112523764Y-88605448D01*
X112576270Y-88500000D01*
X113044288Y-88500000D01*
X113098059Y-88607989D01*
X113226500Y-88778071D01*
X113384000Y-88921651D01*
X113384002Y-88921653D01*
X113565202Y-89033847D01*
X113565204Y-89033848D01*
X113580000Y-89039579D01*
X113580000Y-89039578D01*
X114580000Y-89039578D01*
X114594795Y-89033848D01*
X114594797Y-89033847D01*
X114775997Y-88921653D01*
X114775999Y-88921651D01*
X114805470Y-88894785D01*
X134850001Y-88894785D01*
X134850002Y-88894808D01*
X134852908Y-88919869D01*
X134852909Y-88919873D01*
X134898211Y-89022474D01*
X134898214Y-89022479D01*
X134977520Y-89101785D01*
X134977525Y-89101788D01*
X135080123Y-89147089D01*
X135105206Y-89149999D01*
X135499999Y-89149999D01*
X135500000Y-89149998D01*
X135500000Y-88500000D01*
X134850001Y-88500000D01*
X134850001Y-88894785D01*
X114805470Y-88894785D01*
X114933499Y-88778071D01*
X115061940Y-88607989D01*
X115115712Y-88500000D01*
X114580000Y-88500000D01*
X114580000Y-89039578D01*
X113580000Y-89039578D01*
X113580000Y-88500000D01*
X113044288Y-88500000D01*
X112576270Y-88500000D01*
X112617403Y-88417394D01*
X112617403Y-88417393D01*
X112617405Y-88417389D01*
X112675756Y-88212310D01*
X112695429Y-88000000D01*
X112689329Y-87934174D01*
X113580000Y-87934174D01*
X113580000Y-88065826D01*
X113614075Y-88192993D01*
X113679901Y-88307007D01*
X113772993Y-88400099D01*
X113887007Y-88465925D01*
X114014174Y-88500000D01*
X114145826Y-88500000D01*
X114272993Y-88465925D01*
X114387007Y-88400099D01*
X114480099Y-88307007D01*
X114545925Y-88192993D01*
X114580000Y-88065826D01*
X114580000Y-87934174D01*
X114545925Y-87807007D01*
X114480099Y-87692993D01*
X114387007Y-87599901D01*
X114272993Y-87534075D01*
X114145826Y-87500000D01*
X114580000Y-87500000D01*
X115115712Y-87500000D01*
X115115712Y-87499999D01*
X115061940Y-87392010D01*
X114933499Y-87221928D01*
X114775999Y-87078348D01*
X114775997Y-87078346D01*
X114594801Y-86966155D01*
X114594793Y-86966151D01*
X114580000Y-86960419D01*
X114580000Y-87500000D01*
X114145826Y-87500000D01*
X114014174Y-87500000D01*
X113887007Y-87534075D01*
X113772993Y-87599901D01*
X113679901Y-87692993D01*
X113614075Y-87807007D01*
X113580000Y-87934174D01*
X112689329Y-87934174D01*
X112675756Y-87787690D01*
X112617405Y-87582611D01*
X112617403Y-87582606D01*
X112617403Y-87582605D01*
X112576270Y-87499999D01*
X113044287Y-87499999D01*
X113044288Y-87500000D01*
X113580000Y-87500000D01*
X113580000Y-86960420D01*
X113579999Y-86960419D01*
X113565206Y-86966151D01*
X113565198Y-86966155D01*
X113384002Y-87078346D01*
X113384000Y-87078348D01*
X113226500Y-87221928D01*
X113098059Y-87392010D01*
X113044287Y-87499999D01*
X112576270Y-87499999D01*
X112522367Y-87391746D01*
X112393872Y-87221593D01*
X112236302Y-87077948D01*
X112055019Y-86965702D01*
X112055017Y-86965701D01*
X111955608Y-86927190D01*
X111856198Y-86888679D01*
X111646610Y-86849500D01*
X111433390Y-86849500D01*
X111223802Y-86888679D01*
X111223799Y-86888679D01*
X111223799Y-86888680D01*
X111024982Y-86965701D01*
X111024980Y-86965702D01*
X110843699Y-87077947D01*
X110686127Y-87221593D01*
X110557632Y-87391746D01*
X110462596Y-87582605D01*
X110462596Y-87582607D01*
X110404244Y-87787689D01*
X110397970Y-87855394D01*
X110372183Y-87920331D01*
X110315383Y-87961018D01*
X110245602Y-87964538D01*
X110184995Y-87929772D01*
X110152806Y-87867759D01*
X110150499Y-87843952D01*
X110150499Y-87105143D01*
X110150499Y-87105136D01*
X110150497Y-87105117D01*
X110147586Y-87080012D01*
X110147585Y-87080010D01*
X110147585Y-87080009D01*
X110102206Y-86977235D01*
X110022765Y-86897794D01*
X110002124Y-86888680D01*
X109919992Y-86852415D01*
X109894865Y-86849500D01*
X108105143Y-86849500D01*
X108105117Y-86849502D01*
X108080012Y-86852413D01*
X108080008Y-86852415D01*
X107977235Y-86897793D01*
X107897794Y-86977234D01*
X107852415Y-87080006D01*
X107852415Y-87080008D01*
X107849500Y-87105131D01*
X105504651Y-87105131D01*
X105458611Y-87025388D01*
X105458608Y-87025385D01*
X105458607Y-87025382D01*
X105326262Y-86852909D01*
X105318919Y-86843339D01*
X105318918Y-86843338D01*
X105318911Y-86843330D01*
X105156670Y-86681089D01*
X105156661Y-86681081D01*
X104974617Y-86541392D01*
X104775890Y-86426657D01*
X104775876Y-86426650D01*
X104563887Y-86338842D01*
X104342238Y-86279452D01*
X104304215Y-86274446D01*
X104114741Y-86249500D01*
X104114734Y-86249500D01*
X103885266Y-86249500D01*
X103885258Y-86249500D01*
X103668715Y-86278009D01*
X103657762Y-86279452D01*
X103564076Y-86304554D01*
X103436112Y-86338842D01*
X103224123Y-86426650D01*
X103224109Y-86426657D01*
X103025382Y-86541392D01*
X102843338Y-86681081D01*
X102681081Y-86843338D01*
X102541392Y-87025382D01*
X102426657Y-87224109D01*
X102426650Y-87224123D01*
X102338842Y-87436112D01*
X102338842Y-87436113D01*
X102299590Y-87582607D01*
X102279453Y-87657759D01*
X102279451Y-87657770D01*
X102249500Y-87885258D01*
X100500000Y-87885258D01*
X100500000Y-85655131D01*
X121399500Y-85655131D01*
X121399500Y-88344856D01*
X121399502Y-88344882D01*
X121402413Y-88369987D01*
X121402415Y-88369991D01*
X121447793Y-88472764D01*
X121447794Y-88472765D01*
X121527235Y-88552206D01*
X121630009Y-88597585D01*
X121655135Y-88600500D01*
X124344864Y-88600499D01*
X124344879Y-88600497D01*
X124344882Y-88600497D01*
X124369987Y-88597586D01*
X124369988Y-88597585D01*
X124369991Y-88597585D01*
X124472765Y-88552206D01*
X124552206Y-88472765D01*
X124597585Y-88369991D01*
X124600500Y-88344865D01*
X124600499Y-87000000D01*
X126394551Y-87000000D01*
X126414317Y-87251151D01*
X126473126Y-87496110D01*
X126569533Y-87728859D01*
X126701160Y-87943653D01*
X126701161Y-87943656D01*
X126748595Y-87999194D01*
X126864776Y-88135224D01*
X127013066Y-88261875D01*
X127056343Y-88298838D01*
X127056346Y-88298839D01*
X127271140Y-88430466D01*
X127503889Y-88526873D01*
X127748852Y-88585683D01*
X128000000Y-88605449D01*
X128251148Y-88585683D01*
X128496111Y-88526873D01*
X128728859Y-88430466D01*
X128943659Y-88298836D01*
X129135224Y-88135224D01*
X129298836Y-87943659D01*
X129304648Y-87934174D01*
X135500000Y-87934174D01*
X135500000Y-88065826D01*
X135534075Y-88192993D01*
X135599901Y-88307007D01*
X135692993Y-88400099D01*
X135807007Y-88465925D01*
X135934174Y-88500000D01*
X136065826Y-88500000D01*
X136192993Y-88465925D01*
X136307007Y-88400099D01*
X136400099Y-88307007D01*
X136465925Y-88192993D01*
X136500000Y-88065826D01*
X136500000Y-89149999D01*
X136894786Y-89149999D01*
X136894808Y-89149997D01*
X136919869Y-89147091D01*
X136919873Y-89147090D01*
X137022474Y-89101788D01*
X137022479Y-89101785D01*
X137101785Y-89022479D01*
X137101788Y-89022474D01*
X137147089Y-88919877D01*
X137147089Y-88919875D01*
X137149999Y-88894794D01*
X137149999Y-88150653D01*
X137169683Y-88083614D01*
X137222487Y-88037859D01*
X137291646Y-88027915D01*
X137355202Y-88056940D01*
X137392976Y-88115718D01*
X137397470Y-88139211D01*
X137402454Y-88192993D01*
X137404244Y-88212310D01*
X137457675Y-88400099D01*
X137462596Y-88417392D01*
X137462596Y-88417394D01*
X137557632Y-88608253D01*
X137684227Y-88775890D01*
X137686128Y-88778407D01*
X137843698Y-88922052D01*
X138024981Y-89034298D01*
X138223802Y-89111321D01*
X138433390Y-89150500D01*
X138433392Y-89150500D01*
X138646608Y-89150500D01*
X138646610Y-89150500D01*
X138856198Y-89111321D01*
X139055019Y-89034298D01*
X139236302Y-88922052D01*
X139393872Y-88778407D01*
X139522366Y-88608255D01*
X139523764Y-88605448D01*
X139617403Y-88417394D01*
X139617403Y-88417393D01*
X139617405Y-88417389D01*
X139675756Y-88212310D01*
X139686529Y-88096047D01*
X139712315Y-88031111D01*
X139754622Y-88000804D01*
X139863130Y-88000804D01*
X139899503Y-88021668D01*
X139931693Y-88083681D01*
X139933470Y-88096047D01*
X139944244Y-88212310D01*
X139997675Y-88400099D01*
X140002596Y-88417392D01*
X140002596Y-88417394D01*
X140097632Y-88608253D01*
X140224227Y-88775890D01*
X140226128Y-88778407D01*
X140383698Y-88922052D01*
X140564981Y-89034298D01*
X140763802Y-89111321D01*
X140973390Y-89150500D01*
X140973392Y-89150500D01*
X141186608Y-89150500D01*
X141186610Y-89150500D01*
X141396198Y-89111321D01*
X141595019Y-89034298D01*
X141776302Y-88922052D01*
X141933872Y-88778407D01*
X142062366Y-88608255D01*
X142063764Y-88605448D01*
X142157403Y-88417394D01*
X142157403Y-88417393D01*
X142157405Y-88417389D01*
X142215756Y-88212310D01*
X142235429Y-88000000D01*
X142224797Y-87885258D01*
X144249500Y-87885258D01*
X144249500Y-88114741D01*
X144259803Y-88192993D01*
X144279452Y-88342238D01*
X144314426Y-88472764D01*
X144338842Y-88563887D01*
X144426650Y-88775876D01*
X144426657Y-88775890D01*
X144541392Y-88974617D01*
X144681081Y-89156661D01*
X144681089Y-89156670D01*
X144843330Y-89318911D01*
X144843338Y-89318918D01*
X145025382Y-89458607D01*
X145025385Y-89458608D01*
X145025388Y-89458611D01*
X145224112Y-89573344D01*
X145224117Y-89573346D01*
X145224123Y-89573349D01*
X145315480Y-89611190D01*
X145436113Y-89661158D01*
X145657762Y-89720548D01*
X145885266Y-89750500D01*
X145885273Y-89750500D01*
X146114727Y-89750500D01*
X146114734Y-89750500D01*
X146342238Y-89720548D01*
X146563887Y-89661158D01*
X146775888Y-89573344D01*
X146974612Y-89458611D01*
X147156661Y-89318919D01*
X147156665Y-89318914D01*
X147156670Y-89318911D01*
X147318911Y-89156670D01*
X147318914Y-89156665D01*
X147318919Y-89156661D01*
X147458611Y-88974612D01*
X147573344Y-88775888D01*
X147661158Y-88563887D01*
X147720548Y-88342238D01*
X147750500Y-88114734D01*
X147750500Y-87885266D01*
X147720548Y-87657762D01*
X147661158Y-87436113D01*
X147573344Y-87224112D01*
X147458611Y-87025388D01*
X147458608Y-87025385D01*
X147458607Y-87025382D01*
X147326262Y-86852909D01*
X147318919Y-86843339D01*
X147318918Y-86843338D01*
X147318911Y-86843330D01*
X147156670Y-86681089D01*
X147156661Y-86681081D01*
X146974617Y-86541392D01*
X146775890Y-86426657D01*
X146775876Y-86426650D01*
X146563887Y-86338842D01*
X146342238Y-86279452D01*
X146304215Y-86274446D01*
X146114741Y-86249500D01*
X146114734Y-86249500D01*
X145885266Y-86249500D01*
X145885258Y-86249500D01*
X145668715Y-86278009D01*
X145657762Y-86279452D01*
X145564076Y-86304554D01*
X145436112Y-86338842D01*
X145224123Y-86426650D01*
X145224109Y-86426657D01*
X145025382Y-86541392D01*
X144843338Y-86681081D01*
X144681081Y-86843338D01*
X144541392Y-87025382D01*
X144426657Y-87224109D01*
X144426650Y-87224123D01*
X144338842Y-87436112D01*
X144338842Y-87436113D01*
X144299590Y-87582607D01*
X144279453Y-87657759D01*
X144279451Y-87657770D01*
X144249500Y-87885258D01*
X142224797Y-87885258D01*
X142215756Y-87787690D01*
X142157405Y-87582611D01*
X142157403Y-87582606D01*
X142157403Y-87582605D01*
X142062367Y-87391746D01*
X141933872Y-87221593D01*
X141776302Y-87077948D01*
X141595019Y-86965702D01*
X141595017Y-86965701D01*
X141495608Y-86927190D01*
X141396198Y-86888679D01*
X141186610Y-86849500D01*
X140973390Y-86849500D01*
X140763802Y-86888679D01*
X140763799Y-86888679D01*
X140763799Y-86888680D01*
X140564982Y-86965701D01*
X140564980Y-86965702D01*
X140383699Y-87077947D01*
X140226127Y-87221593D01*
X140097632Y-87391746D01*
X140002596Y-87582605D01*
X140002596Y-87582607D01*
X139944244Y-87787689D01*
X139933471Y-87903951D01*
X139907685Y-87968888D01*
X139863130Y-88000804D01*
X139754622Y-88000804D01*
X139756869Y-87999194D01*
X139720497Y-87978331D01*
X139688307Y-87916318D01*
X139686529Y-87903951D01*
X139684798Y-87885272D01*
X139675756Y-87787690D01*
X139617405Y-87582611D01*
X139617403Y-87582606D01*
X139617403Y-87582605D01*
X139522367Y-87391746D01*
X139393872Y-87221593D01*
X139236302Y-87077948D01*
X139055019Y-86965702D01*
X139055017Y-86965701D01*
X138955608Y-86927190D01*
X138856198Y-86888679D01*
X138646610Y-86849500D01*
X138433390Y-86849500D01*
X138223802Y-86888679D01*
X138223799Y-86888679D01*
X138223799Y-86888680D01*
X138024982Y-86965701D01*
X138024980Y-86965702D01*
X137843699Y-87077947D01*
X137686127Y-87221593D01*
X137557632Y-87391746D01*
X137462596Y-87582605D01*
X137462596Y-87582607D01*
X137404244Y-87787689D01*
X137397470Y-87860790D01*
X137371683Y-87925727D01*
X137314883Y-87966414D01*
X137245102Y-87969934D01*
X137184496Y-87935168D01*
X137152306Y-87873155D01*
X137149999Y-87849348D01*
X137149999Y-87105214D01*
X137149997Y-87105191D01*
X137147091Y-87080130D01*
X137147090Y-87080126D01*
X137101788Y-86977525D01*
X137101785Y-86977520D01*
X137022479Y-86898214D01*
X137022474Y-86898211D01*
X136919876Y-86852910D01*
X136894794Y-86850000D01*
X136500000Y-86850000D01*
X136500000Y-87934174D01*
X136465925Y-87807007D01*
X136400099Y-87692993D01*
X136307007Y-87599901D01*
X136192993Y-87534075D01*
X136065826Y-87500000D01*
X135934174Y-87500000D01*
X135807007Y-87534075D01*
X135692993Y-87599901D01*
X135599901Y-87692993D01*
X135534075Y-87807007D01*
X135500000Y-87934174D01*
X129304648Y-87934174D01*
X129430466Y-87728859D01*
X129526873Y-87496111D01*
X129585683Y-87251148D01*
X129597169Y-87105205D01*
X134850000Y-87105205D01*
X134850000Y-87500000D01*
X135500000Y-87500000D01*
X135500000Y-86850000D01*
X135105214Y-86850000D01*
X135105191Y-86850002D01*
X135080130Y-86852908D01*
X135080126Y-86852909D01*
X134977525Y-86898211D01*
X134977520Y-86898214D01*
X134898214Y-86977520D01*
X134898211Y-86977525D01*
X134852910Y-87080122D01*
X134852910Y-87080124D01*
X134850000Y-87105205D01*
X129597169Y-87105205D01*
X129605449Y-87000000D01*
X129585683Y-86748852D01*
X129526873Y-86503889D01*
X129433909Y-86279452D01*
X129430466Y-86271140D01*
X129298839Y-86056346D01*
X129298838Y-86056343D01*
X129261875Y-86013066D01*
X129135224Y-85864776D01*
X129008571Y-85756604D01*
X128943656Y-85701161D01*
X128943653Y-85701160D01*
X128728859Y-85569533D01*
X128496110Y-85473126D01*
X128251151Y-85414317D01*
X128000000Y-85394551D01*
X127748848Y-85414317D01*
X127503889Y-85473126D01*
X127271140Y-85569533D01*
X127056346Y-85701160D01*
X127056343Y-85701161D01*
X126864776Y-85864776D01*
X126701161Y-86056343D01*
X126701160Y-86056346D01*
X126569533Y-86271140D01*
X126473126Y-86503889D01*
X126414317Y-86748848D01*
X126394551Y-87000000D01*
X124600499Y-87000000D01*
X124600499Y-85655136D01*
X124600497Y-85655117D01*
X124597586Y-85630012D01*
X124597585Y-85630010D01*
X124597585Y-85630009D01*
X124552206Y-85527235D01*
X124472765Y-85447794D01*
X124396947Y-85414317D01*
X124369992Y-85402415D01*
X124344865Y-85399500D01*
X121655143Y-85399500D01*
X121655117Y-85399502D01*
X121630012Y-85402413D01*
X121630008Y-85402415D01*
X121527235Y-85447793D01*
X121447794Y-85527234D01*
X121402415Y-85630006D01*
X121402415Y-85630008D01*
X121399500Y-85655131D01*
X100500000Y-85655131D01*
X100500000Y-83999999D01*
X114444750Y-83999999D01*
X114444750Y-84000000D01*
X114463670Y-84143708D01*
X114463671Y-84143712D01*
X114519137Y-84277622D01*
X114519138Y-84277624D01*
X114519139Y-84277625D01*
X114607379Y-84392621D01*
X114722375Y-84480861D01*
X114856291Y-84536330D01*
X114983280Y-84553048D01*
X114999999Y-84555250D01*
X115000000Y-84555250D01*
X115000001Y-84555250D01*
X115014977Y-84553278D01*
X115143709Y-84536330D01*
X115277625Y-84480861D01*
X115392621Y-84392621D01*
X115480861Y-84277625D01*
X115536330Y-84143709D01*
X115555250Y-84000000D01*
X115555250Y-83999999D01*
X134444750Y-83999999D01*
X134444750Y-84000000D01*
X134463670Y-84143708D01*
X134463671Y-84143712D01*
X134519137Y-84277622D01*
X134519138Y-84277624D01*
X134519139Y-84277625D01*
X134607379Y-84392621D01*
X134722375Y-84480861D01*
X134856291Y-84536330D01*
X134983280Y-84553048D01*
X134999999Y-84555250D01*
X135000000Y-84555250D01*
X135000001Y-84555250D01*
X135014977Y-84553278D01*
X135143709Y-84536330D01*
X135277625Y-84480861D01*
X135392621Y-84392621D01*
X135480861Y-84277625D01*
X135536330Y-84143709D01*
X135555250Y-84000000D01*
X135536330Y-83856291D01*
X135480861Y-83722375D01*
X135392621Y-83607379D01*
X135277625Y-83519139D01*
X135277624Y-83519138D01*
X135277622Y-83519137D01*
X135143712Y-83463671D01*
X135143710Y-83463670D01*
X135143709Y-83463670D01*
X135071854Y-83454210D01*
X135000001Y-83444750D01*
X134999999Y-83444750D01*
X134856291Y-83463670D01*
X134856287Y-83463671D01*
X134722377Y-83519137D01*
X134607379Y-83607379D01*
X134519137Y-83722377D01*
X134463671Y-83856287D01*
X134463670Y-83856291D01*
X134444750Y-83999999D01*
X115555250Y-83999999D01*
X115536330Y-83856291D01*
X115480861Y-83722375D01*
X115392621Y-83607379D01*
X115277625Y-83519139D01*
X115277624Y-83519138D01*
X115277622Y-83519137D01*
X115143712Y-83463671D01*
X115143710Y-83463670D01*
X115143709Y-83463670D01*
X115071854Y-83454210D01*
X115000001Y-83444750D01*
X114999999Y-83444750D01*
X114856291Y-83463670D01*
X114856287Y-83463671D01*
X114722377Y-83519137D01*
X114607379Y-83607379D01*
X114519137Y-83722377D01*
X114463671Y-83856287D01*
X114463670Y-83856291D01*
X114444750Y-83999999D01*
X100500000Y-83999999D01*
X100500000Y-79999999D01*
X110444750Y-79999999D01*
X110444750Y-80000000D01*
X110463670Y-80143708D01*
X110463671Y-80143712D01*
X110519137Y-80277622D01*
X110519138Y-80277624D01*
X110519139Y-80277625D01*
X110607379Y-80392621D01*
X110722375Y-80480861D01*
X110856291Y-80536330D01*
X110983280Y-80553048D01*
X110999999Y-80555250D01*
X111000000Y-80555250D01*
X111000001Y-80555250D01*
X111014977Y-80553278D01*
X111143709Y-80536330D01*
X111277625Y-80480861D01*
X111392621Y-80392621D01*
X111480861Y-80277625D01*
X111536330Y-80143709D01*
X111555250Y-80000000D01*
X111536330Y-79856291D01*
X111480861Y-79722375D01*
X111392621Y-79607379D01*
X111277625Y-79519139D01*
X111277624Y-79519138D01*
X111277622Y-79519137D01*
X111143712Y-79463671D01*
X111143710Y-79463670D01*
X111143709Y-79463670D01*
X111071854Y-79454210D01*
X111000001Y-79444750D01*
X110999999Y-79444750D01*
X110856291Y-79463670D01*
X110856287Y-79463671D01*
X110722377Y-79519137D01*
X110607379Y-79607379D01*
X110519137Y-79722377D01*
X110463671Y-79856287D01*
X110463670Y-79856291D01*
X110444750Y-79999999D01*
X100500000Y-79999999D01*
X100500000Y-78000000D01*
X105294355Y-78000000D01*
X105314859Y-78168869D01*
X105314860Y-78168874D01*
X105375182Y-78327931D01*
X105419835Y-78392621D01*
X105471817Y-78467929D01*
X105539397Y-78527799D01*
X105599150Y-78580736D01*
X105749773Y-78659789D01*
X105749775Y-78659790D01*
X105914944Y-78700500D01*
X106085056Y-78700500D01*
X106250225Y-78659790D01*
X106350089Y-78607377D01*
X106400849Y-78580736D01*
X106400850Y-78580734D01*
X106400852Y-78580734D01*
X106528183Y-78467929D01*
X106624818Y-78327930D01*
X106685140Y-78168872D01*
X106705645Y-78000000D01*
X106685140Y-77831128D01*
X106624818Y-77672070D01*
X106528183Y-77532071D01*
X106400852Y-77419266D01*
X106400849Y-77419263D01*
X106250226Y-77340210D01*
X106085056Y-77299500D01*
X105914944Y-77299500D01*
X105749773Y-77340210D01*
X105599150Y-77419263D01*
X105471816Y-77532072D01*
X105375182Y-77672068D01*
X105314860Y-77831125D01*
X105314859Y-77831130D01*
X105294355Y-78000000D01*
X100500000Y-78000000D01*
X100500000Y-76999999D01*
X118444750Y-76999999D01*
X118444750Y-77000000D01*
X118463670Y-77143708D01*
X118463671Y-77143712D01*
X118519137Y-77277622D01*
X118519138Y-77277624D01*
X118519139Y-77277625D01*
X118607379Y-77392621D01*
X118616711Y-77399782D01*
X118619113Y-77401625D01*
X118660316Y-77458053D01*
X118664470Y-77527799D01*
X118630257Y-77588719D01*
X118619113Y-77598375D01*
X118607381Y-77607377D01*
X118607380Y-77607378D01*
X118607379Y-77607379D01*
X118589824Y-77630257D01*
X118519137Y-77722377D01*
X118463671Y-77856287D01*
X118463670Y-77856291D01*
X118444750Y-77999999D01*
X118444750Y-78000000D01*
X118463670Y-78143708D01*
X118463671Y-78143712D01*
X118519137Y-78277622D01*
X118519138Y-78277624D01*
X118519139Y-78277625D01*
X118607379Y-78392621D01*
X118616711Y-78399782D01*
X118619113Y-78401625D01*
X118660316Y-78458053D01*
X118664470Y-78527799D01*
X118630257Y-78588719D01*
X118619113Y-78598375D01*
X118607381Y-78607377D01*
X118519137Y-78722377D01*
X118463671Y-78856287D01*
X118463670Y-78856291D01*
X118444750Y-78999999D01*
X118444750Y-79000000D01*
X118463670Y-79143708D01*
X118463671Y-79143712D01*
X118519137Y-79277622D01*
X118519138Y-79277624D01*
X118519139Y-79277625D01*
X118607379Y-79392621D01*
X118616711Y-79399782D01*
X118619113Y-79401625D01*
X118660316Y-79458053D01*
X118664470Y-79527799D01*
X118630257Y-79588719D01*
X118619113Y-79598375D01*
X118607381Y-79607377D01*
X118519137Y-79722377D01*
X118463671Y-79856287D01*
X118463670Y-79856291D01*
X118444750Y-79999999D01*
X118444750Y-80000000D01*
X118463670Y-80143708D01*
X118463671Y-80143712D01*
X118519137Y-80277622D01*
X118519138Y-80277624D01*
X118519139Y-80277625D01*
X118607379Y-80392621D01*
X118616711Y-80399782D01*
X118619113Y-80401625D01*
X118660316Y-80458053D01*
X118664470Y-80527799D01*
X118630257Y-80588719D01*
X118619113Y-80598375D01*
X118607381Y-80607377D01*
X118519137Y-80722377D01*
X118463671Y-80856287D01*
X118463670Y-80856291D01*
X118444750Y-80999999D01*
X118444750Y-81000000D01*
X118463670Y-81143708D01*
X118463671Y-81143712D01*
X118519137Y-81277622D01*
X118519138Y-81277624D01*
X118519139Y-81277625D01*
X118607379Y-81392621D01*
X118616711Y-81399782D01*
X118619113Y-81401625D01*
X118660316Y-81458053D01*
X118664470Y-81527799D01*
X118630257Y-81588719D01*
X118619113Y-81598375D01*
X118607381Y-81607377D01*
X118519137Y-81722377D01*
X118463671Y-81856287D01*
X118463670Y-81856291D01*
X118444750Y-81999999D01*
X118444750Y-82000000D01*
X118463670Y-82143708D01*
X118463671Y-82143712D01*
X118519137Y-82277622D01*
X118519138Y-82277624D01*
X118519139Y-82277625D01*
X118607379Y-82392621D01*
X118722375Y-82480861D01*
X118856291Y-82536330D01*
X118983280Y-82553048D01*
X118999999Y-82555250D01*
X119000000Y-82555250D01*
X119000001Y-82555250D01*
X119014977Y-82553278D01*
X119143709Y-82536330D01*
X119277625Y-82480861D01*
X119392621Y-82392621D01*
X119401625Y-82380886D01*
X119458050Y-82339685D01*
X119527796Y-82335529D01*
X119588717Y-82369740D01*
X119598367Y-82380876D01*
X119607379Y-82392621D01*
X119722375Y-82480861D01*
X119856291Y-82536330D01*
X119983280Y-82553048D01*
X119999999Y-82555250D01*
X120000000Y-82555250D01*
X120000001Y-82555250D01*
X120014977Y-82553278D01*
X120143709Y-82536330D01*
X120277625Y-82480861D01*
X120392621Y-82392621D01*
X120401625Y-82380886D01*
X120458050Y-82339685D01*
X120527796Y-82335529D01*
X120588717Y-82369740D01*
X120598367Y-82380876D01*
X120607379Y-82392621D01*
X120722375Y-82480861D01*
X120856291Y-82536330D01*
X120983280Y-82553048D01*
X120999999Y-82555250D01*
X121000000Y-82555250D01*
X121000001Y-82555250D01*
X121014977Y-82553278D01*
X121143709Y-82536330D01*
X121277625Y-82480861D01*
X121392621Y-82392621D01*
X121401625Y-82380886D01*
X121458050Y-82339685D01*
X121527796Y-82335529D01*
X121588717Y-82369740D01*
X121598367Y-82380876D01*
X121607379Y-82392621D01*
X121722375Y-82480861D01*
X121856291Y-82536330D01*
X121983280Y-82553048D01*
X121999999Y-82555250D01*
X122000000Y-82555250D01*
X122000001Y-82555250D01*
X122014977Y-82553278D01*
X122143709Y-82536330D01*
X122277625Y-82480861D01*
X122392621Y-82392621D01*
X122401625Y-82380886D01*
X122458050Y-82339685D01*
X122527796Y-82335529D01*
X122588717Y-82369740D01*
X122598367Y-82380876D01*
X122607379Y-82392621D01*
X122722375Y-82480861D01*
X122856291Y-82536330D01*
X122983280Y-82553048D01*
X122999999Y-82555250D01*
X123000000Y-82555250D01*
X123000001Y-82555250D01*
X123014977Y-82553278D01*
X123143709Y-82536330D01*
X123277625Y-82480861D01*
X123392621Y-82392621D01*
X123480861Y-82277625D01*
X123536330Y-82143709D01*
X123555250Y-82000000D01*
X123536330Y-81856291D01*
X123480861Y-81722375D01*
X123392621Y-81607379D01*
X123380886Y-81598374D01*
X123339685Y-81541950D01*
X123335529Y-81472204D01*
X123369740Y-81411283D01*
X123380876Y-81401632D01*
X123392621Y-81392621D01*
X123401625Y-81380886D01*
X123458050Y-81339685D01*
X123527796Y-81335529D01*
X123588717Y-81369740D01*
X123598367Y-81380876D01*
X123607379Y-81392621D01*
X123722375Y-81480861D01*
X123856291Y-81536330D01*
X123983280Y-81553048D01*
X123999999Y-81555250D01*
X124000000Y-81555250D01*
X124000001Y-81555250D01*
X124014977Y-81553278D01*
X124143709Y-81536330D01*
X124277625Y-81480861D01*
X124392621Y-81392621D01*
X124480861Y-81277625D01*
X124536330Y-81143709D01*
X124555250Y-81000000D01*
X124536330Y-80856291D01*
X124480861Y-80722375D01*
X124392621Y-80607379D01*
X124380886Y-80598374D01*
X124339685Y-80541950D01*
X124335529Y-80472204D01*
X124369740Y-80411283D01*
X124380876Y-80401632D01*
X124392621Y-80392621D01*
X124480861Y-80277625D01*
X124536330Y-80143709D01*
X124555250Y-80000000D01*
X124536330Y-79856291D01*
X124480861Y-79722375D01*
X124392621Y-79607379D01*
X124380886Y-79598374D01*
X124339685Y-79541950D01*
X124335529Y-79472204D01*
X124369740Y-79411283D01*
X124380876Y-79401632D01*
X124392621Y-79392621D01*
X124480861Y-79277625D01*
X124536330Y-79143709D01*
X124555250Y-79000000D01*
X124536330Y-78856291D01*
X124480861Y-78722375D01*
X124392621Y-78607379D01*
X124380886Y-78598374D01*
X124339685Y-78541950D01*
X124335529Y-78472204D01*
X124369740Y-78411283D01*
X124380876Y-78401632D01*
X124392621Y-78392621D01*
X124401625Y-78380886D01*
X124458050Y-78339685D01*
X124527796Y-78335529D01*
X124588717Y-78369740D01*
X124598367Y-78380876D01*
X124607379Y-78392621D01*
X124722375Y-78480861D01*
X124856291Y-78536330D01*
X124983280Y-78553048D01*
X124999999Y-78555250D01*
X125000000Y-78555250D01*
X125000001Y-78555250D01*
X125014977Y-78553278D01*
X125143709Y-78536330D01*
X125277625Y-78480861D01*
X125392621Y-78392621D01*
X125401625Y-78380886D01*
X125458050Y-78339685D01*
X125527796Y-78335529D01*
X125588717Y-78369740D01*
X125598367Y-78380876D01*
X125607378Y-78392620D01*
X125607380Y-78392622D01*
X125619113Y-78401625D01*
X125660316Y-78458053D01*
X125664470Y-78527799D01*
X125630257Y-78588719D01*
X125619113Y-78598375D01*
X125607381Y-78607377D01*
X125519137Y-78722377D01*
X125463671Y-78856287D01*
X125463670Y-78856291D01*
X125444750Y-78999999D01*
X125444750Y-79000000D01*
X125463670Y-79143708D01*
X125463671Y-79143712D01*
X125519137Y-79277622D01*
X125519138Y-79277624D01*
X125519139Y-79277625D01*
X125607379Y-79392621D01*
X125616711Y-79399782D01*
X125619113Y-79401625D01*
X125660316Y-79458053D01*
X125664470Y-79527799D01*
X125630257Y-79588719D01*
X125619113Y-79598375D01*
X125607381Y-79607377D01*
X125519137Y-79722377D01*
X125463671Y-79856287D01*
X125463670Y-79856291D01*
X125444750Y-79999999D01*
X125444750Y-80000000D01*
X125463670Y-80143708D01*
X125463671Y-80143712D01*
X125519137Y-80277622D01*
X125519138Y-80277624D01*
X125519139Y-80277625D01*
X125607379Y-80392621D01*
X125616711Y-80399782D01*
X125619113Y-80401625D01*
X125660316Y-80458053D01*
X125664470Y-80527799D01*
X125630257Y-80588719D01*
X125619113Y-80598375D01*
X125607381Y-80607377D01*
X125519137Y-80722377D01*
X125463671Y-80856287D01*
X125463670Y-80856291D01*
X125444750Y-80999999D01*
X125444750Y-81000000D01*
X125463670Y-81143708D01*
X125463671Y-81143712D01*
X125519137Y-81277622D01*
X125519138Y-81277624D01*
X125519139Y-81277625D01*
X125607379Y-81392621D01*
X125722375Y-81480861D01*
X125856291Y-81536330D01*
X125983280Y-81553048D01*
X125999999Y-81555250D01*
X126000000Y-81555250D01*
X126000001Y-81555250D01*
X126014977Y-81553278D01*
X126143709Y-81536330D01*
X126277625Y-81480861D01*
X126392621Y-81392621D01*
X126401625Y-81380886D01*
X126458050Y-81339685D01*
X126527796Y-81335529D01*
X126588717Y-81369740D01*
X126598367Y-81380876D01*
X126607378Y-81392620D01*
X126607380Y-81392622D01*
X126619113Y-81401625D01*
X126660316Y-81458053D01*
X126664470Y-81527799D01*
X126630257Y-81588719D01*
X126619113Y-81598375D01*
X126607381Y-81607377D01*
X126519137Y-81722377D01*
X126463671Y-81856287D01*
X126463670Y-81856291D01*
X126444750Y-81999999D01*
X126444750Y-82000000D01*
X126463670Y-82143708D01*
X126463671Y-82143712D01*
X126519137Y-82277622D01*
X126519138Y-82277624D01*
X126519139Y-82277625D01*
X126607379Y-82392621D01*
X126722375Y-82480861D01*
X126856291Y-82536330D01*
X126983280Y-82553048D01*
X126999999Y-82555250D01*
X127000000Y-82555250D01*
X127000001Y-82555250D01*
X127014977Y-82553278D01*
X127143709Y-82536330D01*
X127277625Y-82480861D01*
X127392621Y-82392621D01*
X127401625Y-82380886D01*
X127458050Y-82339685D01*
X127527796Y-82335529D01*
X127588717Y-82369740D01*
X127598367Y-82380876D01*
X127607379Y-82392621D01*
X127722375Y-82480861D01*
X127856291Y-82536330D01*
X127983280Y-82553048D01*
X127999999Y-82555250D01*
X128000000Y-82555250D01*
X128000001Y-82555250D01*
X128014977Y-82553278D01*
X128143709Y-82536330D01*
X128277625Y-82480861D01*
X128392621Y-82392621D01*
X128401625Y-82380886D01*
X128458050Y-82339685D01*
X128527796Y-82335529D01*
X128588717Y-82369740D01*
X128598367Y-82380876D01*
X128607379Y-82392621D01*
X128722375Y-82480861D01*
X128856291Y-82536330D01*
X128983280Y-82553048D01*
X128999999Y-82555250D01*
X129000000Y-82555250D01*
X129000001Y-82555250D01*
X129014977Y-82553278D01*
X129143709Y-82536330D01*
X129277625Y-82480861D01*
X129392621Y-82392621D01*
X129401625Y-82380886D01*
X129458050Y-82339685D01*
X129527796Y-82335529D01*
X129588717Y-82369740D01*
X129598367Y-82380876D01*
X129607379Y-82392621D01*
X129722375Y-82480861D01*
X129856291Y-82536330D01*
X129983280Y-82553048D01*
X129999999Y-82555250D01*
X130000000Y-82555250D01*
X130000001Y-82555250D01*
X130014977Y-82553278D01*
X130143709Y-82536330D01*
X130277625Y-82480861D01*
X130392621Y-82392621D01*
X130401625Y-82380886D01*
X130458050Y-82339685D01*
X130527796Y-82335529D01*
X130588717Y-82369740D01*
X130598367Y-82380876D01*
X130607379Y-82392621D01*
X130722375Y-82480861D01*
X130856291Y-82536330D01*
X130983280Y-82553048D01*
X130999999Y-82555250D01*
X131000000Y-82555250D01*
X131000001Y-82555250D01*
X131014977Y-82553278D01*
X131143709Y-82536330D01*
X131277625Y-82480861D01*
X131392621Y-82392621D01*
X131480861Y-82277625D01*
X131536330Y-82143709D01*
X131555250Y-82000000D01*
X131536330Y-81856291D01*
X131480861Y-81722375D01*
X131392621Y-81607379D01*
X131380886Y-81598374D01*
X131339685Y-81541950D01*
X131335529Y-81472204D01*
X131369740Y-81411283D01*
X131380876Y-81401632D01*
X131392621Y-81392621D01*
X131480861Y-81277625D01*
X131536330Y-81143709D01*
X131555250Y-81000000D01*
X131536330Y-80856291D01*
X131480861Y-80722375D01*
X131392621Y-80607379D01*
X131380886Y-80598374D01*
X131339685Y-80541950D01*
X131335529Y-80472204D01*
X131369740Y-80411283D01*
X131380876Y-80401632D01*
X131392621Y-80392621D01*
X131480861Y-80277625D01*
X131536330Y-80143709D01*
X131555250Y-80000000D01*
X131555250Y-79999999D01*
X138444750Y-79999999D01*
X138444750Y-80000000D01*
X138463670Y-80143708D01*
X138463671Y-80143712D01*
X138519137Y-80277622D01*
X138519138Y-80277624D01*
X138519139Y-80277625D01*
X138607379Y-80392621D01*
X138722375Y-80480861D01*
X138856291Y-80536330D01*
X138983280Y-80553048D01*
X138999999Y-80555250D01*
X139000000Y-80555250D01*
X139000001Y-80555250D01*
X139014977Y-80553278D01*
X139143709Y-80536330D01*
X139277625Y-80480861D01*
X139392621Y-80392621D01*
X139480861Y-80277625D01*
X139536330Y-80143709D01*
X139555250Y-80000000D01*
X139536330Y-79856291D01*
X139480861Y-79722375D01*
X139392621Y-79607379D01*
X139277625Y-79519139D01*
X139277624Y-79519138D01*
X139277622Y-79519137D01*
X139143712Y-79463671D01*
X139143710Y-79463670D01*
X139143709Y-79463670D01*
X139071854Y-79454210D01*
X139000001Y-79444750D01*
X138999999Y-79444750D01*
X138856291Y-79463670D01*
X138856287Y-79463671D01*
X138722377Y-79519137D01*
X138607379Y-79607379D01*
X138519137Y-79722377D01*
X138463671Y-79856287D01*
X138463670Y-79856291D01*
X138444750Y-79999999D01*
X131555250Y-79999999D01*
X131536330Y-79856291D01*
X131480861Y-79722375D01*
X131392621Y-79607379D01*
X131380886Y-79598374D01*
X131339685Y-79541950D01*
X131335529Y-79472204D01*
X131369740Y-79411283D01*
X131380876Y-79401632D01*
X131392621Y-79392621D01*
X131480861Y-79277625D01*
X131536330Y-79143709D01*
X131555250Y-79000000D01*
X131536330Y-78856291D01*
X131480861Y-78722375D01*
X131392621Y-78607379D01*
X131380886Y-78598374D01*
X131339685Y-78541950D01*
X131335529Y-78472204D01*
X131369740Y-78411283D01*
X131380876Y-78401632D01*
X131392621Y-78392621D01*
X131480861Y-78277625D01*
X131536330Y-78143709D01*
X131555250Y-78000000D01*
X143294355Y-78000000D01*
X143314859Y-78168869D01*
X143314860Y-78168874D01*
X143375182Y-78327931D01*
X143419835Y-78392621D01*
X143471817Y-78467929D01*
X143539397Y-78527799D01*
X143599150Y-78580736D01*
X143749773Y-78659789D01*
X143749775Y-78659790D01*
X143914944Y-78700500D01*
X144085056Y-78700500D01*
X144250225Y-78659790D01*
X144350089Y-78607377D01*
X144400849Y-78580736D01*
X144400850Y-78580734D01*
X144400852Y-78580734D01*
X144528183Y-78467929D01*
X144624818Y-78327930D01*
X144685140Y-78168872D01*
X144705645Y-78000000D01*
X144685140Y-77831128D01*
X144624818Y-77672070D01*
X144528183Y-77532071D01*
X144400852Y-77419266D01*
X144400849Y-77419263D01*
X144250226Y-77340210D01*
X144085056Y-77299500D01*
X143914944Y-77299500D01*
X143749773Y-77340210D01*
X143599150Y-77419263D01*
X143471816Y-77532072D01*
X143375182Y-77672068D01*
X143314860Y-77831125D01*
X143314859Y-77831130D01*
X143294355Y-78000000D01*
X131555250Y-78000000D01*
X131536330Y-77856291D01*
X131480861Y-77722375D01*
X131392621Y-77607379D01*
X131380886Y-77598374D01*
X131339685Y-77541950D01*
X131335529Y-77472204D01*
X131369740Y-77411283D01*
X131380876Y-77401632D01*
X131392621Y-77392621D01*
X131480861Y-77277625D01*
X131536330Y-77143709D01*
X131555250Y-77000000D01*
X131536330Y-76856291D01*
X131480861Y-76722375D01*
X131392621Y-76607379D01*
X131277625Y-76519139D01*
X131277624Y-76519138D01*
X131277622Y-76519137D01*
X131143712Y-76463671D01*
X131143710Y-76463670D01*
X131143709Y-76463670D01*
X131071854Y-76454210D01*
X131000001Y-76444750D01*
X130999999Y-76444750D01*
X130856291Y-76463670D01*
X130856287Y-76463671D01*
X130722377Y-76519137D01*
X130711089Y-76527799D01*
X130607379Y-76607379D01*
X130607378Y-76607380D01*
X130607377Y-76607381D01*
X130598375Y-76619113D01*
X130541947Y-76660316D01*
X130472201Y-76664470D01*
X130411281Y-76630257D01*
X130401625Y-76619113D01*
X130399782Y-76616711D01*
X130392621Y-76607379D01*
X130277625Y-76519139D01*
X130277624Y-76519138D01*
X130277622Y-76519137D01*
X130143712Y-76463671D01*
X130143710Y-76463670D01*
X130143709Y-76463670D01*
X130071854Y-76454210D01*
X130000001Y-76444750D01*
X129999999Y-76444750D01*
X129856291Y-76463670D01*
X129856287Y-76463671D01*
X129722377Y-76519137D01*
X129711089Y-76527799D01*
X129607379Y-76607379D01*
X129607378Y-76607380D01*
X129607377Y-76607381D01*
X129598375Y-76619113D01*
X129541947Y-76660316D01*
X129472201Y-76664470D01*
X129411281Y-76630257D01*
X129401625Y-76619113D01*
X129399782Y-76616711D01*
X129392621Y-76607379D01*
X129277625Y-76519139D01*
X129277624Y-76519138D01*
X129277622Y-76519137D01*
X129143712Y-76463671D01*
X129143710Y-76463670D01*
X129143709Y-76463670D01*
X129071854Y-76454210D01*
X129000001Y-76444750D01*
X128999999Y-76444750D01*
X128856291Y-76463670D01*
X128856287Y-76463671D01*
X128722377Y-76519137D01*
X128711089Y-76527799D01*
X128607379Y-76607379D01*
X128607378Y-76607380D01*
X128607377Y-76607381D01*
X128598375Y-76619113D01*
X128541947Y-76660316D01*
X128472201Y-76664470D01*
X128411281Y-76630257D01*
X128401625Y-76619113D01*
X128392622Y-76607380D01*
X128392618Y-76607377D01*
X128380886Y-76598374D01*
X128339685Y-76541950D01*
X128335529Y-76472204D01*
X128369740Y-76411283D01*
X128380876Y-76401632D01*
X128392621Y-76392621D01*
X128480861Y-76277625D01*
X128536330Y-76143709D01*
X128555250Y-76000000D01*
X128536330Y-75856291D01*
X128480861Y-75722375D01*
X128392621Y-75607379D01*
X128277625Y-75519139D01*
X128277624Y-75519138D01*
X128277622Y-75519137D01*
X128143712Y-75463671D01*
X128143710Y-75463670D01*
X128143709Y-75463670D01*
X128071854Y-75454210D01*
X128000001Y-75444750D01*
X127999999Y-75444750D01*
X127856291Y-75463670D01*
X127856287Y-75463671D01*
X127722377Y-75519137D01*
X127607379Y-75607379D01*
X127519137Y-75722377D01*
X127463671Y-75856287D01*
X127463670Y-75856291D01*
X127444750Y-75999999D01*
X127444750Y-76000000D01*
X127463670Y-76143708D01*
X127463671Y-76143712D01*
X127519137Y-76277622D01*
X127519138Y-76277624D01*
X127519139Y-76277625D01*
X127607379Y-76392621D01*
X127616711Y-76399782D01*
X127619113Y-76401625D01*
X127660316Y-76458053D01*
X127664470Y-76527799D01*
X127630257Y-76588719D01*
X127619113Y-76598375D01*
X127607381Y-76607377D01*
X127607380Y-76607378D01*
X127607379Y-76607379D01*
X127589824Y-76630257D01*
X127519137Y-76722377D01*
X127463671Y-76856287D01*
X127463670Y-76856291D01*
X127444750Y-76999999D01*
X127444750Y-77000000D01*
X127463670Y-77143708D01*
X127463671Y-77143712D01*
X127519137Y-77277622D01*
X127519138Y-77277624D01*
X127519139Y-77277625D01*
X127607379Y-77392621D01*
X127616711Y-77399782D01*
X127619113Y-77401625D01*
X127660316Y-77458053D01*
X127664470Y-77527799D01*
X127630257Y-77588719D01*
X127619113Y-77598375D01*
X127607379Y-77607378D01*
X127607378Y-77607379D01*
X127598375Y-77619113D01*
X127541947Y-77660316D01*
X127472201Y-77664470D01*
X127411281Y-77630257D01*
X127401625Y-77619113D01*
X127399782Y-77616711D01*
X127392621Y-77607379D01*
X127277625Y-77519139D01*
X127277624Y-77519138D01*
X127277622Y-77519137D01*
X127143712Y-77463671D01*
X127143710Y-77463670D01*
X127143709Y-77463670D01*
X127071854Y-77454210D01*
X127000001Y-77444750D01*
X126999999Y-77444750D01*
X126856291Y-77463670D01*
X126856287Y-77463671D01*
X126722377Y-77519137D01*
X126705520Y-77532072D01*
X126607379Y-77607379D01*
X126607378Y-77607380D01*
X126607377Y-77607381D01*
X126598375Y-77619113D01*
X126541947Y-77660316D01*
X126472201Y-77664470D01*
X126411281Y-77630257D01*
X126401625Y-77619113D01*
X126399782Y-77616711D01*
X126392621Y-77607379D01*
X126277625Y-77519139D01*
X126277624Y-77519138D01*
X126277622Y-77519137D01*
X126143712Y-77463671D01*
X126143710Y-77463670D01*
X126143709Y-77463670D01*
X126071854Y-77454210D01*
X126000001Y-77444750D01*
X125999999Y-77444750D01*
X125856291Y-77463670D01*
X125856287Y-77463671D01*
X125722377Y-77519137D01*
X125705520Y-77532072D01*
X125607379Y-77607379D01*
X125607378Y-77607380D01*
X125607377Y-77607381D01*
X125598375Y-77619113D01*
X125541947Y-77660316D01*
X125472201Y-77664470D01*
X125411281Y-77630257D01*
X125401625Y-77619113D01*
X125399782Y-77616711D01*
X125392621Y-77607379D01*
X125277625Y-77519139D01*
X125277624Y-77519138D01*
X125277622Y-77519137D01*
X125143712Y-77463671D01*
X125143710Y-77463670D01*
X125143709Y-77463670D01*
X125071854Y-77454210D01*
X125000001Y-77444750D01*
X124999999Y-77444750D01*
X124856291Y-77463670D01*
X124856287Y-77463671D01*
X124722377Y-77519137D01*
X124705520Y-77532072D01*
X124607379Y-77607379D01*
X124607378Y-77607380D01*
X124607377Y-77607381D01*
X124598375Y-77619113D01*
X124541947Y-77660316D01*
X124472201Y-77664470D01*
X124411281Y-77630257D01*
X124401625Y-77619113D01*
X124399782Y-77616711D01*
X124392621Y-77607379D01*
X124277625Y-77519139D01*
X124277624Y-77519138D01*
X124277622Y-77519137D01*
X124143712Y-77463671D01*
X124143710Y-77463670D01*
X124143709Y-77463670D01*
X124071854Y-77454210D01*
X124000001Y-77444750D01*
X123999999Y-77444750D01*
X123856291Y-77463670D01*
X123856287Y-77463671D01*
X123722377Y-77519137D01*
X123705520Y-77532072D01*
X123607379Y-77607379D01*
X123607378Y-77607380D01*
X123607377Y-77607381D01*
X123598375Y-77619113D01*
X123541947Y-77660316D01*
X123472201Y-77664470D01*
X123411281Y-77630257D01*
X123401625Y-77619113D01*
X123392622Y-77607380D01*
X123392621Y-77607379D01*
X123380886Y-77598374D01*
X123339685Y-77541950D01*
X123335529Y-77472204D01*
X123369740Y-77411283D01*
X123380876Y-77401632D01*
X123392621Y-77392621D01*
X123480861Y-77277625D01*
X123536330Y-77143709D01*
X123555250Y-77000000D01*
X123536330Y-76856291D01*
X123480861Y-76722375D01*
X123392621Y-76607379D01*
X123277625Y-76519139D01*
X123277624Y-76519138D01*
X123277622Y-76519137D01*
X123143712Y-76463671D01*
X123143710Y-76463670D01*
X123143709Y-76463670D01*
X123071854Y-76454210D01*
X123000001Y-76444750D01*
X122999999Y-76444750D01*
X122856291Y-76463670D01*
X122856287Y-76463671D01*
X122722377Y-76519137D01*
X122711089Y-76527799D01*
X122607379Y-76607379D01*
X122607378Y-76607380D01*
X122607377Y-76607381D01*
X122598375Y-76619113D01*
X122541947Y-76660316D01*
X122472201Y-76664470D01*
X122411281Y-76630257D01*
X122401625Y-76619113D01*
X122399782Y-76616711D01*
X122392621Y-76607379D01*
X122277625Y-76519139D01*
X122277624Y-76519138D01*
X122277622Y-76519137D01*
X122143712Y-76463671D01*
X122143710Y-76463670D01*
X122143709Y-76463670D01*
X122071854Y-76454210D01*
X122000001Y-76444750D01*
X121999999Y-76444750D01*
X121856291Y-76463670D01*
X121856287Y-76463671D01*
X121722377Y-76519137D01*
X121711089Y-76527799D01*
X121607379Y-76607379D01*
X121607378Y-76607380D01*
X121607377Y-76607381D01*
X121598375Y-76619113D01*
X121541947Y-76660316D01*
X121472201Y-76664470D01*
X121411281Y-76630257D01*
X121401625Y-76619113D01*
X121399782Y-76616711D01*
X121392621Y-76607379D01*
X121277625Y-76519139D01*
X121277624Y-76519138D01*
X121277622Y-76519137D01*
X121143712Y-76463671D01*
X121143710Y-76463670D01*
X121143709Y-76463670D01*
X121071854Y-76454210D01*
X121000001Y-76444750D01*
X120999999Y-76444750D01*
X120856291Y-76463670D01*
X120856287Y-76463671D01*
X120722377Y-76519137D01*
X120711089Y-76527799D01*
X120607379Y-76607379D01*
X120607378Y-76607380D01*
X120607377Y-76607381D01*
X120598375Y-76619113D01*
X120541947Y-76660316D01*
X120472201Y-76664470D01*
X120411281Y-76630257D01*
X120401625Y-76619113D01*
X120399782Y-76616711D01*
X120392621Y-76607379D01*
X120277625Y-76519139D01*
X120277624Y-76519138D01*
X120277622Y-76519137D01*
X120143712Y-76463671D01*
X120143710Y-76463670D01*
X120143709Y-76463670D01*
X120071854Y-76454210D01*
X120000001Y-76444750D01*
X119999999Y-76444750D01*
X119856291Y-76463670D01*
X119856287Y-76463671D01*
X119722377Y-76519137D01*
X119711089Y-76527799D01*
X119607379Y-76607379D01*
X119607378Y-76607380D01*
X119607377Y-76607381D01*
X119598375Y-76619113D01*
X119541947Y-76660316D01*
X119472201Y-76664470D01*
X119411281Y-76630257D01*
X119401625Y-76619113D01*
X119399782Y-76616711D01*
X119392621Y-76607379D01*
X119277625Y-76519139D01*
X119277624Y-76519138D01*
X119277622Y-76519137D01*
X119143712Y-76463671D01*
X119143710Y-76463670D01*
X119143709Y-76463670D01*
X119071854Y-76454210D01*
X119000001Y-76444750D01*
X118999999Y-76444750D01*
X118856291Y-76463670D01*
X118856287Y-76463671D01*
X118722377Y-76519137D01*
X118607379Y-76607379D01*
X118519137Y-76722377D01*
X118463671Y-76856287D01*
X118463670Y-76856291D01*
X118444750Y-76999999D01*
X100500000Y-76999999D01*
X100500000Y-74199999D01*
X123644750Y-74199999D01*
X123644750Y-74200000D01*
X123663670Y-74343708D01*
X123663671Y-74343712D01*
X123719138Y-74477623D01*
X123719139Y-74477625D01*
X123755118Y-74524514D01*
X123780312Y-74589683D01*
X123766274Y-74658128D01*
X123755118Y-74675486D01*
X123719139Y-74722374D01*
X123719138Y-74722376D01*
X123663671Y-74856287D01*
X123663670Y-74856291D01*
X123644750Y-74999999D01*
X123644750Y-75000000D01*
X123663670Y-75143708D01*
X123663671Y-75143712D01*
X123719138Y-75277623D01*
X123719139Y-75277625D01*
X123755118Y-75324514D01*
X123780312Y-75389683D01*
X123766274Y-75458128D01*
X123755118Y-75475486D01*
X123719139Y-75522374D01*
X123719138Y-75522376D01*
X123663671Y-75656287D01*
X123663670Y-75656291D01*
X123644750Y-75800000D01*
X123652160Y-75856287D01*
X123663670Y-75943708D01*
X123663671Y-75943712D01*
X123719137Y-76077622D01*
X123719138Y-76077624D01*
X123719139Y-76077625D01*
X123807379Y-76192621D01*
X123922375Y-76280861D01*
X124056291Y-76336330D01*
X124183280Y-76353048D01*
X124199999Y-76355250D01*
X124200000Y-76355250D01*
X124200001Y-76355250D01*
X124214977Y-76353278D01*
X124343709Y-76336330D01*
X124477625Y-76280861D01*
X124524514Y-76244881D01*
X124589682Y-76219687D01*
X124658127Y-76233725D01*
X124675483Y-76244880D01*
X124722375Y-76280861D01*
X124856291Y-76336330D01*
X124983280Y-76353048D01*
X124999999Y-76355250D01*
X125000000Y-76355250D01*
X125000001Y-76355250D01*
X125014977Y-76353278D01*
X125143709Y-76336330D01*
X125277625Y-76280861D01*
X125324514Y-76244881D01*
X125389682Y-76219687D01*
X125458127Y-76233725D01*
X125475483Y-76244880D01*
X125522375Y-76280861D01*
X125656291Y-76336330D01*
X125783280Y-76353048D01*
X125799999Y-76355250D01*
X125800000Y-76355250D01*
X125800001Y-76355250D01*
X125814977Y-76353278D01*
X125943709Y-76336330D01*
X126077625Y-76280861D01*
X126192621Y-76192621D01*
X126280861Y-76077625D01*
X126336330Y-75943709D01*
X126355250Y-75800000D01*
X126336330Y-75656291D01*
X126280861Y-75522375D01*
X126244881Y-75475485D01*
X126219687Y-75410318D01*
X126233725Y-75341873D01*
X126244880Y-75324516D01*
X126280861Y-75277625D01*
X126336330Y-75143709D01*
X126355250Y-75000000D01*
X126336330Y-74856291D01*
X126280861Y-74722375D01*
X126244881Y-74675485D01*
X126219687Y-74610318D01*
X126233725Y-74541873D01*
X126244880Y-74524516D01*
X126280861Y-74477625D01*
X126336330Y-74343709D01*
X126355250Y-74200000D01*
X126336330Y-74056291D01*
X126280861Y-73922375D01*
X126192621Y-73807379D01*
X126077625Y-73719139D01*
X126077624Y-73719138D01*
X126077622Y-73719137D01*
X125943712Y-73663671D01*
X125943710Y-73663670D01*
X125943709Y-73663670D01*
X125871854Y-73654210D01*
X125800001Y-73644750D01*
X125799999Y-73644750D01*
X125656291Y-73663670D01*
X125656287Y-73663671D01*
X125522376Y-73719138D01*
X125522374Y-73719139D01*
X125475486Y-73755118D01*
X125410317Y-73780312D01*
X125341872Y-73766274D01*
X125324514Y-73755118D01*
X125277625Y-73719139D01*
X125277623Y-73719138D01*
X125143712Y-73663671D01*
X125143710Y-73663670D01*
X125143709Y-73663670D01*
X125071854Y-73654210D01*
X125000001Y-73644750D01*
X124999999Y-73644750D01*
X124856291Y-73663670D01*
X124856287Y-73663671D01*
X124722376Y-73719138D01*
X124722374Y-73719139D01*
X124675486Y-73755118D01*
X124610317Y-73780312D01*
X124541872Y-73766274D01*
X124524514Y-73755118D01*
X124477625Y-73719139D01*
X124477623Y-73719138D01*
X124343712Y-73663671D01*
X124343710Y-73663670D01*
X124343709Y-73663670D01*
X124271854Y-73654210D01*
X124200001Y-73644750D01*
X124199999Y-73644750D01*
X124056291Y-73663670D01*
X124056287Y-73663671D01*
X123922377Y-73719137D01*
X123807379Y-73807379D01*
X123719137Y-73922377D01*
X123663671Y-74056287D01*
X123663670Y-74056291D01*
X123644750Y-74199999D01*
X100500000Y-74199999D01*
X100500000Y-72000000D01*
X105294355Y-72000000D01*
X105314859Y-72168869D01*
X105314860Y-72168874D01*
X105375182Y-72327931D01*
X105437475Y-72418177D01*
X105471817Y-72467929D01*
X105577505Y-72561560D01*
X105599150Y-72580736D01*
X105749773Y-72659789D01*
X105749775Y-72659790D01*
X105914944Y-72700500D01*
X106085056Y-72700500D01*
X106250225Y-72659790D01*
X106329692Y-72618081D01*
X106400849Y-72580736D01*
X106400850Y-72580734D01*
X106400852Y-72580734D01*
X106528183Y-72467929D01*
X106624818Y-72327930D01*
X106685140Y-72168872D01*
X106705645Y-72000000D01*
X143294355Y-72000000D01*
X143314859Y-72168869D01*
X143314860Y-72168874D01*
X143375182Y-72327931D01*
X143437475Y-72418177D01*
X143471817Y-72467929D01*
X143577505Y-72561560D01*
X143599150Y-72580736D01*
X143749773Y-72659789D01*
X143749775Y-72659790D01*
X143914944Y-72700500D01*
X144085056Y-72700500D01*
X144250225Y-72659790D01*
X144329692Y-72618081D01*
X144400849Y-72580736D01*
X144400850Y-72580734D01*
X144400852Y-72580734D01*
X144528183Y-72467929D01*
X144624818Y-72327930D01*
X144685140Y-72168872D01*
X144705645Y-72000000D01*
X144685140Y-71831128D01*
X144624818Y-71672070D01*
X144528183Y-71532071D01*
X144400852Y-71419266D01*
X144400849Y-71419263D01*
X144250226Y-71340210D01*
X144085056Y-71299500D01*
X143914944Y-71299500D01*
X143749773Y-71340210D01*
X143599150Y-71419263D01*
X143471816Y-71532072D01*
X143375182Y-71672068D01*
X143314860Y-71831125D01*
X143314859Y-71831130D01*
X143294355Y-72000000D01*
X106705645Y-72000000D01*
X106685140Y-71831128D01*
X106624818Y-71672070D01*
X106528183Y-71532071D01*
X106400852Y-71419266D01*
X106400849Y-71419263D01*
X106250226Y-71340210D01*
X106085056Y-71299500D01*
X105914944Y-71299500D01*
X105749773Y-71340210D01*
X105599150Y-71419263D01*
X105471816Y-71532072D01*
X105375182Y-71672068D01*
X105314860Y-71831125D01*
X105314859Y-71831130D01*
X105294355Y-72000000D01*
X100500000Y-72000000D01*
X100500000Y-66999999D01*
X113444750Y-66999999D01*
X113444750Y-67000000D01*
X113463670Y-67143708D01*
X113463671Y-67143712D01*
X113519137Y-67277622D01*
X113519138Y-67277624D01*
X113519139Y-67277625D01*
X113607379Y-67392621D01*
X113722375Y-67480861D01*
X113856291Y-67536330D01*
X113983280Y-67553048D01*
X113999999Y-67555250D01*
X114000000Y-67555250D01*
X114000001Y-67555250D01*
X114014977Y-67553278D01*
X114143709Y-67536330D01*
X114277625Y-67480861D01*
X114392621Y-67392621D01*
X114480861Y-67277625D01*
X114536330Y-67143709D01*
X114555250Y-67000000D01*
X114555250Y-66999999D01*
X135444750Y-66999999D01*
X135444750Y-67000000D01*
X135463670Y-67143708D01*
X135463671Y-67143712D01*
X135519137Y-67277622D01*
X135519138Y-67277624D01*
X135519139Y-67277625D01*
X135607379Y-67392621D01*
X135722375Y-67480861D01*
X135856291Y-67536330D01*
X135983280Y-67553048D01*
X135999999Y-67555250D01*
X136000000Y-67555250D01*
X136000001Y-67555250D01*
X136014977Y-67553278D01*
X136143709Y-67536330D01*
X136277625Y-67480861D01*
X136392621Y-67392621D01*
X136480861Y-67277625D01*
X136536330Y-67143709D01*
X136555250Y-67000000D01*
X136536330Y-66856291D01*
X136480861Y-66722375D01*
X136392621Y-66607379D01*
X136277625Y-66519139D01*
X136277624Y-66519138D01*
X136277622Y-66519137D01*
X136143712Y-66463671D01*
X136143710Y-66463670D01*
X136143709Y-66463670D01*
X136071854Y-66454210D01*
X136000001Y-66444750D01*
X135999999Y-66444750D01*
X135856291Y-66463670D01*
X135856287Y-66463671D01*
X135722377Y-66519137D01*
X135607379Y-66607379D01*
X135519137Y-66722377D01*
X135463671Y-66856287D01*
X135463670Y-66856291D01*
X135444750Y-66999999D01*
X114555250Y-66999999D01*
X114536330Y-66856291D01*
X114480861Y-66722375D01*
X114392621Y-66607379D01*
X114277625Y-66519139D01*
X114277624Y-66519138D01*
X114277622Y-66519137D01*
X114143712Y-66463671D01*
X114143710Y-66463670D01*
X114143709Y-66463670D01*
X114071854Y-66454210D01*
X114000001Y-66444750D01*
X113999999Y-66444750D01*
X113856291Y-66463670D01*
X113856287Y-66463671D01*
X113722377Y-66519137D01*
X113607379Y-66607379D01*
X113519137Y-66722377D01*
X113463671Y-66856287D01*
X113463670Y-66856291D01*
X113444750Y-66999999D01*
X100500000Y-66999999D01*
X100500000Y-64999999D01*
X124444750Y-64999999D01*
X124444750Y-65000000D01*
X124463670Y-65143708D01*
X124463671Y-65143712D01*
X124519137Y-65277622D01*
X124519138Y-65277624D01*
X124519139Y-65277625D01*
X124607379Y-65392621D01*
X124722375Y-65480861D01*
X124856291Y-65536330D01*
X124983280Y-65553048D01*
X124999999Y-65555250D01*
X125000000Y-65555250D01*
X125000001Y-65555250D01*
X125014977Y-65553278D01*
X125143709Y-65536330D01*
X125277625Y-65480861D01*
X125392621Y-65392621D01*
X125480861Y-65277625D01*
X125536330Y-65143709D01*
X125555250Y-65000000D01*
X125536330Y-64856291D01*
X125480861Y-64722375D01*
X125392621Y-64607379D01*
X125277625Y-64519139D01*
X125277624Y-64519138D01*
X125277622Y-64519137D01*
X125143712Y-64463671D01*
X125143710Y-64463670D01*
X125143709Y-64463670D01*
X125071854Y-64454210D01*
X125000001Y-64444750D01*
X124999999Y-64444750D01*
X124856291Y-64463670D01*
X124856287Y-64463671D01*
X124722377Y-64519137D01*
X124607379Y-64607379D01*
X124519137Y-64722377D01*
X124463671Y-64856287D01*
X124463670Y-64856291D01*
X124444750Y-64999999D01*
X100500000Y-64999999D01*
X100500000Y-61999999D01*
X102444750Y-61999999D01*
X102444750Y-62000000D01*
X102463670Y-62143708D01*
X102463671Y-62143712D01*
X102519137Y-62277622D01*
X102519138Y-62277624D01*
X102519139Y-62277625D01*
X102607379Y-62392621D01*
X102722375Y-62480861D01*
X102856291Y-62536330D01*
X102983280Y-62553048D01*
X102999999Y-62555250D01*
X103000000Y-62555250D01*
X103000001Y-62555250D01*
X103014977Y-62553278D01*
X103143709Y-62536330D01*
X103277625Y-62480861D01*
X103392621Y-62392621D01*
X103480861Y-62277625D01*
X103536330Y-62143709D01*
X103555250Y-62000000D01*
X103536330Y-61856291D01*
X103480861Y-61722375D01*
X103392621Y-61607379D01*
X103277625Y-61519139D01*
X103277624Y-61519138D01*
X103277622Y-61519137D01*
X103143712Y-61463671D01*
X103143710Y-61463670D01*
X103143709Y-61463670D01*
X103071854Y-61454210D01*
X103000001Y-61444750D01*
X102999999Y-61444750D01*
X102856291Y-61463670D01*
X102856287Y-61463671D01*
X102722377Y-61519137D01*
X102607379Y-61607379D01*
X102519137Y-61722377D01*
X102463671Y-61856287D01*
X102463670Y-61856291D01*
X102444750Y-61999999D01*
X100500000Y-61999999D01*
X100500000Y-56000000D01*
X111294355Y-56000000D01*
X111314859Y-56168869D01*
X111314860Y-56168874D01*
X111375182Y-56327931D01*
X111437475Y-56418177D01*
X111471817Y-56467929D01*
X111577505Y-56561560D01*
X111599150Y-56580736D01*
X111749773Y-56659789D01*
X111749775Y-56659790D01*
X111914944Y-56700500D01*
X112085056Y-56700500D01*
X112250225Y-56659790D01*
X112329692Y-56618081D01*
X112400849Y-56580736D01*
X112400850Y-56580734D01*
X112400852Y-56580734D01*
X112528183Y-56467929D01*
X112624818Y-56327930D01*
X112685140Y-56168872D01*
X112705645Y-56000000D01*
X117294355Y-56000000D01*
X117314859Y-56168869D01*
X117314860Y-56168874D01*
X117375182Y-56327931D01*
X117437475Y-56418177D01*
X117471817Y-56467929D01*
X117577505Y-56561560D01*
X117599150Y-56580736D01*
X117749773Y-56659789D01*
X117749775Y-56659790D01*
X117914944Y-56700500D01*
X118085056Y-56700500D01*
X118250225Y-56659790D01*
X118329692Y-56618081D01*
X118400849Y-56580736D01*
X118400850Y-56580734D01*
X118400852Y-56580734D01*
X118528183Y-56467929D01*
X118624818Y-56327930D01*
X118685140Y-56168872D01*
X118705645Y-56000000D01*
X131294355Y-56000000D01*
X131314859Y-56168869D01*
X131314860Y-56168874D01*
X131375182Y-56327931D01*
X131437475Y-56418177D01*
X131471817Y-56467929D01*
X131577505Y-56561560D01*
X131599150Y-56580736D01*
X131749773Y-56659789D01*
X131749775Y-56659790D01*
X131914944Y-56700500D01*
X132085056Y-56700500D01*
X132250225Y-56659790D01*
X132329692Y-56618081D01*
X132400849Y-56580736D01*
X132400850Y-56580734D01*
X132400852Y-56580734D01*
X132528183Y-56467929D01*
X132624818Y-56327930D01*
X132685140Y-56168872D01*
X132705645Y-56000000D01*
X137294355Y-56000000D01*
X137314859Y-56168869D01*
X137314860Y-56168874D01*
X137375182Y-56327931D01*
X137437475Y-56418177D01*
X137471817Y-56467929D01*
X137577505Y-56561560D01*
X137599150Y-56580736D01*
X137749773Y-56659789D01*
X137749775Y-56659790D01*
X137914944Y-56700500D01*
X138085056Y-56700500D01*
X138250225Y-56659790D01*
X138329692Y-56618081D01*
X138400849Y-56580736D01*
X138400850Y-56580734D01*
X138400852Y-56580734D01*
X138528183Y-56467929D01*
X138624818Y-56327930D01*
X138685140Y-56168872D01*
X138705645Y-56000000D01*
X138685140Y-55831128D01*
X138624818Y-55672070D01*
X138617285Y-55661157D01*
X138556672Y-55573344D01*
X138528183Y-55532071D01*
X138400852Y-55419266D01*
X138400849Y-55419263D01*
X138250226Y-55340210D01*
X138085056Y-55299500D01*
X137914944Y-55299500D01*
X137749773Y-55340210D01*
X137599150Y-55419263D01*
X137471816Y-55532072D01*
X137375182Y-55672068D01*
X137314860Y-55831125D01*
X137314859Y-55831130D01*
X137294355Y-56000000D01*
X132705645Y-56000000D01*
X132685140Y-55831128D01*
X132624818Y-55672070D01*
X132617285Y-55661157D01*
X132556672Y-55573344D01*
X132528183Y-55532071D01*
X132400852Y-55419266D01*
X132400849Y-55419263D01*
X132250226Y-55340210D01*
X132085056Y-55299500D01*
X131914944Y-55299500D01*
X131749773Y-55340210D01*
X131599150Y-55419263D01*
X131471816Y-55532072D01*
X131375182Y-55672068D01*
X131314860Y-55831125D01*
X131314859Y-55831130D01*
X131294355Y-56000000D01*
X118705645Y-56000000D01*
X118685140Y-55831128D01*
X118624818Y-55672070D01*
X118617285Y-55661157D01*
X118556672Y-55573344D01*
X118528183Y-55532071D01*
X118400852Y-55419266D01*
X118400849Y-55419263D01*
X118250226Y-55340210D01*
X118085056Y-55299500D01*
X117914944Y-55299500D01*
X117749773Y-55340210D01*
X117599150Y-55419263D01*
X117471816Y-55532072D01*
X117375182Y-55672068D01*
X117314860Y-55831125D01*
X117314859Y-55831130D01*
X117294355Y-56000000D01*
X112705645Y-56000000D01*
X112685140Y-55831128D01*
X112624818Y-55672070D01*
X112617285Y-55661157D01*
X112556672Y-55573344D01*
X112528183Y-55532071D01*
X112400852Y-55419266D01*
X112400849Y-55419263D01*
X112250226Y-55340210D01*
X112085056Y-55299500D01*
X111914944Y-55299500D01*
X111749773Y-55340210D01*
X111599150Y-55419263D01*
X111471816Y-55532072D01*
X111375182Y-55672068D01*
X111314860Y-55831125D01*
X111314859Y-55831130D01*
X111294355Y-56000000D01*
X100500000Y-56000000D01*
X100500000Y-53885258D01*
X102249500Y-53885258D01*
X102249500Y-54114741D01*
X102274446Y-54304215D01*
X102279452Y-54342238D01*
X102279453Y-54342240D01*
X102338842Y-54563887D01*
X102426650Y-54775876D01*
X102426657Y-54775890D01*
X102541392Y-54974617D01*
X102681081Y-55156661D01*
X102681089Y-55156670D01*
X102843330Y-55318911D01*
X102843338Y-55318918D01*
X103025382Y-55458607D01*
X103025385Y-55458608D01*
X103025388Y-55458611D01*
X103224112Y-55573344D01*
X103224117Y-55573346D01*
X103224123Y-55573349D01*
X103315480Y-55611190D01*
X103436113Y-55661158D01*
X103657762Y-55720548D01*
X103885266Y-55750500D01*
X103885273Y-55750500D01*
X104114727Y-55750500D01*
X104114734Y-55750500D01*
X104342238Y-55720548D01*
X104563887Y-55661158D01*
X104775888Y-55573344D01*
X104974612Y-55458611D01*
X105156661Y-55318919D01*
X105156665Y-55318914D01*
X105156670Y-55318911D01*
X105318911Y-55156670D01*
X105318914Y-55156665D01*
X105318919Y-55156661D01*
X105458611Y-54974612D01*
X105573344Y-54775888D01*
X105661158Y-54563887D01*
X105720548Y-54342238D01*
X105750500Y-54114734D01*
X105750500Y-53885266D01*
X105750499Y-53885258D01*
X144249500Y-53885258D01*
X144249500Y-54114741D01*
X144274446Y-54304215D01*
X144279452Y-54342238D01*
X144279453Y-54342240D01*
X144338842Y-54563887D01*
X144426650Y-54775876D01*
X144426657Y-54775890D01*
X144541392Y-54974617D01*
X144681081Y-55156661D01*
X144681089Y-55156670D01*
X144843330Y-55318911D01*
X144843338Y-55318918D01*
X145025382Y-55458607D01*
X145025385Y-55458608D01*
X145025388Y-55458611D01*
X145224112Y-55573344D01*
X145224117Y-55573346D01*
X145224123Y-55573349D01*
X145315480Y-55611190D01*
X145436113Y-55661158D01*
X145657762Y-55720548D01*
X145885266Y-55750500D01*
X145885273Y-55750500D01*
X146114727Y-55750500D01*
X146114734Y-55750500D01*
X146342238Y-55720548D01*
X146563887Y-55661158D01*
X146775888Y-55573344D01*
X146974612Y-55458611D01*
X147156661Y-55318919D01*
X147156665Y-55318914D01*
X147156670Y-55318911D01*
X147318911Y-55156670D01*
X147318914Y-55156665D01*
X147318919Y-55156661D01*
X147458611Y-54974612D01*
X147573344Y-54775888D01*
X147661158Y-54563887D01*
X147720548Y-54342238D01*
X147750500Y-54114734D01*
X147750500Y-53885266D01*
X147720548Y-53657762D01*
X147661158Y-53436113D01*
X147573344Y-53224112D01*
X147458611Y-53025388D01*
X147458608Y-53025385D01*
X147458607Y-53025382D01*
X147318918Y-52843338D01*
X147318911Y-52843330D01*
X147156670Y-52681089D01*
X147156661Y-52681081D01*
X146974617Y-52541392D01*
X146775890Y-52426657D01*
X146775876Y-52426650D01*
X146563887Y-52338842D01*
X146342238Y-52279452D01*
X146304215Y-52274446D01*
X146114741Y-52249500D01*
X146114734Y-52249500D01*
X145885266Y-52249500D01*
X145885258Y-52249500D01*
X145668715Y-52278009D01*
X145657762Y-52279452D01*
X145564076Y-52304554D01*
X145436112Y-52338842D01*
X145224123Y-52426650D01*
X145224109Y-52426657D01*
X145025382Y-52541392D01*
X144843338Y-52681081D01*
X144681081Y-52843338D01*
X144541392Y-53025382D01*
X144426657Y-53224109D01*
X144426650Y-53224123D01*
X144338842Y-53436112D01*
X144279453Y-53657759D01*
X144279451Y-53657770D01*
X144249500Y-53885258D01*
X105750499Y-53885258D01*
X105720548Y-53657762D01*
X105661158Y-53436113D01*
X105573344Y-53224112D01*
X105458611Y-53025388D01*
X105458608Y-53025385D01*
X105458607Y-53025382D01*
X105318918Y-52843338D01*
X105318911Y-52843330D01*
X105156670Y-52681089D01*
X105156661Y-52681081D01*
X104974617Y-52541392D01*
X104775890Y-52426657D01*
X104775876Y-52426650D01*
X104563887Y-52338842D01*
X104342238Y-52279452D01*
X104304215Y-52274446D01*
X104114741Y-52249500D01*
X104114734Y-52249500D01*
X103885266Y-52249500D01*
X103885258Y-52249500D01*
X103668715Y-52278009D01*
X103657762Y-52279452D01*
X103564076Y-52304554D01*
X103436112Y-52338842D01*
X103224123Y-52426650D01*
X103224109Y-52426657D01*
X103025382Y-52541392D01*
X102843338Y-52681081D01*
X102681081Y-52843338D01*
X102541392Y-53025382D01*
X102426657Y-53224109D01*
X102426650Y-53224123D01*
X102338842Y-53436112D01*
X102279453Y-53657759D01*
X102279451Y-53657770D01*
X102249500Y-53885258D01*
X100500000Y-53885258D01*
X100500000Y-50624000D01*
X100519685Y-50556961D01*
X100572489Y-50511206D01*
X100624000Y-50500000D01*
X149376000Y-50500000D01*
X149443039Y-50519685D01*
G37*
%TD.AperFunction*%
%TD*%
M02*
