%TF.GenerationSoftware,KiCad,Pcbnew,8.0.2*%
%TF.CreationDate,2025-01-11T01:17:19-03:00*%
%TF.ProjectId,LumiCom_Transmitter,4c756d69-436f-46d5-9f54-72616e736d69,rev?*%
%TF.SameCoordinates,Original*%
%TF.FileFunction,Legend,Top*%
%TF.FilePolarity,Positive*%
%FSLAX46Y46*%
G04 Gerber Fmt 4.6, Leading zero omitted, Abs format (unit mm)*
G04 Created by KiCad (PCBNEW 8.0.2) date 2025-01-11 01:17:19*
%MOMM*%
%LPD*%
G01*
G04 APERTURE LIST*
%ADD10C,0.150000*%
%ADD11C,0.200000*%
%ADD12C,0.120000*%
G04 APERTURE END LIST*
D10*
G36*
X128658595Y-55699196D02*
G01*
X129095301Y-55790054D01*
X129164524Y-55811049D01*
X129230256Y-55847201D01*
X129285078Y-55897033D01*
X129319790Y-55945629D01*
X129348400Y-56017997D01*
X129356885Y-56091939D01*
X129355132Y-56125523D01*
X129334165Y-56199280D01*
X129285078Y-56256802D01*
X129246289Y-56278349D01*
X129170951Y-56292754D01*
X129095301Y-56285013D01*
X128658595Y-56194154D01*
X128589022Y-56173160D01*
X128523152Y-56137008D01*
X128468452Y-56087176D01*
X128433918Y-56038431D01*
X128405453Y-55966046D01*
X128397011Y-55892270D01*
X128398755Y-55858589D01*
X128419615Y-55784748D01*
X128468452Y-55727406D01*
X128507126Y-55705859D01*
X128582572Y-55691455D01*
X128658595Y-55699196D01*
G37*
G36*
X129171505Y-51507989D02*
G01*
X129174436Y-51508722D01*
X129179643Y-51509841D01*
X129249083Y-51537023D01*
X129305228Y-51587490D01*
X129313543Y-51599255D01*
X129342851Y-51666869D01*
X129351756Y-51743195D01*
X129351756Y-52054014D01*
X128993086Y-51979460D01*
X128993086Y-51668823D01*
X129001991Y-51596214D01*
X129039614Y-51532535D01*
X129095851Y-51505333D01*
X129171505Y-51507989D01*
G37*
G36*
X128621248Y-51422596D02*
G01*
X128678379Y-51470986D01*
X128712682Y-51538815D01*
X128722342Y-51612403D01*
X128722342Y-51668823D01*
X128722342Y-51923182D01*
X128402140Y-51856624D01*
X128402140Y-51545724D01*
X128407704Y-51488297D01*
X128441707Y-51421893D01*
X128479358Y-51399289D01*
X128554181Y-51398446D01*
X128621248Y-51422596D01*
G37*
G36*
X129804554Y-56750823D02*
G01*
X127949709Y-56750823D01*
X127949709Y-55833652D01*
X128116376Y-55833652D01*
X128119546Y-55892270D01*
X128120635Y-55912397D01*
X128133412Y-55987799D01*
X128154707Y-56059859D01*
X128184520Y-56128575D01*
X128222049Y-56192986D01*
X128266494Y-56252131D01*
X128317853Y-56306010D01*
X128376128Y-56354622D01*
X128440540Y-56396845D01*
X128510309Y-56431925D01*
X128585437Y-56459860D01*
X128665922Y-56480651D01*
X129088340Y-56568578D01*
X129148735Y-56578741D01*
X129224813Y-56584156D01*
X129304324Y-56579136D01*
X129377402Y-56562350D01*
X129392708Y-56557058D01*
X129462667Y-56522955D01*
X129521679Y-56476114D01*
X129569743Y-56416537D01*
X129592901Y-56375025D01*
X129618655Y-56305463D01*
X129633628Y-56227150D01*
X129637887Y-56150190D01*
X129633628Y-56071605D01*
X129620851Y-55996317D01*
X129599556Y-55924327D01*
X129569743Y-55855634D01*
X129532168Y-55791222D01*
X129487586Y-55732077D01*
X129435997Y-55678199D01*
X129377402Y-55629587D01*
X129312761Y-55587226D01*
X129243038Y-55552101D01*
X129168231Y-55524211D01*
X129088340Y-55503558D01*
X128665922Y-55415630D01*
X128605056Y-55405356D01*
X128528589Y-55399872D01*
X128448968Y-55404924D01*
X128376128Y-55421858D01*
X128360911Y-55427151D01*
X128291309Y-55461254D01*
X128232512Y-55508094D01*
X128184520Y-55567671D01*
X128161362Y-55609171D01*
X128135608Y-55678665D01*
X128120635Y-55756853D01*
X128116376Y-55833652D01*
X127949709Y-55833652D01*
X127949709Y-54254988D01*
X128131397Y-54254988D01*
X129090172Y-54454290D01*
X129164697Y-54476444D01*
X129233699Y-54513375D01*
X129289108Y-54563467D01*
X129329365Y-54624944D01*
X129352911Y-54696032D01*
X129359816Y-54768997D01*
X129357330Y-54812549D01*
X129337444Y-54884814D01*
X129289108Y-54944119D01*
X129239298Y-54968942D01*
X129164697Y-54978422D01*
X129090172Y-54969398D01*
X128131397Y-54770096D01*
X128131397Y-55045236D01*
X129083211Y-55243073D01*
X129099627Y-55246347D01*
X129178206Y-55257923D01*
X129264802Y-55261259D01*
X129343001Y-55253080D01*
X129423619Y-55228985D01*
X129492807Y-55189217D01*
X129501732Y-55182275D01*
X129556279Y-55125767D01*
X129596941Y-55055410D01*
X129620744Y-54984081D01*
X129634345Y-54902576D01*
X129637887Y-54826883D01*
X129636612Y-54779953D01*
X129628819Y-54705044D01*
X129610118Y-54620607D01*
X129581215Y-54542120D01*
X129542111Y-54469585D01*
X129492807Y-54402999D01*
X129444553Y-54352685D01*
X129378951Y-54299722D01*
X129304951Y-54254849D01*
X129236870Y-54223632D01*
X129162956Y-54198033D01*
X129083211Y-54178052D01*
X128131397Y-53980215D01*
X128131397Y-54254988D01*
X127949709Y-54254988D01*
X127949709Y-53849789D01*
X128131397Y-53849789D01*
X128402140Y-53905843D01*
X128402140Y-53508787D01*
X129622500Y-53762594D01*
X129622500Y-53487821D01*
X128402140Y-53234014D01*
X128402140Y-52836426D01*
X128131397Y-52780372D01*
X128131397Y-53849789D01*
X127949709Y-53849789D01*
X127949709Y-51480145D01*
X128131397Y-51480145D01*
X128131397Y-51545724D01*
X128131397Y-51800347D01*
X128131397Y-52075121D01*
X129622500Y-52385065D01*
X129622500Y-52264531D01*
X129622500Y-51773237D01*
X129619915Y-51708305D01*
X129609988Y-51635181D01*
X129588999Y-51556479D01*
X129557876Y-51484895D01*
X129516620Y-51420428D01*
X129488691Y-51387083D01*
X129433230Y-51336195D01*
X129369389Y-51294809D01*
X129297168Y-51262925D01*
X129216568Y-51240543D01*
X129213271Y-51239810D01*
X129194897Y-51236277D01*
X129117633Y-51229267D01*
X129042185Y-51238540D01*
X128971837Y-51269486D01*
X128960532Y-51277358D01*
X128908437Y-51331964D01*
X128875880Y-51398210D01*
X128858630Y-51471352D01*
X128853634Y-51445203D01*
X128832269Y-51371970D01*
X128797314Y-51299778D01*
X128750553Y-51237246D01*
X128739795Y-51225960D01*
X128680640Y-51177173D01*
X128612541Y-51141124D01*
X128535497Y-51117811D01*
X128466297Y-51107576D01*
X128383567Y-51108675D01*
X128303524Y-51130055D01*
X128237276Y-51172765D01*
X128224455Y-51185086D01*
X128176995Y-51251898D01*
X128148871Y-51326905D01*
X128135119Y-51404595D01*
X128131397Y-51480145D01*
X127949709Y-51480145D01*
X127949709Y-50940909D01*
X129804554Y-50940909D01*
X129804554Y-56750823D01*
G37*
G36*
X140747921Y-62600286D02*
G01*
X140796064Y-62614798D01*
X140838451Y-62645635D01*
X140860765Y-62674917D01*
X140879158Y-62721715D01*
X140884613Y-62772397D01*
X140884613Y-63063534D01*
X140881727Y-63100934D01*
X140866581Y-63149820D01*
X140838451Y-63190052D01*
X140810168Y-63213193D01*
X140764825Y-63232267D01*
X140715597Y-63237923D01*
X140683695Y-63235633D01*
X140635695Y-63221047D01*
X140593231Y-63190052D01*
X140570916Y-63160690D01*
X140552524Y-63113967D01*
X140547069Y-63063534D01*
X140547069Y-62772397D01*
X140549954Y-62734798D01*
X140565101Y-62685786D01*
X140593231Y-62645635D01*
X140621593Y-62622612D01*
X140666861Y-62603635D01*
X140715841Y-62598007D01*
X140747921Y-62600286D01*
G37*
G36*
X143947579Y-63010438D02*
G01*
X143987718Y-63038377D01*
X144008491Y-63081528D01*
X144014340Y-63132655D01*
X144014340Y-63133143D01*
X144010597Y-63169974D01*
X143987718Y-63215942D01*
X143959842Y-63235643D01*
X143910537Y-63244762D01*
X143876660Y-63240744D01*
X143834089Y-63216186D01*
X143814805Y-63183921D01*
X143807222Y-63134120D01*
X143807222Y-63133632D01*
X143812365Y-63085273D01*
X143834089Y-63038621D01*
X143862019Y-63015580D01*
X143910293Y-63004916D01*
X143947579Y-63010438D01*
G37*
G36*
X141707678Y-62607925D02*
G01*
X141748988Y-62635376D01*
X141772435Y-62674883D01*
X141780251Y-62725990D01*
X141774220Y-62770102D01*
X141748744Y-62815139D01*
X141715020Y-62839507D01*
X141666678Y-62849089D01*
X141450767Y-62849089D01*
X141450767Y-62601427D01*
X141666678Y-62601427D01*
X141707678Y-62607925D01*
G37*
G36*
X142536054Y-63075258D02*
G01*
X142298418Y-63075258D01*
X142417236Y-62736249D01*
X142536054Y-63075258D01*
G37*
G36*
X143922865Y-61395258D02*
G01*
X143685229Y-61395258D01*
X143804047Y-61056249D01*
X143922865Y-61395258D01*
G37*
G36*
X145758459Y-65206111D02*
G01*
X140241785Y-65206111D01*
X140241785Y-64100931D01*
X142363503Y-64100931D01*
X142694452Y-65095000D01*
X142840754Y-65095000D01*
X143149114Y-64168098D01*
X143226169Y-64168098D01*
X143226169Y-64366912D01*
X143347069Y-64321238D01*
X143347069Y-65095000D01*
X143534404Y-65095000D01*
X143534404Y-64100931D01*
X143374424Y-64100931D01*
X143226169Y-64168098D01*
X143149114Y-64168098D01*
X143171459Y-64100931D01*
X142978751Y-64100931D01*
X142767481Y-64764050D01*
X142556211Y-64100931D01*
X142363503Y-64100931D01*
X140241785Y-64100931D01*
X140241785Y-62777281D01*
X140352896Y-62777281D01*
X140352896Y-63058893D01*
X140354476Y-63099156D01*
X140361498Y-63149875D01*
X140376112Y-63202882D01*
X140397837Y-63251601D01*
X140412845Y-63276563D01*
X140444339Y-63316897D01*
X140481590Y-63351319D01*
X140524599Y-63379829D01*
X140561716Y-63397530D01*
X140613320Y-63413900D01*
X140662855Y-63422418D01*
X140715841Y-63425258D01*
X140755895Y-63423661D01*
X140806255Y-63416562D01*
X140858749Y-63401789D01*
X140906839Y-63379829D01*
X140931507Y-63364720D01*
X140971373Y-63332925D01*
X141005404Y-63295219D01*
X141033601Y-63251601D01*
X141051207Y-63214079D01*
X141067489Y-63162025D01*
X141075962Y-63112154D01*
X141078786Y-63058893D01*
X141078786Y-62849089D01*
X141263433Y-62849089D01*
X141263433Y-63415000D01*
X141450767Y-63415000D01*
X141977599Y-63415000D01*
X142179344Y-63415000D01*
X142235158Y-63255753D01*
X142599315Y-63255753D01*
X142655129Y-63415000D01*
X142856629Y-63415000D01*
X142586398Y-62708161D01*
X142931123Y-62708161D01*
X142931123Y-62708893D01*
X143123098Y-62708893D01*
X143123098Y-62708161D01*
X143132956Y-62663962D01*
X143158269Y-62621699D01*
X143184666Y-62601932D01*
X143233252Y-62591168D01*
X143261025Y-62593315D01*
X143307013Y-62613150D01*
X143319646Y-62626964D01*
X143333147Y-62675432D01*
X143333147Y-62676653D01*
X143332701Y-62687075D01*
X143320446Y-62736004D01*
X143311483Y-62755682D01*
X143284543Y-62797798D01*
X142943336Y-63246228D01*
X142943336Y-63415000D01*
X143531228Y-63415000D01*
X143531228Y-63234504D01*
X143191486Y-63234504D01*
X143278738Y-63124351D01*
X143619888Y-63124351D01*
X143619888Y-63125083D01*
X143620106Y-63133632D01*
X143620558Y-63151309D01*
X143627330Y-63208111D01*
X143641395Y-63258766D01*
X143662753Y-63303274D01*
X143696092Y-63346612D01*
X143716108Y-63365044D01*
X143761935Y-63394537D01*
X143808369Y-63412278D01*
X143860716Y-63422493D01*
X143910293Y-63425258D01*
X143927420Y-63424947D01*
X143983501Y-63418959D01*
X144033575Y-63405352D01*
X144083446Y-63380470D01*
X144125471Y-63345635D01*
X144147424Y-63319172D01*
X144171908Y-63276815D01*
X144189098Y-63228264D01*
X144198996Y-63173519D01*
X144201675Y-63121664D01*
X144201675Y-63120931D01*
X144201409Y-63103504D01*
X144196304Y-63046446D01*
X144184700Y-62995512D01*
X144163481Y-62944801D01*
X144133775Y-62902090D01*
X144129477Y-62897311D01*
X144091196Y-62864544D01*
X144045984Y-62841486D01*
X143993842Y-62828137D01*
X143942533Y-62824420D01*
X143905421Y-62829190D01*
X143943097Y-62751147D01*
X144331123Y-62751147D01*
X144518458Y-62751147D01*
X144518458Y-62601427D01*
X144689183Y-62601427D01*
X144473273Y-63415000D01*
X144676239Y-63415000D01*
X144750027Y-63127281D01*
X145062875Y-63127281D01*
X145062875Y-63128014D01*
X145066371Y-63162376D01*
X145077851Y-63217734D01*
X145096157Y-63267015D01*
X145121288Y-63310218D01*
X145153245Y-63347344D01*
X145158351Y-63352138D01*
X145201910Y-63385007D01*
X145250293Y-63408138D01*
X145303499Y-63421529D01*
X145354012Y-63425258D01*
X145379697Y-63424558D01*
X145435304Y-63417482D01*
X145484857Y-63402786D01*
X145528356Y-63380470D01*
X145570656Y-63345635D01*
X145592750Y-63319142D01*
X145617390Y-63276644D01*
X145634691Y-63227834D01*
X145644652Y-63172713D01*
X145647348Y-63120443D01*
X145647348Y-63036912D01*
X145646786Y-63010328D01*
X145642286Y-62960600D01*
X145631350Y-62908379D01*
X145611353Y-62856340D01*
X145583356Y-62812452D01*
X145552836Y-62781427D01*
X145506176Y-62752735D01*
X145457694Y-62737806D01*
X145402617Y-62732829D01*
X145380234Y-62733974D01*
X145330321Y-62744553D01*
X145315089Y-62750043D01*
X145271947Y-62777281D01*
X145271947Y-62601427D01*
X145618527Y-62601427D01*
X145618527Y-62420931D01*
X145084613Y-62420931D01*
X145084613Y-62992459D01*
X145259735Y-62992459D01*
X145267289Y-62973008D01*
X145299058Y-62935062D01*
X145317934Y-62924243D01*
X145367690Y-62914546D01*
X145395688Y-62918327D01*
X145435834Y-62946542D01*
X145454701Y-62987982D01*
X145460014Y-63036912D01*
X145460014Y-63120443D01*
X145454825Y-63166397D01*
X145432903Y-63211057D01*
X145405094Y-63233096D01*
X145356699Y-63243297D01*
X145325512Y-63239038D01*
X145283915Y-63213011D01*
X145261567Y-63176435D01*
X145250209Y-63127770D01*
X145250209Y-63127281D01*
X145062875Y-63127281D01*
X144750027Y-63127281D01*
X144899232Y-62545495D01*
X144899232Y-62420931D01*
X144331123Y-62420931D01*
X144331123Y-62751147D01*
X143943097Y-62751147D01*
X144102512Y-62420931D01*
X143890509Y-62420931D01*
X143689009Y-62849089D01*
X143670195Y-62892013D01*
X143652584Y-62940000D01*
X143638206Y-62988796D01*
X143630192Y-63024012D01*
X143622464Y-63075178D01*
X143619888Y-63124351D01*
X143278738Y-63124351D01*
X143436218Y-62925537D01*
X143456276Y-62897754D01*
X143481899Y-62853104D01*
X143502163Y-62804881D01*
X143512528Y-62771481D01*
X143522523Y-62721151D01*
X143525855Y-62670547D01*
X143525855Y-62669815D01*
X143525780Y-62662145D01*
X143521046Y-62611517D01*
X143506621Y-62560211D01*
X143482578Y-62515896D01*
X143448918Y-62478572D01*
X143428696Y-62462716D01*
X143382320Y-62437345D01*
X143335255Y-62422083D01*
X143282136Y-62413296D01*
X143231786Y-62410917D01*
X143215824Y-62411222D01*
X143162915Y-62417080D01*
X143114611Y-62430396D01*
X143065045Y-62454743D01*
X143021493Y-62488831D01*
X142997971Y-62514729D01*
X142970889Y-62556196D01*
X142950633Y-62603740D01*
X142937203Y-62657362D01*
X142931123Y-62708161D01*
X142586398Y-62708161D01*
X142476587Y-62420931D01*
X142357641Y-62420931D01*
X142107486Y-63075258D01*
X141977599Y-63415000D01*
X141450767Y-63415000D01*
X141450767Y-63029340D01*
X141662038Y-63029340D01*
X141679373Y-63029012D01*
X141728933Y-63024085D01*
X141779695Y-63011677D01*
X141825925Y-62991971D01*
X141866835Y-62965457D01*
X141904784Y-62929350D01*
X141935345Y-62885969D01*
X141942329Y-62872943D01*
X141960647Y-62826575D01*
X141971333Y-62775675D01*
X141974424Y-62725990D01*
X141974081Y-62708890D01*
X141968929Y-62660114D01*
X141955953Y-62610359D01*
X141935345Y-62565279D01*
X141907997Y-62525518D01*
X141870806Y-62488668D01*
X141826169Y-62459033D01*
X141812815Y-62452224D01*
X141765264Y-62434364D01*
X141713038Y-62423945D01*
X141662038Y-62420931D01*
X141450767Y-62420931D01*
X141263433Y-62420931D01*
X141263433Y-62849089D01*
X141078786Y-62849089D01*
X141078786Y-62777281D01*
X141077197Y-62736704D01*
X141070137Y-62685726D01*
X141055443Y-62632645D01*
X141033601Y-62584085D01*
X141018656Y-62559264D01*
X140987218Y-62519123D01*
X140949946Y-62484818D01*
X140906839Y-62456346D01*
X140869816Y-62438645D01*
X140818301Y-62422274D01*
X140768811Y-62413756D01*
X140715841Y-62410917D01*
X140675778Y-62412514D01*
X140625380Y-62419613D01*
X140572806Y-62434386D01*
X140524599Y-62456346D01*
X140499994Y-62471443D01*
X140460184Y-62503156D01*
X140426132Y-62540703D01*
X140397837Y-62584085D01*
X140380326Y-62621463D01*
X140364131Y-62673539D01*
X140355705Y-62723624D01*
X140353152Y-62772397D01*
X140352896Y-62777281D01*
X140241785Y-62777281D01*
X140241785Y-61735000D01*
X141853035Y-61735000D01*
X142040370Y-61735000D01*
X142040370Y-61340547D01*
X142430670Y-61340547D01*
X142430670Y-61160052D01*
X142040370Y-61160052D01*
X142040370Y-61101922D01*
X142615073Y-61101922D01*
X142615073Y-61374741D01*
X142617095Y-61424503D01*
X142624357Y-61477366D01*
X142636901Y-61525955D01*
X142657327Y-61575509D01*
X142671532Y-61600494D01*
X142701759Y-61640598D01*
X142737976Y-61674442D01*
X142780181Y-61702027D01*
X142816950Y-61718872D01*
X142868963Y-61734450D01*
X142919674Y-61742556D01*
X142974598Y-61745258D01*
X142992089Y-61744903D01*
X143042319Y-61739591D01*
X143060115Y-61735000D01*
X143364410Y-61735000D01*
X143566155Y-61735000D01*
X143621969Y-61575753D01*
X143986126Y-61575753D01*
X144041940Y-61735000D01*
X144243440Y-61735000D01*
X143863398Y-60740931D01*
X143744452Y-60740931D01*
X143494297Y-61395258D01*
X143364410Y-61735000D01*
X143060115Y-61735000D01*
X143094187Y-61726210D01*
X143141905Y-61704958D01*
X143155422Y-61697079D01*
X143197287Y-61666167D01*
X143234238Y-61628100D01*
X143263293Y-61587721D01*
X143283049Y-61552542D01*
X143304326Y-61502847D01*
X143319347Y-61454456D01*
X143330705Y-61402096D01*
X143136531Y-61402096D01*
X143128407Y-61433075D01*
X143108497Y-61478676D01*
X143078402Y-61517379D01*
X143070309Y-61524625D01*
X143024761Y-61550163D01*
X142974598Y-61557923D01*
X142941874Y-61555633D01*
X142893605Y-61541047D01*
X142852477Y-61510052D01*
X142827864Y-61472465D01*
X142813468Y-61425527D01*
X142809246Y-61374741D01*
X142809246Y-61101922D01*
X142812666Y-61055848D01*
X142826133Y-61007984D01*
X142852477Y-60966367D01*
X142879714Y-60942990D01*
X142924685Y-60923722D01*
X142974598Y-60918007D01*
X142999023Y-60919820D01*
X143047383Y-60936570D01*
X143070407Y-60952724D01*
X143102826Y-60989570D01*
X143121667Y-61025291D01*
X143136531Y-61074078D01*
X143330705Y-61074078D01*
X143322779Y-61034205D01*
X143308926Y-60984646D01*
X143288852Y-60933820D01*
X143264026Y-60888210D01*
X143254781Y-60874150D01*
X143224367Y-60835808D01*
X143185861Y-60799959D01*
X143142393Y-60771217D01*
X143123690Y-60761772D01*
X143074092Y-60743668D01*
X143025987Y-60734105D01*
X142974598Y-60730917D01*
X142933010Y-60732454D01*
X142881246Y-60739285D01*
X142828047Y-60753503D01*
X142780181Y-60774637D01*
X142755994Y-60789253D01*
X142717116Y-60820371D01*
X142684227Y-60857672D01*
X142657327Y-60901154D01*
X142636901Y-60950412D01*
X142624357Y-60998932D01*
X142617095Y-61051910D01*
X142615073Y-61101922D01*
X142040370Y-61101922D01*
X142040370Y-60921427D01*
X142505896Y-60921427D01*
X142505896Y-60740931D01*
X142040370Y-60740931D01*
X141853035Y-60740931D01*
X141853035Y-61735000D01*
X140241785Y-61735000D01*
X140241785Y-60619806D01*
X145758459Y-60619806D01*
X145758459Y-65206111D01*
G37*
G36*
X148576534Y-81001991D02*
G01*
X148640213Y-81039614D01*
X148667415Y-81095851D01*
X148664759Y-81171505D01*
X148664026Y-81174436D01*
X148662907Y-81179643D01*
X148635725Y-81249083D01*
X148585258Y-81305228D01*
X148573493Y-81313543D01*
X148505879Y-81342851D01*
X148429553Y-81351756D01*
X148118733Y-81351756D01*
X148193287Y-80993086D01*
X148503925Y-80993086D01*
X148576534Y-81001991D01*
G37*
G36*
X148684451Y-80407704D02*
G01*
X148750855Y-80441707D01*
X148773459Y-80479358D01*
X148774302Y-80554181D01*
X148750152Y-80621248D01*
X148701762Y-80678379D01*
X148633933Y-80712682D01*
X148560345Y-80722342D01*
X148249565Y-80722342D01*
X148316123Y-80402140D01*
X148627024Y-80402140D01*
X148684451Y-80407704D01*
G37*
G36*
X149231839Y-81789167D02*
G01*
X144990887Y-81789167D01*
X144990887Y-81622500D01*
X145157554Y-81622500D01*
X145442585Y-81622500D01*
X147787683Y-81622500D01*
X147908217Y-81622500D01*
X148399511Y-81622500D01*
X148464443Y-81619915D01*
X148537567Y-81609988D01*
X148616269Y-81588999D01*
X148687853Y-81557876D01*
X148752320Y-81516620D01*
X148785665Y-81488691D01*
X148836553Y-81433230D01*
X148877939Y-81369389D01*
X148909823Y-81297168D01*
X148932205Y-81216568D01*
X148932938Y-81213271D01*
X148936471Y-81194897D01*
X148943481Y-81117633D01*
X148934208Y-81042185D01*
X148903262Y-80971837D01*
X148895390Y-80960532D01*
X148840784Y-80908437D01*
X148774538Y-80875880D01*
X148701396Y-80858630D01*
X148727545Y-80853634D01*
X148800778Y-80832269D01*
X148872970Y-80797314D01*
X148935502Y-80750553D01*
X148946788Y-80739795D01*
X148995575Y-80680640D01*
X149031624Y-80612541D01*
X149054937Y-80535497D01*
X149065172Y-80466297D01*
X149064073Y-80383567D01*
X149042693Y-80303524D01*
X148999982Y-80237276D01*
X148987662Y-80224455D01*
X148920850Y-80176995D01*
X148845843Y-80148871D01*
X148768153Y-80135119D01*
X148692603Y-80131397D01*
X148372400Y-80131397D01*
X148097627Y-80131397D01*
X147974792Y-80722342D01*
X147843960Y-81351756D01*
X147787683Y-81622500D01*
X145442585Y-81622500D01*
X145442814Y-81621400D01*
X145755461Y-81621400D01*
X146018144Y-81621400D01*
X146241598Y-80545874D01*
X146535084Y-81621400D01*
X146872872Y-81621400D01*
X147182449Y-80131397D01*
X146919400Y-80131397D01*
X146692720Y-81222396D01*
X146400994Y-80131397D01*
X146065038Y-80131397D01*
X145755461Y-81621400D01*
X145442814Y-81621400D01*
X145752530Y-80131397D01*
X145467498Y-80131397D01*
X145157554Y-81622500D01*
X144990887Y-81622500D01*
X144990887Y-79964730D01*
X149231839Y-79964730D01*
X149231839Y-81789167D01*
G37*
G36*
X118789167Y-90327308D02*
G01*
X116964730Y-90327308D01*
X116964730Y-89237770D01*
X117131397Y-89237770D01*
X118126076Y-89554675D01*
X117131397Y-89871580D01*
X117131397Y-90160641D01*
X118622500Y-89664218D01*
X118622500Y-89444766D01*
X117131397Y-88948708D01*
X117131397Y-89237770D01*
X116964730Y-89237770D01*
X116964730Y-88243091D01*
X117519010Y-88243091D01*
X117519010Y-88513834D01*
X117805141Y-88513834D01*
X117805141Y-88815352D01*
X118065626Y-88815352D01*
X118065626Y-88513834D01*
X118351756Y-88513834D01*
X118351756Y-88243091D01*
X118065626Y-88243091D01*
X118065626Y-87941939D01*
X117805141Y-87941939D01*
X117805141Y-88243091D01*
X117519010Y-88243091D01*
X116964730Y-88243091D01*
X116964730Y-87775272D01*
X118789167Y-87775272D01*
X118789167Y-90327308D01*
G37*
G36*
X120658595Y-55700662D02*
G01*
X121095301Y-55791520D01*
X121164524Y-55812515D01*
X121230256Y-55848667D01*
X121285078Y-55898499D01*
X121319790Y-55947095D01*
X121348400Y-56019463D01*
X121356885Y-56093405D01*
X121355132Y-56126989D01*
X121334165Y-56200746D01*
X121285078Y-56258268D01*
X121246289Y-56279815D01*
X121170951Y-56294220D01*
X121095301Y-56286479D01*
X120658595Y-56195620D01*
X120589022Y-56174626D01*
X120523152Y-56138474D01*
X120468452Y-56088642D01*
X120433918Y-56039897D01*
X120405453Y-55967512D01*
X120397011Y-55893736D01*
X120398755Y-55860055D01*
X120419615Y-55786214D01*
X120468452Y-55728872D01*
X120507126Y-55707325D01*
X120582572Y-55692921D01*
X120658595Y-55700662D01*
G37*
G36*
X121112887Y-51950254D02*
G01*
X120604373Y-51670289D01*
X121112887Y-51601669D01*
X121112887Y-51950254D01*
G37*
G36*
X121804554Y-56752289D02*
G01*
X119949709Y-56752289D01*
X119949709Y-55835118D01*
X120116376Y-55835118D01*
X120119546Y-55893736D01*
X120120635Y-55913863D01*
X120133412Y-55989265D01*
X120154707Y-56061325D01*
X120184520Y-56130041D01*
X120222049Y-56194452D01*
X120266494Y-56253597D01*
X120317853Y-56307476D01*
X120376128Y-56356088D01*
X120440540Y-56398311D01*
X120510309Y-56433391D01*
X120585437Y-56461326D01*
X120665922Y-56482117D01*
X121088340Y-56570044D01*
X121148735Y-56580207D01*
X121224813Y-56585622D01*
X121304324Y-56580602D01*
X121377402Y-56563816D01*
X121392708Y-56558524D01*
X121462667Y-56524421D01*
X121521679Y-56477580D01*
X121569743Y-56418003D01*
X121592901Y-56376491D01*
X121618655Y-56306929D01*
X121633628Y-56228616D01*
X121637887Y-56151656D01*
X121633628Y-56073071D01*
X121620851Y-55997783D01*
X121599556Y-55925793D01*
X121569743Y-55857100D01*
X121532168Y-55792688D01*
X121487586Y-55733543D01*
X121435997Y-55679665D01*
X121377402Y-55631053D01*
X121312761Y-55588692D01*
X121243038Y-55553567D01*
X121168231Y-55525677D01*
X121088340Y-55505024D01*
X120665922Y-55417096D01*
X120605056Y-55406822D01*
X120528589Y-55401338D01*
X120448968Y-55406390D01*
X120376128Y-55423324D01*
X120360911Y-55428617D01*
X120291309Y-55462720D01*
X120232512Y-55509560D01*
X120184520Y-55569137D01*
X120161362Y-55610637D01*
X120135608Y-55680131D01*
X120120635Y-55758319D01*
X120116376Y-55835118D01*
X119949709Y-55835118D01*
X119949709Y-54256454D01*
X120131397Y-54256454D01*
X121090172Y-54455756D01*
X121164697Y-54477910D01*
X121233699Y-54514841D01*
X121289108Y-54564933D01*
X121329365Y-54626410D01*
X121352911Y-54697498D01*
X121359816Y-54770463D01*
X121357330Y-54814015D01*
X121337444Y-54886280D01*
X121289108Y-54945585D01*
X121239298Y-54970408D01*
X121164697Y-54979888D01*
X121090172Y-54970864D01*
X120131397Y-54771562D01*
X120131397Y-55046702D01*
X121083211Y-55244539D01*
X121099627Y-55247813D01*
X121178206Y-55259389D01*
X121264802Y-55262725D01*
X121343001Y-55254546D01*
X121423619Y-55230451D01*
X121492807Y-55190683D01*
X121501732Y-55183741D01*
X121556279Y-55127233D01*
X121596941Y-55056876D01*
X121620744Y-54985547D01*
X121634345Y-54904042D01*
X121637887Y-54828349D01*
X121636612Y-54781419D01*
X121628819Y-54706510D01*
X121610118Y-54622073D01*
X121581215Y-54543586D01*
X121542111Y-54471051D01*
X121492807Y-54404465D01*
X121444553Y-54354151D01*
X121378951Y-54301188D01*
X121304951Y-54256315D01*
X121236870Y-54225098D01*
X121162956Y-54199499D01*
X121083211Y-54179518D01*
X120131397Y-53981681D01*
X120131397Y-54256454D01*
X119949709Y-54256454D01*
X119949709Y-53851255D01*
X120131397Y-53851255D01*
X120402140Y-53907309D01*
X120402140Y-53510253D01*
X121622500Y-53764060D01*
X121622500Y-53489287D01*
X120402140Y-53235480D01*
X120402140Y-52837892D01*
X120131397Y-52781838D01*
X120131397Y-53851255D01*
X119949709Y-53851255D01*
X119949709Y-51484908D01*
X120131397Y-51484908D01*
X120131397Y-51659298D01*
X120150288Y-51670289D01*
X121622500Y-52526848D01*
X121622500Y-52230826D01*
X121383630Y-52099314D01*
X121383630Y-51565135D01*
X121622500Y-51532902D01*
X121622500Y-51237246D01*
X120131397Y-51484908D01*
X119949709Y-51484908D01*
X119949709Y-51070579D01*
X121804554Y-51070579D01*
X121804554Y-56752289D01*
G37*
G36*
X104571079Y-81112887D02*
G01*
X104222494Y-81112887D01*
X104502460Y-80604373D01*
X104571079Y-81112887D01*
G37*
G36*
X105102170Y-81789167D02*
G01*
X100989422Y-81789167D01*
X100989422Y-81622500D01*
X101156089Y-81622500D01*
X101441120Y-81622500D01*
X103645901Y-81622500D01*
X103941923Y-81622500D01*
X104073435Y-81383630D01*
X104607614Y-81383630D01*
X104639847Y-81622500D01*
X104935503Y-81622500D01*
X104687841Y-80131397D01*
X104513451Y-80131397D01*
X103942403Y-81112887D01*
X103645901Y-81622500D01*
X101441120Y-81622500D01*
X101441349Y-81621400D01*
X101753996Y-81621400D01*
X102016679Y-81621400D01*
X102240133Y-80545874D01*
X102533619Y-81621400D01*
X102871407Y-81621400D01*
X103180984Y-80131397D01*
X102917935Y-80131397D01*
X102691255Y-81222396D01*
X102399529Y-80131397D01*
X102063573Y-80131397D01*
X101753996Y-81621400D01*
X101441349Y-81621400D01*
X101751065Y-80131397D01*
X101466033Y-80131397D01*
X101156089Y-81622500D01*
X100989422Y-81622500D01*
X100989422Y-79964730D01*
X105102170Y-79964730D01*
X105102170Y-81789167D01*
G37*
G36*
X133153507Y-87336682D02*
G01*
X133226631Y-87361566D01*
X133284712Y-87407779D01*
X133322883Y-87467320D01*
X133345209Y-87541667D01*
X133351756Y-87622102D01*
X133351756Y-87840456D01*
X132402140Y-87840456D01*
X132402140Y-87622102D01*
X132407414Y-87549160D01*
X132428186Y-87473467D01*
X132468818Y-87407779D01*
X132510701Y-87371120D01*
X132580158Y-87340903D01*
X132657496Y-87331942D01*
X133096400Y-87331942D01*
X133153507Y-87336682D01*
G37*
G36*
X133804554Y-91125249D02*
G01*
X131949709Y-91125249D01*
X131949709Y-90415996D01*
X132116376Y-90415996D01*
X132118810Y-90476052D01*
X132129629Y-90551477D01*
X132152147Y-90629980D01*
X132185619Y-90701761D01*
X132208520Y-90738456D01*
X132256685Y-90797881D01*
X132313775Y-90848786D01*
X132379792Y-90891171D01*
X132444959Y-90920663D01*
X132515530Y-90941729D01*
X132591505Y-90954369D01*
X132672883Y-90958582D01*
X133112887Y-90958582D01*
X133170722Y-90956186D01*
X133243549Y-90945539D01*
X133319621Y-90923379D01*
X133389492Y-90890438D01*
X133425175Y-90867793D01*
X133482867Y-90820224D01*
X133532156Y-90763903D01*
X133573040Y-90698830D01*
X133598308Y-90642673D01*
X133621675Y-90564649D01*
X133633834Y-90489796D01*
X133637887Y-90409768D01*
X133635452Y-90349850D01*
X133624633Y-90274608D01*
X133602116Y-90196311D01*
X133568644Y-90124737D01*
X133545628Y-90088041D01*
X133497257Y-90028616D01*
X133439961Y-89977711D01*
X133373738Y-89935326D01*
X133308251Y-89905674D01*
X133237451Y-89884493D01*
X133161338Y-89871785D01*
X133079914Y-89867549D01*
X132789021Y-89867549D01*
X132789021Y-90384489D01*
X133059398Y-90384489D01*
X133059398Y-90158809D01*
X133084310Y-90158809D01*
X133135874Y-90162105D01*
X133212115Y-90183090D01*
X133277384Y-90227685D01*
X133307678Y-90264802D01*
X133338445Y-90337327D01*
X133346627Y-90410501D01*
X133343577Y-90458994D01*
X133324154Y-90532093D01*
X133282880Y-90596980D01*
X133252832Y-90624389D01*
X133186423Y-90657430D01*
X133112887Y-90667322D01*
X132672883Y-90667322D01*
X132616074Y-90663040D01*
X132541765Y-90640561D01*
X132480542Y-90598812D01*
X132445122Y-90556534D01*
X132415927Y-90489163D01*
X132407269Y-90416363D01*
X132417161Y-90342449D01*
X132446837Y-90273114D01*
X132491256Y-90220000D01*
X132559310Y-90183355D01*
X132559310Y-89880005D01*
X132534605Y-89885452D01*
X132464084Y-89906968D01*
X132392049Y-89939983D01*
X132326669Y-89982587D01*
X132314386Y-89992162D01*
X132258165Y-90044240D01*
X132210602Y-90103330D01*
X132171697Y-90169433D01*
X132161811Y-90190525D01*
X132135879Y-90263855D01*
X132120752Y-90341837D01*
X132116376Y-90415996D01*
X131949709Y-90415996D01*
X131949709Y-88717898D01*
X132131397Y-88717898D01*
X133222797Y-88717898D01*
X132131397Y-89248027D01*
X132131397Y-89591310D01*
X133621400Y-89591310D01*
X133621400Y-89322765D01*
X132546252Y-89322765D01*
X133621400Y-88794468D01*
X133621400Y-88448987D01*
X132131397Y-88448987D01*
X132131397Y-88717898D01*
X131949709Y-88717898D01*
X131949709Y-87628331D01*
X132131397Y-87628331D01*
X132131397Y-87980040D01*
X132131397Y-88121457D01*
X133622500Y-88121457D01*
X133622500Y-87840456D01*
X133622500Y-87629430D01*
X133622238Y-87605184D01*
X133617196Y-87524335D01*
X133605738Y-87449728D01*
X133584787Y-87372105D01*
X133555455Y-87302633D01*
X133533101Y-87263352D01*
X133486372Y-87200672D01*
X133431297Y-87148308D01*
X133367876Y-87106262D01*
X133313302Y-87080709D01*
X133237725Y-87057077D01*
X133165437Y-87044781D01*
X133088340Y-87040682D01*
X132665922Y-87040682D01*
X132619254Y-87042032D01*
X132545938Y-87050277D01*
X132465327Y-87070065D01*
X132392752Y-87100646D01*
X132328215Y-87142021D01*
X132271714Y-87194189D01*
X132231291Y-87245167D01*
X132191827Y-87314582D01*
X132162228Y-87392986D01*
X132145100Y-87465191D01*
X132134823Y-87543639D01*
X132131649Y-87622102D01*
X132131397Y-87628331D01*
X131949709Y-87628331D01*
X131949709Y-86874015D01*
X133804554Y-86874015D01*
X133804554Y-91125249D01*
G37*
X161638152Y-75142856D02*
X162304819Y-75142856D01*
X161257200Y-75380951D02*
X161971485Y-75619046D01*
X161971485Y-75619046D02*
X161971485Y-74999999D01*
X161400057Y-74666665D02*
X161352438Y-74619046D01*
X161352438Y-74619046D02*
X161304819Y-74523808D01*
X161304819Y-74523808D02*
X161304819Y-74285713D01*
X161304819Y-74285713D02*
X161352438Y-74190475D01*
X161352438Y-74190475D02*
X161400057Y-74142856D01*
X161400057Y-74142856D02*
X161495295Y-74095237D01*
X161495295Y-74095237D02*
X161590533Y-74095237D01*
X161590533Y-74095237D02*
X161733390Y-74142856D01*
X161733390Y-74142856D02*
X162304819Y-74714284D01*
X162304819Y-74714284D02*
X162304819Y-74095237D01*
X162209580Y-73666665D02*
X162257200Y-73619046D01*
X162257200Y-73619046D02*
X162304819Y-73666665D01*
X162304819Y-73666665D02*
X162257200Y-73714284D01*
X162257200Y-73714284D02*
X162209580Y-73666665D01*
X162209580Y-73666665D02*
X162304819Y-73666665D01*
X161304819Y-72999999D02*
X161304819Y-72904761D01*
X161304819Y-72904761D02*
X161352438Y-72809523D01*
X161352438Y-72809523D02*
X161400057Y-72761904D01*
X161400057Y-72761904D02*
X161495295Y-72714285D01*
X161495295Y-72714285D02*
X161685771Y-72666666D01*
X161685771Y-72666666D02*
X161923866Y-72666666D01*
X161923866Y-72666666D02*
X162114342Y-72714285D01*
X162114342Y-72714285D02*
X162209580Y-72761904D01*
X162209580Y-72761904D02*
X162257200Y-72809523D01*
X162257200Y-72809523D02*
X162304819Y-72904761D01*
X162304819Y-72904761D02*
X162304819Y-72999999D01*
X162304819Y-72999999D02*
X162257200Y-73095237D01*
X162257200Y-73095237D02*
X162209580Y-73142856D01*
X162209580Y-73142856D02*
X162114342Y-73190475D01*
X162114342Y-73190475D02*
X161923866Y-73238094D01*
X161923866Y-73238094D02*
X161685771Y-73238094D01*
X161685771Y-73238094D02*
X161495295Y-73190475D01*
X161495295Y-73190475D02*
X161400057Y-73142856D01*
X161400057Y-73142856D02*
X161352438Y-73095237D01*
X161352438Y-73095237D02*
X161304819Y-72999999D01*
X161304819Y-72047618D02*
X161304819Y-71952380D01*
X161304819Y-71952380D02*
X161352438Y-71857142D01*
X161352438Y-71857142D02*
X161400057Y-71809523D01*
X161400057Y-71809523D02*
X161495295Y-71761904D01*
X161495295Y-71761904D02*
X161685771Y-71714285D01*
X161685771Y-71714285D02*
X161923866Y-71714285D01*
X161923866Y-71714285D02*
X162114342Y-71761904D01*
X162114342Y-71761904D02*
X162209580Y-71809523D01*
X162209580Y-71809523D02*
X162257200Y-71857142D01*
X162257200Y-71857142D02*
X162304819Y-71952380D01*
X162304819Y-71952380D02*
X162304819Y-72047618D01*
X162304819Y-72047618D02*
X162257200Y-72142856D01*
X162257200Y-72142856D02*
X162209580Y-72190475D01*
X162209580Y-72190475D02*
X162114342Y-72238094D01*
X162114342Y-72238094D02*
X161923866Y-72285713D01*
X161923866Y-72285713D02*
X161685771Y-72285713D01*
X161685771Y-72285713D02*
X161495295Y-72238094D01*
X161495295Y-72238094D02*
X161400057Y-72190475D01*
X161400057Y-72190475D02*
X161352438Y-72142856D01*
X161352438Y-72142856D02*
X161304819Y-72047618D01*
X161304819Y-71095237D02*
X161304819Y-70999999D01*
X161304819Y-70999999D02*
X161352438Y-70904761D01*
X161352438Y-70904761D02*
X161400057Y-70857142D01*
X161400057Y-70857142D02*
X161495295Y-70809523D01*
X161495295Y-70809523D02*
X161685771Y-70761904D01*
X161685771Y-70761904D02*
X161923866Y-70761904D01*
X161923866Y-70761904D02*
X162114342Y-70809523D01*
X162114342Y-70809523D02*
X162209580Y-70857142D01*
X162209580Y-70857142D02*
X162257200Y-70904761D01*
X162257200Y-70904761D02*
X162304819Y-70999999D01*
X162304819Y-70999999D02*
X162304819Y-71095237D01*
X162304819Y-71095237D02*
X162257200Y-71190475D01*
X162257200Y-71190475D02*
X162209580Y-71238094D01*
X162209580Y-71238094D02*
X162114342Y-71285713D01*
X162114342Y-71285713D02*
X161923866Y-71333332D01*
X161923866Y-71333332D02*
X161685771Y-71333332D01*
X161685771Y-71333332D02*
X161495295Y-71285713D01*
X161495295Y-71285713D02*
X161400057Y-71238094D01*
X161400057Y-71238094D02*
X161352438Y-71190475D01*
X161352438Y-71190475D02*
X161304819Y-71095237D01*
X161304819Y-70142856D02*
X161304819Y-70047618D01*
X161304819Y-70047618D02*
X161352438Y-69952380D01*
X161352438Y-69952380D02*
X161400057Y-69904761D01*
X161400057Y-69904761D02*
X161495295Y-69857142D01*
X161495295Y-69857142D02*
X161685771Y-69809523D01*
X161685771Y-69809523D02*
X161923866Y-69809523D01*
X161923866Y-69809523D02*
X162114342Y-69857142D01*
X162114342Y-69857142D02*
X162209580Y-69904761D01*
X162209580Y-69904761D02*
X162257200Y-69952380D01*
X162257200Y-69952380D02*
X162304819Y-70047618D01*
X162304819Y-70047618D02*
X162304819Y-70142856D01*
X162304819Y-70142856D02*
X162257200Y-70238094D01*
X162257200Y-70238094D02*
X162209580Y-70285713D01*
X162209580Y-70285713D02*
X162114342Y-70333332D01*
X162114342Y-70333332D02*
X161923866Y-70380951D01*
X161923866Y-70380951D02*
X161685771Y-70380951D01*
X161685771Y-70380951D02*
X161495295Y-70333332D01*
X161495295Y-70333332D02*
X161400057Y-70285713D01*
X161400057Y-70285713D02*
X161352438Y-70238094D01*
X161352438Y-70238094D02*
X161304819Y-70142856D01*
X162304819Y-68619046D02*
X161638152Y-68619046D01*
X161733390Y-68619046D02*
X161685771Y-68571427D01*
X161685771Y-68571427D02*
X161638152Y-68476189D01*
X161638152Y-68476189D02*
X161638152Y-68333332D01*
X161638152Y-68333332D02*
X161685771Y-68238094D01*
X161685771Y-68238094D02*
X161781009Y-68190475D01*
X161781009Y-68190475D02*
X162304819Y-68190475D01*
X161781009Y-68190475D02*
X161685771Y-68142856D01*
X161685771Y-68142856D02*
X161638152Y-68047618D01*
X161638152Y-68047618D02*
X161638152Y-67904761D01*
X161638152Y-67904761D02*
X161685771Y-67809522D01*
X161685771Y-67809522D02*
X161781009Y-67761903D01*
X161781009Y-67761903D02*
X162304819Y-67761903D01*
X162304819Y-67285713D02*
X161638152Y-67285713D01*
X161733390Y-67285713D02*
X161685771Y-67238094D01*
X161685771Y-67238094D02*
X161638152Y-67142856D01*
X161638152Y-67142856D02*
X161638152Y-66999999D01*
X161638152Y-66999999D02*
X161685771Y-66904761D01*
X161685771Y-66904761D02*
X161781009Y-66857142D01*
X161781009Y-66857142D02*
X162304819Y-66857142D01*
X161781009Y-66857142D02*
X161685771Y-66809523D01*
X161685771Y-66809523D02*
X161638152Y-66714285D01*
X161638152Y-66714285D02*
X161638152Y-66571428D01*
X161638152Y-66571428D02*
X161685771Y-66476189D01*
X161685771Y-66476189D02*
X161781009Y-66428570D01*
X161781009Y-66428570D02*
X162304819Y-66428570D01*
D11*
X150500000Y-50000000D02*
X163586420Y-50000000D01*
X150500000Y-92000000D02*
X163586420Y-92000000D01*
X163000000Y-50000000D02*
X163000000Y-92000000D01*
X163000000Y-50000000D02*
X163000000Y-92000000D01*
X163000000Y-50000000D02*
X163586421Y-51126504D01*
X163000000Y-50000000D02*
X162413579Y-51126504D01*
X163000000Y-92000000D02*
X162413579Y-90873496D01*
X163000000Y-92000000D02*
X163586421Y-90873496D01*
D10*
G36*
X129041667Y-63979390D02*
G01*
X129000300Y-64016269D01*
X128951377Y-64049413D01*
X128899930Y-64073721D01*
X128864229Y-64085017D01*
X128809808Y-64094476D01*
X128755117Y-64095069D01*
X128700155Y-64086795D01*
X128669504Y-64078368D01*
X128615081Y-64056271D01*
X128568270Y-64029312D01*
X128522931Y-63995467D01*
X128484467Y-63960203D01*
X128272263Y-63747999D01*
X128232154Y-63703711D01*
X128199027Y-63658045D01*
X128172882Y-63611002D01*
X128153718Y-63562582D01*
X128140442Y-63507393D01*
X128136092Y-63452535D01*
X128140669Y-63398007D01*
X128147069Y-63367856D01*
X128165486Y-63314726D01*
X128192739Y-63264120D01*
X128228828Y-63216039D01*
X128252696Y-63190418D01*
X128296279Y-63152438D01*
X128343201Y-63122324D01*
X128393464Y-63100076D01*
X128403917Y-63096570D01*
X128457099Y-63083736D01*
X128511209Y-63078953D01*
X128566246Y-63082222D01*
X128577365Y-63083842D01*
X128632302Y-63096710D01*
X128685978Y-63117741D01*
X128733208Y-63143648D01*
X128748724Y-63153753D01*
X128637588Y-63264889D01*
X128586094Y-63242512D01*
X128538610Y-63233543D01*
X128482013Y-63235239D01*
X128439822Y-63245701D01*
X128390659Y-63269672D01*
X128358322Y-63296045D01*
X128324441Y-63337892D01*
X128301317Y-63388547D01*
X128293480Y-63443581D01*
X128294110Y-63460945D01*
X128305769Y-63518286D01*
X128328888Y-63568054D01*
X128363968Y-63616078D01*
X128383399Y-63636863D01*
X128595603Y-63849066D01*
X128637505Y-63885554D01*
X128686262Y-63915276D01*
X128742446Y-63934237D01*
X128771331Y-63938165D01*
X128827478Y-63934715D01*
X128879321Y-63916051D01*
X128926859Y-63882174D01*
X128935851Y-63873573D01*
X128970670Y-63828219D01*
X128991735Y-63778729D01*
X128999113Y-63746479D01*
X129000591Y-63689219D01*
X128987771Y-63637012D01*
X128967197Y-63594498D01*
X129078333Y-63483362D01*
X129106429Y-63530296D01*
X129129857Y-63583749D01*
X129145085Y-63638575D01*
X129148054Y-63655290D01*
X129152770Y-63710476D01*
X129149583Y-63764660D01*
X129138492Y-63817843D01*
X129135326Y-63828359D01*
X129114751Y-63879189D01*
X129086273Y-63926716D01*
X129049892Y-63970941D01*
X129041667Y-63979390D01*
G37*
G36*
X128851501Y-62607571D02*
G01*
X129624515Y-63380585D01*
X129516038Y-63489061D01*
X128861000Y-62834023D01*
X128818445Y-63011461D01*
X128706359Y-62899375D01*
X128743025Y-62716047D01*
X128851501Y-62607571D01*
G37*
G36*
X129517178Y-62102922D02*
G01*
X129572081Y-62123036D01*
X129619031Y-62150960D01*
X129664962Y-62188520D01*
X129677898Y-62201022D01*
X130029354Y-62552478D01*
X130069464Y-62597914D01*
X130100028Y-62644460D01*
X130123270Y-62699013D01*
X130134045Y-62755014D01*
X130134791Y-62769241D01*
X130129270Y-62825961D01*
X130109667Y-62882134D01*
X130080962Y-62930838D01*
X130041477Y-62979124D01*
X130028215Y-62992843D01*
X129986619Y-63030271D01*
X129937752Y-63063741D01*
X129888523Y-63086228D01*
X129831815Y-63098482D01*
X129803283Y-63099230D01*
X129747014Y-63091001D01*
X129692384Y-63070686D01*
X129645927Y-63042994D01*
X129600724Y-63006049D01*
X129588039Y-62993793D01*
X129236583Y-62642337D01*
X129196483Y-62596891D01*
X129165946Y-62550318D01*
X129142757Y-62495712D01*
X129132059Y-62439633D01*
X129131336Y-62425384D01*
X129131657Y-62422154D01*
X129285787Y-62422154D01*
X129301082Y-62475084D01*
X129332165Y-62520146D01*
X129345060Y-62533860D01*
X129696516Y-62885316D01*
X129741163Y-62921310D01*
X129793926Y-62942582D01*
X129808222Y-62944589D01*
X129862468Y-62934796D01*
X129910224Y-62903551D01*
X129925057Y-62889686D01*
X129960740Y-62845294D01*
X129979477Y-62794381D01*
X129979961Y-62772850D01*
X129964613Y-62719595D01*
X129933686Y-62674588D01*
X129920878Y-62660954D01*
X129569422Y-62309498D01*
X129524560Y-62273352D01*
X129471783Y-62252294D01*
X129457526Y-62250415D01*
X129403374Y-62260114D01*
X129355565Y-62291412D01*
X129340690Y-62305319D01*
X129305096Y-62349622D01*
X129286328Y-62400566D01*
X129285787Y-62422154D01*
X129131657Y-62422154D01*
X129136976Y-62368545D01*
X129156556Y-62312395D01*
X129185122Y-62263829D01*
X129224362Y-62215790D01*
X129237533Y-62202161D01*
X129278786Y-62165009D01*
X129327286Y-62131659D01*
X129376186Y-62109073D01*
X129432562Y-62096440D01*
X129460945Y-62095395D01*
X129517178Y-62102922D01*
G37*
G36*
X120188894Y-70824123D02*
G01*
X120188894Y-70678237D01*
X120561804Y-70678237D01*
X120615300Y-70669341D01*
X120661433Y-70640064D01*
X120669271Y-70631758D01*
X120697003Y-70585094D01*
X120708849Y-70531448D01*
X120709839Y-70508171D01*
X120703144Y-70450924D01*
X120680958Y-70400381D01*
X120669271Y-70385121D01*
X120625452Y-70351567D01*
X120570063Y-70338556D01*
X120561804Y-70338373D01*
X120188894Y-70338373D01*
X120188894Y-70192487D01*
X120555893Y-70192487D01*
X120613169Y-70196344D01*
X120665774Y-70207914D01*
X120718245Y-70229551D01*
X120722735Y-70231981D01*
X120768090Y-70262816D01*
X120805889Y-70301016D01*
X120833695Y-70342135D01*
X120856180Y-70393634D01*
X120869332Y-70450974D01*
X120873189Y-70508171D01*
X120869280Y-70565137D01*
X120855949Y-70622466D01*
X120833158Y-70674207D01*
X120802106Y-70719256D01*
X120763626Y-70756876D01*
X120722198Y-70784629D01*
X120670546Y-70807115D01*
X120613116Y-70820267D01*
X120555893Y-70824123D01*
X120188894Y-70824123D01*
G37*
G36*
X120121996Y-71286500D02*
G01*
X120121996Y-70192487D01*
X120275405Y-70192487D01*
X120275405Y-71286500D01*
X120121996Y-71286500D01*
G37*
G36*
X120736975Y-71286500D02*
G01*
X120486577Y-70790271D01*
X120639180Y-70755613D01*
X120919131Y-71286500D01*
X120736975Y-71286500D01*
G37*
G36*
X121366999Y-70193293D02*
G01*
X121366999Y-71286500D01*
X121213590Y-71286500D01*
X121213590Y-70360135D01*
X121058032Y-70455512D01*
X121058032Y-70296998D01*
X121213590Y-70193293D01*
X121366999Y-70193293D01*
G37*
G36*
X121878541Y-70193293D02*
G01*
X121878541Y-71286500D01*
X121725133Y-71286500D01*
X121725133Y-70360135D01*
X121569574Y-70455512D01*
X121569574Y-70296998D01*
X121725133Y-70193293D01*
X121878541Y-70193293D01*
G37*
G36*
X119777635Y-64756576D02*
G01*
X119814514Y-64797944D01*
X119847658Y-64846866D01*
X119871966Y-64898314D01*
X119883262Y-64934014D01*
X119892721Y-64988435D01*
X119893313Y-65043127D01*
X119885040Y-65098089D01*
X119876613Y-65128740D01*
X119854516Y-65183163D01*
X119827557Y-65229974D01*
X119793711Y-65275313D01*
X119758447Y-65313777D01*
X119546244Y-65525981D01*
X119501955Y-65566089D01*
X119456290Y-65599217D01*
X119409247Y-65625362D01*
X119360827Y-65644526D01*
X119305638Y-65657802D01*
X119250779Y-65662151D01*
X119196251Y-65657575D01*
X119166101Y-65651175D01*
X119112971Y-65632758D01*
X119062365Y-65605505D01*
X119014284Y-65569416D01*
X118988663Y-65545548D01*
X118950683Y-65501965D01*
X118920568Y-65455042D01*
X118898320Y-65404780D01*
X118894815Y-65394327D01*
X118881980Y-65341145D01*
X118877197Y-65287035D01*
X118880466Y-65231997D01*
X118882086Y-65220879D01*
X118894954Y-65165941D01*
X118915985Y-65112266D01*
X118941893Y-65065036D01*
X118951998Y-65049520D01*
X119063134Y-65160656D01*
X119040757Y-65212150D01*
X119031788Y-65259634D01*
X119033484Y-65316230D01*
X119043946Y-65358421D01*
X119067917Y-65407585D01*
X119094290Y-65439921D01*
X119136136Y-65473803D01*
X119186792Y-65496927D01*
X119241826Y-65504763D01*
X119259189Y-65504133D01*
X119316531Y-65492475D01*
X119366299Y-65469356D01*
X119414323Y-65434275D01*
X119435108Y-65414844D01*
X119647311Y-65202641D01*
X119683798Y-65160739D01*
X119713521Y-65111982D01*
X119732482Y-65055798D01*
X119736410Y-65026913D01*
X119732959Y-64970766D01*
X119714296Y-64918923D01*
X119680419Y-64871384D01*
X119671818Y-64862393D01*
X119626464Y-64827574D01*
X119576974Y-64806509D01*
X119544724Y-64799131D01*
X119487464Y-64797653D01*
X119435257Y-64810473D01*
X119392743Y-64831047D01*
X119281607Y-64719911D01*
X119328541Y-64691815D01*
X119381994Y-64668387D01*
X119436820Y-64653159D01*
X119453535Y-64650190D01*
X119508721Y-64645474D01*
X119562905Y-64648661D01*
X119616087Y-64659752D01*
X119626604Y-64662918D01*
X119677434Y-64683493D01*
X119724961Y-64711971D01*
X119769186Y-64748352D01*
X119777635Y-64756576D01*
G37*
G36*
X119286166Y-64281066D02*
G01*
X118769800Y-64450135D01*
X118782960Y-64449601D01*
X118804576Y-64456414D01*
X118851269Y-64484168D01*
X118878287Y-64508087D01*
X118914181Y-64551723D01*
X118940453Y-64605212D01*
X118951789Y-64663360D01*
X118951048Y-64704713D01*
X118939815Y-64760495D01*
X118917137Y-64814994D01*
X118887904Y-64861629D01*
X118849908Y-64907283D01*
X118837442Y-64920146D01*
X118836872Y-64920716D01*
X118794419Y-64959188D01*
X118744367Y-64994534D01*
X118693752Y-65019608D01*
X118635215Y-65035684D01*
X118605671Y-65038691D01*
X118547396Y-65034607D01*
X118491115Y-65017034D01*
X118443506Y-64990593D01*
X118397424Y-64953825D01*
X118384538Y-64941423D01*
X118344856Y-64895760D01*
X118315574Y-64848532D01*
X118294843Y-64792644D01*
X118287695Y-64734713D01*
X118287923Y-64724660D01*
X118443241Y-64724660D01*
X118450379Y-64780070D01*
X118479563Y-64827643D01*
X118488645Y-64837316D01*
X118532138Y-64869709D01*
X118586451Y-64883632D01*
X118601681Y-64883101D01*
X118655410Y-64867553D01*
X118701521Y-64837151D01*
X118724596Y-64816039D01*
X118725166Y-64815469D01*
X118761622Y-64772413D01*
X118787573Y-64721645D01*
X118794317Y-64690465D01*
X118787641Y-64634426D01*
X118758437Y-64586417D01*
X118749293Y-64576669D01*
X118705890Y-64544679D01*
X118651135Y-64531454D01*
X118635687Y-64532214D01*
X118580925Y-64548796D01*
X118533870Y-64580142D01*
X118510303Y-64601746D01*
X118509923Y-64602126D01*
X118474444Y-64644204D01*
X118449475Y-64693991D01*
X118443241Y-64724660D01*
X118287923Y-64724660D01*
X118288030Y-64719911D01*
X118297755Y-64660816D01*
X118317387Y-64609557D01*
X118347400Y-64558715D01*
X118381389Y-64515470D01*
X118408285Y-64486810D01*
X118408855Y-64486240D01*
X118450864Y-64448809D01*
X118495987Y-64416038D01*
X118525121Y-64397711D01*
X118573636Y-64371273D01*
X118624620Y-64348382D01*
X118673112Y-64330649D01*
X119169141Y-64164040D01*
X119286166Y-64281066D01*
G37*
G36*
X136424123Y-78706325D02*
G01*
X136278237Y-78706325D01*
X136278237Y-78333415D01*
X136269341Y-78279919D01*
X136240064Y-78233786D01*
X136231758Y-78225948D01*
X136185094Y-78198216D01*
X136131448Y-78186370D01*
X136108171Y-78185380D01*
X136050924Y-78192075D01*
X136000381Y-78214261D01*
X135985121Y-78225948D01*
X135951567Y-78269767D01*
X135938556Y-78325156D01*
X135938373Y-78333415D01*
X135938373Y-78706325D01*
X135792487Y-78706325D01*
X135792487Y-78339326D01*
X135796344Y-78282050D01*
X135807914Y-78229445D01*
X135829551Y-78176974D01*
X135831981Y-78172484D01*
X135862816Y-78127129D01*
X135901016Y-78089330D01*
X135942135Y-78061524D01*
X135993634Y-78039039D01*
X136050974Y-78025887D01*
X136108171Y-78022030D01*
X136165137Y-78025939D01*
X136222466Y-78039270D01*
X136274207Y-78062061D01*
X136319256Y-78093113D01*
X136356876Y-78131593D01*
X136384629Y-78173021D01*
X136407115Y-78224673D01*
X136420267Y-78282103D01*
X136424123Y-78339326D01*
X136424123Y-78706325D01*
G37*
G36*
X136886500Y-78773223D02*
G01*
X135792487Y-78773223D01*
X135792487Y-78619814D01*
X136886500Y-78619814D01*
X136886500Y-78773223D01*
G37*
G36*
X136886500Y-78158244D02*
G01*
X136390271Y-78408642D01*
X136355613Y-78256039D01*
X136886500Y-77976088D01*
X136886500Y-78158244D01*
G37*
G36*
X136897784Y-77509413D02*
G01*
X136894530Y-77564946D01*
X136883436Y-77620881D01*
X136864469Y-77671419D01*
X136835125Y-77719754D01*
X136797470Y-77760382D01*
X136767749Y-77783185D01*
X136716580Y-77810425D01*
X136662971Y-77828027D01*
X136614340Y-77837187D01*
X136614340Y-77680823D01*
X136668916Y-77665021D01*
X136713531Y-77630715D01*
X136717777Y-77625209D01*
X136742158Y-77573692D01*
X136750158Y-77518146D01*
X136750285Y-77509413D01*
X136743590Y-77453268D01*
X136719225Y-77402479D01*
X136709717Y-77391468D01*
X136664422Y-77361192D01*
X136609045Y-77349658D01*
X136595533Y-77349287D01*
X136562487Y-77349287D01*
X136506281Y-77354879D01*
X136453982Y-77375537D01*
X136435945Y-77389050D01*
X136403740Y-77433648D01*
X136391472Y-77488481D01*
X136391077Y-77501890D01*
X136391077Y-77579267D01*
X136245191Y-77579267D01*
X136245191Y-77501890D01*
X136236749Y-77447741D01*
X136206772Y-77402215D01*
X136157080Y-77374962D01*
X136102834Y-77367322D01*
X136098499Y-77367288D01*
X136064647Y-77367288D01*
X136010438Y-77375494D01*
X135964703Y-77404633D01*
X135937031Y-77452898D01*
X135929239Y-77510219D01*
X135937433Y-77563617D01*
X135962016Y-77608283D01*
X136004264Y-77642269D01*
X136056768Y-77661649D01*
X136065453Y-77663628D01*
X136065453Y-77819186D01*
X136009156Y-77806209D01*
X135952026Y-77784640D01*
X135902587Y-77755884D01*
X135860839Y-77719942D01*
X135856161Y-77714943D01*
X135823719Y-77671822D01*
X135800547Y-77623328D01*
X135786643Y-77569460D01*
X135782009Y-77510219D01*
X135785570Y-77451347D01*
X135796254Y-77398620D01*
X135817184Y-77345886D01*
X135847418Y-77301178D01*
X135856430Y-77291255D01*
X135903094Y-77253852D01*
X135952638Y-77230881D01*
X136009772Y-77217582D01*
X136065990Y-77213879D01*
X136084259Y-77213879D01*
X136138056Y-77219117D01*
X136190950Y-77236780D01*
X136226653Y-77258209D01*
X136267532Y-77296633D01*
X136299495Y-77345409D01*
X136315851Y-77383677D01*
X136332485Y-77331696D01*
X136362055Y-77283608D01*
X136403436Y-77245045D01*
X136455102Y-77217053D01*
X136509675Y-77201688D01*
X136564983Y-77196071D01*
X136578070Y-77195879D01*
X136596339Y-77195879D01*
X136656021Y-77199800D01*
X136709532Y-77211563D01*
X136763131Y-77234610D01*
X136808670Y-77267899D01*
X136818795Y-77277822D01*
X136853353Y-77323025D01*
X136878036Y-77376692D01*
X136891535Y-77430592D01*
X136897475Y-77490972D01*
X136897784Y-77509413D01*
G37*
G36*
X143992784Y-89656063D02*
G01*
X143988625Y-89713984D01*
X143976148Y-89768793D01*
X143957588Y-89815920D01*
X143929841Y-89862954D01*
X143891896Y-89906951D01*
X143858181Y-89934939D01*
X143767909Y-89809472D01*
X143809161Y-89773631D01*
X143825135Y-89748484D01*
X143841960Y-89696720D01*
X143845285Y-89656063D01*
X143838714Y-89599317D01*
X143816555Y-89548274D01*
X143789671Y-89517431D01*
X143741613Y-89487306D01*
X143686409Y-89471906D01*
X143633307Y-89467996D01*
X142888293Y-89467996D01*
X142888293Y-89314587D01*
X143634113Y-89314587D01*
X143695397Y-89317723D01*
X143751298Y-89327130D01*
X143809711Y-89346033D01*
X143860796Y-89373471D01*
X143898750Y-89403785D01*
X143935390Y-89446252D01*
X143963031Y-89495842D01*
X143981672Y-89552554D01*
X143990488Y-89606833D01*
X143992784Y-89656063D01*
G37*
G36*
X143557274Y-88965051D02*
G01*
X143411388Y-88965051D01*
X143411388Y-88615515D01*
X143402830Y-88559315D01*
X143374473Y-88509801D01*
X143359535Y-88494884D01*
X143312084Y-88465312D01*
X143258837Y-88451396D01*
X143223590Y-88449210D01*
X143168668Y-88454607D01*
X143117877Y-88472805D01*
X143086032Y-88494884D01*
X143050402Y-88540321D01*
X143035183Y-88592735D01*
X143033911Y-88615515D01*
X143033911Y-88965051D01*
X142888293Y-88965051D01*
X142888293Y-88620620D01*
X142891587Y-88566874D01*
X142902974Y-88511891D01*
X142924894Y-88457168D01*
X142929936Y-88447867D01*
X142962535Y-88400977D01*
X143003069Y-88361897D01*
X143046807Y-88333146D01*
X143096395Y-88311469D01*
X143151125Y-88297820D01*
X143204779Y-88292401D01*
X143223590Y-88292040D01*
X143278243Y-88295292D01*
X143334232Y-88306531D01*
X143385237Y-88325800D01*
X143399566Y-88333146D01*
X143447285Y-88365127D01*
X143487003Y-88404917D01*
X143516168Y-88447867D01*
X143539571Y-88501493D01*
X143552417Y-88555478D01*
X143557234Y-88614449D01*
X143557274Y-88620620D01*
X143557274Y-88965051D01*
G37*
G36*
X143981500Y-89044039D02*
G01*
X142888293Y-89044039D01*
X142888293Y-88890630D01*
X143981500Y-88890630D01*
X143981500Y-89044039D01*
G37*
G36*
X143980962Y-88198275D02*
G01*
X143980962Y-87572818D01*
X144126848Y-87572818D01*
X144126848Y-88198275D01*
X143980962Y-88198275D01*
G37*
G36*
X143981500Y-87520159D02*
G01*
X142888293Y-87117159D01*
X142888293Y-86986318D01*
X143981500Y-86583317D01*
X143981500Y-86748547D01*
X143099465Y-87051604D01*
X143981500Y-87354660D01*
X143981500Y-87520159D01*
G37*
G36*
X143741580Y-87334510D02*
G01*
X143595693Y-87334510D01*
X143595693Y-86759294D01*
X143741580Y-86759294D01*
X143741580Y-87334510D01*
G37*
G36*
X142888293Y-86177361D02*
G01*
X143981500Y-86177361D01*
X143981500Y-86330770D01*
X143055135Y-86330770D01*
X143150512Y-86486328D01*
X142991998Y-86486328D01*
X142888293Y-86330770D01*
X142888293Y-86177361D01*
G37*
G36*
X105694503Y-63435876D02*
G01*
X105694503Y-63581762D01*
X105321593Y-63581762D01*
X105268097Y-63590658D01*
X105221964Y-63619935D01*
X105214126Y-63628241D01*
X105186394Y-63674905D01*
X105174548Y-63728551D01*
X105173558Y-63751828D01*
X105180253Y-63809075D01*
X105202439Y-63859618D01*
X105214126Y-63874878D01*
X105257945Y-63908432D01*
X105313334Y-63921443D01*
X105321593Y-63921626D01*
X105694503Y-63921626D01*
X105694503Y-64067512D01*
X105327504Y-64067512D01*
X105270228Y-64063655D01*
X105217623Y-64052085D01*
X105165152Y-64030448D01*
X105160662Y-64028018D01*
X105115307Y-63997183D01*
X105077508Y-63958983D01*
X105049702Y-63917864D01*
X105027217Y-63866365D01*
X105014065Y-63809025D01*
X105010208Y-63751828D01*
X105014117Y-63694862D01*
X105027448Y-63637533D01*
X105050239Y-63585792D01*
X105081291Y-63540743D01*
X105119771Y-63503123D01*
X105161199Y-63475370D01*
X105212851Y-63452884D01*
X105270281Y-63439732D01*
X105327504Y-63435876D01*
X105694503Y-63435876D01*
G37*
G36*
X105761401Y-62973500D02*
G01*
X105761401Y-64067512D01*
X105607992Y-64067512D01*
X105607992Y-62973500D01*
X105761401Y-62973500D01*
G37*
G36*
X105146422Y-62973500D02*
G01*
X105396820Y-63469728D01*
X105244217Y-63504386D01*
X104964266Y-62973500D01*
X105146422Y-62973500D01*
G37*
G36*
X104558746Y-62966355D02*
G01*
X104612846Y-62978774D01*
X104667025Y-63003105D01*
X104713042Y-63038250D01*
X104723271Y-63048726D01*
X104758064Y-63096398D01*
X104780353Y-63145356D01*
X104795031Y-63201076D01*
X104802098Y-63263559D01*
X104802797Y-63292407D01*
X104802797Y-63293213D01*
X104800077Y-63347417D01*
X104791916Y-63404039D01*
X104783453Y-63443130D01*
X104767906Y-63496952D01*
X104748231Y-63549441D01*
X104726764Y-63596001D01*
X104489262Y-64066706D01*
X104323763Y-64066706D01*
X104567088Y-63591531D01*
X104519469Y-63615869D01*
X104462933Y-63623137D01*
X104402214Y-63617797D01*
X104348749Y-63601778D01*
X104297272Y-63570991D01*
X104263582Y-63537700D01*
X104232668Y-63490701D01*
X104210587Y-63434868D01*
X104198512Y-63378769D01*
X104193199Y-63315908D01*
X104192923Y-63296706D01*
X104192923Y-63296169D01*
X104193557Y-63283273D01*
X104346331Y-63283273D01*
X104346331Y-63284079D01*
X104351220Y-63342144D01*
X104367706Y-63394263D01*
X104387706Y-63425666D01*
X104430697Y-63460011D01*
X104482773Y-63474680D01*
X104505920Y-63475907D01*
X104559769Y-63466239D01*
X104604453Y-63434424D01*
X104611775Y-63425398D01*
X104637487Y-63373466D01*
X104648066Y-63316265D01*
X104649388Y-63283273D01*
X104649388Y-63282467D01*
X104643834Y-63225404D01*
X104623316Y-63172488D01*
X104609894Y-63154312D01*
X104565725Y-63122301D01*
X104511612Y-63110106D01*
X104498397Y-63109714D01*
X104444131Y-63117119D01*
X104395842Y-63144065D01*
X104385557Y-63154581D01*
X104358743Y-63201429D01*
X104347289Y-63258100D01*
X104346331Y-63283273D01*
X104193557Y-63283273D01*
X104195728Y-63239128D01*
X104206092Y-63178908D01*
X104224092Y-63125502D01*
X104254015Y-63072810D01*
X104272717Y-63049801D01*
X104316745Y-63011482D01*
X104369034Y-62984112D01*
X104421564Y-62969144D01*
X104480419Y-62962558D01*
X104498397Y-62962215D01*
X104558746Y-62966355D01*
G37*
G36*
X116305496Y-70824123D02*
G01*
X116305496Y-70678237D01*
X116678406Y-70678237D01*
X116731902Y-70669341D01*
X116778035Y-70640064D01*
X116785873Y-70631758D01*
X116813605Y-70585094D01*
X116825451Y-70531448D01*
X116826441Y-70508171D01*
X116819746Y-70450924D01*
X116797560Y-70400381D01*
X116785873Y-70385121D01*
X116742054Y-70351567D01*
X116686665Y-70338556D01*
X116678406Y-70338373D01*
X116305496Y-70338373D01*
X116305496Y-70192487D01*
X116672495Y-70192487D01*
X116729771Y-70196344D01*
X116782376Y-70207914D01*
X116834847Y-70229551D01*
X116839337Y-70231981D01*
X116884692Y-70262816D01*
X116922491Y-70301016D01*
X116950297Y-70342135D01*
X116972782Y-70393634D01*
X116985934Y-70450974D01*
X116989791Y-70508171D01*
X116985882Y-70565137D01*
X116972551Y-70622466D01*
X116949760Y-70674207D01*
X116918708Y-70719256D01*
X116880228Y-70756876D01*
X116838800Y-70784629D01*
X116787148Y-70807115D01*
X116729718Y-70820267D01*
X116672495Y-70824123D01*
X116305496Y-70824123D01*
G37*
G36*
X116238598Y-71286500D02*
G01*
X116238598Y-70192487D01*
X116392007Y-70192487D01*
X116392007Y-71286500D01*
X116238598Y-71286500D01*
G37*
G36*
X116853577Y-71286500D02*
G01*
X116603179Y-70790271D01*
X116755782Y-70755613D01*
X117035733Y-71286500D01*
X116853577Y-71286500D01*
G37*
G36*
X117562756Y-70186239D02*
G01*
X117616857Y-70198928D01*
X117671035Y-70223788D01*
X117717053Y-70259697D01*
X117727282Y-70270400D01*
X117762192Y-70319063D01*
X117784556Y-70369191D01*
X117799284Y-70426364D01*
X117805830Y-70480977D01*
X117807076Y-70520261D01*
X117807076Y-70521067D01*
X117803840Y-70577240D01*
X117795106Y-70632318D01*
X117787464Y-70665878D01*
X117771853Y-70718878D01*
X117751988Y-70771116D01*
X117730238Y-70817944D01*
X117497303Y-71286500D01*
X117331804Y-71286500D01*
X117577379Y-70801823D01*
X117568452Y-70811506D01*
X117548350Y-70821974D01*
X117495708Y-70835365D01*
X117459690Y-70837557D01*
X117403454Y-70832083D01*
X117347054Y-70812838D01*
X117297922Y-70779737D01*
X117269205Y-70749971D01*
X117237704Y-70702585D01*
X117215203Y-70648012D01*
X117202898Y-70594365D01*
X117197483Y-70535216D01*
X117197202Y-70517306D01*
X117197202Y-70516500D01*
X117197466Y-70511126D01*
X117350611Y-70511126D01*
X117350611Y-70511932D01*
X117355278Y-70568156D01*
X117372826Y-70622405D01*
X117390105Y-70649221D01*
X117434451Y-70684125D01*
X117489049Y-70697422D01*
X117502408Y-70697850D01*
X117555719Y-70689780D01*
X117603788Y-70660413D01*
X117614173Y-70648952D01*
X117641171Y-70598505D01*
X117652279Y-70543067D01*
X117653668Y-70511126D01*
X117653668Y-70510589D01*
X117649001Y-70455748D01*
X117631452Y-70402887D01*
X117614173Y-70376793D01*
X117569946Y-70342660D01*
X117515671Y-70329656D01*
X117502408Y-70329239D01*
X117448749Y-70337087D01*
X117400499Y-70365647D01*
X117390105Y-70376793D01*
X117363107Y-70425778D01*
X117351999Y-70479881D01*
X117350611Y-70511126D01*
X117197466Y-70511126D01*
X117200017Y-70459277D01*
X117210416Y-70398891D01*
X117228477Y-70345371D01*
X117258500Y-70292612D01*
X117277265Y-70269594D01*
X117321360Y-70231276D01*
X117373582Y-70203905D01*
X117425943Y-70188937D01*
X117484527Y-70182351D01*
X117502408Y-70182009D01*
X117562756Y-70186239D01*
G37*
G36*
X128467784Y-69242933D02*
G01*
X128464610Y-69298261D01*
X128453453Y-69356291D01*
X128434262Y-69409858D01*
X128417005Y-69443090D01*
X128385212Y-69488260D01*
X128346959Y-69527351D01*
X128302245Y-69560365D01*
X128274612Y-69576080D01*
X128220504Y-69598938D01*
X128168341Y-69612975D01*
X128112349Y-69621103D01*
X128060215Y-69623365D01*
X127760114Y-69623365D01*
X127700437Y-69620410D01*
X127644722Y-69611544D01*
X127592970Y-69596767D01*
X127545181Y-69576080D01*
X127496769Y-69546443D01*
X127454902Y-69510728D01*
X127419581Y-69468934D01*
X127402787Y-69443090D01*
X127378241Y-69392498D01*
X127361728Y-69337444D01*
X127353249Y-69277926D01*
X127352009Y-69242933D01*
X127355971Y-69185258D01*
X127367856Y-69130785D01*
X127387665Y-69079513D01*
X127392578Y-69069642D01*
X127421108Y-69022961D01*
X127455987Y-68981318D01*
X127497216Y-68944712D01*
X127506224Y-68937995D01*
X127554169Y-68908248D01*
X127606995Y-68885165D01*
X127658711Y-68870087D01*
X127676827Y-68866261D01*
X127676827Y-69023432D01*
X127624593Y-69044020D01*
X127584675Y-69071254D01*
X127545854Y-69112474D01*
X127523419Y-69149705D01*
X127505605Y-69201418D01*
X127501388Y-69242933D01*
X127507020Y-69296481D01*
X127526487Y-69348650D01*
X127559861Y-69393106D01*
X127572585Y-69404939D01*
X127621375Y-69437242D01*
X127672913Y-69456085D01*
X127731678Y-69465238D01*
X127760114Y-69466195D01*
X128060215Y-69466195D01*
X128115645Y-69462367D01*
X128171139Y-69448907D01*
X128224274Y-69422586D01*
X128247476Y-69404939D01*
X128284738Y-69362797D01*
X128308199Y-69312941D01*
X128317860Y-69255372D01*
X128318136Y-69242933D01*
X128310687Y-69186242D01*
X128290587Y-69136351D01*
X128273000Y-69108330D01*
X128233556Y-69066796D01*
X128187575Y-69038946D01*
X128142965Y-69023432D01*
X128142965Y-68866261D01*
X128196019Y-68879582D01*
X128250382Y-68900813D01*
X128299918Y-68928813D01*
X128313837Y-68938533D01*
X128356194Y-68974220D01*
X128392254Y-69014788D01*
X128422018Y-69060236D01*
X128427215Y-69069911D01*
X128448608Y-69120402D01*
X128462079Y-69174145D01*
X128467625Y-69231143D01*
X128467784Y-69242933D01*
G37*
G36*
X128456500Y-68687866D02*
G01*
X128323509Y-68687866D01*
X127815191Y-68306628D01*
X127767903Y-68275611D01*
X127724919Y-68255044D01*
X127671300Y-68239565D01*
X127636796Y-68236506D01*
X127635453Y-68236506D01*
X127580489Y-68244947D01*
X127533897Y-68274925D01*
X127506694Y-68321404D01*
X127497768Y-68375297D01*
X127497627Y-68384004D01*
X127505186Y-68437206D01*
X127532338Y-68486675D01*
X127537121Y-68492008D01*
X127581348Y-68523906D01*
X127635623Y-68540788D01*
X127648886Y-68542786D01*
X127649692Y-68542786D01*
X127649692Y-68701300D01*
X127648886Y-68701300D01*
X127590106Y-68689489D01*
X127537420Y-68671687D01*
X127484669Y-68644005D01*
X127439877Y-68608499D01*
X127429922Y-68598400D01*
X127395835Y-68554070D01*
X127371487Y-68503829D01*
X127356879Y-68447678D01*
X127352085Y-68393697D01*
X127352009Y-68385616D01*
X127355570Y-68324299D01*
X127366254Y-68269411D01*
X127387184Y-68214553D01*
X127417418Y-68168090D01*
X127426430Y-68157786D01*
X127467485Y-68122524D01*
X127516232Y-68097336D01*
X127572669Y-68082223D01*
X127628360Y-68077265D01*
X127636796Y-68077186D01*
X127637602Y-68077186D01*
X127693247Y-68082499D01*
X127747419Y-68097045D01*
X127759308Y-68101366D01*
X127809894Y-68123942D01*
X127858618Y-68152815D01*
X127880477Y-68168264D01*
X128310613Y-68484754D01*
X128310613Y-68071275D01*
X128456500Y-68071275D01*
X128456500Y-68687866D01*
G37*
G36*
X136692215Y-68505652D02*
G01*
X136695389Y-68450324D01*
X136706546Y-68392294D01*
X136725737Y-68338727D01*
X136742994Y-68305495D01*
X136774787Y-68260325D01*
X136813040Y-68221234D01*
X136857754Y-68188220D01*
X136885387Y-68172505D01*
X136939495Y-68149647D01*
X136991658Y-68135610D01*
X137047650Y-68127482D01*
X137099784Y-68125220D01*
X137399885Y-68125220D01*
X137459562Y-68128175D01*
X137515277Y-68137041D01*
X137567029Y-68151818D01*
X137614818Y-68172505D01*
X137663230Y-68202142D01*
X137705097Y-68237857D01*
X137740418Y-68279651D01*
X137757212Y-68305495D01*
X137781758Y-68356087D01*
X137798271Y-68411141D01*
X137806750Y-68470659D01*
X137807990Y-68505652D01*
X137804028Y-68563327D01*
X137792143Y-68617800D01*
X137772334Y-68669072D01*
X137767421Y-68678943D01*
X137738891Y-68725624D01*
X137704012Y-68767267D01*
X137662783Y-68803873D01*
X137653775Y-68810590D01*
X137605830Y-68840337D01*
X137553004Y-68863420D01*
X137501288Y-68878498D01*
X137483172Y-68882324D01*
X137483172Y-68725153D01*
X137535406Y-68704565D01*
X137575324Y-68677331D01*
X137614145Y-68636111D01*
X137636580Y-68598880D01*
X137654394Y-68547167D01*
X137658611Y-68505652D01*
X137652979Y-68452104D01*
X137633512Y-68399935D01*
X137600138Y-68355479D01*
X137587414Y-68343646D01*
X137538624Y-68311343D01*
X137487086Y-68292500D01*
X137428321Y-68283347D01*
X137399885Y-68282390D01*
X137099784Y-68282390D01*
X137044354Y-68286218D01*
X136988860Y-68299678D01*
X136935725Y-68325999D01*
X136912523Y-68343646D01*
X136875261Y-68385788D01*
X136851800Y-68435644D01*
X136842139Y-68493213D01*
X136841863Y-68505652D01*
X136849312Y-68562343D01*
X136869412Y-68612234D01*
X136886999Y-68640255D01*
X136926443Y-68681789D01*
X136972424Y-68709639D01*
X137017034Y-68725153D01*
X137017034Y-68882324D01*
X136963980Y-68869003D01*
X136909617Y-68847772D01*
X136860081Y-68819772D01*
X136846162Y-68810052D01*
X136803805Y-68774365D01*
X136767745Y-68733797D01*
X136737981Y-68688349D01*
X136732784Y-68678674D01*
X136711391Y-68628183D01*
X136697920Y-68574440D01*
X136692374Y-68517442D01*
X136692215Y-68505652D01*
G37*
G36*
X137796706Y-69341207D02*
G01*
X136703500Y-69341207D01*
X136703500Y-69187798D01*
X137629864Y-69187798D01*
X137534487Y-69032240D01*
X137693001Y-69032240D01*
X137796706Y-69187798D01*
X137796706Y-69341207D01*
G37*
G36*
X137796706Y-69852749D02*
G01*
X136703500Y-69852749D01*
X136703500Y-69699340D01*
X137629864Y-69699340D01*
X137534487Y-69543782D01*
X137693001Y-69543782D01*
X137796706Y-69699340D01*
X137796706Y-69852749D01*
G37*
G36*
X116424123Y-78686981D02*
G01*
X116278237Y-78686981D01*
X116278237Y-78314071D01*
X116269341Y-78260575D01*
X116240064Y-78214442D01*
X116231758Y-78206604D01*
X116185094Y-78178872D01*
X116131448Y-78167026D01*
X116108171Y-78166036D01*
X116050924Y-78172731D01*
X116000381Y-78194917D01*
X115985121Y-78206604D01*
X115951567Y-78250423D01*
X115938556Y-78305812D01*
X115938373Y-78314071D01*
X115938373Y-78686981D01*
X115792487Y-78686981D01*
X115792487Y-78319982D01*
X115796344Y-78262706D01*
X115807914Y-78210101D01*
X115829551Y-78157630D01*
X115831981Y-78153140D01*
X115862816Y-78107785D01*
X115901016Y-78069986D01*
X115942135Y-78042180D01*
X115993634Y-78019695D01*
X116050974Y-78006543D01*
X116108171Y-78002686D01*
X116165137Y-78006595D01*
X116222466Y-78019926D01*
X116274207Y-78042717D01*
X116319256Y-78073769D01*
X116356876Y-78112249D01*
X116384629Y-78153677D01*
X116407115Y-78205329D01*
X116420267Y-78262759D01*
X116424123Y-78319982D01*
X116424123Y-78686981D01*
G37*
G36*
X116886500Y-78753879D02*
G01*
X115792487Y-78753879D01*
X115792487Y-78600470D01*
X116886500Y-78600470D01*
X116886500Y-78753879D01*
G37*
G36*
X116886500Y-78138900D02*
G01*
X116390271Y-78389298D01*
X116355613Y-78236695D01*
X116886500Y-77956744D01*
X116886500Y-78138900D01*
G37*
G36*
X115793293Y-77207969D02*
G01*
X115930045Y-77207969D01*
X116886500Y-77490875D01*
X116886500Y-77653956D01*
X115938911Y-77371318D01*
X115938911Y-77649389D01*
X116096081Y-77649389D01*
X116096081Y-77802798D01*
X115793293Y-77802798D01*
X115793293Y-77207969D01*
G37*
G36*
X124743423Y-72137784D02*
G01*
X124688339Y-72135186D01*
X124627536Y-72125212D01*
X124572514Y-72107757D01*
X124523272Y-72082821D01*
X124479811Y-72050405D01*
X124460248Y-72031391D01*
X124426192Y-71988415D01*
X124399181Y-71939280D01*
X124379217Y-71883988D01*
X124366299Y-71822536D01*
X124360916Y-71766623D01*
X124360035Y-71731021D01*
X124360035Y-71033293D01*
X124513444Y-71033293D01*
X124513444Y-71736126D01*
X124517206Y-71792529D01*
X124530429Y-71847915D01*
X124556288Y-71899434D01*
X124573626Y-71921238D01*
X124616067Y-71955666D01*
X124668163Y-71977343D01*
X124723305Y-71985950D01*
X124743423Y-71986524D01*
X124801713Y-71981360D01*
X124857157Y-71963508D01*
X124902788Y-71932905D01*
X124914564Y-71921238D01*
X124946442Y-71874992D01*
X124965038Y-71824354D01*
X124974070Y-71765172D01*
X124975014Y-71736126D01*
X124975014Y-71033293D01*
X125128423Y-71033293D01*
X125128423Y-71731021D01*
X125125964Y-71789501D01*
X125118584Y-71843704D01*
X125103236Y-71903103D01*
X125080803Y-71956343D01*
X125051287Y-72003425D01*
X125027673Y-72031391D01*
X124986983Y-72067548D01*
X124940474Y-72096224D01*
X124888147Y-72117419D01*
X124830001Y-72131134D01*
X124766038Y-72137368D01*
X124743423Y-72137784D01*
G37*
G36*
X125625458Y-71033293D02*
G01*
X125625458Y-72126500D01*
X125472049Y-72126500D01*
X125472049Y-71200135D01*
X125316490Y-71295512D01*
X125316490Y-71136998D01*
X125472049Y-71033293D01*
X125625458Y-71033293D01*
G37*
G36*
X106202215Y-86205304D02*
G01*
X106206374Y-86147383D01*
X106218851Y-86092574D01*
X106237411Y-86045447D01*
X106265158Y-85998413D01*
X106303103Y-85954416D01*
X106336818Y-85926428D01*
X106427090Y-86051895D01*
X106385838Y-86087736D01*
X106369864Y-86112883D01*
X106353039Y-86164647D01*
X106349714Y-86205304D01*
X106356285Y-86262050D01*
X106378444Y-86313093D01*
X106405328Y-86343936D01*
X106453386Y-86374061D01*
X106508590Y-86389461D01*
X106561692Y-86393371D01*
X107306706Y-86393371D01*
X107306706Y-86546780D01*
X106560886Y-86546780D01*
X106499602Y-86543644D01*
X106443701Y-86534237D01*
X106385288Y-86515334D01*
X106334203Y-86487896D01*
X106296249Y-86457582D01*
X106259609Y-86415115D01*
X106231968Y-86365525D01*
X106213327Y-86308813D01*
X106204511Y-86254534D01*
X106202215Y-86205304D01*
G37*
G36*
X106637725Y-86896316D02*
G01*
X106783611Y-86896316D01*
X106783611Y-87245852D01*
X106792169Y-87302052D01*
X106820526Y-87351566D01*
X106835464Y-87366483D01*
X106882915Y-87396055D01*
X106936162Y-87409971D01*
X106971409Y-87412157D01*
X107026331Y-87406760D01*
X107077122Y-87388562D01*
X107108967Y-87366483D01*
X107144597Y-87321046D01*
X107159816Y-87268632D01*
X107161088Y-87245852D01*
X107161088Y-86896316D01*
X107306706Y-86896316D01*
X107306706Y-87240747D01*
X107303412Y-87294493D01*
X107292025Y-87349476D01*
X107270105Y-87404199D01*
X107265063Y-87413500D01*
X107232464Y-87460390D01*
X107191930Y-87499470D01*
X107148192Y-87528221D01*
X107098604Y-87549898D01*
X107043874Y-87563547D01*
X106990220Y-87568966D01*
X106971409Y-87569327D01*
X106916756Y-87566075D01*
X106860767Y-87554836D01*
X106809762Y-87535567D01*
X106795433Y-87528221D01*
X106747714Y-87496240D01*
X106707996Y-87456450D01*
X106678831Y-87413500D01*
X106655428Y-87359874D01*
X106642582Y-87305889D01*
X106637765Y-87246918D01*
X106637725Y-87240747D01*
X106637725Y-86896316D01*
G37*
G36*
X106213500Y-86817328D02*
G01*
X107306706Y-86817328D01*
X107306706Y-86970737D01*
X106213500Y-86970737D01*
X106213500Y-86817328D01*
G37*
G36*
X106214037Y-87663092D02*
G01*
X106214037Y-88288549D01*
X106068151Y-88288549D01*
X106068151Y-87663092D01*
X106214037Y-87663092D01*
G37*
G36*
X106213500Y-88341208D02*
G01*
X107306706Y-88744208D01*
X107306706Y-88875049D01*
X106213500Y-89278050D01*
X106213500Y-89112820D01*
X107095534Y-88809763D01*
X106213500Y-88506707D01*
X106213500Y-88341208D01*
G37*
G36*
X106453419Y-88526857D02*
G01*
X106599306Y-88526857D01*
X106599306Y-89102073D01*
X106453419Y-89102073D01*
X106453419Y-88526857D01*
G37*
G36*
X107070319Y-89363773D02*
G01*
X107124844Y-89375112D01*
X107179853Y-89397328D01*
X107227071Y-89429417D01*
X107237659Y-89438982D01*
X107273862Y-89483161D01*
X107299721Y-89536709D01*
X107313862Y-89591251D01*
X107320085Y-89652966D01*
X107320408Y-89671916D01*
X107317508Y-89727357D01*
X107306796Y-89785233D01*
X107288189Y-89835782D01*
X107257259Y-89884579D01*
X107237927Y-89905388D01*
X107192842Y-89939828D01*
X107139797Y-89964427D01*
X107086853Y-89977880D01*
X107027816Y-89983800D01*
X107009829Y-89984107D01*
X106512795Y-89984107D01*
X106452305Y-89980340D01*
X106397780Y-89969040D01*
X106342770Y-89946900D01*
X106295552Y-89914920D01*
X106284965Y-89905388D01*
X106248762Y-89861377D01*
X106222903Y-89807794D01*
X106208761Y-89753058D01*
X106202539Y-89690995D01*
X106202215Y-89671916D01*
X106348102Y-89671916D01*
X106354260Y-89728538D01*
X106377012Y-89777788D01*
X106391894Y-89793354D01*
X106440404Y-89820159D01*
X106494097Y-89830115D01*
X106512795Y-89830698D01*
X107009829Y-89830698D01*
X107067110Y-89824535D01*
X107119319Y-89802106D01*
X107130729Y-89793354D01*
X107162162Y-89748205D01*
X107173838Y-89692268D01*
X107174522Y-89671916D01*
X107168363Y-89615420D01*
X107145612Y-89566126D01*
X107130729Y-89550478D01*
X107082487Y-89523866D01*
X107028644Y-89513982D01*
X107009829Y-89513402D01*
X106512795Y-89513402D01*
X106455773Y-89519521D01*
X106403422Y-89541789D01*
X106391894Y-89550478D01*
X106360461Y-89595761D01*
X106348786Y-89651623D01*
X106348102Y-89671916D01*
X106202215Y-89671916D01*
X106205162Y-89616037D01*
X106216050Y-89557818D01*
X106234959Y-89507106D01*
X106266393Y-89458342D01*
X106286040Y-89437638D01*
X106331646Y-89403669D01*
X106384640Y-89379405D01*
X106437071Y-89366135D01*
X106495159Y-89360297D01*
X106512795Y-89359993D01*
X107009829Y-89359993D01*
X107070319Y-89363773D01*
G37*
G36*
X110561513Y-84973500D02*
G01*
X110561513Y-86066706D01*
X110408104Y-86066706D01*
X110408104Y-84973500D01*
X110561513Y-84973500D01*
G37*
G36*
X110484943Y-84973500D02*
G01*
X110484943Y-85119386D01*
X109859217Y-85119386D01*
X109859217Y-84973500D01*
X110484943Y-84973500D01*
G37*
G36*
X109437947Y-86066706D02*
G01*
X109437947Y-84973500D01*
X109591356Y-84973500D01*
X109591356Y-85899864D01*
X109746915Y-85804487D01*
X109746915Y-85963001D01*
X109591356Y-86066706D01*
X109437947Y-86066706D01*
G37*
G36*
X125156643Y-81207784D02*
G01*
X125098722Y-81203625D01*
X125043913Y-81191148D01*
X124996786Y-81172588D01*
X124949752Y-81144841D01*
X124905755Y-81106896D01*
X124877767Y-81073181D01*
X125003234Y-80982909D01*
X125039075Y-81024161D01*
X125064222Y-81040135D01*
X125115986Y-81056960D01*
X125156643Y-81060285D01*
X125213389Y-81053714D01*
X125264432Y-81031555D01*
X125295275Y-81004671D01*
X125325400Y-80956613D01*
X125340800Y-80901409D01*
X125344710Y-80848307D01*
X125344710Y-80103293D01*
X125498119Y-80103293D01*
X125498119Y-80849113D01*
X125494983Y-80910397D01*
X125485576Y-80966298D01*
X125466673Y-81024711D01*
X125439235Y-81075796D01*
X125408921Y-81113750D01*
X125366454Y-81150390D01*
X125316864Y-81178031D01*
X125260152Y-81196672D01*
X125205873Y-81205488D01*
X125156643Y-81207784D01*
G37*
G36*
X126009930Y-80103293D02*
G01*
X126009930Y-81196500D01*
X125856521Y-81196500D01*
X125856521Y-80270135D01*
X125700963Y-80365512D01*
X125700963Y-80206998D01*
X125856521Y-80103293D01*
X126009930Y-80103293D01*
G37*
G36*
X129952961Y-73175876D02*
G01*
X129952961Y-73321762D01*
X129580051Y-73321762D01*
X129526555Y-73330658D01*
X129480422Y-73359935D01*
X129472584Y-73368241D01*
X129444852Y-73414905D01*
X129433006Y-73468551D01*
X129432016Y-73491828D01*
X129438711Y-73549075D01*
X129460897Y-73599618D01*
X129472584Y-73614878D01*
X129516403Y-73648432D01*
X129571792Y-73661443D01*
X129580051Y-73661626D01*
X129952961Y-73661626D01*
X129952961Y-73807512D01*
X129585962Y-73807512D01*
X129528686Y-73803655D01*
X129476081Y-73792085D01*
X129423610Y-73770448D01*
X129419120Y-73768018D01*
X129373765Y-73737183D01*
X129335966Y-73698983D01*
X129308160Y-73657864D01*
X129285675Y-73606365D01*
X129272523Y-73549025D01*
X129268666Y-73491828D01*
X129272575Y-73434862D01*
X129285906Y-73377533D01*
X129308697Y-73325792D01*
X129339749Y-73280743D01*
X129378229Y-73243123D01*
X129419657Y-73215370D01*
X129471309Y-73192884D01*
X129528739Y-73179732D01*
X129585962Y-73175876D01*
X129952961Y-73175876D01*
G37*
G36*
X130019859Y-72713500D02*
G01*
X130019859Y-73807512D01*
X129866450Y-73807512D01*
X129866450Y-72713500D01*
X130019859Y-72713500D01*
G37*
G36*
X129404880Y-72713500D02*
G01*
X129655278Y-73209728D01*
X129502675Y-73244386D01*
X129222724Y-72713500D01*
X129404880Y-72713500D01*
G37*
G36*
X128774856Y-73806706D02*
G01*
X128774856Y-72713500D01*
X128928265Y-72713500D01*
X128928265Y-73639864D01*
X129083823Y-73544487D01*
X129083823Y-73703001D01*
X128928265Y-73806706D01*
X128774856Y-73806706D01*
G37*
G36*
X128543802Y-72713500D02*
G01*
X128543802Y-72846490D01*
X128162563Y-73354808D01*
X128131546Y-73402096D01*
X128110979Y-73445080D01*
X128095501Y-73498699D01*
X128092441Y-73533203D01*
X128092441Y-73534546D01*
X128100883Y-73589510D01*
X128130861Y-73636102D01*
X128177340Y-73663305D01*
X128231233Y-73672231D01*
X128239940Y-73672372D01*
X128293142Y-73664813D01*
X128342610Y-73637661D01*
X128347944Y-73632878D01*
X128379841Y-73588651D01*
X128396723Y-73534376D01*
X128398722Y-73521113D01*
X128398722Y-73520307D01*
X128557235Y-73520307D01*
X128557235Y-73521113D01*
X128545424Y-73579893D01*
X128527622Y-73632579D01*
X128499941Y-73685330D01*
X128464435Y-73730122D01*
X128454336Y-73740077D01*
X128410006Y-73774164D01*
X128359765Y-73798512D01*
X128303614Y-73813120D01*
X128249633Y-73817914D01*
X128241552Y-73817990D01*
X128180235Y-73814429D01*
X128125347Y-73803745D01*
X128070488Y-73782815D01*
X128024026Y-73752581D01*
X128013722Y-73743569D01*
X127978459Y-73702514D01*
X127953272Y-73653767D01*
X127938159Y-73597330D01*
X127933200Y-73541639D01*
X127933122Y-73533203D01*
X127933122Y-73532397D01*
X127938435Y-73476752D01*
X127952980Y-73422580D01*
X127957302Y-73410691D01*
X127979878Y-73360105D01*
X128008750Y-73311381D01*
X128024200Y-73289522D01*
X128340690Y-72859386D01*
X127927211Y-72859386D01*
X127927211Y-72713500D01*
X128543802Y-72713500D01*
G37*
G36*
X109478248Y-64456500D02*
G01*
X109478248Y-64310613D01*
X109725691Y-64310613D01*
X109782749Y-64306701D01*
X109838830Y-64292946D01*
X109891074Y-64266048D01*
X109913220Y-64248014D01*
X109948357Y-64203684D01*
X109970480Y-64149279D01*
X109979264Y-64091700D01*
X109979850Y-64070693D01*
X109979850Y-63748830D01*
X109975685Y-63694946D01*
X109961045Y-63641993D01*
X109932415Y-63592678D01*
X109913220Y-63571779D01*
X109866277Y-63538626D01*
X109814965Y-63519286D01*
X109755068Y-63509893D01*
X109725691Y-63508911D01*
X109478248Y-63508911D01*
X109478248Y-63363293D01*
X109721123Y-63363293D01*
X109780971Y-63365799D01*
X109836425Y-63373315D01*
X109897167Y-63388951D01*
X109951582Y-63411802D01*
X109999668Y-63441870D01*
X110028210Y-63465924D01*
X110065188Y-63507357D01*
X110094516Y-63554685D01*
X110116193Y-63607906D01*
X110130219Y-63667021D01*
X110136064Y-63720786D01*
X110137020Y-63755010D01*
X110137020Y-64064783D01*
X110133964Y-64124561D01*
X110124796Y-64179772D01*
X110107175Y-64236425D01*
X110088123Y-64276493D01*
X110057111Y-64322487D01*
X110019087Y-64361935D01*
X109974049Y-64394838D01*
X109945998Y-64410289D01*
X109890454Y-64432627D01*
X109835873Y-64446346D01*
X109776388Y-64454288D01*
X109720317Y-64456500D01*
X109478248Y-64456500D01*
G37*
G36*
X109374543Y-64456500D02*
G01*
X109374543Y-63363293D01*
X109527952Y-63363293D01*
X109527952Y-64456500D01*
X109374543Y-64456500D01*
G37*
G36*
X110625994Y-63363293D02*
G01*
X110625994Y-64456500D01*
X110472585Y-64456500D01*
X110472585Y-63530135D01*
X110317027Y-63625512D01*
X110317027Y-63466998D01*
X110472585Y-63363293D01*
X110625994Y-63363293D01*
G37*
G36*
X121532215Y-68629776D02*
G01*
X121535389Y-68574448D01*
X121546546Y-68516418D01*
X121565737Y-68462851D01*
X121582994Y-68429619D01*
X121614787Y-68384449D01*
X121653040Y-68345358D01*
X121697754Y-68312344D01*
X121725387Y-68296629D01*
X121779495Y-68273771D01*
X121831658Y-68259734D01*
X121887650Y-68251606D01*
X121939784Y-68249344D01*
X122239885Y-68249344D01*
X122299562Y-68252299D01*
X122355277Y-68261165D01*
X122407029Y-68275942D01*
X122454818Y-68296629D01*
X122503230Y-68326266D01*
X122545097Y-68361981D01*
X122580418Y-68403775D01*
X122597212Y-68429619D01*
X122621758Y-68480211D01*
X122638271Y-68535265D01*
X122646750Y-68594783D01*
X122647990Y-68629776D01*
X122644028Y-68687451D01*
X122632143Y-68741924D01*
X122612334Y-68793196D01*
X122607421Y-68803067D01*
X122578891Y-68849748D01*
X122544012Y-68891391D01*
X122502783Y-68927997D01*
X122493775Y-68934714D01*
X122445830Y-68964461D01*
X122393004Y-68987544D01*
X122341288Y-69002622D01*
X122323172Y-69006448D01*
X122323172Y-68849277D01*
X122375406Y-68828689D01*
X122415324Y-68801455D01*
X122454145Y-68760235D01*
X122476580Y-68723004D01*
X122494394Y-68671291D01*
X122498611Y-68629776D01*
X122492979Y-68576228D01*
X122473512Y-68524059D01*
X122440138Y-68479603D01*
X122427414Y-68467770D01*
X122378624Y-68435467D01*
X122327086Y-68416624D01*
X122268321Y-68407471D01*
X122239885Y-68406514D01*
X121939784Y-68406514D01*
X121884354Y-68410342D01*
X121828860Y-68423802D01*
X121775725Y-68450123D01*
X121752523Y-68467770D01*
X121715261Y-68509912D01*
X121691800Y-68559768D01*
X121682139Y-68617337D01*
X121681863Y-68629776D01*
X121689312Y-68686467D01*
X121709412Y-68736358D01*
X121726999Y-68764379D01*
X121766443Y-68805913D01*
X121812424Y-68833763D01*
X121857034Y-68849277D01*
X121857034Y-69006448D01*
X121803980Y-68993127D01*
X121749617Y-68971896D01*
X121700081Y-68943896D01*
X121686162Y-68934176D01*
X121643805Y-68898489D01*
X121607745Y-68857921D01*
X121577981Y-68812473D01*
X121572784Y-68802798D01*
X121551391Y-68752307D01*
X121537920Y-68698564D01*
X121532374Y-68641566D01*
X121532215Y-68629776D01*
G37*
G36*
X122636706Y-69766238D02*
G01*
X122499954Y-69766238D01*
X121543500Y-69483332D01*
X121543500Y-69320251D01*
X122491088Y-69602889D01*
X122491088Y-69324818D01*
X122333918Y-69324818D01*
X122333918Y-69171409D01*
X122636706Y-69171409D01*
X122636706Y-69766238D01*
G37*
G36*
X106579267Y-74307784D02*
G01*
X106523939Y-74304610D01*
X106465909Y-74293453D01*
X106412342Y-74274262D01*
X106379110Y-74257005D01*
X106333940Y-74225212D01*
X106294849Y-74186959D01*
X106261835Y-74142245D01*
X106246120Y-74114612D01*
X106223262Y-74060504D01*
X106209225Y-74008341D01*
X106201097Y-73952349D01*
X106198835Y-73900215D01*
X106198835Y-73600114D01*
X106201790Y-73540437D01*
X106210656Y-73484722D01*
X106225433Y-73432970D01*
X106246120Y-73385181D01*
X106275757Y-73336769D01*
X106311472Y-73294902D01*
X106353266Y-73259581D01*
X106379110Y-73242787D01*
X106429702Y-73218241D01*
X106484756Y-73201728D01*
X106544274Y-73193249D01*
X106579267Y-73192009D01*
X106636942Y-73195971D01*
X106691415Y-73207856D01*
X106742687Y-73227665D01*
X106752558Y-73232578D01*
X106799239Y-73261108D01*
X106840882Y-73295987D01*
X106877488Y-73337216D01*
X106884205Y-73346224D01*
X106913952Y-73394169D01*
X106937035Y-73446995D01*
X106952113Y-73498711D01*
X106955939Y-73516827D01*
X106798768Y-73516827D01*
X106778180Y-73464593D01*
X106750946Y-73424675D01*
X106709726Y-73385854D01*
X106672495Y-73363419D01*
X106620782Y-73345605D01*
X106579267Y-73341388D01*
X106525719Y-73347020D01*
X106473550Y-73366487D01*
X106429094Y-73399861D01*
X106417261Y-73412585D01*
X106384958Y-73461375D01*
X106366115Y-73512913D01*
X106356962Y-73571678D01*
X106356005Y-73600114D01*
X106356005Y-73900215D01*
X106359833Y-73955645D01*
X106373293Y-74011139D01*
X106399614Y-74064274D01*
X106417261Y-74087476D01*
X106459403Y-74124738D01*
X106509259Y-74148199D01*
X106566828Y-74157860D01*
X106579267Y-74158136D01*
X106635958Y-74150687D01*
X106685849Y-74130587D01*
X106713870Y-74113000D01*
X106755404Y-74073556D01*
X106783254Y-74027575D01*
X106798768Y-73982965D01*
X106955939Y-73982965D01*
X106942618Y-74036019D01*
X106921387Y-74090382D01*
X106893387Y-74139918D01*
X106883667Y-74153837D01*
X106847980Y-74196194D01*
X106807412Y-74232254D01*
X106761964Y-74262018D01*
X106752289Y-74267215D01*
X106701798Y-74288608D01*
X106648055Y-74302079D01*
X106591057Y-74307625D01*
X106579267Y-74307784D01*
G37*
G36*
X107135946Y-74128851D02*
G01*
X107135946Y-73995592D01*
X107502945Y-73203830D01*
X107660653Y-73203830D01*
X107302788Y-73986726D01*
X107839048Y-73986726D01*
X107839048Y-74128851D01*
X107135946Y-74128851D01*
G37*
G36*
X107607456Y-74297306D02*
G01*
X107607456Y-73653579D01*
X107757104Y-73653579D01*
X107757104Y-74297306D01*
X107607456Y-74297306D01*
G37*
G36*
X114307784Y-82377745D02*
G01*
X114304610Y-82433073D01*
X114293453Y-82491103D01*
X114274262Y-82544670D01*
X114257005Y-82577902D01*
X114225212Y-82623072D01*
X114186959Y-82662163D01*
X114142245Y-82695177D01*
X114114612Y-82710892D01*
X114060504Y-82733750D01*
X114008341Y-82747787D01*
X113952349Y-82755915D01*
X113900215Y-82758177D01*
X113600114Y-82758177D01*
X113540437Y-82755222D01*
X113484722Y-82746356D01*
X113432970Y-82731579D01*
X113385181Y-82710892D01*
X113336769Y-82681255D01*
X113294902Y-82645540D01*
X113259581Y-82603746D01*
X113242787Y-82577902D01*
X113218241Y-82527310D01*
X113201728Y-82472256D01*
X113193249Y-82412738D01*
X113192009Y-82377745D01*
X113195971Y-82320070D01*
X113207856Y-82265597D01*
X113227665Y-82214325D01*
X113232578Y-82204454D01*
X113261108Y-82157773D01*
X113295987Y-82116130D01*
X113337216Y-82079524D01*
X113346224Y-82072807D01*
X113394169Y-82043060D01*
X113446995Y-82019977D01*
X113498711Y-82004899D01*
X113516827Y-82001073D01*
X113516827Y-82158244D01*
X113464593Y-82178832D01*
X113424675Y-82206066D01*
X113385854Y-82247286D01*
X113363419Y-82284517D01*
X113345605Y-82336230D01*
X113341388Y-82377745D01*
X113347020Y-82431293D01*
X113366487Y-82483462D01*
X113399861Y-82527918D01*
X113412585Y-82539751D01*
X113461375Y-82572054D01*
X113512913Y-82590897D01*
X113571678Y-82600050D01*
X113600114Y-82601007D01*
X113900215Y-82601007D01*
X113955645Y-82597179D01*
X114011139Y-82583719D01*
X114064274Y-82557398D01*
X114087476Y-82539751D01*
X114124738Y-82497609D01*
X114148199Y-82447753D01*
X114157860Y-82390184D01*
X114158136Y-82377745D01*
X114150687Y-82321054D01*
X114130587Y-82271163D01*
X114113000Y-82243142D01*
X114073556Y-82201608D01*
X114027575Y-82173758D01*
X113982965Y-82158244D01*
X113982965Y-82001073D01*
X114036019Y-82014394D01*
X114090382Y-82035625D01*
X114139918Y-82063625D01*
X114153837Y-82073345D01*
X114196194Y-82109032D01*
X114232254Y-82149600D01*
X114262018Y-82195048D01*
X114267215Y-82204723D01*
X114288608Y-82255214D01*
X114302079Y-82308957D01*
X114307625Y-82365955D01*
X114307784Y-82377745D01*
G37*
G36*
X114030871Y-81221520D02*
G01*
X114091091Y-81231884D01*
X114144497Y-81249884D01*
X114197189Y-81279807D01*
X114220198Y-81298509D01*
X114258517Y-81342537D01*
X114285887Y-81394826D01*
X114300855Y-81447356D01*
X114307441Y-81506212D01*
X114307784Y-81524189D01*
X114303644Y-81584538D01*
X114291225Y-81638638D01*
X114266894Y-81692817D01*
X114231749Y-81738834D01*
X114221273Y-81749064D01*
X114173601Y-81783856D01*
X114124643Y-81806145D01*
X114068923Y-81820823D01*
X114006440Y-81827890D01*
X113977592Y-81828589D01*
X113976786Y-81828589D01*
X113922582Y-81825869D01*
X113865960Y-81817708D01*
X113826869Y-81809245D01*
X113773047Y-81793698D01*
X113720558Y-81774023D01*
X113673998Y-81752556D01*
X113203293Y-81515054D01*
X113203293Y-81349556D01*
X113678467Y-81592880D01*
X113654130Y-81545261D01*
X113652388Y-81531712D01*
X113794092Y-81531712D01*
X113803760Y-81585561D01*
X113835575Y-81630245D01*
X113844601Y-81637567D01*
X113896533Y-81663279D01*
X113953734Y-81673858D01*
X113986726Y-81675180D01*
X113987532Y-81675180D01*
X114044595Y-81669626D01*
X114097511Y-81649108D01*
X114115687Y-81635686D01*
X114147698Y-81591517D01*
X114159893Y-81537404D01*
X114160285Y-81524189D01*
X114152880Y-81469923D01*
X114125934Y-81421634D01*
X114115418Y-81411349D01*
X114068570Y-81384535D01*
X114011899Y-81373081D01*
X113986726Y-81372124D01*
X113985920Y-81372124D01*
X113927855Y-81377013D01*
X113875736Y-81393498D01*
X113844333Y-81413498D01*
X113809988Y-81456489D01*
X113795319Y-81508566D01*
X113794092Y-81531712D01*
X113652388Y-81531712D01*
X113646862Y-81488725D01*
X113652202Y-81428006D01*
X113668221Y-81374542D01*
X113699008Y-81323065D01*
X113732299Y-81289374D01*
X113779298Y-81258461D01*
X113835131Y-81236380D01*
X113891230Y-81224304D01*
X113954091Y-81218991D01*
X113973293Y-81218715D01*
X113973830Y-81218715D01*
X114030871Y-81221520D01*
G37*
G36*
X143385805Y-75692215D02*
G01*
X143441133Y-75695389D01*
X143499163Y-75706546D01*
X143552730Y-75725737D01*
X143585962Y-75742994D01*
X143631132Y-75774787D01*
X143670223Y-75813040D01*
X143703237Y-75857754D01*
X143718952Y-75885387D01*
X143741810Y-75939495D01*
X143755847Y-75991658D01*
X143763975Y-76047650D01*
X143766237Y-76099784D01*
X143766237Y-76399885D01*
X143763282Y-76459562D01*
X143754416Y-76515277D01*
X143739639Y-76567029D01*
X143718952Y-76614818D01*
X143689315Y-76663230D01*
X143653600Y-76705097D01*
X143611806Y-76740418D01*
X143585962Y-76757212D01*
X143535370Y-76781758D01*
X143480316Y-76798271D01*
X143420798Y-76806750D01*
X143385805Y-76807990D01*
X143328130Y-76804028D01*
X143273657Y-76792143D01*
X143222385Y-76772334D01*
X143212514Y-76767421D01*
X143165833Y-76738891D01*
X143124190Y-76704012D01*
X143087584Y-76662783D01*
X143080867Y-76653775D01*
X143051120Y-76605830D01*
X143028037Y-76553004D01*
X143012959Y-76501288D01*
X143009133Y-76483172D01*
X143166304Y-76483172D01*
X143186892Y-76535406D01*
X143214126Y-76575324D01*
X143255346Y-76614145D01*
X143292577Y-76636580D01*
X143344290Y-76654394D01*
X143385805Y-76658611D01*
X143439353Y-76652979D01*
X143491522Y-76633512D01*
X143535978Y-76600138D01*
X143547811Y-76587414D01*
X143580114Y-76538624D01*
X143598957Y-76487086D01*
X143608110Y-76428321D01*
X143609067Y-76399885D01*
X143609067Y-76099784D01*
X143605239Y-76044354D01*
X143591779Y-75988860D01*
X143565458Y-75935725D01*
X143547811Y-75912523D01*
X143505669Y-75875261D01*
X143455813Y-75851800D01*
X143398244Y-75842139D01*
X143385805Y-75841863D01*
X143329114Y-75849312D01*
X143279223Y-75869412D01*
X143251202Y-75886999D01*
X143209668Y-75926443D01*
X143181818Y-75972424D01*
X143166304Y-76017034D01*
X143009133Y-76017034D01*
X143022454Y-75963980D01*
X143043685Y-75909617D01*
X143071685Y-75860081D01*
X143081405Y-75846162D01*
X143117092Y-75803805D01*
X143157660Y-75767745D01*
X143203108Y-75737981D01*
X143212783Y-75732784D01*
X143263274Y-75711391D01*
X143317017Y-75697920D01*
X143374015Y-75692374D01*
X143385805Y-75692215D01*
G37*
G36*
X142538966Y-75692215D02*
G01*
X142594499Y-75695469D01*
X142650434Y-75706563D01*
X142700972Y-75725530D01*
X142749307Y-75754874D01*
X142789935Y-75792529D01*
X142812738Y-75822250D01*
X142839978Y-75873419D01*
X142857580Y-75927028D01*
X142866740Y-75975659D01*
X142710375Y-75975659D01*
X142694573Y-75921083D01*
X142660268Y-75876468D01*
X142654761Y-75872222D01*
X142603244Y-75847841D01*
X142547699Y-75839841D01*
X142538966Y-75839714D01*
X142482820Y-75846409D01*
X142432032Y-75870774D01*
X142421021Y-75880282D01*
X142390745Y-75925577D01*
X142379211Y-75980954D01*
X142378840Y-75994466D01*
X142378840Y-76027512D01*
X142384432Y-76083718D01*
X142405090Y-76136017D01*
X142418603Y-76154054D01*
X142463201Y-76186259D01*
X142518034Y-76198527D01*
X142531443Y-76198922D01*
X142608819Y-76198922D01*
X142608819Y-76344808D01*
X142531443Y-76344808D01*
X142477294Y-76353250D01*
X142431768Y-76383227D01*
X142404515Y-76432919D01*
X142396875Y-76487165D01*
X142396841Y-76491500D01*
X142396841Y-76525352D01*
X142405047Y-76579561D01*
X142434186Y-76625296D01*
X142482451Y-76652968D01*
X142539772Y-76660760D01*
X142593169Y-76652566D01*
X142637835Y-76627983D01*
X142671822Y-76585735D01*
X142691201Y-76533231D01*
X142693181Y-76524546D01*
X142848739Y-76524546D01*
X142835762Y-76580843D01*
X142814193Y-76637973D01*
X142785437Y-76687412D01*
X142749494Y-76729160D01*
X142744496Y-76733838D01*
X142701375Y-76766280D01*
X142652881Y-76789452D01*
X142599013Y-76803356D01*
X142539772Y-76807990D01*
X142480900Y-76804429D01*
X142428173Y-76793745D01*
X142375439Y-76772815D01*
X142330731Y-76742581D01*
X142320808Y-76733569D01*
X142283405Y-76686905D01*
X142260434Y-76637361D01*
X142247135Y-76580227D01*
X142243432Y-76524009D01*
X142243432Y-76505740D01*
X142248670Y-76451943D01*
X142266333Y-76399049D01*
X142287762Y-76363346D01*
X142326186Y-76322467D01*
X142374961Y-76290504D01*
X142413230Y-76274148D01*
X142361249Y-76257514D01*
X142313161Y-76227944D01*
X142274597Y-76186563D01*
X142246605Y-76134897D01*
X142231241Y-76080324D01*
X142225623Y-76025016D01*
X142225431Y-76011929D01*
X142225431Y-75993660D01*
X142229352Y-75933978D01*
X142241116Y-75880467D01*
X142264162Y-75826868D01*
X142297452Y-75781329D01*
X142307375Y-75771204D01*
X142352578Y-75736646D01*
X142406244Y-75711963D01*
X142460145Y-75698464D01*
X142520524Y-75692524D01*
X142538966Y-75692215D01*
G37*
G36*
X114692215Y-68584103D02*
G01*
X114695389Y-68528775D01*
X114706546Y-68470745D01*
X114725737Y-68417178D01*
X114742994Y-68383946D01*
X114774787Y-68338776D01*
X114813040Y-68299685D01*
X114857754Y-68266671D01*
X114885387Y-68250956D01*
X114939495Y-68228098D01*
X114991658Y-68214061D01*
X115047650Y-68205933D01*
X115099784Y-68203671D01*
X115399885Y-68203671D01*
X115459562Y-68206626D01*
X115515277Y-68215492D01*
X115567029Y-68230269D01*
X115614818Y-68250956D01*
X115663230Y-68280593D01*
X115705097Y-68316308D01*
X115740418Y-68358102D01*
X115757212Y-68383946D01*
X115781758Y-68434538D01*
X115798271Y-68489592D01*
X115806750Y-68549110D01*
X115807990Y-68584103D01*
X115804028Y-68641778D01*
X115792143Y-68696251D01*
X115772334Y-68747523D01*
X115767421Y-68757394D01*
X115738891Y-68804075D01*
X115704012Y-68845718D01*
X115662783Y-68882324D01*
X115653775Y-68889041D01*
X115605830Y-68918788D01*
X115553004Y-68941871D01*
X115501288Y-68956949D01*
X115483172Y-68960775D01*
X115483172Y-68803604D01*
X115535406Y-68783016D01*
X115575324Y-68755782D01*
X115614145Y-68714562D01*
X115636580Y-68677331D01*
X115654394Y-68625618D01*
X115658611Y-68584103D01*
X115652979Y-68530555D01*
X115633512Y-68478386D01*
X115600138Y-68433930D01*
X115587414Y-68422097D01*
X115538624Y-68389794D01*
X115487086Y-68370951D01*
X115428321Y-68361798D01*
X115399885Y-68360841D01*
X115099784Y-68360841D01*
X115044354Y-68364669D01*
X114988860Y-68378129D01*
X114935725Y-68404450D01*
X114912523Y-68422097D01*
X114875261Y-68464239D01*
X114851800Y-68514095D01*
X114842139Y-68571664D01*
X114841863Y-68584103D01*
X114849312Y-68640794D01*
X114869412Y-68690685D01*
X114886999Y-68718706D01*
X114926443Y-68760240D01*
X114972424Y-68788090D01*
X115017034Y-68803604D01*
X115017034Y-68960775D01*
X114963980Y-68947454D01*
X114909617Y-68926223D01*
X114860081Y-68898223D01*
X114846162Y-68888503D01*
X114803805Y-68852816D01*
X114767745Y-68812248D01*
X114737981Y-68766800D01*
X114732784Y-68757125D01*
X114711391Y-68706634D01*
X114697920Y-68652891D01*
X114692374Y-68595893D01*
X114692215Y-68584103D01*
G37*
G36*
X115069240Y-69149369D02*
G01*
X115122052Y-69163845D01*
X115168025Y-69185380D01*
X115213553Y-69216879D01*
X115253733Y-69258627D01*
X115277372Y-69294997D01*
X115310277Y-69249089D01*
X115353980Y-69211512D01*
X115368451Y-69202306D01*
X115418150Y-69179519D01*
X115473953Y-69167970D01*
X115494456Y-69167111D01*
X115520785Y-69167111D01*
X115575311Y-69171161D01*
X115631551Y-69185707D01*
X115681309Y-69210831D01*
X115724585Y-69246534D01*
X115729539Y-69251741D01*
X115763862Y-69297499D01*
X115788377Y-69350141D01*
X115803087Y-69409667D01*
X115807913Y-69467400D01*
X115807990Y-69476078D01*
X115804236Y-69534656D01*
X115792974Y-69587912D01*
X115770910Y-69642258D01*
X115739039Y-69689653D01*
X115729539Y-69700415D01*
X115687073Y-69737441D01*
X115638125Y-69763888D01*
X115582696Y-69779756D01*
X115528878Y-69784963D01*
X115520785Y-69785045D01*
X115494456Y-69785045D01*
X115440820Y-69779148D01*
X115389935Y-69761456D01*
X115367376Y-69749313D01*
X115323878Y-69716641D01*
X115287646Y-69672827D01*
X115277372Y-69655011D01*
X115244616Y-69703106D01*
X115201961Y-69743419D01*
X115168025Y-69765970D01*
X115117348Y-69789679D01*
X115064323Y-69803547D01*
X115014079Y-69807613D01*
X114996078Y-69807613D01*
X114940933Y-69803573D01*
X114885546Y-69789795D01*
X114835684Y-69766239D01*
X114792387Y-69734010D01*
X114756328Y-69693844D01*
X114729829Y-69650443D01*
X114708414Y-69596263D01*
X114696660Y-69541774D01*
X114692252Y-69482300D01*
X114692215Y-69476078D01*
X114839714Y-69476078D01*
X114846212Y-69532108D01*
X114867919Y-69582830D01*
X114885924Y-69605844D01*
X114931913Y-69639454D01*
X114984562Y-69653810D01*
X115007362Y-69655011D01*
X115017840Y-69655011D01*
X115074695Y-69646896D01*
X115124915Y-69620009D01*
X115140084Y-69605844D01*
X115170003Y-69560709D01*
X115184670Y-69505198D01*
X115186294Y-69476078D01*
X115333524Y-69476078D01*
X115342009Y-69532006D01*
X115369932Y-69580402D01*
X115377854Y-69588650D01*
X115425864Y-69619505D01*
X115481858Y-69631259D01*
X115495262Y-69631637D01*
X115505740Y-69631637D01*
X115561800Y-69623409D01*
X115610109Y-69596332D01*
X115618311Y-69588650D01*
X115648780Y-69542639D01*
X115660387Y-69488937D01*
X115660760Y-69476078D01*
X115652635Y-69420099D01*
X115625897Y-69371534D01*
X115618311Y-69363238D01*
X115572316Y-69332576D01*
X115518203Y-69320895D01*
X115505202Y-69320520D01*
X115493918Y-69320520D01*
X115439853Y-69327570D01*
X115389041Y-69353226D01*
X115377585Y-69363238D01*
X115345959Y-69409441D01*
X115333911Y-69463217D01*
X115333524Y-69476078D01*
X115186294Y-69476078D01*
X115179796Y-69420174D01*
X115158090Y-69369418D01*
X115140084Y-69346312D01*
X115093787Y-69312702D01*
X115040298Y-69298346D01*
X115017034Y-69297146D01*
X115005750Y-69297146D01*
X114949550Y-69305260D01*
X114900036Y-69332148D01*
X114885118Y-69346312D01*
X114855721Y-69391577D01*
X114841310Y-69447040D01*
X114839714Y-69476078D01*
X114692215Y-69476078D01*
X114695191Y-69421879D01*
X114705476Y-69366393D01*
X114725274Y-69311116D01*
X114729829Y-69301713D01*
X114759307Y-69254454D01*
X114796024Y-69215004D01*
X114835684Y-69185918D01*
X114885546Y-69162362D01*
X114940933Y-69148583D01*
X114996078Y-69144543D01*
X115014079Y-69144543D01*
X115069240Y-69149369D01*
G37*
G36*
X112424123Y-78718683D02*
G01*
X112278237Y-78718683D01*
X112278237Y-78345773D01*
X112269341Y-78292277D01*
X112240064Y-78246144D01*
X112231758Y-78238306D01*
X112185094Y-78210574D01*
X112131448Y-78198728D01*
X112108171Y-78197738D01*
X112050924Y-78204433D01*
X112000381Y-78226619D01*
X111985121Y-78238306D01*
X111951567Y-78282125D01*
X111938556Y-78337514D01*
X111938373Y-78345773D01*
X111938373Y-78718683D01*
X111792487Y-78718683D01*
X111792487Y-78351684D01*
X111796344Y-78294408D01*
X111807914Y-78241803D01*
X111829551Y-78189332D01*
X111831981Y-78184842D01*
X111862816Y-78139487D01*
X111901016Y-78101688D01*
X111942135Y-78073882D01*
X111993634Y-78051397D01*
X112050974Y-78038245D01*
X112108171Y-78034388D01*
X112165137Y-78038297D01*
X112222466Y-78051628D01*
X112274207Y-78074419D01*
X112319256Y-78105471D01*
X112356876Y-78143951D01*
X112384629Y-78185379D01*
X112407115Y-78237031D01*
X112420267Y-78294461D01*
X112424123Y-78351684D01*
X112424123Y-78718683D01*
G37*
G36*
X112886500Y-78785581D02*
G01*
X111792487Y-78785581D01*
X111792487Y-78632172D01*
X112886500Y-78632172D01*
X112886500Y-78785581D01*
G37*
G36*
X112886500Y-78170602D02*
G01*
X112390271Y-78421000D01*
X112355613Y-78268397D01*
X112886500Y-77988446D01*
X112886500Y-78170602D01*
G37*
G36*
X112897784Y-77499203D02*
G01*
X112893300Y-77558763D01*
X112879850Y-77612782D01*
X112854000Y-77666930D01*
X112826049Y-77704196D01*
X112786371Y-77740483D01*
X112739337Y-77769281D01*
X112684949Y-77790589D01*
X112631326Y-77803091D01*
X112623206Y-77804409D01*
X112622668Y-77804409D01*
X112622668Y-77651000D01*
X112623206Y-77651000D01*
X112676738Y-77634813D01*
X112716971Y-77602909D01*
X112742965Y-77553836D01*
X112750285Y-77499203D01*
X112742171Y-77444889D01*
X112712642Y-77395884D01*
X112701119Y-77385288D01*
X112650385Y-77357739D01*
X112594620Y-77346405D01*
X112562487Y-77344988D01*
X112470603Y-77344988D01*
X112413889Y-77349750D01*
X112359223Y-77367657D01*
X112332239Y-77385288D01*
X112297142Y-77430390D01*
X112283772Y-77485693D01*
X112283342Y-77499203D01*
X112294009Y-77552480D01*
X112305910Y-77575773D01*
X112341151Y-77618319D01*
X112369047Y-77640522D01*
X112369047Y-77780498D01*
X111793293Y-77780498D01*
X111793293Y-77223282D01*
X111938911Y-77223282D01*
X111938911Y-77627089D01*
X112185010Y-77627089D01*
X112155994Y-77580341D01*
X112149008Y-77563146D01*
X112136918Y-77509194D01*
X112136112Y-77490874D01*
X112140303Y-77431440D01*
X112152877Y-77378203D01*
X112177510Y-77324948D01*
X112213092Y-77279787D01*
X112223698Y-77269761D01*
X112271974Y-77235557D01*
X112321571Y-77213644D01*
X112378033Y-77199214D01*
X112431894Y-77192801D01*
X112470603Y-77191579D01*
X112562487Y-77191579D01*
X112619984Y-77194413D01*
X112680617Y-77204881D01*
X112734308Y-77223064D01*
X112787168Y-77253289D01*
X112810198Y-77272179D01*
X112848517Y-77316493D01*
X112875887Y-77369101D01*
X112890855Y-77421938D01*
X112897441Y-77481126D01*
X112897784Y-77499203D01*
G37*
G36*
X131006568Y-60411252D02*
G01*
X130903411Y-60308095D01*
X131167098Y-60044408D01*
X131198635Y-60000290D01*
X131210554Y-59946968D01*
X131210223Y-59935552D01*
X131196836Y-59882945D01*
X131167280Y-59836636D01*
X131151520Y-59819476D01*
X131106306Y-59783731D01*
X131054879Y-59763679D01*
X131035825Y-59761153D01*
X130981114Y-59768411D01*
X130932748Y-59798377D01*
X130926778Y-59804088D01*
X130663091Y-60067775D01*
X130559934Y-59964618D01*
X130819442Y-59705110D01*
X130862669Y-59667338D01*
X130908048Y-59638322D01*
X130960451Y-59616518D01*
X130965344Y-59615062D01*
X131019218Y-59604795D01*
X131072957Y-59605078D01*
X131121694Y-59614492D01*
X131174009Y-59635007D01*
X131223855Y-59666254D01*
X131267026Y-59703971D01*
X131304543Y-59747016D01*
X131335654Y-59796980D01*
X131356125Y-59849682D01*
X131366023Y-59903493D01*
X131365414Y-59957304D01*
X131355745Y-60006223D01*
X131335121Y-60058646D01*
X131303812Y-60108555D01*
X131266076Y-60151745D01*
X131006568Y-60411252D01*
G37*
G36*
X131286214Y-60785506D02*
G01*
X130512630Y-60011922D01*
X130621106Y-59903446D01*
X131394690Y-60677029D01*
X131286214Y-60785506D01*
G37*
G36*
X131721069Y-60350650D02*
G01*
X131193125Y-60176822D01*
X131276525Y-60044408D01*
X131849873Y-60221846D01*
X131721069Y-60350650D01*
G37*
G36*
X131393550Y-59132142D02*
G01*
X132166564Y-59905155D01*
X132058087Y-60013632D01*
X131403049Y-59358594D01*
X131360494Y-59536031D01*
X131248408Y-59423945D01*
X131285074Y-59240618D01*
X131393550Y-59132142D01*
G37*
G36*
X132212538Y-59622091D02*
G01*
X132118310Y-59527862D01*
X131817957Y-58708494D01*
X131929474Y-58596978D01*
X132230016Y-59403618D01*
X132609209Y-59024425D01*
X132709706Y-59124923D01*
X132212538Y-59622091D01*
G37*
G36*
X132665062Y-59407797D02*
G01*
X132209879Y-58952614D01*
X132315695Y-58846797D01*
X132770879Y-59301981D01*
X132665062Y-59407797D01*
G37*
G36*
X134307784Y-82401925D02*
G01*
X134304610Y-82457253D01*
X134293453Y-82515283D01*
X134274262Y-82568850D01*
X134257005Y-82602082D01*
X134225212Y-82647252D01*
X134186959Y-82686343D01*
X134142245Y-82719357D01*
X134114612Y-82735072D01*
X134060504Y-82757930D01*
X134008341Y-82771967D01*
X133952349Y-82780095D01*
X133900215Y-82782357D01*
X133600114Y-82782357D01*
X133540437Y-82779402D01*
X133484722Y-82770536D01*
X133432970Y-82755759D01*
X133385181Y-82735072D01*
X133336769Y-82705435D01*
X133294902Y-82669720D01*
X133259581Y-82627926D01*
X133242787Y-82602082D01*
X133218241Y-82551490D01*
X133201728Y-82496436D01*
X133193249Y-82436918D01*
X133192009Y-82401925D01*
X133195971Y-82344250D01*
X133207856Y-82289777D01*
X133227665Y-82238505D01*
X133232578Y-82228634D01*
X133261108Y-82181953D01*
X133295987Y-82140310D01*
X133337216Y-82103704D01*
X133346224Y-82096987D01*
X133394169Y-82067240D01*
X133446995Y-82044157D01*
X133498711Y-82029079D01*
X133516827Y-82025253D01*
X133516827Y-82182424D01*
X133464593Y-82203012D01*
X133424675Y-82230246D01*
X133385854Y-82271466D01*
X133363419Y-82308697D01*
X133345605Y-82360410D01*
X133341388Y-82401925D01*
X133347020Y-82455473D01*
X133366487Y-82507642D01*
X133399861Y-82552098D01*
X133412585Y-82563931D01*
X133461375Y-82596234D01*
X133512913Y-82615077D01*
X133571678Y-82624230D01*
X133600114Y-82625187D01*
X133900215Y-82625187D01*
X133955645Y-82621359D01*
X134011139Y-82607899D01*
X134064274Y-82581578D01*
X134087476Y-82563931D01*
X134124738Y-82521789D01*
X134148199Y-82471933D01*
X134157860Y-82414364D01*
X134158136Y-82401925D01*
X134150687Y-82345234D01*
X134130587Y-82295343D01*
X134113000Y-82267322D01*
X134073556Y-82225788D01*
X134027575Y-82197938D01*
X133982965Y-82182424D01*
X133982965Y-82025253D01*
X134036019Y-82038574D01*
X134090382Y-82059805D01*
X134139918Y-82087805D01*
X134153837Y-82097525D01*
X134196194Y-82133212D01*
X134232254Y-82173780D01*
X134262018Y-82219228D01*
X134267215Y-82228903D01*
X134288608Y-82279394D01*
X134302079Y-82333137D01*
X134307625Y-82390135D01*
X134307784Y-82401925D01*
G37*
G36*
X134307784Y-81524995D02*
G01*
X134303300Y-81584555D01*
X134289850Y-81638574D01*
X134264000Y-81692722D01*
X134236049Y-81729988D01*
X134196371Y-81766275D01*
X134149337Y-81795073D01*
X134094949Y-81816381D01*
X134041326Y-81828883D01*
X134033206Y-81830201D01*
X134032668Y-81830201D01*
X134032668Y-81676792D01*
X134033206Y-81676792D01*
X134086738Y-81660605D01*
X134126971Y-81628701D01*
X134152965Y-81579628D01*
X134160285Y-81524995D01*
X134152171Y-81470681D01*
X134122642Y-81421676D01*
X134111119Y-81411080D01*
X134060385Y-81383531D01*
X134004620Y-81372197D01*
X133972487Y-81370780D01*
X133880603Y-81370780D01*
X133823889Y-81375542D01*
X133769223Y-81393449D01*
X133742239Y-81411080D01*
X133707142Y-81456182D01*
X133693772Y-81511485D01*
X133693342Y-81524995D01*
X133704009Y-81578272D01*
X133715910Y-81601565D01*
X133751151Y-81644111D01*
X133779047Y-81666314D01*
X133779047Y-81806290D01*
X133203293Y-81806290D01*
X133203293Y-81249074D01*
X133348911Y-81249074D01*
X133348911Y-81652881D01*
X133595010Y-81652881D01*
X133565994Y-81606133D01*
X133559008Y-81588938D01*
X133546918Y-81534986D01*
X133546112Y-81516666D01*
X133550303Y-81457233D01*
X133562877Y-81403995D01*
X133587510Y-81350740D01*
X133623092Y-81305579D01*
X133633698Y-81295553D01*
X133681974Y-81261349D01*
X133731571Y-81239436D01*
X133788033Y-81225006D01*
X133841894Y-81218593D01*
X133880603Y-81217371D01*
X133972487Y-81217371D01*
X134029984Y-81220205D01*
X134090617Y-81230673D01*
X134144308Y-81248856D01*
X134197168Y-81279081D01*
X134220198Y-81297971D01*
X134258517Y-81342285D01*
X134285887Y-81394893D01*
X134300855Y-81447730D01*
X134307441Y-81506918D01*
X134307784Y-81524995D01*
G37*
G36*
X140424123Y-72555334D02*
G01*
X140278237Y-72555334D01*
X140278237Y-72182424D01*
X140269341Y-72128928D01*
X140240064Y-72082795D01*
X140231758Y-72074957D01*
X140185094Y-72047225D01*
X140131448Y-72035379D01*
X140108171Y-72034389D01*
X140050924Y-72041084D01*
X140000381Y-72063270D01*
X139985121Y-72074957D01*
X139951567Y-72118776D01*
X139938556Y-72174165D01*
X139938373Y-72182424D01*
X139938373Y-72555334D01*
X139792487Y-72555334D01*
X139792487Y-72188335D01*
X139796344Y-72131059D01*
X139807914Y-72078454D01*
X139829551Y-72025983D01*
X139831981Y-72021493D01*
X139862816Y-71976138D01*
X139901016Y-71938339D01*
X139942135Y-71910533D01*
X139993634Y-71888048D01*
X140050974Y-71874896D01*
X140108171Y-71871039D01*
X140165137Y-71874948D01*
X140222466Y-71888279D01*
X140274207Y-71911070D01*
X140319256Y-71942122D01*
X140356876Y-71980602D01*
X140384629Y-72022030D01*
X140407115Y-72073682D01*
X140420267Y-72131112D01*
X140424123Y-72188335D01*
X140424123Y-72555334D01*
G37*
G36*
X140886500Y-72622232D02*
G01*
X139792487Y-72622232D01*
X139792487Y-72468823D01*
X140886500Y-72468823D01*
X140886500Y-72622232D01*
G37*
G36*
X140886500Y-72007253D02*
G01*
X140390271Y-72257651D01*
X140355613Y-72105048D01*
X140886500Y-71825097D01*
X140886500Y-72007253D01*
G37*
G36*
X139793293Y-71377229D02*
G01*
X140886500Y-71377229D01*
X140886500Y-71530638D01*
X139960135Y-71530638D01*
X140055512Y-71686196D01*
X139896998Y-71686196D01*
X139793293Y-71530638D01*
X139793293Y-71377229D01*
G37*
G36*
X140424123Y-78697190D02*
G01*
X140278237Y-78697190D01*
X140278237Y-78324280D01*
X140269341Y-78270784D01*
X140240064Y-78224651D01*
X140231758Y-78216813D01*
X140185094Y-78189081D01*
X140131448Y-78177235D01*
X140108171Y-78176245D01*
X140050924Y-78182940D01*
X140000381Y-78205126D01*
X139985121Y-78216813D01*
X139951567Y-78260632D01*
X139938556Y-78316021D01*
X139938373Y-78324280D01*
X139938373Y-78697190D01*
X139792487Y-78697190D01*
X139792487Y-78330191D01*
X139796344Y-78272915D01*
X139807914Y-78220310D01*
X139829551Y-78167839D01*
X139831981Y-78163349D01*
X139862816Y-78117994D01*
X139901016Y-78080195D01*
X139942135Y-78052389D01*
X139993634Y-78029904D01*
X140050974Y-78016752D01*
X140108171Y-78012895D01*
X140165137Y-78016804D01*
X140222466Y-78030135D01*
X140274207Y-78052926D01*
X140319256Y-78083978D01*
X140356876Y-78122458D01*
X140384629Y-78163886D01*
X140407115Y-78215538D01*
X140420267Y-78272968D01*
X140424123Y-78330191D01*
X140424123Y-78697190D01*
G37*
G36*
X140886500Y-78764088D02*
G01*
X139792487Y-78764088D01*
X139792487Y-78610679D01*
X140886500Y-78610679D01*
X140886500Y-78764088D01*
G37*
G36*
X140886500Y-78149109D02*
G01*
X140390271Y-78399507D01*
X140355613Y-78246904D01*
X140886500Y-77966953D01*
X140886500Y-78149109D01*
G37*
G36*
X140886500Y-77799573D02*
G01*
X140753509Y-77799573D01*
X140245191Y-77418335D01*
X140197903Y-77387318D01*
X140154919Y-77366751D01*
X140101300Y-77351272D01*
X140066796Y-77348212D01*
X140065453Y-77348212D01*
X140010489Y-77356654D01*
X139963897Y-77386632D01*
X139936694Y-77433111D01*
X139927768Y-77487004D01*
X139927627Y-77495711D01*
X139935186Y-77548913D01*
X139962338Y-77598381D01*
X139967121Y-77603715D01*
X140011348Y-77635613D01*
X140065623Y-77652495D01*
X140078886Y-77654493D01*
X140079692Y-77654493D01*
X140079692Y-77813007D01*
X140078886Y-77813007D01*
X140020106Y-77801195D01*
X139967420Y-77783393D01*
X139914669Y-77755712D01*
X139869877Y-77720206D01*
X139859922Y-77710107D01*
X139825835Y-77665777D01*
X139801487Y-77615536D01*
X139786879Y-77559385D01*
X139782085Y-77505404D01*
X139782009Y-77497323D01*
X139785570Y-77436006D01*
X139796254Y-77381118D01*
X139817184Y-77326259D01*
X139847418Y-77279797D01*
X139856430Y-77269493D01*
X139897485Y-77234230D01*
X139946232Y-77209043D01*
X140002669Y-77193930D01*
X140058360Y-77188972D01*
X140066796Y-77188893D01*
X140067602Y-77188893D01*
X140123247Y-77194206D01*
X140177419Y-77208752D01*
X140189308Y-77213073D01*
X140239894Y-77235649D01*
X140288618Y-77264522D01*
X140310477Y-77279971D01*
X140740613Y-77596461D01*
X140740613Y-77182982D01*
X140886500Y-77182982D01*
X140886500Y-77799573D01*
G37*
G36*
X126897784Y-62238576D02*
G01*
X126894610Y-62293904D01*
X126883453Y-62351934D01*
X126864262Y-62405501D01*
X126847005Y-62438733D01*
X126815212Y-62483903D01*
X126776959Y-62522994D01*
X126732245Y-62556008D01*
X126704612Y-62571723D01*
X126650504Y-62594581D01*
X126598341Y-62608618D01*
X126542349Y-62616746D01*
X126490215Y-62619008D01*
X126190114Y-62619008D01*
X126130437Y-62616053D01*
X126074722Y-62607187D01*
X126022970Y-62592410D01*
X125975181Y-62571723D01*
X125926769Y-62542086D01*
X125884902Y-62506371D01*
X125849581Y-62464577D01*
X125832787Y-62438733D01*
X125808241Y-62388141D01*
X125791728Y-62333087D01*
X125783249Y-62273569D01*
X125782009Y-62238576D01*
X125785971Y-62180901D01*
X125797856Y-62126428D01*
X125817665Y-62075156D01*
X125822578Y-62065285D01*
X125851108Y-62018604D01*
X125885987Y-61976961D01*
X125927216Y-61940355D01*
X125936224Y-61933638D01*
X125984169Y-61903891D01*
X126036995Y-61880808D01*
X126088711Y-61865730D01*
X126106827Y-61861904D01*
X126106827Y-62019075D01*
X126054593Y-62039663D01*
X126014675Y-62066897D01*
X125975854Y-62108117D01*
X125953419Y-62145348D01*
X125935605Y-62197061D01*
X125931388Y-62238576D01*
X125937020Y-62292124D01*
X125956487Y-62344293D01*
X125989861Y-62388749D01*
X126002585Y-62400582D01*
X126051375Y-62432885D01*
X126102913Y-62451728D01*
X126161678Y-62460881D01*
X126190114Y-62461838D01*
X126490215Y-62461838D01*
X126545645Y-62458010D01*
X126601139Y-62444550D01*
X126654274Y-62418229D01*
X126677476Y-62400582D01*
X126714738Y-62358440D01*
X126738199Y-62308584D01*
X126747860Y-62251015D01*
X126748136Y-62238576D01*
X126740687Y-62181885D01*
X126720587Y-62131994D01*
X126703000Y-62103973D01*
X126663556Y-62062439D01*
X126617575Y-62034589D01*
X126572965Y-62019075D01*
X126572965Y-61861904D01*
X126626019Y-61875225D01*
X126680382Y-61896456D01*
X126729918Y-61924456D01*
X126743837Y-61934176D01*
X126786194Y-61969863D01*
X126822254Y-62010431D01*
X126852018Y-62055879D01*
X126857215Y-62065554D01*
X126878608Y-62116045D01*
X126892079Y-62169788D01*
X126897625Y-62226786D01*
X126897784Y-62238576D01*
G37*
G36*
X125793293Y-61403021D02*
G01*
X126886500Y-61403021D01*
X126886500Y-61556430D01*
X125960135Y-61556430D01*
X126055512Y-61711988D01*
X125896998Y-61711988D01*
X125793293Y-61556430D01*
X125793293Y-61403021D01*
G37*
G36*
X133979828Y-73175876D02*
G01*
X133979828Y-73321762D01*
X133606918Y-73321762D01*
X133553422Y-73330658D01*
X133507289Y-73359935D01*
X133499451Y-73368241D01*
X133471719Y-73414905D01*
X133459873Y-73468551D01*
X133458883Y-73491828D01*
X133465578Y-73549075D01*
X133487764Y-73599618D01*
X133499451Y-73614878D01*
X133543270Y-73648432D01*
X133598659Y-73661443D01*
X133606918Y-73661626D01*
X133979828Y-73661626D01*
X133979828Y-73807512D01*
X133612829Y-73807512D01*
X133555553Y-73803655D01*
X133502948Y-73792085D01*
X133450477Y-73770448D01*
X133445987Y-73768018D01*
X133400632Y-73737183D01*
X133362833Y-73698983D01*
X133335027Y-73657864D01*
X133312542Y-73606365D01*
X133299390Y-73549025D01*
X133295533Y-73491828D01*
X133299442Y-73434862D01*
X133312773Y-73377533D01*
X133335564Y-73325792D01*
X133366616Y-73280743D01*
X133405096Y-73243123D01*
X133446524Y-73215370D01*
X133498176Y-73192884D01*
X133555606Y-73179732D01*
X133612829Y-73175876D01*
X133979828Y-73175876D01*
G37*
G36*
X134046726Y-72713500D02*
G01*
X134046726Y-73807512D01*
X133893317Y-73807512D01*
X133893317Y-72713500D01*
X134046726Y-72713500D01*
G37*
G36*
X133431747Y-72713500D02*
G01*
X133682145Y-73209728D01*
X133529542Y-73244386D01*
X133249591Y-72713500D01*
X133431747Y-72713500D01*
G37*
G36*
X132801723Y-73806706D02*
G01*
X132801723Y-72713500D01*
X132955132Y-72713500D01*
X132955132Y-73639864D01*
X133110690Y-73544487D01*
X133110690Y-73703001D01*
X132955132Y-73806706D01*
X132801723Y-73806706D01*
G37*
G36*
X132297968Y-72705162D02*
G01*
X132356188Y-72716050D01*
X132406900Y-72734959D01*
X132455663Y-72766393D01*
X132476367Y-72786040D01*
X132510336Y-72831646D01*
X132534600Y-72884640D01*
X132547870Y-72937071D01*
X132553708Y-72995159D01*
X132554012Y-73012795D01*
X132554012Y-73509829D01*
X132550232Y-73570319D01*
X132538893Y-73624844D01*
X132516677Y-73679853D01*
X132484589Y-73727071D01*
X132475024Y-73737659D01*
X132430845Y-73773862D01*
X132377296Y-73799721D01*
X132322755Y-73813862D01*
X132261040Y-73820085D01*
X132242089Y-73820408D01*
X132186648Y-73817508D01*
X132128772Y-73806796D01*
X132078223Y-73788189D01*
X132029427Y-73757259D01*
X132008617Y-73737927D01*
X131974178Y-73692842D01*
X131949578Y-73639797D01*
X131936125Y-73586853D01*
X131930205Y-73527816D01*
X131929898Y-73509829D01*
X131929898Y-73012795D01*
X132083307Y-73012795D01*
X132083307Y-73509829D01*
X132089470Y-73567110D01*
X132111899Y-73619319D01*
X132120652Y-73630729D01*
X132165800Y-73662162D01*
X132221738Y-73673838D01*
X132242089Y-73674522D01*
X132298585Y-73668363D01*
X132347879Y-73645612D01*
X132363527Y-73630729D01*
X132390139Y-73582487D01*
X132400023Y-73528644D01*
X132400603Y-73509829D01*
X132400603Y-73012795D01*
X132394484Y-72955773D01*
X132372216Y-72903422D01*
X132363527Y-72891894D01*
X132318244Y-72860461D01*
X132262382Y-72848786D01*
X132242089Y-72848102D01*
X132185468Y-72854260D01*
X132136217Y-72877012D01*
X132120652Y-72891894D01*
X132093847Y-72940404D01*
X132083890Y-72994097D01*
X132083307Y-73012795D01*
X131929898Y-73012795D01*
X131933665Y-72952305D01*
X131944965Y-72897780D01*
X131967105Y-72842770D01*
X131999085Y-72795552D01*
X132008617Y-72784965D01*
X132052628Y-72748762D01*
X132106211Y-72722903D01*
X132160947Y-72708761D01*
X132223011Y-72702539D01*
X132242089Y-72702215D01*
X132297968Y-72705162D01*
G37*
G36*
X112435876Y-71437509D02*
G01*
X112581762Y-71437509D01*
X112581762Y-71810419D01*
X112590658Y-71863915D01*
X112619935Y-71910048D01*
X112628241Y-71917886D01*
X112674905Y-71945618D01*
X112728551Y-71957464D01*
X112751828Y-71958454D01*
X112809075Y-71951759D01*
X112859618Y-71929573D01*
X112874878Y-71917886D01*
X112908432Y-71874067D01*
X112921443Y-71818678D01*
X112921626Y-71810419D01*
X112921626Y-71437509D01*
X113067512Y-71437509D01*
X113067512Y-71804508D01*
X113063655Y-71861784D01*
X113052085Y-71914389D01*
X113030448Y-71966860D01*
X113028018Y-71971350D01*
X112997183Y-72016705D01*
X112958983Y-72054504D01*
X112917864Y-72082310D01*
X112866365Y-72104795D01*
X112809025Y-72117947D01*
X112751828Y-72121804D01*
X112694862Y-72117895D01*
X112637533Y-72104564D01*
X112585792Y-72081773D01*
X112540743Y-72050721D01*
X112503123Y-72012241D01*
X112475370Y-71970813D01*
X112452884Y-71919161D01*
X112439732Y-71861731D01*
X112435876Y-71804508D01*
X112435876Y-71437509D01*
G37*
G36*
X111973500Y-71370611D02*
G01*
X113067512Y-71370611D01*
X113067512Y-71524020D01*
X111973500Y-71524020D01*
X111973500Y-71370611D01*
G37*
G36*
X111973500Y-71985590D02*
G01*
X112469728Y-71735192D01*
X112504386Y-71887795D01*
X111973500Y-72167746D01*
X111973500Y-71985590D01*
G37*
G36*
X112141148Y-72336738D02*
G01*
X112274407Y-72336738D01*
X113066169Y-72703737D01*
X113066169Y-72861445D01*
X112283273Y-72503580D01*
X112283273Y-73039840D01*
X112141148Y-73039840D01*
X112141148Y-72336738D01*
G37*
G36*
X111972693Y-72808249D02*
G01*
X112616420Y-72808249D01*
X112616420Y-72957896D01*
X111972693Y-72957896D01*
X111972693Y-72808249D01*
G37*
G36*
X116389216Y-62971394D02*
G01*
X116286058Y-63074551D01*
X116022371Y-62810864D01*
X115978253Y-62779327D01*
X115924931Y-62767408D01*
X115913515Y-62767739D01*
X115860908Y-62781126D01*
X115814599Y-62810682D01*
X115797439Y-62826442D01*
X115761694Y-62871656D01*
X115741642Y-62923083D01*
X115739116Y-62942137D01*
X115746374Y-62996848D01*
X115776340Y-63045214D01*
X115782051Y-63051184D01*
X116045738Y-63314871D01*
X115942581Y-63418028D01*
X115683073Y-63158520D01*
X115645301Y-63115293D01*
X115616285Y-63069914D01*
X115594481Y-63017511D01*
X115593025Y-63012618D01*
X115582758Y-62958744D01*
X115583041Y-62905005D01*
X115592455Y-62856268D01*
X115612970Y-62803953D01*
X115644217Y-62754107D01*
X115681934Y-62710936D01*
X115724979Y-62673419D01*
X115774943Y-62642308D01*
X115827645Y-62621837D01*
X115881456Y-62611939D01*
X115935267Y-62612548D01*
X115984186Y-62622217D01*
X116036609Y-62642841D01*
X116086518Y-62674150D01*
X116129708Y-62711886D01*
X116389216Y-62971394D01*
G37*
G36*
X116763469Y-62691748D02*
G01*
X115989885Y-63465332D01*
X115881409Y-63356856D01*
X116654992Y-62583272D01*
X116763469Y-62691748D01*
G37*
G36*
X116328613Y-62256893D02*
G01*
X116154785Y-62784837D01*
X116022371Y-62701437D01*
X116199809Y-62128089D01*
X116328613Y-62256893D01*
G37*
G36*
X115110105Y-62584412D02*
G01*
X115883119Y-61811398D01*
X115991595Y-61919875D01*
X115336557Y-62574913D01*
X115513994Y-62617468D01*
X115401908Y-62729554D01*
X115218581Y-62692888D01*
X115110105Y-62584412D01*
G37*
G36*
X115516084Y-61428406D02*
G01*
X115553052Y-61469974D01*
X115584759Y-61517371D01*
X115607083Y-61566519D01*
X115620512Y-61621445D01*
X115622613Y-61676800D01*
X115617722Y-61713940D01*
X115600802Y-61769384D01*
X115575341Y-61819737D01*
X115547430Y-61860602D01*
X115436864Y-61750036D01*
X115464282Y-61700271D01*
X115471572Y-61644465D01*
X115470680Y-61637570D01*
X115451492Y-61583901D01*
X115417872Y-61538967D01*
X115411787Y-61532703D01*
X115367352Y-61497736D01*
X115314211Y-61479052D01*
X115299701Y-61477990D01*
X115246265Y-61488609D01*
X115198952Y-61519611D01*
X115189135Y-61528903D01*
X115165768Y-61552270D01*
X115129978Y-61595968D01*
X115107605Y-61647556D01*
X115104405Y-61669866D01*
X115113169Y-61724173D01*
X115143267Y-61771621D01*
X115152469Y-61781382D01*
X115207183Y-61836095D01*
X115104025Y-61939252D01*
X115049312Y-61884539D01*
X115005054Y-61852219D01*
X114951664Y-61841224D01*
X114897256Y-61857092D01*
X114853497Y-61890047D01*
X114850407Y-61893088D01*
X114826470Y-61917025D01*
X114793941Y-61961158D01*
X114782206Y-62014103D01*
X114796767Y-62067798D01*
X114831789Y-62113840D01*
X114875341Y-62145804D01*
X114924308Y-62160005D01*
X114978214Y-62154163D01*
X115029043Y-62130740D01*
X115036584Y-62125999D01*
X115146580Y-62235995D01*
X115097596Y-62266627D01*
X115041948Y-62291772D01*
X114986656Y-62306397D01*
X114931720Y-62310502D01*
X114924878Y-62310276D01*
X114871447Y-62302724D01*
X114820771Y-62284819D01*
X114772849Y-62256560D01*
X114727682Y-62217947D01*
X114688572Y-62173801D01*
X114658843Y-62128963D01*
X114636354Y-62076874D01*
X114626119Y-62023882D01*
X114625475Y-62010493D01*
X114632024Y-61951048D01*
X114650814Y-61899772D01*
X114681809Y-61849969D01*
X114718943Y-61807598D01*
X114731862Y-61794680D01*
X114773606Y-61760344D01*
X114823497Y-61735432D01*
X114863895Y-61725339D01*
X114919971Y-61723602D01*
X114977062Y-61735491D01*
X115015686Y-61750986D01*
X114990693Y-61702467D01*
X114977599Y-61647555D01*
X114979591Y-61591025D01*
X114996331Y-61534698D01*
X115024056Y-61485245D01*
X115059192Y-61442165D01*
X115068310Y-61432775D01*
X115081228Y-61419857D01*
X115126202Y-61380428D01*
X115172358Y-61350908D01*
X115226555Y-61329304D01*
X115282295Y-61320642D01*
X115296472Y-61320499D01*
X115352871Y-61328027D01*
X115408273Y-61348521D01*
X115455931Y-61377089D01*
X115502826Y-61415584D01*
X115516084Y-61428406D01*
G37*
D12*
%TO.C,C10*%
X129663534Y-63827349D02*
X129827349Y-63663534D01*
X130172651Y-64336466D02*
X130336466Y-64172651D01*
%TO.C,R11*%
X120832379Y-71620000D02*
X121167621Y-71620000D01*
X120832379Y-72380000D02*
X121167621Y-72380000D01*
%TO.C,C9*%
X119827349Y-64336466D02*
X119663534Y-64172651D01*
X120336466Y-63827349D02*
X120172651Y-63663534D01*
%TO.C,J2*%
X144577500Y-74750000D02*
X144577500Y-75250000D01*
X144577500Y-75250000D02*
X145077500Y-75000000D01*
X145077500Y-75000000D02*
X144577500Y-74750000D01*
X145627500Y-74160000D02*
X145627500Y-73050000D01*
X145627500Y-76950000D02*
X145627500Y-75840000D01*
X149337500Y-74160000D02*
X149337500Y-73050000D01*
X149337500Y-76950000D02*
X149337500Y-75840000D01*
%TO.C,R3*%
X134477500Y-77762742D02*
X134477500Y-78237258D01*
X135522500Y-77762742D02*
X135522500Y-78237258D01*
%TO.C,JP_A1*%
X134670000Y-89330000D02*
X134670000Y-88000000D01*
X136000000Y-89330000D02*
X134670000Y-89330000D01*
X137270000Y-86670000D02*
X142410000Y-86670000D01*
X137270000Y-89330000D02*
X137270000Y-86670000D01*
X137270000Y-89330000D02*
X142410000Y-89330000D01*
X142410000Y-89330000D02*
X142410000Y-86670000D01*
%TO.C,R6*%
X105254724Y-61477500D02*
X104745276Y-61477500D01*
X105254724Y-62522500D02*
X104745276Y-62522500D01*
%TO.C,R9*%
X116832379Y-71620000D02*
X117167621Y-71620000D01*
X116832379Y-72380000D02*
X117167621Y-72380000D01*
%TO.C,C2*%
X125490000Y-69008768D02*
X125490000Y-68716234D01*
X126510000Y-69008768D02*
X126510000Y-68716234D01*
%TO.C,C11*%
X135640000Y-68884165D02*
X135640000Y-69115835D01*
X136360000Y-68884165D02*
X136360000Y-69115835D01*
%TO.C,R7*%
X114477500Y-77762742D02*
X114477500Y-78237258D01*
X115522500Y-77762742D02*
X115522500Y-78237258D01*
%TO.C,U1*%
X122890000Y-73590000D02*
X122890000Y-73130000D01*
X122890000Y-77110000D02*
X122890000Y-76410000D01*
X123590000Y-72890000D02*
X123190000Y-72890000D01*
X123590000Y-77110000D02*
X122890000Y-77110000D01*
X126410000Y-72890000D02*
X127110000Y-72890000D01*
X126410000Y-77110000D02*
X127110000Y-77110000D01*
X127110000Y-72890000D02*
X127110000Y-73590000D01*
X127110000Y-77110000D02*
X127110000Y-76410000D01*
X122890000Y-72890000D02*
X122650000Y-72560000D01*
X123130000Y-72560000D01*
X122890000Y-72890000D01*
G36*
X122890000Y-72890000D02*
G01*
X122650000Y-72560000D01*
X123130000Y-72560000D01*
X122890000Y-72890000D01*
G37*
%TO.C,JP_A0*%
X107670000Y-89330000D02*
X107670000Y-88000000D01*
X109000000Y-89330000D02*
X107670000Y-89330000D01*
X110270000Y-86670000D02*
X115410000Y-86670000D01*
X110270000Y-89330000D02*
X110270000Y-86670000D01*
X110270000Y-89330000D02*
X115410000Y-89330000D01*
X115410000Y-89330000D02*
X115410000Y-86670000D01*
%TO.C,L1*%
X110171267Y-83490000D02*
X109828733Y-83490000D01*
X110171267Y-84510000D02*
X109828733Y-84510000D01*
%TO.C,J5*%
X114160000Y-50662500D02*
X113050000Y-50662500D01*
X114160000Y-54372500D02*
X113050000Y-54372500D01*
X114750000Y-55422500D02*
X115250000Y-55422500D01*
X115000000Y-54922500D02*
X114750000Y-55422500D01*
X115250000Y-55422500D02*
X115000000Y-54922500D01*
X116950000Y-50662500D02*
X115840000Y-50662500D01*
X116950000Y-54372500D02*
X115840000Y-54372500D01*
%TO.C,J3*%
X101000000Y-73050000D02*
X101000000Y-74160000D01*
X101000000Y-75840000D02*
X101000000Y-76950000D01*
X104710000Y-73050000D02*
X104710000Y-74160000D01*
X104710000Y-75840000D02*
X104710000Y-76950000D01*
X105260000Y-75000000D02*
X105760000Y-75250000D01*
X105760000Y-74750000D02*
X105260000Y-75000000D01*
X105760000Y-75250000D02*
X105760000Y-74750000D01*
%TO.C,J1*%
X120200000Y-91160000D02*
X120200000Y-91900000D01*
X120200000Y-91900000D02*
X120700000Y-91900000D01*
X120440000Y-81739000D02*
X120440000Y-91660000D01*
X120440000Y-81739000D02*
X130560000Y-81739000D01*
X120440000Y-84699000D02*
X130560000Y-84699000D01*
X120440000Y-89600000D02*
X130560000Y-89600000D01*
X120440000Y-91100000D02*
X130560000Y-91100000D01*
X120440000Y-91660000D02*
X130560000Y-91660000D01*
X126773000Y-88023000D02*
X126726000Y-88069000D01*
X126966000Y-88239000D02*
X126931000Y-88274000D01*
X129070000Y-85725000D02*
X129035000Y-85761000D01*
X129275000Y-85931000D02*
X129228000Y-85977000D01*
X130560000Y-81739000D02*
X130560000Y-91660000D01*
X121464573Y-87683042D02*
G75*
G02*
X121465000Y-86316000I1535420J683041D01*
G01*
X122316958Y-85464573D02*
G75*
G02*
X123684000Y-85465000I683041J-1535420D01*
G01*
X123028805Y-88680253D02*
G75*
G02*
X122316000Y-88535000I-28806J1680254D01*
G01*
X123683318Y-88534756D02*
G75*
G02*
X123000000Y-88680000I-683318J1534756D01*
G01*
X124535427Y-86316958D02*
G75*
G02*
X124535000Y-87684000I-1535427J-683042D01*
G01*
X129680000Y-87000000D02*
G75*
G02*
X126320000Y-87000000I-1680000J0D01*
G01*
X126320000Y-87000000D02*
G75*
G02*
X129680000Y-87000000I1680000J0D01*
G01*
%TO.C,R12*%
X129167621Y-71620000D02*
X128832379Y-71620000D01*
X129167621Y-72380000D02*
X128832379Y-72380000D01*
D11*
%TO.C,D1*%
X108425000Y-61175000D02*
X108425000Y-62825000D01*
X108425000Y-62825000D02*
X110750000Y-62825000D01*
X110750000Y-61175000D02*
X108425000Y-61175000D01*
D12*
%TO.C,C7*%
X123490000Y-69146267D02*
X123490000Y-68853733D01*
X124510000Y-69146267D02*
X124510000Y-68853733D01*
%TO.C,C4*%
X106884165Y-74640000D02*
X107115835Y-74640000D01*
X106884165Y-75360000D02*
X107115835Y-75360000D01*
%TO.C,C6*%
X114640000Y-82115835D02*
X114640000Y-81884165D01*
X115360000Y-82115835D02*
X115360000Y-81884165D01*
%TO.C,C3*%
X143115835Y-74640000D02*
X142884165Y-74640000D01*
X143115835Y-75360000D02*
X142884165Y-75360000D01*
%TO.C,C8*%
X113640000Y-68884165D02*
X113640000Y-69115835D01*
X114360000Y-68884165D02*
X114360000Y-69115835D01*
%TO.C,R5*%
X110477500Y-77762742D02*
X110477500Y-78237258D01*
X111522500Y-77762742D02*
X111522500Y-78237258D01*
%TO.C,R14*%
X131842421Y-60870645D02*
X132870645Y-59842421D01*
X133129355Y-62157579D02*
X134157579Y-61129355D01*
%TO.C,C5*%
X134640000Y-82115835D02*
X134640000Y-81884165D01*
X135360000Y-82115835D02*
X135360000Y-81884165D01*
%TO.C,R1*%
X138477500Y-71762742D02*
X138477500Y-72237258D01*
X139522500Y-71762742D02*
X139522500Y-72237258D01*
%TO.C,R2*%
X138477500Y-77762742D02*
X138477500Y-78237258D01*
X139522500Y-77762742D02*
X139522500Y-78237258D01*
%TO.C,C1*%
X124490000Y-61853733D02*
X124490000Y-62146267D01*
X125510000Y-61853733D02*
X125510000Y-62146267D01*
%TO.C,R10*%
X133167621Y-71620000D02*
X132832379Y-71620000D01*
X133167621Y-72380000D02*
X132832379Y-72380000D01*
%TO.C,R4*%
X110477500Y-71937742D02*
X110477500Y-72412258D01*
X111522500Y-71937742D02*
X111522500Y-72412258D01*
%TO.C,R13*%
X116870645Y-62157579D02*
X115842421Y-61129355D01*
X118157579Y-60870645D02*
X117129355Y-59842421D01*
%TO.C,J4*%
X134160000Y-50662500D02*
X133050000Y-50662500D01*
X134160000Y-54372500D02*
X133050000Y-54372500D01*
X134750000Y-55422500D02*
X135250000Y-55422500D01*
X135000000Y-54922500D02*
X134750000Y-55422500D01*
X135250000Y-55422500D02*
X135000000Y-54922500D01*
X136950000Y-50662500D02*
X135840000Y-50662500D01*
X136950000Y-54372500D02*
X135840000Y-54372500D01*
%TD*%
M02*
