%TF.GenerationSoftware,KiCad,Pcbnew,8.0.2*%
%TF.CreationDate,2025-01-11T01:17:19-03:00*%
%TF.ProjectId,LumiCom_Transmitter,4c756d69-436f-46d5-9f54-72616e736d69,rev?*%
%TF.SameCoordinates,Original*%
%TF.FileFunction,Paste,Top*%
%TF.FilePolarity,Positive*%
%FSLAX46Y46*%
G04 Gerber Fmt 4.6, Leading zero omitted, Abs format (unit mm)*
G04 Created by KiCad (PCBNEW 8.0.2) date 2025-01-11 01:17:19*
%MOMM*%
%LPD*%
G01*
G04 APERTURE LIST*
G04 Aperture macros list*
%AMRoundRect*
0 Rectangle with rounded corners*
0 $1 Rounding radius*
0 $2 $3 $4 $5 $6 $7 $8 $9 X,Y pos of 4 corners*
0 Add a 4 corners polygon primitive as box body*
4,1,4,$2,$3,$4,$5,$6,$7,$8,$9,$2,$3,0*
0 Add four circle primitives for the rounded corners*
1,1,$1+$1,$2,$3*
1,1,$1+$1,$4,$5*
1,1,$1+$1,$6,$7*
1,1,$1+$1,$8,$9*
0 Add four rect primitives between the rounded corners*
20,1,$1+$1,$2,$3,$4,$5,0*
20,1,$1+$1,$4,$5,$6,$7,0*
20,1,$1+$1,$6,$7,$8,$9,0*
20,1,$1+$1,$8,$9,$2,$3,0*%
G04 Aperture macros list end*
%ADD10RoundRect,0.155000X-0.040659X-0.259862X0.259862X0.040659X0.040659X0.259862X-0.259862X-0.040659X0*%
%ADD11RoundRect,0.160000X-0.197500X-0.160000X0.197500X-0.160000X0.197500X0.160000X-0.197500X0.160000X0*%
%ADD12RoundRect,0.155000X0.259862X-0.040659X-0.040659X0.259862X-0.259862X0.040659X0.040659X-0.259862X0*%
%ADD13R,3.600000X1.270000*%
%ADD14R,4.200000X1.350000*%
%ADD15RoundRect,0.200000X-0.275000X0.200000X-0.275000X-0.200000X0.275000X-0.200000X0.275000X0.200000X0*%
%ADD16RoundRect,0.237500X0.250000X0.237500X-0.250000X0.237500X-0.250000X-0.237500X0.250000X-0.237500X0*%
%ADD17RoundRect,0.237500X0.237500X-0.300000X0.237500X0.300000X-0.237500X0.300000X-0.237500X-0.300000X0*%
%ADD18RoundRect,0.155000X-0.155000X0.212500X-0.155000X-0.212500X0.155000X-0.212500X0.155000X0.212500X0*%
%ADD19RoundRect,0.087500X-0.425000X-0.087500X0.425000X-0.087500X0.425000X0.087500X-0.425000X0.087500X0*%
%ADD20RoundRect,0.087500X-0.087500X-0.425000X0.087500X-0.425000X0.087500X0.425000X-0.087500X0.425000X0*%
%ADD21RoundRect,0.237500X0.287500X0.237500X-0.287500X0.237500X-0.287500X-0.237500X0.287500X-0.237500X0*%
%ADD22R,1.270000X3.600000*%
%ADD23R,1.350000X4.200000*%
%ADD24RoundRect,0.160000X0.197500X0.160000X-0.197500X0.160000X-0.197500X-0.160000X0.197500X-0.160000X0*%
%ADD25R,0.950000X0.950000*%
%ADD26RoundRect,0.155000X-0.212500X-0.155000X0.212500X-0.155000X0.212500X0.155000X-0.212500X0.155000X0*%
%ADD27RoundRect,0.155000X0.155000X-0.212500X0.155000X0.212500X-0.155000X0.212500X-0.155000X-0.212500X0*%
%ADD28RoundRect,0.155000X0.212500X0.155000X-0.212500X0.155000X-0.212500X-0.155000X0.212500X-0.155000X0*%
%ADD29RoundRect,0.250000X0.159099X-0.724784X0.724784X-0.159099X-0.159099X0.724784X-0.724784X0.159099X0*%
%ADD30RoundRect,0.237500X-0.237500X0.300000X-0.237500X-0.300000X0.237500X-0.300000X0.237500X0.300000X0*%
%ADD31RoundRect,0.250000X0.724784X0.159099X0.159099X0.724784X-0.724784X-0.159099X-0.159099X-0.724784X0*%
G04 APERTURE END LIST*
D10*
%TO.C,C10*%
X129598717Y-64401283D03*
X130401283Y-63598717D03*
%TD*%
D11*
%TO.C,R11*%
X120402500Y-72000000D03*
X121597500Y-72000000D03*
%TD*%
D12*
%TO.C,C9*%
X120401283Y-64401283D03*
X119598717Y-63598717D03*
%TD*%
D13*
%TO.C,J2*%
X147537500Y-75000000D03*
D14*
X147337500Y-77825000D03*
X147337500Y-72175000D03*
%TD*%
D15*
%TO.C,R3*%
X135000000Y-77175000D03*
X135000000Y-78825000D03*
%TD*%
D16*
%TO.C,R6*%
X105912500Y-62000000D03*
X104087500Y-62000000D03*
%TD*%
D11*
%TO.C,R9*%
X116402500Y-72000000D03*
X117597500Y-72000000D03*
%TD*%
D17*
%TO.C,C2*%
X126000000Y-69725001D03*
X126000000Y-68000001D03*
%TD*%
D18*
%TO.C,C11*%
X136000000Y-68432500D03*
X136000000Y-69567500D03*
%TD*%
D15*
%TO.C,R7*%
X115000000Y-77175000D03*
X115000000Y-78825000D03*
%TD*%
D19*
%TO.C,U1*%
X123137500Y-74025000D03*
X123137500Y-74675000D03*
X123137500Y-75325000D03*
X123137500Y-75975000D03*
D20*
X124025000Y-76862500D03*
X124675000Y-76862500D03*
X125325000Y-76862500D03*
X125975000Y-76862500D03*
D19*
X126862500Y-75975000D03*
X126862500Y-75325000D03*
X126862500Y-74675000D03*
X126862500Y-74025000D03*
D20*
X125975000Y-73137500D03*
X125325000Y-73137500D03*
X124675000Y-73137500D03*
X124025000Y-73137500D03*
%TD*%
D21*
%TO.C,L1*%
X110875000Y-84000000D03*
X109125000Y-84000000D03*
%TD*%
D22*
%TO.C,J5*%
X115000000Y-52462500D03*
D23*
X117825000Y-52662500D03*
X112175000Y-52662500D03*
%TD*%
D13*
%TO.C,J3*%
X102800000Y-75000000D03*
D14*
X103000000Y-72175000D03*
X103000000Y-77825000D03*
%TD*%
D24*
%TO.C,R12*%
X129597500Y-72000000D03*
X128402500Y-72000000D03*
%TD*%
D25*
%TO.C,D1*%
X109250000Y-62000000D03*
X110750000Y-62000000D03*
%TD*%
D17*
%TO.C,C7*%
X124000000Y-69862500D03*
X124000000Y-68137500D03*
%TD*%
D26*
%TO.C,C4*%
X106432500Y-75000000D03*
X107567500Y-75000000D03*
%TD*%
D27*
%TO.C,C6*%
X115000000Y-82567500D03*
X115000000Y-81432500D03*
%TD*%
D28*
%TO.C,C3*%
X143567500Y-75000000D03*
X142432500Y-75000000D03*
%TD*%
D18*
%TO.C,C8*%
X114000000Y-68432500D03*
X114000000Y-69567500D03*
%TD*%
D15*
%TO.C,R5*%
X111000000Y-77175000D03*
X111000000Y-78825000D03*
%TD*%
D29*
%TO.C,R14*%
X131903984Y-62096016D03*
X134096016Y-59903984D03*
%TD*%
D27*
%TO.C,C5*%
X135000000Y-82567500D03*
X135000000Y-81432500D03*
%TD*%
D15*
%TO.C,R1*%
X139000000Y-71175000D03*
X139000000Y-72825000D03*
%TD*%
%TO.C,R2*%
X139000000Y-77175000D03*
X139000000Y-78825000D03*
%TD*%
D30*
%TO.C,C1*%
X125000000Y-61137500D03*
X125000000Y-62862500D03*
%TD*%
D24*
%TO.C,R10*%
X133597500Y-72000000D03*
X132402500Y-72000000D03*
%TD*%
D15*
%TO.C,R4*%
X111000000Y-71350000D03*
X111000000Y-73000000D03*
%TD*%
D31*
%TO.C,R13*%
X118096016Y-62096016D03*
X115903984Y-59903984D03*
%TD*%
D22*
%TO.C,J4*%
X135000000Y-52462500D03*
D23*
X137825000Y-52662500D03*
X132175000Y-52662500D03*
%TD*%
M02*
