%TF.GenerationSoftware,KiCad,Pcbnew,8.0.2*%
%TF.CreationDate,2025-01-11T01:17:19-03:00*%
%TF.ProjectId,LumiCom_Transmitter,4c756d69-436f-46d5-9f54-72616e736d69,rev?*%
%TF.SameCoordinates,Original*%
%TF.FileFunction,Copper,L2,Inr*%
%TF.FilePolarity,Positive*%
%FSLAX46Y46*%
G04 Gerber Fmt 4.6, Leading zero omitted, Abs format (unit mm)*
G04 Created by KiCad (PCBNEW 8.0.2) date 2025-01-11 01:17:19*
%MOMM*%
%LPD*%
G01*
G04 APERTURE LIST*
%TA.AperFunction,ComponentPad*%
%ADD10R,1.700000X1.700000*%
%TD*%
%TA.AperFunction,ComponentPad*%
%ADD11O,1.700000X1.700000*%
%TD*%
%TA.AperFunction,HeatsinkPad*%
%ADD12C,0.500000*%
%TD*%
%TA.AperFunction,ComponentPad*%
%ADD13R,2.600000X2.600000*%
%TD*%
%TA.AperFunction,ComponentPad*%
%ADD14C,2.600000*%
%TD*%
%TA.AperFunction,ViaPad*%
%ADD15C,0.500000*%
%TD*%
%TA.AperFunction,ViaPad*%
%ADD16C,0.800000*%
%TD*%
G04 APERTURE END LIST*
D10*
%TO.N,VCC*%
%TO.C,JP_A1*%
X136000000Y-88000000D03*
D11*
%TO.N,Net-(JP_A1-C)*%
X138540000Y-88000000D03*
%TO.N,GND*%
X141080000Y-88000000D03*
%TD*%
D12*
%TO.N,GND*%
%TO.C,U1*%
X124200000Y-74200000D03*
X124200000Y-75000000D03*
X124200000Y-75800000D03*
X125000000Y-74200000D03*
X125000000Y-75000000D03*
X125000000Y-75800000D03*
X125800000Y-74200000D03*
X125800000Y-75000000D03*
X125800000Y-75800000D03*
%TD*%
D10*
%TO.N,GND*%
%TO.C,JP_A0*%
X109000000Y-88000000D03*
D11*
%TO.N,Net-(JP_A0-C)*%
X111540000Y-88000000D03*
%TO.N,VCC*%
X114080000Y-88000000D03*
%TD*%
D13*
%TO.N,Net-(J1-Pin_1)*%
%TO.C,J1*%
X123000000Y-87000000D03*
D14*
%TO.N,GND*%
X128000000Y-87000000D03*
%TD*%
D15*
%TO.N,GND*%
X129000000Y-77000000D03*
X129000000Y-79000000D03*
X123000000Y-78000000D03*
X127000000Y-78000000D03*
X126000000Y-79000000D03*
X122000000Y-82000000D03*
X128000000Y-78000000D03*
X121000000Y-79000000D03*
X121000000Y-77000000D03*
X119000000Y-81000000D03*
X119000000Y-78000000D03*
D16*
X106000000Y-78000000D03*
D15*
X121000000Y-82000000D03*
X120000000Y-78000000D03*
X120000000Y-81000000D03*
X124000000Y-81000000D03*
X120000000Y-82000000D03*
X120000000Y-80000000D03*
X111000000Y-80000000D03*
X115000000Y-84000000D03*
X123000000Y-79000000D03*
X123000000Y-77000000D03*
X125000000Y-78000000D03*
X120000000Y-77000000D03*
X119000000Y-79000000D03*
X128000000Y-79000000D03*
X124000000Y-79000000D03*
X128000000Y-81000000D03*
X122000000Y-77000000D03*
X123000000Y-81000000D03*
X131000000Y-78000000D03*
X126000000Y-80000000D03*
X119000000Y-80000000D03*
X130000000Y-80000000D03*
X131000000Y-79000000D03*
X122000000Y-78000000D03*
X124000000Y-80000000D03*
X135000000Y-84000000D03*
X131000000Y-82000000D03*
X129000000Y-78000000D03*
X114000000Y-67000000D03*
X123000000Y-80000000D03*
X130000000Y-79000000D03*
D16*
X132000000Y-56000000D03*
X118000000Y-56000000D03*
D15*
X119000000Y-82000000D03*
X122000000Y-80000000D03*
X136000000Y-67000000D03*
X127000000Y-79000000D03*
X125000000Y-65000000D03*
X129000000Y-82000000D03*
X122000000Y-79000000D03*
D16*
X112000000Y-56000000D03*
D15*
X129000000Y-81000000D03*
X119000000Y-77000000D03*
X128000000Y-77000000D03*
X128000000Y-80000000D03*
X120000000Y-79000000D03*
X126000000Y-81000000D03*
X121000000Y-80000000D03*
X139000000Y-80000000D03*
X121000000Y-78000000D03*
X122000000Y-81000000D03*
X130000000Y-81000000D03*
X127000000Y-81000000D03*
D16*
X144000000Y-78000000D03*
D15*
X128000000Y-82000000D03*
D16*
X144000000Y-72000000D03*
D15*
X131000000Y-80000000D03*
X124000000Y-78000000D03*
D16*
X106000000Y-72000000D03*
D15*
X131000000Y-81000000D03*
X130000000Y-77000000D03*
X129000000Y-80000000D03*
X123000000Y-82000000D03*
D16*
X138000000Y-56000000D03*
D15*
X130000000Y-82000000D03*
X127000000Y-82000000D03*
X103000000Y-62000000D03*
X127000000Y-80000000D03*
X130000000Y-78000000D03*
X131000000Y-77000000D03*
X121000000Y-81000000D03*
%TO.N,VCC*%
X125000000Y-60000000D03*
X112000000Y-62000000D03*
X111000000Y-70000000D03*
X125000000Y-71000000D03*
X108000000Y-84000000D03*
X139000000Y-70000000D03*
%TO.N,Net-(JP_A0-C)*%
X126000000Y-78000000D03*
%TO.N,Net-(JP_A1-C)*%
X128000000Y-76000000D03*
%TD*%
%TA.AperFunction,Conductor*%
%TO.N,GND*%
G36*
X149443039Y-50519685D02*
G01*
X149488794Y-50572489D01*
X149500000Y-50624000D01*
X149500000Y-91376000D01*
X149480315Y-91443039D01*
X149427511Y-91488794D01*
X149376000Y-91500000D01*
X100624000Y-91500000D01*
X100556961Y-91480315D01*
X100511206Y-91427511D01*
X100500000Y-91376000D01*
X100500000Y-87885258D01*
X102249500Y-87885258D01*
X102249500Y-88114741D01*
X102259803Y-88192993D01*
X102279452Y-88342238D01*
X102335712Y-88552205D01*
X102338842Y-88563887D01*
X102426650Y-88775876D01*
X102426657Y-88775890D01*
X102541392Y-88974617D01*
X102681081Y-89156661D01*
X102681089Y-89156670D01*
X102843330Y-89318911D01*
X102843338Y-89318918D01*
X103025382Y-89458607D01*
X103025385Y-89458608D01*
X103025388Y-89458611D01*
X103224112Y-89573344D01*
X103224117Y-89573346D01*
X103224123Y-89573349D01*
X103315480Y-89611190D01*
X103436113Y-89661158D01*
X103657762Y-89720548D01*
X103885266Y-89750500D01*
X103885273Y-89750500D01*
X104114727Y-89750500D01*
X104114734Y-89750500D01*
X104342238Y-89720548D01*
X104563887Y-89661158D01*
X104775888Y-89573344D01*
X104974612Y-89458611D01*
X105156661Y-89318919D01*
X105156665Y-89318914D01*
X105156670Y-89318911D01*
X105318911Y-89156670D01*
X105318914Y-89156665D01*
X105318919Y-89156661D01*
X105458611Y-88974612D01*
X105504699Y-88894785D01*
X107850001Y-88894785D01*
X107850002Y-88894808D01*
X107852908Y-88919869D01*
X107852909Y-88919873D01*
X107898211Y-89022474D01*
X107898214Y-89022479D01*
X107977520Y-89101785D01*
X107977525Y-89101788D01*
X108080123Y-89147089D01*
X108105206Y-89149999D01*
X108499999Y-89149999D01*
X108500000Y-89149998D01*
X108500000Y-88500000D01*
X107850001Y-88500000D01*
X107850001Y-88894785D01*
X105504699Y-88894785D01*
X105573344Y-88775888D01*
X105661158Y-88563887D01*
X105720548Y-88342238D01*
X105750500Y-88114734D01*
X105750500Y-87934174D01*
X108500000Y-87934174D01*
X108500000Y-88065826D01*
X108534075Y-88192993D01*
X108599901Y-88307007D01*
X108692993Y-88400099D01*
X108807007Y-88465925D01*
X108934174Y-88500000D01*
X109065826Y-88500000D01*
X109192993Y-88465925D01*
X109307007Y-88400099D01*
X109400099Y-88307007D01*
X109465925Y-88192993D01*
X109500000Y-88065826D01*
X109500000Y-89149999D01*
X109894786Y-89149999D01*
X109894808Y-89149997D01*
X109919869Y-89147091D01*
X109919873Y-89147090D01*
X110022474Y-89101788D01*
X110022479Y-89101785D01*
X110101785Y-89022479D01*
X110101788Y-89022474D01*
X110147089Y-88919877D01*
X110147089Y-88919875D01*
X110149999Y-88894794D01*
X110149999Y-88150653D01*
X110169683Y-88083614D01*
X110222487Y-88037859D01*
X110291646Y-88027915D01*
X110355202Y-88056940D01*
X110392976Y-88115718D01*
X110397470Y-88139211D01*
X110402454Y-88192993D01*
X110404244Y-88212310D01*
X110457675Y-88400099D01*
X110462596Y-88417392D01*
X110462596Y-88417394D01*
X110557632Y-88608253D01*
X110684227Y-88775890D01*
X110686128Y-88778407D01*
X110843698Y-88922052D01*
X111024981Y-89034298D01*
X111223802Y-89111321D01*
X111433390Y-89150500D01*
X111433392Y-89150500D01*
X111646608Y-89150500D01*
X111646610Y-89150500D01*
X111856198Y-89111321D01*
X112055019Y-89034298D01*
X112236302Y-88922052D01*
X112393872Y-88778407D01*
X112522366Y-88608255D01*
X112524013Y-88604947D01*
X112617403Y-88417394D01*
X112617403Y-88417393D01*
X112617405Y-88417389D01*
X112675756Y-88212310D01*
X112686529Y-88096047D01*
X112712315Y-88031111D01*
X112754622Y-88000804D01*
X112863130Y-88000804D01*
X112899503Y-88021668D01*
X112931693Y-88083681D01*
X112933470Y-88096047D01*
X112944244Y-88212310D01*
X112997675Y-88400099D01*
X113002596Y-88417392D01*
X113002596Y-88417394D01*
X113097632Y-88608253D01*
X113224227Y-88775890D01*
X113226128Y-88778407D01*
X113383698Y-88922052D01*
X113564981Y-89034298D01*
X113763802Y-89111321D01*
X113973390Y-89150500D01*
X113973392Y-89150500D01*
X114186608Y-89150500D01*
X114186610Y-89150500D01*
X114396198Y-89111321D01*
X114595019Y-89034298D01*
X114776302Y-88922052D01*
X114933872Y-88778407D01*
X115062366Y-88608255D01*
X115064013Y-88604947D01*
X115157403Y-88417394D01*
X115157403Y-88417393D01*
X115157405Y-88417389D01*
X115215756Y-88212310D01*
X115235429Y-88000000D01*
X115215756Y-87787690D01*
X115157405Y-87582611D01*
X115157403Y-87582606D01*
X115157403Y-87582605D01*
X115062367Y-87391746D01*
X114933872Y-87221593D01*
X114898775Y-87189598D01*
X114776302Y-87077948D01*
X114595019Y-86965702D01*
X114595017Y-86965701D01*
X114495608Y-86927190D01*
X114396198Y-86888679D01*
X114186610Y-86849500D01*
X113973390Y-86849500D01*
X113763802Y-86888679D01*
X113763799Y-86888679D01*
X113763799Y-86888680D01*
X113564982Y-86965701D01*
X113564980Y-86965702D01*
X113383699Y-87077947D01*
X113226127Y-87221593D01*
X113097632Y-87391746D01*
X113002596Y-87582605D01*
X113002596Y-87582607D01*
X112944244Y-87787689D01*
X112933471Y-87903951D01*
X112907685Y-87968888D01*
X112863130Y-88000804D01*
X112754622Y-88000804D01*
X112756869Y-87999194D01*
X112720497Y-87978331D01*
X112688307Y-87916318D01*
X112686529Y-87903951D01*
X112684798Y-87885272D01*
X112675756Y-87787690D01*
X112617405Y-87582611D01*
X112617403Y-87582606D01*
X112617403Y-87582605D01*
X112522367Y-87391746D01*
X112393872Y-87221593D01*
X112358775Y-87189598D01*
X112236302Y-87077948D01*
X112055019Y-86965702D01*
X112055017Y-86965701D01*
X111955608Y-86927190D01*
X111856198Y-86888679D01*
X111646610Y-86849500D01*
X111433390Y-86849500D01*
X111223802Y-86888679D01*
X111223799Y-86888679D01*
X111223799Y-86888680D01*
X111024982Y-86965701D01*
X111024980Y-86965702D01*
X110843699Y-87077947D01*
X110686127Y-87221593D01*
X110557632Y-87391746D01*
X110462596Y-87582605D01*
X110462596Y-87582607D01*
X110404244Y-87787689D01*
X110397470Y-87860790D01*
X110371683Y-87925727D01*
X110314883Y-87966414D01*
X110245102Y-87969934D01*
X110184496Y-87935168D01*
X110152306Y-87873155D01*
X110149999Y-87849348D01*
X110149999Y-87105214D01*
X110149997Y-87105191D01*
X110147091Y-87080130D01*
X110147090Y-87080126D01*
X110101788Y-86977525D01*
X110101785Y-86977520D01*
X110022479Y-86898214D01*
X110022474Y-86898211D01*
X109919876Y-86852910D01*
X109894794Y-86850000D01*
X109500000Y-86850000D01*
X109500000Y-87934174D01*
X109465925Y-87807007D01*
X109400099Y-87692993D01*
X109307007Y-87599901D01*
X109192993Y-87534075D01*
X109065826Y-87500000D01*
X108934174Y-87500000D01*
X108807007Y-87534075D01*
X108692993Y-87599901D01*
X108599901Y-87692993D01*
X108534075Y-87807007D01*
X108500000Y-87934174D01*
X105750500Y-87934174D01*
X105750500Y-87885266D01*
X105720548Y-87657762D01*
X105661158Y-87436113D01*
X105608046Y-87307890D01*
X105573349Y-87224123D01*
X105573346Y-87224117D01*
X105573344Y-87224112D01*
X105504693Y-87105205D01*
X107850000Y-87105205D01*
X107850000Y-87500000D01*
X108500000Y-87500000D01*
X108500000Y-86850000D01*
X108105214Y-86850000D01*
X108105191Y-86850002D01*
X108080130Y-86852908D01*
X108080126Y-86852909D01*
X107977525Y-86898211D01*
X107977520Y-86898214D01*
X107898214Y-86977520D01*
X107898211Y-86977525D01*
X107852910Y-87080122D01*
X107852910Y-87080124D01*
X107850000Y-87105205D01*
X105504693Y-87105205D01*
X105458611Y-87025388D01*
X105458608Y-87025385D01*
X105458607Y-87025382D01*
X105326262Y-86852909D01*
X105318919Y-86843339D01*
X105318918Y-86843338D01*
X105318911Y-86843330D01*
X105156670Y-86681089D01*
X105156661Y-86681081D01*
X104974617Y-86541392D01*
X104775890Y-86426657D01*
X104775876Y-86426650D01*
X104563887Y-86338842D01*
X104342238Y-86279452D01*
X104304215Y-86274446D01*
X104114741Y-86249500D01*
X104114734Y-86249500D01*
X103885266Y-86249500D01*
X103885258Y-86249500D01*
X103668715Y-86278009D01*
X103657762Y-86279452D01*
X103607599Y-86292893D01*
X103436112Y-86338842D01*
X103224123Y-86426650D01*
X103224109Y-86426657D01*
X103025382Y-86541392D01*
X102843338Y-86681081D01*
X102681081Y-86843338D01*
X102541392Y-87025382D01*
X102426657Y-87224109D01*
X102426650Y-87224123D01*
X102347856Y-87414351D01*
X102338842Y-87436113D01*
X102299590Y-87582607D01*
X102279453Y-87657759D01*
X102279451Y-87657770D01*
X102249500Y-87885258D01*
X100500000Y-87885258D01*
X100500000Y-85655131D01*
X121399500Y-85655131D01*
X121399500Y-88344856D01*
X121399502Y-88344882D01*
X121402413Y-88369987D01*
X121402415Y-88369991D01*
X121447793Y-88472764D01*
X121447794Y-88472765D01*
X121527235Y-88552206D01*
X121630009Y-88597585D01*
X121655135Y-88600500D01*
X124344864Y-88600499D01*
X124344879Y-88600497D01*
X124344882Y-88600497D01*
X124369987Y-88597586D01*
X124369988Y-88597585D01*
X124369991Y-88597585D01*
X124472765Y-88552206D01*
X124552206Y-88472765D01*
X124570341Y-88431693D01*
X127275411Y-88431693D01*
X127504044Y-88526396D01*
X127748927Y-88585187D01*
X128000000Y-88604947D01*
X128251072Y-88585187D01*
X128495956Y-88526396D01*
X128724587Y-88431693D01*
X128000000Y-87707107D01*
X127275411Y-88431693D01*
X124570341Y-88431693D01*
X124597585Y-88369991D01*
X124600500Y-88344865D01*
X124600499Y-87000000D01*
X126395052Y-87000000D01*
X126414812Y-87251072D01*
X126473604Y-87495957D01*
X126473604Y-87495959D01*
X126568304Y-87724586D01*
X127292893Y-87000000D01*
X127228874Y-86935981D01*
X127350000Y-86935981D01*
X127350000Y-87064019D01*
X127374979Y-87189598D01*
X127423978Y-87307890D01*
X127495112Y-87414351D01*
X127585649Y-87504888D01*
X127692110Y-87576022D01*
X127810402Y-87625021D01*
X127935981Y-87650000D01*
X128064019Y-87650000D01*
X128189598Y-87625021D01*
X128307890Y-87576022D01*
X128414351Y-87504888D01*
X128504888Y-87414351D01*
X128576022Y-87307890D01*
X128625021Y-87189598D01*
X128650000Y-87064019D01*
X128650000Y-86999999D01*
X128707107Y-86999999D01*
X128707107Y-87000001D01*
X129431693Y-87724587D01*
X129526396Y-87495956D01*
X129585187Y-87251072D01*
X129596673Y-87105131D01*
X134849500Y-87105131D01*
X134849500Y-88894856D01*
X134849502Y-88894882D01*
X134852413Y-88919987D01*
X134852415Y-88919991D01*
X134897793Y-89022764D01*
X134897794Y-89022765D01*
X134977235Y-89102206D01*
X135080009Y-89147585D01*
X135105135Y-89150500D01*
X136894864Y-89150499D01*
X136894879Y-89150497D01*
X136894882Y-89150497D01*
X136919987Y-89147586D01*
X136919988Y-89147585D01*
X136919991Y-89147585D01*
X137022765Y-89102206D01*
X137102206Y-89022765D01*
X137147585Y-88919991D01*
X137150500Y-88894865D01*
X137150499Y-88156046D01*
X137170183Y-88089009D01*
X137222987Y-88043254D01*
X137292146Y-88033310D01*
X137355702Y-88062335D01*
X137393476Y-88121113D01*
X137397970Y-88144606D01*
X137402454Y-88192993D01*
X137404244Y-88212310D01*
X137457675Y-88400099D01*
X137462596Y-88417392D01*
X137462596Y-88417394D01*
X137557632Y-88608253D01*
X137684227Y-88775890D01*
X137686128Y-88778407D01*
X137843698Y-88922052D01*
X138024981Y-89034298D01*
X138223802Y-89111321D01*
X138433390Y-89150500D01*
X138433392Y-89150500D01*
X138646608Y-89150500D01*
X138646610Y-89150500D01*
X138856198Y-89111321D01*
X139055019Y-89034298D01*
X139236302Y-88922052D01*
X139393872Y-88778407D01*
X139522366Y-88608255D01*
X139524013Y-88604947D01*
X139576270Y-88500000D01*
X140044288Y-88500000D01*
X140098059Y-88607989D01*
X140226500Y-88778071D01*
X140384000Y-88921651D01*
X140384002Y-88921653D01*
X140565202Y-89033847D01*
X140565204Y-89033848D01*
X140580000Y-89039579D01*
X140580000Y-89039578D01*
X141580000Y-89039578D01*
X141594795Y-89033848D01*
X141594797Y-89033847D01*
X141775997Y-88921653D01*
X141775999Y-88921651D01*
X141933499Y-88778071D01*
X142061940Y-88607989D01*
X142115712Y-88500000D01*
X141580000Y-88500000D01*
X141580000Y-89039578D01*
X140580000Y-89039578D01*
X140580000Y-88500000D01*
X140044288Y-88500000D01*
X139576270Y-88500000D01*
X139617403Y-88417394D01*
X139617403Y-88417393D01*
X139617405Y-88417389D01*
X139675756Y-88212310D01*
X139695429Y-88000000D01*
X139689329Y-87934174D01*
X140580000Y-87934174D01*
X140580000Y-88065826D01*
X140614075Y-88192993D01*
X140679901Y-88307007D01*
X140772993Y-88400099D01*
X140887007Y-88465925D01*
X141014174Y-88500000D01*
X141145826Y-88500000D01*
X141272993Y-88465925D01*
X141387007Y-88400099D01*
X141480099Y-88307007D01*
X141545925Y-88192993D01*
X141580000Y-88065826D01*
X141580000Y-87934174D01*
X141566893Y-87885258D01*
X144249500Y-87885258D01*
X144249500Y-88114741D01*
X144259803Y-88192993D01*
X144279452Y-88342238D01*
X144335712Y-88552205D01*
X144338842Y-88563887D01*
X144426650Y-88775876D01*
X144426657Y-88775890D01*
X144541392Y-88974617D01*
X144681081Y-89156661D01*
X144681089Y-89156670D01*
X144843330Y-89318911D01*
X144843338Y-89318918D01*
X145025382Y-89458607D01*
X145025385Y-89458608D01*
X145025388Y-89458611D01*
X145224112Y-89573344D01*
X145224117Y-89573346D01*
X145224123Y-89573349D01*
X145315480Y-89611190D01*
X145436113Y-89661158D01*
X145657762Y-89720548D01*
X145885266Y-89750500D01*
X145885273Y-89750500D01*
X146114727Y-89750500D01*
X146114734Y-89750500D01*
X146342238Y-89720548D01*
X146563887Y-89661158D01*
X146775888Y-89573344D01*
X146974612Y-89458611D01*
X147156661Y-89318919D01*
X147156665Y-89318914D01*
X147156670Y-89318911D01*
X147318911Y-89156670D01*
X147318914Y-89156665D01*
X147318919Y-89156661D01*
X147458611Y-88974612D01*
X147573344Y-88775888D01*
X147661158Y-88563887D01*
X147720548Y-88342238D01*
X147750500Y-88114734D01*
X147750500Y-87885266D01*
X147720548Y-87657762D01*
X147661158Y-87436113D01*
X147608046Y-87307890D01*
X147573349Y-87224123D01*
X147573346Y-87224117D01*
X147573344Y-87224112D01*
X147458611Y-87025388D01*
X147458608Y-87025385D01*
X147458607Y-87025382D01*
X147326262Y-86852909D01*
X147318919Y-86843339D01*
X147318918Y-86843338D01*
X147318911Y-86843330D01*
X147156670Y-86681089D01*
X147156661Y-86681081D01*
X146974617Y-86541392D01*
X146775890Y-86426657D01*
X146775876Y-86426650D01*
X146563887Y-86338842D01*
X146342238Y-86279452D01*
X146304215Y-86274446D01*
X146114741Y-86249500D01*
X146114734Y-86249500D01*
X145885266Y-86249500D01*
X145885258Y-86249500D01*
X145668715Y-86278009D01*
X145657762Y-86279452D01*
X145607599Y-86292893D01*
X145436112Y-86338842D01*
X145224123Y-86426650D01*
X145224109Y-86426657D01*
X145025382Y-86541392D01*
X144843338Y-86681081D01*
X144681081Y-86843338D01*
X144541392Y-87025382D01*
X144426657Y-87224109D01*
X144426650Y-87224123D01*
X144347856Y-87414351D01*
X144338842Y-87436113D01*
X144299590Y-87582607D01*
X144279453Y-87657759D01*
X144279451Y-87657770D01*
X144249500Y-87885258D01*
X141566893Y-87885258D01*
X141545925Y-87807007D01*
X141480099Y-87692993D01*
X141387007Y-87599901D01*
X141272993Y-87534075D01*
X141145826Y-87500000D01*
X141580000Y-87500000D01*
X142115712Y-87500000D01*
X142115712Y-87499999D01*
X142061940Y-87392010D01*
X141933499Y-87221928D01*
X141775999Y-87078348D01*
X141775997Y-87078346D01*
X141594801Y-86966155D01*
X141594793Y-86966151D01*
X141580000Y-86960419D01*
X141580000Y-87500000D01*
X141145826Y-87500000D01*
X141014174Y-87500000D01*
X140887007Y-87534075D01*
X140772993Y-87599901D01*
X140679901Y-87692993D01*
X140614075Y-87807007D01*
X140580000Y-87934174D01*
X139689329Y-87934174D01*
X139675756Y-87787690D01*
X139617405Y-87582611D01*
X139617403Y-87582606D01*
X139617403Y-87582605D01*
X139576270Y-87499999D01*
X140044287Y-87499999D01*
X140044288Y-87500000D01*
X140580000Y-87500000D01*
X140580000Y-86960420D01*
X140579999Y-86960419D01*
X140565206Y-86966151D01*
X140565198Y-86966155D01*
X140384002Y-87078346D01*
X140384000Y-87078348D01*
X140226500Y-87221928D01*
X140098059Y-87392010D01*
X140044287Y-87499999D01*
X139576270Y-87499999D01*
X139522367Y-87391746D01*
X139393872Y-87221593D01*
X139358775Y-87189598D01*
X139236302Y-87077948D01*
X139055019Y-86965702D01*
X139055017Y-86965701D01*
X138955608Y-86927190D01*
X138856198Y-86888679D01*
X138646610Y-86849500D01*
X138433390Y-86849500D01*
X138223802Y-86888679D01*
X138223799Y-86888679D01*
X138223799Y-86888680D01*
X138024982Y-86965701D01*
X138024980Y-86965702D01*
X137843699Y-87077947D01*
X137686127Y-87221593D01*
X137557632Y-87391746D01*
X137462596Y-87582605D01*
X137462596Y-87582607D01*
X137404244Y-87787689D01*
X137397970Y-87855394D01*
X137372183Y-87920331D01*
X137315383Y-87961018D01*
X137245602Y-87964538D01*
X137184995Y-87929772D01*
X137152806Y-87867759D01*
X137150499Y-87843952D01*
X137150499Y-87105143D01*
X137150499Y-87105136D01*
X137150497Y-87105117D01*
X137147586Y-87080012D01*
X137147585Y-87080010D01*
X137147585Y-87080009D01*
X137102206Y-86977235D01*
X137022765Y-86897794D01*
X137002124Y-86888680D01*
X136919992Y-86852415D01*
X136894865Y-86849500D01*
X135105143Y-86849500D01*
X135105117Y-86849502D01*
X135080012Y-86852413D01*
X135080008Y-86852415D01*
X134977235Y-86897793D01*
X134897794Y-86977234D01*
X134852415Y-87080006D01*
X134852415Y-87080008D01*
X134849500Y-87105131D01*
X129596673Y-87105131D01*
X129604947Y-87000000D01*
X129585187Y-86748927D01*
X129526396Y-86504044D01*
X129431693Y-86275411D01*
X128707107Y-86999999D01*
X128650000Y-86999999D01*
X128650000Y-86935981D01*
X128625021Y-86810402D01*
X128576022Y-86692110D01*
X128504888Y-86585649D01*
X128414351Y-86495112D01*
X128307890Y-86423978D01*
X128189598Y-86374979D01*
X128064019Y-86350000D01*
X127935981Y-86350000D01*
X127810402Y-86374979D01*
X127692110Y-86423978D01*
X127585649Y-86495112D01*
X127495112Y-86585649D01*
X127423978Y-86692110D01*
X127374979Y-86810402D01*
X127350000Y-86935981D01*
X127228874Y-86935981D01*
X126568304Y-86275411D01*
X126473604Y-86504040D01*
X126473604Y-86504042D01*
X126414812Y-86748927D01*
X126395052Y-87000000D01*
X124600499Y-87000000D01*
X124600499Y-85655136D01*
X124600497Y-85655117D01*
X124597586Y-85630012D01*
X124597585Y-85630010D01*
X124597585Y-85630009D01*
X124570340Y-85568304D01*
X127275411Y-85568304D01*
X128000000Y-86292893D01*
X128000001Y-86292893D01*
X128724587Y-85568304D01*
X128495958Y-85473604D01*
X128251072Y-85414812D01*
X128000000Y-85395052D01*
X127748927Y-85414812D01*
X127504042Y-85473604D01*
X127504040Y-85473604D01*
X127275411Y-85568304D01*
X124570340Y-85568304D01*
X124552206Y-85527235D01*
X124472765Y-85447794D01*
X124398068Y-85414812D01*
X124369992Y-85402415D01*
X124344865Y-85399500D01*
X121655143Y-85399500D01*
X121655117Y-85399502D01*
X121630012Y-85402413D01*
X121630008Y-85402415D01*
X121527235Y-85447793D01*
X121447794Y-85527234D01*
X121402415Y-85630006D01*
X121402415Y-85630008D01*
X121399500Y-85655131D01*
X100500000Y-85655131D01*
X100500000Y-83999999D01*
X107444750Y-83999999D01*
X107444750Y-84000000D01*
X107463670Y-84143708D01*
X107463671Y-84143712D01*
X107519137Y-84277622D01*
X107519138Y-84277624D01*
X107519139Y-84277625D01*
X107607379Y-84392621D01*
X107722375Y-84480861D01*
X107856291Y-84536330D01*
X107983280Y-84553048D01*
X107999999Y-84555250D01*
X108000000Y-84555250D01*
X108000001Y-84555250D01*
X108014977Y-84553278D01*
X108143709Y-84536330D01*
X108277625Y-84480861D01*
X108392621Y-84392621D01*
X108480861Y-84277625D01*
X108536330Y-84143709D01*
X108555250Y-84000000D01*
X108536330Y-83856291D01*
X108480861Y-83722375D01*
X108392621Y-83607379D01*
X108277625Y-83519139D01*
X108277624Y-83519138D01*
X108277622Y-83519137D01*
X108143712Y-83463671D01*
X108143710Y-83463670D01*
X108143709Y-83463670D01*
X108071854Y-83454210D01*
X108000001Y-83444750D01*
X107999999Y-83444750D01*
X107856291Y-83463670D01*
X107856287Y-83463671D01*
X107722377Y-83519137D01*
X107607379Y-83607379D01*
X107519137Y-83722377D01*
X107463671Y-83856287D01*
X107463670Y-83856291D01*
X107444750Y-83999999D01*
X100500000Y-83999999D01*
X100500000Y-77999999D01*
X125444750Y-77999999D01*
X125444750Y-78000000D01*
X125463670Y-78143708D01*
X125463671Y-78143712D01*
X125519137Y-78277622D01*
X125519138Y-78277624D01*
X125519139Y-78277625D01*
X125607379Y-78392621D01*
X125722375Y-78480861D01*
X125856291Y-78536330D01*
X125983280Y-78553048D01*
X125999999Y-78555250D01*
X126000000Y-78555250D01*
X126000001Y-78555250D01*
X126014977Y-78553278D01*
X126143709Y-78536330D01*
X126277625Y-78480861D01*
X126392621Y-78392621D01*
X126480861Y-78277625D01*
X126536330Y-78143709D01*
X126555250Y-78000000D01*
X126536330Y-77856291D01*
X126480861Y-77722375D01*
X126392621Y-77607379D01*
X126277625Y-77519139D01*
X126277624Y-77519138D01*
X126277622Y-77519137D01*
X126143712Y-77463671D01*
X126143710Y-77463670D01*
X126143709Y-77463670D01*
X126071854Y-77454210D01*
X126000001Y-77444750D01*
X125999999Y-77444750D01*
X125856291Y-77463670D01*
X125856287Y-77463671D01*
X125722377Y-77519137D01*
X125607379Y-77607379D01*
X125519137Y-77722377D01*
X125463671Y-77856287D01*
X125463670Y-77856291D01*
X125444750Y-77999999D01*
X100500000Y-77999999D01*
X100500000Y-76324503D01*
X124029048Y-76324503D01*
X124029048Y-76324504D01*
X124056420Y-76335842D01*
X124199999Y-76354746D01*
X124200001Y-76354746D01*
X124343574Y-76335843D01*
X124343578Y-76335842D01*
X124370951Y-76324503D01*
X124829048Y-76324503D01*
X124829048Y-76324504D01*
X124856420Y-76335842D01*
X124999999Y-76354746D01*
X125000001Y-76354746D01*
X125143574Y-76335843D01*
X125143578Y-76335842D01*
X125170951Y-76324503D01*
X125629048Y-76324503D01*
X125629048Y-76324504D01*
X125656420Y-76335842D01*
X125799999Y-76354746D01*
X125800001Y-76354746D01*
X125943574Y-76335843D01*
X125943578Y-76335842D01*
X125970951Y-76324503D01*
X125800001Y-76153553D01*
X125629048Y-76324503D01*
X125170951Y-76324503D01*
X125000001Y-76153553D01*
X124829048Y-76324503D01*
X124370951Y-76324503D01*
X124200001Y-76153553D01*
X124029048Y-76324503D01*
X100500000Y-76324503D01*
X100500000Y-75999999D01*
X127444750Y-75999999D01*
X127444750Y-76000000D01*
X127463670Y-76143708D01*
X127463671Y-76143712D01*
X127519137Y-76277622D01*
X127519138Y-76277624D01*
X127519139Y-76277625D01*
X127607379Y-76392621D01*
X127722375Y-76480861D01*
X127856291Y-76536330D01*
X127983280Y-76553048D01*
X127999999Y-76555250D01*
X128000000Y-76555250D01*
X128000001Y-76555250D01*
X128014977Y-76553278D01*
X128143709Y-76536330D01*
X128277625Y-76480861D01*
X128392621Y-76392621D01*
X128480861Y-76277625D01*
X128536330Y-76143709D01*
X128555250Y-76000000D01*
X128536330Y-75856291D01*
X128480861Y-75722375D01*
X128392621Y-75607379D01*
X128277625Y-75519139D01*
X128277624Y-75519138D01*
X128277622Y-75519137D01*
X128143712Y-75463671D01*
X128143710Y-75463670D01*
X128143709Y-75463670D01*
X128071854Y-75454210D01*
X128000001Y-75444750D01*
X127999999Y-75444750D01*
X127856291Y-75463670D01*
X127856287Y-75463671D01*
X127722377Y-75519137D01*
X127607379Y-75607379D01*
X127519137Y-75722377D01*
X127463671Y-75856287D01*
X127463670Y-75856291D01*
X127444750Y-75999999D01*
X100500000Y-75999999D01*
X100500000Y-75799999D01*
X123645254Y-75799999D01*
X123645254Y-75800000D01*
X123664157Y-75943579D01*
X123664157Y-75943580D01*
X123675494Y-75970950D01*
X123846446Y-75799999D01*
X123816610Y-75770163D01*
X124050000Y-75770163D01*
X124050000Y-75829837D01*
X124072836Y-75884968D01*
X124115032Y-75927164D01*
X124170163Y-75950000D01*
X124229837Y-75950000D01*
X124284968Y-75927164D01*
X124327164Y-75884968D01*
X124350000Y-75829837D01*
X124350000Y-75800000D01*
X124553553Y-75800000D01*
X124600000Y-75846447D01*
X124646447Y-75800000D01*
X124616610Y-75770163D01*
X124850000Y-75770163D01*
X124850000Y-75829837D01*
X124872836Y-75884968D01*
X124915032Y-75927164D01*
X124970163Y-75950000D01*
X125029837Y-75950000D01*
X125084968Y-75927164D01*
X125127164Y-75884968D01*
X125150000Y-75829837D01*
X125150000Y-75800000D01*
X125353553Y-75800000D01*
X125400000Y-75846447D01*
X125446447Y-75800000D01*
X125416610Y-75770163D01*
X125650000Y-75770163D01*
X125650000Y-75829837D01*
X125672836Y-75884968D01*
X125715032Y-75927164D01*
X125770163Y-75950000D01*
X125829837Y-75950000D01*
X125884968Y-75927164D01*
X125927164Y-75884968D01*
X125950000Y-75829837D01*
X125950000Y-75800000D01*
X126153553Y-75800000D01*
X126153553Y-75800001D01*
X126324503Y-75970951D01*
X126335842Y-75943578D01*
X126335843Y-75943574D01*
X126354746Y-75800000D01*
X126354746Y-75799999D01*
X126335842Y-75656420D01*
X126324504Y-75629048D01*
X126324503Y-75629048D01*
X126153553Y-75800000D01*
X125950000Y-75800000D01*
X125950000Y-75770163D01*
X125927164Y-75715032D01*
X125884968Y-75672836D01*
X125829837Y-75650000D01*
X125770163Y-75650000D01*
X125715032Y-75672836D01*
X125672836Y-75715032D01*
X125650000Y-75770163D01*
X125416610Y-75770163D01*
X125400000Y-75753553D01*
X125353553Y-75800000D01*
X125150000Y-75800000D01*
X125150000Y-75770163D01*
X125127164Y-75715032D01*
X125084968Y-75672836D01*
X125029837Y-75650000D01*
X124970163Y-75650000D01*
X124915032Y-75672836D01*
X124872836Y-75715032D01*
X124850000Y-75770163D01*
X124616610Y-75770163D01*
X124600000Y-75753553D01*
X124553553Y-75800000D01*
X124350000Y-75800000D01*
X124350000Y-75770163D01*
X124327164Y-75715032D01*
X124284968Y-75672836D01*
X124229837Y-75650000D01*
X124170163Y-75650000D01*
X124115032Y-75672836D01*
X124072836Y-75715032D01*
X124050000Y-75770163D01*
X123816610Y-75770163D01*
X123675495Y-75629048D01*
X123664156Y-75656422D01*
X123645254Y-75799999D01*
X100500000Y-75799999D01*
X100500000Y-75400000D01*
X124153553Y-75400000D01*
X124200000Y-75446447D01*
X124246447Y-75400000D01*
X124953553Y-75400000D01*
X125000000Y-75446447D01*
X125046447Y-75400000D01*
X125753553Y-75400000D01*
X125800000Y-75446447D01*
X125846447Y-75400000D01*
X125800000Y-75353553D01*
X125753553Y-75400000D01*
X125046447Y-75400000D01*
X125000000Y-75353553D01*
X124953553Y-75400000D01*
X124246447Y-75400000D01*
X124200000Y-75353553D01*
X124153553Y-75400000D01*
X100500000Y-75400000D01*
X100500000Y-74999999D01*
X123645254Y-74999999D01*
X123645254Y-75000000D01*
X123664157Y-75143579D01*
X123664157Y-75143580D01*
X123675494Y-75170950D01*
X123846446Y-74999999D01*
X123816610Y-74970163D01*
X124050000Y-74970163D01*
X124050000Y-75029837D01*
X124072836Y-75084968D01*
X124115032Y-75127164D01*
X124170163Y-75150000D01*
X124229837Y-75150000D01*
X124284968Y-75127164D01*
X124327164Y-75084968D01*
X124350000Y-75029837D01*
X124350000Y-75000000D01*
X124553553Y-75000000D01*
X124600000Y-75046447D01*
X124646447Y-75000000D01*
X124616610Y-74970163D01*
X124850000Y-74970163D01*
X124850000Y-75029837D01*
X124872836Y-75084968D01*
X124915032Y-75127164D01*
X124970163Y-75150000D01*
X125029837Y-75150000D01*
X125084968Y-75127164D01*
X125127164Y-75084968D01*
X125150000Y-75029837D01*
X125150000Y-75000000D01*
X125353553Y-75000000D01*
X125400000Y-75046447D01*
X125446447Y-75000000D01*
X125416610Y-74970163D01*
X125650000Y-74970163D01*
X125650000Y-75029837D01*
X125672836Y-75084968D01*
X125715032Y-75127164D01*
X125770163Y-75150000D01*
X125829837Y-75150000D01*
X125884968Y-75127164D01*
X125927164Y-75084968D01*
X125950000Y-75029837D01*
X125950000Y-75000000D01*
X126153553Y-75000000D01*
X126153553Y-75000001D01*
X126324503Y-75170951D01*
X126335842Y-75143578D01*
X126335843Y-75143574D01*
X126354746Y-75000000D01*
X126354746Y-74999999D01*
X126335842Y-74856420D01*
X126324504Y-74829048D01*
X126324503Y-74829048D01*
X126153553Y-75000000D01*
X125950000Y-75000000D01*
X125950000Y-74970163D01*
X125927164Y-74915032D01*
X125884968Y-74872836D01*
X125829837Y-74850000D01*
X125770163Y-74850000D01*
X125715032Y-74872836D01*
X125672836Y-74915032D01*
X125650000Y-74970163D01*
X125416610Y-74970163D01*
X125400000Y-74953553D01*
X125353553Y-75000000D01*
X125150000Y-75000000D01*
X125150000Y-74970163D01*
X125127164Y-74915032D01*
X125084968Y-74872836D01*
X125029837Y-74850000D01*
X124970163Y-74850000D01*
X124915032Y-74872836D01*
X124872836Y-74915032D01*
X124850000Y-74970163D01*
X124616610Y-74970163D01*
X124600000Y-74953553D01*
X124553553Y-75000000D01*
X124350000Y-75000000D01*
X124350000Y-74970163D01*
X124327164Y-74915032D01*
X124284968Y-74872836D01*
X124229837Y-74850000D01*
X124170163Y-74850000D01*
X124115032Y-74872836D01*
X124072836Y-74915032D01*
X124050000Y-74970163D01*
X123816610Y-74970163D01*
X123675495Y-74829048D01*
X123664156Y-74856422D01*
X123645254Y-74999999D01*
X100500000Y-74999999D01*
X100500000Y-74600000D01*
X124153553Y-74600000D01*
X124200000Y-74646447D01*
X124246447Y-74600000D01*
X124953553Y-74600000D01*
X125000000Y-74646447D01*
X125046447Y-74600000D01*
X125753553Y-74600000D01*
X125800000Y-74646447D01*
X125846447Y-74600000D01*
X125800000Y-74553553D01*
X125753553Y-74600000D01*
X125046447Y-74600000D01*
X125000000Y-74553553D01*
X124953553Y-74600000D01*
X124246447Y-74600000D01*
X124200000Y-74553553D01*
X124153553Y-74600000D01*
X100500000Y-74600000D01*
X100500000Y-74199999D01*
X123645254Y-74199999D01*
X123645254Y-74200000D01*
X123664157Y-74343579D01*
X123664157Y-74343580D01*
X123675494Y-74370950D01*
X123846446Y-74199999D01*
X123816610Y-74170163D01*
X124050000Y-74170163D01*
X124050000Y-74229837D01*
X124072836Y-74284968D01*
X124115032Y-74327164D01*
X124170163Y-74350000D01*
X124229837Y-74350000D01*
X124284968Y-74327164D01*
X124327164Y-74284968D01*
X124350000Y-74229837D01*
X124350000Y-74200000D01*
X124553553Y-74200000D01*
X124600000Y-74246447D01*
X124646447Y-74200000D01*
X124616610Y-74170163D01*
X124850000Y-74170163D01*
X124850000Y-74229837D01*
X124872836Y-74284968D01*
X124915032Y-74327164D01*
X124970163Y-74350000D01*
X125029837Y-74350000D01*
X125084968Y-74327164D01*
X125127164Y-74284968D01*
X125150000Y-74229837D01*
X125150000Y-74200000D01*
X125353553Y-74200000D01*
X125400000Y-74246447D01*
X125446447Y-74200000D01*
X125416610Y-74170163D01*
X125650000Y-74170163D01*
X125650000Y-74229837D01*
X125672836Y-74284968D01*
X125715032Y-74327164D01*
X125770163Y-74350000D01*
X125829837Y-74350000D01*
X125884968Y-74327164D01*
X125927164Y-74284968D01*
X125950000Y-74229837D01*
X125950000Y-74200000D01*
X126153553Y-74200000D01*
X126153553Y-74200001D01*
X126324503Y-74370951D01*
X126335842Y-74343578D01*
X126335843Y-74343574D01*
X126354746Y-74200000D01*
X126354746Y-74199999D01*
X126335842Y-74056420D01*
X126324504Y-74029048D01*
X126324503Y-74029048D01*
X126153553Y-74200000D01*
X125950000Y-74200000D01*
X125950000Y-74170163D01*
X125927164Y-74115032D01*
X125884968Y-74072836D01*
X125829837Y-74050000D01*
X125770163Y-74050000D01*
X125715032Y-74072836D01*
X125672836Y-74115032D01*
X125650000Y-74170163D01*
X125416610Y-74170163D01*
X125400000Y-74153553D01*
X125353553Y-74200000D01*
X125150000Y-74200000D01*
X125150000Y-74170163D01*
X125127164Y-74115032D01*
X125084968Y-74072836D01*
X125029837Y-74050000D01*
X124970163Y-74050000D01*
X124915032Y-74072836D01*
X124872836Y-74115032D01*
X124850000Y-74170163D01*
X124616610Y-74170163D01*
X124600000Y-74153553D01*
X124553553Y-74200000D01*
X124350000Y-74200000D01*
X124350000Y-74170163D01*
X124327164Y-74115032D01*
X124284968Y-74072836D01*
X124229837Y-74050000D01*
X124170163Y-74050000D01*
X124115032Y-74072836D01*
X124072836Y-74115032D01*
X124050000Y-74170163D01*
X123816610Y-74170163D01*
X123675495Y-74029048D01*
X123664156Y-74056422D01*
X123645254Y-74199999D01*
X100500000Y-74199999D01*
X100500000Y-73675495D01*
X124029048Y-73675495D01*
X124199999Y-73846446D01*
X124370949Y-73675495D01*
X124829048Y-73675495D01*
X124999999Y-73846446D01*
X125170949Y-73675495D01*
X125629048Y-73675495D01*
X125799999Y-73846446D01*
X125970950Y-73675494D01*
X125943579Y-73664157D01*
X125800001Y-73645254D01*
X125799999Y-73645254D01*
X125656422Y-73664156D01*
X125629048Y-73675495D01*
X125170949Y-73675495D01*
X125170950Y-73675494D01*
X125143579Y-73664157D01*
X125000001Y-73645254D01*
X124999999Y-73645254D01*
X124856422Y-73664156D01*
X124829048Y-73675495D01*
X124370949Y-73675495D01*
X124370950Y-73675494D01*
X124343579Y-73664157D01*
X124200001Y-73645254D01*
X124199999Y-73645254D01*
X124056422Y-73664156D01*
X124029048Y-73675495D01*
X100500000Y-73675495D01*
X100500000Y-70999999D01*
X124444750Y-70999999D01*
X124444750Y-71000000D01*
X124463670Y-71143708D01*
X124463671Y-71143712D01*
X124519137Y-71277622D01*
X124519138Y-71277624D01*
X124519139Y-71277625D01*
X124607379Y-71392621D01*
X124722375Y-71480861D01*
X124856291Y-71536330D01*
X124983280Y-71553048D01*
X124999999Y-71555250D01*
X125000000Y-71555250D01*
X125000001Y-71555250D01*
X125014977Y-71553278D01*
X125143709Y-71536330D01*
X125277625Y-71480861D01*
X125392621Y-71392621D01*
X125480861Y-71277625D01*
X125536330Y-71143709D01*
X125555250Y-71000000D01*
X125536330Y-70856291D01*
X125480861Y-70722375D01*
X125392621Y-70607379D01*
X125277625Y-70519139D01*
X125277624Y-70519138D01*
X125277622Y-70519137D01*
X125143712Y-70463671D01*
X125143710Y-70463670D01*
X125143709Y-70463670D01*
X125071854Y-70454210D01*
X125000001Y-70444750D01*
X124999999Y-70444750D01*
X124856291Y-70463670D01*
X124856287Y-70463671D01*
X124722377Y-70519137D01*
X124607379Y-70607379D01*
X124519137Y-70722377D01*
X124463671Y-70856287D01*
X124463670Y-70856291D01*
X124444750Y-70999999D01*
X100500000Y-70999999D01*
X100500000Y-69999999D01*
X110444750Y-69999999D01*
X110444750Y-70000000D01*
X110463670Y-70143708D01*
X110463671Y-70143712D01*
X110519137Y-70277622D01*
X110519138Y-70277624D01*
X110519139Y-70277625D01*
X110607379Y-70392621D01*
X110722375Y-70480861D01*
X110856291Y-70536330D01*
X110983280Y-70553048D01*
X110999999Y-70555250D01*
X111000000Y-70555250D01*
X111000001Y-70555250D01*
X111014977Y-70553278D01*
X111143709Y-70536330D01*
X111277625Y-70480861D01*
X111392621Y-70392621D01*
X111480861Y-70277625D01*
X111536330Y-70143709D01*
X111555250Y-70000000D01*
X111555250Y-69999999D01*
X138444750Y-69999999D01*
X138444750Y-70000000D01*
X138463670Y-70143708D01*
X138463671Y-70143712D01*
X138519137Y-70277622D01*
X138519138Y-70277624D01*
X138519139Y-70277625D01*
X138607379Y-70392621D01*
X138722375Y-70480861D01*
X138856291Y-70536330D01*
X138983280Y-70553048D01*
X138999999Y-70555250D01*
X139000000Y-70555250D01*
X139000001Y-70555250D01*
X139014977Y-70553278D01*
X139143709Y-70536330D01*
X139277625Y-70480861D01*
X139392621Y-70392621D01*
X139480861Y-70277625D01*
X139536330Y-70143709D01*
X139555250Y-70000000D01*
X139536330Y-69856291D01*
X139480861Y-69722375D01*
X139392621Y-69607379D01*
X139277625Y-69519139D01*
X139277624Y-69519138D01*
X139277622Y-69519137D01*
X139143712Y-69463671D01*
X139143710Y-69463670D01*
X139143709Y-69463670D01*
X139071854Y-69454210D01*
X139000001Y-69444750D01*
X138999999Y-69444750D01*
X138856291Y-69463670D01*
X138856287Y-69463671D01*
X138722377Y-69519137D01*
X138607379Y-69607379D01*
X138519137Y-69722377D01*
X138463671Y-69856287D01*
X138463670Y-69856291D01*
X138444750Y-69999999D01*
X111555250Y-69999999D01*
X111536330Y-69856291D01*
X111480861Y-69722375D01*
X111392621Y-69607379D01*
X111277625Y-69519139D01*
X111277624Y-69519138D01*
X111277622Y-69519137D01*
X111143712Y-69463671D01*
X111143710Y-69463670D01*
X111143709Y-69463670D01*
X111071854Y-69454210D01*
X111000001Y-69444750D01*
X110999999Y-69444750D01*
X110856291Y-69463670D01*
X110856287Y-69463671D01*
X110722377Y-69519137D01*
X110607379Y-69607379D01*
X110519137Y-69722377D01*
X110463671Y-69856287D01*
X110463670Y-69856291D01*
X110444750Y-69999999D01*
X100500000Y-69999999D01*
X100500000Y-61999999D01*
X111444750Y-61999999D01*
X111444750Y-62000000D01*
X111463670Y-62143708D01*
X111463671Y-62143712D01*
X111519137Y-62277622D01*
X111519138Y-62277624D01*
X111519139Y-62277625D01*
X111607379Y-62392621D01*
X111722375Y-62480861D01*
X111856291Y-62536330D01*
X111983280Y-62553048D01*
X111999999Y-62555250D01*
X112000000Y-62555250D01*
X112000001Y-62555250D01*
X112014977Y-62553278D01*
X112143709Y-62536330D01*
X112277625Y-62480861D01*
X112392621Y-62392621D01*
X112480861Y-62277625D01*
X112536330Y-62143709D01*
X112555250Y-62000000D01*
X112536330Y-61856291D01*
X112480861Y-61722375D01*
X112392621Y-61607379D01*
X112277625Y-61519139D01*
X112277624Y-61519138D01*
X112277622Y-61519137D01*
X112143712Y-61463671D01*
X112143710Y-61463670D01*
X112143709Y-61463670D01*
X112071854Y-61454210D01*
X112000001Y-61444750D01*
X111999999Y-61444750D01*
X111856291Y-61463670D01*
X111856287Y-61463671D01*
X111722377Y-61519137D01*
X111607379Y-61607379D01*
X111519137Y-61722377D01*
X111463671Y-61856287D01*
X111463670Y-61856291D01*
X111444750Y-61999999D01*
X100500000Y-61999999D01*
X100500000Y-59999999D01*
X124444750Y-59999999D01*
X124444750Y-60000000D01*
X124463670Y-60143708D01*
X124463671Y-60143712D01*
X124519137Y-60277622D01*
X124519138Y-60277624D01*
X124519139Y-60277625D01*
X124607379Y-60392621D01*
X124722375Y-60480861D01*
X124856291Y-60536330D01*
X124983280Y-60553048D01*
X124999999Y-60555250D01*
X125000000Y-60555250D01*
X125000001Y-60555250D01*
X125014977Y-60553278D01*
X125143709Y-60536330D01*
X125277625Y-60480861D01*
X125392621Y-60392621D01*
X125480861Y-60277625D01*
X125536330Y-60143709D01*
X125555250Y-60000000D01*
X125536330Y-59856291D01*
X125480861Y-59722375D01*
X125392621Y-59607379D01*
X125277625Y-59519139D01*
X125277624Y-59519138D01*
X125277622Y-59519137D01*
X125143712Y-59463671D01*
X125143710Y-59463670D01*
X125143709Y-59463670D01*
X125071854Y-59454210D01*
X125000001Y-59444750D01*
X124999999Y-59444750D01*
X124856291Y-59463670D01*
X124856287Y-59463671D01*
X124722377Y-59519137D01*
X124607379Y-59607379D01*
X124519137Y-59722377D01*
X124463671Y-59856287D01*
X124463670Y-59856291D01*
X124444750Y-59999999D01*
X100500000Y-59999999D01*
X100500000Y-53885258D01*
X102249500Y-53885258D01*
X102249500Y-54114741D01*
X102274446Y-54304215D01*
X102279452Y-54342238D01*
X102279453Y-54342240D01*
X102338842Y-54563887D01*
X102426650Y-54775876D01*
X102426657Y-54775890D01*
X102541392Y-54974617D01*
X102681081Y-55156661D01*
X102681089Y-55156670D01*
X102843330Y-55318911D01*
X102843338Y-55318918D01*
X103025382Y-55458607D01*
X103025385Y-55458608D01*
X103025388Y-55458611D01*
X103224112Y-55573344D01*
X103224117Y-55573346D01*
X103224123Y-55573349D01*
X103315480Y-55611190D01*
X103436113Y-55661158D01*
X103657762Y-55720548D01*
X103885266Y-55750500D01*
X103885273Y-55750500D01*
X104114727Y-55750500D01*
X104114734Y-55750500D01*
X104342238Y-55720548D01*
X104563887Y-55661158D01*
X104775888Y-55573344D01*
X104974612Y-55458611D01*
X105156661Y-55318919D01*
X105156665Y-55318914D01*
X105156670Y-55318911D01*
X105318911Y-55156670D01*
X105318914Y-55156665D01*
X105318919Y-55156661D01*
X105458611Y-54974612D01*
X105573344Y-54775888D01*
X105661158Y-54563887D01*
X105720548Y-54342238D01*
X105750500Y-54114734D01*
X105750500Y-53885266D01*
X105750499Y-53885258D01*
X144249500Y-53885258D01*
X144249500Y-54114741D01*
X144274446Y-54304215D01*
X144279452Y-54342238D01*
X144279453Y-54342240D01*
X144338842Y-54563887D01*
X144426650Y-54775876D01*
X144426657Y-54775890D01*
X144541392Y-54974617D01*
X144681081Y-55156661D01*
X144681089Y-55156670D01*
X144843330Y-55318911D01*
X144843338Y-55318918D01*
X145025382Y-55458607D01*
X145025385Y-55458608D01*
X145025388Y-55458611D01*
X145224112Y-55573344D01*
X145224117Y-55573346D01*
X145224123Y-55573349D01*
X145315480Y-55611190D01*
X145436113Y-55661158D01*
X145657762Y-55720548D01*
X145885266Y-55750500D01*
X145885273Y-55750500D01*
X146114727Y-55750500D01*
X146114734Y-55750500D01*
X146342238Y-55720548D01*
X146563887Y-55661158D01*
X146775888Y-55573344D01*
X146974612Y-55458611D01*
X147156661Y-55318919D01*
X147156665Y-55318914D01*
X147156670Y-55318911D01*
X147318911Y-55156670D01*
X147318914Y-55156665D01*
X147318919Y-55156661D01*
X147458611Y-54974612D01*
X147573344Y-54775888D01*
X147661158Y-54563887D01*
X147720548Y-54342238D01*
X147750500Y-54114734D01*
X147750500Y-53885266D01*
X147720548Y-53657762D01*
X147661158Y-53436113D01*
X147573344Y-53224112D01*
X147458611Y-53025388D01*
X147458608Y-53025385D01*
X147458607Y-53025382D01*
X147318918Y-52843338D01*
X147318911Y-52843330D01*
X147156670Y-52681089D01*
X147156661Y-52681081D01*
X146974617Y-52541392D01*
X146775890Y-52426657D01*
X146775876Y-52426650D01*
X146563887Y-52338842D01*
X146342238Y-52279452D01*
X146304215Y-52274446D01*
X146114741Y-52249500D01*
X146114734Y-52249500D01*
X145885266Y-52249500D01*
X145885258Y-52249500D01*
X145668715Y-52278009D01*
X145657762Y-52279452D01*
X145564076Y-52304554D01*
X145436112Y-52338842D01*
X145224123Y-52426650D01*
X145224109Y-52426657D01*
X145025382Y-52541392D01*
X144843338Y-52681081D01*
X144681081Y-52843338D01*
X144541392Y-53025382D01*
X144426657Y-53224109D01*
X144426650Y-53224123D01*
X144338842Y-53436112D01*
X144279453Y-53657759D01*
X144279451Y-53657770D01*
X144249500Y-53885258D01*
X105750499Y-53885258D01*
X105720548Y-53657762D01*
X105661158Y-53436113D01*
X105573344Y-53224112D01*
X105458611Y-53025388D01*
X105458608Y-53025385D01*
X105458607Y-53025382D01*
X105318918Y-52843338D01*
X105318911Y-52843330D01*
X105156670Y-52681089D01*
X105156661Y-52681081D01*
X104974617Y-52541392D01*
X104775890Y-52426657D01*
X104775876Y-52426650D01*
X104563887Y-52338842D01*
X104342238Y-52279452D01*
X104304215Y-52274446D01*
X104114741Y-52249500D01*
X104114734Y-52249500D01*
X103885266Y-52249500D01*
X103885258Y-52249500D01*
X103668715Y-52278009D01*
X103657762Y-52279452D01*
X103564076Y-52304554D01*
X103436112Y-52338842D01*
X103224123Y-52426650D01*
X103224109Y-52426657D01*
X103025382Y-52541392D01*
X102843338Y-52681081D01*
X102681081Y-52843338D01*
X102541392Y-53025382D01*
X102426657Y-53224109D01*
X102426650Y-53224123D01*
X102338842Y-53436112D01*
X102279453Y-53657759D01*
X102279451Y-53657770D01*
X102249500Y-53885258D01*
X100500000Y-53885258D01*
X100500000Y-50624000D01*
X100519685Y-50556961D01*
X100572489Y-50511206D01*
X100624000Y-50500000D01*
X149376000Y-50500000D01*
X149443039Y-50519685D01*
G37*
%TD.AperFunction*%
%TD*%
M02*
