%TF.GenerationSoftware,KiCad,Pcbnew,8.0.5-8.0.5-0~ubuntu22.04.1*%
%TF.CreationDate,2025-01-06T19:31:02-03:00*%
%TF.ProjectId,preenfasis,70726565-6e66-4617-9369-732e6b696361,v1.1*%
%TF.SameCoordinates,Original*%
%TF.FileFunction,Legend,Top*%
%TF.FilePolarity,Positive*%
%FSLAX46Y46*%
G04 Gerber Fmt 4.6, Leading zero omitted, Abs format (unit mm)*
G04 Created by KiCad (PCBNEW 8.0.5-8.0.5-0~ubuntu22.04.1) date 2025-01-06 19:31:02*
%MOMM*%
%LPD*%
G01*
G04 APERTURE LIST*
%ADD10C,0.100000*%
%ADD11C,0.150000*%
%ADD12C,0.120000*%
G04 APERTURE END LIST*
D10*
X105500000Y-95060000D02*
X119500000Y-95060000D01*
X119500000Y-99060000D01*
X105500000Y-99060000D01*
X105500000Y-95060000D01*
G36*
X105500000Y-95060000D02*
G01*
X119500000Y-95060000D01*
X119500000Y-99060000D01*
X105500000Y-99060000D01*
X105500000Y-95060000D01*
G37*
X105500000Y-60960000D02*
X119500000Y-60960000D01*
X119500000Y-64960000D01*
X105500000Y-64960000D01*
X105500000Y-60960000D01*
G36*
X105500000Y-60960000D02*
G01*
X119500000Y-60960000D01*
X119500000Y-64960000D01*
X105500000Y-64960000D01*
X105500000Y-60960000D01*
G37*
X105666265Y-65880704D02*
X106142455Y-65880704D01*
X105571027Y-66166419D02*
X105904360Y-65166419D01*
X105904360Y-65166419D02*
X106237693Y-66166419D01*
X106523408Y-66118800D02*
X106618646Y-66166419D01*
X106618646Y-66166419D02*
X106809122Y-66166419D01*
X106809122Y-66166419D02*
X106904360Y-66118800D01*
X106904360Y-66118800D02*
X106951979Y-66023561D01*
X106951979Y-66023561D02*
X106951979Y-65975942D01*
X106951979Y-65975942D02*
X106904360Y-65880704D01*
X106904360Y-65880704D02*
X106809122Y-65833085D01*
X106809122Y-65833085D02*
X106666265Y-65833085D01*
X106666265Y-65833085D02*
X106571027Y-65785466D01*
X106571027Y-65785466D02*
X106523408Y-65690228D01*
X106523408Y-65690228D02*
X106523408Y-65642609D01*
X106523408Y-65642609D02*
X106571027Y-65547371D01*
X106571027Y-65547371D02*
X106666265Y-65499752D01*
X106666265Y-65499752D02*
X106809122Y-65499752D01*
X106809122Y-65499752D02*
X106904360Y-65547371D01*
X107332932Y-66118800D02*
X107428170Y-66166419D01*
X107428170Y-66166419D02*
X107618646Y-66166419D01*
X107618646Y-66166419D02*
X107713884Y-66118800D01*
X107713884Y-66118800D02*
X107761503Y-66023561D01*
X107761503Y-66023561D02*
X107761503Y-65975942D01*
X107761503Y-65975942D02*
X107713884Y-65880704D01*
X107713884Y-65880704D02*
X107618646Y-65833085D01*
X107618646Y-65833085D02*
X107475789Y-65833085D01*
X107475789Y-65833085D02*
X107380551Y-65785466D01*
X107380551Y-65785466D02*
X107332932Y-65690228D01*
X107332932Y-65690228D02*
X107332932Y-65642609D01*
X107332932Y-65642609D02*
X107380551Y-65547371D01*
X107380551Y-65547371D02*
X107475789Y-65499752D01*
X107475789Y-65499752D02*
X107618646Y-65499752D01*
X107618646Y-65499752D02*
X107713884Y-65547371D01*
X108094837Y-65499752D02*
X108332932Y-66166419D01*
X108571027Y-65499752D02*
X108332932Y-66166419D01*
X108332932Y-66166419D02*
X108237694Y-66404514D01*
X108237694Y-66404514D02*
X108190075Y-66452133D01*
X108190075Y-66452133D02*
X108094837Y-66499752D01*
X105666265Y-94566800D02*
X105809122Y-94614419D01*
X105809122Y-94614419D02*
X106047217Y-94614419D01*
X106047217Y-94614419D02*
X106142455Y-94566800D01*
X106142455Y-94566800D02*
X106190074Y-94519180D01*
X106190074Y-94519180D02*
X106237693Y-94423942D01*
X106237693Y-94423942D02*
X106237693Y-94328704D01*
X106237693Y-94328704D02*
X106190074Y-94233466D01*
X106190074Y-94233466D02*
X106142455Y-94185847D01*
X106142455Y-94185847D02*
X106047217Y-94138228D01*
X106047217Y-94138228D02*
X105856741Y-94090609D01*
X105856741Y-94090609D02*
X105761503Y-94042990D01*
X105761503Y-94042990D02*
X105713884Y-93995371D01*
X105713884Y-93995371D02*
X105666265Y-93900133D01*
X105666265Y-93900133D02*
X105666265Y-93804895D01*
X105666265Y-93804895D02*
X105713884Y-93709657D01*
X105713884Y-93709657D02*
X105761503Y-93662038D01*
X105761503Y-93662038D02*
X105856741Y-93614419D01*
X105856741Y-93614419D02*
X106094836Y-93614419D01*
X106094836Y-93614419D02*
X106237693Y-93662038D01*
X107380550Y-93566800D02*
X106523408Y-94852514D01*
X107713884Y-94614419D02*
X107713884Y-93614419D01*
X107713884Y-93614419D02*
X108285312Y-94614419D01*
X108285312Y-94614419D02*
X108285312Y-93614419D01*
D11*
X114133333Y-92148819D02*
X113657143Y-92148819D01*
X113657143Y-92148819D02*
X113657143Y-91148819D01*
X114419048Y-91244057D02*
X114466667Y-91196438D01*
X114466667Y-91196438D02*
X114561905Y-91148819D01*
X114561905Y-91148819D02*
X114800000Y-91148819D01*
X114800000Y-91148819D02*
X114895238Y-91196438D01*
X114895238Y-91196438D02*
X114942857Y-91244057D01*
X114942857Y-91244057D02*
X114990476Y-91339295D01*
X114990476Y-91339295D02*
X114990476Y-91434533D01*
X114990476Y-91434533D02*
X114942857Y-91577390D01*
X114942857Y-91577390D02*
X114371429Y-92148819D01*
X114371429Y-92148819D02*
X114990476Y-92148819D01*
X110323333Y-72844819D02*
X109990000Y-72368628D01*
X109751905Y-72844819D02*
X109751905Y-71844819D01*
X109751905Y-71844819D02*
X110132857Y-71844819D01*
X110132857Y-71844819D02*
X110228095Y-71892438D01*
X110228095Y-71892438D02*
X110275714Y-71940057D01*
X110275714Y-71940057D02*
X110323333Y-72035295D01*
X110323333Y-72035295D02*
X110323333Y-72178152D01*
X110323333Y-72178152D02*
X110275714Y-72273390D01*
X110275714Y-72273390D02*
X110228095Y-72321009D01*
X110228095Y-72321009D02*
X110132857Y-72368628D01*
X110132857Y-72368628D02*
X109751905Y-72368628D01*
X110656667Y-71844819D02*
X111323333Y-71844819D01*
X111323333Y-71844819D02*
X110894762Y-72844819D01*
X122428095Y-66494819D02*
X122428095Y-65494819D01*
X122428095Y-65971009D02*
X122999523Y-65971009D01*
X122999523Y-66494819D02*
X122999523Y-65494819D01*
X123380476Y-65494819D02*
X123999523Y-65494819D01*
X123999523Y-65494819D02*
X123666190Y-65875771D01*
X123666190Y-65875771D02*
X123809047Y-65875771D01*
X123809047Y-65875771D02*
X123904285Y-65923390D01*
X123904285Y-65923390D02*
X123951904Y-65971009D01*
X123951904Y-65971009D02*
X123999523Y-66066247D01*
X123999523Y-66066247D02*
X123999523Y-66304342D01*
X123999523Y-66304342D02*
X123951904Y-66399580D01*
X123951904Y-66399580D02*
X123904285Y-66447200D01*
X123904285Y-66447200D02*
X123809047Y-66494819D01*
X123809047Y-66494819D02*
X123523333Y-66494819D01*
X123523333Y-66494819D02*
X123428095Y-66447200D01*
X123428095Y-66447200D02*
X123380476Y-66399580D01*
X114133333Y-86560819D02*
X113657143Y-86560819D01*
X113657143Y-86560819D02*
X113657143Y-85560819D01*
X114990476Y-86560819D02*
X114419048Y-86560819D01*
X114704762Y-86560819D02*
X114704762Y-85560819D01*
X114704762Y-85560819D02*
X114609524Y-85703676D01*
X114609524Y-85703676D02*
X114514286Y-85798914D01*
X114514286Y-85798914D02*
X114419048Y-85846533D01*
X114133333Y-72844819D02*
X113800000Y-72368628D01*
X113561905Y-72844819D02*
X113561905Y-71844819D01*
X113561905Y-71844819D02*
X113942857Y-71844819D01*
X113942857Y-71844819D02*
X114038095Y-71892438D01*
X114038095Y-71892438D02*
X114085714Y-71940057D01*
X114085714Y-71940057D02*
X114133333Y-72035295D01*
X114133333Y-72035295D02*
X114133333Y-72178152D01*
X114133333Y-72178152D02*
X114085714Y-72273390D01*
X114085714Y-72273390D02*
X114038095Y-72321009D01*
X114038095Y-72321009D02*
X113942857Y-72368628D01*
X113942857Y-72368628D02*
X113561905Y-72368628D01*
X114704762Y-72273390D02*
X114609524Y-72225771D01*
X114609524Y-72225771D02*
X114561905Y-72178152D01*
X114561905Y-72178152D02*
X114514286Y-72082914D01*
X114514286Y-72082914D02*
X114514286Y-72035295D01*
X114514286Y-72035295D02*
X114561905Y-71940057D01*
X114561905Y-71940057D02*
X114609524Y-71892438D01*
X114609524Y-71892438D02*
X114704762Y-71844819D01*
X114704762Y-71844819D02*
X114895238Y-71844819D01*
X114895238Y-71844819D02*
X114990476Y-71892438D01*
X114990476Y-71892438D02*
X115038095Y-71940057D01*
X115038095Y-71940057D02*
X115085714Y-72035295D01*
X115085714Y-72035295D02*
X115085714Y-72082914D01*
X115085714Y-72082914D02*
X115038095Y-72178152D01*
X115038095Y-72178152D02*
X114990476Y-72225771D01*
X114990476Y-72225771D02*
X114895238Y-72273390D01*
X114895238Y-72273390D02*
X114704762Y-72273390D01*
X114704762Y-72273390D02*
X114609524Y-72321009D01*
X114609524Y-72321009D02*
X114561905Y-72368628D01*
X114561905Y-72368628D02*
X114514286Y-72463866D01*
X114514286Y-72463866D02*
X114514286Y-72654342D01*
X114514286Y-72654342D02*
X114561905Y-72749580D01*
X114561905Y-72749580D02*
X114609524Y-72797200D01*
X114609524Y-72797200D02*
X114704762Y-72844819D01*
X114704762Y-72844819D02*
X114895238Y-72844819D01*
X114895238Y-72844819D02*
X114990476Y-72797200D01*
X114990476Y-72797200D02*
X115038095Y-72749580D01*
X115038095Y-72749580D02*
X115085714Y-72654342D01*
X115085714Y-72654342D02*
X115085714Y-72463866D01*
X115085714Y-72463866D02*
X115038095Y-72368628D01*
X115038095Y-72368628D02*
X114990476Y-72321009D01*
X114990476Y-72321009D02*
X114895238Y-72273390D01*
X114133333Y-89354819D02*
X113800000Y-88878628D01*
X113561905Y-89354819D02*
X113561905Y-88354819D01*
X113561905Y-88354819D02*
X113942857Y-88354819D01*
X113942857Y-88354819D02*
X114038095Y-88402438D01*
X114038095Y-88402438D02*
X114085714Y-88450057D01*
X114085714Y-88450057D02*
X114133333Y-88545295D01*
X114133333Y-88545295D02*
X114133333Y-88688152D01*
X114133333Y-88688152D02*
X114085714Y-88783390D01*
X114085714Y-88783390D02*
X114038095Y-88831009D01*
X114038095Y-88831009D02*
X113942857Y-88878628D01*
X113942857Y-88878628D02*
X113561905Y-88878628D01*
X114990476Y-88688152D02*
X114990476Y-89354819D01*
X114752381Y-88307200D02*
X114514286Y-89021485D01*
X114514286Y-89021485D02*
X115133333Y-89021485D01*
X112228333Y-88084819D02*
X111895000Y-87608628D01*
X111656905Y-88084819D02*
X111656905Y-87084819D01*
X111656905Y-87084819D02*
X112037857Y-87084819D01*
X112037857Y-87084819D02*
X112133095Y-87132438D01*
X112133095Y-87132438D02*
X112180714Y-87180057D01*
X112180714Y-87180057D02*
X112228333Y-87275295D01*
X112228333Y-87275295D02*
X112228333Y-87418152D01*
X112228333Y-87418152D02*
X112180714Y-87513390D01*
X112180714Y-87513390D02*
X112133095Y-87561009D01*
X112133095Y-87561009D02*
X112037857Y-87608628D01*
X112037857Y-87608628D02*
X111656905Y-87608628D01*
X112609286Y-87180057D02*
X112656905Y-87132438D01*
X112656905Y-87132438D02*
X112752143Y-87084819D01*
X112752143Y-87084819D02*
X112990238Y-87084819D01*
X112990238Y-87084819D02*
X113085476Y-87132438D01*
X113085476Y-87132438D02*
X113133095Y-87180057D01*
X113133095Y-87180057D02*
X113180714Y-87275295D01*
X113180714Y-87275295D02*
X113180714Y-87370533D01*
X113180714Y-87370533D02*
X113133095Y-87513390D01*
X113133095Y-87513390D02*
X112561667Y-88084819D01*
X112561667Y-88084819D02*
X113180714Y-88084819D01*
X100838095Y-66494819D02*
X100838095Y-65494819D01*
X100838095Y-65971009D02*
X101409523Y-65971009D01*
X101409523Y-66494819D02*
X101409523Y-65494819D01*
X102314285Y-65828152D02*
X102314285Y-66494819D01*
X102076190Y-65447200D02*
X101838095Y-66161485D01*
X101838095Y-66161485D02*
X102457142Y-66161485D01*
X103806666Y-66764819D02*
X103806666Y-67479104D01*
X103806666Y-67479104D02*
X103759047Y-67621961D01*
X103759047Y-67621961D02*
X103663809Y-67717200D01*
X103663809Y-67717200D02*
X103520952Y-67764819D01*
X103520952Y-67764819D02*
X103425714Y-67764819D01*
X104187619Y-66764819D02*
X104806666Y-66764819D01*
X104806666Y-66764819D02*
X104473333Y-67145771D01*
X104473333Y-67145771D02*
X104616190Y-67145771D01*
X104616190Y-67145771D02*
X104711428Y-67193390D01*
X104711428Y-67193390D02*
X104759047Y-67241009D01*
X104759047Y-67241009D02*
X104806666Y-67336247D01*
X104806666Y-67336247D02*
X104806666Y-67574342D01*
X104806666Y-67574342D02*
X104759047Y-67669580D01*
X104759047Y-67669580D02*
X104711428Y-67717200D01*
X104711428Y-67717200D02*
X104616190Y-67764819D01*
X104616190Y-67764819D02*
X104330476Y-67764819D01*
X104330476Y-67764819D02*
X104235238Y-67717200D01*
X104235238Y-67717200D02*
X104187619Y-67669580D01*
X110323333Y-92053580D02*
X110275714Y-92101200D01*
X110275714Y-92101200D02*
X110132857Y-92148819D01*
X110132857Y-92148819D02*
X110037619Y-92148819D01*
X110037619Y-92148819D02*
X109894762Y-92101200D01*
X109894762Y-92101200D02*
X109799524Y-92005961D01*
X109799524Y-92005961D02*
X109751905Y-91910723D01*
X109751905Y-91910723D02*
X109704286Y-91720247D01*
X109704286Y-91720247D02*
X109704286Y-91577390D01*
X109704286Y-91577390D02*
X109751905Y-91386914D01*
X109751905Y-91386914D02*
X109799524Y-91291676D01*
X109799524Y-91291676D02*
X109894762Y-91196438D01*
X109894762Y-91196438D02*
X110037619Y-91148819D01*
X110037619Y-91148819D02*
X110132857Y-91148819D01*
X110132857Y-91148819D02*
X110275714Y-91196438D01*
X110275714Y-91196438D02*
X110323333Y-91244057D01*
X110704286Y-91244057D02*
X110751905Y-91196438D01*
X110751905Y-91196438D02*
X110847143Y-91148819D01*
X110847143Y-91148819D02*
X111085238Y-91148819D01*
X111085238Y-91148819D02*
X111180476Y-91196438D01*
X111180476Y-91196438D02*
X111228095Y-91244057D01*
X111228095Y-91244057D02*
X111275714Y-91339295D01*
X111275714Y-91339295D02*
X111275714Y-91434533D01*
X111275714Y-91434533D02*
X111228095Y-91577390D01*
X111228095Y-91577390D02*
X110656667Y-92148819D01*
X110656667Y-92148819D02*
X111275714Y-92148819D01*
X115403333Y-84274819D02*
X115070000Y-83798628D01*
X114831905Y-84274819D02*
X114831905Y-83274819D01*
X114831905Y-83274819D02*
X115212857Y-83274819D01*
X115212857Y-83274819D02*
X115308095Y-83322438D01*
X115308095Y-83322438D02*
X115355714Y-83370057D01*
X115355714Y-83370057D02*
X115403333Y-83465295D01*
X115403333Y-83465295D02*
X115403333Y-83608152D01*
X115403333Y-83608152D02*
X115355714Y-83703390D01*
X115355714Y-83703390D02*
X115308095Y-83751009D01*
X115308095Y-83751009D02*
X115212857Y-83798628D01*
X115212857Y-83798628D02*
X114831905Y-83798628D01*
X116355714Y-84274819D02*
X115784286Y-84274819D01*
X116070000Y-84274819D02*
X116070000Y-83274819D01*
X116070000Y-83274819D02*
X115974762Y-83417676D01*
X115974762Y-83417676D02*
X115879524Y-83512914D01*
X115879524Y-83512914D02*
X115784286Y-83560533D01*
X110323333Y-86465580D02*
X110275714Y-86513200D01*
X110275714Y-86513200D02*
X110132857Y-86560819D01*
X110132857Y-86560819D02*
X110037619Y-86560819D01*
X110037619Y-86560819D02*
X109894762Y-86513200D01*
X109894762Y-86513200D02*
X109799524Y-86417961D01*
X109799524Y-86417961D02*
X109751905Y-86322723D01*
X109751905Y-86322723D02*
X109704286Y-86132247D01*
X109704286Y-86132247D02*
X109704286Y-85989390D01*
X109704286Y-85989390D02*
X109751905Y-85798914D01*
X109751905Y-85798914D02*
X109799524Y-85703676D01*
X109799524Y-85703676D02*
X109894762Y-85608438D01*
X109894762Y-85608438D02*
X110037619Y-85560819D01*
X110037619Y-85560819D02*
X110132857Y-85560819D01*
X110132857Y-85560819D02*
X110275714Y-85608438D01*
X110275714Y-85608438D02*
X110323333Y-85656057D01*
X111275714Y-86560819D02*
X110704286Y-86560819D01*
X110990000Y-86560819D02*
X110990000Y-85560819D01*
X110990000Y-85560819D02*
X110894762Y-85703676D01*
X110894762Y-85703676D02*
X110799524Y-85798914D01*
X110799524Y-85798914D02*
X110704286Y-85846533D01*
X110323333Y-69955580D02*
X110275714Y-70003200D01*
X110275714Y-70003200D02*
X110132857Y-70050819D01*
X110132857Y-70050819D02*
X110037619Y-70050819D01*
X110037619Y-70050819D02*
X109894762Y-70003200D01*
X109894762Y-70003200D02*
X109799524Y-69907961D01*
X109799524Y-69907961D02*
X109751905Y-69812723D01*
X109751905Y-69812723D02*
X109704286Y-69622247D01*
X109704286Y-69622247D02*
X109704286Y-69479390D01*
X109704286Y-69479390D02*
X109751905Y-69288914D01*
X109751905Y-69288914D02*
X109799524Y-69193676D01*
X109799524Y-69193676D02*
X109894762Y-69098438D01*
X109894762Y-69098438D02*
X110037619Y-69050819D01*
X110037619Y-69050819D02*
X110132857Y-69050819D01*
X110132857Y-69050819D02*
X110275714Y-69098438D01*
X110275714Y-69098438D02*
X110323333Y-69146057D01*
X110656667Y-69050819D02*
X111275714Y-69050819D01*
X111275714Y-69050819D02*
X110942381Y-69431771D01*
X110942381Y-69431771D02*
X111085238Y-69431771D01*
X111085238Y-69431771D02*
X111180476Y-69479390D01*
X111180476Y-69479390D02*
X111228095Y-69527009D01*
X111228095Y-69527009D02*
X111275714Y-69622247D01*
X111275714Y-69622247D02*
X111275714Y-69860342D01*
X111275714Y-69860342D02*
X111228095Y-69955580D01*
X111228095Y-69955580D02*
X111180476Y-70003200D01*
X111180476Y-70003200D02*
X111085238Y-70050819D01*
X111085238Y-70050819D02*
X110799524Y-70050819D01*
X110799524Y-70050819D02*
X110704286Y-70003200D01*
X110704286Y-70003200D02*
X110656667Y-69955580D01*
X114133333Y-70050819D02*
X113657143Y-70050819D01*
X113657143Y-70050819D02*
X113657143Y-69050819D01*
X114371429Y-69050819D02*
X114990476Y-69050819D01*
X114990476Y-69050819D02*
X114657143Y-69431771D01*
X114657143Y-69431771D02*
X114800000Y-69431771D01*
X114800000Y-69431771D02*
X114895238Y-69479390D01*
X114895238Y-69479390D02*
X114942857Y-69527009D01*
X114942857Y-69527009D02*
X114990476Y-69622247D01*
X114990476Y-69622247D02*
X114990476Y-69860342D01*
X114990476Y-69860342D02*
X114942857Y-69955580D01*
X114942857Y-69955580D02*
X114895238Y-70003200D01*
X114895238Y-70003200D02*
X114800000Y-70050819D01*
X114800000Y-70050819D02*
X114514286Y-70050819D01*
X114514286Y-70050819D02*
X114419048Y-70003200D01*
X114419048Y-70003200D02*
X114371429Y-69955580D01*
X115403333Y-67764819D02*
X115070000Y-67288628D01*
X114831905Y-67764819D02*
X114831905Y-66764819D01*
X114831905Y-66764819D02*
X115212857Y-66764819D01*
X115212857Y-66764819D02*
X115308095Y-66812438D01*
X115308095Y-66812438D02*
X115355714Y-66860057D01*
X115355714Y-66860057D02*
X115403333Y-66955295D01*
X115403333Y-66955295D02*
X115403333Y-67098152D01*
X115403333Y-67098152D02*
X115355714Y-67193390D01*
X115355714Y-67193390D02*
X115308095Y-67241009D01*
X115308095Y-67241009D02*
X115212857Y-67288628D01*
X115212857Y-67288628D02*
X114831905Y-67288628D01*
X116308095Y-66764819D02*
X115831905Y-66764819D01*
X115831905Y-66764819D02*
X115784286Y-67241009D01*
X115784286Y-67241009D02*
X115831905Y-67193390D01*
X115831905Y-67193390D02*
X115927143Y-67145771D01*
X115927143Y-67145771D02*
X116165238Y-67145771D01*
X116165238Y-67145771D02*
X116260476Y-67193390D01*
X116260476Y-67193390D02*
X116308095Y-67241009D01*
X116308095Y-67241009D02*
X116355714Y-67336247D01*
X116355714Y-67336247D02*
X116355714Y-67574342D01*
X116355714Y-67574342D02*
X116308095Y-67669580D01*
X116308095Y-67669580D02*
X116260476Y-67717200D01*
X116260476Y-67717200D02*
X116165238Y-67764819D01*
X116165238Y-67764819D02*
X115927143Y-67764819D01*
X115927143Y-67764819D02*
X115831905Y-67717200D01*
X115831905Y-67717200D02*
X115784286Y-67669580D01*
X122428095Y-94942819D02*
X122428095Y-93942819D01*
X122428095Y-94419009D02*
X122999523Y-94419009D01*
X122999523Y-94942819D02*
X122999523Y-93942819D01*
X123999523Y-94942819D02*
X123428095Y-94942819D01*
X123713809Y-94942819D02*
X123713809Y-93942819D01*
X123713809Y-93942819D02*
X123618571Y-94085676D01*
X123618571Y-94085676D02*
X123523333Y-94180914D01*
X123523333Y-94180914D02*
X123428095Y-94228533D01*
X120316666Y-83274819D02*
X120316666Y-83989104D01*
X120316666Y-83989104D02*
X120269047Y-84131961D01*
X120269047Y-84131961D02*
X120173809Y-84227200D01*
X120173809Y-84227200D02*
X120030952Y-84274819D01*
X120030952Y-84274819D02*
X119935714Y-84274819D01*
X120745238Y-83370057D02*
X120792857Y-83322438D01*
X120792857Y-83322438D02*
X120888095Y-83274819D01*
X120888095Y-83274819D02*
X121126190Y-83274819D01*
X121126190Y-83274819D02*
X121221428Y-83322438D01*
X121221428Y-83322438D02*
X121269047Y-83370057D01*
X121269047Y-83370057D02*
X121316666Y-83465295D01*
X121316666Y-83465295D02*
X121316666Y-83560533D01*
X121316666Y-83560533D02*
X121269047Y-83703390D01*
X121269047Y-83703390D02*
X120697619Y-84274819D01*
X120697619Y-84274819D02*
X121316666Y-84274819D01*
X112228333Y-71447819D02*
X111895000Y-70971628D01*
X111656905Y-71447819D02*
X111656905Y-70447819D01*
X111656905Y-70447819D02*
X112037857Y-70447819D01*
X112037857Y-70447819D02*
X112133095Y-70495438D01*
X112133095Y-70495438D02*
X112180714Y-70543057D01*
X112180714Y-70543057D02*
X112228333Y-70638295D01*
X112228333Y-70638295D02*
X112228333Y-70781152D01*
X112228333Y-70781152D02*
X112180714Y-70876390D01*
X112180714Y-70876390D02*
X112133095Y-70924009D01*
X112133095Y-70924009D02*
X112037857Y-70971628D01*
X112037857Y-70971628D02*
X111656905Y-70971628D01*
X113085476Y-70447819D02*
X112895000Y-70447819D01*
X112895000Y-70447819D02*
X112799762Y-70495438D01*
X112799762Y-70495438D02*
X112752143Y-70543057D01*
X112752143Y-70543057D02*
X112656905Y-70685914D01*
X112656905Y-70685914D02*
X112609286Y-70876390D01*
X112609286Y-70876390D02*
X112609286Y-71257342D01*
X112609286Y-71257342D02*
X112656905Y-71352580D01*
X112656905Y-71352580D02*
X112704524Y-71400200D01*
X112704524Y-71400200D02*
X112799762Y-71447819D01*
X112799762Y-71447819D02*
X112990238Y-71447819D01*
X112990238Y-71447819D02*
X113085476Y-71400200D01*
X113085476Y-71400200D02*
X113133095Y-71352580D01*
X113133095Y-71352580D02*
X113180714Y-71257342D01*
X113180714Y-71257342D02*
X113180714Y-71019247D01*
X113180714Y-71019247D02*
X113133095Y-70924009D01*
X113133095Y-70924009D02*
X113085476Y-70876390D01*
X113085476Y-70876390D02*
X112990238Y-70828771D01*
X112990238Y-70828771D02*
X112799762Y-70828771D01*
X112799762Y-70828771D02*
X112704524Y-70876390D01*
X112704524Y-70876390D02*
X112656905Y-70924009D01*
X112656905Y-70924009D02*
X112609286Y-71019247D01*
X120316666Y-66764819D02*
X120316666Y-67479104D01*
X120316666Y-67479104D02*
X120269047Y-67621961D01*
X120269047Y-67621961D02*
X120173809Y-67717200D01*
X120173809Y-67717200D02*
X120030952Y-67764819D01*
X120030952Y-67764819D02*
X119935714Y-67764819D01*
X121221428Y-67098152D02*
X121221428Y-67764819D01*
X120983333Y-66717200D02*
X120745238Y-67431485D01*
X120745238Y-67431485D02*
X121364285Y-67431485D01*
X103806666Y-83528819D02*
X103806666Y-84243104D01*
X103806666Y-84243104D02*
X103759047Y-84385961D01*
X103759047Y-84385961D02*
X103663809Y-84481200D01*
X103663809Y-84481200D02*
X103520952Y-84528819D01*
X103520952Y-84528819D02*
X103425714Y-84528819D01*
X104806666Y-84528819D02*
X104235238Y-84528819D01*
X104520952Y-84528819D02*
X104520952Y-83528819D01*
X104520952Y-83528819D02*
X104425714Y-83671676D01*
X104425714Y-83671676D02*
X104330476Y-83766914D01*
X104330476Y-83766914D02*
X104235238Y-83814533D01*
X100838095Y-94942819D02*
X100838095Y-93942819D01*
X100838095Y-94419009D02*
X101409523Y-94419009D01*
X101409523Y-94942819D02*
X101409523Y-93942819D01*
X101838095Y-94038057D02*
X101885714Y-93990438D01*
X101885714Y-93990438D02*
X101980952Y-93942819D01*
X101980952Y-93942819D02*
X102219047Y-93942819D01*
X102219047Y-93942819D02*
X102314285Y-93990438D01*
X102314285Y-93990438D02*
X102361904Y-94038057D01*
X102361904Y-94038057D02*
X102409523Y-94133295D01*
X102409523Y-94133295D02*
X102409523Y-94228533D01*
X102409523Y-94228533D02*
X102361904Y-94371390D01*
X102361904Y-94371390D02*
X101790476Y-94942819D01*
X101790476Y-94942819D02*
X102409523Y-94942819D01*
X110323333Y-75543580D02*
X110275714Y-75591200D01*
X110275714Y-75591200D02*
X110132857Y-75638819D01*
X110132857Y-75638819D02*
X110037619Y-75638819D01*
X110037619Y-75638819D02*
X109894762Y-75591200D01*
X109894762Y-75591200D02*
X109799524Y-75495961D01*
X109799524Y-75495961D02*
X109751905Y-75400723D01*
X109751905Y-75400723D02*
X109704286Y-75210247D01*
X109704286Y-75210247D02*
X109704286Y-75067390D01*
X109704286Y-75067390D02*
X109751905Y-74876914D01*
X109751905Y-74876914D02*
X109799524Y-74781676D01*
X109799524Y-74781676D02*
X109894762Y-74686438D01*
X109894762Y-74686438D02*
X110037619Y-74638819D01*
X110037619Y-74638819D02*
X110132857Y-74638819D01*
X110132857Y-74638819D02*
X110275714Y-74686438D01*
X110275714Y-74686438D02*
X110323333Y-74734057D01*
X111180476Y-74972152D02*
X111180476Y-75638819D01*
X110942381Y-74591200D02*
X110704286Y-75305485D01*
X110704286Y-75305485D02*
X111323333Y-75305485D01*
X110323333Y-89354819D02*
X109990000Y-88878628D01*
X109751905Y-89354819D02*
X109751905Y-88354819D01*
X109751905Y-88354819D02*
X110132857Y-88354819D01*
X110132857Y-88354819D02*
X110228095Y-88402438D01*
X110228095Y-88402438D02*
X110275714Y-88450057D01*
X110275714Y-88450057D02*
X110323333Y-88545295D01*
X110323333Y-88545295D02*
X110323333Y-88688152D01*
X110323333Y-88688152D02*
X110275714Y-88783390D01*
X110275714Y-88783390D02*
X110228095Y-88831009D01*
X110228095Y-88831009D02*
X110132857Y-88878628D01*
X110132857Y-88878628D02*
X109751905Y-88878628D01*
X110656667Y-88354819D02*
X111275714Y-88354819D01*
X111275714Y-88354819D02*
X110942381Y-88735771D01*
X110942381Y-88735771D02*
X111085238Y-88735771D01*
X111085238Y-88735771D02*
X111180476Y-88783390D01*
X111180476Y-88783390D02*
X111228095Y-88831009D01*
X111228095Y-88831009D02*
X111275714Y-88926247D01*
X111275714Y-88926247D02*
X111275714Y-89164342D01*
X111275714Y-89164342D02*
X111228095Y-89259580D01*
X111228095Y-89259580D02*
X111180476Y-89307200D01*
X111180476Y-89307200D02*
X111085238Y-89354819D01*
X111085238Y-89354819D02*
X110799524Y-89354819D01*
X110799524Y-89354819D02*
X110704286Y-89307200D01*
X110704286Y-89307200D02*
X110656667Y-89259580D01*
X114133333Y-75638819D02*
X113657143Y-75638819D01*
X113657143Y-75638819D02*
X113657143Y-74638819D01*
X114895238Y-74972152D02*
X114895238Y-75638819D01*
X114657143Y-74591200D02*
X114419048Y-75305485D01*
X114419048Y-75305485D02*
X115038095Y-75305485D01*
D12*
%TO.C,L2*%
X116668733Y-91184000D02*
X117011267Y-91184000D01*
X116668733Y-92204000D02*
X117011267Y-92204000D01*
%TO.C,R7*%
X107695276Y-71867500D02*
X108204724Y-71867500D01*
X107695276Y-72912500D02*
X108204724Y-72912500D01*
%TO.C,L1*%
X116668733Y-85596000D02*
X117011267Y-85596000D01*
X116668733Y-86616000D02*
X117011267Y-86616000D01*
%TO.C,R8*%
X116585276Y-71867500D02*
X117094724Y-71867500D01*
X116585276Y-72912500D02*
X117094724Y-72912500D01*
%TO.C,R4*%
X116585276Y-88377500D02*
X117094724Y-88377500D01*
X116585276Y-89422500D02*
X117094724Y-89422500D01*
%TO.C,R2*%
X111872500Y-89557776D02*
X111872500Y-90067224D01*
X112917500Y-89557776D02*
X112917500Y-90067224D01*
%TO.C,J3*%
X100743000Y-70440000D02*
X100743000Y-71550000D01*
X100743000Y-73230000D02*
X100743000Y-74340000D01*
X104453000Y-70440000D02*
X104453000Y-71550000D01*
X104453000Y-73230000D02*
X104453000Y-74340000D01*
X105003000Y-72390000D02*
X105503000Y-72640000D01*
X105503000Y-72140000D02*
X105003000Y-72390000D01*
X105503000Y-72640000D02*
X105503000Y-72140000D01*
%TO.C,C2*%
X107803733Y-91184000D02*
X108096267Y-91184000D01*
X107803733Y-92204000D02*
X108096267Y-92204000D01*
%TO.C,R1*%
X112140276Y-83297500D02*
X112649724Y-83297500D01*
X112140276Y-84342500D02*
X112649724Y-84342500D01*
%TO.C,C1*%
X107803733Y-85596000D02*
X108096267Y-85596000D01*
X107803733Y-86616000D02*
X108096267Y-86616000D01*
%TO.C,C3*%
X107803733Y-69086000D02*
X108096267Y-69086000D01*
X107803733Y-70106000D02*
X108096267Y-70106000D01*
%TO.C,L3*%
X116668733Y-69086000D02*
X117011267Y-69086000D01*
X116668733Y-70106000D02*
X117011267Y-70106000D01*
%TO.C,R5*%
X112140276Y-66787500D02*
X112649724Y-66787500D01*
X112140276Y-67832500D02*
X112649724Y-67832500D01*
%TO.C,J2*%
X119414000Y-88650000D02*
X119414000Y-89150000D01*
X119414000Y-89150000D02*
X119914000Y-88900000D01*
X119914000Y-88900000D02*
X119414000Y-88650000D01*
X120464000Y-88060000D02*
X120464000Y-86950000D01*
X120464000Y-90850000D02*
X120464000Y-89740000D01*
X124174000Y-88060000D02*
X124174000Y-86950000D01*
X124174000Y-90850000D02*
X124174000Y-89740000D01*
%TO.C,R6*%
X111872500Y-73047776D02*
X111872500Y-73557224D01*
X112917500Y-73047776D02*
X112917500Y-73557224D01*
%TO.C,J4*%
X119414000Y-72140000D02*
X119414000Y-72640000D01*
X119414000Y-72640000D02*
X119914000Y-72390000D01*
X119914000Y-72390000D02*
X119414000Y-72140000D01*
X120464000Y-71550000D02*
X120464000Y-70440000D01*
X120464000Y-74340000D02*
X120464000Y-73230000D01*
X124174000Y-71550000D02*
X124174000Y-70440000D01*
X124174000Y-74340000D02*
X124174000Y-73230000D01*
%TO.C,J1*%
X100816000Y-86950000D02*
X100816000Y-88060000D01*
X100816000Y-89740000D02*
X100816000Y-90850000D01*
X104526000Y-86950000D02*
X104526000Y-88060000D01*
X104526000Y-89740000D02*
X104526000Y-90850000D01*
X105076000Y-88900000D02*
X105576000Y-89150000D01*
X105576000Y-88650000D02*
X105076000Y-88900000D01*
X105576000Y-89150000D02*
X105576000Y-88650000D01*
%TO.C,C4*%
X107803733Y-74674000D02*
X108096267Y-74674000D01*
X107803733Y-75694000D02*
X108096267Y-75694000D01*
%TO.C,R3*%
X107695276Y-88377500D02*
X108204724Y-88377500D01*
X107695276Y-89422500D02*
X108204724Y-89422500D01*
%TO.C,L4*%
X116668733Y-74674000D02*
X117011267Y-74674000D01*
X116668733Y-75694000D02*
X117011267Y-75694000D01*
%TD*%
M02*
