%TF.GenerationSoftware,KiCad,Pcbnew,8.0.5-8.0.5-0~ubuntu22.04.1*%
%TF.CreationDate,2025-01-06T18:32:54-03:00*%
%TF.ProjectId,preenfasis,70726565-6e66-4617-9369-732e6b696361,v1.0*%
%TF.SameCoordinates,Original*%
%TF.FileFunction,Soldermask,Top*%
%TF.FilePolarity,Negative*%
%FSLAX46Y46*%
G04 Gerber Fmt 4.6, Leading zero omitted, Abs format (unit mm)*
G04 Created by KiCad (PCBNEW 8.0.5-8.0.5-0~ubuntu22.04.1) date 2025-01-06 18:32:54*
%MOMM*%
%LPD*%
G01*
G04 APERTURE LIST*
G04 Aperture macros list*
%AMRoundRect*
0 Rectangle with rounded corners*
0 $1 Rounding radius*
0 $2 $3 $4 $5 $6 $7 $8 $9 X,Y pos of 4 corners*
0 Add a 4 corners polygon primitive as box body*
4,1,4,$2,$3,$4,$5,$6,$7,$8,$9,$2,$3,0*
0 Add four circle primitives for the rounded corners*
1,1,$1+$1,$2,$3*
1,1,$1+$1,$4,$5*
1,1,$1+$1,$6,$7*
1,1,$1+$1,$8,$9*
0 Add four rect primitives between the rounded corners*
20,1,$1+$1,$2,$3,$4,$5,0*
20,1,$1+$1,$4,$5,$6,$7,0*
20,1,$1+$1,$6,$7,$8,$9,0*
20,1,$1+$1,$8,$9,$2,$3,0*%
G04 Aperture macros list end*
%ADD10RoundRect,0.237500X-0.287500X-0.237500X0.287500X-0.237500X0.287500X0.237500X-0.287500X0.237500X0*%
%ADD11RoundRect,0.237500X-0.250000X-0.237500X0.250000X-0.237500X0.250000X0.237500X-0.250000X0.237500X0*%
%ADD12C,2.200000*%
%ADD13RoundRect,0.237500X-0.237500X0.250000X-0.237500X-0.250000X0.237500X-0.250000X0.237500X0.250000X0*%
%ADD14R,3.600000X1.270000*%
%ADD15R,4.200000X1.350000*%
%ADD16RoundRect,0.237500X-0.300000X-0.237500X0.300000X-0.237500X0.300000X0.237500X-0.300000X0.237500X0*%
G04 APERTURE END LIST*
D10*
%TO.C,L2*%
X115965000Y-90424000D03*
X117715000Y-90424000D03*
%TD*%
D11*
%TO.C,R7*%
X107037500Y-73890500D03*
X108862500Y-73890500D03*
%TD*%
D12*
%TO.C,H3*%
X122000000Y-63390500D03*
%TD*%
D10*
%TO.C,L1*%
X115965000Y-84836000D03*
X117715000Y-84836000D03*
%TD*%
D11*
%TO.C,R8*%
X115927500Y-73890500D03*
X117752500Y-73890500D03*
%TD*%
%TO.C,R4*%
X115927500Y-87630000D03*
X117752500Y-87630000D03*
%TD*%
D13*
%TO.C,R2*%
X112395000Y-87630000D03*
X112395000Y-89455000D03*
%TD*%
D12*
%TO.C,H4*%
X103000000Y-63390500D03*
%TD*%
D14*
%TO.C,J3*%
X102543000Y-73890500D03*
D15*
X102743000Y-71065500D03*
X102743000Y-76715500D03*
%TD*%
D16*
%TO.C,C2*%
X107087500Y-90424000D03*
X108812500Y-90424000D03*
%TD*%
D11*
%TO.C,R1*%
X111482500Y-82550000D03*
X113307500Y-82550000D03*
%TD*%
D16*
%TO.C,C1*%
X107087500Y-84836000D03*
X108812500Y-84836000D03*
%TD*%
%TO.C,C3*%
X107087500Y-71096500D03*
X108812500Y-71096500D03*
%TD*%
D10*
%TO.C,L3*%
X115965000Y-71096500D03*
X117715000Y-71096500D03*
%TD*%
D11*
%TO.C,R5*%
X111482500Y-68810500D03*
X113307500Y-68810500D03*
%TD*%
D12*
%TO.C,H1*%
X122000000Y-97000000D03*
%TD*%
D14*
%TO.C,J2*%
X122374000Y-87630000D03*
D15*
X122174000Y-90455000D03*
X122174000Y-84805000D03*
%TD*%
D13*
%TO.C,R6*%
X112395000Y-73890500D03*
X112395000Y-75715500D03*
%TD*%
D14*
%TO.C,J4*%
X122374000Y-73890500D03*
D15*
X122174000Y-76715500D03*
X122174000Y-71065500D03*
%TD*%
D14*
%TO.C,J1*%
X102616000Y-87630000D03*
D15*
X102816000Y-84805000D03*
X102816000Y-90455000D03*
%TD*%
D12*
%TO.C,H2*%
X103000000Y-97000000D03*
%TD*%
D16*
%TO.C,C4*%
X107087500Y-76684500D03*
X108812500Y-76684500D03*
%TD*%
D11*
%TO.C,R3*%
X107037500Y-87630000D03*
X108862500Y-87630000D03*
%TD*%
D10*
%TO.C,L4*%
X115965000Y-76684500D03*
X117715000Y-76684500D03*
%TD*%
M02*
