%TF.GenerationSoftware,KiCad,Pcbnew,8.0.5-8.0.5-0~ubuntu22.04.1*%
%TF.CreationDate,2025-01-06T19:31:01-03:00*%
%TF.ProjectId,preenfasis,70726565-6e66-4617-9369-732e6b696361,v1.1*%
%TF.SameCoordinates,Original*%
%TF.FileFunction,Copper,L2,Bot*%
%TF.FilePolarity,Positive*%
%FSLAX46Y46*%
G04 Gerber Fmt 4.6, Leading zero omitted, Abs format (unit mm)*
G04 Created by KiCad (PCBNEW 8.0.5-8.0.5-0~ubuntu22.04.1) date 2025-01-06 19:31:01*
%MOMM*%
%LPD*%
G01*
G04 APERTURE LIST*
%TA.AperFunction,SMDPad,CuDef*%
%ADD10R,4.200000X1.350000*%
%TD*%
%TA.AperFunction,ViaPad*%
%ADD11C,0.600000*%
%TD*%
G04 APERTURE END LIST*
D10*
%TO.P,J3,2,Ext*%
%TO.N,Net-(J3-Ext)*%
X102743000Y-69565000D03*
X102743000Y-75215000D03*
%TD*%
%TO.P,J2,2,Ext*%
%TO.N,Net-(J1-Ext)*%
X122174000Y-91725000D03*
X122174000Y-86075000D03*
%TD*%
%TO.P,J4,2,Ext*%
%TO.N,Net-(J3-Ext)*%
X122174000Y-75215000D03*
X122174000Y-69565000D03*
%TD*%
%TO.P,J1,2,Ext*%
%TO.N,Net-(J1-Ext)*%
X102816000Y-86075000D03*
X102816000Y-91725000D03*
%TD*%
D11*
%TO.N,Net-(J1-Ext)*%
X102816000Y-84455000D03*
X122174000Y-93319600D03*
X122174000Y-84531200D03*
X102816000Y-93345000D03*
%TO.N,Net-(J3-Ext)*%
X102768400Y-67968500D03*
X122174000Y-67968500D03*
X122174000Y-76782300D03*
X102725000Y-76731500D03*
%TD*%
%TA.AperFunction,Conductor*%
%TO.N,Net-(J1-Ext)*%
G36*
X124345788Y-81018954D02*
G01*
X124426570Y-81072930D01*
X124480546Y-81153712D01*
X124499500Y-81249000D01*
X124499500Y-84651000D01*
X124480546Y-84746288D01*
X124426570Y-84827070D01*
X124345788Y-84881046D01*
X124250500Y-84900000D01*
X122574001Y-84900000D01*
X122574000Y-84900001D01*
X122574000Y-87249999D01*
X122574001Y-87250000D01*
X124250500Y-87250000D01*
X124345788Y-87268954D01*
X124426570Y-87322930D01*
X124480546Y-87403712D01*
X124499500Y-87499000D01*
X124499500Y-90301000D01*
X124480546Y-90396288D01*
X124426570Y-90477070D01*
X124345788Y-90531046D01*
X124250500Y-90550000D01*
X122574001Y-90550000D01*
X122574000Y-90550001D01*
X122574000Y-92899999D01*
X122574001Y-92900000D01*
X124250500Y-92900000D01*
X124345788Y-92918954D01*
X124426570Y-92972930D01*
X124480546Y-93053712D01*
X124499500Y-93149000D01*
X124499500Y-99250500D01*
X124480546Y-99345788D01*
X124426570Y-99426570D01*
X124345788Y-99480546D01*
X124250500Y-99499500D01*
X100749500Y-99499500D01*
X100654212Y-99480546D01*
X100573430Y-99426570D01*
X100519454Y-99345788D01*
X100500500Y-99250500D01*
X100500500Y-96893703D01*
X101649500Y-96893703D01*
X101649500Y-97106296D01*
X101682753Y-97316240D01*
X101682754Y-97316243D01*
X101748443Y-97518412D01*
X101844949Y-97707816D01*
X101969896Y-97879792D01*
X102120208Y-98030104D01*
X102292184Y-98155051D01*
X102481588Y-98251557D01*
X102683757Y-98317246D01*
X102757601Y-98328941D01*
X102893703Y-98350499D01*
X102893710Y-98350499D01*
X102893713Y-98350500D01*
X102893716Y-98350500D01*
X103106284Y-98350500D01*
X103106287Y-98350500D01*
X103106290Y-98350499D01*
X103106296Y-98350499D01*
X103205476Y-98334789D01*
X103316243Y-98317246D01*
X103518412Y-98251557D01*
X103707816Y-98155051D01*
X103879792Y-98030104D01*
X104030104Y-97879792D01*
X104155051Y-97707816D01*
X104251557Y-97518412D01*
X104317246Y-97316243D01*
X104350500Y-97106287D01*
X104350500Y-96893713D01*
X104350499Y-96893710D01*
X104350499Y-96893703D01*
X120649500Y-96893703D01*
X120649500Y-97106296D01*
X120682753Y-97316240D01*
X120682754Y-97316243D01*
X120748443Y-97518412D01*
X120844949Y-97707816D01*
X120969896Y-97879792D01*
X121120208Y-98030104D01*
X121292184Y-98155051D01*
X121481588Y-98251557D01*
X121683757Y-98317246D01*
X121757601Y-98328941D01*
X121893703Y-98350499D01*
X121893710Y-98350499D01*
X121893713Y-98350500D01*
X121893716Y-98350500D01*
X122106284Y-98350500D01*
X122106287Y-98350500D01*
X122106290Y-98350499D01*
X122106296Y-98350499D01*
X122205476Y-98334789D01*
X122316243Y-98317246D01*
X122518412Y-98251557D01*
X122707816Y-98155051D01*
X122879792Y-98030104D01*
X123030104Y-97879792D01*
X123155051Y-97707816D01*
X123251557Y-97518412D01*
X123317246Y-97316243D01*
X123350500Y-97106287D01*
X123350500Y-96893713D01*
X123350499Y-96893710D01*
X123350499Y-96893703D01*
X123317246Y-96683759D01*
X123317246Y-96683757D01*
X123251557Y-96481588D01*
X123155051Y-96292184D01*
X123030104Y-96120208D01*
X122879792Y-95969896D01*
X122707816Y-95844949D01*
X122518412Y-95748443D01*
X122518409Y-95748442D01*
X122518407Y-95748441D01*
X122316240Y-95682753D01*
X122106296Y-95649500D01*
X122106287Y-95649500D01*
X121893713Y-95649500D01*
X121893703Y-95649500D01*
X121683759Y-95682753D01*
X121481592Y-95748441D01*
X121292182Y-95844950D01*
X121120206Y-95969897D01*
X120969897Y-96120206D01*
X120844950Y-96292182D01*
X120748441Y-96481592D01*
X120682753Y-96683759D01*
X120649500Y-96893703D01*
X104350499Y-96893703D01*
X104317246Y-96683759D01*
X104317246Y-96683757D01*
X104251557Y-96481588D01*
X104155051Y-96292184D01*
X104030104Y-96120208D01*
X103879792Y-95969896D01*
X103707816Y-95844949D01*
X103518412Y-95748443D01*
X103518409Y-95748442D01*
X103518407Y-95748441D01*
X103316240Y-95682753D01*
X103106296Y-95649500D01*
X103106287Y-95649500D01*
X102893713Y-95649500D01*
X102893703Y-95649500D01*
X102683759Y-95682753D01*
X102481592Y-95748441D01*
X102292182Y-95844950D01*
X102120206Y-95969897D01*
X101969897Y-96120206D01*
X101844950Y-96292182D01*
X101748441Y-96481592D01*
X101682753Y-96683759D01*
X101649500Y-96893703D01*
X100500500Y-96893703D01*
X100500500Y-93149000D01*
X100519454Y-93053712D01*
X100573430Y-92972930D01*
X100654212Y-92918954D01*
X100749500Y-92900000D01*
X102415999Y-92900000D01*
X102416000Y-92899999D01*
X102416000Y-92125001D01*
X103216000Y-92125001D01*
X103216000Y-92899999D01*
X103216001Y-92900000D01*
X104963825Y-92900000D01*
X104963832Y-92899999D01*
X105023371Y-92893598D01*
X105023378Y-92893596D01*
X105158087Y-92843353D01*
X105273187Y-92757189D01*
X105273189Y-92757187D01*
X105359353Y-92642087D01*
X105409596Y-92507378D01*
X105409598Y-92507371D01*
X105415999Y-92447832D01*
X105416000Y-92447825D01*
X105416000Y-92125001D01*
X119574000Y-92125001D01*
X119574000Y-92447832D01*
X119580401Y-92507371D01*
X119580403Y-92507378D01*
X119630646Y-92642087D01*
X119716810Y-92757187D01*
X119716812Y-92757189D01*
X119831912Y-92843353D01*
X119966621Y-92893596D01*
X119966628Y-92893598D01*
X120026167Y-92899999D01*
X120026175Y-92900000D01*
X121773999Y-92900000D01*
X121774000Y-92899999D01*
X121774000Y-92125001D01*
X121773999Y-92125000D01*
X119574001Y-92125000D01*
X119574000Y-92125001D01*
X105416000Y-92125001D01*
X105415999Y-92125000D01*
X103216001Y-92125000D01*
X103216000Y-92125001D01*
X102416000Y-92125001D01*
X102416000Y-90550001D01*
X103216000Y-90550001D01*
X103216000Y-91324999D01*
X103216001Y-91325000D01*
X105415999Y-91325000D01*
X105416000Y-91324999D01*
X105416000Y-91002175D01*
X105415999Y-91002167D01*
X119574000Y-91002167D01*
X119574000Y-91324999D01*
X119574001Y-91325000D01*
X121773999Y-91325000D01*
X121774000Y-91324999D01*
X121774000Y-90550001D01*
X121773999Y-90550000D01*
X120026167Y-90550000D01*
X119966628Y-90556401D01*
X119966621Y-90556403D01*
X119831912Y-90606646D01*
X119716812Y-90692810D01*
X119716810Y-90692812D01*
X119630646Y-90807912D01*
X119580403Y-90942621D01*
X119580401Y-90942628D01*
X119574000Y-91002167D01*
X105415999Y-91002167D01*
X105409598Y-90942628D01*
X105409596Y-90942621D01*
X105359353Y-90807912D01*
X105273189Y-90692812D01*
X105273187Y-90692810D01*
X105158087Y-90606646D01*
X105023378Y-90556403D01*
X105023371Y-90556401D01*
X104963832Y-90550000D01*
X103216001Y-90550000D01*
X103216000Y-90550001D01*
X102416000Y-90550001D01*
X102415999Y-90550000D01*
X100749500Y-90550000D01*
X100654212Y-90531046D01*
X100573430Y-90477070D01*
X100519454Y-90396288D01*
X100500500Y-90301000D01*
X100500500Y-87499000D01*
X100519454Y-87403712D01*
X100573430Y-87322930D01*
X100654212Y-87268954D01*
X100749500Y-87250000D01*
X102415999Y-87250000D01*
X102416000Y-87249999D01*
X102416000Y-86475001D01*
X103216000Y-86475001D01*
X103216000Y-87249999D01*
X103216001Y-87250000D01*
X104963825Y-87250000D01*
X104963832Y-87249999D01*
X105023371Y-87243598D01*
X105023378Y-87243596D01*
X105158087Y-87193353D01*
X105273187Y-87107189D01*
X105273189Y-87107187D01*
X105359353Y-86992087D01*
X105409596Y-86857378D01*
X105409598Y-86857371D01*
X105415999Y-86797832D01*
X105416000Y-86797825D01*
X105416000Y-86475001D01*
X119574000Y-86475001D01*
X119574000Y-86797832D01*
X119580401Y-86857371D01*
X119580403Y-86857378D01*
X119630646Y-86992087D01*
X119716810Y-87107187D01*
X119716812Y-87107189D01*
X119831912Y-87193353D01*
X119966621Y-87243596D01*
X119966628Y-87243598D01*
X120026167Y-87249999D01*
X120026175Y-87250000D01*
X121773999Y-87250000D01*
X121774000Y-87249999D01*
X121774000Y-86475001D01*
X121773999Y-86475000D01*
X119574001Y-86475000D01*
X119574000Y-86475001D01*
X105416000Y-86475001D01*
X105415999Y-86475000D01*
X103216001Y-86475000D01*
X103216000Y-86475001D01*
X102416000Y-86475001D01*
X102416000Y-84900001D01*
X103216000Y-84900001D01*
X103216000Y-85674999D01*
X103216001Y-85675000D01*
X105415999Y-85675000D01*
X105416000Y-85674999D01*
X105416000Y-85352175D01*
X105415999Y-85352167D01*
X119574000Y-85352167D01*
X119574000Y-85674999D01*
X119574001Y-85675000D01*
X121773999Y-85675000D01*
X121774000Y-85674999D01*
X121774000Y-84900001D01*
X121773999Y-84900000D01*
X120026167Y-84900000D01*
X119966628Y-84906401D01*
X119966621Y-84906403D01*
X119831912Y-84956646D01*
X119716812Y-85042810D01*
X119716810Y-85042812D01*
X119630646Y-85157912D01*
X119580403Y-85292621D01*
X119580401Y-85292628D01*
X119574000Y-85352167D01*
X105415999Y-85352167D01*
X105409598Y-85292628D01*
X105409596Y-85292621D01*
X105359353Y-85157912D01*
X105273189Y-85042812D01*
X105273187Y-85042810D01*
X105158087Y-84956646D01*
X105023378Y-84906403D01*
X105023371Y-84906401D01*
X104963832Y-84900000D01*
X103216001Y-84900000D01*
X103216000Y-84900001D01*
X102416000Y-84900001D01*
X102415999Y-84900000D01*
X100749500Y-84900000D01*
X100654212Y-84881046D01*
X100573430Y-84827070D01*
X100519454Y-84746288D01*
X100500500Y-84651000D01*
X100500500Y-81249000D01*
X100519454Y-81153712D01*
X100573430Y-81072930D01*
X100654212Y-81018954D01*
X100749500Y-81000000D01*
X124250500Y-81000000D01*
X124345788Y-81018954D01*
G37*
%TD.AperFunction*%
%TD*%
%TA.AperFunction,Conductor*%
%TO.N,Net-(J3-Ext)*%
G36*
X124442539Y-60520185D02*
G01*
X124488294Y-60572989D01*
X124499500Y-60624500D01*
X124499500Y-68271055D01*
X124479815Y-68338094D01*
X124427011Y-68383849D01*
X124362246Y-68394345D01*
X124321830Y-68390000D01*
X122574000Y-68390000D01*
X122574000Y-70740000D01*
X124321828Y-70740000D01*
X124321841Y-70739999D01*
X124362243Y-70735655D01*
X124431003Y-70748059D01*
X124482141Y-70795669D01*
X124499500Y-70858944D01*
X124499500Y-73921055D01*
X124479815Y-73988094D01*
X124427011Y-74033849D01*
X124362246Y-74044345D01*
X124321830Y-74040000D01*
X122574000Y-74040000D01*
X122574000Y-76390000D01*
X124321828Y-76390000D01*
X124321841Y-76389999D01*
X124362243Y-76385655D01*
X124431003Y-76398059D01*
X124482141Y-76445669D01*
X124499500Y-76508944D01*
X124499500Y-78876000D01*
X124479815Y-78943039D01*
X124427011Y-78988794D01*
X124375500Y-79000000D01*
X100624500Y-79000000D01*
X100557461Y-78980315D01*
X100511706Y-78927511D01*
X100500500Y-78876000D01*
X100500500Y-76514000D01*
X100520185Y-76446961D01*
X100572989Y-76401206D01*
X100624500Y-76390000D01*
X102343000Y-76390000D01*
X103143000Y-76390000D01*
X104890828Y-76390000D01*
X104890844Y-76389999D01*
X104950372Y-76383598D01*
X104950379Y-76383596D01*
X105085086Y-76333354D01*
X105085093Y-76333350D01*
X105200187Y-76247190D01*
X105200190Y-76247187D01*
X105286350Y-76132093D01*
X105286354Y-76132086D01*
X105336596Y-75997379D01*
X105336598Y-75997372D01*
X105342999Y-75937844D01*
X119574000Y-75937844D01*
X119580401Y-75997372D01*
X119580403Y-75997379D01*
X119630645Y-76132086D01*
X119630649Y-76132093D01*
X119716809Y-76247187D01*
X119716812Y-76247190D01*
X119831906Y-76333350D01*
X119831913Y-76333354D01*
X119966620Y-76383596D01*
X119966627Y-76383598D01*
X120026155Y-76389999D01*
X120026172Y-76390000D01*
X121774000Y-76390000D01*
X121774000Y-75615000D01*
X119574000Y-75615000D01*
X119574000Y-75937844D01*
X105342999Y-75937844D01*
X105343000Y-75937827D01*
X105343000Y-75615000D01*
X103143000Y-75615000D01*
X103143000Y-76390000D01*
X102343000Y-76390000D01*
X102343000Y-74815000D01*
X103143000Y-74815000D01*
X105343000Y-74815000D01*
X105343000Y-74492172D01*
X105342999Y-74492155D01*
X119574000Y-74492155D01*
X119574000Y-74815000D01*
X121774000Y-74815000D01*
X121774000Y-74040000D01*
X120026155Y-74040000D01*
X119966627Y-74046401D01*
X119966620Y-74046403D01*
X119831913Y-74096645D01*
X119831906Y-74096649D01*
X119716812Y-74182809D01*
X119716809Y-74182812D01*
X119630649Y-74297906D01*
X119630645Y-74297913D01*
X119580403Y-74432620D01*
X119580401Y-74432627D01*
X119574000Y-74492155D01*
X105342999Y-74492155D01*
X105336598Y-74432627D01*
X105336596Y-74432620D01*
X105286354Y-74297913D01*
X105286350Y-74297906D01*
X105200190Y-74182812D01*
X105200187Y-74182809D01*
X105085093Y-74096649D01*
X105085086Y-74096645D01*
X104950379Y-74046403D01*
X104950372Y-74046401D01*
X104890844Y-74040000D01*
X103143000Y-74040000D01*
X103143000Y-74815000D01*
X102343000Y-74815000D01*
X102343000Y-74040000D01*
X100624500Y-74040000D01*
X100557461Y-74020315D01*
X100511706Y-73967511D01*
X100500500Y-73916000D01*
X100500500Y-70864000D01*
X100520185Y-70796961D01*
X100572989Y-70751206D01*
X100624500Y-70740000D01*
X102343000Y-70740000D01*
X103143000Y-70740000D01*
X104890828Y-70740000D01*
X104890844Y-70739999D01*
X104950372Y-70733598D01*
X104950379Y-70733596D01*
X105085086Y-70683354D01*
X105085093Y-70683350D01*
X105200187Y-70597190D01*
X105200190Y-70597187D01*
X105286350Y-70482093D01*
X105286354Y-70482086D01*
X105336596Y-70347379D01*
X105336598Y-70347372D01*
X105342999Y-70287844D01*
X119574000Y-70287844D01*
X119580401Y-70347372D01*
X119580403Y-70347379D01*
X119630645Y-70482086D01*
X119630649Y-70482093D01*
X119716809Y-70597187D01*
X119716812Y-70597190D01*
X119831906Y-70683350D01*
X119831913Y-70683354D01*
X119966620Y-70733596D01*
X119966627Y-70733598D01*
X120026155Y-70739999D01*
X120026172Y-70740000D01*
X121774000Y-70740000D01*
X121774000Y-69965000D01*
X119574000Y-69965000D01*
X119574000Y-70287844D01*
X105342999Y-70287844D01*
X105343000Y-70287827D01*
X105343000Y-69965000D01*
X103143000Y-69965000D01*
X103143000Y-70740000D01*
X102343000Y-70740000D01*
X102343000Y-69165000D01*
X103143000Y-69165000D01*
X105343000Y-69165000D01*
X105343000Y-68842172D01*
X105342999Y-68842155D01*
X119574000Y-68842155D01*
X119574000Y-69165000D01*
X121774000Y-69165000D01*
X121774000Y-68390000D01*
X120026155Y-68390000D01*
X119966627Y-68396401D01*
X119966620Y-68396403D01*
X119831913Y-68446645D01*
X119831906Y-68446649D01*
X119716812Y-68532809D01*
X119716809Y-68532812D01*
X119630649Y-68647906D01*
X119630645Y-68647913D01*
X119580403Y-68782620D01*
X119580401Y-68782627D01*
X119574000Y-68842155D01*
X105342999Y-68842155D01*
X105336598Y-68782627D01*
X105336596Y-68782620D01*
X105286354Y-68647913D01*
X105286350Y-68647906D01*
X105200190Y-68532812D01*
X105200187Y-68532809D01*
X105085093Y-68446649D01*
X105085086Y-68446645D01*
X104950379Y-68396403D01*
X104950372Y-68396401D01*
X104890844Y-68390000D01*
X103143000Y-68390000D01*
X103143000Y-69165000D01*
X102343000Y-69165000D01*
X102343000Y-68390000D01*
X100624500Y-68390000D01*
X100557461Y-68370315D01*
X100511706Y-68317511D01*
X100500500Y-68266000D01*
X100500500Y-63284213D01*
X101649500Y-63284213D01*
X101649500Y-63496786D01*
X101682753Y-63706739D01*
X101748444Y-63908914D01*
X101844951Y-64098320D01*
X101969890Y-64270286D01*
X102120213Y-64420609D01*
X102292179Y-64545548D01*
X102292181Y-64545549D01*
X102292184Y-64545551D01*
X102481588Y-64642057D01*
X102683757Y-64707746D01*
X102893713Y-64741000D01*
X102893714Y-64741000D01*
X103106286Y-64741000D01*
X103106287Y-64741000D01*
X103316243Y-64707746D01*
X103518412Y-64642057D01*
X103707816Y-64545551D01*
X103729789Y-64529586D01*
X103879786Y-64420609D01*
X103879788Y-64420606D01*
X103879792Y-64420604D01*
X104030104Y-64270292D01*
X104030106Y-64270288D01*
X104030109Y-64270286D01*
X104155048Y-64098320D01*
X104155047Y-64098320D01*
X104155051Y-64098316D01*
X104251557Y-63908912D01*
X104317246Y-63706743D01*
X104350500Y-63496787D01*
X104350500Y-63284213D01*
X120649500Y-63284213D01*
X120649500Y-63496786D01*
X120682753Y-63706739D01*
X120748444Y-63908914D01*
X120844951Y-64098320D01*
X120969890Y-64270286D01*
X121120213Y-64420609D01*
X121292179Y-64545548D01*
X121292181Y-64545549D01*
X121292184Y-64545551D01*
X121481588Y-64642057D01*
X121683757Y-64707746D01*
X121893713Y-64741000D01*
X121893714Y-64741000D01*
X122106286Y-64741000D01*
X122106287Y-64741000D01*
X122316243Y-64707746D01*
X122518412Y-64642057D01*
X122707816Y-64545551D01*
X122729789Y-64529586D01*
X122879786Y-64420609D01*
X122879788Y-64420606D01*
X122879792Y-64420604D01*
X123030104Y-64270292D01*
X123030106Y-64270288D01*
X123030109Y-64270286D01*
X123155048Y-64098320D01*
X123155047Y-64098320D01*
X123155051Y-64098316D01*
X123251557Y-63908912D01*
X123317246Y-63706743D01*
X123350500Y-63496787D01*
X123350500Y-63284213D01*
X123317246Y-63074257D01*
X123251557Y-62872088D01*
X123155051Y-62682684D01*
X123155049Y-62682681D01*
X123155048Y-62682679D01*
X123030109Y-62510713D01*
X122879786Y-62360390D01*
X122707820Y-62235451D01*
X122518414Y-62138944D01*
X122518413Y-62138943D01*
X122518412Y-62138943D01*
X122316243Y-62073254D01*
X122316241Y-62073253D01*
X122316240Y-62073253D01*
X122154957Y-62047708D01*
X122106287Y-62040000D01*
X121893713Y-62040000D01*
X121845042Y-62047708D01*
X121683760Y-62073253D01*
X121481585Y-62138944D01*
X121292179Y-62235451D01*
X121120213Y-62360390D01*
X120969890Y-62510713D01*
X120844951Y-62682679D01*
X120748444Y-62872085D01*
X120682753Y-63074260D01*
X120649500Y-63284213D01*
X104350500Y-63284213D01*
X104317246Y-63074257D01*
X104251557Y-62872088D01*
X104155051Y-62682684D01*
X104155049Y-62682681D01*
X104155048Y-62682679D01*
X104030109Y-62510713D01*
X103879786Y-62360390D01*
X103707820Y-62235451D01*
X103518414Y-62138944D01*
X103518413Y-62138943D01*
X103518412Y-62138943D01*
X103316243Y-62073254D01*
X103316241Y-62073253D01*
X103316240Y-62073253D01*
X103154957Y-62047708D01*
X103106287Y-62040000D01*
X102893713Y-62040000D01*
X102845042Y-62047708D01*
X102683760Y-62073253D01*
X102481585Y-62138944D01*
X102292179Y-62235451D01*
X102120213Y-62360390D01*
X101969890Y-62510713D01*
X101844951Y-62682679D01*
X101748444Y-62872085D01*
X101682753Y-63074260D01*
X101649500Y-63284213D01*
X100500500Y-63284213D01*
X100500500Y-60624500D01*
X100520185Y-60557461D01*
X100572989Y-60511706D01*
X100624500Y-60500500D01*
X124375500Y-60500500D01*
X124442539Y-60520185D01*
G37*
%TD.AperFunction*%
%TD*%
M02*
