%TF.GenerationSoftware,KiCad,Pcbnew,8.0.5-8.0.5-0~ubuntu22.04.1*%
%TF.CreationDate,2025-01-09T14:13:44-03:00*%
%TF.ProjectId,preenfasis,70726565-6e66-4617-9369-732e6b696361,v1.2*%
%TF.SameCoordinates,Original*%
%TF.FileFunction,Copper,L1,Top*%
%TF.FilePolarity,Positive*%
%FSLAX46Y46*%
G04 Gerber Fmt 4.6, Leading zero omitted, Abs format (unit mm)*
G04 Created by KiCad (PCBNEW 8.0.5-8.0.5-0~ubuntu22.04.1) date 2025-01-09 14:13:44*
%MOMM*%
%LPD*%
G01*
G04 APERTURE LIST*
G04 Aperture macros list*
%AMRoundRect*
0 Rectangle with rounded corners*
0 $1 Rounding radius*
0 $2 $3 $4 $5 $6 $7 $8 $9 X,Y pos of 4 corners*
0 Add a 4 corners polygon primitive as box body*
4,1,4,$2,$3,$4,$5,$6,$7,$8,$9,$2,$3,0*
0 Add four circle primitives for the rounded corners*
1,1,$1+$1,$2,$3*
1,1,$1+$1,$4,$5*
1,1,$1+$1,$6,$7*
1,1,$1+$1,$8,$9*
0 Add four rect primitives between the rounded corners*
20,1,$1+$1,$2,$3,$4,$5,0*
20,1,$1+$1,$4,$5,$6,$7,0*
20,1,$1+$1,$6,$7,$8,$9,0*
20,1,$1+$1,$8,$9,$2,$3,0*%
G04 Aperture macros list end*
%TA.AperFunction,SMDPad,CuDef*%
%ADD10RoundRect,0.237500X-0.287500X-0.237500X0.287500X-0.237500X0.287500X0.237500X-0.287500X0.237500X0*%
%TD*%
%TA.AperFunction,SMDPad,CuDef*%
%ADD11RoundRect,0.237500X-0.250000X-0.237500X0.250000X-0.237500X0.250000X0.237500X-0.250000X0.237500X0*%
%TD*%
%TA.AperFunction,SMDPad,CuDef*%
%ADD12RoundRect,0.237500X-0.237500X0.250000X-0.237500X-0.250000X0.237500X-0.250000X0.237500X0.250000X0*%
%TD*%
%TA.AperFunction,SMDPad,CuDef*%
%ADD13R,3.600000X1.270000*%
%TD*%
%TA.AperFunction,SMDPad,CuDef*%
%ADD14R,4.200000X1.350000*%
%TD*%
%TA.AperFunction,SMDPad,CuDef*%
%ADD15RoundRect,0.237500X-0.300000X-0.237500X0.300000X-0.237500X0.300000X0.237500X-0.300000X0.237500X0*%
%TD*%
%TA.AperFunction,ViaPad*%
%ADD16C,0.600000*%
%TD*%
%TA.AperFunction,Conductor*%
%ADD17C,0.800000*%
%TD*%
G04 APERTURE END LIST*
D10*
%TO.P,L2,1,1*%
%TO.N,Net-(C2-Pad2)*%
X115965000Y-91694000D03*
%TO.P,L2,2,2*%
%TO.N,Net-(J1-Ext)*%
X117715000Y-91694000D03*
%TD*%
D11*
%TO.P,R7,1*%
%TO.N,Net-(J3-In)*%
X107037500Y-72390000D03*
%TO.P,R7,2*%
%TO.N,Net-(R6-Pad1)*%
X108862500Y-72390000D03*
%TD*%
D10*
%TO.P,L1,1,1*%
%TO.N,Net-(C1-Pad2)*%
X115965000Y-86106000D03*
%TO.P,L1,2,2*%
%TO.N,Net-(J2-In)*%
X117715000Y-86106000D03*
%TD*%
D11*
%TO.P,R8,1*%
%TO.N,Net-(R6-Pad1)*%
X115927500Y-72390000D03*
%TO.P,R8,2*%
%TO.N,Net-(J4-In)*%
X117752500Y-72390000D03*
%TD*%
%TO.P,R4,1*%
%TO.N,Net-(R2-Pad1)*%
X115927500Y-88900000D03*
%TO.P,R4,2*%
%TO.N,Net-(J2-In)*%
X117752500Y-88900000D03*
%TD*%
D12*
%TO.P,R2,1*%
%TO.N,Net-(R2-Pad1)*%
X112395000Y-88900000D03*
%TO.P,R2,2*%
%TO.N,Net-(C2-Pad2)*%
X112395000Y-90725000D03*
%TD*%
D13*
%TO.P,J3,1,In*%
%TO.N,Net-(J3-In)*%
X102543000Y-72390000D03*
D14*
%TO.P,J3,2,Ext*%
%TO.N,Net-(J3-Ext)*%
X102743000Y-69565000D03*
X102743000Y-75215000D03*
%TD*%
D15*
%TO.P,C2,1*%
%TO.N,Net-(J1-Ext)*%
X107087500Y-91694000D03*
%TO.P,C2,2*%
%TO.N,Net-(C2-Pad2)*%
X108812500Y-91694000D03*
%TD*%
D11*
%TO.P,R1,1*%
%TO.N,Net-(J1-In)*%
X111482500Y-83820000D03*
%TO.P,R1,2*%
%TO.N,Net-(J2-In)*%
X113307500Y-83820000D03*
%TD*%
D15*
%TO.P,C1,1*%
%TO.N,Net-(J1-In)*%
X107087500Y-86106000D03*
%TO.P,C1,2*%
%TO.N,Net-(C1-Pad2)*%
X108812500Y-86106000D03*
%TD*%
%TO.P,C3,1*%
%TO.N,Net-(J3-In)*%
X107087500Y-69596000D03*
%TO.P,C3,2*%
%TO.N,Net-(C3-Pad2)*%
X108812500Y-69596000D03*
%TD*%
D10*
%TO.P,L3,1,1*%
%TO.N,Net-(C3-Pad2)*%
X115965000Y-69596000D03*
%TO.P,L3,2,2*%
%TO.N,Net-(J4-In)*%
X117715000Y-69596000D03*
%TD*%
D11*
%TO.P,R5,1*%
%TO.N,Net-(J3-In)*%
X111482500Y-67310000D03*
%TO.P,R5,2*%
%TO.N,Net-(J4-In)*%
X113307500Y-67310000D03*
%TD*%
D13*
%TO.P,J2,1,In*%
%TO.N,Net-(J2-In)*%
X122374000Y-88900000D03*
D14*
%TO.P,J2,2,Ext*%
%TO.N,Net-(J1-Ext)*%
X122174000Y-91725000D03*
X122174000Y-86075000D03*
%TD*%
D12*
%TO.P,R6,1*%
%TO.N,Net-(R6-Pad1)*%
X112395000Y-72390000D03*
%TO.P,R6,2*%
%TO.N,Net-(C4-Pad2)*%
X112395000Y-74215000D03*
%TD*%
D13*
%TO.P,J4,1,In*%
%TO.N,Net-(J4-In)*%
X122374000Y-72390000D03*
D14*
%TO.P,J4,2,Ext*%
%TO.N,Net-(J3-Ext)*%
X122174000Y-75215000D03*
X122174000Y-69565000D03*
%TD*%
D13*
%TO.P,J1,1,In*%
%TO.N,Net-(J1-In)*%
X102616000Y-88900000D03*
D14*
%TO.P,J1,2,Ext*%
%TO.N,Net-(J1-Ext)*%
X102816000Y-86075000D03*
X102816000Y-91725000D03*
%TD*%
D15*
%TO.P,C4,1*%
%TO.N,Net-(J3-Ext)*%
X107087500Y-75184000D03*
%TO.P,C4,2*%
%TO.N,Net-(C4-Pad2)*%
X108812500Y-75184000D03*
%TD*%
D11*
%TO.P,R3,1*%
%TO.N,Net-(J1-In)*%
X107037500Y-88900000D03*
%TO.P,R3,2*%
%TO.N,Net-(R2-Pad1)*%
X108862500Y-88900000D03*
%TD*%
D10*
%TO.P,L4,1,1*%
%TO.N,Net-(C4-Pad2)*%
X115965000Y-75184000D03*
%TO.P,L4,2,2*%
%TO.N,Net-(J3-Ext)*%
X117715000Y-75184000D03*
%TD*%
D16*
%TO.N,Net-(J1-Ext)*%
X102816000Y-84455000D03*
X122174000Y-93319600D03*
X122174000Y-84531200D03*
X102816000Y-93345000D03*
%TO.N,Net-(J3-Ext)*%
X102768400Y-67968500D03*
X122174000Y-67968500D03*
X122174000Y-76782300D03*
X102725000Y-76731500D03*
%TD*%
D17*
%TO.N,Net-(J1-In)*%
X105664000Y-86106000D02*
X105664000Y-84328000D01*
X105664000Y-88900000D02*
X107037500Y-88900000D01*
X106172000Y-83820000D02*
X111482500Y-83820000D01*
X105664000Y-84328000D02*
X106172000Y-83820000D01*
X102416000Y-88900000D02*
X105664000Y-88900000D01*
X105664000Y-88900000D02*
X105664000Y-86106000D01*
X107087500Y-86106000D02*
X105664000Y-86106000D01*
%TO.N,Net-(C1-Pad2)*%
X108812500Y-86106000D02*
X115965000Y-86106000D01*
%TO.N,Net-(C2-Pad2)*%
X112395000Y-90725000D02*
X112395000Y-91694000D01*
X108812500Y-91694000D02*
X112395000Y-91694000D01*
X112395000Y-91694000D02*
X115965000Y-91694000D01*
%TO.N,Net-(J1-Ext)*%
X122174000Y-86075000D02*
X122174000Y-84531200D01*
X102816000Y-93345000D02*
X102816000Y-91725000D01*
X117715000Y-91694000D02*
X122324000Y-91694000D01*
X122174000Y-91725000D02*
X122174000Y-93319600D01*
X102816000Y-84455000D02*
X102816000Y-86075000D01*
X107056500Y-91725000D02*
X107087500Y-91694000D01*
X102816000Y-91725000D02*
X107056500Y-91725000D01*
%TO.N,Net-(J2-In)*%
X122555000Y-88900000D02*
X119380000Y-88900000D01*
X119380000Y-84328000D02*
X118872000Y-83820000D01*
X119380000Y-88900000D02*
X117752500Y-88900000D01*
X118872000Y-83820000D02*
X113307500Y-83820000D01*
X119380000Y-86106000D02*
X119380000Y-88900000D01*
X119380000Y-86106000D02*
X119380000Y-84328000D01*
X117715000Y-86106000D02*
X119380000Y-86106000D01*
%TO.N,Net-(R2-Pad1)*%
X108862500Y-88900000D02*
X112395000Y-88900000D01*
X112395000Y-88900000D02*
X115927500Y-88900000D01*
%TO.N,Net-(J3-In)*%
X102362000Y-72390000D02*
X105664000Y-72390000D01*
X106195500Y-67310000D02*
X111482500Y-67310000D01*
X105664000Y-72390000D02*
X107037500Y-72390000D01*
X105664000Y-72390000D02*
X105664000Y-69596000D01*
X111482500Y-67310000D02*
X111506000Y-67310000D01*
X105664000Y-69596000D02*
X107087500Y-69596000D01*
X105664000Y-69596000D02*
X105664000Y-67841500D01*
X105664000Y-67841500D02*
X106195500Y-67310000D01*
%TO.N,Net-(C3-Pad2)*%
X115965000Y-69596000D02*
X108812500Y-69596000D01*
%TO.N,Net-(C4-Pad2)*%
X112395000Y-75184000D02*
X115965000Y-75184000D01*
X108812500Y-75184000D02*
X112395000Y-75184000D01*
X112395000Y-74215000D02*
X112395000Y-75184000D01*
%TO.N,Net-(J4-In)*%
X119380000Y-72390000D02*
X117752500Y-72390000D01*
X119380000Y-69596000D02*
X119380000Y-72390000D01*
X122628000Y-72390000D02*
X119380000Y-72390000D01*
X117715000Y-69596000D02*
X119380000Y-69596000D01*
X118872000Y-67310000D02*
X113307500Y-67310000D01*
X119380000Y-67818000D02*
X118872000Y-67310000D01*
X119380000Y-69596000D02*
X119380000Y-67818000D01*
%TO.N,Net-(R6-Pad1)*%
X108862500Y-72390000D02*
X115927500Y-72390000D01*
%TO.N,Net-(J3-Ext)*%
X102725000Y-75233000D02*
X102743000Y-75215000D01*
X102725000Y-76731500D02*
X102725000Y-75233000D01*
X107087500Y-75184000D02*
X102593000Y-75184000D01*
X122174000Y-69565000D02*
X122174000Y-67968500D01*
X117715000Y-75184000D02*
X122397000Y-75184000D01*
X122397000Y-75184000D02*
X122428000Y-75215000D01*
X102768400Y-67968500D02*
X102768400Y-69539600D01*
X102768400Y-69539600D02*
X102743000Y-69565000D01*
X102593000Y-75184000D02*
X102562000Y-75215000D01*
X122174000Y-76782300D02*
X122174000Y-75215000D01*
%TD*%
M02*
