%TF.GenerationSoftware,KiCad,Pcbnew,8.0.5-8.0.5-0~ubuntu22.04.1*%
%TF.CreationDate,2025-01-09T21:46:30-03:00*%
%TF.ProjectId,preenfasis,70726565-6e66-4617-9369-732e6b696361,v1.3*%
%TF.SameCoordinates,Original*%
%TF.FileFunction,Copper,L1,Top*%
%TF.FilePolarity,Positive*%
%FSLAX46Y46*%
G04 Gerber Fmt 4.6, Leading zero omitted, Abs format (unit mm)*
G04 Created by KiCad (PCBNEW 8.0.5-8.0.5-0~ubuntu22.04.1) date 2025-01-09 21:46:30*
%MOMM*%
%LPD*%
G01*
G04 APERTURE LIST*
G04 Aperture macros list*
%AMRoundRect*
0 Rectangle with rounded corners*
0 $1 Rounding radius*
0 $2 $3 $4 $5 $6 $7 $8 $9 X,Y pos of 4 corners*
0 Add a 4 corners polygon primitive as box body*
4,1,4,$2,$3,$4,$5,$6,$7,$8,$9,$2,$3,0*
0 Add four circle primitives for the rounded corners*
1,1,$1+$1,$2,$3*
1,1,$1+$1,$4,$5*
1,1,$1+$1,$6,$7*
1,1,$1+$1,$8,$9*
0 Add four rect primitives between the rounded corners*
20,1,$1+$1,$2,$3,$4,$5,0*
20,1,$1+$1,$4,$5,$6,$7,0*
20,1,$1+$1,$6,$7,$8,$9,0*
20,1,$1+$1,$8,$9,$2,$3,0*%
G04 Aperture macros list end*
%TA.AperFunction,SMDPad,CuDef*%
%ADD10RoundRect,0.237500X-0.287500X-0.237500X0.287500X-0.237500X0.287500X0.237500X-0.287500X0.237500X0*%
%TD*%
%TA.AperFunction,SMDPad,CuDef*%
%ADD11RoundRect,0.237500X-0.250000X-0.237500X0.250000X-0.237500X0.250000X0.237500X-0.250000X0.237500X0*%
%TD*%
%TA.AperFunction,SMDPad,CuDef*%
%ADD12RoundRect,0.237500X-0.237500X0.250000X-0.237500X-0.250000X0.237500X-0.250000X0.237500X0.250000X0*%
%TD*%
%TA.AperFunction,SMDPad,CuDef*%
%ADD13R,3.600000X1.270000*%
%TD*%
%TA.AperFunction,SMDPad,CuDef*%
%ADD14R,4.200000X1.350000*%
%TD*%
%TA.AperFunction,SMDPad,CuDef*%
%ADD15RoundRect,0.237500X-0.300000X-0.237500X0.300000X-0.237500X0.300000X0.237500X-0.300000X0.237500X0*%
%TD*%
%TA.AperFunction,ViaPad*%
%ADD16C,0.600000*%
%TD*%
%TA.AperFunction,Conductor*%
%ADD17C,0.800000*%
%TD*%
G04 APERTURE END LIST*
D10*
%TO.P,L2,1,1*%
%TO.N,Net-(C2-Pad2)*%
X115965000Y-91694000D03*
%TO.P,L2,2,2*%
%TO.N,Net-(J1-Ext)*%
X117715000Y-91694000D03*
%TD*%
D11*
%TO.P,R7,1*%
%TO.N,Net-(J3-In)*%
X107037500Y-72390000D03*
%TO.P,R7,2*%
%TO.N,Net-(R6-Pad1)*%
X108862500Y-72390000D03*
%TD*%
D10*
%TO.P,L1,1,1*%
%TO.N,Net-(C1-Pad2)*%
X115965000Y-86106000D03*
%TO.P,L1,2,2*%
%TO.N,Net-(J2-In)*%
X117715000Y-86106000D03*
%TD*%
D11*
%TO.P,R8,1*%
%TO.N,Net-(R6-Pad1)*%
X115927500Y-72390000D03*
%TO.P,R8,2*%
%TO.N,Net-(J4-In)*%
X117752500Y-72390000D03*
%TD*%
%TO.P,R4,1*%
%TO.N,Net-(R2-Pad1)*%
X115927500Y-88900000D03*
%TO.P,R4,2*%
%TO.N,Net-(J2-In)*%
X117752500Y-88900000D03*
%TD*%
D12*
%TO.P,R2,1*%
%TO.N,Net-(R2-Pad1)*%
X112395000Y-88900000D03*
%TO.P,R2,2*%
%TO.N,Net-(C2-Pad2)*%
X112395000Y-90725000D03*
%TD*%
D13*
%TO.P,J3,1,In*%
%TO.N,Net-(J3-In)*%
X102543000Y-72390000D03*
D14*
%TO.P,J3,2,Ext*%
%TO.N,Net-(J3-Ext)*%
X102743000Y-69565000D03*
X102743000Y-75215000D03*
%TD*%
D15*
%TO.P,C2,1*%
%TO.N,Net-(J1-Ext)*%
X107087500Y-91694000D03*
%TO.P,C2,2*%
%TO.N,Net-(C2-Pad2)*%
X108812500Y-91694000D03*
%TD*%
D11*
%TO.P,R1,1*%
%TO.N,Net-(J1-In)*%
X111482500Y-83820000D03*
%TO.P,R1,2*%
%TO.N,Net-(J2-In)*%
X113307500Y-83820000D03*
%TD*%
D15*
%TO.P,C1,1*%
%TO.N,Net-(J1-In)*%
X107087500Y-86106000D03*
%TO.P,C1,2*%
%TO.N,Net-(C1-Pad2)*%
X108812500Y-86106000D03*
%TD*%
%TO.P,C3,1*%
%TO.N,Net-(J3-In)*%
X107087500Y-69596000D03*
%TO.P,C3,2*%
%TO.N,Net-(C3-Pad2)*%
X108812500Y-69596000D03*
%TD*%
D10*
%TO.P,L3,1,1*%
%TO.N,Net-(C3-Pad2)*%
X115965000Y-69596000D03*
%TO.P,L3,2,2*%
%TO.N,Net-(J4-In)*%
X117715000Y-69596000D03*
%TD*%
D11*
%TO.P,R5,1*%
%TO.N,Net-(J3-In)*%
X111482500Y-67310000D03*
%TO.P,R5,2*%
%TO.N,Net-(J4-In)*%
X113307500Y-67310000D03*
%TD*%
D13*
%TO.P,J2,1,In*%
%TO.N,Net-(J2-In)*%
X122374000Y-88900000D03*
D14*
%TO.P,J2,2,Ext*%
%TO.N,Net-(J1-Ext)*%
X122174000Y-91725000D03*
X122174000Y-86075000D03*
%TD*%
D12*
%TO.P,R6,1*%
%TO.N,Net-(R6-Pad1)*%
X112395000Y-72390000D03*
%TO.P,R6,2*%
%TO.N,Net-(C4-Pad2)*%
X112395000Y-74215000D03*
%TD*%
D13*
%TO.P,J4,1,In*%
%TO.N,Net-(J4-In)*%
X122374000Y-72390000D03*
D14*
%TO.P,J4,2,Ext*%
%TO.N,Net-(J3-Ext)*%
X122174000Y-75215000D03*
X122174000Y-69565000D03*
%TD*%
D13*
%TO.P,J1,1,In*%
%TO.N,Net-(J1-In)*%
X102616000Y-88900000D03*
D14*
%TO.P,J1,2,Ext*%
%TO.N,Net-(J1-Ext)*%
X102816000Y-86075000D03*
X102816000Y-91725000D03*
%TD*%
D15*
%TO.P,C4,1*%
%TO.N,Net-(J3-Ext)*%
X107087500Y-75184000D03*
%TO.P,C4,2*%
%TO.N,Net-(C4-Pad2)*%
X108812500Y-75184000D03*
%TD*%
D11*
%TO.P,R3,1*%
%TO.N,Net-(J1-In)*%
X107037500Y-88900000D03*
%TO.P,R3,2*%
%TO.N,Net-(R2-Pad1)*%
X108862500Y-88900000D03*
%TD*%
D10*
%TO.P,L4,1,1*%
%TO.N,Net-(C4-Pad2)*%
X115965000Y-75184000D03*
%TO.P,L4,2,2*%
%TO.N,Net-(J3-Ext)*%
X117715000Y-75184000D03*
%TD*%
D16*
%TO.N,Net-(J1-Ext)*%
X115500000Y-90000000D03*
X112000000Y-85000000D03*
X122500000Y-87700000D03*
X113000000Y-82500000D03*
X113000000Y-85000000D03*
X118500000Y-93000000D03*
X120000000Y-83500000D03*
X104000000Y-87700000D03*
X104500000Y-84000000D03*
X105000000Y-83000000D03*
X109000000Y-85000000D03*
X116250000Y-92750000D03*
X121500000Y-87700000D03*
X116500000Y-90000000D03*
X101000000Y-90100000D03*
X115000000Y-82500000D03*
X116000000Y-85000000D03*
X119000000Y-82500000D03*
X102816000Y-84455000D03*
X107000000Y-87500000D03*
X113250000Y-92750000D03*
X117500000Y-90000000D03*
X122174000Y-93319600D03*
X120500000Y-87700000D03*
X114250000Y-92750000D03*
X110000000Y-82500000D03*
X107000000Y-85000000D03*
X117500000Y-93000000D03*
X106000000Y-93000000D03*
X104000000Y-90100000D03*
X110000000Y-87500000D03*
X111000000Y-85000000D03*
X119500000Y-90000000D03*
X115250000Y-92750000D03*
X121500000Y-90100000D03*
X122174000Y-84531200D03*
X111250000Y-92750000D03*
X119500000Y-93000000D03*
X112000000Y-87500000D03*
X118000000Y-87500000D03*
X110000000Y-85000000D03*
X122500000Y-90100000D03*
X103000000Y-90100000D03*
X120500000Y-90100000D03*
X123500000Y-90100000D03*
X117000000Y-87500000D03*
X107000000Y-93000000D03*
X109000000Y-82500000D03*
X120500000Y-84500000D03*
X118000000Y-85000000D03*
X114000000Y-82500000D03*
X115000000Y-85000000D03*
X110250000Y-92750000D03*
X108000000Y-82500000D03*
X117000000Y-82500000D03*
X116000000Y-87500000D03*
X108000000Y-85000000D03*
X102816000Y-93345000D03*
X117000000Y-85000000D03*
X105000000Y-90000000D03*
X116000000Y-82500000D03*
X113500000Y-90000000D03*
X108000000Y-87500000D03*
X102000000Y-90100000D03*
X107000000Y-82500000D03*
X111000000Y-87500000D03*
X115000000Y-87500000D03*
X113000000Y-87500000D03*
X112250000Y-92750000D03*
X109000000Y-87500000D03*
X106000000Y-82500000D03*
X101000000Y-87700000D03*
X114500000Y-90000000D03*
X103000000Y-87700000D03*
X118000000Y-82500000D03*
X110000000Y-90000000D03*
X109000000Y-90000000D03*
X111000000Y-90000000D03*
X112000000Y-82500000D03*
X123500000Y-87700000D03*
X107000000Y-90000000D03*
X111000000Y-82500000D03*
X109250000Y-92750000D03*
X114000000Y-85000000D03*
X106000000Y-90000000D03*
X118500000Y-90000000D03*
X102000000Y-87700000D03*
X108000000Y-90000000D03*
X114000000Y-87500000D03*
X108250000Y-92750000D03*
%TO.N,Net-(J3-Ext)*%
X102768400Y-67968500D03*
X122174000Y-67968500D03*
X122174000Y-76782300D03*
X102725000Y-76731500D03*
%TD*%
D17*
%TO.N,Net-(J1-In)*%
X105664000Y-86106000D02*
X105664000Y-84328000D01*
X105664000Y-88900000D02*
X107037500Y-88900000D01*
X106172000Y-83820000D02*
X111482500Y-83820000D01*
X105664000Y-84328000D02*
X106172000Y-83820000D01*
X102416000Y-88900000D02*
X105664000Y-88900000D01*
X105664000Y-88900000D02*
X105664000Y-86106000D01*
X107087500Y-86106000D02*
X105664000Y-86106000D01*
%TO.N,Net-(C1-Pad2)*%
X108812500Y-86106000D02*
X115965000Y-86106000D01*
%TO.N,Net-(C2-Pad2)*%
X112395000Y-90725000D02*
X112395000Y-91694000D01*
X108812500Y-91694000D02*
X112395000Y-91694000D01*
X112395000Y-91694000D02*
X115965000Y-91694000D01*
%TO.N,Net-(J1-Ext)*%
X122174000Y-86075000D02*
X122174000Y-84531200D01*
X102816000Y-93345000D02*
X102816000Y-91725000D01*
X117715000Y-91694000D02*
X122324000Y-91694000D01*
X122174000Y-91725000D02*
X122174000Y-93319600D01*
X102816000Y-84455000D02*
X102816000Y-86075000D01*
X107056500Y-91725000D02*
X107087500Y-91694000D01*
X102816000Y-91725000D02*
X107056500Y-91725000D01*
%TO.N,Net-(J2-In)*%
X122555000Y-88900000D02*
X119380000Y-88900000D01*
X119380000Y-84328000D02*
X118872000Y-83820000D01*
X119380000Y-88900000D02*
X117752500Y-88900000D01*
X118872000Y-83820000D02*
X113307500Y-83820000D01*
X119380000Y-86106000D02*
X119380000Y-88900000D01*
X119380000Y-86106000D02*
X119380000Y-84328000D01*
X117715000Y-86106000D02*
X119380000Y-86106000D01*
%TO.N,Net-(R2-Pad1)*%
X108862500Y-88900000D02*
X112395000Y-88900000D01*
X112395000Y-88900000D02*
X115927500Y-88900000D01*
%TO.N,Net-(J3-In)*%
X102362000Y-72390000D02*
X105664000Y-72390000D01*
X106195500Y-67310000D02*
X111482500Y-67310000D01*
X105664000Y-72390000D02*
X107037500Y-72390000D01*
X105664000Y-72390000D02*
X105664000Y-69596000D01*
X111482500Y-67310000D02*
X111506000Y-67310000D01*
X105664000Y-69596000D02*
X107087500Y-69596000D01*
X105664000Y-69596000D02*
X105664000Y-67841500D01*
X105664000Y-67841500D02*
X106195500Y-67310000D01*
%TO.N,Net-(C3-Pad2)*%
X115965000Y-69596000D02*
X108812500Y-69596000D01*
%TO.N,Net-(C4-Pad2)*%
X112395000Y-75184000D02*
X115965000Y-75184000D01*
X108812500Y-75184000D02*
X112395000Y-75184000D01*
X112395000Y-74215000D02*
X112395000Y-75184000D01*
%TO.N,Net-(J4-In)*%
X119380000Y-72390000D02*
X117752500Y-72390000D01*
X119380000Y-69596000D02*
X119380000Y-72390000D01*
X122628000Y-72390000D02*
X119380000Y-72390000D01*
X117715000Y-69596000D02*
X119380000Y-69596000D01*
X118872000Y-67310000D02*
X113307500Y-67310000D01*
X119380000Y-67818000D02*
X118872000Y-67310000D01*
X119380000Y-69596000D02*
X119380000Y-67818000D01*
%TO.N,Net-(R6-Pad1)*%
X108862500Y-72390000D02*
X115927500Y-72390000D01*
%TO.N,Net-(J3-Ext)*%
X102725000Y-75233000D02*
X102743000Y-75215000D01*
X102725000Y-76731500D02*
X102725000Y-75233000D01*
X107087500Y-75184000D02*
X102593000Y-75184000D01*
X122174000Y-69565000D02*
X122174000Y-67968500D01*
X117715000Y-75184000D02*
X122397000Y-75184000D01*
X122397000Y-75184000D02*
X122428000Y-75215000D01*
X102768400Y-67968500D02*
X102768400Y-69539600D01*
X102768400Y-69539600D02*
X102743000Y-69565000D01*
X102593000Y-75184000D02*
X102562000Y-75215000D01*
X122174000Y-76782300D02*
X122174000Y-75215000D01*
%TD*%
%TA.AperFunction,Conductor*%
%TO.N,Net-(J1-Ext)*%
G36*
X124443039Y-81019685D02*
G01*
X124488794Y-81072489D01*
X124500000Y-81124000D01*
X124500000Y-88009699D01*
X124480315Y-88076738D01*
X124427511Y-88122493D01*
X124358353Y-88132437D01*
X124307109Y-88112801D01*
X124252230Y-88076132D01*
X124252229Y-88076131D01*
X124193752Y-88064500D01*
X124193748Y-88064500D01*
X120554252Y-88064500D01*
X120554247Y-88064500D01*
X120495770Y-88076131D01*
X120495769Y-88076132D01*
X120429447Y-88120447D01*
X120385132Y-88186769D01*
X120385131Y-88186770D01*
X120382562Y-88199691D01*
X120350178Y-88261602D01*
X120289462Y-88296176D01*
X120260945Y-88299500D01*
X120104500Y-88299500D01*
X120037461Y-88279815D01*
X119991706Y-88227011D01*
X119980500Y-88175500D01*
X119980500Y-84248945D01*
X119980500Y-84248943D01*
X119939577Y-84096216D01*
X119939573Y-84096209D01*
X119860524Y-83959290D01*
X119860521Y-83959286D01*
X119860520Y-83959284D01*
X119748716Y-83847480D01*
X119748715Y-83847479D01*
X119744385Y-83843149D01*
X119744374Y-83843139D01*
X119359590Y-83458355D01*
X119359588Y-83458352D01*
X119240717Y-83339481D01*
X119240712Y-83339477D01*
X119119141Y-83269289D01*
X119119140Y-83269288D01*
X119112650Y-83265541D01*
X119103785Y-83260423D01*
X118951057Y-83219499D01*
X118792943Y-83219499D01*
X118785347Y-83219499D01*
X118785331Y-83219500D01*
X113844052Y-83219500D01*
X113777013Y-83199815D01*
X113770419Y-83195271D01*
X113764476Y-83190885D01*
X113764475Y-83190884D01*
X113764473Y-83190883D01*
X113639848Y-83147274D01*
X113639849Y-83147274D01*
X113610260Y-83144500D01*
X113610256Y-83144500D01*
X113004744Y-83144500D01*
X113004740Y-83144500D01*
X112975150Y-83147274D01*
X112850523Y-83190884D01*
X112744289Y-83269288D01*
X112744288Y-83269289D01*
X112665884Y-83375523D01*
X112622274Y-83500150D01*
X112619500Y-83529739D01*
X112619500Y-84110260D01*
X112622274Y-84139849D01*
X112665884Y-84264476D01*
X112744288Y-84370710D01*
X112744289Y-84370711D01*
X112850523Y-84449115D01*
X112850524Y-84449115D01*
X112850525Y-84449116D01*
X112975151Y-84492725D01*
X112975150Y-84492725D01*
X113004740Y-84495500D01*
X113004744Y-84495500D01*
X113610260Y-84495500D01*
X113639849Y-84492725D01*
X113764475Y-84449116D01*
X113770419Y-84444728D01*
X113836048Y-84420759D01*
X113844052Y-84420500D01*
X118571903Y-84420500D01*
X118638942Y-84440185D01*
X118659584Y-84456819D01*
X118743181Y-84540416D01*
X118776666Y-84601739D01*
X118779500Y-84628097D01*
X118779500Y-85381500D01*
X118759815Y-85448539D01*
X118707011Y-85494294D01*
X118655500Y-85505500D01*
X118289052Y-85505500D01*
X118222013Y-85485815D01*
X118215419Y-85481271D01*
X118209476Y-85476885D01*
X118209475Y-85476884D01*
X118209473Y-85476883D01*
X118084848Y-85433274D01*
X118084849Y-85433274D01*
X118055260Y-85430500D01*
X118055256Y-85430500D01*
X117374744Y-85430500D01*
X117374740Y-85430500D01*
X117345150Y-85433274D01*
X117220523Y-85476884D01*
X117114289Y-85555288D01*
X117114288Y-85555289D01*
X117035884Y-85661523D01*
X116992274Y-85786150D01*
X116989500Y-85815739D01*
X116989500Y-86396260D01*
X116992274Y-86425849D01*
X117035884Y-86550476D01*
X117114288Y-86656710D01*
X117114289Y-86656711D01*
X117220523Y-86735115D01*
X117220524Y-86735115D01*
X117220525Y-86735116D01*
X117345151Y-86778725D01*
X117345150Y-86778725D01*
X117374740Y-86781500D01*
X117374744Y-86781500D01*
X118055260Y-86781500D01*
X118084849Y-86778725D01*
X118209475Y-86735116D01*
X118215419Y-86730728D01*
X118281048Y-86706759D01*
X118289052Y-86706500D01*
X118655500Y-86706500D01*
X118722539Y-86726185D01*
X118768294Y-86778989D01*
X118779500Y-86830500D01*
X118779500Y-88175500D01*
X118759815Y-88242539D01*
X118707011Y-88288294D01*
X118655500Y-88299500D01*
X118289052Y-88299500D01*
X118222013Y-88279815D01*
X118215419Y-88275271D01*
X118209476Y-88270885D01*
X118209475Y-88270884D01*
X118209473Y-88270883D01*
X118084848Y-88227274D01*
X118084849Y-88227274D01*
X118055260Y-88224500D01*
X118055256Y-88224500D01*
X117449744Y-88224500D01*
X117449740Y-88224500D01*
X117420150Y-88227274D01*
X117295523Y-88270884D01*
X117189289Y-88349288D01*
X117189288Y-88349289D01*
X117110884Y-88455523D01*
X117067274Y-88580150D01*
X117064500Y-88609739D01*
X117064500Y-89190260D01*
X117067274Y-89219849D01*
X117110884Y-89344476D01*
X117189288Y-89450710D01*
X117189289Y-89450711D01*
X117295523Y-89529115D01*
X117295524Y-89529115D01*
X117295525Y-89529116D01*
X117420151Y-89572725D01*
X117420150Y-89572725D01*
X117449740Y-89575500D01*
X117449744Y-89575500D01*
X118055260Y-89575500D01*
X118084849Y-89572725D01*
X118209475Y-89529116D01*
X118215419Y-89524728D01*
X118281048Y-89500759D01*
X118289052Y-89500500D01*
X119300943Y-89500500D01*
X119459057Y-89500500D01*
X120260945Y-89500500D01*
X120327984Y-89520185D01*
X120373739Y-89572989D01*
X120382562Y-89600309D01*
X120385131Y-89613229D01*
X120385132Y-89613230D01*
X120429447Y-89679552D01*
X120495769Y-89723867D01*
X120495770Y-89723868D01*
X120554247Y-89735499D01*
X120554250Y-89735500D01*
X120554252Y-89735500D01*
X124193750Y-89735500D01*
X124193751Y-89735499D01*
X124208568Y-89732552D01*
X124252229Y-89723868D01*
X124252231Y-89723867D01*
X124307108Y-89687199D01*
X124373785Y-89666320D01*
X124441166Y-89684804D01*
X124487856Y-89736782D01*
X124500000Y-89790300D01*
X124500000Y-94815869D01*
X124480315Y-94882908D01*
X124427511Y-94928663D01*
X124358353Y-94938607D01*
X124294797Y-94909582D01*
X124288319Y-94903550D01*
X124069256Y-94684487D01*
X123797001Y-94467372D01*
X123796999Y-94467371D01*
X123502130Y-94282092D01*
X123188382Y-94130999D01*
X122859692Y-94015985D01*
X122859684Y-94015982D01*
X122605048Y-93957863D01*
X122520171Y-93938491D01*
X122520167Y-93938490D01*
X122520158Y-93938489D01*
X122174124Y-93899500D01*
X122174120Y-93899500D01*
X121825880Y-93899500D01*
X121825875Y-93899500D01*
X121479841Y-93938489D01*
X121479829Y-93938491D01*
X121140315Y-94015982D01*
X121140307Y-94015985D01*
X120811617Y-94130999D01*
X120497869Y-94282092D01*
X120203000Y-94467371D01*
X120202998Y-94467372D01*
X119930743Y-94684487D01*
X119684487Y-94930743D01*
X119467372Y-95202998D01*
X119467371Y-95203000D01*
X119282092Y-95497869D01*
X119130999Y-95811617D01*
X119015985Y-96140307D01*
X119015982Y-96140315D01*
X118938491Y-96479829D01*
X118938489Y-96479841D01*
X118899500Y-96825875D01*
X118899500Y-97174124D01*
X118938489Y-97520158D01*
X118938491Y-97520170D01*
X119015982Y-97859684D01*
X119015985Y-97859692D01*
X119130999Y-98188382D01*
X119282092Y-98502130D01*
X119467371Y-98796999D01*
X119467372Y-98797001D01*
X119684487Y-99069256D01*
X119903550Y-99288319D01*
X119937035Y-99349642D01*
X119932051Y-99419334D01*
X119890179Y-99475267D01*
X119824715Y-99499684D01*
X119815869Y-99500000D01*
X105184131Y-99500000D01*
X105117092Y-99480315D01*
X105071337Y-99427511D01*
X105061393Y-99358353D01*
X105090418Y-99294797D01*
X105096450Y-99288319D01*
X105315506Y-99069263D01*
X105532630Y-98796997D01*
X105717906Y-98502133D01*
X105869002Y-98188379D01*
X105984018Y-97859681D01*
X106061509Y-97520171D01*
X106100500Y-97174120D01*
X106100500Y-96825880D01*
X106061509Y-96479829D01*
X105984018Y-96140319D01*
X105869002Y-95811621D01*
X105717906Y-95497867D01*
X105532630Y-95203003D01*
X105532628Y-95203000D01*
X105532627Y-95202998D01*
X105315512Y-94930743D01*
X105069256Y-94684487D01*
X104797001Y-94467372D01*
X104796999Y-94467371D01*
X104502130Y-94282092D01*
X104188382Y-94130999D01*
X103859692Y-94015985D01*
X103859684Y-94015982D01*
X103605048Y-93957863D01*
X103520171Y-93938491D01*
X103520167Y-93938490D01*
X103520158Y-93938489D01*
X103174124Y-93899500D01*
X103174120Y-93899500D01*
X102825880Y-93899500D01*
X102825875Y-93899500D01*
X102479841Y-93938489D01*
X102479829Y-93938491D01*
X102140315Y-94015982D01*
X102140307Y-94015985D01*
X101811617Y-94130999D01*
X101497869Y-94282092D01*
X101203000Y-94467371D01*
X101202998Y-94467372D01*
X100930743Y-94684487D01*
X100930739Y-94684491D01*
X100711681Y-94903550D01*
X100650358Y-94937035D01*
X100580666Y-94932051D01*
X100524733Y-94890179D01*
X100500316Y-94824715D01*
X100500000Y-94815869D01*
X100500000Y-91403739D01*
X108074500Y-91403739D01*
X108074500Y-91984260D01*
X108077274Y-92013849D01*
X108120884Y-92138476D01*
X108199288Y-92244710D01*
X108199289Y-92244711D01*
X108305523Y-92323115D01*
X108305524Y-92323115D01*
X108305525Y-92323116D01*
X108430151Y-92366725D01*
X108430150Y-92366725D01*
X108459740Y-92369500D01*
X108459744Y-92369500D01*
X109165260Y-92369500D01*
X109194849Y-92366725D01*
X109319475Y-92323116D01*
X109325419Y-92318728D01*
X109391048Y-92294759D01*
X109399052Y-92294500D01*
X112315943Y-92294500D01*
X115390948Y-92294500D01*
X115457987Y-92314185D01*
X115464576Y-92318726D01*
X115470525Y-92323116D01*
X115595151Y-92366725D01*
X115595150Y-92366725D01*
X115624740Y-92369500D01*
X115624744Y-92369500D01*
X116305260Y-92369500D01*
X116334849Y-92366725D01*
X116459475Y-92323116D01*
X116565711Y-92244711D01*
X116644116Y-92138475D01*
X116687725Y-92013849D01*
X116690500Y-91984256D01*
X116690500Y-91403744D01*
X116687725Y-91374151D01*
X116644116Y-91249525D01*
X116565711Y-91143289D01*
X116497898Y-91093241D01*
X116459476Y-91064884D01*
X116334848Y-91021274D01*
X116334849Y-91021274D01*
X116305260Y-91018500D01*
X116305256Y-91018500D01*
X115624744Y-91018500D01*
X115624740Y-91018500D01*
X115595150Y-91021274D01*
X115470526Y-91064883D01*
X115470523Y-91064885D01*
X115464581Y-91069271D01*
X115398952Y-91093241D01*
X115390948Y-91093500D01*
X113194500Y-91093500D01*
X113127461Y-91073815D01*
X113081706Y-91021011D01*
X113070500Y-90969500D01*
X113070500Y-90422239D01*
X113067725Y-90392650D01*
X113024115Y-90268023D01*
X112945711Y-90161789D01*
X112945710Y-90161788D01*
X112839476Y-90083384D01*
X112714848Y-90039774D01*
X112714849Y-90039774D01*
X112685260Y-90037000D01*
X112685256Y-90037000D01*
X112104744Y-90037000D01*
X112104740Y-90037000D01*
X112075150Y-90039774D01*
X111950523Y-90083384D01*
X111844289Y-90161788D01*
X111844288Y-90161789D01*
X111765884Y-90268023D01*
X111722274Y-90392650D01*
X111719500Y-90422239D01*
X111719500Y-90969500D01*
X111699815Y-91036539D01*
X111647011Y-91082294D01*
X111595500Y-91093500D01*
X109399052Y-91093500D01*
X109332013Y-91073815D01*
X109325419Y-91069271D01*
X109319476Y-91064885D01*
X109319475Y-91064884D01*
X109319473Y-91064883D01*
X109194848Y-91021274D01*
X109194849Y-91021274D01*
X109165260Y-91018500D01*
X109165256Y-91018500D01*
X108459744Y-91018500D01*
X108459740Y-91018500D01*
X108430150Y-91021274D01*
X108305523Y-91064884D01*
X108199289Y-91143288D01*
X108199288Y-91143289D01*
X108120884Y-91249523D01*
X108077274Y-91374150D01*
X108074500Y-91403739D01*
X100500000Y-91403739D01*
X100500000Y-89796982D01*
X100519685Y-89729943D01*
X100572489Y-89684188D01*
X100641647Y-89674244D01*
X100692889Y-89693879D01*
X100737769Y-89723867D01*
X100737771Y-89723867D01*
X100737772Y-89723868D01*
X100737770Y-89723868D01*
X100796247Y-89735499D01*
X100796250Y-89735500D01*
X100796252Y-89735500D01*
X104435750Y-89735500D01*
X104435751Y-89735499D01*
X104450568Y-89732552D01*
X104494229Y-89723868D01*
X104494229Y-89723867D01*
X104494231Y-89723867D01*
X104560552Y-89679552D01*
X104604867Y-89613231D01*
X104604867Y-89613229D01*
X104604868Y-89613229D01*
X104607438Y-89600309D01*
X104639822Y-89538398D01*
X104700538Y-89503824D01*
X104729055Y-89500500D01*
X105584943Y-89500500D01*
X105743057Y-89500500D01*
X106500948Y-89500500D01*
X106567987Y-89520185D01*
X106574576Y-89524726D01*
X106580525Y-89529116D01*
X106705151Y-89572725D01*
X106705150Y-89572725D01*
X106734740Y-89575500D01*
X106734744Y-89575500D01*
X107340260Y-89575500D01*
X107369849Y-89572725D01*
X107494475Y-89529116D01*
X107600711Y-89450711D01*
X107679116Y-89344475D01*
X107722725Y-89219849D01*
X107725500Y-89190256D01*
X107725500Y-88609744D01*
X107725500Y-88609739D01*
X108174500Y-88609739D01*
X108174500Y-89190260D01*
X108177274Y-89219849D01*
X108220884Y-89344476D01*
X108299288Y-89450710D01*
X108299289Y-89450711D01*
X108405523Y-89529115D01*
X108405524Y-89529115D01*
X108405525Y-89529116D01*
X108530151Y-89572725D01*
X108530150Y-89572725D01*
X108559740Y-89575500D01*
X108559744Y-89575500D01*
X109165260Y-89575500D01*
X109194849Y-89572725D01*
X109319475Y-89529116D01*
X109325419Y-89524728D01*
X109391048Y-89500759D01*
X109399052Y-89500500D01*
X111854011Y-89500500D01*
X111921050Y-89520185D01*
X111927644Y-89524729D01*
X111950525Y-89541616D01*
X112075151Y-89585225D01*
X112075150Y-89585225D01*
X112104740Y-89588000D01*
X112104744Y-89588000D01*
X112685260Y-89588000D01*
X112714849Y-89585225D01*
X112749817Y-89572989D01*
X112839475Y-89541616D01*
X112862356Y-89524728D01*
X112927985Y-89500759D01*
X112935989Y-89500500D01*
X115390948Y-89500500D01*
X115457987Y-89520185D01*
X115464576Y-89524726D01*
X115470525Y-89529116D01*
X115595151Y-89572725D01*
X115595150Y-89572725D01*
X115624740Y-89575500D01*
X115624744Y-89575500D01*
X116230260Y-89575500D01*
X116259849Y-89572725D01*
X116384475Y-89529116D01*
X116490711Y-89450711D01*
X116569116Y-89344475D01*
X116612725Y-89219849D01*
X116615500Y-89190256D01*
X116615500Y-88609744D01*
X116612725Y-88580151D01*
X116569116Y-88455525D01*
X116490711Y-88349289D01*
X116422898Y-88299241D01*
X116384476Y-88270884D01*
X116259848Y-88227274D01*
X116259849Y-88227274D01*
X116230260Y-88224500D01*
X116230256Y-88224500D01*
X115624744Y-88224500D01*
X115624740Y-88224500D01*
X115595150Y-88227274D01*
X115470526Y-88270883D01*
X115470523Y-88270885D01*
X115464581Y-88275271D01*
X115398952Y-88299241D01*
X115390948Y-88299500D01*
X112935989Y-88299500D01*
X112868950Y-88279815D01*
X112862356Y-88275271D01*
X112839474Y-88258383D01*
X112714848Y-88214774D01*
X112714849Y-88214774D01*
X112685260Y-88212000D01*
X112685256Y-88212000D01*
X112104744Y-88212000D01*
X112104740Y-88212000D01*
X112075150Y-88214774D01*
X111950525Y-88258383D01*
X111927644Y-88275271D01*
X111862015Y-88299241D01*
X111854011Y-88299500D01*
X109399052Y-88299500D01*
X109332013Y-88279815D01*
X109325419Y-88275271D01*
X109319476Y-88270885D01*
X109319475Y-88270884D01*
X109319473Y-88270883D01*
X109194848Y-88227274D01*
X109194849Y-88227274D01*
X109165260Y-88224500D01*
X109165256Y-88224500D01*
X108559744Y-88224500D01*
X108559740Y-88224500D01*
X108530150Y-88227274D01*
X108405523Y-88270884D01*
X108299289Y-88349288D01*
X108299288Y-88349289D01*
X108220884Y-88455523D01*
X108177274Y-88580150D01*
X108174500Y-88609739D01*
X107725500Y-88609739D01*
X107722725Y-88580151D01*
X107679116Y-88455525D01*
X107600711Y-88349289D01*
X107532898Y-88299241D01*
X107494476Y-88270884D01*
X107369848Y-88227274D01*
X107369849Y-88227274D01*
X107340260Y-88224500D01*
X107340256Y-88224500D01*
X106734744Y-88224500D01*
X106734740Y-88224500D01*
X106705150Y-88227274D01*
X106580526Y-88270883D01*
X106580523Y-88270885D01*
X106574581Y-88275271D01*
X106508952Y-88299241D01*
X106500948Y-88299500D01*
X106388500Y-88299500D01*
X106321461Y-88279815D01*
X106275706Y-88227011D01*
X106264500Y-88175500D01*
X106264500Y-86830500D01*
X106284185Y-86763461D01*
X106336989Y-86717706D01*
X106388500Y-86706500D01*
X106500948Y-86706500D01*
X106567987Y-86726185D01*
X106574576Y-86730726D01*
X106580525Y-86735116D01*
X106705151Y-86778725D01*
X106705150Y-86778725D01*
X106734740Y-86781500D01*
X106734744Y-86781500D01*
X107440260Y-86781500D01*
X107469849Y-86778725D01*
X107594475Y-86735116D01*
X107700711Y-86656711D01*
X107779116Y-86550475D01*
X107822725Y-86425849D01*
X107825500Y-86396256D01*
X107825500Y-85815744D01*
X107825500Y-85815739D01*
X108074500Y-85815739D01*
X108074500Y-86396260D01*
X108077274Y-86425849D01*
X108120884Y-86550476D01*
X108199288Y-86656710D01*
X108199289Y-86656711D01*
X108305523Y-86735115D01*
X108305524Y-86735115D01*
X108305525Y-86735116D01*
X108430151Y-86778725D01*
X108430150Y-86778725D01*
X108459740Y-86781500D01*
X108459744Y-86781500D01*
X109165260Y-86781500D01*
X109194849Y-86778725D01*
X109319475Y-86735116D01*
X109325419Y-86730728D01*
X109391048Y-86706759D01*
X109399052Y-86706500D01*
X115390948Y-86706500D01*
X115457987Y-86726185D01*
X115464576Y-86730726D01*
X115470525Y-86735116D01*
X115595151Y-86778725D01*
X115595150Y-86778725D01*
X115624740Y-86781500D01*
X115624744Y-86781500D01*
X116305260Y-86781500D01*
X116334849Y-86778725D01*
X116459475Y-86735116D01*
X116565711Y-86656711D01*
X116644116Y-86550475D01*
X116687725Y-86425849D01*
X116690500Y-86396256D01*
X116690500Y-85815744D01*
X116687725Y-85786151D01*
X116644116Y-85661525D01*
X116565711Y-85555289D01*
X116497898Y-85505241D01*
X116459476Y-85476884D01*
X116334848Y-85433274D01*
X116334849Y-85433274D01*
X116305260Y-85430500D01*
X116305256Y-85430500D01*
X115624744Y-85430500D01*
X115624740Y-85430500D01*
X115595150Y-85433274D01*
X115470526Y-85476883D01*
X115470523Y-85476885D01*
X115464581Y-85481271D01*
X115398952Y-85505241D01*
X115390948Y-85505500D01*
X109399052Y-85505500D01*
X109332013Y-85485815D01*
X109325419Y-85481271D01*
X109319476Y-85476885D01*
X109319475Y-85476884D01*
X109319473Y-85476883D01*
X109194848Y-85433274D01*
X109194849Y-85433274D01*
X109165260Y-85430500D01*
X109165256Y-85430500D01*
X108459744Y-85430500D01*
X108459740Y-85430500D01*
X108430150Y-85433274D01*
X108305523Y-85476884D01*
X108199289Y-85555288D01*
X108199288Y-85555289D01*
X108120884Y-85661523D01*
X108077274Y-85786150D01*
X108074500Y-85815739D01*
X107825500Y-85815739D01*
X107822725Y-85786151D01*
X107779116Y-85661525D01*
X107700711Y-85555289D01*
X107632898Y-85505241D01*
X107594476Y-85476884D01*
X107469848Y-85433274D01*
X107469849Y-85433274D01*
X107440260Y-85430500D01*
X107440256Y-85430500D01*
X106734744Y-85430500D01*
X106734740Y-85430500D01*
X106705150Y-85433274D01*
X106580526Y-85476883D01*
X106580523Y-85476885D01*
X106574581Y-85481271D01*
X106508952Y-85505241D01*
X106500948Y-85505500D01*
X106388500Y-85505500D01*
X106321461Y-85485815D01*
X106275706Y-85433011D01*
X106264500Y-85381500D01*
X106264500Y-84628097D01*
X106284185Y-84561058D01*
X106300819Y-84540416D01*
X106384416Y-84456819D01*
X106445739Y-84423334D01*
X106472097Y-84420500D01*
X110945948Y-84420500D01*
X111012987Y-84440185D01*
X111019576Y-84444726D01*
X111025525Y-84449116D01*
X111150151Y-84492725D01*
X111150150Y-84492725D01*
X111179740Y-84495500D01*
X111179744Y-84495500D01*
X111785260Y-84495500D01*
X111814849Y-84492725D01*
X111939475Y-84449116D01*
X112045711Y-84370711D01*
X112124116Y-84264475D01*
X112167725Y-84139849D01*
X112170500Y-84110256D01*
X112170500Y-83529744D01*
X112167725Y-83500151D01*
X112124116Y-83375525D01*
X112045711Y-83269289D01*
X112033698Y-83260423D01*
X111939476Y-83190884D01*
X111814848Y-83147274D01*
X111814849Y-83147274D01*
X111785260Y-83144500D01*
X111785256Y-83144500D01*
X111179744Y-83144500D01*
X111179740Y-83144500D01*
X111150150Y-83147274D01*
X111025526Y-83190883D01*
X111025523Y-83190885D01*
X111019581Y-83195271D01*
X110953952Y-83219241D01*
X110945948Y-83219500D01*
X106092940Y-83219500D01*
X106052019Y-83230464D01*
X106052019Y-83230465D01*
X106014751Y-83240451D01*
X105940214Y-83260423D01*
X105940209Y-83260426D01*
X105803290Y-83339475D01*
X105803282Y-83339481D01*
X105183481Y-83959282D01*
X105183479Y-83959285D01*
X105133361Y-84046094D01*
X105133359Y-84046096D01*
X105104425Y-84096209D01*
X105104424Y-84096210D01*
X105092731Y-84139849D01*
X105063499Y-84248943D01*
X105063499Y-84248945D01*
X105063499Y-84417046D01*
X105063500Y-84417059D01*
X105063500Y-88175500D01*
X105043815Y-88242539D01*
X104991011Y-88288294D01*
X104939500Y-88299500D01*
X104729055Y-88299500D01*
X104662016Y-88279815D01*
X104616261Y-88227011D01*
X104607438Y-88199691D01*
X104604868Y-88186770D01*
X104604867Y-88186769D01*
X104560552Y-88120447D01*
X104494230Y-88076132D01*
X104494229Y-88076131D01*
X104435752Y-88064500D01*
X104435748Y-88064500D01*
X100796252Y-88064500D01*
X100796247Y-88064500D01*
X100737770Y-88076131D01*
X100737766Y-88076133D01*
X100692890Y-88106119D01*
X100626213Y-88126997D01*
X100558833Y-88108512D01*
X100512143Y-88056533D01*
X100500000Y-88003017D01*
X100500000Y-81124000D01*
X100519685Y-81056961D01*
X100572489Y-81011206D01*
X100624000Y-81000000D01*
X124376000Y-81000000D01*
X124443039Y-81019685D01*
G37*
%TD.AperFunction*%
%TD*%
M02*
