%TF.GenerationSoftware,KiCad,Pcbnew,8.0.5-8.0.5-0~ubuntu22.04.1*%
%TF.CreationDate,2025-01-09T21:46:31-03:00*%
%TF.ProjectId,preenfasis,70726565-6e66-4617-9369-732e6b696361,v1.3*%
%TF.SameCoordinates,Original*%
%TF.FileFunction,Copper,L2,Bot*%
%TF.FilePolarity,Positive*%
%FSLAX46Y46*%
G04 Gerber Fmt 4.6, Leading zero omitted, Abs format (unit mm)*
G04 Created by KiCad (PCBNEW 8.0.5-8.0.5-0~ubuntu22.04.1) date 2025-01-09 21:46:31*
%MOMM*%
%LPD*%
G01*
G04 APERTURE LIST*
%TA.AperFunction,SMDPad,CuDef*%
%ADD10R,4.200000X1.350000*%
%TD*%
%TA.AperFunction,ViaPad*%
%ADD11C,0.600000*%
%TD*%
G04 APERTURE END LIST*
D10*
%TO.P,J3,2,Ext*%
%TO.N,Net-(J3-Ext)*%
X102743000Y-69565000D03*
X102743000Y-75215000D03*
%TD*%
%TO.P,J2,2,Ext*%
%TO.N,Net-(J1-Ext)*%
X122174000Y-91725000D03*
X122174000Y-86075000D03*
%TD*%
%TO.P,J4,2,Ext*%
%TO.N,Net-(J3-Ext)*%
X122174000Y-75215000D03*
X122174000Y-69565000D03*
%TD*%
%TO.P,J1,2,Ext*%
%TO.N,Net-(J1-Ext)*%
X102816000Y-86075000D03*
X102816000Y-91725000D03*
%TD*%
D11*
%TO.N,Net-(J1-Ext)*%
X115500000Y-90000000D03*
X112000000Y-85000000D03*
X122500000Y-87700000D03*
X113000000Y-82500000D03*
X113000000Y-85000000D03*
X118500000Y-93000000D03*
X120000000Y-83500000D03*
X104000000Y-87700000D03*
X104500000Y-84000000D03*
X105000000Y-83000000D03*
X109000000Y-85000000D03*
X116250000Y-92750000D03*
X121500000Y-87700000D03*
X116500000Y-90000000D03*
X101000000Y-90100000D03*
X115000000Y-82500000D03*
X116000000Y-85000000D03*
X119000000Y-82500000D03*
X102816000Y-84455000D03*
X107000000Y-87500000D03*
X113250000Y-92750000D03*
X117500000Y-90000000D03*
X122174000Y-93319600D03*
X120500000Y-87700000D03*
X114250000Y-92750000D03*
X110000000Y-82500000D03*
X107000000Y-85000000D03*
X117500000Y-93000000D03*
X106000000Y-93000000D03*
X104000000Y-90100000D03*
X110000000Y-87500000D03*
X111000000Y-85000000D03*
X119500000Y-90000000D03*
X115250000Y-92750000D03*
X121500000Y-90100000D03*
X122174000Y-84531200D03*
X111250000Y-92750000D03*
X119500000Y-93000000D03*
X112000000Y-87500000D03*
X118000000Y-87500000D03*
X110000000Y-85000000D03*
X122500000Y-90100000D03*
X103000000Y-90100000D03*
X120500000Y-90100000D03*
X123500000Y-90100000D03*
X117000000Y-87500000D03*
X107000000Y-93000000D03*
X109000000Y-82500000D03*
X120500000Y-84500000D03*
X118000000Y-85000000D03*
X114000000Y-82500000D03*
X115000000Y-85000000D03*
X110250000Y-92750000D03*
X108000000Y-82500000D03*
X117000000Y-82500000D03*
X116000000Y-87500000D03*
X108000000Y-85000000D03*
X102816000Y-93345000D03*
X117000000Y-85000000D03*
X105000000Y-90000000D03*
X116000000Y-82500000D03*
X113500000Y-90000000D03*
X108000000Y-87500000D03*
X102000000Y-90100000D03*
X107000000Y-82500000D03*
X111000000Y-87500000D03*
X115000000Y-87500000D03*
X113000000Y-87500000D03*
X112250000Y-92750000D03*
X109000000Y-87500000D03*
X106000000Y-82500000D03*
X101000000Y-87700000D03*
X114500000Y-90000000D03*
X103000000Y-87700000D03*
X118000000Y-82500000D03*
X110000000Y-90000000D03*
X109000000Y-90000000D03*
X111000000Y-90000000D03*
X112000000Y-82500000D03*
X123500000Y-87700000D03*
X107000000Y-90000000D03*
X111000000Y-82500000D03*
X109250000Y-92750000D03*
X114000000Y-85000000D03*
X106000000Y-90000000D03*
X118500000Y-90000000D03*
X102000000Y-87700000D03*
X108000000Y-90000000D03*
X114000000Y-87500000D03*
X108250000Y-92750000D03*
%TO.N,Net-(J3-Ext)*%
X102768400Y-67968500D03*
X122174000Y-67968500D03*
X122174000Y-76782300D03*
X102725000Y-76731500D03*
%TD*%
%TA.AperFunction,Conductor*%
%TO.N,Net-(J1-Ext)*%
G36*
X124346288Y-81018954D02*
G01*
X124427070Y-81072930D01*
X124481046Y-81153712D01*
X124500000Y-81249000D01*
X124500000Y-94514092D01*
X124481046Y-94609380D01*
X124427070Y-94690162D01*
X124346288Y-94744138D01*
X124251000Y-94763092D01*
X124155712Y-94744138D01*
X124074933Y-94690164D01*
X124069263Y-94684494D01*
X123796997Y-94467370D01*
X123796998Y-94467370D01*
X123796996Y-94467369D01*
X123502143Y-94282100D01*
X123502139Y-94282098D01*
X123502133Y-94282094D01*
X123502123Y-94282089D01*
X123502119Y-94282087D01*
X123188373Y-94130995D01*
X122951659Y-94048166D01*
X122859681Y-94015982D01*
X122859683Y-94015982D01*
X122520172Y-93938491D01*
X122174132Y-93899500D01*
X122174120Y-93899500D01*
X121825880Y-93899500D01*
X121825867Y-93899500D01*
X121479827Y-93938491D01*
X121140318Y-94015982D01*
X120811626Y-94130995D01*
X120497880Y-94282087D01*
X120497856Y-94282100D01*
X120203003Y-94467369D01*
X119930740Y-94684491D01*
X119684491Y-94930740D01*
X119467369Y-95203003D01*
X119282100Y-95497856D01*
X119282087Y-95497880D01*
X119130995Y-95811626D01*
X119015982Y-96140318D01*
X118938491Y-96479827D01*
X118899500Y-96825867D01*
X118899500Y-97174132D01*
X118938491Y-97520172D01*
X119015982Y-97859681D01*
X119130995Y-98188373D01*
X119130998Y-98188379D01*
X119282094Y-98502133D01*
X119282098Y-98502139D01*
X119282100Y-98502143D01*
X119400499Y-98690574D01*
X119467370Y-98796997D01*
X119684494Y-99069263D01*
X119690164Y-99074933D01*
X119744138Y-99155712D01*
X119763092Y-99251000D01*
X119744138Y-99346288D01*
X119690162Y-99427070D01*
X119609380Y-99481046D01*
X119514092Y-99500000D01*
X105485908Y-99500000D01*
X105390620Y-99481046D01*
X105309838Y-99427070D01*
X105255862Y-99346288D01*
X105236908Y-99251000D01*
X105255862Y-99155712D01*
X105309835Y-99074933D01*
X105315506Y-99069263D01*
X105532630Y-98796997D01*
X105717906Y-98502133D01*
X105869002Y-98188379D01*
X105984018Y-97859681D01*
X106061509Y-97520171D01*
X106100500Y-97174120D01*
X106100500Y-96825880D01*
X106061509Y-96479829D01*
X105984018Y-96140319D01*
X105869002Y-95811621D01*
X105717906Y-95497867D01*
X105532630Y-95203003D01*
X105315506Y-94930737D01*
X105069263Y-94684494D01*
X104796997Y-94467370D01*
X104796998Y-94467370D01*
X104796996Y-94467369D01*
X104502143Y-94282100D01*
X104502139Y-94282098D01*
X104502133Y-94282094D01*
X104502123Y-94282089D01*
X104502119Y-94282087D01*
X104188373Y-94130995D01*
X103951659Y-94048166D01*
X103859681Y-94015982D01*
X103859683Y-94015982D01*
X103520172Y-93938491D01*
X103174132Y-93899500D01*
X103174120Y-93899500D01*
X102825880Y-93899500D01*
X102825867Y-93899500D01*
X102479827Y-93938491D01*
X102140318Y-94015982D01*
X101811626Y-94130995D01*
X101497880Y-94282087D01*
X101497856Y-94282100D01*
X101203003Y-94467369D01*
X100930740Y-94684491D01*
X100930737Y-94684493D01*
X100930737Y-94684494D01*
X100925066Y-94690164D01*
X100844288Y-94744138D01*
X100749000Y-94763092D01*
X100653712Y-94744138D01*
X100572930Y-94690162D01*
X100518954Y-94609380D01*
X100500000Y-94514092D01*
X100500000Y-81249000D01*
X100518954Y-81153712D01*
X100572930Y-81072930D01*
X100653712Y-81018954D01*
X100749000Y-81000000D01*
X124251000Y-81000000D01*
X124346288Y-81018954D01*
G37*
%TD.AperFunction*%
%TD*%
%TA.AperFunction,Conductor*%
%TO.N,Net-(J3-Ext)*%
G36*
X119882908Y-60519685D02*
G01*
X119928663Y-60572489D01*
X119938607Y-60641647D01*
X119909582Y-60705203D01*
X119903550Y-60711681D01*
X119684491Y-60930739D01*
X119684487Y-60930743D01*
X119467372Y-61202998D01*
X119467371Y-61203000D01*
X119282092Y-61497869D01*
X119130999Y-61811617D01*
X119015985Y-62140307D01*
X119015982Y-62140315D01*
X118938491Y-62479829D01*
X118938489Y-62479841D01*
X118899500Y-62825875D01*
X118899500Y-63174124D01*
X118938489Y-63520158D01*
X118938491Y-63520170D01*
X119015982Y-63859684D01*
X119015985Y-63859692D01*
X119130999Y-64188382D01*
X119282092Y-64502130D01*
X119467371Y-64796999D01*
X119467372Y-64797001D01*
X119684487Y-65069256D01*
X119930743Y-65315512D01*
X120202998Y-65532627D01*
X120203001Y-65532628D01*
X120203003Y-65532630D01*
X120497867Y-65717906D01*
X120811621Y-65869002D01*
X121058488Y-65955384D01*
X121140307Y-65984014D01*
X121140315Y-65984017D01*
X121140318Y-65984017D01*
X121140319Y-65984018D01*
X121479829Y-66061509D01*
X121825876Y-66100499D01*
X121825877Y-66100500D01*
X121825880Y-66100500D01*
X122174123Y-66100500D01*
X122174123Y-66100499D01*
X122520171Y-66061509D01*
X122859681Y-65984018D01*
X123188379Y-65869002D01*
X123502133Y-65717906D01*
X123796997Y-65532630D01*
X123797001Y-65532627D01*
X124069256Y-65315512D01*
X124069260Y-65315508D01*
X124069263Y-65315506D01*
X124288319Y-65096450D01*
X124349642Y-65062965D01*
X124419334Y-65067949D01*
X124475267Y-65109821D01*
X124499684Y-65175285D01*
X124500000Y-65184131D01*
X124500000Y-78876000D01*
X124480315Y-78943039D01*
X124427511Y-78988794D01*
X124376000Y-79000000D01*
X100624000Y-79000000D01*
X100556961Y-78980315D01*
X100511206Y-78927511D01*
X100500000Y-78876000D01*
X100500000Y-65184131D01*
X100519685Y-65117092D01*
X100572489Y-65071337D01*
X100641647Y-65061393D01*
X100705203Y-65090418D01*
X100711681Y-65096450D01*
X100930743Y-65315512D01*
X101202998Y-65532627D01*
X101203001Y-65532628D01*
X101203003Y-65532630D01*
X101497867Y-65717906D01*
X101811621Y-65869002D01*
X102058488Y-65955384D01*
X102140307Y-65984014D01*
X102140315Y-65984017D01*
X102140318Y-65984017D01*
X102140319Y-65984018D01*
X102479829Y-66061509D01*
X102825876Y-66100499D01*
X102825877Y-66100500D01*
X102825880Y-66100500D01*
X103174123Y-66100500D01*
X103174123Y-66100499D01*
X103520171Y-66061509D01*
X103859681Y-65984018D01*
X104188379Y-65869002D01*
X104502133Y-65717906D01*
X104796997Y-65532630D01*
X104797001Y-65532627D01*
X105069256Y-65315512D01*
X105069260Y-65315508D01*
X105069263Y-65315506D01*
X105315506Y-65069263D01*
X105320529Y-65062965D01*
X105532627Y-64797001D01*
X105532628Y-64796999D01*
X105532630Y-64796997D01*
X105717906Y-64502133D01*
X105869002Y-64188379D01*
X105984018Y-63859681D01*
X106061509Y-63520171D01*
X106100500Y-63174120D01*
X106100500Y-62825880D01*
X106061509Y-62479829D01*
X105984018Y-62140319D01*
X105869002Y-61811621D01*
X105717906Y-61497867D01*
X105532630Y-61203003D01*
X105532628Y-61203000D01*
X105532627Y-61202998D01*
X105315512Y-60930743D01*
X105096450Y-60711681D01*
X105062965Y-60650358D01*
X105067949Y-60580666D01*
X105109821Y-60524733D01*
X105175285Y-60500316D01*
X105184131Y-60500000D01*
X119815869Y-60500000D01*
X119882908Y-60519685D01*
G37*
%TD.AperFunction*%
%TD*%
M02*
