%TF.GenerationSoftware,KiCad,Pcbnew,8.0.5-8.0.5-0~ubuntu22.04.1*%
%TF.CreationDate,2025-01-09T21:02:11-03:00*%
%TF.ProjectId,preenfasis,70726565-6e66-4617-9369-732e6b696361,v1.3*%
%TF.SameCoordinates,Original*%
%TF.FileFunction,Legend,Top*%
%TF.FilePolarity,Positive*%
%FSLAX46Y46*%
G04 Gerber Fmt 4.6, Leading zero omitted, Abs format (unit mm)*
G04 Created by KiCad (PCBNEW 8.0.5-8.0.5-0~ubuntu22.04.1) date 2025-01-09 21:02:11*
%MOMM*%
%LPD*%
G01*
G04 APERTURE LIST*
%ADD10C,0.300000*%
%ADD11C,0.100000*%
%ADD12C,0.150000*%
%ADD13C,0.120000*%
G04 APERTURE END LIST*
D10*
X107554510Y-78300828D02*
X107554510Y-76800828D01*
X107554510Y-76800828D02*
X108054510Y-77872257D01*
X108054510Y-77872257D02*
X108554510Y-76800828D01*
X108554510Y-76800828D02*
X108554510Y-78300828D01*
X109268796Y-78300828D02*
X109268796Y-77300828D01*
X109268796Y-76800828D02*
X109197368Y-76872257D01*
X109197368Y-76872257D02*
X109268796Y-76943685D01*
X109268796Y-76943685D02*
X109340225Y-76872257D01*
X109340225Y-76872257D02*
X109268796Y-76800828D01*
X109268796Y-76800828D02*
X109268796Y-76943685D01*
X110625940Y-78229400D02*
X110483082Y-78300828D01*
X110483082Y-78300828D02*
X110197368Y-78300828D01*
X110197368Y-78300828D02*
X110054511Y-78229400D01*
X110054511Y-78229400D02*
X109983082Y-78157971D01*
X109983082Y-78157971D02*
X109911654Y-78015114D01*
X109911654Y-78015114D02*
X109911654Y-77586542D01*
X109911654Y-77586542D02*
X109983082Y-77443685D01*
X109983082Y-77443685D02*
X110054511Y-77372257D01*
X110054511Y-77372257D02*
X110197368Y-77300828D01*
X110197368Y-77300828D02*
X110483082Y-77300828D01*
X110483082Y-77300828D02*
X110625940Y-77372257D01*
X111268796Y-78300828D02*
X111268796Y-77300828D01*
X111268796Y-77586542D02*
X111340225Y-77443685D01*
X111340225Y-77443685D02*
X111411654Y-77372257D01*
X111411654Y-77372257D02*
X111554511Y-77300828D01*
X111554511Y-77300828D02*
X111697368Y-77300828D01*
X112411653Y-78300828D02*
X112268796Y-78229400D01*
X112268796Y-78229400D02*
X112197367Y-78157971D01*
X112197367Y-78157971D02*
X112125939Y-78015114D01*
X112125939Y-78015114D02*
X112125939Y-77586542D01*
X112125939Y-77586542D02*
X112197367Y-77443685D01*
X112197367Y-77443685D02*
X112268796Y-77372257D01*
X112268796Y-77372257D02*
X112411653Y-77300828D01*
X112411653Y-77300828D02*
X112625939Y-77300828D01*
X112625939Y-77300828D02*
X112768796Y-77372257D01*
X112768796Y-77372257D02*
X112840225Y-77443685D01*
X112840225Y-77443685D02*
X112911653Y-77586542D01*
X112911653Y-77586542D02*
X112911653Y-78015114D01*
X112911653Y-78015114D02*
X112840225Y-78157971D01*
X112840225Y-78157971D02*
X112768796Y-78229400D01*
X112768796Y-78229400D02*
X112625939Y-78300828D01*
X112625939Y-78300828D02*
X112411653Y-78300828D01*
X113483082Y-78229400D02*
X113625939Y-78300828D01*
X113625939Y-78300828D02*
X113911653Y-78300828D01*
X113911653Y-78300828D02*
X114054510Y-78229400D01*
X114054510Y-78229400D02*
X114125939Y-78086542D01*
X114125939Y-78086542D02*
X114125939Y-78015114D01*
X114125939Y-78015114D02*
X114054510Y-77872257D01*
X114054510Y-77872257D02*
X113911653Y-77800828D01*
X113911653Y-77800828D02*
X113697368Y-77800828D01*
X113697368Y-77800828D02*
X113554510Y-77729400D01*
X113554510Y-77729400D02*
X113483082Y-77586542D01*
X113483082Y-77586542D02*
X113483082Y-77515114D01*
X113483082Y-77515114D02*
X113554510Y-77372257D01*
X113554510Y-77372257D02*
X113697368Y-77300828D01*
X113697368Y-77300828D02*
X113911653Y-77300828D01*
X113911653Y-77300828D02*
X114054510Y-77372257D01*
X114554511Y-77300828D02*
X115125939Y-77300828D01*
X114768796Y-76800828D02*
X114768796Y-78086542D01*
X114768796Y-78086542D02*
X114840225Y-78229400D01*
X114840225Y-78229400D02*
X114983082Y-78300828D01*
X114983082Y-78300828D02*
X115125939Y-78300828D01*
X115625939Y-78300828D02*
X115625939Y-77300828D01*
X115625939Y-77586542D02*
X115697368Y-77443685D01*
X115697368Y-77443685D02*
X115768797Y-77372257D01*
X115768797Y-77372257D02*
X115911654Y-77300828D01*
X115911654Y-77300828D02*
X116054511Y-77300828D01*
X116554510Y-78300828D02*
X116554510Y-77300828D01*
X116554510Y-76800828D02*
X116483082Y-76872257D01*
X116483082Y-76872257D02*
X116554510Y-76943685D01*
X116554510Y-76943685D02*
X116625939Y-76872257D01*
X116625939Y-76872257D02*
X116554510Y-76800828D01*
X116554510Y-76800828D02*
X116554510Y-76943685D01*
X117268796Y-77300828D02*
X117268796Y-78800828D01*
X117268796Y-77372257D02*
X117411654Y-77300828D01*
X117411654Y-77300828D02*
X117697368Y-77300828D01*
X117697368Y-77300828D02*
X117840225Y-77372257D01*
X117840225Y-77372257D02*
X117911654Y-77443685D01*
X117911654Y-77443685D02*
X117983082Y-77586542D01*
X117983082Y-77586542D02*
X117983082Y-78015114D01*
X117983082Y-78015114D02*
X117911654Y-78157971D01*
X117911654Y-78157971D02*
X117840225Y-78229400D01*
X117840225Y-78229400D02*
X117697368Y-78300828D01*
X117697368Y-78300828D02*
X117411654Y-78300828D01*
X117411654Y-78300828D02*
X117268796Y-78229400D01*
X111411653Y-81657971D02*
X111340225Y-81729400D01*
X111340225Y-81729400D02*
X111125939Y-81800828D01*
X111125939Y-81800828D02*
X110983082Y-81800828D01*
X110983082Y-81800828D02*
X110768796Y-81729400D01*
X110768796Y-81729400D02*
X110625939Y-81586542D01*
X110625939Y-81586542D02*
X110554510Y-81443685D01*
X110554510Y-81443685D02*
X110483082Y-81157971D01*
X110483082Y-81157971D02*
X110483082Y-80943685D01*
X110483082Y-80943685D02*
X110554510Y-80657971D01*
X110554510Y-80657971D02*
X110625939Y-80515114D01*
X110625939Y-80515114D02*
X110768796Y-80372257D01*
X110768796Y-80372257D02*
X110983082Y-80300828D01*
X110983082Y-80300828D02*
X111125939Y-80300828D01*
X111125939Y-80300828D02*
X111340225Y-80372257D01*
X111340225Y-80372257D02*
X111411653Y-80443685D01*
X112054510Y-81800828D02*
X112054510Y-80300828D01*
X112054510Y-80300828D02*
X112625939Y-80300828D01*
X112625939Y-80300828D02*
X112768796Y-80372257D01*
X112768796Y-80372257D02*
X112840225Y-80443685D01*
X112840225Y-80443685D02*
X112911653Y-80586542D01*
X112911653Y-80586542D02*
X112911653Y-80800828D01*
X112911653Y-80800828D02*
X112840225Y-80943685D01*
X112840225Y-80943685D02*
X112768796Y-81015114D01*
X112768796Y-81015114D02*
X112625939Y-81086542D01*
X112625939Y-81086542D02*
X112054510Y-81086542D01*
X113411653Y-80300828D02*
X113768796Y-81800828D01*
X113768796Y-81800828D02*
X114054510Y-80729400D01*
X114054510Y-80729400D02*
X114340225Y-81800828D01*
X114340225Y-81800828D02*
X114697368Y-80300828D01*
D11*
X105500000Y-95060000D02*
X119500000Y-95060000D01*
X119500000Y-99060000D01*
X105500000Y-99060000D01*
X105500000Y-95060000D01*
G36*
X105500000Y-95060000D02*
G01*
X119500000Y-95060000D01*
X119500000Y-99060000D01*
X105500000Y-99060000D01*
X105500000Y-95060000D01*
G37*
X105500000Y-60960000D02*
X119500000Y-60960000D01*
X119500000Y-64960000D01*
X105500000Y-64960000D01*
X105500000Y-60960000D01*
G36*
X105500000Y-60960000D02*
G01*
X119500000Y-60960000D01*
X119500000Y-64960000D01*
X105500000Y-64960000D01*
X105500000Y-60960000D01*
G37*
D12*
X105699160Y-65878104D02*
X106175350Y-65878104D01*
X105603922Y-66163819D02*
X105937255Y-65163819D01*
X105937255Y-65163819D02*
X106270588Y-66163819D01*
X106556303Y-66116200D02*
X106651541Y-66163819D01*
X106651541Y-66163819D02*
X106842017Y-66163819D01*
X106842017Y-66163819D02*
X106937255Y-66116200D01*
X106937255Y-66116200D02*
X106984874Y-66020961D01*
X106984874Y-66020961D02*
X106984874Y-65973342D01*
X106984874Y-65973342D02*
X106937255Y-65878104D01*
X106937255Y-65878104D02*
X106842017Y-65830485D01*
X106842017Y-65830485D02*
X106699160Y-65830485D01*
X106699160Y-65830485D02*
X106603922Y-65782866D01*
X106603922Y-65782866D02*
X106556303Y-65687628D01*
X106556303Y-65687628D02*
X106556303Y-65640009D01*
X106556303Y-65640009D02*
X106603922Y-65544771D01*
X106603922Y-65544771D02*
X106699160Y-65497152D01*
X106699160Y-65497152D02*
X106842017Y-65497152D01*
X106842017Y-65497152D02*
X106937255Y-65544771D01*
X107365827Y-66116200D02*
X107461065Y-66163819D01*
X107461065Y-66163819D02*
X107651541Y-66163819D01*
X107651541Y-66163819D02*
X107746779Y-66116200D01*
X107746779Y-66116200D02*
X107794398Y-66020961D01*
X107794398Y-66020961D02*
X107794398Y-65973342D01*
X107794398Y-65973342D02*
X107746779Y-65878104D01*
X107746779Y-65878104D02*
X107651541Y-65830485D01*
X107651541Y-65830485D02*
X107508684Y-65830485D01*
X107508684Y-65830485D02*
X107413446Y-65782866D01*
X107413446Y-65782866D02*
X107365827Y-65687628D01*
X107365827Y-65687628D02*
X107365827Y-65640009D01*
X107365827Y-65640009D02*
X107413446Y-65544771D01*
X107413446Y-65544771D02*
X107508684Y-65497152D01*
X107508684Y-65497152D02*
X107651541Y-65497152D01*
X107651541Y-65497152D02*
X107746779Y-65544771D01*
X108127732Y-65497152D02*
X108365827Y-66163819D01*
X108603922Y-65497152D02*
X108365827Y-66163819D01*
X108365827Y-66163819D02*
X108270589Y-66401914D01*
X108270589Y-66401914D02*
X108222970Y-66449533D01*
X108222970Y-66449533D02*
X108127732Y-66497152D01*
X105699160Y-94564200D02*
X105842017Y-94611819D01*
X105842017Y-94611819D02*
X106080112Y-94611819D01*
X106080112Y-94611819D02*
X106175350Y-94564200D01*
X106175350Y-94564200D02*
X106222969Y-94516580D01*
X106222969Y-94516580D02*
X106270588Y-94421342D01*
X106270588Y-94421342D02*
X106270588Y-94326104D01*
X106270588Y-94326104D02*
X106222969Y-94230866D01*
X106222969Y-94230866D02*
X106175350Y-94183247D01*
X106175350Y-94183247D02*
X106080112Y-94135628D01*
X106080112Y-94135628D02*
X105889636Y-94088009D01*
X105889636Y-94088009D02*
X105794398Y-94040390D01*
X105794398Y-94040390D02*
X105746779Y-93992771D01*
X105746779Y-93992771D02*
X105699160Y-93897533D01*
X105699160Y-93897533D02*
X105699160Y-93802295D01*
X105699160Y-93802295D02*
X105746779Y-93707057D01*
X105746779Y-93707057D02*
X105794398Y-93659438D01*
X105794398Y-93659438D02*
X105889636Y-93611819D01*
X105889636Y-93611819D02*
X106127731Y-93611819D01*
X106127731Y-93611819D02*
X106270588Y-93659438D01*
X107413445Y-93564200D02*
X106556303Y-94849914D01*
X107746779Y-94611819D02*
X107746779Y-93611819D01*
X107746779Y-93611819D02*
X108318207Y-94611819D01*
X108318207Y-94611819D02*
X108318207Y-93611819D01*
X114133333Y-92148819D02*
X113657143Y-92148819D01*
X113657143Y-92148819D02*
X113657143Y-91148819D01*
X114419048Y-91244057D02*
X114466667Y-91196438D01*
X114466667Y-91196438D02*
X114561905Y-91148819D01*
X114561905Y-91148819D02*
X114800000Y-91148819D01*
X114800000Y-91148819D02*
X114895238Y-91196438D01*
X114895238Y-91196438D02*
X114942857Y-91244057D01*
X114942857Y-91244057D02*
X114990476Y-91339295D01*
X114990476Y-91339295D02*
X114990476Y-91434533D01*
X114990476Y-91434533D02*
X114942857Y-91577390D01*
X114942857Y-91577390D02*
X114371429Y-92148819D01*
X114371429Y-92148819D02*
X114990476Y-92148819D01*
X110323333Y-72844819D02*
X109990000Y-72368628D01*
X109751905Y-72844819D02*
X109751905Y-71844819D01*
X109751905Y-71844819D02*
X110132857Y-71844819D01*
X110132857Y-71844819D02*
X110228095Y-71892438D01*
X110228095Y-71892438D02*
X110275714Y-71940057D01*
X110275714Y-71940057D02*
X110323333Y-72035295D01*
X110323333Y-72035295D02*
X110323333Y-72178152D01*
X110323333Y-72178152D02*
X110275714Y-72273390D01*
X110275714Y-72273390D02*
X110228095Y-72321009D01*
X110228095Y-72321009D02*
X110132857Y-72368628D01*
X110132857Y-72368628D02*
X109751905Y-72368628D01*
X110656667Y-71844819D02*
X111323333Y-71844819D01*
X111323333Y-71844819D02*
X110894762Y-72844819D01*
X114133333Y-86560819D02*
X113657143Y-86560819D01*
X113657143Y-86560819D02*
X113657143Y-85560819D01*
X114990476Y-86560819D02*
X114419048Y-86560819D01*
X114704762Y-86560819D02*
X114704762Y-85560819D01*
X114704762Y-85560819D02*
X114609524Y-85703676D01*
X114609524Y-85703676D02*
X114514286Y-85798914D01*
X114514286Y-85798914D02*
X114419048Y-85846533D01*
X114133333Y-72844819D02*
X113800000Y-72368628D01*
X113561905Y-72844819D02*
X113561905Y-71844819D01*
X113561905Y-71844819D02*
X113942857Y-71844819D01*
X113942857Y-71844819D02*
X114038095Y-71892438D01*
X114038095Y-71892438D02*
X114085714Y-71940057D01*
X114085714Y-71940057D02*
X114133333Y-72035295D01*
X114133333Y-72035295D02*
X114133333Y-72178152D01*
X114133333Y-72178152D02*
X114085714Y-72273390D01*
X114085714Y-72273390D02*
X114038095Y-72321009D01*
X114038095Y-72321009D02*
X113942857Y-72368628D01*
X113942857Y-72368628D02*
X113561905Y-72368628D01*
X114704762Y-72273390D02*
X114609524Y-72225771D01*
X114609524Y-72225771D02*
X114561905Y-72178152D01*
X114561905Y-72178152D02*
X114514286Y-72082914D01*
X114514286Y-72082914D02*
X114514286Y-72035295D01*
X114514286Y-72035295D02*
X114561905Y-71940057D01*
X114561905Y-71940057D02*
X114609524Y-71892438D01*
X114609524Y-71892438D02*
X114704762Y-71844819D01*
X114704762Y-71844819D02*
X114895238Y-71844819D01*
X114895238Y-71844819D02*
X114990476Y-71892438D01*
X114990476Y-71892438D02*
X115038095Y-71940057D01*
X115038095Y-71940057D02*
X115085714Y-72035295D01*
X115085714Y-72035295D02*
X115085714Y-72082914D01*
X115085714Y-72082914D02*
X115038095Y-72178152D01*
X115038095Y-72178152D02*
X114990476Y-72225771D01*
X114990476Y-72225771D02*
X114895238Y-72273390D01*
X114895238Y-72273390D02*
X114704762Y-72273390D01*
X114704762Y-72273390D02*
X114609524Y-72321009D01*
X114609524Y-72321009D02*
X114561905Y-72368628D01*
X114561905Y-72368628D02*
X114514286Y-72463866D01*
X114514286Y-72463866D02*
X114514286Y-72654342D01*
X114514286Y-72654342D02*
X114561905Y-72749580D01*
X114561905Y-72749580D02*
X114609524Y-72797200D01*
X114609524Y-72797200D02*
X114704762Y-72844819D01*
X114704762Y-72844819D02*
X114895238Y-72844819D01*
X114895238Y-72844819D02*
X114990476Y-72797200D01*
X114990476Y-72797200D02*
X115038095Y-72749580D01*
X115038095Y-72749580D02*
X115085714Y-72654342D01*
X115085714Y-72654342D02*
X115085714Y-72463866D01*
X115085714Y-72463866D02*
X115038095Y-72368628D01*
X115038095Y-72368628D02*
X114990476Y-72321009D01*
X114990476Y-72321009D02*
X114895238Y-72273390D01*
X114133333Y-89354819D02*
X113800000Y-88878628D01*
X113561905Y-89354819D02*
X113561905Y-88354819D01*
X113561905Y-88354819D02*
X113942857Y-88354819D01*
X113942857Y-88354819D02*
X114038095Y-88402438D01*
X114038095Y-88402438D02*
X114085714Y-88450057D01*
X114085714Y-88450057D02*
X114133333Y-88545295D01*
X114133333Y-88545295D02*
X114133333Y-88688152D01*
X114133333Y-88688152D02*
X114085714Y-88783390D01*
X114085714Y-88783390D02*
X114038095Y-88831009D01*
X114038095Y-88831009D02*
X113942857Y-88878628D01*
X113942857Y-88878628D02*
X113561905Y-88878628D01*
X114990476Y-88688152D02*
X114990476Y-89354819D01*
X114752381Y-88307200D02*
X114514286Y-89021485D01*
X114514286Y-89021485D02*
X115133333Y-89021485D01*
X112228333Y-88084819D02*
X111895000Y-87608628D01*
X111656905Y-88084819D02*
X111656905Y-87084819D01*
X111656905Y-87084819D02*
X112037857Y-87084819D01*
X112037857Y-87084819D02*
X112133095Y-87132438D01*
X112133095Y-87132438D02*
X112180714Y-87180057D01*
X112180714Y-87180057D02*
X112228333Y-87275295D01*
X112228333Y-87275295D02*
X112228333Y-87418152D01*
X112228333Y-87418152D02*
X112180714Y-87513390D01*
X112180714Y-87513390D02*
X112133095Y-87561009D01*
X112133095Y-87561009D02*
X112037857Y-87608628D01*
X112037857Y-87608628D02*
X111656905Y-87608628D01*
X112609286Y-87180057D02*
X112656905Y-87132438D01*
X112656905Y-87132438D02*
X112752143Y-87084819D01*
X112752143Y-87084819D02*
X112990238Y-87084819D01*
X112990238Y-87084819D02*
X113085476Y-87132438D01*
X113085476Y-87132438D02*
X113133095Y-87180057D01*
X113133095Y-87180057D02*
X113180714Y-87275295D01*
X113180714Y-87275295D02*
X113180714Y-87370533D01*
X113180714Y-87370533D02*
X113133095Y-87513390D01*
X113133095Y-87513390D02*
X112561667Y-88084819D01*
X112561667Y-88084819D02*
X113180714Y-88084819D01*
X101166666Y-66764819D02*
X101166666Y-67479104D01*
X101166666Y-67479104D02*
X101119047Y-67621961D01*
X101119047Y-67621961D02*
X101023809Y-67717200D01*
X101023809Y-67717200D02*
X100880952Y-67764819D01*
X100880952Y-67764819D02*
X100785714Y-67764819D01*
X101547619Y-66764819D02*
X102166666Y-66764819D01*
X102166666Y-66764819D02*
X101833333Y-67145771D01*
X101833333Y-67145771D02*
X101976190Y-67145771D01*
X101976190Y-67145771D02*
X102071428Y-67193390D01*
X102071428Y-67193390D02*
X102119047Y-67241009D01*
X102119047Y-67241009D02*
X102166666Y-67336247D01*
X102166666Y-67336247D02*
X102166666Y-67574342D01*
X102166666Y-67574342D02*
X102119047Y-67669580D01*
X102119047Y-67669580D02*
X102071428Y-67717200D01*
X102071428Y-67717200D02*
X101976190Y-67764819D01*
X101976190Y-67764819D02*
X101690476Y-67764819D01*
X101690476Y-67764819D02*
X101595238Y-67717200D01*
X101595238Y-67717200D02*
X101547619Y-67669580D01*
X110323333Y-92053580D02*
X110275714Y-92101200D01*
X110275714Y-92101200D02*
X110132857Y-92148819D01*
X110132857Y-92148819D02*
X110037619Y-92148819D01*
X110037619Y-92148819D02*
X109894762Y-92101200D01*
X109894762Y-92101200D02*
X109799524Y-92005961D01*
X109799524Y-92005961D02*
X109751905Y-91910723D01*
X109751905Y-91910723D02*
X109704286Y-91720247D01*
X109704286Y-91720247D02*
X109704286Y-91577390D01*
X109704286Y-91577390D02*
X109751905Y-91386914D01*
X109751905Y-91386914D02*
X109799524Y-91291676D01*
X109799524Y-91291676D02*
X109894762Y-91196438D01*
X109894762Y-91196438D02*
X110037619Y-91148819D01*
X110037619Y-91148819D02*
X110132857Y-91148819D01*
X110132857Y-91148819D02*
X110275714Y-91196438D01*
X110275714Y-91196438D02*
X110323333Y-91244057D01*
X110704286Y-91244057D02*
X110751905Y-91196438D01*
X110751905Y-91196438D02*
X110847143Y-91148819D01*
X110847143Y-91148819D02*
X111085238Y-91148819D01*
X111085238Y-91148819D02*
X111180476Y-91196438D01*
X111180476Y-91196438D02*
X111228095Y-91244057D01*
X111228095Y-91244057D02*
X111275714Y-91339295D01*
X111275714Y-91339295D02*
X111275714Y-91434533D01*
X111275714Y-91434533D02*
X111228095Y-91577390D01*
X111228095Y-91577390D02*
X110656667Y-92148819D01*
X110656667Y-92148819D02*
X111275714Y-92148819D01*
X115403333Y-84274819D02*
X115070000Y-83798628D01*
X114831905Y-84274819D02*
X114831905Y-83274819D01*
X114831905Y-83274819D02*
X115212857Y-83274819D01*
X115212857Y-83274819D02*
X115308095Y-83322438D01*
X115308095Y-83322438D02*
X115355714Y-83370057D01*
X115355714Y-83370057D02*
X115403333Y-83465295D01*
X115403333Y-83465295D02*
X115403333Y-83608152D01*
X115403333Y-83608152D02*
X115355714Y-83703390D01*
X115355714Y-83703390D02*
X115308095Y-83751009D01*
X115308095Y-83751009D02*
X115212857Y-83798628D01*
X115212857Y-83798628D02*
X114831905Y-83798628D01*
X116355714Y-84274819D02*
X115784286Y-84274819D01*
X116070000Y-84274819D02*
X116070000Y-83274819D01*
X116070000Y-83274819D02*
X115974762Y-83417676D01*
X115974762Y-83417676D02*
X115879524Y-83512914D01*
X115879524Y-83512914D02*
X115784286Y-83560533D01*
X110323333Y-86465580D02*
X110275714Y-86513200D01*
X110275714Y-86513200D02*
X110132857Y-86560819D01*
X110132857Y-86560819D02*
X110037619Y-86560819D01*
X110037619Y-86560819D02*
X109894762Y-86513200D01*
X109894762Y-86513200D02*
X109799524Y-86417961D01*
X109799524Y-86417961D02*
X109751905Y-86322723D01*
X109751905Y-86322723D02*
X109704286Y-86132247D01*
X109704286Y-86132247D02*
X109704286Y-85989390D01*
X109704286Y-85989390D02*
X109751905Y-85798914D01*
X109751905Y-85798914D02*
X109799524Y-85703676D01*
X109799524Y-85703676D02*
X109894762Y-85608438D01*
X109894762Y-85608438D02*
X110037619Y-85560819D01*
X110037619Y-85560819D02*
X110132857Y-85560819D01*
X110132857Y-85560819D02*
X110275714Y-85608438D01*
X110275714Y-85608438D02*
X110323333Y-85656057D01*
X111275714Y-86560819D02*
X110704286Y-86560819D01*
X110990000Y-86560819D02*
X110990000Y-85560819D01*
X110990000Y-85560819D02*
X110894762Y-85703676D01*
X110894762Y-85703676D02*
X110799524Y-85798914D01*
X110799524Y-85798914D02*
X110704286Y-85846533D01*
X110323333Y-69955580D02*
X110275714Y-70003200D01*
X110275714Y-70003200D02*
X110132857Y-70050819D01*
X110132857Y-70050819D02*
X110037619Y-70050819D01*
X110037619Y-70050819D02*
X109894762Y-70003200D01*
X109894762Y-70003200D02*
X109799524Y-69907961D01*
X109799524Y-69907961D02*
X109751905Y-69812723D01*
X109751905Y-69812723D02*
X109704286Y-69622247D01*
X109704286Y-69622247D02*
X109704286Y-69479390D01*
X109704286Y-69479390D02*
X109751905Y-69288914D01*
X109751905Y-69288914D02*
X109799524Y-69193676D01*
X109799524Y-69193676D02*
X109894762Y-69098438D01*
X109894762Y-69098438D02*
X110037619Y-69050819D01*
X110037619Y-69050819D02*
X110132857Y-69050819D01*
X110132857Y-69050819D02*
X110275714Y-69098438D01*
X110275714Y-69098438D02*
X110323333Y-69146057D01*
X110656667Y-69050819D02*
X111275714Y-69050819D01*
X111275714Y-69050819D02*
X110942381Y-69431771D01*
X110942381Y-69431771D02*
X111085238Y-69431771D01*
X111085238Y-69431771D02*
X111180476Y-69479390D01*
X111180476Y-69479390D02*
X111228095Y-69527009D01*
X111228095Y-69527009D02*
X111275714Y-69622247D01*
X111275714Y-69622247D02*
X111275714Y-69860342D01*
X111275714Y-69860342D02*
X111228095Y-69955580D01*
X111228095Y-69955580D02*
X111180476Y-70003200D01*
X111180476Y-70003200D02*
X111085238Y-70050819D01*
X111085238Y-70050819D02*
X110799524Y-70050819D01*
X110799524Y-70050819D02*
X110704286Y-70003200D01*
X110704286Y-70003200D02*
X110656667Y-69955580D01*
X114133333Y-70050819D02*
X113657143Y-70050819D01*
X113657143Y-70050819D02*
X113657143Y-69050819D01*
X114371429Y-69050819D02*
X114990476Y-69050819D01*
X114990476Y-69050819D02*
X114657143Y-69431771D01*
X114657143Y-69431771D02*
X114800000Y-69431771D01*
X114800000Y-69431771D02*
X114895238Y-69479390D01*
X114895238Y-69479390D02*
X114942857Y-69527009D01*
X114942857Y-69527009D02*
X114990476Y-69622247D01*
X114990476Y-69622247D02*
X114990476Y-69860342D01*
X114990476Y-69860342D02*
X114942857Y-69955580D01*
X114942857Y-69955580D02*
X114895238Y-70003200D01*
X114895238Y-70003200D02*
X114800000Y-70050819D01*
X114800000Y-70050819D02*
X114514286Y-70050819D01*
X114514286Y-70050819D02*
X114419048Y-70003200D01*
X114419048Y-70003200D02*
X114371429Y-69955580D01*
X115403333Y-67764819D02*
X115070000Y-67288628D01*
X114831905Y-67764819D02*
X114831905Y-66764819D01*
X114831905Y-66764819D02*
X115212857Y-66764819D01*
X115212857Y-66764819D02*
X115308095Y-66812438D01*
X115308095Y-66812438D02*
X115355714Y-66860057D01*
X115355714Y-66860057D02*
X115403333Y-66955295D01*
X115403333Y-66955295D02*
X115403333Y-67098152D01*
X115403333Y-67098152D02*
X115355714Y-67193390D01*
X115355714Y-67193390D02*
X115308095Y-67241009D01*
X115308095Y-67241009D02*
X115212857Y-67288628D01*
X115212857Y-67288628D02*
X114831905Y-67288628D01*
X116308095Y-66764819D02*
X115831905Y-66764819D01*
X115831905Y-66764819D02*
X115784286Y-67241009D01*
X115784286Y-67241009D02*
X115831905Y-67193390D01*
X115831905Y-67193390D02*
X115927143Y-67145771D01*
X115927143Y-67145771D02*
X116165238Y-67145771D01*
X116165238Y-67145771D02*
X116260476Y-67193390D01*
X116260476Y-67193390D02*
X116308095Y-67241009D01*
X116308095Y-67241009D02*
X116355714Y-67336247D01*
X116355714Y-67336247D02*
X116355714Y-67574342D01*
X116355714Y-67574342D02*
X116308095Y-67669580D01*
X116308095Y-67669580D02*
X116260476Y-67717200D01*
X116260476Y-67717200D02*
X116165238Y-67764819D01*
X116165238Y-67764819D02*
X115927143Y-67764819D01*
X115927143Y-67764819D02*
X115831905Y-67717200D01*
X115831905Y-67717200D02*
X115784286Y-67669580D01*
X123166666Y-83454819D02*
X123166666Y-84169104D01*
X123166666Y-84169104D02*
X123119047Y-84311961D01*
X123119047Y-84311961D02*
X123023809Y-84407200D01*
X123023809Y-84407200D02*
X122880952Y-84454819D01*
X122880952Y-84454819D02*
X122785714Y-84454819D01*
X123595238Y-83550057D02*
X123642857Y-83502438D01*
X123642857Y-83502438D02*
X123738095Y-83454819D01*
X123738095Y-83454819D02*
X123976190Y-83454819D01*
X123976190Y-83454819D02*
X124071428Y-83502438D01*
X124071428Y-83502438D02*
X124119047Y-83550057D01*
X124119047Y-83550057D02*
X124166666Y-83645295D01*
X124166666Y-83645295D02*
X124166666Y-83740533D01*
X124166666Y-83740533D02*
X124119047Y-83883390D01*
X124119047Y-83883390D02*
X123547619Y-84454819D01*
X123547619Y-84454819D02*
X124166666Y-84454819D01*
X112228333Y-71447819D02*
X111895000Y-70971628D01*
X111656905Y-71447819D02*
X111656905Y-70447819D01*
X111656905Y-70447819D02*
X112037857Y-70447819D01*
X112037857Y-70447819D02*
X112133095Y-70495438D01*
X112133095Y-70495438D02*
X112180714Y-70543057D01*
X112180714Y-70543057D02*
X112228333Y-70638295D01*
X112228333Y-70638295D02*
X112228333Y-70781152D01*
X112228333Y-70781152D02*
X112180714Y-70876390D01*
X112180714Y-70876390D02*
X112133095Y-70924009D01*
X112133095Y-70924009D02*
X112037857Y-70971628D01*
X112037857Y-70971628D02*
X111656905Y-70971628D01*
X113085476Y-70447819D02*
X112895000Y-70447819D01*
X112895000Y-70447819D02*
X112799762Y-70495438D01*
X112799762Y-70495438D02*
X112752143Y-70543057D01*
X112752143Y-70543057D02*
X112656905Y-70685914D01*
X112656905Y-70685914D02*
X112609286Y-70876390D01*
X112609286Y-70876390D02*
X112609286Y-71257342D01*
X112609286Y-71257342D02*
X112656905Y-71352580D01*
X112656905Y-71352580D02*
X112704524Y-71400200D01*
X112704524Y-71400200D02*
X112799762Y-71447819D01*
X112799762Y-71447819D02*
X112990238Y-71447819D01*
X112990238Y-71447819D02*
X113085476Y-71400200D01*
X113085476Y-71400200D02*
X113133095Y-71352580D01*
X113133095Y-71352580D02*
X113180714Y-71257342D01*
X113180714Y-71257342D02*
X113180714Y-71019247D01*
X113180714Y-71019247D02*
X113133095Y-70924009D01*
X113133095Y-70924009D02*
X113085476Y-70876390D01*
X113085476Y-70876390D02*
X112990238Y-70828771D01*
X112990238Y-70828771D02*
X112799762Y-70828771D01*
X112799762Y-70828771D02*
X112704524Y-70876390D01*
X112704524Y-70876390D02*
X112656905Y-70924009D01*
X112656905Y-70924009D02*
X112609286Y-71019247D01*
X123166666Y-66764819D02*
X123166666Y-67479104D01*
X123166666Y-67479104D02*
X123119047Y-67621961D01*
X123119047Y-67621961D02*
X123023809Y-67717200D01*
X123023809Y-67717200D02*
X122880952Y-67764819D01*
X122880952Y-67764819D02*
X122785714Y-67764819D01*
X124071428Y-67098152D02*
X124071428Y-67764819D01*
X123833333Y-66717200D02*
X123595238Y-67431485D01*
X123595238Y-67431485D02*
X124214285Y-67431485D01*
X101166666Y-83528819D02*
X101166666Y-84243104D01*
X101166666Y-84243104D02*
X101119047Y-84385961D01*
X101119047Y-84385961D02*
X101023809Y-84481200D01*
X101023809Y-84481200D02*
X100880952Y-84528819D01*
X100880952Y-84528819D02*
X100785714Y-84528819D01*
X102166666Y-84528819D02*
X101595238Y-84528819D01*
X101880952Y-84528819D02*
X101880952Y-83528819D01*
X101880952Y-83528819D02*
X101785714Y-83671676D01*
X101785714Y-83671676D02*
X101690476Y-83766914D01*
X101690476Y-83766914D02*
X101595238Y-83814533D01*
X110323333Y-75543580D02*
X110275714Y-75591200D01*
X110275714Y-75591200D02*
X110132857Y-75638819D01*
X110132857Y-75638819D02*
X110037619Y-75638819D01*
X110037619Y-75638819D02*
X109894762Y-75591200D01*
X109894762Y-75591200D02*
X109799524Y-75495961D01*
X109799524Y-75495961D02*
X109751905Y-75400723D01*
X109751905Y-75400723D02*
X109704286Y-75210247D01*
X109704286Y-75210247D02*
X109704286Y-75067390D01*
X109704286Y-75067390D02*
X109751905Y-74876914D01*
X109751905Y-74876914D02*
X109799524Y-74781676D01*
X109799524Y-74781676D02*
X109894762Y-74686438D01*
X109894762Y-74686438D02*
X110037619Y-74638819D01*
X110037619Y-74638819D02*
X110132857Y-74638819D01*
X110132857Y-74638819D02*
X110275714Y-74686438D01*
X110275714Y-74686438D02*
X110323333Y-74734057D01*
X111180476Y-74972152D02*
X111180476Y-75638819D01*
X110942381Y-74591200D02*
X110704286Y-75305485D01*
X110704286Y-75305485D02*
X111323333Y-75305485D01*
X110323333Y-89354819D02*
X109990000Y-88878628D01*
X109751905Y-89354819D02*
X109751905Y-88354819D01*
X109751905Y-88354819D02*
X110132857Y-88354819D01*
X110132857Y-88354819D02*
X110228095Y-88402438D01*
X110228095Y-88402438D02*
X110275714Y-88450057D01*
X110275714Y-88450057D02*
X110323333Y-88545295D01*
X110323333Y-88545295D02*
X110323333Y-88688152D01*
X110323333Y-88688152D02*
X110275714Y-88783390D01*
X110275714Y-88783390D02*
X110228095Y-88831009D01*
X110228095Y-88831009D02*
X110132857Y-88878628D01*
X110132857Y-88878628D02*
X109751905Y-88878628D01*
X110656667Y-88354819D02*
X111275714Y-88354819D01*
X111275714Y-88354819D02*
X110942381Y-88735771D01*
X110942381Y-88735771D02*
X111085238Y-88735771D01*
X111085238Y-88735771D02*
X111180476Y-88783390D01*
X111180476Y-88783390D02*
X111228095Y-88831009D01*
X111228095Y-88831009D02*
X111275714Y-88926247D01*
X111275714Y-88926247D02*
X111275714Y-89164342D01*
X111275714Y-89164342D02*
X111228095Y-89259580D01*
X111228095Y-89259580D02*
X111180476Y-89307200D01*
X111180476Y-89307200D02*
X111085238Y-89354819D01*
X111085238Y-89354819D02*
X110799524Y-89354819D01*
X110799524Y-89354819D02*
X110704286Y-89307200D01*
X110704286Y-89307200D02*
X110656667Y-89259580D01*
X114133333Y-75638819D02*
X113657143Y-75638819D01*
X113657143Y-75638819D02*
X113657143Y-74638819D01*
X114895238Y-74972152D02*
X114895238Y-75638819D01*
X114657143Y-74591200D02*
X114419048Y-75305485D01*
X114419048Y-75305485D02*
X115038095Y-75305485D01*
D13*
%TO.C,L2*%
X116668733Y-91184000D02*
X117011267Y-91184000D01*
X116668733Y-92204000D02*
X117011267Y-92204000D01*
%TO.C,R7*%
X107695276Y-71867500D02*
X108204724Y-71867500D01*
X107695276Y-72912500D02*
X108204724Y-72912500D01*
%TO.C,L1*%
X116668733Y-85596000D02*
X117011267Y-85596000D01*
X116668733Y-86616000D02*
X117011267Y-86616000D01*
%TO.C,R8*%
X116585276Y-71867500D02*
X117094724Y-71867500D01*
X116585276Y-72912500D02*
X117094724Y-72912500D01*
%TO.C,R4*%
X116585276Y-88377500D02*
X117094724Y-88377500D01*
X116585276Y-89422500D02*
X117094724Y-89422500D01*
%TO.C,R2*%
X111872500Y-89557776D02*
X111872500Y-90067224D01*
X112917500Y-89557776D02*
X112917500Y-90067224D01*
%TO.C,J3*%
X100743000Y-70440000D02*
X100743000Y-71550000D01*
X100743000Y-73230000D02*
X100743000Y-74340000D01*
X104453000Y-70440000D02*
X104453000Y-71550000D01*
X104453000Y-73230000D02*
X104453000Y-74340000D01*
X105003000Y-72390000D02*
X105503000Y-72640000D01*
X105503000Y-72140000D02*
X105003000Y-72390000D01*
X105503000Y-72640000D02*
X105503000Y-72140000D01*
%TO.C,C2*%
X107803733Y-91184000D02*
X108096267Y-91184000D01*
X107803733Y-92204000D02*
X108096267Y-92204000D01*
%TO.C,R1*%
X112140276Y-83297500D02*
X112649724Y-83297500D01*
X112140276Y-84342500D02*
X112649724Y-84342500D01*
%TO.C,C1*%
X107803733Y-85596000D02*
X108096267Y-85596000D01*
X107803733Y-86616000D02*
X108096267Y-86616000D01*
%TO.C,C3*%
X107803733Y-69086000D02*
X108096267Y-69086000D01*
X107803733Y-70106000D02*
X108096267Y-70106000D01*
%TO.C,L3*%
X116668733Y-69086000D02*
X117011267Y-69086000D01*
X116668733Y-70106000D02*
X117011267Y-70106000D01*
%TO.C,R5*%
X112140276Y-66787500D02*
X112649724Y-66787500D01*
X112140276Y-67832500D02*
X112649724Y-67832500D01*
%TO.C,J2*%
X119414000Y-88650000D02*
X119414000Y-89150000D01*
X119414000Y-89150000D02*
X119914000Y-88900000D01*
X119914000Y-88900000D02*
X119414000Y-88650000D01*
X120464000Y-88060000D02*
X120464000Y-86950000D01*
X120464000Y-90850000D02*
X120464000Y-89740000D01*
X124174000Y-88060000D02*
X124174000Y-86950000D01*
X124174000Y-90850000D02*
X124174000Y-89740000D01*
%TO.C,R6*%
X111872500Y-73047776D02*
X111872500Y-73557224D01*
X112917500Y-73047776D02*
X112917500Y-73557224D01*
%TO.C,J4*%
X119414000Y-72140000D02*
X119414000Y-72640000D01*
X119414000Y-72640000D02*
X119914000Y-72390000D01*
X119914000Y-72390000D02*
X119414000Y-72140000D01*
X120464000Y-71550000D02*
X120464000Y-70440000D01*
X120464000Y-74340000D02*
X120464000Y-73230000D01*
X124174000Y-71550000D02*
X124174000Y-70440000D01*
X124174000Y-74340000D02*
X124174000Y-73230000D01*
%TO.C,J1*%
X100816000Y-86950000D02*
X100816000Y-88060000D01*
X100816000Y-89740000D02*
X100816000Y-90850000D01*
X104526000Y-86950000D02*
X104526000Y-88060000D01*
X104526000Y-89740000D02*
X104526000Y-90850000D01*
X105076000Y-88900000D02*
X105576000Y-89150000D01*
X105576000Y-88650000D02*
X105076000Y-88900000D01*
X105576000Y-89150000D02*
X105576000Y-88650000D01*
%TO.C,C4*%
X107803733Y-74674000D02*
X108096267Y-74674000D01*
X107803733Y-75694000D02*
X108096267Y-75694000D01*
%TO.C,R3*%
X107695276Y-88377500D02*
X108204724Y-88377500D01*
X107695276Y-89422500D02*
X108204724Y-89422500D01*
%TO.C,L4*%
X116668733Y-74674000D02*
X117011267Y-74674000D01*
X116668733Y-75694000D02*
X117011267Y-75694000D01*
%TD*%
M02*
