%TF.GenerationSoftware,KiCad,Pcbnew,8.0.5-8.0.5-0~ubuntu22.04.1*%
%TF.CreationDate,2025-01-09T14:13:44-03:00*%
%TF.ProjectId,preenfasis,70726565-6e66-4617-9369-732e6b696361,v1.2*%
%TF.SameCoordinates,Original*%
%TF.FileFunction,Copper,L2,Bot*%
%TF.FilePolarity,Positive*%
%FSLAX46Y46*%
G04 Gerber Fmt 4.6, Leading zero omitted, Abs format (unit mm)*
G04 Created by KiCad (PCBNEW 8.0.5-8.0.5-0~ubuntu22.04.1) date 2025-01-09 14:13:44*
%MOMM*%
%LPD*%
G01*
G04 APERTURE LIST*
%TA.AperFunction,SMDPad,CuDef*%
%ADD10R,4.200000X1.350000*%
%TD*%
%TA.AperFunction,ViaPad*%
%ADD11C,0.600000*%
%TD*%
G04 APERTURE END LIST*
D10*
%TO.P,J3,2,Ext*%
%TO.N,Net-(J3-Ext)*%
X102743000Y-69565000D03*
X102743000Y-75215000D03*
%TD*%
%TO.P,J2,2,Ext*%
%TO.N,Net-(J1-Ext)*%
X122174000Y-91725000D03*
X122174000Y-86075000D03*
%TD*%
%TO.P,J4,2,Ext*%
%TO.N,Net-(J3-Ext)*%
X122174000Y-75215000D03*
X122174000Y-69565000D03*
%TD*%
%TO.P,J1,2,Ext*%
%TO.N,Net-(J1-Ext)*%
X102816000Y-86075000D03*
X102816000Y-91725000D03*
%TD*%
D11*
%TO.N,Net-(J1-Ext)*%
X102816000Y-84455000D03*
X122174000Y-93319600D03*
X122174000Y-84531200D03*
X102816000Y-93345000D03*
%TO.N,Net-(J3-Ext)*%
X102768400Y-67968500D03*
X122174000Y-67968500D03*
X122174000Y-76782300D03*
X102725000Y-76731500D03*
%TD*%
%TA.AperFunction,Conductor*%
%TO.N,Net-(J1-Ext)*%
G36*
X124346288Y-81018954D02*
G01*
X124427070Y-81072930D01*
X124481046Y-81153712D01*
X124500000Y-81249000D01*
X124500000Y-84651000D01*
X124481046Y-84746288D01*
X124427070Y-84827070D01*
X124346288Y-84881046D01*
X124251000Y-84900000D01*
X122574001Y-84900000D01*
X122574000Y-84900001D01*
X122574000Y-87249999D01*
X122574001Y-87250000D01*
X124251000Y-87250000D01*
X124346288Y-87268954D01*
X124427070Y-87322930D01*
X124481046Y-87403712D01*
X124500000Y-87499000D01*
X124500000Y-90301000D01*
X124481046Y-90396288D01*
X124427070Y-90477070D01*
X124346288Y-90531046D01*
X124251000Y-90550000D01*
X122574001Y-90550000D01*
X122574000Y-90550001D01*
X122574000Y-92899999D01*
X122574001Y-92900000D01*
X124251000Y-92900000D01*
X124346288Y-92918954D01*
X124427070Y-92972930D01*
X124481046Y-93053712D01*
X124500000Y-93149000D01*
X124500000Y-99251000D01*
X124481046Y-99346288D01*
X124427070Y-99427070D01*
X124346288Y-99481046D01*
X124251000Y-99500000D01*
X100749000Y-99500000D01*
X100653712Y-99481046D01*
X100572930Y-99427070D01*
X100518954Y-99346288D01*
X100500000Y-99251000D01*
X100500000Y-96885266D01*
X101249500Y-96885266D01*
X101249500Y-97114733D01*
X101279451Y-97342234D01*
X101338841Y-97563885D01*
X101426653Y-97775882D01*
X101426658Y-97775893D01*
X101541383Y-97974602D01*
X101541389Y-97974612D01*
X101681081Y-98156661D01*
X101843339Y-98318919D01*
X102025388Y-98458611D01*
X102025397Y-98458616D01*
X102224106Y-98573341D01*
X102224109Y-98573342D01*
X102224112Y-98573344D01*
X102436113Y-98661158D01*
X102657762Y-98720548D01*
X102885266Y-98750500D01*
X103114734Y-98750500D01*
X103342238Y-98720548D01*
X103563887Y-98661158D01*
X103775888Y-98573344D01*
X103974612Y-98458611D01*
X104156661Y-98318919D01*
X104318919Y-98156661D01*
X104458611Y-97974612D01*
X104573344Y-97775888D01*
X104661158Y-97563887D01*
X104720548Y-97342238D01*
X104750500Y-97114734D01*
X104750500Y-96885266D01*
X120249500Y-96885266D01*
X120249500Y-97114733D01*
X120279451Y-97342234D01*
X120338841Y-97563885D01*
X120426653Y-97775882D01*
X120426658Y-97775893D01*
X120541383Y-97974602D01*
X120541389Y-97974612D01*
X120681081Y-98156661D01*
X120843339Y-98318919D01*
X121025388Y-98458611D01*
X121025397Y-98458616D01*
X121224106Y-98573341D01*
X121224109Y-98573342D01*
X121224112Y-98573344D01*
X121436113Y-98661158D01*
X121657762Y-98720548D01*
X121885266Y-98750500D01*
X122114734Y-98750500D01*
X122342238Y-98720548D01*
X122563887Y-98661158D01*
X122775888Y-98573344D01*
X122974612Y-98458611D01*
X123156661Y-98318919D01*
X123318919Y-98156661D01*
X123458611Y-97974612D01*
X123573344Y-97775888D01*
X123661158Y-97563887D01*
X123720548Y-97342238D01*
X123750500Y-97114734D01*
X123750500Y-96885266D01*
X123720548Y-96657762D01*
X123661158Y-96436113D01*
X123573344Y-96224112D01*
X123458611Y-96025388D01*
X123318919Y-95843339D01*
X123156661Y-95681081D01*
X123156656Y-95681077D01*
X123156655Y-95681076D01*
X122974621Y-95541396D01*
X122974622Y-95541396D01*
X122974612Y-95541389D01*
X122974602Y-95541383D01*
X122775893Y-95426658D01*
X122775882Y-95426653D01*
X122563885Y-95338841D01*
X122435911Y-95304551D01*
X122342238Y-95279452D01*
X122342235Y-95279451D01*
X122342236Y-95279451D01*
X122114734Y-95249500D01*
X121885266Y-95249500D01*
X121657765Y-95279451D01*
X121436114Y-95338841D01*
X121224117Y-95426653D01*
X121224106Y-95426658D01*
X121025397Y-95541383D01*
X121025378Y-95541396D01*
X120843344Y-95681076D01*
X120681076Y-95843344D01*
X120541396Y-96025378D01*
X120541383Y-96025397D01*
X120426658Y-96224106D01*
X120426653Y-96224117D01*
X120338841Y-96436114D01*
X120279451Y-96657765D01*
X120249500Y-96885266D01*
X104750500Y-96885266D01*
X104720548Y-96657762D01*
X104661158Y-96436113D01*
X104573344Y-96224112D01*
X104458611Y-96025388D01*
X104318919Y-95843339D01*
X104156661Y-95681081D01*
X104156656Y-95681077D01*
X104156655Y-95681076D01*
X103974621Y-95541396D01*
X103974622Y-95541396D01*
X103974612Y-95541389D01*
X103974602Y-95541383D01*
X103775893Y-95426658D01*
X103775882Y-95426653D01*
X103563885Y-95338841D01*
X103435911Y-95304551D01*
X103342238Y-95279452D01*
X103342235Y-95279451D01*
X103342236Y-95279451D01*
X103114734Y-95249500D01*
X102885266Y-95249500D01*
X102657765Y-95279451D01*
X102436114Y-95338841D01*
X102224117Y-95426653D01*
X102224106Y-95426658D01*
X102025397Y-95541383D01*
X102025378Y-95541396D01*
X101843344Y-95681076D01*
X101681076Y-95843344D01*
X101541396Y-96025378D01*
X101541383Y-96025397D01*
X101426658Y-96224106D01*
X101426653Y-96224117D01*
X101338841Y-96436114D01*
X101279451Y-96657765D01*
X101249500Y-96885266D01*
X100500000Y-96885266D01*
X100500000Y-93149000D01*
X100518954Y-93053712D01*
X100572930Y-92972930D01*
X100653712Y-92918954D01*
X100749000Y-92900000D01*
X102415999Y-92900000D01*
X102416000Y-92899999D01*
X102416000Y-92125001D01*
X103216000Y-92125001D01*
X103216000Y-92899999D01*
X103216001Y-92900000D01*
X104963825Y-92900000D01*
X104963832Y-92899999D01*
X105023371Y-92893598D01*
X105023378Y-92893596D01*
X105158087Y-92843353D01*
X105273187Y-92757189D01*
X105273189Y-92757187D01*
X105359353Y-92642087D01*
X105409596Y-92507378D01*
X105409598Y-92507371D01*
X105415999Y-92447832D01*
X105416000Y-92447825D01*
X105416000Y-92125001D01*
X119574000Y-92125001D01*
X119574000Y-92447832D01*
X119580401Y-92507371D01*
X119580403Y-92507378D01*
X119630646Y-92642087D01*
X119716810Y-92757187D01*
X119716812Y-92757189D01*
X119831912Y-92843353D01*
X119966621Y-92893596D01*
X119966628Y-92893598D01*
X120026167Y-92899999D01*
X120026175Y-92900000D01*
X121773999Y-92900000D01*
X121774000Y-92899999D01*
X121774000Y-92125001D01*
X121773999Y-92125000D01*
X119574001Y-92125000D01*
X119574000Y-92125001D01*
X105416000Y-92125001D01*
X105415999Y-92125000D01*
X103216001Y-92125000D01*
X103216000Y-92125001D01*
X102416000Y-92125001D01*
X102416000Y-90550001D01*
X103216000Y-90550001D01*
X103216000Y-91324999D01*
X103216001Y-91325000D01*
X105415999Y-91325000D01*
X105416000Y-91324999D01*
X105416000Y-91002175D01*
X105415999Y-91002167D01*
X119574000Y-91002167D01*
X119574000Y-91324999D01*
X119574001Y-91325000D01*
X121773999Y-91325000D01*
X121774000Y-91324999D01*
X121774000Y-90550001D01*
X121773999Y-90550000D01*
X120026167Y-90550000D01*
X119966628Y-90556401D01*
X119966621Y-90556403D01*
X119831912Y-90606646D01*
X119716812Y-90692810D01*
X119716810Y-90692812D01*
X119630646Y-90807912D01*
X119580403Y-90942621D01*
X119580401Y-90942628D01*
X119574000Y-91002167D01*
X105415999Y-91002167D01*
X105409598Y-90942628D01*
X105409596Y-90942621D01*
X105359353Y-90807912D01*
X105273189Y-90692812D01*
X105273187Y-90692810D01*
X105158087Y-90606646D01*
X105023378Y-90556403D01*
X105023371Y-90556401D01*
X104963832Y-90550000D01*
X103216001Y-90550000D01*
X103216000Y-90550001D01*
X102416000Y-90550001D01*
X102415999Y-90550000D01*
X100749000Y-90550000D01*
X100653712Y-90531046D01*
X100572930Y-90477070D01*
X100518954Y-90396288D01*
X100500000Y-90301000D01*
X100500000Y-87499000D01*
X100518954Y-87403712D01*
X100572930Y-87322930D01*
X100653712Y-87268954D01*
X100749000Y-87250000D01*
X102415999Y-87250000D01*
X102416000Y-87249999D01*
X102416000Y-86475001D01*
X103216000Y-86475001D01*
X103216000Y-87249999D01*
X103216001Y-87250000D01*
X104963825Y-87250000D01*
X104963832Y-87249999D01*
X105023371Y-87243598D01*
X105023378Y-87243596D01*
X105158087Y-87193353D01*
X105273187Y-87107189D01*
X105273189Y-87107187D01*
X105359353Y-86992087D01*
X105409596Y-86857378D01*
X105409598Y-86857371D01*
X105415999Y-86797832D01*
X105416000Y-86797825D01*
X105416000Y-86475001D01*
X119574000Y-86475001D01*
X119574000Y-86797832D01*
X119580401Y-86857371D01*
X119580403Y-86857378D01*
X119630646Y-86992087D01*
X119716810Y-87107187D01*
X119716812Y-87107189D01*
X119831912Y-87193353D01*
X119966621Y-87243596D01*
X119966628Y-87243598D01*
X120026167Y-87249999D01*
X120026175Y-87250000D01*
X121773999Y-87250000D01*
X121774000Y-87249999D01*
X121774000Y-86475001D01*
X121773999Y-86475000D01*
X119574001Y-86475000D01*
X119574000Y-86475001D01*
X105416000Y-86475001D01*
X105415999Y-86475000D01*
X103216001Y-86475000D01*
X103216000Y-86475001D01*
X102416000Y-86475001D01*
X102416000Y-84900001D01*
X103216000Y-84900001D01*
X103216000Y-85674999D01*
X103216001Y-85675000D01*
X105415999Y-85675000D01*
X105416000Y-85674999D01*
X105416000Y-85352175D01*
X105415999Y-85352167D01*
X119574000Y-85352167D01*
X119574000Y-85674999D01*
X119574001Y-85675000D01*
X121773999Y-85675000D01*
X121774000Y-85674999D01*
X121774000Y-84900001D01*
X121773999Y-84900000D01*
X120026167Y-84900000D01*
X119966628Y-84906401D01*
X119966621Y-84906403D01*
X119831912Y-84956646D01*
X119716812Y-85042810D01*
X119716810Y-85042812D01*
X119630646Y-85157912D01*
X119580403Y-85292621D01*
X119580401Y-85292628D01*
X119574000Y-85352167D01*
X105415999Y-85352167D01*
X105409598Y-85292628D01*
X105409596Y-85292621D01*
X105359353Y-85157912D01*
X105273189Y-85042812D01*
X105273187Y-85042810D01*
X105158087Y-84956646D01*
X105023378Y-84906403D01*
X105023371Y-84906401D01*
X104963832Y-84900000D01*
X103216001Y-84900000D01*
X103216000Y-84900001D01*
X102416000Y-84900001D01*
X102415999Y-84900000D01*
X100749000Y-84900000D01*
X100653712Y-84881046D01*
X100572930Y-84827070D01*
X100518954Y-84746288D01*
X100500000Y-84651000D01*
X100500000Y-81249000D01*
X100518954Y-81153712D01*
X100572930Y-81072930D01*
X100653712Y-81018954D01*
X100749000Y-81000000D01*
X124251000Y-81000000D01*
X124346288Y-81018954D01*
G37*
%TD.AperFunction*%
%TD*%
%TA.AperFunction,Conductor*%
%TO.N,Net-(J3-Ext)*%
G36*
X124443039Y-60519685D02*
G01*
X124488794Y-60572489D01*
X124500000Y-60624000D01*
X124500000Y-68271109D01*
X124480315Y-68338148D01*
X124427511Y-68383903D01*
X124362745Y-68394399D01*
X124321828Y-68390000D01*
X122574000Y-68390000D01*
X122574000Y-70740000D01*
X124321828Y-70740000D01*
X124321839Y-70739999D01*
X124362742Y-70735601D01*
X124431502Y-70748005D01*
X124482640Y-70795614D01*
X124500000Y-70858890D01*
X124500000Y-73921109D01*
X124480315Y-73988148D01*
X124427511Y-74033903D01*
X124362745Y-74044399D01*
X124321828Y-74040000D01*
X122574000Y-74040000D01*
X122574000Y-76390000D01*
X124321828Y-76390000D01*
X124321839Y-76389999D01*
X124362742Y-76385601D01*
X124431502Y-76398005D01*
X124482640Y-76445614D01*
X124500000Y-76508890D01*
X124500000Y-78876000D01*
X124480315Y-78943039D01*
X124427511Y-78988794D01*
X124376000Y-79000000D01*
X100624000Y-79000000D01*
X100556961Y-78980315D01*
X100511206Y-78927511D01*
X100500000Y-78876000D01*
X100500000Y-76514000D01*
X100519685Y-76446961D01*
X100572489Y-76401206D01*
X100624000Y-76390000D01*
X102343000Y-76390000D01*
X103143000Y-76390000D01*
X104890828Y-76390000D01*
X104890844Y-76389999D01*
X104950372Y-76383598D01*
X104950379Y-76383596D01*
X105085086Y-76333354D01*
X105085093Y-76333350D01*
X105200187Y-76247190D01*
X105200190Y-76247187D01*
X105286350Y-76132093D01*
X105286354Y-76132086D01*
X105336596Y-75997379D01*
X105336598Y-75997372D01*
X105342999Y-75937844D01*
X119574000Y-75937844D01*
X119580401Y-75997372D01*
X119580403Y-75997379D01*
X119630645Y-76132086D01*
X119630649Y-76132093D01*
X119716809Y-76247187D01*
X119716812Y-76247190D01*
X119831906Y-76333350D01*
X119831913Y-76333354D01*
X119966620Y-76383596D01*
X119966627Y-76383598D01*
X120026155Y-76389999D01*
X120026172Y-76390000D01*
X121774000Y-76390000D01*
X121774000Y-75615000D01*
X119574000Y-75615000D01*
X119574000Y-75937844D01*
X105342999Y-75937844D01*
X105343000Y-75937827D01*
X105343000Y-75615000D01*
X103143000Y-75615000D01*
X103143000Y-76390000D01*
X102343000Y-76390000D01*
X102343000Y-74815000D01*
X103143000Y-74815000D01*
X105343000Y-74815000D01*
X105343000Y-74492172D01*
X105342999Y-74492155D01*
X119574000Y-74492155D01*
X119574000Y-74815000D01*
X121774000Y-74815000D01*
X121774000Y-74040000D01*
X120026155Y-74040000D01*
X119966627Y-74046401D01*
X119966620Y-74046403D01*
X119831913Y-74096645D01*
X119831906Y-74096649D01*
X119716812Y-74182809D01*
X119716809Y-74182812D01*
X119630649Y-74297906D01*
X119630645Y-74297913D01*
X119580403Y-74432620D01*
X119580401Y-74432627D01*
X119574000Y-74492155D01*
X105342999Y-74492155D01*
X105336598Y-74432627D01*
X105336596Y-74432620D01*
X105286354Y-74297913D01*
X105286350Y-74297906D01*
X105200190Y-74182812D01*
X105200187Y-74182809D01*
X105085093Y-74096649D01*
X105085086Y-74096645D01*
X104950379Y-74046403D01*
X104950372Y-74046401D01*
X104890844Y-74040000D01*
X103143000Y-74040000D01*
X103143000Y-74815000D01*
X102343000Y-74815000D01*
X102343000Y-74040000D01*
X100624000Y-74040000D01*
X100556961Y-74020315D01*
X100511206Y-73967511D01*
X100500000Y-73916000D01*
X100500000Y-70864000D01*
X100519685Y-70796961D01*
X100572489Y-70751206D01*
X100624000Y-70740000D01*
X102343000Y-70740000D01*
X103143000Y-70740000D01*
X104890828Y-70740000D01*
X104890844Y-70739999D01*
X104950372Y-70733598D01*
X104950379Y-70733596D01*
X105085086Y-70683354D01*
X105085093Y-70683350D01*
X105200187Y-70597190D01*
X105200190Y-70597187D01*
X105286350Y-70482093D01*
X105286354Y-70482086D01*
X105336596Y-70347379D01*
X105336598Y-70347372D01*
X105342999Y-70287844D01*
X119574000Y-70287844D01*
X119580401Y-70347372D01*
X119580403Y-70347379D01*
X119630645Y-70482086D01*
X119630649Y-70482093D01*
X119716809Y-70597187D01*
X119716812Y-70597190D01*
X119831906Y-70683350D01*
X119831913Y-70683354D01*
X119966620Y-70733596D01*
X119966627Y-70733598D01*
X120026155Y-70739999D01*
X120026172Y-70740000D01*
X121774000Y-70740000D01*
X121774000Y-69965000D01*
X119574000Y-69965000D01*
X119574000Y-70287844D01*
X105342999Y-70287844D01*
X105343000Y-70287827D01*
X105343000Y-69965000D01*
X103143000Y-69965000D01*
X103143000Y-70740000D01*
X102343000Y-70740000D01*
X102343000Y-69165000D01*
X103143000Y-69165000D01*
X105343000Y-69165000D01*
X105343000Y-68842172D01*
X105342999Y-68842155D01*
X119574000Y-68842155D01*
X119574000Y-69165000D01*
X121774000Y-69165000D01*
X121774000Y-68390000D01*
X120026155Y-68390000D01*
X119966627Y-68396401D01*
X119966620Y-68396403D01*
X119831913Y-68446645D01*
X119831906Y-68446649D01*
X119716812Y-68532809D01*
X119716809Y-68532812D01*
X119630649Y-68647906D01*
X119630645Y-68647913D01*
X119580403Y-68782620D01*
X119580401Y-68782627D01*
X119574000Y-68842155D01*
X105342999Y-68842155D01*
X105336598Y-68782627D01*
X105336596Y-68782620D01*
X105286354Y-68647913D01*
X105286350Y-68647906D01*
X105200190Y-68532812D01*
X105200187Y-68532809D01*
X105085093Y-68446649D01*
X105085086Y-68446645D01*
X104950379Y-68396403D01*
X104950372Y-68396401D01*
X104890844Y-68390000D01*
X103143000Y-68390000D01*
X103143000Y-69165000D01*
X102343000Y-69165000D01*
X102343000Y-68390000D01*
X100624000Y-68390000D01*
X100556961Y-68370315D01*
X100511206Y-68317511D01*
X100500000Y-68266000D01*
X100500000Y-62885258D01*
X101249500Y-62885258D01*
X101249500Y-63114741D01*
X101274446Y-63304215D01*
X101279452Y-63342238D01*
X101279453Y-63342240D01*
X101338842Y-63563887D01*
X101426650Y-63775876D01*
X101426657Y-63775890D01*
X101541392Y-63974617D01*
X101681081Y-64156661D01*
X101681089Y-64156670D01*
X101843330Y-64318911D01*
X101843338Y-64318918D01*
X102025382Y-64458607D01*
X102025385Y-64458608D01*
X102025388Y-64458611D01*
X102224112Y-64573344D01*
X102224117Y-64573346D01*
X102224123Y-64573349D01*
X102315480Y-64611190D01*
X102436113Y-64661158D01*
X102657762Y-64720548D01*
X102885266Y-64750500D01*
X102885273Y-64750500D01*
X103114727Y-64750500D01*
X103114734Y-64750500D01*
X103342238Y-64720548D01*
X103563887Y-64661158D01*
X103775888Y-64573344D01*
X103974612Y-64458611D01*
X104156661Y-64318919D01*
X104156665Y-64318914D01*
X104156670Y-64318911D01*
X104318911Y-64156670D01*
X104318914Y-64156665D01*
X104318919Y-64156661D01*
X104458611Y-63974612D01*
X104573344Y-63775888D01*
X104661158Y-63563887D01*
X104720548Y-63342238D01*
X104750500Y-63114734D01*
X104750500Y-62885266D01*
X104750499Y-62885258D01*
X120249500Y-62885258D01*
X120249500Y-63114741D01*
X120274446Y-63304215D01*
X120279452Y-63342238D01*
X120279453Y-63342240D01*
X120338842Y-63563887D01*
X120426650Y-63775876D01*
X120426657Y-63775890D01*
X120541392Y-63974617D01*
X120681081Y-64156661D01*
X120681089Y-64156670D01*
X120843330Y-64318911D01*
X120843338Y-64318918D01*
X121025382Y-64458607D01*
X121025385Y-64458608D01*
X121025388Y-64458611D01*
X121224112Y-64573344D01*
X121224117Y-64573346D01*
X121224123Y-64573349D01*
X121315480Y-64611190D01*
X121436113Y-64661158D01*
X121657762Y-64720548D01*
X121885266Y-64750500D01*
X121885273Y-64750500D01*
X122114727Y-64750500D01*
X122114734Y-64750500D01*
X122342238Y-64720548D01*
X122563887Y-64661158D01*
X122775888Y-64573344D01*
X122974612Y-64458611D01*
X123156661Y-64318919D01*
X123156665Y-64318914D01*
X123156670Y-64318911D01*
X123318911Y-64156670D01*
X123318914Y-64156665D01*
X123318919Y-64156661D01*
X123458611Y-63974612D01*
X123573344Y-63775888D01*
X123661158Y-63563887D01*
X123720548Y-63342238D01*
X123750500Y-63114734D01*
X123750500Y-62885266D01*
X123720548Y-62657762D01*
X123661158Y-62436113D01*
X123573344Y-62224112D01*
X123458611Y-62025388D01*
X123458608Y-62025385D01*
X123458607Y-62025382D01*
X123318918Y-61843338D01*
X123318911Y-61843330D01*
X123156670Y-61681089D01*
X123156661Y-61681081D01*
X122974617Y-61541392D01*
X122775890Y-61426657D01*
X122775876Y-61426650D01*
X122563887Y-61338842D01*
X122342238Y-61279452D01*
X122304215Y-61274446D01*
X122114741Y-61249500D01*
X122114734Y-61249500D01*
X121885266Y-61249500D01*
X121885258Y-61249500D01*
X121668715Y-61278009D01*
X121657762Y-61279452D01*
X121564076Y-61304554D01*
X121436112Y-61338842D01*
X121224123Y-61426650D01*
X121224109Y-61426657D01*
X121025382Y-61541392D01*
X120843338Y-61681081D01*
X120681081Y-61843338D01*
X120541392Y-62025382D01*
X120426657Y-62224109D01*
X120426650Y-62224123D01*
X120338842Y-62436112D01*
X120279453Y-62657759D01*
X120279451Y-62657770D01*
X120249500Y-62885258D01*
X104750499Y-62885258D01*
X104720548Y-62657762D01*
X104661158Y-62436113D01*
X104573344Y-62224112D01*
X104458611Y-62025388D01*
X104458608Y-62025385D01*
X104458607Y-62025382D01*
X104318918Y-61843338D01*
X104318911Y-61843330D01*
X104156670Y-61681089D01*
X104156661Y-61681081D01*
X103974617Y-61541392D01*
X103775890Y-61426657D01*
X103775876Y-61426650D01*
X103563887Y-61338842D01*
X103342238Y-61279452D01*
X103304215Y-61274446D01*
X103114741Y-61249500D01*
X103114734Y-61249500D01*
X102885266Y-61249500D01*
X102885258Y-61249500D01*
X102668715Y-61278009D01*
X102657762Y-61279452D01*
X102564076Y-61304554D01*
X102436112Y-61338842D01*
X102224123Y-61426650D01*
X102224109Y-61426657D01*
X102025382Y-61541392D01*
X101843338Y-61681081D01*
X101681081Y-61843338D01*
X101541392Y-62025382D01*
X101426657Y-62224109D01*
X101426650Y-62224123D01*
X101338842Y-62436112D01*
X101279453Y-62657759D01*
X101279451Y-62657770D01*
X101249500Y-62885258D01*
X100500000Y-62885258D01*
X100500000Y-60624000D01*
X100519685Y-60556961D01*
X100572489Y-60511206D01*
X100624000Y-60500000D01*
X124376000Y-60500000D01*
X124443039Y-60519685D01*
G37*
%TD.AperFunction*%
%TD*%
M02*
