M48
; DRILL file {KiCad 8.0.5-8.0.5-0~ubuntu22.04.1} date 2025-01-09T21:46:33-0300
; FORMAT={-:-/ absolute / inch / decimal}
; #@! TF.CreationDate,2025-01-09T21:46:33-03:00
; #@! TF.GenerationSoftware,Kicad,Pcbnew,8.0.5-8.0.5-0~ubuntu22.04.1
; #@! TF.FileFunction,Plated,1,2,PTH
FMAT,2
INCH
; #@! TA.AperFunction,Plated,PTH,ViaDrill
T1C0.0118
%
G90
G05
T1
X3.9764Y-3.4528
X3.9764Y-3.5472
X4.0157Y-3.4528
X4.0157Y-3.5472
X4.0443Y-3.0209
X4.046Y-2.6759
X4.0479Y-3.325
X4.0479Y-3.675
X4.0551Y-3.4528
X4.0551Y-3.5472
X4.0945Y-3.4528
X4.0945Y-3.5472
X4.1142Y-3.3071
X4.1339Y-3.2677
X4.1339Y-3.5433
X4.1732Y-3.248
X4.1732Y-3.5433
X4.1732Y-3.6614
X4.2126Y-3.248
X4.2126Y-3.3465
X4.2126Y-3.4449
X4.2126Y-3.5433
X4.2126Y-3.6614
X4.252Y-3.248
X4.252Y-3.3465
X4.252Y-3.4449
X4.252Y-3.5433
X4.2618Y-3.6516
X4.2913Y-3.248
X4.2913Y-3.3465
X4.2913Y-3.4449
X4.2913Y-3.5433
X4.3012Y-3.6516
X4.3307Y-3.248
X4.3307Y-3.3465
X4.3307Y-3.4449
X4.3307Y-3.5433
X4.3406Y-3.6516
X4.3701Y-3.248
X4.3701Y-3.3465
X4.3701Y-3.4449
X4.3701Y-3.5433
X4.3799Y-3.6516
X4.4094Y-3.248
X4.4094Y-3.3465
X4.4094Y-3.4449
X4.4193Y-3.6516
X4.4488Y-3.248
X4.4488Y-3.3465
X4.4488Y-3.4449
X4.4587Y-3.6516
X4.4685Y-3.5433
X4.4882Y-3.248
X4.4882Y-3.3465
X4.4882Y-3.4449
X4.498Y-3.6516
X4.5079Y-3.5433
X4.5276Y-3.248
X4.5276Y-3.3465
X4.5276Y-3.4449
X4.5374Y-3.6516
X4.5472Y-3.5433
X4.5669Y-3.248
X4.5669Y-3.3465
X4.5669Y-3.4449
X4.5768Y-3.6516
X4.5866Y-3.5433
X4.6063Y-3.248
X4.6063Y-3.3465
X4.6063Y-3.4449
X4.626Y-3.5433
X4.626Y-3.6614
X4.6457Y-3.248
X4.6457Y-3.3465
X4.6457Y-3.4449
X4.6654Y-3.5433
X4.6654Y-3.6614
X4.685Y-3.248
X4.7047Y-3.5433
X4.7047Y-3.6614
X4.7244Y-3.2874
X4.7441Y-3.3268
X4.7441Y-3.4528
X4.7441Y-3.5472
X4.7835Y-3.4528
X4.7835Y-3.5472
X4.81Y-2.6759
X4.81Y-3.0229
X4.81Y-3.328
X4.81Y-3.674
X4.8228Y-3.4528
X4.8228Y-3.5472
X4.8622Y-3.4528
X4.8622Y-3.5472
M30
