%TF.GenerationSoftware,KiCad,Pcbnew,8.0.2*%
%TF.CreationDate,2025-01-11T01:09:32-03:00*%
%TF.ProjectId,LMH34400,4c4d4833-3434-4303-902e-6b696361645f,rev?*%
%TF.SameCoordinates,Original*%
%TF.FileFunction,Copper,L3,Inr*%
%TF.FilePolarity,Positive*%
%FSLAX46Y46*%
G04 Gerber Fmt 4.6, Leading zero omitted, Abs format (unit mm)*
G04 Created by KiCad (PCBNEW 8.0.2) date 2025-01-11 01:09:32*
%MOMM*%
%LPD*%
G01*
G04 APERTURE LIST*
%TA.AperFunction,ComponentPad*%
%ADD10R,2.600000X2.600000*%
%TD*%
%TA.AperFunction,ComponentPad*%
%ADD11C,2.600000*%
%TD*%
%TA.AperFunction,ComponentPad*%
%ADD12R,1.700000X1.700000*%
%TD*%
%TA.AperFunction,ComponentPad*%
%ADD13O,1.700000X1.700000*%
%TD*%
%TA.AperFunction,ViaPad*%
%ADD14C,0.450000*%
%TD*%
G04 APERTURE END LIST*
D10*
%TO.N,GND*%
%TO.C,J3*%
X135500000Y-88500000D03*
D11*
%TO.N,Net-(J3-Pin_2)*%
X135500000Y-83500000D03*
%TD*%
D12*
%TO.N,VCC*%
%TO.C,J5*%
X130000000Y-73000000D03*
D13*
%TO.N,Net-(J5-Pin_2)*%
X127460000Y-73000000D03*
%TO.N,GND*%
X124920000Y-73000000D03*
%TD*%
D12*
%TO.N,VCC*%
%TO.C,J4*%
X130000000Y-77000000D03*
D13*
%TO.N,Net-(J4-Pin_2)*%
X127460000Y-77000000D03*
%TO.N,GND*%
X124920000Y-77000000D03*
%TD*%
D14*
%TO.N,GND*%
X135500000Y-71000000D03*
X120500000Y-88000000D03*
X120500003Y-67916096D03*
X121000000Y-71000000D03*
X135500000Y-66000000D03*
X112000000Y-71000000D03*
X121500000Y-88000000D03*
X135500000Y-72000000D03*
X112000000Y-70000000D03*
X126000000Y-88000000D03*
X112000000Y-65000000D03*
X119500000Y-77500000D03*
X127500000Y-88000000D03*
X112000000Y-64000000D03*
X135500000Y-65000000D03*
X121000000Y-73000000D03*
X121000000Y-75000000D03*
%TO.N,VCC*%
X115000000Y-72000000D03*
%TO.N,Net-(J4-Pin_2)*%
X116000000Y-69000000D03*
%TO.N,Net-(J5-Pin_2)*%
X120750000Y-66750000D03*
%TD*%
%TA.AperFunction,Conductor*%
%TO.N,VCC*%
G36*
X136199740Y-53514352D02*
G01*
X136214092Y-53549000D01*
X136199740Y-53583648D01*
X136177774Y-53596330D01*
X135916813Y-53666254D01*
X135916807Y-53666256D01*
X135916803Y-53666257D01*
X135916801Y-53666258D01*
X135819831Y-53703480D01*
X135574262Y-53797745D01*
X135247349Y-53964317D01*
X134939629Y-54164151D01*
X134939627Y-54164153D01*
X134654498Y-54395047D01*
X134654483Y-54395060D01*
X134395060Y-54654483D01*
X134395047Y-54654498D01*
X134164153Y-54939627D01*
X134164151Y-54939629D01*
X133964317Y-55247349D01*
X133797745Y-55574262D01*
X133756745Y-55681072D01*
X133694459Y-55843336D01*
X133666256Y-55916807D01*
X133666254Y-55916813D01*
X133571295Y-56271204D01*
X133513897Y-56633604D01*
X133494696Y-57000000D01*
X133513897Y-57366395D01*
X133571295Y-57728795D01*
X133666254Y-58083186D01*
X133666256Y-58083192D01*
X133666258Y-58083199D01*
X133750612Y-58302952D01*
X133797745Y-58425737D01*
X133819875Y-58469169D01*
X133963221Y-58750500D01*
X133964317Y-58752650D01*
X134164151Y-59060370D01*
X134164153Y-59060372D01*
X134395047Y-59345501D01*
X134395060Y-59345516D01*
X134654483Y-59604939D01*
X134654490Y-59604945D01*
X134654494Y-59604949D01*
X134654498Y-59604952D01*
X134939627Y-59835846D01*
X134939629Y-59835848D01*
X134939634Y-59835851D01*
X135247348Y-60035682D01*
X135574264Y-60202255D01*
X135916801Y-60333742D01*
X136271206Y-60428705D01*
X136633596Y-60486102D01*
X137000000Y-60505304D01*
X137366404Y-60486102D01*
X137728794Y-60428705D01*
X138083199Y-60333742D01*
X138425736Y-60202255D01*
X138752652Y-60035682D01*
X139060366Y-59835851D01*
X139345506Y-59604949D01*
X139604949Y-59345506D01*
X139835851Y-59060366D01*
X140035682Y-58752652D01*
X140202255Y-58425736D01*
X140333742Y-58083199D01*
X140403670Y-57822224D01*
X140426500Y-57792472D01*
X140463682Y-57787577D01*
X140493435Y-57810407D01*
X140500000Y-57834907D01*
X140500000Y-92451000D01*
X140485648Y-92485648D01*
X140451000Y-92500000D01*
X111834908Y-92500000D01*
X111800260Y-92485648D01*
X111785908Y-92451000D01*
X111800260Y-92416352D01*
X111822226Y-92403670D01*
X111884631Y-92386948D01*
X112083199Y-92333742D01*
X112425736Y-92202255D01*
X112752652Y-92035682D01*
X113060366Y-91835851D01*
X113345506Y-91604949D01*
X113604949Y-91345506D01*
X113835851Y-91060366D01*
X114035682Y-90752652D01*
X114202255Y-90425736D01*
X114333742Y-90083199D01*
X114428705Y-89728794D01*
X114486102Y-89366404D01*
X114505304Y-89000000D01*
X114486102Y-88633596D01*
X114428705Y-88271206D01*
X114356035Y-88000000D01*
X120069196Y-88000000D01*
X120090281Y-88133126D01*
X120090281Y-88133127D01*
X120090282Y-88133128D01*
X120151467Y-88253213D01*
X120151472Y-88253220D01*
X120246779Y-88348527D01*
X120246786Y-88348532D01*
X120326842Y-88389322D01*
X120366874Y-88409719D01*
X120500000Y-88430804D01*
X120633126Y-88409719D01*
X120716420Y-88367278D01*
X120753213Y-88348532D01*
X120753215Y-88348530D01*
X120753220Y-88348528D01*
X120848528Y-88253220D01*
X120909719Y-88133126D01*
X120930804Y-88000000D01*
X121069196Y-88000000D01*
X121090281Y-88133126D01*
X121090281Y-88133127D01*
X121090282Y-88133128D01*
X121151467Y-88253213D01*
X121151472Y-88253220D01*
X121246779Y-88348527D01*
X121246786Y-88348532D01*
X121326842Y-88389322D01*
X121366874Y-88409719D01*
X121500000Y-88430804D01*
X121633126Y-88409719D01*
X121716420Y-88367278D01*
X121753213Y-88348532D01*
X121753215Y-88348530D01*
X121753220Y-88348528D01*
X121848528Y-88253220D01*
X121909719Y-88133126D01*
X121930804Y-88000000D01*
X125569196Y-88000000D01*
X125590281Y-88133126D01*
X125590281Y-88133127D01*
X125590282Y-88133128D01*
X125651467Y-88253213D01*
X125651472Y-88253220D01*
X125746779Y-88348527D01*
X125746786Y-88348532D01*
X125826842Y-88389322D01*
X125866874Y-88409719D01*
X126000000Y-88430804D01*
X126133126Y-88409719D01*
X126216420Y-88367278D01*
X126253213Y-88348532D01*
X126253215Y-88348530D01*
X126253220Y-88348528D01*
X126348528Y-88253220D01*
X126409719Y-88133126D01*
X126430804Y-88000000D01*
X127069196Y-88000000D01*
X127090281Y-88133126D01*
X127090281Y-88133127D01*
X127090282Y-88133128D01*
X127151467Y-88253213D01*
X127151472Y-88253220D01*
X127246779Y-88348527D01*
X127246786Y-88348532D01*
X127326842Y-88389322D01*
X127366874Y-88409719D01*
X127500000Y-88430804D01*
X127633126Y-88409719D01*
X127716420Y-88367278D01*
X127753213Y-88348532D01*
X127753215Y-88348530D01*
X127753220Y-88348528D01*
X127848528Y-88253220D01*
X127909719Y-88133126D01*
X127930804Y-88000000D01*
X127909719Y-87866874D01*
X127872207Y-87793252D01*
X127848532Y-87746786D01*
X127848527Y-87746779D01*
X127753220Y-87651472D01*
X127753213Y-87651467D01*
X127633128Y-87590282D01*
X127633127Y-87590281D01*
X127633126Y-87590281D01*
X127500000Y-87569196D01*
X127366874Y-87590281D01*
X127366872Y-87590281D01*
X127366871Y-87590282D01*
X127246786Y-87651467D01*
X127246779Y-87651472D01*
X127151472Y-87746779D01*
X127151467Y-87746786D01*
X127090282Y-87866871D01*
X127090281Y-87866872D01*
X127090281Y-87866874D01*
X127069196Y-88000000D01*
X126430804Y-88000000D01*
X126409719Y-87866874D01*
X126372207Y-87793252D01*
X126348532Y-87746786D01*
X126348527Y-87746779D01*
X126253220Y-87651472D01*
X126253213Y-87651467D01*
X126133128Y-87590282D01*
X126133127Y-87590281D01*
X126133126Y-87590281D01*
X126000000Y-87569196D01*
X125866874Y-87590281D01*
X125866872Y-87590281D01*
X125866871Y-87590282D01*
X125746786Y-87651467D01*
X125746779Y-87651472D01*
X125651472Y-87746779D01*
X125651467Y-87746786D01*
X125590282Y-87866871D01*
X125590281Y-87866872D01*
X125590281Y-87866874D01*
X125569196Y-88000000D01*
X121930804Y-88000000D01*
X121909719Y-87866874D01*
X121872207Y-87793252D01*
X121848532Y-87746786D01*
X121848527Y-87746779D01*
X121753220Y-87651472D01*
X121753213Y-87651467D01*
X121633128Y-87590282D01*
X121633127Y-87590281D01*
X121633126Y-87590281D01*
X121500000Y-87569196D01*
X121366874Y-87590281D01*
X121366872Y-87590281D01*
X121366871Y-87590282D01*
X121246786Y-87651467D01*
X121246779Y-87651472D01*
X121151472Y-87746779D01*
X121151467Y-87746786D01*
X121090282Y-87866871D01*
X121090281Y-87866872D01*
X121090281Y-87866874D01*
X121069196Y-88000000D01*
X120930804Y-88000000D01*
X120909719Y-87866874D01*
X120872207Y-87793252D01*
X120848532Y-87746786D01*
X120848527Y-87746779D01*
X120753220Y-87651472D01*
X120753213Y-87651467D01*
X120633128Y-87590282D01*
X120633127Y-87590281D01*
X120633126Y-87590281D01*
X120500000Y-87569196D01*
X120366874Y-87590281D01*
X120366872Y-87590281D01*
X120366871Y-87590282D01*
X120246786Y-87651467D01*
X120246779Y-87651472D01*
X120151472Y-87746779D01*
X120151467Y-87746786D01*
X120090282Y-87866871D01*
X120090281Y-87866872D01*
X120090281Y-87866874D01*
X120069196Y-88000000D01*
X114356035Y-88000000D01*
X114333742Y-87916801D01*
X114202255Y-87574264D01*
X114035682Y-87247348D01*
X113992110Y-87180252D01*
X133999500Y-87180252D01*
X133999500Y-89819748D01*
X134011133Y-89878231D01*
X134028882Y-89904795D01*
X134055447Y-89944552D01*
X134082012Y-89962301D01*
X134121769Y-89988867D01*
X134180252Y-90000500D01*
X134180255Y-90000500D01*
X136819745Y-90000500D01*
X136819748Y-90000500D01*
X136878231Y-89988867D01*
X136944552Y-89944552D01*
X136988867Y-89878231D01*
X137000500Y-89819748D01*
X137000500Y-87180252D01*
X136988867Y-87121769D01*
X136958429Y-87076216D01*
X136944552Y-87055447D01*
X136904795Y-87028882D01*
X136878231Y-87011133D01*
X136819748Y-86999500D01*
X134180252Y-86999500D01*
X134121769Y-87011133D01*
X134055447Y-87055447D01*
X134011133Y-87121769D01*
X133999500Y-87180252D01*
X113992110Y-87180252D01*
X113835851Y-86939634D01*
X113835848Y-86939629D01*
X113835846Y-86939627D01*
X113604952Y-86654498D01*
X113604939Y-86654483D01*
X113345516Y-86395060D01*
X113345501Y-86395047D01*
X113060372Y-86164153D01*
X113060370Y-86164151D01*
X112752650Y-85964317D01*
X112425737Y-85797745D01*
X112302952Y-85750612D01*
X112083199Y-85666258D01*
X112083192Y-85666256D01*
X112083186Y-85666254D01*
X111728795Y-85571295D01*
X111630483Y-85555724D01*
X111366404Y-85513898D01*
X111366399Y-85513897D01*
X111366395Y-85513897D01*
X111000000Y-85494696D01*
X110633604Y-85513897D01*
X110633598Y-85513897D01*
X110633596Y-85513898D01*
X110467826Y-85540153D01*
X110271204Y-85571295D01*
X109916813Y-85666254D01*
X109916807Y-85666256D01*
X109916803Y-85666257D01*
X109916801Y-85666258D01*
X109819831Y-85703480D01*
X109574262Y-85797745D01*
X109247349Y-85964317D01*
X108939629Y-86164151D01*
X108939627Y-86164153D01*
X108654498Y-86395047D01*
X108654483Y-86395060D01*
X108395060Y-86654483D01*
X108395047Y-86654498D01*
X108164153Y-86939627D01*
X108164151Y-86939629D01*
X107964317Y-87247349D01*
X107797745Y-87574262D01*
X107731520Y-87746786D01*
X107694459Y-87843336D01*
X107666256Y-87916807D01*
X107666254Y-87916813D01*
X107596330Y-88177774D01*
X107573500Y-88207527D01*
X107536318Y-88212422D01*
X107506565Y-88189592D01*
X107500000Y-88165092D01*
X107500000Y-83500000D01*
X133994357Y-83500000D01*
X134014892Y-83747821D01*
X134075938Y-83988883D01*
X134175825Y-84216604D01*
X134175832Y-84216616D01*
X134311834Y-84424784D01*
X134480255Y-84607737D01*
X134480256Y-84607738D01*
X134676491Y-84760474D01*
X134676498Y-84760478D01*
X134676500Y-84760479D01*
X134895182Y-84878824D01*
X134895184Y-84878824D01*
X134895190Y-84878828D01*
X135130386Y-84959571D01*
X135375665Y-85000500D01*
X135375668Y-85000500D01*
X135624332Y-85000500D01*
X135624335Y-85000500D01*
X135869614Y-84959571D01*
X136104810Y-84878828D01*
X136323509Y-84760474D01*
X136519744Y-84607738D01*
X136688164Y-84424785D01*
X136824173Y-84216607D01*
X136924063Y-83988881D01*
X136985108Y-83747821D01*
X137005643Y-83500000D01*
X136985108Y-83252179D01*
X136924063Y-83011119D01*
X136824173Y-82783393D01*
X136824171Y-82783390D01*
X136824167Y-82783383D01*
X136688165Y-82575215D01*
X136519744Y-82392262D01*
X136323513Y-82239529D01*
X136323512Y-82239528D01*
X136323509Y-82239526D01*
X136323504Y-82239523D01*
X136323499Y-82239520D01*
X136104817Y-82121175D01*
X136104811Y-82121172D01*
X136104810Y-82121172D01*
X136085962Y-82114701D01*
X135869615Y-82040429D01*
X135808294Y-82030196D01*
X135624335Y-81999500D01*
X135375665Y-81999500D01*
X135228497Y-82024057D01*
X135130384Y-82040429D01*
X134895192Y-82121171D01*
X134895182Y-82121175D01*
X134676500Y-82239520D01*
X134676486Y-82239529D01*
X134480255Y-82392262D01*
X134480254Y-82392262D01*
X134311834Y-82575215D01*
X134175832Y-82783383D01*
X134175825Y-82783395D01*
X134075938Y-83011116D01*
X134014892Y-83252178D01*
X133994357Y-83500000D01*
X107500000Y-83500000D01*
X107500000Y-77500000D01*
X119069196Y-77500000D01*
X119090281Y-77633126D01*
X119090281Y-77633127D01*
X119090282Y-77633128D01*
X119151467Y-77753213D01*
X119151472Y-77753220D01*
X119246779Y-77848527D01*
X119246786Y-77848532D01*
X119326842Y-77889322D01*
X119366874Y-77909719D01*
X119500000Y-77930804D01*
X119633126Y-77909719D01*
X119716420Y-77867278D01*
X119753213Y-77848532D01*
X119753215Y-77848530D01*
X119753220Y-77848528D01*
X119848528Y-77753220D01*
X119851999Y-77746409D01*
X119867278Y-77716420D01*
X119909719Y-77633126D01*
X119930804Y-77500000D01*
X119909719Y-77366874D01*
X119879215Y-77307007D01*
X119848532Y-77246786D01*
X119848527Y-77246779D01*
X119753220Y-77151472D01*
X119753213Y-77151467D01*
X119633128Y-77090282D01*
X119633127Y-77090281D01*
X119633126Y-77090281D01*
X119500000Y-77069196D01*
X119366874Y-77090281D01*
X119366872Y-77090281D01*
X119366871Y-77090282D01*
X119246786Y-77151467D01*
X119246779Y-77151472D01*
X119151472Y-77246779D01*
X119151467Y-77246786D01*
X119090282Y-77366871D01*
X119090281Y-77366872D01*
X119090281Y-77366874D01*
X119069196Y-77500000D01*
X107500000Y-77500000D01*
X107500000Y-77000000D01*
X123864417Y-77000000D01*
X123884700Y-77205934D01*
X123944768Y-77403954D01*
X124042315Y-77586450D01*
X124173590Y-77746410D01*
X124333550Y-77877685D01*
X124516046Y-77975232D01*
X124714066Y-78035300D01*
X124920000Y-78055583D01*
X125125934Y-78035300D01*
X125323954Y-77975232D01*
X125506450Y-77877685D01*
X125666410Y-77746410D01*
X125797685Y-77586450D01*
X125895232Y-77403954D01*
X125955300Y-77205934D01*
X125975583Y-77000000D01*
X126404417Y-77000000D01*
X126424700Y-77205934D01*
X126484768Y-77403954D01*
X126582315Y-77586450D01*
X126713590Y-77746410D01*
X126873550Y-77877685D01*
X127056046Y-77975232D01*
X127254066Y-78035300D01*
X127460000Y-78055583D01*
X127665934Y-78035300D01*
X127863954Y-77975232D01*
X128046450Y-77877685D01*
X128206410Y-77746410D01*
X128337685Y-77586450D01*
X128435232Y-77403954D01*
X128495300Y-77205934D01*
X128515583Y-77000000D01*
X128495300Y-76794066D01*
X128435232Y-76596046D01*
X128337685Y-76413550D01*
X128206410Y-76253590D01*
X128046450Y-76122315D01*
X128008752Y-76102165D01*
X128650000Y-76102165D01*
X128650000Y-76750000D01*
X129566988Y-76750000D01*
X129534075Y-76807007D01*
X129500000Y-76934174D01*
X129500000Y-77065826D01*
X129534075Y-77192993D01*
X129566988Y-77250000D01*
X128650000Y-77250000D01*
X128650000Y-77897834D01*
X128656401Y-77957372D01*
X128656401Y-77957373D01*
X128706648Y-78092091D01*
X128792811Y-78207188D01*
X128907908Y-78293351D01*
X129042626Y-78343598D01*
X129102166Y-78350000D01*
X129750000Y-78350000D01*
X129750000Y-77433012D01*
X129807007Y-77465925D01*
X129934174Y-77500000D01*
X130065826Y-77500000D01*
X130192993Y-77465925D01*
X130250000Y-77433012D01*
X130250000Y-78350000D01*
X130897834Y-78350000D01*
X130957372Y-78343598D01*
X130957373Y-78343598D01*
X131092091Y-78293351D01*
X131207188Y-78207188D01*
X131293351Y-78092091D01*
X131343598Y-77957373D01*
X131343598Y-77957372D01*
X131350000Y-77897834D01*
X131350000Y-77250000D01*
X130433012Y-77250000D01*
X130465925Y-77192993D01*
X130500000Y-77065826D01*
X130500000Y-76934174D01*
X130465925Y-76807007D01*
X130433012Y-76750000D01*
X131350000Y-76750000D01*
X131350000Y-76102165D01*
X131343598Y-76042627D01*
X131343598Y-76042626D01*
X131293351Y-75907908D01*
X131207188Y-75792811D01*
X131092091Y-75706648D01*
X130957373Y-75656401D01*
X130897834Y-75650000D01*
X130250000Y-75650000D01*
X130250000Y-76566988D01*
X130192993Y-76534075D01*
X130065826Y-76500000D01*
X129934174Y-76500000D01*
X129807007Y-76534075D01*
X129750000Y-76566988D01*
X129750000Y-75650000D01*
X129102166Y-75650000D01*
X129042627Y-75656401D01*
X129042626Y-75656401D01*
X128907908Y-75706648D01*
X128792811Y-75792811D01*
X128706648Y-75907908D01*
X128656401Y-76042626D01*
X128656401Y-76042627D01*
X128650000Y-76102165D01*
X128008752Y-76102165D01*
X127863954Y-76024768D01*
X127665934Y-75964700D01*
X127460000Y-75944417D01*
X127254065Y-75964700D01*
X127254064Y-75964700D01*
X127056043Y-76024769D01*
X126873548Y-76122316D01*
X126713590Y-76253590D01*
X126582316Y-76413548D01*
X126484769Y-76596043D01*
X126424700Y-76794064D01*
X126424700Y-76794065D01*
X126424700Y-76794066D01*
X126404417Y-77000000D01*
X125975583Y-77000000D01*
X125955300Y-76794066D01*
X125895232Y-76596046D01*
X125797685Y-76413550D01*
X125666410Y-76253590D01*
X125506450Y-76122315D01*
X125323954Y-76024768D01*
X125125934Y-75964700D01*
X124920000Y-75944417D01*
X124714065Y-75964700D01*
X124714064Y-75964700D01*
X124516043Y-76024769D01*
X124333548Y-76122316D01*
X124173590Y-76253590D01*
X124042316Y-76413548D01*
X123944769Y-76596043D01*
X123884700Y-76794064D01*
X123884700Y-76794065D01*
X123884700Y-76794066D01*
X123864417Y-77000000D01*
X107500000Y-77000000D01*
X107500000Y-75000000D01*
X120569196Y-75000000D01*
X120590281Y-75133126D01*
X120590281Y-75133127D01*
X120590282Y-75133128D01*
X120651467Y-75253213D01*
X120651472Y-75253220D01*
X120746779Y-75348527D01*
X120746786Y-75348532D01*
X120826842Y-75389322D01*
X120866874Y-75409719D01*
X121000000Y-75430804D01*
X121133126Y-75409719D01*
X121216420Y-75367278D01*
X121253213Y-75348532D01*
X121253215Y-75348530D01*
X121253220Y-75348528D01*
X121348528Y-75253220D01*
X121409719Y-75133126D01*
X121430804Y-75000000D01*
X121409719Y-74866874D01*
X121389322Y-74826842D01*
X121348532Y-74746786D01*
X121348527Y-74746779D01*
X121253220Y-74651472D01*
X121253213Y-74651467D01*
X121133128Y-74590282D01*
X121133127Y-74590281D01*
X121133126Y-74590281D01*
X121000000Y-74569196D01*
X120866874Y-74590281D01*
X120866872Y-74590281D01*
X120866871Y-74590282D01*
X120746786Y-74651467D01*
X120746779Y-74651472D01*
X120651472Y-74746779D01*
X120651467Y-74746786D01*
X120590282Y-74866871D01*
X120590281Y-74866872D01*
X120590281Y-74866874D01*
X120569196Y-75000000D01*
X107500000Y-75000000D01*
X107500000Y-73000000D01*
X120569196Y-73000000D01*
X120590281Y-73133126D01*
X120590281Y-73133127D01*
X120590282Y-73133128D01*
X120651467Y-73253213D01*
X120651472Y-73253220D01*
X120746779Y-73348527D01*
X120746786Y-73348532D01*
X120826842Y-73389322D01*
X120866874Y-73409719D01*
X121000000Y-73430804D01*
X121133126Y-73409719D01*
X121216420Y-73367278D01*
X121253213Y-73348532D01*
X121253215Y-73348530D01*
X121253220Y-73348528D01*
X121348528Y-73253220D01*
X121409719Y-73133126D01*
X121430804Y-73000000D01*
X123864417Y-73000000D01*
X123884700Y-73205934D01*
X123944768Y-73403954D01*
X124042315Y-73586450D01*
X124173590Y-73746410D01*
X124333550Y-73877685D01*
X124516046Y-73975232D01*
X124714066Y-74035300D01*
X124920000Y-74055583D01*
X125125934Y-74035300D01*
X125323954Y-73975232D01*
X125506450Y-73877685D01*
X125666410Y-73746410D01*
X125797685Y-73586450D01*
X125895232Y-73403954D01*
X125955300Y-73205934D01*
X125975583Y-73000000D01*
X126404417Y-73000000D01*
X126424700Y-73205934D01*
X126484768Y-73403954D01*
X126582315Y-73586450D01*
X126713590Y-73746410D01*
X126873550Y-73877685D01*
X127056046Y-73975232D01*
X127254066Y-74035300D01*
X127460000Y-74055583D01*
X127665934Y-74035300D01*
X127863954Y-73975232D01*
X128046450Y-73877685D01*
X128206410Y-73746410D01*
X128337685Y-73586450D01*
X128435232Y-73403954D01*
X128495300Y-73205934D01*
X128515583Y-73000000D01*
X128495300Y-72794066D01*
X128435232Y-72596046D01*
X128337685Y-72413550D01*
X128206410Y-72253590D01*
X128046450Y-72122315D01*
X128008752Y-72102165D01*
X128650000Y-72102165D01*
X128650000Y-72750000D01*
X129566988Y-72750000D01*
X129534075Y-72807007D01*
X129500000Y-72934174D01*
X129500000Y-73065826D01*
X129534075Y-73192993D01*
X129566988Y-73250000D01*
X128650000Y-73250000D01*
X128650000Y-73897834D01*
X128656401Y-73957372D01*
X128656401Y-73957373D01*
X128706648Y-74092091D01*
X128792811Y-74207188D01*
X128907908Y-74293351D01*
X129042626Y-74343598D01*
X129102166Y-74350000D01*
X129750000Y-74350000D01*
X129750000Y-73433012D01*
X129807007Y-73465925D01*
X129934174Y-73500000D01*
X130065826Y-73500000D01*
X130192993Y-73465925D01*
X130250000Y-73433012D01*
X130250000Y-74350000D01*
X130897834Y-74350000D01*
X130957372Y-74343598D01*
X130957373Y-74343598D01*
X131092091Y-74293351D01*
X131207188Y-74207188D01*
X131293351Y-74092091D01*
X131343598Y-73957373D01*
X131343598Y-73957372D01*
X131350000Y-73897834D01*
X131350000Y-73250000D01*
X130433012Y-73250000D01*
X130465925Y-73192993D01*
X130500000Y-73065826D01*
X130500000Y-72934174D01*
X130465925Y-72807007D01*
X130433012Y-72750000D01*
X131350000Y-72750000D01*
X131350000Y-72102165D01*
X131343598Y-72042627D01*
X131343598Y-72042626D01*
X131327699Y-72000000D01*
X135069196Y-72000000D01*
X135090281Y-72133126D01*
X135090281Y-72133127D01*
X135090282Y-72133128D01*
X135151467Y-72253213D01*
X135151472Y-72253220D01*
X135246779Y-72348527D01*
X135246786Y-72348532D01*
X135326842Y-72389322D01*
X135366874Y-72409719D01*
X135500000Y-72430804D01*
X135633126Y-72409719D01*
X135716420Y-72367278D01*
X135753213Y-72348532D01*
X135753215Y-72348530D01*
X135753220Y-72348528D01*
X135848528Y-72253220D01*
X135909719Y-72133126D01*
X135930804Y-72000000D01*
X135909719Y-71866874D01*
X135871982Y-71792811D01*
X135848532Y-71746786D01*
X135848527Y-71746779D01*
X135753220Y-71651472D01*
X135753213Y-71651467D01*
X135633128Y-71590282D01*
X135633127Y-71590281D01*
X135633126Y-71590281D01*
X135500000Y-71569196D01*
X135366874Y-71590281D01*
X135366872Y-71590281D01*
X135366871Y-71590282D01*
X135246786Y-71651467D01*
X135246779Y-71651472D01*
X135151472Y-71746779D01*
X135151467Y-71746786D01*
X135090282Y-71866871D01*
X135090281Y-71866872D01*
X135090281Y-71866874D01*
X135069196Y-72000000D01*
X131327699Y-72000000D01*
X131293351Y-71907908D01*
X131207188Y-71792811D01*
X131092091Y-71706648D01*
X130957373Y-71656401D01*
X130897834Y-71650000D01*
X130250000Y-71650000D01*
X130250000Y-72566988D01*
X130192993Y-72534075D01*
X130065826Y-72500000D01*
X129934174Y-72500000D01*
X129807007Y-72534075D01*
X129750000Y-72566988D01*
X129750000Y-71650000D01*
X129102166Y-71650000D01*
X129042627Y-71656401D01*
X129042626Y-71656401D01*
X128907908Y-71706648D01*
X128792811Y-71792811D01*
X128706648Y-71907908D01*
X128656401Y-72042626D01*
X128656401Y-72042627D01*
X128650000Y-72102165D01*
X128008752Y-72102165D01*
X127863954Y-72024768D01*
X127665934Y-71964700D01*
X127460000Y-71944417D01*
X127254065Y-71964700D01*
X127254064Y-71964700D01*
X127056043Y-72024769D01*
X126873548Y-72122316D01*
X126713590Y-72253590D01*
X126582316Y-72413548D01*
X126484769Y-72596043D01*
X126424700Y-72794064D01*
X126424700Y-72794065D01*
X126424700Y-72794066D01*
X126404417Y-73000000D01*
X125975583Y-73000000D01*
X125955300Y-72794066D01*
X125895232Y-72596046D01*
X125797685Y-72413550D01*
X125666410Y-72253590D01*
X125506450Y-72122315D01*
X125323954Y-72024768D01*
X125125934Y-71964700D01*
X124920000Y-71944417D01*
X124714065Y-71964700D01*
X124714064Y-71964700D01*
X124516043Y-72024769D01*
X124333548Y-72122316D01*
X124173590Y-72253590D01*
X124042316Y-72413548D01*
X123944769Y-72596043D01*
X123884700Y-72794064D01*
X123884700Y-72794065D01*
X123884700Y-72794066D01*
X123864417Y-73000000D01*
X121430804Y-73000000D01*
X121409719Y-72866874D01*
X121379215Y-72807007D01*
X121348532Y-72746786D01*
X121348527Y-72746779D01*
X121253220Y-72651472D01*
X121253213Y-72651467D01*
X121133128Y-72590282D01*
X121133127Y-72590281D01*
X121133126Y-72590281D01*
X121000000Y-72569196D01*
X120866874Y-72590281D01*
X120866872Y-72590281D01*
X120866871Y-72590282D01*
X120746786Y-72651467D01*
X120746779Y-72651472D01*
X120651472Y-72746779D01*
X120651467Y-72746786D01*
X120590282Y-72866871D01*
X120590281Y-72866872D01*
X120590281Y-72866874D01*
X120569196Y-73000000D01*
X107500000Y-73000000D01*
X107500000Y-71000000D01*
X111569196Y-71000000D01*
X111590281Y-71133126D01*
X111590281Y-71133127D01*
X111590282Y-71133128D01*
X111651467Y-71253213D01*
X111651472Y-71253220D01*
X111746779Y-71348527D01*
X111746786Y-71348532D01*
X111826842Y-71389322D01*
X111866874Y-71409719D01*
X112000000Y-71430804D01*
X112133126Y-71409719D01*
X112216420Y-71367278D01*
X112253213Y-71348532D01*
X112253215Y-71348530D01*
X112253220Y-71348528D01*
X112348528Y-71253220D01*
X112409719Y-71133126D01*
X112430804Y-71000000D01*
X120569196Y-71000000D01*
X120590281Y-71133126D01*
X120590281Y-71133127D01*
X120590282Y-71133128D01*
X120651467Y-71253213D01*
X120651472Y-71253220D01*
X120746779Y-71348527D01*
X120746786Y-71348532D01*
X120826842Y-71389322D01*
X120866874Y-71409719D01*
X121000000Y-71430804D01*
X121133126Y-71409719D01*
X121216420Y-71367278D01*
X121253213Y-71348532D01*
X121253215Y-71348530D01*
X121253220Y-71348528D01*
X121348528Y-71253220D01*
X121409719Y-71133126D01*
X121430804Y-71000000D01*
X135069196Y-71000000D01*
X135090281Y-71133126D01*
X135090281Y-71133127D01*
X135090282Y-71133128D01*
X135151467Y-71253213D01*
X135151472Y-71253220D01*
X135246779Y-71348527D01*
X135246786Y-71348532D01*
X135326842Y-71389322D01*
X135366874Y-71409719D01*
X135500000Y-71430804D01*
X135633126Y-71409719D01*
X135716420Y-71367278D01*
X135753213Y-71348532D01*
X135753215Y-71348530D01*
X135753220Y-71348528D01*
X135848528Y-71253220D01*
X135909719Y-71133126D01*
X135930804Y-71000000D01*
X135909719Y-70866874D01*
X135889322Y-70826842D01*
X135848532Y-70746786D01*
X135848527Y-70746779D01*
X135753220Y-70651472D01*
X135753213Y-70651467D01*
X135633128Y-70590282D01*
X135633127Y-70590281D01*
X135633126Y-70590281D01*
X135500000Y-70569196D01*
X135366874Y-70590281D01*
X135366872Y-70590281D01*
X135366871Y-70590282D01*
X135246786Y-70651467D01*
X135246779Y-70651472D01*
X135151472Y-70746779D01*
X135151467Y-70746786D01*
X135090282Y-70866871D01*
X135090281Y-70866872D01*
X135090281Y-70866874D01*
X135069196Y-71000000D01*
X121430804Y-71000000D01*
X121409719Y-70866874D01*
X121389322Y-70826842D01*
X121348532Y-70746786D01*
X121348527Y-70746779D01*
X121253220Y-70651472D01*
X121253213Y-70651467D01*
X121133128Y-70590282D01*
X121133127Y-70590281D01*
X121133126Y-70590281D01*
X121000000Y-70569196D01*
X120866874Y-70590281D01*
X120866872Y-70590281D01*
X120866871Y-70590282D01*
X120746786Y-70651467D01*
X120746779Y-70651472D01*
X120651472Y-70746779D01*
X120651467Y-70746786D01*
X120590282Y-70866871D01*
X120590281Y-70866872D01*
X120590281Y-70866874D01*
X120569196Y-71000000D01*
X112430804Y-71000000D01*
X112409719Y-70866874D01*
X112389322Y-70826842D01*
X112348532Y-70746786D01*
X112348527Y-70746779D01*
X112253220Y-70651472D01*
X112253213Y-70651467D01*
X112133128Y-70590282D01*
X112133127Y-70590281D01*
X112133126Y-70590281D01*
X112000000Y-70569196D01*
X111866874Y-70590281D01*
X111866872Y-70590281D01*
X111866871Y-70590282D01*
X111746786Y-70651467D01*
X111746779Y-70651472D01*
X111651472Y-70746779D01*
X111651467Y-70746786D01*
X111590282Y-70866871D01*
X111590281Y-70866872D01*
X111590281Y-70866874D01*
X111569196Y-71000000D01*
X107500000Y-71000000D01*
X107500000Y-70000000D01*
X111569196Y-70000000D01*
X111590281Y-70133126D01*
X111590281Y-70133127D01*
X111590282Y-70133128D01*
X111651467Y-70253213D01*
X111651472Y-70253220D01*
X111746779Y-70348527D01*
X111746786Y-70348532D01*
X111826842Y-70389322D01*
X111866874Y-70409719D01*
X112000000Y-70430804D01*
X112133126Y-70409719D01*
X112216420Y-70367278D01*
X112253213Y-70348532D01*
X112253215Y-70348530D01*
X112253220Y-70348528D01*
X112348528Y-70253220D01*
X112409719Y-70133126D01*
X112430804Y-70000000D01*
X112409719Y-69866874D01*
X112389322Y-69826842D01*
X112348532Y-69746786D01*
X112348527Y-69746779D01*
X112253220Y-69651472D01*
X112253213Y-69651467D01*
X112133128Y-69590282D01*
X112133127Y-69590281D01*
X112133126Y-69590281D01*
X112000000Y-69569196D01*
X111866874Y-69590281D01*
X111866872Y-69590281D01*
X111866871Y-69590282D01*
X111746786Y-69651467D01*
X111746779Y-69651472D01*
X111651472Y-69746779D01*
X111651467Y-69746786D01*
X111590282Y-69866871D01*
X111590281Y-69866872D01*
X111590281Y-69866874D01*
X111569196Y-70000000D01*
X107500000Y-70000000D01*
X107500000Y-69000000D01*
X115569196Y-69000000D01*
X115590281Y-69133126D01*
X115590281Y-69133127D01*
X115590282Y-69133128D01*
X115651467Y-69253213D01*
X115651472Y-69253220D01*
X115746779Y-69348527D01*
X115746786Y-69348532D01*
X115826842Y-69389322D01*
X115866874Y-69409719D01*
X116000000Y-69430804D01*
X116133126Y-69409719D01*
X116216420Y-69367278D01*
X116253213Y-69348532D01*
X116253215Y-69348530D01*
X116253220Y-69348528D01*
X116348528Y-69253220D01*
X116409719Y-69133126D01*
X116430804Y-69000000D01*
X116409719Y-68866874D01*
X116389322Y-68826842D01*
X116348532Y-68746786D01*
X116348527Y-68746779D01*
X116253220Y-68651472D01*
X116253213Y-68651467D01*
X116133128Y-68590282D01*
X116133127Y-68590281D01*
X116133126Y-68590281D01*
X116000000Y-68569196D01*
X115866874Y-68590281D01*
X115866872Y-68590281D01*
X115866871Y-68590282D01*
X115746786Y-68651467D01*
X115746779Y-68651472D01*
X115651472Y-68746779D01*
X115651467Y-68746786D01*
X115590282Y-68866871D01*
X115590281Y-68866872D01*
X115590281Y-68866874D01*
X115569196Y-69000000D01*
X107500000Y-69000000D01*
X107500000Y-68300000D01*
X108000000Y-68300000D01*
X117650000Y-68300000D01*
X117650000Y-67916096D01*
X120069199Y-67916096D01*
X120090284Y-68049222D01*
X120090284Y-68049223D01*
X120090285Y-68049224D01*
X120151470Y-68169309D01*
X120151475Y-68169316D01*
X120246782Y-68264623D01*
X120246789Y-68264628D01*
X120316212Y-68300000D01*
X120366877Y-68325815D01*
X120500003Y-68346900D01*
X120633129Y-68325815D01*
X120716423Y-68283374D01*
X120753216Y-68264628D01*
X120753218Y-68264626D01*
X120753223Y-68264624D01*
X120848531Y-68169316D01*
X120909722Y-68049222D01*
X120930807Y-67916096D01*
X120909722Y-67782970D01*
X120889325Y-67742938D01*
X120848535Y-67662882D01*
X120848530Y-67662875D01*
X120753223Y-67567568D01*
X120753216Y-67567563D01*
X120633131Y-67506378D01*
X120633130Y-67506377D01*
X120633129Y-67506377D01*
X120500003Y-67485292D01*
X120366877Y-67506377D01*
X120366875Y-67506377D01*
X120366874Y-67506378D01*
X120246789Y-67567563D01*
X120246782Y-67567568D01*
X120151475Y-67662875D01*
X120151470Y-67662882D01*
X120090285Y-67782967D01*
X120090284Y-67782968D01*
X120090284Y-67782970D01*
X120069199Y-67916096D01*
X117650000Y-67916096D01*
X117650000Y-66750000D01*
X120319196Y-66750000D01*
X120340281Y-66883126D01*
X120340281Y-66883127D01*
X120340282Y-66883128D01*
X120401467Y-67003213D01*
X120401472Y-67003220D01*
X120496779Y-67098527D01*
X120496786Y-67098532D01*
X120576842Y-67139322D01*
X120616874Y-67159719D01*
X120750000Y-67180804D01*
X120883126Y-67159719D01*
X120966420Y-67117278D01*
X121003213Y-67098532D01*
X121003215Y-67098530D01*
X121003220Y-67098528D01*
X121098528Y-67003220D01*
X121159719Y-66883126D01*
X121180804Y-66750000D01*
X121159719Y-66616874D01*
X121139322Y-66576842D01*
X121098532Y-66496786D01*
X121098527Y-66496779D01*
X121003220Y-66401472D01*
X121003213Y-66401467D01*
X120883128Y-66340282D01*
X120883127Y-66340281D01*
X120883126Y-66340281D01*
X120750000Y-66319196D01*
X120616874Y-66340281D01*
X120616872Y-66340281D01*
X120616871Y-66340282D01*
X120496786Y-66401467D01*
X120496779Y-66401472D01*
X120401472Y-66496779D01*
X120401467Y-66496786D01*
X120340282Y-66616871D01*
X120340281Y-66616872D01*
X120340281Y-66616874D01*
X120319196Y-66750000D01*
X117650000Y-66750000D01*
X117650000Y-66700000D01*
X108000000Y-66700000D01*
X108000000Y-68300000D01*
X107500000Y-68300000D01*
X107500000Y-66000000D01*
X135069196Y-66000000D01*
X135090281Y-66133126D01*
X135090281Y-66133127D01*
X135090282Y-66133128D01*
X135151467Y-66253213D01*
X135151472Y-66253220D01*
X135246779Y-66348527D01*
X135246786Y-66348532D01*
X135326842Y-66389322D01*
X135366874Y-66409719D01*
X135500000Y-66430804D01*
X135633126Y-66409719D01*
X135716420Y-66367278D01*
X135753213Y-66348532D01*
X135753215Y-66348530D01*
X135753220Y-66348528D01*
X135848528Y-66253220D01*
X135909719Y-66133126D01*
X135930804Y-66000000D01*
X135909719Y-65866874D01*
X135889322Y-65826842D01*
X135848532Y-65746786D01*
X135848527Y-65746779D01*
X135753220Y-65651472D01*
X135753213Y-65651467D01*
X135633128Y-65590282D01*
X135633127Y-65590281D01*
X135633126Y-65590281D01*
X135500000Y-65569196D01*
X135366874Y-65590281D01*
X135366872Y-65590281D01*
X135366871Y-65590282D01*
X135246786Y-65651467D01*
X135246779Y-65651472D01*
X135151472Y-65746779D01*
X135151467Y-65746786D01*
X135090282Y-65866871D01*
X135090281Y-65866872D01*
X135090281Y-65866874D01*
X135069196Y-66000000D01*
X107500000Y-66000000D01*
X107500000Y-65000000D01*
X111569196Y-65000000D01*
X111590281Y-65133126D01*
X111590281Y-65133127D01*
X111590282Y-65133128D01*
X111651467Y-65253213D01*
X111651472Y-65253220D01*
X111746779Y-65348527D01*
X111746786Y-65348532D01*
X111826842Y-65389322D01*
X111866874Y-65409719D01*
X112000000Y-65430804D01*
X112133126Y-65409719D01*
X112216420Y-65367278D01*
X112253213Y-65348532D01*
X112253215Y-65348530D01*
X112253220Y-65348528D01*
X112348528Y-65253220D01*
X112409719Y-65133126D01*
X112430804Y-65000000D01*
X135069196Y-65000000D01*
X135090281Y-65133126D01*
X135090281Y-65133127D01*
X135090282Y-65133128D01*
X135151467Y-65253213D01*
X135151472Y-65253220D01*
X135246779Y-65348527D01*
X135246786Y-65348532D01*
X135326842Y-65389322D01*
X135366874Y-65409719D01*
X135500000Y-65430804D01*
X135633126Y-65409719D01*
X135716420Y-65367278D01*
X135753213Y-65348532D01*
X135753215Y-65348530D01*
X135753220Y-65348528D01*
X135848528Y-65253220D01*
X135909719Y-65133126D01*
X135930804Y-65000000D01*
X135909719Y-64866874D01*
X135889322Y-64826842D01*
X135848532Y-64746786D01*
X135848527Y-64746779D01*
X135753220Y-64651472D01*
X135753213Y-64651467D01*
X135633128Y-64590282D01*
X135633127Y-64590281D01*
X135633126Y-64590281D01*
X135500000Y-64569196D01*
X135366874Y-64590281D01*
X135366872Y-64590281D01*
X135366871Y-64590282D01*
X135246786Y-64651467D01*
X135246779Y-64651472D01*
X135151472Y-64746779D01*
X135151467Y-64746786D01*
X135090282Y-64866871D01*
X135090281Y-64866872D01*
X135090281Y-64866874D01*
X135069196Y-65000000D01*
X112430804Y-65000000D01*
X112409719Y-64866874D01*
X112389322Y-64826842D01*
X112348532Y-64746786D01*
X112348527Y-64746779D01*
X112253220Y-64651472D01*
X112253213Y-64651467D01*
X112133128Y-64590282D01*
X112133127Y-64590281D01*
X112133126Y-64590281D01*
X112000000Y-64569196D01*
X111866874Y-64590281D01*
X111866872Y-64590281D01*
X111866871Y-64590282D01*
X111746786Y-64651467D01*
X111746779Y-64651472D01*
X111651472Y-64746779D01*
X111651467Y-64746786D01*
X111590282Y-64866871D01*
X111590281Y-64866872D01*
X111590281Y-64866874D01*
X111569196Y-65000000D01*
X107500000Y-65000000D01*
X107500000Y-64000000D01*
X111569196Y-64000000D01*
X111590281Y-64133126D01*
X111590281Y-64133127D01*
X111590282Y-64133128D01*
X111651467Y-64253213D01*
X111651472Y-64253220D01*
X111746779Y-64348527D01*
X111746786Y-64348532D01*
X111826842Y-64389322D01*
X111866874Y-64409719D01*
X112000000Y-64430804D01*
X112133126Y-64409719D01*
X112216420Y-64367278D01*
X112253213Y-64348532D01*
X112253215Y-64348530D01*
X112253220Y-64348528D01*
X112348528Y-64253220D01*
X112409719Y-64133126D01*
X112430804Y-64000000D01*
X112409719Y-63866874D01*
X112389322Y-63826842D01*
X112348532Y-63746786D01*
X112348527Y-63746779D01*
X112253220Y-63651472D01*
X112253213Y-63651467D01*
X112133128Y-63590282D01*
X112133127Y-63590281D01*
X112133126Y-63590281D01*
X112000000Y-63569196D01*
X111866874Y-63590281D01*
X111866872Y-63590281D01*
X111866871Y-63590282D01*
X111746786Y-63651467D01*
X111746779Y-63651472D01*
X111651472Y-63746779D01*
X111651467Y-63746786D01*
X111590282Y-63866871D01*
X111590281Y-63866872D01*
X111590281Y-63866874D01*
X111569196Y-64000000D01*
X107500000Y-64000000D01*
X107500000Y-57834907D01*
X107514352Y-57800259D01*
X107549000Y-57785907D01*
X107583648Y-57800259D01*
X107596330Y-57822225D01*
X107666254Y-58083186D01*
X107666256Y-58083192D01*
X107666258Y-58083199D01*
X107750612Y-58302952D01*
X107797745Y-58425737D01*
X107819875Y-58469169D01*
X107963221Y-58750500D01*
X107964317Y-58752650D01*
X108164151Y-59060370D01*
X108164153Y-59060372D01*
X108395047Y-59345501D01*
X108395060Y-59345516D01*
X108654483Y-59604939D01*
X108654490Y-59604945D01*
X108654494Y-59604949D01*
X108654498Y-59604952D01*
X108939627Y-59835846D01*
X108939629Y-59835848D01*
X108939634Y-59835851D01*
X109247348Y-60035682D01*
X109574264Y-60202255D01*
X109916801Y-60333742D01*
X110271206Y-60428705D01*
X110633596Y-60486102D01*
X111000000Y-60505304D01*
X111366404Y-60486102D01*
X111728794Y-60428705D01*
X112083199Y-60333742D01*
X112425736Y-60202255D01*
X112752652Y-60035682D01*
X113060366Y-59835851D01*
X113345506Y-59604949D01*
X113604949Y-59345506D01*
X113835851Y-59060366D01*
X114035682Y-58752652D01*
X114202255Y-58425736D01*
X114333742Y-58083199D01*
X114428705Y-57728794D01*
X114486102Y-57366404D01*
X114505304Y-57000000D01*
X114486102Y-56633596D01*
X114428705Y-56271206D01*
X114333742Y-55916801D01*
X114202255Y-55574264D01*
X114035682Y-55247348D01*
X113835851Y-54939634D01*
X113835848Y-54939629D01*
X113835846Y-54939627D01*
X113604952Y-54654498D01*
X113604939Y-54654483D01*
X113345516Y-54395060D01*
X113345501Y-54395047D01*
X113060372Y-54164153D01*
X113060370Y-54164151D01*
X112752650Y-53964317D01*
X112425737Y-53797745D01*
X112302952Y-53750612D01*
X112083199Y-53666258D01*
X112083192Y-53666256D01*
X112083186Y-53666254D01*
X111822226Y-53596330D01*
X111792473Y-53573500D01*
X111787578Y-53536318D01*
X111810408Y-53506565D01*
X111834908Y-53500000D01*
X136165092Y-53500000D01*
X136199740Y-53514352D01*
G37*
%TD.AperFunction*%
%TD*%
M02*
