%TF.GenerationSoftware,KiCad,Pcbnew,8.0.2*%
%TF.CreationDate,2025-01-11T01:09:32-03:00*%
%TF.ProjectId,LMH34400,4c4d4833-3434-4303-902e-6b696361645f,rev?*%
%TF.SameCoordinates,Original*%
%TF.FileFunction,Legend,Top*%
%TF.FilePolarity,Positive*%
%FSLAX46Y46*%
G04 Gerber Fmt 4.6, Leading zero omitted, Abs format (unit mm)*
G04 Created by KiCad (PCBNEW 8.0.2) date 2025-01-11 01:09:32*
%MOMM*%
%LPD*%
G01*
G04 APERTURE LIST*
%ADD10C,0.187500*%
%ADD11C,0.125000*%
%ADD12C,0.200000*%
%ADD13C,0.153000*%
%ADD14C,0.150000*%
%ADD15C,0.120000*%
%ADD16C,0.152400*%
%ADD17C,0.177800*%
G04 APERTURE END LIST*
D10*
G36*
X117804554Y-91223435D02*
G01*
X115949709Y-91223435D01*
X115949709Y-91015368D01*
X116131763Y-91015368D01*
X116330333Y-91056768D01*
X116330333Y-90644412D01*
X117622500Y-90913153D01*
X117622500Y-90708355D01*
X116330333Y-90439614D01*
X116330333Y-90027650D01*
X116131763Y-89986251D01*
X116131763Y-91015368D01*
X115949709Y-91015368D01*
X115949709Y-89557971D01*
X116131763Y-89557971D01*
X116131763Y-89762403D01*
X117622500Y-90072347D01*
X117622500Y-89973062D01*
X117622500Y-89135553D01*
X117423564Y-89094154D01*
X117423564Y-89826553D01*
X116981728Y-89734690D01*
X116981728Y-89112472D01*
X116782793Y-89071073D01*
X116782793Y-89693328D01*
X116330333Y-89599256D01*
X116330333Y-88867008D01*
X116131763Y-88825609D01*
X116131763Y-89557971D01*
X115949709Y-89557971D01*
X115949709Y-88008250D01*
X116116376Y-88008250D01*
X116116822Y-88038730D01*
X116123520Y-88126082D01*
X116138255Y-88207304D01*
X116161027Y-88282394D01*
X116191836Y-88351353D01*
X116230682Y-88414182D01*
X116276844Y-88469862D01*
X116339034Y-88524502D01*
X116410200Y-88568026D01*
X116478344Y-88596487D01*
X116553082Y-88616781D01*
X116554181Y-88617148D01*
X116608593Y-88626449D01*
X116684037Y-88630723D01*
X116762276Y-88617881D01*
X116827202Y-88585160D01*
X116881711Y-88529587D01*
X116884277Y-88525722D01*
X116919597Y-88459124D01*
X116942894Y-88388537D01*
X116945301Y-88378555D01*
X116962077Y-88303781D01*
X116976599Y-88229168D01*
X116977500Y-88224054D01*
X116992811Y-88150858D01*
X117012869Y-88080058D01*
X117032653Y-88034308D01*
X117080280Y-87978209D01*
X117135327Y-87956501D01*
X117210340Y-87960989D01*
X117211439Y-87961356D01*
X117268671Y-87980070D01*
X117333260Y-88024137D01*
X117380699Y-88083721D01*
X117398114Y-88116302D01*
X117424089Y-88190105D01*
X117437371Y-88266377D01*
X117441149Y-88342008D01*
X117438222Y-88406160D01*
X117426695Y-88479137D01*
X117404146Y-88551935D01*
X117386205Y-88591170D01*
X117343582Y-88657894D01*
X117293504Y-88712403D01*
X117453239Y-88873236D01*
X117464599Y-88862117D01*
X117512845Y-88806819D01*
X117555821Y-88741345D01*
X117565759Y-88722775D01*
X117595492Y-88653813D01*
X117617370Y-88578680D01*
X117625365Y-88538764D01*
X117635002Y-88460355D01*
X117637887Y-88383041D01*
X117636895Y-88336032D01*
X117630834Y-88261248D01*
X117616288Y-88177386D01*
X117593809Y-88099939D01*
X117563395Y-88028906D01*
X117525047Y-87964287D01*
X117479460Y-87907125D01*
X117418006Y-87851181D01*
X117347646Y-87806807D01*
X117280249Y-87777982D01*
X117206310Y-87757657D01*
X117204112Y-87757291D01*
X117159985Y-87749426D01*
X117081468Y-87744205D01*
X117006275Y-87755825D01*
X116942261Y-87785396D01*
X116886840Y-87836426D01*
X116848372Y-87897608D01*
X116820162Y-87968317D01*
X116817302Y-87977755D01*
X116797499Y-88048815D01*
X116780594Y-88120358D01*
X116777137Y-88136260D01*
X116760408Y-88207747D01*
X116741393Y-88279360D01*
X116720380Y-88333271D01*
X116676181Y-88391834D01*
X116621959Y-88416563D01*
X116547953Y-88413083D01*
X116546854Y-88413083D01*
X116488028Y-88394214D01*
X116422125Y-88351383D01*
X116374296Y-88294381D01*
X116363362Y-88275979D01*
X116334683Y-88207801D01*
X116317953Y-88129104D01*
X116313114Y-88049283D01*
X116313234Y-88038870D01*
X116321799Y-87962599D01*
X116343888Y-87889548D01*
X116354301Y-87865887D01*
X116391928Y-87801252D01*
X116438044Y-87743369D01*
X116272081Y-87592793D01*
X116226629Y-87650131D01*
X116185888Y-87716590D01*
X116154844Y-87786600D01*
X116134558Y-87852953D01*
X116120922Y-87929000D01*
X116116376Y-88008250D01*
X115949709Y-88008250D01*
X115949709Y-87416206D01*
X116131763Y-87416206D01*
X116330333Y-87457605D01*
X116330333Y-87045249D01*
X117622500Y-87313990D01*
X117622500Y-87109193D01*
X116330333Y-86840451D01*
X116330333Y-86428488D01*
X116131763Y-86387089D01*
X116131763Y-87416206D01*
X115949709Y-87416206D01*
X115949709Y-86220422D01*
X117804554Y-86220422D01*
X117804554Y-91223435D01*
G37*
D11*
G36*
X108079274Y-73415000D02*
G01*
X108104432Y-73294099D01*
X108539428Y-72831992D01*
X108571954Y-72794132D01*
X108600614Y-72752565D01*
X108602198Y-72749926D01*
X108624224Y-72706150D01*
X108635415Y-72669815D01*
X108635660Y-72668593D01*
X108638590Y-72618626D01*
X108620761Y-72576270D01*
X108578901Y-72549608D01*
X108530635Y-72543297D01*
X108482009Y-72550169D01*
X108435823Y-72572784D01*
X108427321Y-72579200D01*
X108392726Y-72616320D01*
X108368304Y-72661001D01*
X108360886Y-72680806D01*
X108360642Y-72681538D01*
X108219714Y-72681538D01*
X108219958Y-72680806D01*
X108238248Y-72634664D01*
X108263449Y-72585976D01*
X108292811Y-72542827D01*
X108326334Y-72505219D01*
X108352826Y-72481748D01*
X108398744Y-72450759D01*
X108448081Y-72428625D01*
X108500838Y-72415344D01*
X108549805Y-72410986D01*
X108557014Y-72410917D01*
X108610866Y-72414155D01*
X108663767Y-72425783D01*
X108712260Y-72448973D01*
X108745569Y-72478572D01*
X108771267Y-72521053D01*
X108783788Y-72572382D01*
X108783857Y-72625436D01*
X108777076Y-72669815D01*
X108777076Y-72670547D01*
X108763158Y-72717691D01*
X108742532Y-72763225D01*
X108732624Y-72781189D01*
X108705364Y-72823699D01*
X108673777Y-72864766D01*
X108650314Y-72891343D01*
X108287614Y-73282376D01*
X108655199Y-73282376D01*
X108627600Y-73415000D01*
X108079274Y-73415000D01*
G37*
G36*
X108800279Y-73415000D02*
G01*
X108830810Y-73268698D01*
X108973936Y-73268698D01*
X108943406Y-73415000D01*
X108800279Y-73415000D01*
G37*
G36*
X109402826Y-73425258D02*
G01*
X109350696Y-73421182D01*
X109299968Y-73406853D01*
X109257625Y-73382207D01*
X109234055Y-73360045D01*
X109206751Y-73318994D01*
X109189687Y-73269481D01*
X109183116Y-73218366D01*
X109183496Y-73175642D01*
X109183496Y-73175153D01*
X109319784Y-73175153D01*
X109319784Y-73175642D01*
X109324058Y-73224307D01*
X109344697Y-73260882D01*
X109389027Y-73286170D01*
X109430670Y-73291168D01*
X109480468Y-73283792D01*
X109526523Y-73259348D01*
X109541068Y-73246472D01*
X109571007Y-73207798D01*
X109591511Y-73163294D01*
X109603350Y-73120443D01*
X109620691Y-73036912D01*
X109627140Y-72985353D01*
X109621515Y-72935658D01*
X109610921Y-72911127D01*
X109574773Y-72877787D01*
X109527116Y-72866848D01*
X109519086Y-72866674D01*
X109469582Y-72876372D01*
X109446546Y-72887191D01*
X109406369Y-72915449D01*
X109376937Y-72944588D01*
X109252617Y-72944588D01*
X109361549Y-72421175D01*
X109857118Y-72421175D01*
X109829519Y-72553555D01*
X109470238Y-72553555D01*
X109423831Y-72777281D01*
X109466871Y-72752682D01*
X109487579Y-72744553D01*
X109535751Y-72733757D01*
X109554257Y-72732829D01*
X109606364Y-72736639D01*
X109657186Y-72750325D01*
X109703230Y-72777617D01*
X109734264Y-72812452D01*
X109757508Y-72862399D01*
X109767140Y-72915457D01*
X109767054Y-72968569D01*
X109760654Y-73019062D01*
X109757223Y-73036912D01*
X109739882Y-73120443D01*
X109726489Y-73172713D01*
X109709027Y-73220346D01*
X109683510Y-73270057D01*
X109652453Y-73313457D01*
X109621424Y-73345635D01*
X109580827Y-73376660D01*
X109536186Y-73400064D01*
X109487501Y-73415849D01*
X109434773Y-73424014D01*
X109402826Y-73425258D01*
G37*
G36*
X110132380Y-73415000D02*
G01*
X110021982Y-72421175D01*
X110170482Y-72421175D01*
X110241801Y-73200310D01*
X110637230Y-72421175D01*
X110785485Y-72421175D01*
X110262073Y-73415000D01*
X110132380Y-73415000D01*
G37*
G36*
X111056839Y-73415000D02*
G01*
X111263468Y-72421175D01*
X111400000Y-72421175D01*
X111193371Y-73415000D01*
X111056839Y-73415000D01*
G37*
G36*
X110880007Y-73427212D02*
G01*
X110826747Y-73422495D01*
X110777011Y-73405912D01*
X110734392Y-73373483D01*
X110718074Y-73351741D01*
X110697666Y-73304381D01*
X110689549Y-73254044D01*
X110690185Y-73203638D01*
X110698044Y-73147295D01*
X110699756Y-73138761D01*
X110732240Y-72982201D01*
X110744740Y-72932650D01*
X110763598Y-72880398D01*
X110787061Y-72834129D01*
X110815130Y-72793844D01*
X110837997Y-72768733D01*
X110878603Y-72735607D01*
X110923482Y-72711946D01*
X110972636Y-72697750D01*
X111026064Y-72693018D01*
X111076434Y-72699329D01*
X111123138Y-72720098D01*
X111131577Y-72725990D01*
X111167670Y-72762577D01*
X111191285Y-72807376D01*
X111195080Y-72818314D01*
X111150873Y-72963150D01*
X111155350Y-72914143D01*
X111150873Y-72885969D01*
X111124020Y-72843899D01*
X111114480Y-72837121D01*
X111067279Y-72821601D01*
X111044138Y-72820268D01*
X110992756Y-72827403D01*
X110948549Y-72848807D01*
X110930565Y-72863499D01*
X110898175Y-72904190D01*
X110877006Y-72951984D01*
X110868528Y-72984399D01*
X110836288Y-73138761D01*
X110830458Y-73187806D01*
X110838232Y-73238122D01*
X110848500Y-73258196D01*
X110886663Y-73289703D01*
X110936184Y-73300041D01*
X110944487Y-73300205D01*
X110995110Y-73293431D01*
X111021912Y-73282864D01*
X111061633Y-73253262D01*
X111078577Y-73232550D01*
X111101104Y-73188917D01*
X111111061Y-73153904D01*
X111089323Y-73303625D01*
X111059504Y-73343596D01*
X111023191Y-73377279D01*
X111007014Y-73389354D01*
X110960130Y-73413865D01*
X110911129Y-73425400D01*
X110880007Y-73427212D01*
G37*
G36*
X111694801Y-73425258D02*
G01*
X111643988Y-73422424D01*
X111591934Y-73411956D01*
X111541975Y-73390546D01*
X111502183Y-73359062D01*
X111489882Y-73344658D01*
X111464755Y-73300114D01*
X111451169Y-73247327D01*
X111448748Y-73194376D01*
X111453706Y-73143967D01*
X111458619Y-73117023D01*
X111482799Y-73000031D01*
X111496440Y-72947761D01*
X111514649Y-72900128D01*
X111541667Y-72850416D01*
X111574903Y-72807016D01*
X111608339Y-72774839D01*
X111652304Y-72743814D01*
X111700850Y-72720409D01*
X111753978Y-72704624D01*
X111803162Y-72697160D01*
X111846720Y-72695216D01*
X111900039Y-72698708D01*
X111948163Y-72709184D01*
X111987404Y-72724769D01*
X112030505Y-72752735D01*
X112065019Y-72792138D01*
X112074355Y-72808545D01*
X111957118Y-72898914D01*
X111924508Y-72862373D01*
X111899721Y-72846402D01*
X111852304Y-72830450D01*
X111820831Y-72827840D01*
X111769792Y-72833179D01*
X111721025Y-72851182D01*
X111689184Y-72873025D01*
X111654631Y-72911951D01*
X111631768Y-72956806D01*
X111619330Y-73000031D01*
X111595150Y-73117023D01*
X111589192Y-73165815D01*
X111595329Y-73214541D01*
X111611515Y-73246960D01*
X111649776Y-73278182D01*
X111700625Y-73291519D01*
X111724111Y-73292634D01*
X111773020Y-73286374D01*
X111811061Y-73272850D01*
X111855445Y-73247143D01*
X111891173Y-73216674D01*
X111969330Y-73313883D01*
X111932449Y-73347632D01*
X111890315Y-73375666D01*
X111847453Y-73396193D01*
X111796908Y-73412740D01*
X111744342Y-73422419D01*
X111694801Y-73425258D01*
G37*
D10*
G36*
X109706936Y-61330957D02*
G01*
X109779945Y-61350392D01*
X109835136Y-61401407D01*
X109853798Y-61439647D01*
X109865272Y-61514092D01*
X109856752Y-61588986D01*
X109841616Y-61643574D01*
X109806806Y-61715153D01*
X109757467Y-61774366D01*
X109728289Y-61798396D01*
X109659062Y-61833405D01*
X109581612Y-61845075D01*
X109214585Y-61845075D01*
X109321608Y-61330333D01*
X109688590Y-61330333D01*
X109706936Y-61330957D01*
G37*
G36*
X110891789Y-61330668D02*
G01*
X110972331Y-61340463D01*
X111045032Y-61367253D01*
X111104588Y-61416062D01*
X111117007Y-61432751D01*
X111147004Y-61504469D01*
X111153086Y-61584017D01*
X111143423Y-61657496D01*
X111052198Y-62096400D01*
X111040202Y-62143455D01*
X111009502Y-62219499D01*
X110967095Y-62284414D01*
X110912980Y-62338201D01*
X110871068Y-62367211D01*
X110800956Y-62399472D01*
X110722150Y-62418229D01*
X110644801Y-62423564D01*
X110380981Y-62423564D01*
X110608279Y-61330333D01*
X110871947Y-61330333D01*
X110891789Y-61330668D01*
G37*
G36*
X111533687Y-62789167D02*
G01*
X108681850Y-62789167D01*
X108681850Y-62622500D01*
X108848517Y-62622500D01*
X109052948Y-62622500D01*
X110135188Y-62622500D01*
X110273674Y-62622500D01*
X110596441Y-62622500D01*
X110607439Y-62622438D01*
X110682285Y-62618561D01*
X110763228Y-62606746D01*
X110839272Y-62587054D01*
X110910415Y-62559485D01*
X110968386Y-62529216D01*
X111029013Y-62488012D01*
X111090048Y-62433227D01*
X111137927Y-62377035D01*
X111143507Y-62369522D01*
X111184276Y-62305912D01*
X111218176Y-62236074D01*
X111245207Y-62160008D01*
X111263224Y-62088340D01*
X111351151Y-61665922D01*
X111354284Y-61650143D01*
X111365010Y-61574595D01*
X111367020Y-61491304D01*
X111357179Y-61416051D01*
X111330722Y-61338413D01*
X111288137Y-61271714D01*
X111280755Y-61263104D01*
X111220932Y-61210486D01*
X111146838Y-61171261D01*
X111071971Y-61148300D01*
X110986619Y-61135180D01*
X110907484Y-61131763D01*
X110649564Y-61131763D01*
X110445133Y-61131763D01*
X110176550Y-62423564D01*
X110135188Y-62622500D01*
X109052948Y-62622500D01*
X109173224Y-62044010D01*
X109533618Y-62044010D01*
X109550019Y-62043791D01*
X109629445Y-62036128D01*
X109704579Y-62017516D01*
X109775419Y-61987957D01*
X109789070Y-61980724D01*
X109853334Y-61939150D01*
X109910943Y-61888560D01*
X109961898Y-61828954D01*
X109980199Y-61802765D01*
X110019390Y-61732533D01*
X110046647Y-61663513D01*
X110066312Y-61588986D01*
X110069685Y-61571815D01*
X110078807Y-61498020D01*
X110077319Y-61422686D01*
X110061549Y-61347918D01*
X110041559Y-61299489D01*
X109999124Y-61237580D01*
X109941748Y-61188550D01*
X109876937Y-61156219D01*
X109801390Y-61137309D01*
X109723395Y-61131763D01*
X109362893Y-61131763D01*
X109158461Y-61131763D01*
X109010154Y-61845075D01*
X108848517Y-62622500D01*
X108681850Y-62622500D01*
X108681850Y-60965096D01*
X111533687Y-60965096D01*
X111533687Y-62789167D01*
G37*
G36*
X132661106Y-62331253D02*
G01*
X132730907Y-62361875D01*
X132783391Y-62414230D01*
X132790986Y-62425918D01*
X132819405Y-62498745D01*
X132825630Y-62577499D01*
X132815265Y-62658595D01*
X132724407Y-63095301D01*
X132712834Y-63141356D01*
X132683304Y-63216907D01*
X132642587Y-63283010D01*
X132590684Y-63339666D01*
X132571278Y-63356100D01*
X132502127Y-63399205D01*
X132426106Y-63424350D01*
X132351814Y-63431624D01*
X132273489Y-63422643D01*
X132203696Y-63392021D01*
X132151047Y-63339666D01*
X132143450Y-63327893D01*
X132114973Y-63254797D01*
X132108618Y-63176101D01*
X132118806Y-63095301D01*
X132209665Y-62658595D01*
X132221343Y-62612347D01*
X132251018Y-62536629D01*
X132291822Y-62470590D01*
X132343754Y-62414230D01*
X132363222Y-62397796D01*
X132432488Y-62354691D01*
X132508480Y-62329547D01*
X132582624Y-62322273D01*
X132661106Y-62331253D01*
G37*
G36*
X135825285Y-63804554D02*
G01*
X131727976Y-63804554D01*
X131727976Y-63224813D01*
X131894643Y-63224813D01*
X131898829Y-63304324D01*
X131914375Y-63377402D01*
X131919340Y-63392708D01*
X131951590Y-63462667D01*
X131996219Y-63521679D01*
X132053227Y-63569743D01*
X132086132Y-63589374D01*
X132159777Y-63618655D01*
X132234990Y-63633628D01*
X132308950Y-63637887D01*
X132365926Y-63635491D01*
X132439211Y-63624844D01*
X132517988Y-63602684D01*
X132592882Y-63569743D01*
X132647694Y-63537248D01*
X132712500Y-63487586D01*
X132764753Y-63435997D01*
X132811968Y-63377402D01*
X132853207Y-63312761D01*
X132876816Y-63264802D01*
X133217310Y-63264802D01*
X133224587Y-63343001D01*
X133247174Y-63423619D01*
X133284944Y-63492807D01*
X133328745Y-63542111D01*
X133392282Y-63586740D01*
X133469214Y-63617485D01*
X133545815Y-63632786D01*
X133632257Y-63637887D01*
X133662535Y-63637320D01*
X133749608Y-63628819D01*
X133831040Y-63610118D01*
X133906830Y-63581215D01*
X133976979Y-63542111D01*
X134041486Y-63492807D01*
X134090323Y-63444553D01*
X134141843Y-63378951D01*
X134185635Y-63304951D01*
X134216225Y-63236870D01*
X134241448Y-63162956D01*
X134261305Y-63083211D01*
X134417852Y-62330333D01*
X134588102Y-62330333D01*
X135000457Y-62330333D01*
X134731716Y-63622500D01*
X134936514Y-63622500D01*
X135205254Y-62330333D01*
X135617219Y-62330333D01*
X135658618Y-62131763D01*
X134629501Y-62131763D01*
X134588102Y-62330333D01*
X134417852Y-62330333D01*
X134459141Y-62131763D01*
X134254344Y-62131763D01*
X134055042Y-63090172D01*
X134040097Y-63148720D01*
X134012997Y-63218730D01*
X133972712Y-63286489D01*
X133922051Y-63342597D01*
X133896475Y-63363463D01*
X133825921Y-63403455D01*
X133754347Y-63424582D01*
X133675122Y-63431624D01*
X133599590Y-63424582D01*
X133525456Y-63396848D01*
X133467393Y-63342597D01*
X133453494Y-63319098D01*
X133430621Y-63242611D01*
X133428650Y-63167086D01*
X133439550Y-63090172D01*
X133638852Y-62131763D01*
X133434054Y-62131763D01*
X133236218Y-63083211D01*
X133232938Y-63099627D01*
X133221187Y-63178206D01*
X133217310Y-63264802D01*
X132876816Y-63264802D01*
X132887530Y-63243038D01*
X132914939Y-63168231D01*
X132935432Y-63088340D01*
X133023360Y-62665922D01*
X133033724Y-62605056D01*
X133039609Y-62528589D01*
X133035391Y-62448968D01*
X133019696Y-62376128D01*
X133014732Y-62360911D01*
X132982482Y-62291309D01*
X132937852Y-62232512D01*
X132880844Y-62184520D01*
X132847948Y-62164888D01*
X132774375Y-62135608D01*
X132699288Y-62120635D01*
X132625488Y-62116376D01*
X132568387Y-62118772D01*
X132494977Y-62129419D01*
X132416113Y-62151579D01*
X132341190Y-62184520D01*
X132293972Y-62212019D01*
X132228457Y-62260560D01*
X132169319Y-62317853D01*
X132122104Y-62376128D01*
X132081002Y-62440540D01*
X132046724Y-62510309D01*
X132019270Y-62585437D01*
X131998639Y-62665922D01*
X131910712Y-63088340D01*
X131900459Y-63148735D01*
X131898367Y-63176101D01*
X131894643Y-63224813D01*
X131727976Y-63224813D01*
X131727976Y-61949709D01*
X135825285Y-61949709D01*
X135825285Y-63804554D01*
G37*
G36*
X139383817Y-80304554D02*
G01*
X136058386Y-80304554D01*
X136058386Y-78631763D01*
X136225053Y-78631763D01*
X136390649Y-80122500D01*
X136585189Y-80122500D01*
X136759481Y-79791565D01*
X137233869Y-79791565D01*
X137237500Y-79870990D01*
X137257879Y-79950171D01*
X137295569Y-80016987D01*
X137314021Y-80038593D01*
X137373709Y-80085819D01*
X137448648Y-80117934D01*
X137526729Y-80133636D01*
X137602949Y-80137887D01*
X137677259Y-80133629D01*
X137756108Y-80119111D01*
X137831926Y-80094289D01*
X137896219Y-80063499D01*
X137959420Y-80021448D01*
X138014742Y-79970825D01*
X137897505Y-79825012D01*
X137843914Y-79870714D01*
X137777338Y-79909275D01*
X137720277Y-79929561D01*
X137646912Y-79938951D01*
X137611684Y-79937278D01*
X137535410Y-79917274D01*
X137478018Y-79870441D01*
X137453740Y-79821812D01*
X137449931Y-79791565D01*
X138278740Y-79791565D01*
X138282371Y-79870990D01*
X138302750Y-79950171D01*
X138340440Y-80016987D01*
X138358892Y-80038593D01*
X138418580Y-80085819D01*
X138493519Y-80117934D01*
X138571600Y-80133636D01*
X138647819Y-80137887D01*
X138722130Y-80133629D01*
X138800979Y-80119111D01*
X138876797Y-80094289D01*
X138941090Y-80063499D01*
X139004291Y-80021448D01*
X139059613Y-79970825D01*
X138942376Y-79825012D01*
X138888785Y-79870714D01*
X138822209Y-79909275D01*
X138765148Y-79929561D01*
X138691783Y-79938951D01*
X138656555Y-79937278D01*
X138580281Y-79917274D01*
X138522889Y-79870441D01*
X138498610Y-79821812D01*
X138489406Y-79748722D01*
X138498343Y-79675535D01*
X138534613Y-79500047D01*
X138553270Y-79435209D01*
X138587564Y-79367926D01*
X138639393Y-79309537D01*
X138687155Y-79276774D01*
X138760305Y-79249769D01*
X138836863Y-79241760D01*
X138884073Y-79245675D01*
X138955199Y-79269603D01*
X138992379Y-79293560D01*
X139041295Y-79348372D01*
X139217150Y-79212817D01*
X139203146Y-79188207D01*
X139151374Y-79129102D01*
X139086724Y-79087154D01*
X139027862Y-79063777D01*
X138955676Y-79048062D01*
X138875698Y-79042824D01*
X138810361Y-79045740D01*
X138736584Y-79056937D01*
X138656893Y-79080614D01*
X138584074Y-79115721D01*
X138518127Y-79162259D01*
X138467972Y-79210524D01*
X138418118Y-79275625D01*
X138377591Y-79350192D01*
X138350277Y-79421642D01*
X138329815Y-79500047D01*
X138293545Y-79675535D01*
X138286176Y-79715950D01*
X138278740Y-79791565D01*
X137449931Y-79791565D01*
X137444535Y-79748722D01*
X137453472Y-79675535D01*
X137489742Y-79500047D01*
X137508399Y-79435209D01*
X137542693Y-79367926D01*
X137594522Y-79309537D01*
X137642284Y-79276774D01*
X137715434Y-79249769D01*
X137791993Y-79241760D01*
X137839202Y-79245675D01*
X137910328Y-79269603D01*
X137947508Y-79293560D01*
X137996424Y-79348372D01*
X138172279Y-79212817D01*
X138158275Y-79188207D01*
X138106503Y-79129102D01*
X138041853Y-79087154D01*
X137982991Y-79063777D01*
X137910805Y-79048062D01*
X137830827Y-79042824D01*
X137765490Y-79045740D01*
X137691713Y-79056937D01*
X137612022Y-79080614D01*
X137539203Y-79115721D01*
X137473256Y-79162259D01*
X137423101Y-79210524D01*
X137373247Y-79275625D01*
X137332721Y-79350192D01*
X137305406Y-79421642D01*
X137284944Y-79500047D01*
X137248674Y-79675535D01*
X137241305Y-79715950D01*
X137233869Y-79791565D01*
X136759481Y-79791565D01*
X137370307Y-78631763D01*
X137147924Y-78631763D01*
X136554780Y-79800465D01*
X136447802Y-78631763D01*
X136225053Y-78631763D01*
X136058386Y-78631763D01*
X136058386Y-78465096D01*
X139383817Y-78465096D01*
X139383817Y-80304554D01*
G37*
D12*
G36*
X126323238Y-79359347D02*
G01*
X126169365Y-79147344D01*
X126284892Y-79063813D01*
X126438765Y-79275083D01*
X126323238Y-79359347D01*
G37*
G36*
X126131263Y-79359347D02*
G01*
X126015737Y-79275083D01*
X126169365Y-79063813D01*
X126284892Y-79147344D01*
X126131263Y-79359347D01*
G37*
G36*
X126205025Y-79173234D02*
G01*
X125956141Y-79092634D01*
X126000594Y-78956591D01*
X126249477Y-79037923D01*
X126205025Y-79173234D01*
G37*
G36*
X126155688Y-79105579D02*
G01*
X126155688Y-78843750D01*
X126298570Y-78843750D01*
X126298570Y-79105579D01*
X126155688Y-79105579D01*
G37*
G36*
X126249477Y-79173234D02*
G01*
X126205025Y-79037923D01*
X126453908Y-78956591D01*
X126498360Y-79092634D01*
X126249477Y-79173234D01*
G37*
G36*
X126541591Y-79915000D02*
G01*
X126921633Y-78920931D01*
X127040580Y-78920931D01*
X127420621Y-79915000D01*
X127219121Y-79915000D01*
X126981229Y-79236249D01*
X126743336Y-79915000D01*
X126541591Y-79915000D01*
G37*
G36*
X126724041Y-79755753D02*
G01*
X126724041Y-79575258D01*
X127246965Y-79575258D01*
X127246965Y-79755753D01*
X126724041Y-79755753D01*
G37*
G36*
X127542987Y-79915000D02*
G01*
X127542987Y-78920931D01*
X127730321Y-78920931D01*
X127730321Y-79915000D01*
X127542987Y-79915000D01*
G37*
G36*
X127626274Y-79915000D02*
G01*
X127626274Y-79734504D01*
X128208793Y-79734504D01*
X128208793Y-79915000D01*
X127626274Y-79915000D01*
G37*
G36*
X128656735Y-79925258D02*
G01*
X128601810Y-79922556D01*
X128551100Y-79914450D01*
X128499086Y-79898872D01*
X128462317Y-79882027D01*
X128420112Y-79854442D01*
X128383895Y-79820598D01*
X128353668Y-79780494D01*
X128339463Y-79755509D01*
X128319038Y-79705955D01*
X128306493Y-79657366D01*
X128299231Y-79604503D01*
X128297209Y-79554741D01*
X128297209Y-79281922D01*
X128299231Y-79231910D01*
X128306493Y-79178932D01*
X128319038Y-79130412D01*
X128339463Y-79081154D01*
X128366363Y-79037672D01*
X128399252Y-79000371D01*
X128438130Y-78969253D01*
X128462317Y-78954637D01*
X128510184Y-78933503D01*
X128563382Y-78919285D01*
X128615146Y-78912454D01*
X128656735Y-78910917D01*
X128708124Y-78914105D01*
X128756228Y-78923668D01*
X128805826Y-78941772D01*
X128824529Y-78951217D01*
X128867997Y-78979959D01*
X128906503Y-79015808D01*
X128936917Y-79054150D01*
X128946162Y-79068210D01*
X128970988Y-79113820D01*
X128991062Y-79164646D01*
X129004915Y-79214205D01*
X129012841Y-79254078D01*
X128818668Y-79254078D01*
X128803803Y-79205291D01*
X128784962Y-79169570D01*
X128752543Y-79132724D01*
X128729519Y-79116570D01*
X128681159Y-79099820D01*
X128656735Y-79098007D01*
X128606821Y-79103722D01*
X128561850Y-79122990D01*
X128534613Y-79146367D01*
X128508269Y-79187984D01*
X128494802Y-79235848D01*
X128491382Y-79281922D01*
X128491382Y-79554741D01*
X128495604Y-79605527D01*
X128510000Y-79652465D01*
X128534613Y-79690052D01*
X128575741Y-79721047D01*
X128624010Y-79735633D01*
X128656735Y-79737923D01*
X128706897Y-79730163D01*
X128752446Y-79704625D01*
X128760538Y-79697379D01*
X128790634Y-79658676D01*
X128810543Y-79613075D01*
X128818668Y-79582096D01*
X129012841Y-79582096D01*
X129001483Y-79634456D01*
X128986462Y-79682847D01*
X128965185Y-79732542D01*
X128945430Y-79767721D01*
X128916374Y-79808100D01*
X128879423Y-79846167D01*
X128837558Y-79877079D01*
X128824041Y-79884958D01*
X128776323Y-79906210D01*
X128724455Y-79919591D01*
X128674225Y-79924903D01*
X128656735Y-79925258D01*
G37*
D11*
G36*
X132268004Y-74415000D02*
G01*
X131943894Y-73421175D01*
X132095569Y-73421175D01*
X132334194Y-74200310D01*
X132572819Y-73421175D01*
X132724494Y-73421175D01*
X132400628Y-74415000D01*
X132268004Y-74415000D01*
G37*
G36*
X133079379Y-74425258D02*
G01*
X133026834Y-74422424D01*
X132971393Y-74411956D01*
X132922262Y-74393773D01*
X132879443Y-74367877D01*
X132852722Y-74344658D01*
X132821411Y-74306133D01*
X132797791Y-74261296D01*
X132781861Y-74210149D01*
X132774327Y-74161285D01*
X132772366Y-74117023D01*
X132772366Y-74000031D01*
X132775191Y-73947761D01*
X132785627Y-73892640D01*
X132803755Y-73843830D01*
X132829572Y-73801331D01*
X132852722Y-73774839D01*
X132891033Y-73743814D01*
X132935655Y-73720409D01*
X132986589Y-73704624D01*
X133035270Y-73697160D01*
X133079379Y-73695216D01*
X133129835Y-73698102D01*
X133181645Y-73707943D01*
X133229588Y-73724769D01*
X133276082Y-73750289D01*
X133314814Y-73782884D01*
X133336322Y-73808545D01*
X133235694Y-73898914D01*
X133199244Y-73865469D01*
X133166085Y-73846402D01*
X133119434Y-73831393D01*
X133081333Y-73827840D01*
X133030192Y-73833179D01*
X132984144Y-73851182D01*
X132956281Y-73873025D01*
X132927499Y-73915666D01*
X132913955Y-73965904D01*
X132911828Y-74000031D01*
X132911828Y-74117023D01*
X132916169Y-74165815D01*
X132932839Y-74214541D01*
X132956281Y-74246960D01*
X132998364Y-74276532D01*
X133047800Y-74290448D01*
X133081333Y-74292634D01*
X133130028Y-74286374D01*
X133166085Y-74272850D01*
X133207945Y-74245338D01*
X133235694Y-74216674D01*
X133336322Y-74313883D01*
X133302731Y-74350416D01*
X133261309Y-74380149D01*
X133229344Y-74396193D01*
X133181210Y-74412740D01*
X133129496Y-74422419D01*
X133079379Y-74425258D01*
G37*
G36*
X133775959Y-74425258D02*
G01*
X133723415Y-74422424D01*
X133667973Y-74411956D01*
X133618843Y-74393773D01*
X133576023Y-74367877D01*
X133549302Y-74344658D01*
X133517992Y-74306133D01*
X133494371Y-74261296D01*
X133478441Y-74210149D01*
X133470908Y-74161285D01*
X133468946Y-74117023D01*
X133468946Y-74000031D01*
X133471771Y-73947761D01*
X133482208Y-73892640D01*
X133500335Y-73843830D01*
X133526153Y-73801331D01*
X133549302Y-73774839D01*
X133587613Y-73743814D01*
X133632236Y-73720409D01*
X133683170Y-73704624D01*
X133731850Y-73697160D01*
X133775959Y-73695216D01*
X133826416Y-73698102D01*
X133878226Y-73707943D01*
X133926169Y-73724769D01*
X133972663Y-73750289D01*
X134011394Y-73782884D01*
X134032903Y-73808545D01*
X133932275Y-73898914D01*
X133895825Y-73865469D01*
X133862666Y-73846402D01*
X133816014Y-73831393D01*
X133777913Y-73827840D01*
X133726772Y-73833179D01*
X133680725Y-73851182D01*
X133652861Y-73873025D01*
X133624080Y-73915666D01*
X133610536Y-73965904D01*
X133608409Y-74000031D01*
X133608409Y-74117023D01*
X133612750Y-74165815D01*
X133629420Y-74214541D01*
X133652861Y-74246960D01*
X133694944Y-74276532D01*
X133744381Y-74290448D01*
X133777913Y-74292634D01*
X133826608Y-74286374D01*
X133862666Y-74272850D01*
X133904526Y-74245338D01*
X133932275Y-74216674D01*
X134032903Y-74313883D01*
X133999312Y-74350416D01*
X133957890Y-74380149D01*
X133925925Y-74396193D01*
X133877790Y-74412740D01*
X133826077Y-74422419D01*
X133775959Y-74425258D01*
G37*
D10*
G36*
X127596118Y-58312248D02*
G01*
X127671434Y-58325136D01*
X127732152Y-58371732D01*
X127738637Y-58383266D01*
X127755605Y-58458485D01*
X127747540Y-58536596D01*
X127606856Y-59214370D01*
X127599003Y-59246022D01*
X127569375Y-59318105D01*
X127522592Y-59379234D01*
X127493067Y-59402502D01*
X127425305Y-59430553D01*
X127347836Y-59438951D01*
X127334115Y-59438718D01*
X127259158Y-59425830D01*
X127198360Y-59379234D01*
X127191940Y-59367575D01*
X127175213Y-59292127D01*
X127183339Y-59214370D01*
X127324023Y-58536596D01*
X127331867Y-58504750D01*
X127361387Y-58432500D01*
X127407920Y-58371732D01*
X127433027Y-58351437D01*
X127505236Y-58320412D01*
X127582309Y-58312015D01*
X127596118Y-58312248D01*
G37*
G36*
X128712796Y-58312248D02*
G01*
X128788112Y-58325136D01*
X128848831Y-58371732D01*
X128855316Y-58383266D01*
X128872283Y-58458485D01*
X128864218Y-58536596D01*
X128723534Y-59214370D01*
X128715681Y-59246022D01*
X128686053Y-59318105D01*
X128639270Y-59379234D01*
X128609745Y-59402502D01*
X128541983Y-59430553D01*
X128464515Y-59438951D01*
X128450793Y-59438718D01*
X128375836Y-59425830D01*
X128315038Y-59379234D01*
X128308618Y-59367575D01*
X128291892Y-59292127D01*
X128300017Y-59214370D01*
X128440701Y-58536596D01*
X128448545Y-58504750D01*
X128478066Y-58432500D01*
X128524598Y-58371732D01*
X128549706Y-58351437D01*
X128621914Y-58320412D01*
X128698988Y-58312015D01*
X128712796Y-58312248D01*
G37*
G36*
X125127249Y-56576400D02*
G01*
X124672354Y-56576400D01*
X125040474Y-55899726D01*
X125127249Y-56576400D01*
G37*
G36*
X129248345Y-62309167D02*
G01*
X118996225Y-62309167D01*
X118996225Y-60651763D01*
X123374983Y-60651763D01*
X123540579Y-62142500D01*
X123735119Y-62142500D01*
X124565300Y-62142500D01*
X124769731Y-62142500D01*
X125079675Y-60651763D01*
X124875244Y-60651763D01*
X124638207Y-60793180D01*
X124593144Y-61009335D01*
X124827983Y-60879275D01*
X124565300Y-62142500D01*
X123735119Y-62142500D01*
X124520237Y-60651763D01*
X124297854Y-60651763D01*
X123704710Y-61820465D01*
X123597732Y-60651763D01*
X123374983Y-60651763D01*
X118996225Y-60651763D01*
X118996225Y-59622500D01*
X119162892Y-59622500D01*
X119265108Y-59622500D01*
X120099686Y-59622500D01*
X120366032Y-59622500D01*
X120565701Y-59622500D01*
X120775155Y-58615533D01*
X120957711Y-59415504D01*
X121099860Y-59415504D01*
X121620073Y-58594000D01*
X121406141Y-59622500D01*
X121605443Y-59622500D01*
X122001482Y-59622500D01*
X122205914Y-59622500D01*
X122337844Y-58987957D01*
X122961762Y-58987957D01*
X122829832Y-59622500D01*
X123034630Y-59622500D01*
X123099476Y-59310609D01*
X123411092Y-59310609D01*
X123418503Y-59384507D01*
X123441660Y-59460566D01*
X123454667Y-59486487D01*
X123502793Y-59548598D01*
X123562927Y-59592458D01*
X123618840Y-59616414D01*
X123696327Y-59633450D01*
X123769556Y-59637887D01*
X123818409Y-59636204D01*
X123898776Y-59625159D01*
X123972622Y-59603806D01*
X124039947Y-59572145D01*
X124100750Y-59530176D01*
X124132297Y-59501874D01*
X124180645Y-59445734D01*
X124212464Y-59393888D01*
X124532693Y-59393888D01*
X125161588Y-59393888D01*
X125113747Y-59623599D01*
X125313049Y-59623599D01*
X125360890Y-59393888D01*
X125470586Y-59393888D01*
X125727041Y-59393888D01*
X126355935Y-59393888D01*
X126308094Y-59623599D01*
X126507397Y-59623599D01*
X126555237Y-59393888D01*
X126664933Y-59393888D01*
X126685333Y-59295784D01*
X126966884Y-59295784D01*
X126967267Y-59379384D01*
X126982717Y-59452909D01*
X127018108Y-59523581D01*
X127028594Y-59537423D01*
X127088212Y-59588659D01*
X127158285Y-59619022D01*
X127232785Y-59633868D01*
X127306437Y-59637887D01*
X127356955Y-59636124D01*
X127439439Y-59624553D01*
X127514385Y-59602183D01*
X127581792Y-59569015D01*
X127641660Y-59525047D01*
X127679612Y-59487709D01*
X127725621Y-59428464D01*
X127763320Y-59361084D01*
X127788735Y-59295784D01*
X128083562Y-59295784D01*
X128083945Y-59379384D01*
X128099396Y-59452909D01*
X128134787Y-59523581D01*
X128145272Y-59537423D01*
X128204891Y-59588659D01*
X128274964Y-59619022D01*
X128349463Y-59633868D01*
X128423115Y-59637887D01*
X128473634Y-59636124D01*
X128556117Y-59624553D01*
X128631063Y-59602183D01*
X128698470Y-59569015D01*
X128758339Y-59525047D01*
X128796290Y-59487709D01*
X128842299Y-59428464D01*
X128879998Y-59361084D01*
X128909388Y-59285570D01*
X128927965Y-59214370D01*
X129068649Y-58536596D01*
X129071117Y-58524247D01*
X129081678Y-58442555D01*
X129080493Y-58369172D01*
X129064757Y-58295481D01*
X129028716Y-58225553D01*
X129018058Y-58211933D01*
X128957950Y-58161517D01*
X128887832Y-58131641D01*
X128813592Y-58117033D01*
X128740387Y-58113079D01*
X128690287Y-58114842D01*
X128608341Y-58126412D01*
X128533689Y-58148782D01*
X128466329Y-58181951D01*
X128406263Y-58225919D01*
X128368109Y-58263257D01*
X128321907Y-58322502D01*
X128284120Y-58389881D01*
X128254748Y-58465395D01*
X128236270Y-58536596D01*
X128095586Y-59214370D01*
X128084102Y-59292127D01*
X128083562Y-59295784D01*
X127788735Y-59295784D01*
X127792710Y-59285570D01*
X127811287Y-59214370D01*
X127951971Y-58536596D01*
X127954439Y-58524247D01*
X127965000Y-58442555D01*
X127963815Y-58369172D01*
X127948079Y-58295481D01*
X127912037Y-58225553D01*
X127901380Y-58211933D01*
X127841272Y-58161517D01*
X127771153Y-58131641D01*
X127696914Y-58117033D01*
X127623709Y-58113079D01*
X127573608Y-58114842D01*
X127491663Y-58126412D01*
X127417010Y-58148782D01*
X127349651Y-58181951D01*
X127289584Y-58225919D01*
X127251431Y-58263257D01*
X127205229Y-58322502D01*
X127167442Y-58389881D01*
X127138070Y-58465395D01*
X127119591Y-58536596D01*
X126978907Y-59214370D01*
X126967424Y-59292127D01*
X126966884Y-59295784D01*
X126685333Y-59295784D01*
X126705233Y-59200081D01*
X126595600Y-59200081D01*
X126690212Y-58745790D01*
X126490910Y-58745790D01*
X126396298Y-59200081D01*
X125989724Y-59200081D01*
X126689113Y-58132496D01*
X126478820Y-58132496D01*
X125764776Y-59212172D01*
X125727041Y-59393888D01*
X125470586Y-59393888D01*
X125510886Y-59200081D01*
X125401253Y-59200081D01*
X125495865Y-58745790D01*
X125296563Y-58745790D01*
X125201951Y-59200081D01*
X124795376Y-59200081D01*
X125494766Y-58132496D01*
X125284473Y-58132496D01*
X124570429Y-59212172D01*
X124532693Y-59393888D01*
X124212464Y-59393888D01*
X124220263Y-59381180D01*
X124251150Y-59308210D01*
X124273307Y-59226826D01*
X124278436Y-59201913D01*
X124281894Y-59184067D01*
X124290086Y-59108649D01*
X124285048Y-59034231D01*
X124262316Y-58963777D01*
X124231018Y-58916410D01*
X124172697Y-58870025D01*
X124102582Y-58844342D01*
X124171268Y-58815619D01*
X124237814Y-58774272D01*
X124294923Y-58722709D01*
X124337398Y-58668327D01*
X124372220Y-58601895D01*
X124394574Y-58528536D01*
X124399703Y-58503623D01*
X124409878Y-58437428D01*
X124410222Y-58358225D01*
X124392544Y-58281492D01*
X124355739Y-58217859D01*
X124308043Y-58173460D01*
X124238456Y-58138674D01*
X124162441Y-58121232D01*
X124084996Y-58116376D01*
X124004648Y-58122696D01*
X123928833Y-58141655D01*
X123857553Y-58173254D01*
X123790806Y-58217493D01*
X123767147Y-58237121D01*
X123709159Y-58296672D01*
X123664504Y-58357382D01*
X123625530Y-58426122D01*
X123592236Y-58502890D01*
X123799598Y-58502890D01*
X123810028Y-58479609D01*
X123848828Y-58415093D01*
X123902913Y-58361840D01*
X123969683Y-58328318D01*
X124043231Y-58317144D01*
X124108825Y-58325125D01*
X124174023Y-58365504D01*
X124199726Y-58427871D01*
X124195272Y-58501791D01*
X124185746Y-58547953D01*
X124181705Y-58565437D01*
X124154076Y-58637064D01*
X124108443Y-58695598D01*
X124104820Y-58698821D01*
X124039161Y-58736476D01*
X123964462Y-58747988D01*
X123861147Y-58747988D01*
X123819748Y-58946924D01*
X123923063Y-58946924D01*
X123929098Y-58946984D01*
X124001867Y-58960367D01*
X124060816Y-59008107D01*
X124071968Y-59028355D01*
X124086748Y-59104020D01*
X124078402Y-59180664D01*
X124068876Y-59225727D01*
X124061205Y-59255997D01*
X124030545Y-59324401D01*
X123980216Y-59381432D01*
X123958318Y-59397369D01*
X123888154Y-59427623D01*
X123811322Y-59436753D01*
X123805479Y-59436710D01*
X123732550Y-59427012D01*
X123666242Y-59392423D01*
X123663115Y-59389579D01*
X123627035Y-59325795D01*
X123621545Y-59251372D01*
X123412718Y-59251372D01*
X123411092Y-59310609D01*
X123099476Y-59310609D01*
X123344574Y-58131763D01*
X123139776Y-58131763D01*
X123003123Y-58789021D01*
X122379205Y-58789021D01*
X122515858Y-58131763D01*
X122311427Y-58131763D01*
X122001482Y-59622500D01*
X121605443Y-59622500D01*
X121915387Y-58131763D01*
X121724145Y-58131763D01*
X121091067Y-59115818D01*
X120867219Y-58131763D01*
X120675977Y-58131763D01*
X120366032Y-59622500D01*
X120099686Y-59622500D01*
X120141085Y-59423564D01*
X119408685Y-59423564D01*
X119677268Y-58131763D01*
X119472836Y-58131763D01*
X119162892Y-59622500D01*
X118996225Y-59622500D01*
X118996225Y-55810333D01*
X122764619Y-55810333D01*
X123176974Y-55810333D01*
X122908234Y-57102500D01*
X123113032Y-57102500D01*
X123749040Y-57102500D01*
X123953472Y-57102500D01*
X124165596Y-57102500D01*
X124386148Y-57102500D01*
X124564130Y-56775336D01*
X125152760Y-56775336D01*
X125194714Y-57102500D01*
X125414899Y-57102500D01*
X125187386Y-55611763D01*
X125012997Y-55611763D01*
X124464655Y-56576400D01*
X124165596Y-57102500D01*
X123953472Y-57102500D01*
X124263416Y-55611763D01*
X124058984Y-55611763D01*
X123749040Y-57102500D01*
X123113032Y-57102500D01*
X123381772Y-55810333D01*
X123793737Y-55810333D01*
X123835136Y-55611763D01*
X122806019Y-55611763D01*
X122764619Y-55810333D01*
X118996225Y-55810333D01*
X118996225Y-55445096D01*
X129248345Y-55445096D01*
X129248345Y-62309167D01*
G37*
D12*
G36*
X126188136Y-70859347D02*
G01*
X126034263Y-70647344D01*
X126149790Y-70563813D01*
X126303663Y-70775083D01*
X126188136Y-70859347D01*
G37*
G36*
X125996161Y-70859347D02*
G01*
X125880635Y-70775083D01*
X126034263Y-70563813D01*
X126149790Y-70647344D01*
X125996161Y-70859347D01*
G37*
G36*
X126069923Y-70673234D02*
G01*
X125821039Y-70592634D01*
X125865492Y-70456591D01*
X126114375Y-70537923D01*
X126069923Y-70673234D01*
G37*
G36*
X126020586Y-70605579D02*
G01*
X126020586Y-70343750D01*
X126163468Y-70343750D01*
X126163468Y-70605579D01*
X126020586Y-70605579D01*
G37*
G36*
X126114375Y-70673234D02*
G01*
X126069923Y-70537923D01*
X126318806Y-70456591D01*
X126363258Y-70592634D01*
X126114375Y-70673234D01*
G37*
G36*
X126502233Y-71415000D02*
G01*
X126502233Y-70420931D01*
X126689567Y-70420931D01*
X126689567Y-71415000D01*
X126502233Y-71415000D01*
G37*
G36*
X126569888Y-71415000D02*
G01*
X126569888Y-71234504D01*
X127168039Y-71234504D01*
X127168039Y-71415000D01*
X126569888Y-71415000D01*
G37*
G36*
X126569888Y-71011755D02*
G01*
X126569888Y-70831259D01*
X127092812Y-70831259D01*
X127092812Y-71011755D01*
X126569888Y-71011755D01*
G37*
G36*
X126569888Y-70601427D02*
G01*
X126569888Y-70420931D01*
X127168039Y-70420931D01*
X127168039Y-70601427D01*
X126569888Y-70601427D01*
G37*
G36*
X127338520Y-71414267D02*
G01*
X127338520Y-70420931D01*
X127567376Y-70420931D01*
X127937404Y-71182725D01*
X127920795Y-71200310D01*
X127920795Y-70420931D01*
X128100069Y-70420931D01*
X128100069Y-71414267D01*
X127869748Y-71414267D01*
X127501186Y-70664197D01*
X127517550Y-70646612D01*
X127517550Y-71414267D01*
X127338520Y-71414267D01*
G37*
D11*
G36*
X121237718Y-76879863D02*
G01*
X121582344Y-76879863D01*
X121582344Y-77053276D01*
X121579627Y-77107559D01*
X121571476Y-77158300D01*
X121557890Y-77205500D01*
X121538869Y-77249159D01*
X121511690Y-77293307D01*
X121479063Y-77331505D01*
X121440988Y-77363752D01*
X121417481Y-77379096D01*
X121371490Y-77401410D01*
X121321173Y-77416422D01*
X121272812Y-77423635D01*
X121234298Y-77425258D01*
X121182962Y-77422556D01*
X121129186Y-77413057D01*
X121079621Y-77396718D01*
X121048918Y-77382027D01*
X121007206Y-77354771D01*
X120967431Y-77317915D01*
X120937547Y-77278830D01*
X120926064Y-77259661D01*
X120904930Y-77213081D01*
X120890713Y-77162366D01*
X120883882Y-77113815D01*
X120882344Y-77075258D01*
X120882344Y-76781922D01*
X120885046Y-76727670D01*
X120893152Y-76677020D01*
X120906662Y-76629972D01*
X120925575Y-76586528D01*
X120952754Y-76542517D01*
X120985382Y-76504456D01*
X121023457Y-76472347D01*
X121046964Y-76457079D01*
X121092954Y-76434764D01*
X121143272Y-76419753D01*
X121191632Y-76412540D01*
X121230146Y-76410917D01*
X121282964Y-76414519D01*
X121332728Y-76425324D01*
X121379440Y-76443332D01*
X121388416Y-76447798D01*
X121430877Y-76473734D01*
X121468806Y-76505443D01*
X121502203Y-76542924D01*
X121508339Y-76551113D01*
X121535640Y-76594699D01*
X121556787Y-76642723D01*
X121570558Y-76689737D01*
X121574040Y-76706207D01*
X121423098Y-76706207D01*
X121405561Y-76657277D01*
X121376687Y-76613709D01*
X121348360Y-76587749D01*
X121305862Y-76562745D01*
X121257341Y-76548680D01*
X121230146Y-76546716D01*
X121180837Y-76551836D01*
X121132847Y-76569534D01*
X121092013Y-76599874D01*
X121081158Y-76611441D01*
X121051663Y-76655795D01*
X121034457Y-76702649D01*
X121026100Y-76756070D01*
X121025227Y-76781922D01*
X121025227Y-77075258D01*
X121029767Y-77126767D01*
X121045461Y-77176884D01*
X121072366Y-77219512D01*
X121082624Y-77230840D01*
X121122098Y-77261624D01*
X121168776Y-77281006D01*
X121222658Y-77288986D01*
X121234298Y-77289214D01*
X121283706Y-77284346D01*
X121331715Y-77267516D01*
X121372473Y-77238665D01*
X121383287Y-77227665D01*
X121412911Y-77184474D01*
X121430191Y-77137527D01*
X121438585Y-77082928D01*
X121439462Y-77056207D01*
X121439462Y-77012976D01*
X121237718Y-77012976D01*
X121237718Y-76879863D01*
G37*
G36*
X121793859Y-77415000D02*
G01*
X121793859Y-76705474D01*
X121933321Y-76705474D01*
X121933321Y-77415000D01*
X121793859Y-77415000D01*
G37*
G36*
X122224459Y-77415000D02*
G01*
X122224459Y-76985132D01*
X122219032Y-76933521D01*
X122198983Y-76885462D01*
X122185869Y-76868872D01*
X122142552Y-76839420D01*
X122093465Y-76828481D01*
X122076204Y-76827840D01*
X122025758Y-76833806D01*
X121980273Y-76855515D01*
X121970446Y-76863988D01*
X121942603Y-76907524D01*
X121933466Y-76957740D01*
X121933321Y-76965837D01*
X121918911Y-76829061D01*
X121946308Y-76785040D01*
X121982423Y-76746730D01*
X122004640Y-76730143D01*
X122049558Y-76707529D01*
X122098183Y-76696444D01*
X122121877Y-76695216D01*
X122176374Y-76699933D01*
X122224337Y-76714084D01*
X122270486Y-76741280D01*
X122300663Y-76770687D01*
X122328338Y-76812346D01*
X122348107Y-76861851D01*
X122358918Y-76911604D01*
X122363675Y-76967364D01*
X122363922Y-76984399D01*
X122363922Y-77415000D01*
X122224459Y-77415000D01*
G37*
G36*
X122978681Y-77415000D02*
G01*
X122978681Y-76421175D01*
X123118144Y-76421175D01*
X123118144Y-77415000D01*
X122978681Y-77415000D01*
G37*
G36*
X122800384Y-77427212D02*
G01*
X122751450Y-77423600D01*
X122701823Y-77410629D01*
X122654021Y-77384759D01*
X122618667Y-77351741D01*
X122590777Y-77310128D01*
X122570856Y-77260760D01*
X122559962Y-77211202D01*
X122555169Y-77155707D01*
X122554920Y-77138761D01*
X122554920Y-76982201D01*
X122557118Y-76932650D01*
X122565239Y-76880398D01*
X122581847Y-76828008D01*
X122606272Y-76783433D01*
X122617446Y-76768733D01*
X122656655Y-76732132D01*
X122703939Y-76707510D01*
X122752750Y-76695680D01*
X122793545Y-76693018D01*
X122842812Y-76698459D01*
X122891993Y-76716491D01*
X122908583Y-76725990D01*
X122947745Y-76757016D01*
X122980297Y-76796911D01*
X122993091Y-76818314D01*
X122978681Y-76963150D01*
X122972912Y-76914143D01*
X122962317Y-76885969D01*
X122931096Y-76847700D01*
X122914689Y-76837121D01*
X122865689Y-76821914D01*
X122839218Y-76820268D01*
X122788217Y-76827403D01*
X122744834Y-76851045D01*
X122732240Y-76863499D01*
X122706361Y-76907798D01*
X122695713Y-76956410D01*
X122694382Y-76984399D01*
X122694382Y-77138761D01*
X122698856Y-77187806D01*
X122715677Y-77234977D01*
X122732240Y-77258196D01*
X122774601Y-77288349D01*
X122822426Y-77299549D01*
X122839218Y-77300205D01*
X122889536Y-77293431D01*
X122914689Y-77282864D01*
X122951933Y-77249762D01*
X122962317Y-77232550D01*
X122976747Y-77183804D01*
X122978681Y-77153904D01*
X122988206Y-77303625D01*
X122964228Y-77346304D01*
X122930809Y-77382168D01*
X122922261Y-77389354D01*
X122879523Y-77413865D01*
X122831844Y-77425400D01*
X122800384Y-77427212D01*
G37*
D13*
G36*
X122564658Y-84504849D02*
G01*
X122432034Y-84504849D01*
X122432034Y-84165840D01*
X122423946Y-84117207D01*
X122397331Y-84075268D01*
X122389780Y-84068142D01*
X122347358Y-84042931D01*
X122298589Y-84032162D01*
X122277428Y-84031262D01*
X122225385Y-84037349D01*
X122179437Y-84057518D01*
X122165565Y-84068142D01*
X122135061Y-84107977D01*
X122123233Y-84158331D01*
X122123066Y-84165840D01*
X122123066Y-84504849D01*
X121990443Y-84504849D01*
X121990443Y-84171213D01*
X121993949Y-84119144D01*
X122004468Y-84071321D01*
X122024137Y-84023620D01*
X122026346Y-84019538D01*
X122054378Y-83978307D01*
X122089105Y-83943944D01*
X122126486Y-83918666D01*
X122173303Y-83898225D01*
X122225431Y-83886268D01*
X122277428Y-83882762D01*
X122329215Y-83886316D01*
X122381332Y-83898435D01*
X122428370Y-83919154D01*
X122469323Y-83947383D01*
X122503523Y-83982365D01*
X122528754Y-84020027D01*
X122549195Y-84066983D01*
X122561151Y-84119192D01*
X122564658Y-84171213D01*
X122564658Y-84504849D01*
G37*
G36*
X122985000Y-84565665D02*
G01*
X121990443Y-84565665D01*
X121990443Y-84426202D01*
X122985000Y-84426202D01*
X122985000Y-84565665D01*
G37*
G36*
X122985000Y-84006593D02*
G01*
X122533883Y-84234228D01*
X122502376Y-84095498D01*
X122985000Y-83840997D01*
X122985000Y-84006593D01*
G37*
G36*
X121991175Y-83433844D02*
G01*
X122985000Y-83433844D01*
X122985000Y-83573306D01*
X122142850Y-83573306D01*
X122229556Y-83714723D01*
X122085453Y-83714723D01*
X121991175Y-83573306D01*
X121991175Y-83433844D01*
G37*
G36*
X134489533Y-76845000D02*
G01*
X134489533Y-75851175D01*
X134628996Y-75851175D01*
X134628996Y-76845000D01*
X134489533Y-76845000D01*
G37*
G36*
X134559142Y-76845000D02*
G01*
X134559142Y-76712376D01*
X135127984Y-76712376D01*
X135127984Y-76845000D01*
X134559142Y-76845000D01*
G37*
G36*
X135510956Y-75851175D02*
G01*
X135510956Y-76845000D01*
X135371494Y-76845000D01*
X135371494Y-76002850D01*
X135230077Y-76089556D01*
X135230077Y-75945453D01*
X135371494Y-75851175D01*
X135510956Y-75851175D01*
G37*
G36*
X117766748Y-65925258D02*
G01*
X117716671Y-65922896D01*
X117661396Y-65913829D01*
X117611376Y-65897961D01*
X117566610Y-65875292D01*
X117527100Y-65845822D01*
X117509316Y-65828538D01*
X117478355Y-65789468D01*
X117453800Y-65744800D01*
X117435651Y-65694534D01*
X117423907Y-65638669D01*
X117419014Y-65587839D01*
X117418213Y-65555474D01*
X117418213Y-64921175D01*
X117557676Y-64921175D01*
X117557676Y-65560115D01*
X117561095Y-65611390D01*
X117573117Y-65661740D01*
X117596625Y-65708576D01*
X117612386Y-65728398D01*
X117650969Y-65759696D01*
X117698329Y-65779403D01*
X117748458Y-65787227D01*
X117766748Y-65787749D01*
X117819738Y-65783054D01*
X117870142Y-65766825D01*
X117911625Y-65739005D01*
X117922331Y-65728398D01*
X117951311Y-65686357D01*
X117968216Y-65640321D01*
X117976427Y-65586520D01*
X117977285Y-65560115D01*
X117977285Y-64921175D01*
X118116748Y-64921175D01*
X118116748Y-65555474D01*
X118114512Y-65608637D01*
X118107803Y-65657913D01*
X118093850Y-65711912D01*
X118073457Y-65760312D01*
X118046623Y-65803113D01*
X118025157Y-65828538D01*
X117988165Y-65861407D01*
X117945885Y-65887476D01*
X117898315Y-65906745D01*
X117845455Y-65919213D01*
X117787306Y-65924880D01*
X117766748Y-65925258D01*
G37*
G36*
X118568597Y-64921175D02*
G01*
X118568597Y-65915000D01*
X118429134Y-65915000D01*
X118429134Y-65072850D01*
X118287718Y-65159556D01*
X118287718Y-65015453D01*
X118429134Y-64921175D01*
X118568597Y-64921175D01*
G37*
G36*
X123729553Y-67064658D02*
G01*
X123729553Y-66932034D01*
X124068562Y-66932034D01*
X124117195Y-66923946D01*
X124159134Y-66897331D01*
X124166260Y-66889780D01*
X124191471Y-66847358D01*
X124202240Y-66798589D01*
X124203140Y-66777428D01*
X124197053Y-66725385D01*
X124176884Y-66679437D01*
X124166260Y-66665565D01*
X124126425Y-66635061D01*
X124076071Y-66623233D01*
X124068562Y-66623066D01*
X123729553Y-66623066D01*
X123729553Y-66490443D01*
X124063189Y-66490443D01*
X124115258Y-66493949D01*
X124163081Y-66504468D01*
X124210782Y-66524137D01*
X124214864Y-66526346D01*
X124256095Y-66554378D01*
X124290458Y-66589105D01*
X124315736Y-66626486D01*
X124336177Y-66673303D01*
X124348134Y-66725431D01*
X124351640Y-66777428D01*
X124348086Y-66829215D01*
X124335967Y-66881332D01*
X124315248Y-66928370D01*
X124287019Y-66969323D01*
X124252037Y-67003523D01*
X124214375Y-67028754D01*
X124167419Y-67049195D01*
X124115210Y-67061151D01*
X124063189Y-67064658D01*
X123729553Y-67064658D01*
G37*
G36*
X123668737Y-67485000D02*
G01*
X123668737Y-66490443D01*
X123808200Y-66490443D01*
X123808200Y-67485000D01*
X123668737Y-67485000D01*
G37*
G36*
X124227809Y-67485000D02*
G01*
X124000174Y-67033883D01*
X124138904Y-67002376D01*
X124393405Y-67485000D01*
X124227809Y-67485000D01*
G37*
G36*
X124547034Y-67332592D02*
G01*
X124547034Y-67211448D01*
X124880670Y-66491664D01*
X125024040Y-66491664D01*
X124698709Y-67203387D01*
X125186218Y-67203387D01*
X125186218Y-67332592D01*
X124547034Y-67332592D01*
G37*
G36*
X124975680Y-67485732D02*
G01*
X124975680Y-66900526D01*
X125111724Y-66900526D01*
X125111724Y-67485732D01*
X124975680Y-67485732D01*
G37*
G36*
X120225690Y-80467584D02*
G01*
X120192164Y-80429977D01*
X120162033Y-80385502D01*
X120139935Y-80338732D01*
X120129666Y-80306277D01*
X120121067Y-80256803D01*
X120120528Y-80207084D01*
X120128049Y-80157118D01*
X120135710Y-80129253D01*
X120155799Y-80079778D01*
X120180307Y-80037223D01*
X120211075Y-79996005D01*
X120243133Y-79961038D01*
X120436046Y-79768126D01*
X120476308Y-79731663D01*
X120517822Y-79701548D01*
X120560588Y-79677779D01*
X120604607Y-79660357D01*
X120654779Y-79648288D01*
X120704650Y-79644334D01*
X120754221Y-79648495D01*
X120781630Y-79654313D01*
X120829930Y-79671055D01*
X120875936Y-79695831D01*
X120919646Y-79728639D01*
X120942937Y-79750337D01*
X120977465Y-79789958D01*
X121004841Y-79832615D01*
X121025067Y-79878308D01*
X121028254Y-79887811D01*
X121039922Y-79936158D01*
X121044270Y-79985349D01*
X121041298Y-80035383D01*
X121039825Y-80045491D01*
X121028127Y-80095434D01*
X121009008Y-80144230D01*
X120985456Y-80187166D01*
X120976269Y-80201272D01*
X120875237Y-80100239D01*
X120895579Y-80053426D01*
X120903733Y-80010259D01*
X120902191Y-79958808D01*
X120892680Y-79920452D01*
X120870889Y-79875759D01*
X120846913Y-79846361D01*
X120808871Y-79815560D01*
X120762820Y-79794538D01*
X120712790Y-79787414D01*
X120697004Y-79787987D01*
X120644875Y-79798585D01*
X120599632Y-79819602D01*
X120555974Y-79851494D01*
X120537079Y-79869159D01*
X120344166Y-80062071D01*
X120310996Y-80100163D01*
X120283976Y-80144488D01*
X120266739Y-80195565D01*
X120263167Y-80221824D01*
X120266304Y-80272866D01*
X120283271Y-80319996D01*
X120314068Y-80363213D01*
X120321887Y-80371387D01*
X120363118Y-80403041D01*
X120408109Y-80422191D01*
X120437427Y-80428898D01*
X120489482Y-80430242D01*
X120536943Y-80418587D01*
X120575592Y-80399883D01*
X120676625Y-80500916D01*
X120633958Y-80526458D01*
X120585364Y-80547757D01*
X120535522Y-80561600D01*
X120520326Y-80564299D01*
X120470157Y-80568587D01*
X120420899Y-80565689D01*
X120372551Y-80555607D01*
X120362991Y-80552728D01*
X120316782Y-80534024D01*
X120273576Y-80508135D01*
X120233371Y-80475061D01*
X120225690Y-80467584D01*
G37*
G36*
X121472799Y-80294706D02*
G01*
X120770059Y-80997445D01*
X120671444Y-80898830D01*
X121266933Y-80303341D01*
X121105626Y-80264655D01*
X121207523Y-80162758D01*
X121374184Y-80196091D01*
X121472799Y-80294706D01*
G37*
G36*
X120617515Y-73425258D02*
G01*
X120567217Y-73422373D01*
X120514462Y-73412230D01*
X120465765Y-73394784D01*
X120435554Y-73379096D01*
X120394491Y-73350193D01*
X120358953Y-73315417D01*
X120328940Y-73274768D01*
X120314654Y-73249647D01*
X120293875Y-73200458D01*
X120281113Y-73153037D01*
X120273724Y-73102135D01*
X120271667Y-73054741D01*
X120271667Y-72781922D01*
X120274354Y-72727670D01*
X120282414Y-72677020D01*
X120295848Y-72629972D01*
X120314654Y-72586528D01*
X120341597Y-72542517D01*
X120374065Y-72504456D01*
X120412059Y-72472347D01*
X120435554Y-72457079D01*
X120481547Y-72434764D01*
X120531596Y-72419753D01*
X120585703Y-72412044D01*
X120617515Y-72410917D01*
X120669946Y-72414519D01*
X120719468Y-72425324D01*
X120766079Y-72443332D01*
X120775052Y-72447798D01*
X120817489Y-72473734D01*
X120855347Y-72505443D01*
X120888625Y-72542924D01*
X120894731Y-72551113D01*
X120921774Y-72594699D01*
X120942759Y-72642723D01*
X120956466Y-72689737D01*
X120959944Y-72706207D01*
X120817062Y-72706207D01*
X120798345Y-72658721D01*
X120773587Y-72622431D01*
X120736114Y-72587140D01*
X120702268Y-72566744D01*
X120655256Y-72550550D01*
X120617515Y-72546716D01*
X120568835Y-72551836D01*
X120521408Y-72569534D01*
X120480994Y-72599874D01*
X120470237Y-72611441D01*
X120440871Y-72655795D01*
X120423740Y-72702649D01*
X120415420Y-72756070D01*
X120414550Y-72781922D01*
X120414550Y-73054741D01*
X120418030Y-73105132D01*
X120430266Y-73155580D01*
X120454194Y-73203885D01*
X120470237Y-73224979D01*
X120508548Y-73258853D01*
X120553871Y-73280181D01*
X120606207Y-73288964D01*
X120617515Y-73289214D01*
X120669053Y-73282442D01*
X120714408Y-73264170D01*
X120739881Y-73248182D01*
X120777639Y-73212324D01*
X120802958Y-73170523D01*
X120817062Y-73129968D01*
X120959944Y-73129968D01*
X120947834Y-73178199D01*
X120928534Y-73227620D01*
X120903079Y-73272653D01*
X120894243Y-73285307D01*
X120861799Y-73323813D01*
X120824920Y-73356595D01*
X120783603Y-73383652D01*
X120774808Y-73388377D01*
X120728907Y-73407826D01*
X120680049Y-73420071D01*
X120628233Y-73425114D01*
X120617515Y-73425258D01*
G37*
G36*
X121123587Y-73262592D02*
G01*
X121123587Y-73141448D01*
X121457222Y-72421664D01*
X121600593Y-72421664D01*
X121275261Y-73133387D01*
X121762770Y-73133387D01*
X121762770Y-73262592D01*
X121123587Y-73262592D01*
G37*
G36*
X121552233Y-73415732D02*
G01*
X121552233Y-72830526D01*
X121688276Y-72830526D01*
X121688276Y-73415732D01*
X121552233Y-73415732D01*
G37*
G36*
X120649267Y-75425258D02*
G01*
X120598969Y-75422373D01*
X120546214Y-75412230D01*
X120497517Y-75394784D01*
X120467306Y-75379096D01*
X120426243Y-75350193D01*
X120390705Y-75315417D01*
X120360692Y-75274768D01*
X120346406Y-75249647D01*
X120325627Y-75200458D01*
X120312865Y-75153037D01*
X120305476Y-75102135D01*
X120303419Y-75054741D01*
X120303419Y-74781922D01*
X120306106Y-74727670D01*
X120314166Y-74677020D01*
X120327600Y-74629972D01*
X120346406Y-74586528D01*
X120373349Y-74542517D01*
X120405817Y-74504456D01*
X120443811Y-74472347D01*
X120467306Y-74457079D01*
X120513299Y-74434764D01*
X120563348Y-74419753D01*
X120617455Y-74412044D01*
X120649267Y-74410917D01*
X120701698Y-74414519D01*
X120751220Y-74425324D01*
X120797831Y-74443332D01*
X120806804Y-74447798D01*
X120849241Y-74473734D01*
X120887099Y-74505443D01*
X120920377Y-74542924D01*
X120926483Y-74551113D01*
X120953526Y-74594699D01*
X120974511Y-74642723D01*
X120988218Y-74689737D01*
X120991696Y-74706207D01*
X120848814Y-74706207D01*
X120830097Y-74658721D01*
X120805339Y-74622431D01*
X120767866Y-74587140D01*
X120734020Y-74566744D01*
X120687008Y-74550550D01*
X120649267Y-74546716D01*
X120600587Y-74551836D01*
X120553160Y-74569534D01*
X120512746Y-74599874D01*
X120501989Y-74611441D01*
X120472623Y-74655795D01*
X120455492Y-74702649D01*
X120447172Y-74756070D01*
X120446302Y-74781922D01*
X120446302Y-75054741D01*
X120449782Y-75105132D01*
X120462018Y-75155580D01*
X120485946Y-75203885D01*
X120501989Y-75224979D01*
X120540300Y-75258853D01*
X120585623Y-75280181D01*
X120637959Y-75288964D01*
X120649267Y-75289214D01*
X120700805Y-75282442D01*
X120746160Y-75264170D01*
X120771633Y-75248182D01*
X120809391Y-75212324D01*
X120834710Y-75170523D01*
X120848814Y-75129968D01*
X120991696Y-75129968D01*
X120979586Y-75178199D01*
X120960286Y-75227620D01*
X120934831Y-75272653D01*
X120925995Y-75285307D01*
X120893551Y-75323813D01*
X120856672Y-75356595D01*
X120815355Y-75383652D01*
X120806560Y-75388377D01*
X120760659Y-75407826D01*
X120711801Y-75420071D01*
X120659985Y-75425114D01*
X120649267Y-75425258D01*
G37*
G36*
X121419121Y-75425258D02*
G01*
X121368636Y-75422300D01*
X121317786Y-75412215D01*
X121271842Y-75394972D01*
X121227902Y-75368296D01*
X121190967Y-75334064D01*
X121170237Y-75307044D01*
X121145473Y-75260527D01*
X121129471Y-75211792D01*
X121121145Y-75167581D01*
X121263294Y-75167581D01*
X121277659Y-75217196D01*
X121308846Y-75257756D01*
X121313852Y-75261615D01*
X121360686Y-75283780D01*
X121411182Y-75291053D01*
X121419121Y-75291168D01*
X121470162Y-75285082D01*
X121516333Y-75262932D01*
X121526343Y-75254288D01*
X121553867Y-75213111D01*
X121564353Y-75162768D01*
X121564690Y-75150484D01*
X121564690Y-75120443D01*
X121559606Y-75069346D01*
X121540826Y-75021802D01*
X121528542Y-75005404D01*
X121487998Y-74976127D01*
X121438150Y-74964974D01*
X121425960Y-74964616D01*
X121355618Y-74964616D01*
X121355618Y-74831992D01*
X121425960Y-74831992D01*
X121475186Y-74824317D01*
X121516574Y-74797065D01*
X121541349Y-74751890D01*
X121548294Y-74702576D01*
X121548325Y-74698635D01*
X121548325Y-74667861D01*
X121540866Y-74618580D01*
X121514376Y-74577002D01*
X121470498Y-74551846D01*
X121418388Y-74544762D01*
X121369845Y-74552212D01*
X121329239Y-74574560D01*
X121298343Y-74612967D01*
X121280725Y-74660698D01*
X121278925Y-74668593D01*
X121137509Y-74668593D01*
X121149306Y-74617414D01*
X121168915Y-74565478D01*
X121195056Y-74520534D01*
X121227731Y-74482581D01*
X121232275Y-74478328D01*
X121271476Y-74448836D01*
X121315562Y-74427770D01*
X121364533Y-74415130D01*
X121418388Y-74410917D01*
X121471908Y-74414155D01*
X121519841Y-74423867D01*
X121567782Y-74442895D01*
X121608425Y-74470380D01*
X121617446Y-74478572D01*
X121651449Y-74520995D01*
X121672332Y-74566035D01*
X121684422Y-74617975D01*
X121687788Y-74669082D01*
X121687788Y-74685690D01*
X121683026Y-74734596D01*
X121666969Y-74782681D01*
X121647488Y-74815139D01*
X121612557Y-74852302D01*
X121568216Y-74881359D01*
X121533426Y-74896228D01*
X121580682Y-74911350D01*
X121624398Y-74938232D01*
X121659456Y-74975851D01*
X121684903Y-75022820D01*
X121698871Y-75072432D01*
X121703978Y-75122711D01*
X121704152Y-75134609D01*
X121704152Y-75151217D01*
X121700588Y-75205473D01*
X121689894Y-75254120D01*
X121668942Y-75302846D01*
X121638679Y-75344245D01*
X121629658Y-75353450D01*
X121588564Y-75384866D01*
X121539777Y-75407306D01*
X121490777Y-75419578D01*
X121435886Y-75424977D01*
X121419121Y-75425258D01*
G37*
G36*
X128434150Y-64064658D02*
G01*
X128434150Y-63932034D01*
X128773159Y-63932034D01*
X128821792Y-63923946D01*
X128863731Y-63897331D01*
X128870857Y-63889780D01*
X128896068Y-63847358D01*
X128906837Y-63798589D01*
X128907737Y-63777428D01*
X128901650Y-63725385D01*
X128881481Y-63679437D01*
X128870857Y-63665565D01*
X128831022Y-63635061D01*
X128780668Y-63623233D01*
X128773159Y-63623066D01*
X128434150Y-63623066D01*
X128434150Y-63490443D01*
X128767786Y-63490443D01*
X128819855Y-63493949D01*
X128867678Y-63504468D01*
X128915379Y-63524137D01*
X128919461Y-63526346D01*
X128960692Y-63554378D01*
X128995055Y-63589105D01*
X129020333Y-63626486D01*
X129040774Y-63673303D01*
X129052731Y-63725431D01*
X129056237Y-63777428D01*
X129052683Y-63829215D01*
X129040564Y-63881332D01*
X129019845Y-63928370D01*
X128991616Y-63969323D01*
X128956634Y-64003523D01*
X128918972Y-64028754D01*
X128872016Y-64049195D01*
X128819807Y-64061151D01*
X128767786Y-64064658D01*
X128434150Y-64064658D01*
G37*
G36*
X128373334Y-64485000D02*
G01*
X128373334Y-63490443D01*
X128512797Y-63490443D01*
X128512797Y-64485000D01*
X128373334Y-64485000D01*
G37*
G36*
X128932406Y-64485000D02*
G01*
X128704771Y-64033883D01*
X128843501Y-64002376D01*
X129098002Y-64485000D01*
X128932406Y-64485000D01*
G37*
G36*
X129542769Y-64495258D02*
G01*
X129488623Y-64491182D01*
X129439515Y-64478954D01*
X129390290Y-64455455D01*
X129356411Y-64430045D01*
X129323423Y-64393973D01*
X129297244Y-64351215D01*
X129277872Y-64301772D01*
X129266507Y-64253023D01*
X129265309Y-64245642D01*
X129265309Y-64245153D01*
X129404771Y-64245153D01*
X129404771Y-64245642D01*
X129419487Y-64294307D01*
X129448491Y-64330882D01*
X129493102Y-64354514D01*
X129542769Y-64361168D01*
X129592145Y-64353792D01*
X129636695Y-64326948D01*
X129646328Y-64316472D01*
X129671372Y-64270350D01*
X129681676Y-64219654D01*
X129682964Y-64190443D01*
X129682964Y-64106912D01*
X129678635Y-64055353D01*
X129662356Y-64005658D01*
X129646328Y-63981127D01*
X129605326Y-63949220D01*
X129555050Y-63937065D01*
X129542769Y-63936674D01*
X129494335Y-63946372D01*
X129473159Y-63957191D01*
X129434481Y-63989228D01*
X129414297Y-64014588D01*
X129287046Y-64014588D01*
X129287046Y-63491175D01*
X129793606Y-63491175D01*
X129793606Y-63623555D01*
X129426509Y-63623555D01*
X129426509Y-63847281D01*
X129469007Y-63820903D01*
X129484639Y-63814553D01*
X129533686Y-63803562D01*
X129550340Y-63802829D01*
X129604371Y-63806639D01*
X129652769Y-63818070D01*
X129701182Y-63840464D01*
X129742238Y-63872811D01*
X129751352Y-63882452D01*
X129782447Y-63926340D01*
X129802368Y-63971428D01*
X129815486Y-64022758D01*
X129821316Y-64071722D01*
X129822427Y-64106912D01*
X129822427Y-64190443D01*
X129819851Y-64242713D01*
X129810334Y-64297834D01*
X129793804Y-64346644D01*
X129766327Y-64394698D01*
X129749154Y-64415635D01*
X129708869Y-64450470D01*
X129661043Y-64475352D01*
X129613010Y-64488959D01*
X129559203Y-64494947D01*
X129542769Y-64495258D01*
G37*
D14*
X126024819Y-82738094D02*
X125024819Y-82738094D01*
X125024819Y-82738094D02*
X125024819Y-82499999D01*
X125024819Y-82499999D02*
X125072438Y-82357142D01*
X125072438Y-82357142D02*
X125167676Y-82261904D01*
X125167676Y-82261904D02*
X125262914Y-82214285D01*
X125262914Y-82214285D02*
X125453390Y-82166666D01*
X125453390Y-82166666D02*
X125596247Y-82166666D01*
X125596247Y-82166666D02*
X125786723Y-82214285D01*
X125786723Y-82214285D02*
X125881961Y-82261904D01*
X125881961Y-82261904D02*
X125977200Y-82357142D01*
X125977200Y-82357142D02*
X126024819Y-82499999D01*
X126024819Y-82499999D02*
X126024819Y-82738094D01*
X126024819Y-81214285D02*
X126024819Y-81785713D01*
X126024819Y-81499999D02*
X125024819Y-81499999D01*
X125024819Y-81499999D02*
X125167676Y-81595237D01*
X125167676Y-81595237D02*
X125262914Y-81690475D01*
X125262914Y-81690475D02*
X125310533Y-81785713D01*
D13*
G36*
X128656594Y-67765258D02*
G01*
X128606296Y-67762373D01*
X128553541Y-67752230D01*
X128504844Y-67734784D01*
X128474633Y-67719096D01*
X128433570Y-67690193D01*
X128398032Y-67655417D01*
X128368019Y-67614768D01*
X128353733Y-67589647D01*
X128332954Y-67540458D01*
X128320192Y-67493037D01*
X128312803Y-67442135D01*
X128310746Y-67394741D01*
X128310746Y-67121922D01*
X128313433Y-67067670D01*
X128321493Y-67017020D01*
X128334927Y-66969972D01*
X128353733Y-66926528D01*
X128380676Y-66882517D01*
X128413144Y-66844456D01*
X128451138Y-66812347D01*
X128474633Y-66797079D01*
X128520626Y-66774764D01*
X128570675Y-66759753D01*
X128624782Y-66752044D01*
X128656594Y-66750917D01*
X128709025Y-66754519D01*
X128758547Y-66765324D01*
X128805158Y-66783332D01*
X128814131Y-66787798D01*
X128856568Y-66813734D01*
X128894426Y-66845443D01*
X128927704Y-66882924D01*
X128933810Y-66891113D01*
X128960853Y-66934699D01*
X128981838Y-66982723D01*
X128995545Y-67029737D01*
X128999023Y-67046207D01*
X128856141Y-67046207D01*
X128837424Y-66998721D01*
X128812666Y-66962431D01*
X128775193Y-66927140D01*
X128741347Y-66906744D01*
X128694335Y-66890550D01*
X128656594Y-66886716D01*
X128607914Y-66891836D01*
X128560487Y-66909534D01*
X128520073Y-66939874D01*
X128509316Y-66951441D01*
X128479950Y-66995795D01*
X128462819Y-67042649D01*
X128454499Y-67096070D01*
X128453629Y-67121922D01*
X128453629Y-67394741D01*
X128457109Y-67445132D01*
X128469345Y-67495580D01*
X128493273Y-67543885D01*
X128509316Y-67564979D01*
X128547627Y-67598853D01*
X128592950Y-67620181D01*
X128645286Y-67628964D01*
X128656594Y-67629214D01*
X128708132Y-67622442D01*
X128753487Y-67604170D01*
X128778960Y-67588182D01*
X128816718Y-67552324D01*
X128842037Y-67510523D01*
X128856141Y-67469968D01*
X128999023Y-67469968D01*
X128986913Y-67518199D01*
X128967613Y-67567620D01*
X128942158Y-67612653D01*
X128933322Y-67625307D01*
X128900878Y-67663813D01*
X128863999Y-67696595D01*
X128822682Y-67723652D01*
X128813887Y-67728377D01*
X128767986Y-67747826D01*
X128719128Y-67760071D01*
X128667312Y-67765114D01*
X128656594Y-67765258D01*
G37*
G36*
X129370106Y-67193152D02*
G01*
X129413398Y-67171027D01*
X129464794Y-67164420D01*
X129519993Y-67169275D01*
X129568597Y-67183838D01*
X129615394Y-67211826D01*
X129646022Y-67242090D01*
X129674125Y-67284817D01*
X129694199Y-67335573D01*
X129705177Y-67386572D01*
X129710007Y-67443719D01*
X129710258Y-67461175D01*
X129710258Y-67461664D01*
X129707708Y-67513519D01*
X129698286Y-67568264D01*
X129681922Y-67616815D01*
X129654719Y-67664717D01*
X129637718Y-67685635D01*
X129597693Y-67720470D01*
X129550157Y-67745352D01*
X129502402Y-67758959D01*
X129448897Y-67764947D01*
X129432554Y-67765258D01*
X129377692Y-67761494D01*
X129328509Y-67750204D01*
X129279256Y-67728085D01*
X129237422Y-67696135D01*
X129228123Y-67686612D01*
X129196493Y-67643274D01*
X129176231Y-67598766D01*
X129162887Y-67548111D01*
X129156462Y-67491309D01*
X129156028Y-67473387D01*
X129295289Y-67473387D01*
X129295289Y-67474120D01*
X129300338Y-67525995D01*
X129318991Y-67574100D01*
X129331193Y-67590624D01*
X129371346Y-67619726D01*
X129420540Y-67630812D01*
X129432554Y-67631168D01*
X129481887Y-67624437D01*
X129525786Y-67599940D01*
X129535136Y-67590380D01*
X129559512Y-67547791D01*
X129569925Y-67496272D01*
X129570795Y-67473387D01*
X129570795Y-67472655D01*
X129566351Y-67419868D01*
X129551364Y-67372487D01*
X129533182Y-67343939D01*
X129494099Y-67312717D01*
X129446757Y-67299380D01*
X129425715Y-67298265D01*
X129376762Y-67307054D01*
X129336140Y-67335977D01*
X129329483Y-67344183D01*
X129306109Y-67391393D01*
X129296492Y-67443394D01*
X129295289Y-67473387D01*
X129156028Y-67473387D01*
X129155827Y-67465083D01*
X129155827Y-67464351D01*
X129158300Y-67415075D01*
X129165719Y-67363600D01*
X129173412Y-67328063D01*
X129187546Y-67279134D01*
X129205432Y-67231416D01*
X129224947Y-67189089D01*
X129440858Y-66761175D01*
X129591312Y-66761175D01*
X129370106Y-67193152D01*
G37*
G36*
X120634612Y-71425258D02*
G01*
X120584314Y-71422373D01*
X120531559Y-71412230D01*
X120482862Y-71394784D01*
X120452651Y-71379096D01*
X120411588Y-71350193D01*
X120376050Y-71315417D01*
X120346037Y-71274768D01*
X120331751Y-71249647D01*
X120310972Y-71200458D01*
X120298210Y-71153037D01*
X120290821Y-71102135D01*
X120288764Y-71054741D01*
X120288764Y-70781922D01*
X120291451Y-70727670D01*
X120299511Y-70677020D01*
X120312945Y-70629972D01*
X120331751Y-70586528D01*
X120358694Y-70542517D01*
X120391162Y-70504456D01*
X120429156Y-70472347D01*
X120452651Y-70457079D01*
X120498644Y-70434764D01*
X120548693Y-70419753D01*
X120602800Y-70412044D01*
X120634612Y-70410917D01*
X120687043Y-70414519D01*
X120736565Y-70425324D01*
X120783176Y-70443332D01*
X120792149Y-70447798D01*
X120834586Y-70473734D01*
X120872444Y-70505443D01*
X120905722Y-70542924D01*
X120911828Y-70551113D01*
X120938871Y-70594699D01*
X120959856Y-70642723D01*
X120973563Y-70689737D01*
X120977041Y-70706207D01*
X120834159Y-70706207D01*
X120815442Y-70658721D01*
X120790684Y-70622431D01*
X120753211Y-70587140D01*
X120719365Y-70566744D01*
X120672353Y-70550550D01*
X120634612Y-70546716D01*
X120585932Y-70551836D01*
X120538505Y-70569534D01*
X120498091Y-70599874D01*
X120487334Y-70611441D01*
X120457968Y-70655795D01*
X120440837Y-70702649D01*
X120432517Y-70756070D01*
X120431647Y-70781922D01*
X120431647Y-71054741D01*
X120435127Y-71105132D01*
X120447363Y-71155580D01*
X120471291Y-71203885D01*
X120487334Y-71224979D01*
X120525645Y-71258853D01*
X120570968Y-71280181D01*
X120623304Y-71288964D01*
X120634612Y-71289214D01*
X120686150Y-71282442D01*
X120731505Y-71264170D01*
X120756978Y-71248182D01*
X120794736Y-71212324D01*
X120820055Y-71170523D01*
X120834159Y-71129968D01*
X120977041Y-71129968D01*
X120964931Y-71178199D01*
X120945631Y-71227620D01*
X120920176Y-71272653D01*
X120911340Y-71285307D01*
X120878896Y-71323813D01*
X120842017Y-71356595D01*
X120800700Y-71383652D01*
X120791905Y-71388377D01*
X120746004Y-71407826D01*
X120697146Y-71420071D01*
X120645330Y-71425114D01*
X120634612Y-71425258D01*
G37*
G36*
X121431821Y-71425258D02*
G01*
X121377675Y-71421182D01*
X121328567Y-71408954D01*
X121279342Y-71385455D01*
X121245464Y-71360045D01*
X121212476Y-71323973D01*
X121186296Y-71281215D01*
X121166924Y-71231772D01*
X121155559Y-71183023D01*
X121154361Y-71175642D01*
X121154361Y-71175153D01*
X121293824Y-71175153D01*
X121293824Y-71175642D01*
X121308539Y-71224307D01*
X121337543Y-71260882D01*
X121382154Y-71284514D01*
X121431821Y-71291168D01*
X121481197Y-71283792D01*
X121525748Y-71256948D01*
X121535380Y-71246472D01*
X121560424Y-71200350D01*
X121570728Y-71149654D01*
X121572016Y-71120443D01*
X121572016Y-71036912D01*
X121567687Y-70985353D01*
X121551408Y-70935658D01*
X121535380Y-70911127D01*
X121494379Y-70879220D01*
X121444103Y-70867065D01*
X121431821Y-70866674D01*
X121383387Y-70876372D01*
X121362212Y-70887191D01*
X121323534Y-70919228D01*
X121303349Y-70944588D01*
X121176099Y-70944588D01*
X121176099Y-70421175D01*
X121682658Y-70421175D01*
X121682658Y-70553555D01*
X121315561Y-70553555D01*
X121315561Y-70777281D01*
X121358060Y-70750903D01*
X121373691Y-70744553D01*
X121422738Y-70733562D01*
X121439393Y-70732829D01*
X121493423Y-70736639D01*
X121541821Y-70748070D01*
X121590234Y-70770464D01*
X121631290Y-70802811D01*
X121640404Y-70812452D01*
X121671500Y-70856340D01*
X121691420Y-70901428D01*
X121704538Y-70952758D01*
X121710369Y-71001722D01*
X121711479Y-71036912D01*
X121711479Y-71120443D01*
X121708903Y-71172713D01*
X121699386Y-71227834D01*
X121682857Y-71276644D01*
X121655380Y-71324698D01*
X121638206Y-71345635D01*
X121597921Y-71380470D01*
X121550096Y-71405352D01*
X121502062Y-71418959D01*
X121448255Y-71424947D01*
X121431821Y-71425258D01*
G37*
G36*
X114634502Y-83876396D02*
G01*
X114600975Y-83838789D01*
X114570844Y-83794314D01*
X114548747Y-83747544D01*
X114538477Y-83715088D01*
X114529878Y-83665615D01*
X114529339Y-83615895D01*
X114536861Y-83565930D01*
X114544522Y-83538065D01*
X114564610Y-83488590D01*
X114589118Y-83446034D01*
X114619887Y-83404817D01*
X114651945Y-83369850D01*
X114844857Y-83176937D01*
X114885119Y-83140475D01*
X114926634Y-83110359D01*
X114969400Y-83086591D01*
X115013418Y-83069169D01*
X115063590Y-83057100D01*
X115113461Y-83053146D01*
X115163032Y-83057306D01*
X115190442Y-83063124D01*
X115238742Y-83079867D01*
X115284747Y-83104642D01*
X115328457Y-83137451D01*
X115351749Y-83159149D01*
X115386276Y-83198770D01*
X115413653Y-83241427D01*
X115433878Y-83287119D01*
X115437065Y-83296622D01*
X115448733Y-83344970D01*
X115453081Y-83394161D01*
X115450109Y-83444195D01*
X115448637Y-83454303D01*
X115436939Y-83504246D01*
X115417820Y-83553042D01*
X115394267Y-83595978D01*
X115385081Y-83610083D01*
X115284048Y-83509050D01*
X115304391Y-83462238D01*
X115312545Y-83419071D01*
X115311002Y-83367619D01*
X115301491Y-83329264D01*
X115279700Y-83284570D01*
X115255724Y-83255173D01*
X115217682Y-83224371D01*
X115171632Y-83203350D01*
X115121601Y-83196226D01*
X115105816Y-83196798D01*
X115053687Y-83207397D01*
X115008444Y-83228414D01*
X114964785Y-83260306D01*
X114945890Y-83277970D01*
X114752978Y-83470882D01*
X114719808Y-83508975D01*
X114692787Y-83553300D01*
X114675550Y-83604376D01*
X114671979Y-83630635D01*
X114675116Y-83681678D01*
X114692083Y-83728808D01*
X114722880Y-83772025D01*
X114730699Y-83780198D01*
X114771930Y-83811852D01*
X114816921Y-83831002D01*
X114846239Y-83837710D01*
X114898294Y-83839053D01*
X114945754Y-83827399D01*
X114984404Y-83808695D01*
X115085436Y-83909728D01*
X115042769Y-83935270D01*
X114994175Y-83956568D01*
X114944334Y-83970411D01*
X114929138Y-83973111D01*
X114878969Y-83977398D01*
X114829710Y-83974501D01*
X114781363Y-83964418D01*
X114771803Y-83961540D01*
X114725594Y-83942835D01*
X114682387Y-83916946D01*
X114642182Y-83883873D01*
X114634502Y-83876396D01*
G37*
G36*
X114998565Y-84225952D02*
G01*
X115084055Y-84140463D01*
X115655884Y-84058773D01*
X115706220Y-84048313D01*
X115747072Y-84033903D01*
X115791490Y-84009386D01*
X115815636Y-83989172D01*
X115816500Y-83988309D01*
X115846406Y-83947550D01*
X115857086Y-83898329D01*
X115844694Y-83850965D01*
X115815788Y-83810583D01*
X115810283Y-83804895D01*
X115771223Y-83775555D01*
X115721970Y-83761210D01*
X115715467Y-83760855D01*
X115666532Y-83768782D01*
X115620790Y-83792819D01*
X115610980Y-83800060D01*
X115610462Y-83800578D01*
X115508566Y-83698681D01*
X115509084Y-83698163D01*
X115554461Y-83667970D01*
X115599773Y-83645546D01*
X115651477Y-83629430D01*
X115703094Y-83623461D01*
X115715985Y-83623554D01*
X115766394Y-83630139D01*
X115814341Y-83646783D01*
X115859828Y-83673488D01*
X115897609Y-83705107D01*
X115902853Y-83710253D01*
X115939979Y-83751958D01*
X115968395Y-83794109D01*
X115990205Y-83842828D01*
X116000637Y-83892130D01*
X116001468Y-83904547D01*
X115997744Y-83953606D01*
X115982600Y-84001132D01*
X115956035Y-84047126D01*
X115923424Y-84086113D01*
X115918051Y-84091587D01*
X115917533Y-84092105D01*
X115878348Y-84124460D01*
X115834174Y-84149932D01*
X115823754Y-84154797D01*
X115776723Y-84172803D01*
X115726843Y-84185563D01*
X115702860Y-84189684D01*
X115222910Y-84262738D01*
X115488704Y-84528533D01*
X115394925Y-84622312D01*
X114998565Y-84225952D01*
G37*
G36*
X112064658Y-79546310D02*
G01*
X111932034Y-79546310D01*
X111932034Y-79207301D01*
X111923946Y-79158668D01*
X111897331Y-79116729D01*
X111889780Y-79109603D01*
X111847358Y-79084392D01*
X111798589Y-79073623D01*
X111777428Y-79072723D01*
X111725385Y-79078810D01*
X111679437Y-79098979D01*
X111665565Y-79109603D01*
X111635061Y-79149438D01*
X111623233Y-79199792D01*
X111623066Y-79207301D01*
X111623066Y-79546310D01*
X111490443Y-79546310D01*
X111490443Y-79212674D01*
X111493949Y-79160605D01*
X111504468Y-79112782D01*
X111524137Y-79065081D01*
X111526346Y-79060999D01*
X111554378Y-79019768D01*
X111589105Y-78985405D01*
X111626486Y-78960127D01*
X111673303Y-78939686D01*
X111725431Y-78927729D01*
X111777428Y-78924223D01*
X111829215Y-78927777D01*
X111881332Y-78939896D01*
X111928370Y-78960615D01*
X111969323Y-78988844D01*
X112003523Y-79023826D01*
X112028754Y-79061488D01*
X112049195Y-79108444D01*
X112061151Y-79160653D01*
X112064658Y-79212674D01*
X112064658Y-79546310D01*
G37*
G36*
X112485000Y-79607126D02*
G01*
X111490443Y-79607126D01*
X111490443Y-79467663D01*
X112485000Y-79467663D01*
X112485000Y-79607126D01*
G37*
G36*
X112485000Y-79048054D02*
G01*
X112033883Y-79275689D01*
X112002376Y-79136959D01*
X112485000Y-78882458D01*
X112485000Y-79048054D01*
G37*
G36*
X112485000Y-78730294D02*
G01*
X112364099Y-78730294D01*
X111901992Y-78383714D01*
X111859003Y-78355517D01*
X111819926Y-78336819D01*
X111771182Y-78322748D01*
X111739815Y-78319966D01*
X111738593Y-78319966D01*
X111688626Y-78327641D01*
X111646270Y-78354893D01*
X111621540Y-78397147D01*
X111613426Y-78446141D01*
X111613297Y-78454056D01*
X111620169Y-78502421D01*
X111644853Y-78547393D01*
X111649200Y-78552241D01*
X111689408Y-78581239D01*
X111738748Y-78596586D01*
X111750806Y-78598403D01*
X111751538Y-78598403D01*
X111751538Y-78742506D01*
X111750806Y-78742506D01*
X111697369Y-78731769D01*
X111649472Y-78715585D01*
X111601517Y-78690421D01*
X111560797Y-78658142D01*
X111551748Y-78648961D01*
X111520759Y-78608661D01*
X111498625Y-78562988D01*
X111485344Y-78511941D01*
X111480986Y-78462867D01*
X111480917Y-78455521D01*
X111484155Y-78399779D01*
X111493867Y-78349880D01*
X111512895Y-78300009D01*
X111540380Y-78257770D01*
X111548572Y-78248403D01*
X111585896Y-78216346D01*
X111630211Y-78193449D01*
X111681517Y-78179710D01*
X111732145Y-78175202D01*
X111739815Y-78175130D01*
X111740547Y-78175130D01*
X111791133Y-78179960D01*
X111840381Y-78193184D01*
X111851189Y-78197112D01*
X111897176Y-78217636D01*
X111941470Y-78243884D01*
X111961343Y-78257929D01*
X112352376Y-78545647D01*
X112352376Y-78169757D01*
X112485000Y-78169757D01*
X112485000Y-78730294D01*
G37*
G36*
X125494658Y-86642114D02*
G01*
X125362034Y-86642114D01*
X125362034Y-86303105D01*
X125353946Y-86254472D01*
X125327331Y-86212533D01*
X125319780Y-86205407D01*
X125277358Y-86180196D01*
X125228589Y-86169427D01*
X125207428Y-86168527D01*
X125155385Y-86174614D01*
X125109437Y-86194783D01*
X125095565Y-86205407D01*
X125065061Y-86245242D01*
X125053233Y-86295596D01*
X125053066Y-86303105D01*
X125053066Y-86642114D01*
X124920443Y-86642114D01*
X124920443Y-86308478D01*
X124923949Y-86256409D01*
X124934468Y-86208586D01*
X124954137Y-86160885D01*
X124956346Y-86156803D01*
X124984378Y-86115572D01*
X125019105Y-86081209D01*
X125056486Y-86055931D01*
X125103303Y-86035490D01*
X125155431Y-86023533D01*
X125207428Y-86020027D01*
X125259215Y-86023581D01*
X125311332Y-86035700D01*
X125358370Y-86056419D01*
X125399323Y-86084648D01*
X125433523Y-86119630D01*
X125458754Y-86157292D01*
X125479195Y-86204248D01*
X125491151Y-86256457D01*
X125494658Y-86308478D01*
X125494658Y-86642114D01*
G37*
G36*
X125915000Y-86702930D02*
G01*
X124920443Y-86702930D01*
X124920443Y-86563467D01*
X125915000Y-86563467D01*
X125915000Y-86702930D01*
G37*
G36*
X125915000Y-86143858D02*
G01*
X125463883Y-86371493D01*
X125432376Y-86232763D01*
X125915000Y-85978262D01*
X125915000Y-86143858D01*
G37*
G36*
X125925258Y-85554012D02*
G01*
X125922300Y-85604497D01*
X125912215Y-85655347D01*
X125894972Y-85701290D01*
X125868296Y-85745231D01*
X125834064Y-85782165D01*
X125807044Y-85802895D01*
X125760527Y-85827659D01*
X125711792Y-85843661D01*
X125667581Y-85851988D01*
X125667581Y-85709839D01*
X125717196Y-85695473D01*
X125757756Y-85664286D01*
X125761615Y-85659280D01*
X125783780Y-85612447D01*
X125791053Y-85561951D01*
X125791168Y-85554012D01*
X125785082Y-85502970D01*
X125762932Y-85456799D01*
X125754288Y-85446789D01*
X125713111Y-85419265D01*
X125662768Y-85408780D01*
X125650484Y-85408443D01*
X125620443Y-85408443D01*
X125569346Y-85413526D01*
X125521802Y-85432306D01*
X125505404Y-85444591D01*
X125476127Y-85485134D01*
X125464974Y-85534983D01*
X125464616Y-85547173D01*
X125464616Y-85617515D01*
X125331992Y-85617515D01*
X125331992Y-85547173D01*
X125324317Y-85497946D01*
X125297065Y-85456559D01*
X125251890Y-85431784D01*
X125202576Y-85424838D01*
X125198635Y-85424807D01*
X125167861Y-85424807D01*
X125118580Y-85432267D01*
X125077002Y-85458757D01*
X125051846Y-85502634D01*
X125044762Y-85554744D01*
X125052212Y-85603288D01*
X125074560Y-85643893D01*
X125112967Y-85674790D01*
X125160698Y-85692408D01*
X125168593Y-85694207D01*
X125168593Y-85835624D01*
X125117414Y-85823826D01*
X125065478Y-85804218D01*
X125020534Y-85778076D01*
X124982581Y-85745401D01*
X124978328Y-85740858D01*
X124948836Y-85701657D01*
X124927770Y-85657571D01*
X124915130Y-85608600D01*
X124910917Y-85554744D01*
X124914155Y-85501225D01*
X124923867Y-85453291D01*
X124942895Y-85405351D01*
X124970380Y-85364707D01*
X124978572Y-85355687D01*
X125020995Y-85321683D01*
X125066035Y-85300801D01*
X125117975Y-85288711D01*
X125169082Y-85285345D01*
X125185690Y-85285345D01*
X125234596Y-85290107D01*
X125282681Y-85306164D01*
X125315139Y-85325645D01*
X125352302Y-85360575D01*
X125381359Y-85404917D01*
X125396228Y-85439706D01*
X125411350Y-85392451D01*
X125438232Y-85348735D01*
X125475851Y-85313677D01*
X125522820Y-85288230D01*
X125572432Y-85274262D01*
X125622711Y-85269155D01*
X125634609Y-85268980D01*
X125651217Y-85268980D01*
X125705473Y-85272545D01*
X125754120Y-85283239D01*
X125802846Y-85304190D01*
X125844245Y-85334454D01*
X125853450Y-85343474D01*
X125884866Y-85384568D01*
X125907306Y-85433356D01*
X125919578Y-85482356D01*
X125924977Y-85537247D01*
X125925258Y-85554012D01*
G37*
D15*
%TO.C,JP1*%
X112977500Y-68754724D02*
X112977500Y-68245276D01*
X114022500Y-68754724D02*
X114022500Y-68245276D01*
%TO.C,J3*%
X130239000Y-80940000D02*
X140160000Y-80940000D01*
X130239000Y-91060000D02*
X130239000Y-80940000D01*
X130239000Y-91060000D02*
X140160000Y-91060000D01*
X133199000Y-91060000D02*
X133199000Y-80940000D01*
X134225000Y-82430000D02*
X134261000Y-82465000D01*
X134431000Y-82225000D02*
X134477000Y-82272000D01*
X136523000Y-84727000D02*
X136569000Y-84774000D01*
X136739000Y-84534000D02*
X136774000Y-84569000D01*
X138100000Y-91060000D02*
X138100000Y-80940000D01*
X139600000Y-91060000D02*
X139600000Y-80940000D01*
X139660000Y-91300000D02*
X140400000Y-91300000D01*
X140160000Y-91060000D02*
X140160000Y-80940000D01*
X140400000Y-91300000D02*
X140400000Y-90800000D01*
X133964573Y-89183042D02*
G75*
G02*
X133965000Y-87816000I1535420J683041D01*
G01*
X134816958Y-86964573D02*
G75*
G02*
X136184000Y-86965000I683042J-1535427D01*
G01*
X136183042Y-90035427D02*
G75*
G02*
X134816000Y-90035000I-683041J1535420D01*
G01*
X137034756Y-87816682D02*
G75*
G02*
X137180000Y-88500000I-1534756J-683318D01*
G01*
X137180253Y-88471195D02*
G75*
G02*
X137035000Y-89184000I-1680254J-28806D01*
G01*
X137180000Y-83500000D02*
G75*
G02*
X133820000Y-83500000I-1680000J0D01*
G01*
X133820000Y-83500000D02*
G75*
G02*
X137180000Y-83500000I1680000J0D01*
G01*
%TO.C,R1*%
X123477500Y-84254724D02*
X123477500Y-83745276D01*
X124522500Y-84254724D02*
X124522500Y-83745276D01*
%TO.C,L1*%
X135171267Y-74490000D02*
X134828733Y-74490000D01*
X135171267Y-75510000D02*
X134828733Y-75510000D01*
%TO.C,J5*%
X123590000Y-71670000D02*
X123590000Y-74330000D01*
X128730000Y-71670000D02*
X123590000Y-71670000D01*
X128730000Y-71670000D02*
X128730000Y-74330000D01*
X128730000Y-74330000D02*
X123590000Y-74330000D01*
X130000000Y-71670000D02*
X131330000Y-71670000D01*
X131330000Y-71670000D02*
X131330000Y-73000000D01*
D16*
%TO.C,U1*%
X117225300Y-68977900D02*
X118774700Y-68977900D01*
X118774700Y-67022100D02*
X117225300Y-67022100D01*
D17*
X116387201Y-67500000D02*
G75*
G02*
X116209401Y-67500000I-88900J0D01*
G01*
X116209401Y-67500000D02*
G75*
G02*
X116387201Y-67500000I88900J0D01*
G01*
D15*
%TO.C,J4*%
X123590000Y-75670000D02*
X123590000Y-78330000D01*
X128730000Y-75670000D02*
X123590000Y-75670000D01*
X128730000Y-75670000D02*
X128730000Y-78330000D01*
X128730000Y-78330000D02*
X123590000Y-78330000D01*
X130000000Y-75670000D02*
X131330000Y-75670000D01*
X131330000Y-75670000D02*
X131330000Y-77000000D01*
%TO.C,R4*%
X124145276Y-67977500D02*
X124654724Y-67977500D01*
X124145276Y-69022500D02*
X124654724Y-69022500D01*
%TO.C,C1*%
X121327349Y-79836466D02*
X121163534Y-79672651D01*
X121836466Y-79327349D02*
X121672651Y-79163534D01*
%TO.C,C4*%
X117853733Y-72490000D02*
X118146267Y-72490000D01*
X117853733Y-73510000D02*
X118146267Y-73510000D01*
%TO.C,C3*%
X117853733Y-74490000D02*
X118146267Y-74490000D01*
X117853733Y-75510000D02*
X118146267Y-75510000D01*
%TO.C,R5*%
X128832776Y-64977500D02*
X129342224Y-64977500D01*
X128832776Y-66022500D02*
X129342224Y-66022500D01*
%TO.C,D1*%
X126265000Y-81200000D02*
X126265000Y-83485000D01*
X126265000Y-83485000D02*
X127735000Y-83485000D01*
X127735000Y-83485000D02*
X127735000Y-81200000D01*
%TO.C,J2*%
X107500000Y-65550000D02*
X107500000Y-66660000D01*
X107500000Y-68340000D02*
X107500000Y-69450000D01*
X111210000Y-65550000D02*
X111210000Y-66660000D01*
X111210000Y-68340000D02*
X111210000Y-69450000D01*
X111760000Y-67500000D02*
X112260000Y-67750000D01*
X112260000Y-67250000D02*
X111760000Y-67500000D01*
X112260000Y-67750000D02*
X112260000Y-67250000D01*
%TO.C,C6*%
X128884165Y-68140000D02*
X129115835Y-68140000D01*
X128884165Y-68860000D02*
X129115835Y-68860000D01*
%TO.C,J6*%
X135577500Y-68250000D02*
X135577500Y-68750000D01*
X135577500Y-68750000D02*
X136077500Y-68500000D01*
X136077500Y-68500000D02*
X135577500Y-68250000D01*
X136627500Y-67660000D02*
X136627500Y-66550000D01*
X136627500Y-70450000D02*
X136627500Y-69340000D01*
X140337500Y-67660000D02*
X140337500Y-66550000D01*
X140337500Y-70450000D02*
X140337500Y-69340000D01*
%TO.C,C5*%
X117853733Y-70490000D02*
X118146267Y-70490000D01*
X117853733Y-71510000D02*
X118146267Y-71510000D01*
%TO.C,C2*%
X115827349Y-83336466D02*
X115663534Y-83172651D01*
X116336466Y-82827349D02*
X116172651Y-82663534D01*
%TO.C,R2*%
X112977500Y-79167224D02*
X112977500Y-78657776D01*
X114022500Y-79167224D02*
X114022500Y-78657776D01*
%TO.C,J1*%
X122050000Y-88627500D02*
X123160000Y-88627500D01*
X122050000Y-92337500D02*
X123160000Y-92337500D01*
X123750000Y-87577500D02*
X124000000Y-88077500D01*
X124000000Y-88077500D02*
X124250000Y-87577500D01*
X124250000Y-87577500D02*
X123750000Y-87577500D01*
X124840000Y-88627500D02*
X125950000Y-88627500D01*
X124840000Y-92337500D02*
X125950000Y-92337500D01*
%TO.C,R3*%
X126477500Y-85745276D02*
X126477500Y-86254724D01*
X127522500Y-85745276D02*
X127522500Y-86254724D01*
%TD*%
M02*
