%TF.GenerationSoftware,KiCad,Pcbnew,8.0.2*%
%TF.CreationDate,2025-01-11T01:21:35-03:00*%
%TF.ProjectId,LED,4c45442e-6b69-4636-9164-5f7063625858,rev?*%
%TF.SameCoordinates,Original*%
%TF.FileFunction,Legend,Bot*%
%TF.FilePolarity,Positive*%
%FSLAX46Y46*%
G04 Gerber Fmt 4.6, Leading zero omitted, Abs format (unit mm)*
G04 Created by KiCad (PCBNEW 8.0.2) date 2025-01-11 01:21:35*
%MOMM*%
%LPD*%
G01*
G04 APERTURE LIST*
%ADD10C,0.150000*%
%ADD11C,0.120000*%
G04 APERTURE END LIST*
D10*
X146714818Y-94166666D02*
X147429103Y-94166666D01*
X147429103Y-94166666D02*
X147571960Y-94119047D01*
X147571960Y-94119047D02*
X147667199Y-94023809D01*
X147667199Y-94023809D02*
X147714818Y-93880952D01*
X147714818Y-93880952D02*
X147714818Y-93785714D01*
X146714818Y-94547619D02*
X146714818Y-95166666D01*
X146714818Y-95166666D02*
X147095770Y-94833333D01*
X147095770Y-94833333D02*
X147095770Y-94976190D01*
X147095770Y-94976190D02*
X147143389Y-95071428D01*
X147143389Y-95071428D02*
X147191008Y-95119047D01*
X147191008Y-95119047D02*
X147286246Y-95166666D01*
X147286246Y-95166666D02*
X147524341Y-95166666D01*
X147524341Y-95166666D02*
X147619579Y-95119047D01*
X147619579Y-95119047D02*
X147667199Y-95071428D01*
X147667199Y-95071428D02*
X147714818Y-94976190D01*
X147714818Y-94976190D02*
X147714818Y-94690476D01*
X147714818Y-94690476D02*
X147667199Y-94595238D01*
X147667199Y-94595238D02*
X147619579Y-94547619D01*
X154204819Y-114666666D02*
X154919104Y-114666666D01*
X154919104Y-114666666D02*
X155061961Y-114619047D01*
X155061961Y-114619047D02*
X155157200Y-114523809D01*
X155157200Y-114523809D02*
X155204819Y-114380952D01*
X155204819Y-114380952D02*
X155204819Y-114285714D01*
X154300057Y-115095238D02*
X154252438Y-115142857D01*
X154252438Y-115142857D02*
X154204819Y-115238095D01*
X154204819Y-115238095D02*
X154204819Y-115476190D01*
X154204819Y-115476190D02*
X154252438Y-115571428D01*
X154252438Y-115571428D02*
X154300057Y-115619047D01*
X154300057Y-115619047D02*
X154395295Y-115666666D01*
X154395295Y-115666666D02*
X154490533Y-115666666D01*
X154490533Y-115666666D02*
X154633390Y-115619047D01*
X154633390Y-115619047D02*
X155204819Y-115047619D01*
X155204819Y-115047619D02*
X155204819Y-115666666D01*
X174204819Y-114666666D02*
X174919104Y-114666666D01*
X174919104Y-114666666D02*
X175061961Y-114619047D01*
X175061961Y-114619047D02*
X175157200Y-114523809D01*
X175157200Y-114523809D02*
X175204819Y-114380952D01*
X175204819Y-114380952D02*
X175204819Y-114285714D01*
X175204819Y-115666666D02*
X175204819Y-115095238D01*
X175204819Y-115380952D02*
X174204819Y-115380952D01*
X174204819Y-115380952D02*
X174347676Y-115285714D01*
X174347676Y-115285714D02*
X174442914Y-115190476D01*
X174442914Y-115190476D02*
X174490533Y-115095238D01*
D11*
%TO.C,J3*%
X136100000Y-99800000D02*
X136840000Y-99800000D01*
X136100000Y-99300000D02*
X136100000Y-99800000D01*
X136340000Y-99560000D02*
X146261000Y-99560000D01*
X146261000Y-89440000D02*
X146261000Y-99560000D01*
X143301000Y-89440000D02*
X143301000Y-99560000D01*
X138400000Y-89440000D02*
X138400000Y-99560000D01*
X136900000Y-89440000D02*
X136900000Y-99560000D01*
X136340000Y-89440000D02*
X136340000Y-99560000D01*
X139931000Y-93274000D02*
X139977000Y-93227000D01*
X139726000Y-93069000D02*
X139761000Y-93034000D01*
X142239000Y-90965000D02*
X142275000Y-90930000D01*
X142023000Y-90772000D02*
X142069000Y-90725000D01*
X136340000Y-89440000D02*
X146261000Y-89440000D01*
X141684000Y-98535000D02*
G75*
G02*
X140316958Y-98535427I-684001J1534993D01*
G01*
X142535000Y-96316000D02*
G75*
G02*
X142535427Y-97683042I-1534993J-684001D01*
G01*
X139465000Y-97684000D02*
G75*
G02*
X139319747Y-96971195I1535001J683999D01*
G01*
X139320000Y-97000000D02*
G75*
G02*
X139465244Y-96316682I1680000J0D01*
G01*
X140316000Y-95465000D02*
G75*
G02*
X141683042Y-95464573I684000J-1535000D01*
G01*
X142680000Y-92000000D02*
G75*
G02*
X139320000Y-92000000I-1680000J0D01*
G01*
X139320000Y-92000000D02*
G75*
G02*
X142680000Y-92000000I1680000J0D01*
G01*
%TO.C,J2*%
X148340000Y-118610000D02*
X151660000Y-118610000D01*
X153610000Y-113340000D02*
X153610000Y-116660000D01*
X146390000Y-113340000D02*
X146390000Y-116660000D01*
X148340000Y-111390000D02*
X151660000Y-111390000D01*
%TO.C,J1*%
X168340000Y-118610000D02*
X171660000Y-118610000D01*
X173610000Y-113340000D02*
X173610000Y-116660000D01*
X166390000Y-113340000D02*
X166390000Y-116660000D01*
X168340000Y-111390000D02*
X171660000Y-111390000D01*
%TD*%
M02*
