%TF.GenerationSoftware,KiCad,Pcbnew,8.0.2*%
%TF.CreationDate,2025-01-11T01:21:35-03:00*%
%TF.ProjectId,LED,4c45442e-6b69-4636-9164-5f7063625858,rev?*%
%TF.SameCoordinates,Original*%
%TF.FileFunction,Legend,Top*%
%TF.FilePolarity,Positive*%
%FSLAX46Y46*%
G04 Gerber Fmt 4.6, Leading zero omitted, Abs format (unit mm)*
G04 Created by KiCad (PCBNEW 8.0.2) date 2025-01-11 01:21:35*
%MOMM*%
%LPD*%
G01*
G04 APERTURE LIST*
%ADD10C,0.100000*%
%ADD11C,0.150000*%
%ADD12C,0.120000*%
G04 APERTURE END LIST*
D10*
G36*
X150523237Y-97518645D02*
G01*
X150565007Y-97555121D01*
X150571808Y-97567211D01*
X150584449Y-97620924D01*
X150578978Y-97678171D01*
X150571853Y-97705927D01*
X150548315Y-97758809D01*
X150513692Y-97801758D01*
X150501144Y-97812651D01*
X150453195Y-97839341D01*
X150398971Y-97848237D01*
X150118731Y-97848237D01*
X150189425Y-97508373D01*
X150469631Y-97508373D01*
X150523237Y-97518645D01*
G37*
G36*
X150868755Y-98578722D02*
G01*
X149296651Y-98578722D01*
X149296651Y-98456500D01*
X149418873Y-98456500D01*
X149568790Y-98456500D01*
X149842293Y-98456500D01*
X149992209Y-98456500D01*
X150088386Y-97994123D01*
X150311659Y-97994123D01*
X150443839Y-98456500D01*
X150621965Y-98456500D01*
X150474646Y-97977714D01*
X150483792Y-97975456D01*
X150533842Y-97954629D01*
X150538671Y-97952130D01*
X150584397Y-97923763D01*
X150629302Y-97885467D01*
X150665220Y-97844207D01*
X150671836Y-97835215D01*
X150700886Y-97787485D01*
X150723219Y-97735137D01*
X150738835Y-97678171D01*
X150746533Y-97626477D01*
X150746475Y-97568605D01*
X150734536Y-97512135D01*
X150724247Y-97486733D01*
X150692881Y-97439213D01*
X150649100Y-97401981D01*
X150603056Y-97379496D01*
X150549519Y-97366344D01*
X150494348Y-97362487D01*
X150219770Y-97362487D01*
X150069854Y-97362487D01*
X149968815Y-97848237D01*
X149842293Y-98456500D01*
X149568790Y-98456500D01*
X149796082Y-97363293D01*
X149646166Y-97363293D01*
X149418873Y-98456500D01*
X149296651Y-98456500D01*
X149296651Y-97240265D01*
X150868755Y-97240265D01*
X150868755Y-98578722D01*
G37*
G36*
X141987330Y-88578722D02*
G01*
X140268441Y-88578722D01*
X140268441Y-87363293D01*
X140390663Y-87363293D01*
X140512100Y-88456500D01*
X140654762Y-88456500D01*
X140881725Y-88025557D01*
X141237501Y-88025557D01*
X141461468Y-88025557D01*
X141413210Y-88257954D01*
X141563126Y-88257954D01*
X141611384Y-88025557D01*
X141834748Y-88025557D01*
X141865108Y-87879671D01*
X141641679Y-87879671D01*
X141689937Y-87647274D01*
X141540021Y-87647274D01*
X141491763Y-87879671D01*
X141267861Y-87879671D01*
X141237501Y-88025557D01*
X140881725Y-88025557D01*
X141230516Y-87363293D01*
X141067435Y-87363293D01*
X140632463Y-88220341D01*
X140554012Y-87363293D01*
X140390663Y-87363293D01*
X140268441Y-87363293D01*
X140268441Y-87241071D01*
X141987330Y-87241071D01*
X141987330Y-88578722D01*
G37*
G36*
X142211194Y-100509156D02*
G01*
X142270258Y-100516339D01*
X142323572Y-100535986D01*
X142367247Y-100571779D01*
X142376354Y-100584017D01*
X142398351Y-100636610D01*
X142402812Y-100694946D01*
X142395726Y-100748830D01*
X142328827Y-101070693D01*
X142320030Y-101105200D01*
X142297517Y-101160966D01*
X142266418Y-101208570D01*
X142226734Y-101248014D01*
X142195999Y-101269288D01*
X142144583Y-101292946D01*
X142086792Y-101306701D01*
X142030070Y-101310613D01*
X141836602Y-101310613D01*
X142003286Y-100508911D01*
X142196643Y-100508911D01*
X142211194Y-100509156D01*
G37*
G36*
X142681918Y-101590006D02*
G01*
X139521018Y-101590006D01*
X139521018Y-101172123D01*
X139643240Y-101172123D01*
X139645989Y-101228415D01*
X139658814Y-101285627D01*
X139660672Y-101291013D01*
X139684222Y-101340685D01*
X139720552Y-101386536D01*
X139763056Y-101420229D01*
X139787587Y-101433929D01*
X139842275Y-101454362D01*
X139897910Y-101464811D01*
X139952467Y-101467784D01*
X139994313Y-101465998D01*
X140048021Y-101458064D01*
X140053474Y-101456500D01*
X141656354Y-101456500D01*
X141757910Y-101456500D01*
X141994606Y-101456500D01*
X142002671Y-101456454D01*
X142057558Y-101453611D01*
X142116916Y-101444947D01*
X142172681Y-101430506D01*
X142224853Y-101410289D01*
X142267365Y-101388092D01*
X142311825Y-101357875D01*
X142356584Y-101317699D01*
X142391696Y-101276493D01*
X142395787Y-101270983D01*
X142425685Y-101224335D01*
X142450545Y-101173121D01*
X142470367Y-101117339D01*
X142483580Y-101064783D01*
X142548060Y-100755010D01*
X142550357Y-100743438D01*
X142558223Y-100688036D01*
X142559696Y-100626956D01*
X142552480Y-100571770D01*
X142533078Y-100514836D01*
X142501849Y-100465924D01*
X142496436Y-100459610D01*
X142452565Y-100421023D01*
X142398230Y-100392258D01*
X142343327Y-100375420D01*
X142280736Y-100365799D01*
X142222704Y-100363293D01*
X142033562Y-100363293D01*
X141883646Y-100363293D01*
X141686686Y-101310613D01*
X141656354Y-101456500D01*
X140053474Y-101456500D01*
X140056287Y-101455693D01*
X140578730Y-101455693D01*
X140727303Y-101455693D01*
X140894411Y-100651593D01*
X141231054Y-101455693D01*
X141368611Y-101455693D01*
X141595635Y-100363293D01*
X141447062Y-100363293D01*
X141277343Y-101179667D01*
X140941968Y-100363293D01*
X140805753Y-100363293D01*
X140578730Y-101455693D01*
X140056287Y-101455693D01*
X140105593Y-101441551D01*
X140160146Y-101417005D01*
X140200145Y-101392810D01*
X140247530Y-101355884D01*
X140285832Y-101317565D01*
X140320541Y-101274075D01*
X140324616Y-101268285D01*
X140354400Y-101219773D01*
X140379180Y-101167366D01*
X140398957Y-101111064D01*
X140412156Y-101058603D01*
X140451919Y-100867850D01*
X140081158Y-100867850D01*
X140050530Y-101014273D01*
X140267613Y-101014273D01*
X140257673Y-101061827D01*
X140246565Y-101105295D01*
X140226348Y-101157433D01*
X140196217Y-101208140D01*
X140158266Y-101250432D01*
X140144085Y-101262531D01*
X140093542Y-101294268D01*
X140037962Y-101312780D01*
X139983632Y-101318136D01*
X139925496Y-101311865D01*
X139873486Y-101290482D01*
X139833984Y-101253924D01*
X139828214Y-101245700D01*
X139806309Y-101194573D01*
X139800831Y-101139444D01*
X139807655Y-101082784D01*
X139874822Y-100760114D01*
X139885675Y-100717994D01*
X139905699Y-100666830D01*
X139935813Y-100616095D01*
X139973960Y-100572585D01*
X139993153Y-100555898D01*
X140039161Y-100526487D01*
X140094868Y-100507020D01*
X140149131Y-100501388D01*
X140165780Y-100502093D01*
X140219688Y-100515669D01*
X140266807Y-100546524D01*
X140288972Y-100571594D01*
X140312384Y-100623005D01*
X140320003Y-100676827D01*
X140482547Y-100676827D01*
X140482626Y-100670740D01*
X140479237Y-100612546D01*
X140468238Y-100559232D01*
X140447352Y-100506224D01*
X140426966Y-100471717D01*
X140388958Y-100427576D01*
X140342034Y-100392578D01*
X140292134Y-100369480D01*
X140236265Y-100355971D01*
X140180296Y-100352009D01*
X140138441Y-100353794D01*
X140084691Y-100361728D01*
X140027032Y-100378241D01*
X139972348Y-100402787D01*
X139932454Y-100426865D01*
X139885166Y-100463640D01*
X139846914Y-100501824D01*
X139812222Y-100545181D01*
X139808164Y-100550938D01*
X139778514Y-100599222D01*
X139753868Y-100651469D01*
X139734226Y-100707680D01*
X139721144Y-100760114D01*
X139653977Y-101082784D01*
X139647791Y-101118268D01*
X139643240Y-101172123D01*
X139521018Y-101172123D01*
X139521018Y-100229787D01*
X142681918Y-100229787D01*
X142681918Y-101590006D01*
G37*
G36*
X171670064Y-97727153D02*
G01*
X171725716Y-97740467D01*
X171765949Y-97780566D01*
X171780815Y-97817880D01*
X171787364Y-97873393D01*
X171783413Y-97928601D01*
X171445597Y-97928601D01*
X171460742Y-97879564D01*
X171485929Y-97829105D01*
X171521999Y-97784327D01*
X171557266Y-97756664D01*
X171610569Y-97733863D01*
X171665736Y-97727101D01*
X171670064Y-97727153D01*
G37*
G36*
X171047734Y-95879761D02*
G01*
X171099655Y-95896833D01*
X171110148Y-95904289D01*
X171139686Y-95950566D01*
X171144611Y-95981557D01*
X171139761Y-96034637D01*
X171095730Y-96246412D01*
X171095893Y-96245294D01*
X171084941Y-96283809D01*
X171060161Y-96331805D01*
X171041522Y-96354588D01*
X170997830Y-96387151D01*
X170968348Y-96398775D01*
X170912662Y-96406226D01*
X170903529Y-96406045D01*
X170849055Y-96394673D01*
X170807076Y-96360015D01*
X170795781Y-96337934D01*
X170787230Y-96282586D01*
X170793643Y-96228637D01*
X170829107Y-96058839D01*
X170838433Y-96023182D01*
X170861719Y-95970609D01*
X170897348Y-95925849D01*
X170917130Y-95909688D01*
X170965758Y-95886143D01*
X171022279Y-95878295D01*
X171047734Y-95879761D01*
G37*
G36*
X170216574Y-95879153D02*
G01*
X170272227Y-95892467D01*
X170312460Y-95932566D01*
X170327326Y-95969880D01*
X170333875Y-96025393D01*
X170329923Y-96080601D01*
X169992108Y-96080601D01*
X170007253Y-96031564D01*
X170032440Y-95981105D01*
X170068510Y-95936327D01*
X170103777Y-95908664D01*
X170157080Y-95885863D01*
X170212247Y-95879101D01*
X170216574Y-95879153D01*
G37*
G36*
X169499077Y-95594645D02*
G01*
X169540848Y-95631121D01*
X169547649Y-95643211D01*
X169560290Y-95696924D01*
X169554819Y-95754171D01*
X169547694Y-95781927D01*
X169524156Y-95834809D01*
X169489533Y-95877758D01*
X169476985Y-95888651D01*
X169429035Y-95915341D01*
X169374812Y-95924237D01*
X169094572Y-95924237D01*
X169165266Y-95584373D01*
X169445471Y-95584373D01*
X169499077Y-95594645D01*
G37*
G36*
X172050039Y-98514006D02*
G01*
X168188937Y-98514006D01*
X168188937Y-97287293D01*
X168311159Y-97287293D01*
X168345011Y-98380500D01*
X168498151Y-98380500D01*
X168862732Y-97616410D01*
X168900883Y-98380500D01*
X169054023Y-98380500D01*
X169483085Y-98380500D01*
X169633270Y-98380500D01*
X169736469Y-97884142D01*
X169740652Y-97866913D01*
X169763602Y-97814159D01*
X169799306Y-97773849D01*
X169815035Y-97762549D01*
X169865637Y-97741097D01*
X169921281Y-97734624D01*
X169930678Y-97734800D01*
X169986701Y-97745908D01*
X170029822Y-97779760D01*
X170040174Y-97798008D01*
X170050812Y-97850873D01*
X170044868Y-97907645D01*
X169946535Y-98380500D01*
X170096452Y-98380500D01*
X170342819Y-98380500D01*
X170493004Y-98380500D01*
X170525424Y-98224572D01*
X170783585Y-98224572D01*
X170784401Y-98279909D01*
X170801166Y-98331065D01*
X170820678Y-98354338D01*
X170869145Y-98377975D01*
X170926364Y-98384261D01*
X171013144Y-98384261D01*
X171043503Y-98238375D01*
X170971232Y-98238375D01*
X170942216Y-98222523D01*
X170940335Y-98178999D01*
X170950424Y-98130493D01*
X171267391Y-98130493D01*
X171269788Y-98190753D01*
X171284649Y-98250649D01*
X171312439Y-98300974D01*
X171326085Y-98317203D01*
X171370302Y-98352675D01*
X171425904Y-98376796D01*
X171483894Y-98388591D01*
X171540538Y-98391784D01*
X171581162Y-98389382D01*
X171636650Y-98378709D01*
X171688842Y-98361424D01*
X171740806Y-98337415D01*
X171790674Y-98307501D01*
X171834191Y-98275182D01*
X171756546Y-98174432D01*
X171715333Y-98202862D01*
X171665199Y-98227091D01*
X171626176Y-98239267D01*
X171570897Y-98245897D01*
X171538547Y-98244074D01*
X171484671Y-98229491D01*
X171440056Y-98194045D01*
X171421197Y-98157229D01*
X171413943Y-98101413D01*
X171419903Y-98051920D01*
X171900283Y-98051920D01*
X171911029Y-98000873D01*
X171913470Y-97988734D01*
X171922833Y-97930596D01*
X171927817Y-97866460D01*
X171925981Y-97808462D01*
X171915221Y-97748558D01*
X171895178Y-97697010D01*
X171891566Y-97690349D01*
X171856492Y-97644671D01*
X171810437Y-97612528D01*
X171753400Y-97593918D01*
X171694484Y-97588737D01*
X171657026Y-97590232D01*
X171595131Y-97600039D01*
X171537890Y-97619000D01*
X171485303Y-97647115D01*
X171437369Y-97684383D01*
X171424637Y-97696614D01*
X171384239Y-97744281D01*
X171354770Y-97791155D01*
X171330061Y-97843582D01*
X171310112Y-97901564D01*
X171303432Y-97928601D01*
X171297125Y-97954125D01*
X171278856Y-98042248D01*
X171273216Y-98073009D01*
X171267391Y-98130493D01*
X170950424Y-98130493D01*
X171031983Y-97738385D01*
X171147478Y-97738385D01*
X171176225Y-97600021D01*
X171060762Y-97600021D01*
X171107983Y-97372998D01*
X170958067Y-97372998D01*
X170910828Y-97600021D01*
X170832062Y-97600021D01*
X170803315Y-97738385D01*
X170882036Y-97738385D01*
X170790688Y-98177387D01*
X170783585Y-98224572D01*
X170525424Y-98224572D01*
X170655279Y-97600021D01*
X170505094Y-97600021D01*
X170342819Y-98380500D01*
X170096452Y-98380500D01*
X170195053Y-97906839D01*
X170196937Y-97897403D01*
X170205631Y-97835122D01*
X170206458Y-97779449D01*
X170197768Y-97723915D01*
X170175708Y-97671756D01*
X170158050Y-97647839D01*
X170111988Y-97612167D01*
X170058284Y-97593926D01*
X170000806Y-97588737D01*
X169970791Y-97590563D01*
X169916071Y-97603640D01*
X169866741Y-97626888D01*
X169827601Y-97653608D01*
X169788001Y-97690030D01*
X169773042Y-97708233D01*
X169828722Y-97440433D01*
X170538140Y-97440433D01*
X170688325Y-97440433D01*
X170720297Y-97287293D01*
X170570112Y-97287293D01*
X170538140Y-97440433D01*
X169828722Y-97440433D01*
X169860562Y-97287293D01*
X169710377Y-97287293D01*
X169483085Y-98380500D01*
X169054023Y-98380500D01*
X169542460Y-97287293D01*
X169386633Y-97287293D01*
X169019365Y-98144341D01*
X168978528Y-97287293D01*
X168875360Y-97287293D01*
X168478001Y-98144341D01*
X168466986Y-97287293D01*
X168311159Y-97287293D01*
X168188937Y-97287293D01*
X168188937Y-96532500D01*
X168818133Y-96532500D01*
X168968050Y-96532500D01*
X169064227Y-96070123D01*
X169287500Y-96070123D01*
X169419679Y-96532500D01*
X169597805Y-96532500D01*
X169520880Y-96282493D01*
X169813902Y-96282493D01*
X169816299Y-96342753D01*
X169831160Y-96402649D01*
X169858950Y-96452974D01*
X169872596Y-96469203D01*
X169916813Y-96504675D01*
X169972414Y-96528796D01*
X170030405Y-96540591D01*
X170087048Y-96543784D01*
X170127673Y-96541382D01*
X170183161Y-96530709D01*
X170235353Y-96513424D01*
X170287316Y-96489415D01*
X170337185Y-96459501D01*
X170380701Y-96427182D01*
X170325418Y-96355448D01*
X170632230Y-96355448D01*
X170641159Y-96410819D01*
X170663608Y-96462915D01*
X170681558Y-96486831D01*
X170728438Y-96522503D01*
X170783148Y-96540744D01*
X170841734Y-96545933D01*
X170875968Y-96543940D01*
X170929870Y-96531252D01*
X170981441Y-96504289D01*
X170999236Y-96491007D01*
X171039180Y-96453955D01*
X171057756Y-96429054D01*
X171036249Y-96532500D01*
X171186434Y-96532500D01*
X171413727Y-95439293D01*
X171263542Y-95439293D01*
X171177740Y-95851972D01*
X171158163Y-95814834D01*
X171118461Y-95774590D01*
X171109178Y-95768108D01*
X171057803Y-95745262D01*
X171002397Y-95738319D01*
X170943626Y-95743525D01*
X170889557Y-95759141D01*
X170840189Y-95785168D01*
X170795523Y-95821606D01*
X170770369Y-95849229D01*
X170739494Y-95893542D01*
X170713684Y-95944438D01*
X170692940Y-96001915D01*
X170679191Y-96056421D01*
X170643458Y-96228637D01*
X170641574Y-96238024D01*
X170635358Y-96282586D01*
X170632929Y-96300002D01*
X170632230Y-96355448D01*
X170325418Y-96355448D01*
X170303057Y-96326432D01*
X170261844Y-96354862D01*
X170211710Y-96379091D01*
X170172687Y-96391267D01*
X170117408Y-96397897D01*
X170085057Y-96396074D01*
X170031181Y-96381491D01*
X169986567Y-96346045D01*
X169967708Y-96309229D01*
X169960454Y-96253413D01*
X169966414Y-96203920D01*
X170446794Y-96203920D01*
X170457540Y-96152873D01*
X170459981Y-96140734D01*
X170469344Y-96082596D01*
X170474328Y-96018460D01*
X170472492Y-95960462D01*
X170461732Y-95900558D01*
X170441689Y-95849010D01*
X170438077Y-95842349D01*
X170403003Y-95796671D01*
X170356948Y-95764528D01*
X170299911Y-95745918D01*
X170240995Y-95740737D01*
X170203536Y-95742232D01*
X170141641Y-95752039D01*
X170084400Y-95771000D01*
X170031813Y-95799115D01*
X169983880Y-95836383D01*
X169971148Y-95848614D01*
X169930750Y-95896281D01*
X169901281Y-95943155D01*
X169876572Y-95995582D01*
X169856623Y-96053564D01*
X169849943Y-96080601D01*
X169843636Y-96106125D01*
X169825366Y-96194248D01*
X169819727Y-96225009D01*
X169813902Y-96282493D01*
X169520880Y-96282493D01*
X169450487Y-96053714D01*
X169459633Y-96051456D01*
X169509683Y-96030629D01*
X169514512Y-96028130D01*
X169560238Y-95999763D01*
X169605142Y-95961467D01*
X169641061Y-95920207D01*
X169647677Y-95911215D01*
X169676726Y-95863485D01*
X169699059Y-95811137D01*
X169714676Y-95754171D01*
X169722374Y-95702477D01*
X169722316Y-95644605D01*
X169710377Y-95588135D01*
X169700088Y-95562733D01*
X169668722Y-95515213D01*
X169624941Y-95477981D01*
X169578896Y-95455496D01*
X169525360Y-95442344D01*
X169470189Y-95438487D01*
X169195611Y-95438487D01*
X169045694Y-95438487D01*
X168944655Y-95924237D01*
X168818133Y-96532500D01*
X168188937Y-96532500D01*
X168188937Y-95316265D01*
X172050039Y-95316265D01*
X172050039Y-98514006D01*
G37*
D11*
X154914819Y-93166666D02*
X154914819Y-93642856D01*
X154914819Y-93642856D02*
X153914819Y-93642856D01*
X154914819Y-92309523D02*
X154914819Y-92880951D01*
X154914819Y-92595237D02*
X153914819Y-92595237D01*
X153914819Y-92595237D02*
X154057676Y-92690475D01*
X154057676Y-92690475D02*
X154152914Y-92785713D01*
X154152914Y-92785713D02*
X154200533Y-92880951D01*
X149199580Y-108166666D02*
X149247200Y-108214285D01*
X149247200Y-108214285D02*
X149294819Y-108357142D01*
X149294819Y-108357142D02*
X149294819Y-108452380D01*
X149294819Y-108452380D02*
X149247200Y-108595237D01*
X149247200Y-108595237D02*
X149151961Y-108690475D01*
X149151961Y-108690475D02*
X149056723Y-108738094D01*
X149056723Y-108738094D02*
X148866247Y-108785713D01*
X148866247Y-108785713D02*
X148723390Y-108785713D01*
X148723390Y-108785713D02*
X148532914Y-108738094D01*
X148532914Y-108738094D02*
X148437676Y-108690475D01*
X148437676Y-108690475D02*
X148342438Y-108595237D01*
X148342438Y-108595237D02*
X148294819Y-108452380D01*
X148294819Y-108452380D02*
X148294819Y-108357142D01*
X148294819Y-108357142D02*
X148342438Y-108214285D01*
X148342438Y-108214285D02*
X148390057Y-108166666D01*
X148390057Y-107785713D02*
X148342438Y-107738094D01*
X148342438Y-107738094D02*
X148294819Y-107642856D01*
X148294819Y-107642856D02*
X148294819Y-107404761D01*
X148294819Y-107404761D02*
X148342438Y-107309523D01*
X148342438Y-107309523D02*
X148390057Y-107261904D01*
X148390057Y-107261904D02*
X148485295Y-107214285D01*
X148485295Y-107214285D02*
X148580533Y-107214285D01*
X148580533Y-107214285D02*
X148723390Y-107261904D01*
X148723390Y-107261904D02*
X149294819Y-107833332D01*
X149294819Y-107833332D02*
X149294819Y-107214285D01*
X169199580Y-108166666D02*
X169247200Y-108214285D01*
X169247200Y-108214285D02*
X169294819Y-108357142D01*
X169294819Y-108357142D02*
X169294819Y-108452380D01*
X169294819Y-108452380D02*
X169247200Y-108595237D01*
X169247200Y-108595237D02*
X169151961Y-108690475D01*
X169151961Y-108690475D02*
X169056723Y-108738094D01*
X169056723Y-108738094D02*
X168866247Y-108785713D01*
X168866247Y-108785713D02*
X168723390Y-108785713D01*
X168723390Y-108785713D02*
X168532914Y-108738094D01*
X168532914Y-108738094D02*
X168437676Y-108690475D01*
X168437676Y-108690475D02*
X168342438Y-108595237D01*
X168342438Y-108595237D02*
X168294819Y-108452380D01*
X168294819Y-108452380D02*
X168294819Y-108357142D01*
X168294819Y-108357142D02*
X168342438Y-108214285D01*
X168342438Y-108214285D02*
X168390057Y-108166666D01*
X169294819Y-107214285D02*
X169294819Y-107785713D01*
X169294819Y-107499999D02*
X168294819Y-107499999D01*
X168294819Y-107499999D02*
X168437676Y-107595237D01*
X168437676Y-107595237D02*
X168532914Y-107690475D01*
X168532914Y-107690475D02*
X168580533Y-107785713D01*
D12*
%TO.C,L1*%
X155700000Y-98400000D02*
X162300000Y-98400000D01*
X162300000Y-98400000D02*
X162300000Y-98260000D01*
X162300000Y-95700000D02*
X162300000Y-87600000D01*
X155700000Y-90300000D02*
X155700000Y-98400000D01*
X155700000Y-87600000D02*
X155700000Y-87740000D01*
X162300000Y-87600000D02*
X155700000Y-87600000D01*
%TO.C,C2*%
X149640000Y-108115835D02*
X149640000Y-107884165D01*
X150360000Y-108115835D02*
X150360000Y-107884165D01*
%TO.C,C1*%
X169640000Y-108115835D02*
X169640000Y-107884165D01*
X170360000Y-108115835D02*
X170360000Y-107884165D01*
%TD*%
M02*
