%TF.GenerationSoftware,KiCad,Pcbnew,8.0.2*%
%TF.CreationDate,2025-01-11T01:21:35-03:00*%
%TF.ProjectId,LED,4c45442e-6b69-4636-9164-5f7063625858,rev?*%
%TF.SameCoordinates,Original*%
%TF.FileFunction,Copper,L1,Top*%
%TF.FilePolarity,Positive*%
%FSLAX46Y46*%
G04 Gerber Fmt 4.6, Leading zero omitted, Abs format (unit mm)*
G04 Created by KiCad (PCBNEW 8.0.2) date 2025-01-11 01:21:35*
%MOMM*%
%LPD*%
G01*
G04 APERTURE LIST*
G04 Aperture macros list*
%AMRoundRect*
0 Rectangle with rounded corners*
0 $1 Rounding radius*
0 $2 $3 $4 $5 $6 $7 $8 $9 X,Y pos of 4 corners*
0 Add a 4 corners polygon primitive as box body*
4,1,4,$2,$3,$4,$5,$6,$7,$8,$9,$2,$3,0*
0 Add four circle primitives for the rounded corners*
1,1,$1+$1,$2,$3*
1,1,$1+$1,$4,$5*
1,1,$1+$1,$6,$7*
1,1,$1+$1,$8,$9*
0 Add four rect primitives between the rounded corners*
20,1,$1+$1,$2,$3,$4,$5,0*
20,1,$1+$1,$4,$5,$6,$7,0*
20,1,$1+$1,$6,$7,$8,$9,0*
20,1,$1+$1,$8,$9,$2,$3,0*%
G04 Aperture macros list end*
%TA.AperFunction,SMDPad,CuDef*%
%ADD10R,2.800000X0.550000*%
%TD*%
%TA.AperFunction,SMDPad,CuDef*%
%ADD11R,2.800000X1.000000*%
%TD*%
%TA.AperFunction,SMDPad,CuDef*%
%ADD12RoundRect,0.250000X-2.100000X0.770000X-2.100000X-0.770000X2.100000X-0.770000X2.100000X0.770000X0*%
%TD*%
%TA.AperFunction,SMDPad,CuDef*%
%ADD13RoundRect,0.155000X0.155000X-0.212500X0.155000X0.212500X-0.155000X0.212500X-0.155000X-0.212500X0*%
%TD*%
%TA.AperFunction,SMDPad,CuDef*%
%ADD14R,3.302000X0.508000*%
%TD*%
%TA.AperFunction,SMDPad,CuDef*%
%ADD15R,3.302000X1.295400*%
%TD*%
%TA.AperFunction,ComponentPad*%
%ADD16R,2.600000X2.600000*%
%TD*%
%TA.AperFunction,ComponentPad*%
%ADD17C,2.600000*%
%TD*%
%TA.AperFunction,ComponentPad*%
%ADD18C,2.050000*%
%TD*%
%TA.AperFunction,ComponentPad*%
%ADD19C,2.250000*%
%TD*%
%TA.AperFunction,ViaPad*%
%ADD20C,0.600000*%
%TD*%
%TA.AperFunction,Conductor*%
%ADD21C,1.000000*%
%TD*%
%TA.AperFunction,Conductor*%
%ADD22C,3.000000*%
%TD*%
%TA.AperFunction,Conductor*%
%ADD23C,2.000000*%
%TD*%
%TA.AperFunction,Conductor*%
%ADD24C,0.500000*%
%TD*%
G04 APERTURE END LIST*
D10*
%TO.P,LED1,1,cathode*%
%TO.N,GND*%
X150000000Y-102875000D03*
D11*
%TO.P,LED1,2,thermal*%
X150000000Y-104000000D03*
D10*
%TO.P,LED1,3,anode*%
%TO.N,Net-(LED1-anode)*%
X150000000Y-105125000D03*
%TD*%
D12*
%TO.P,L1,1,1*%
%TO.N,Net-(LED1-anode)*%
X160210000Y-96980000D03*
%TO.P,L1,2,2*%
%TO.N,Net-(J3-Pin_2)*%
X157790000Y-89020000D03*
%TD*%
D13*
%TO.P,C2,1*%
%TO.N,Net-(J2-In)*%
X150000000Y-108567500D03*
%TO.P,C2,2*%
%TO.N,Net-(LED1-anode)*%
X150000000Y-107432500D03*
%TD*%
D14*
%TO.P,LED2,1,cathode*%
%TO.N,GND*%
X170000000Y-102603000D03*
D15*
%TO.P,LED2,2,thermal*%
X170000000Y-104000000D03*
D14*
%TO.P,LED2,3,anode*%
%TO.N,Net-(LED1-anode)*%
X170000000Y-105397000D03*
%TD*%
D13*
%TO.P,C1,1*%
%TO.N,Net-(J1-In)*%
X170000000Y-108567500D03*
%TO.P,C1,2*%
%TO.N,Net-(LED1-anode)*%
X170000000Y-107432500D03*
%TD*%
D16*
%TO.P,J3,1,Pin_1*%
%TO.N,GND*%
X141000000Y-97000000D03*
D17*
%TO.P,J3,2,Pin_2*%
%TO.N,Net-(J3-Pin_2)*%
X141000000Y-92000000D03*
%TD*%
D18*
%TO.P,J2,1,In*%
%TO.N,Net-(J2-In)*%
X150000000Y-115000000D03*
D19*
%TO.P,J2,2,Ext*%
%TO.N,GND*%
X152540000Y-117540000D03*
X147460000Y-117540000D03*
X152540000Y-112460000D03*
X147460000Y-112460000D03*
%TD*%
D18*
%TO.P,J1,1,In*%
%TO.N,Net-(J1-In)*%
X170000000Y-115000000D03*
D19*
%TO.P,J1,2,Ext*%
%TO.N,GND*%
X172540000Y-117540000D03*
X167460000Y-117540000D03*
X172540000Y-112460000D03*
X167460000Y-112460000D03*
%TD*%
D20*
%TO.N,GND*%
X152000000Y-102000000D03*
X171000000Y-102000000D03*
X175000000Y-103000000D03*
X166000000Y-104000000D03*
X148000000Y-101000000D03*
X173000000Y-104000000D03*
X150000000Y-100000000D03*
X165000000Y-103000000D03*
X174000000Y-105000000D03*
X145000000Y-106000000D03*
X148000000Y-102000000D03*
X151000000Y-101000000D03*
X171000000Y-100000000D03*
X172000000Y-103000000D03*
X147000000Y-104000000D03*
X149000000Y-102000000D03*
X148000000Y-103000000D03*
X168000000Y-102000000D03*
X173000000Y-105000000D03*
X146000000Y-105000000D03*
X146000000Y-102000000D03*
X166000000Y-103000000D03*
X167000000Y-104000000D03*
X147000000Y-103000000D03*
X170000000Y-100000000D03*
X145000000Y-104000000D03*
X174000000Y-102000000D03*
X175000000Y-104000000D03*
X169000000Y-100000000D03*
X153000000Y-105000000D03*
X154000000Y-102000000D03*
X150000000Y-104000000D03*
X167000000Y-103000000D03*
X173000000Y-106000000D03*
X147000000Y-101000000D03*
X169000000Y-104000000D03*
X167000000Y-101000000D03*
X146000000Y-104000000D03*
X171000000Y-101000000D03*
X170000000Y-102000000D03*
X148000000Y-100000000D03*
X168000000Y-100000000D03*
X155000000Y-103000000D03*
X146000000Y-106000000D03*
X173000000Y-101000000D03*
X150000000Y-102000000D03*
X152000000Y-100000000D03*
X167000000Y-102000000D03*
X170000000Y-101000000D03*
X166000000Y-102000000D03*
X149000000Y-101000000D03*
X168000000Y-101000000D03*
X169000000Y-102000000D03*
X174000000Y-103000000D03*
X169000000Y-101000000D03*
X149000000Y-104000000D03*
X150000000Y-101000000D03*
X174000000Y-104000000D03*
X145000000Y-103000000D03*
X149000000Y-100000000D03*
X173000000Y-102000000D03*
X152000000Y-104000000D03*
X168000000Y-103000000D03*
X172000000Y-102000000D03*
X175000000Y-105000000D03*
X171000000Y-104000000D03*
X147000000Y-102000000D03*
X167000000Y-105000000D03*
X174000000Y-106000000D03*
X172000000Y-101000000D03*
X151000000Y-102000000D03*
X151000000Y-104000000D03*
X152000000Y-101000000D03*
X147000000Y-105000000D03*
X153000000Y-101000000D03*
X152000000Y-103000000D03*
X147000000Y-106000000D03*
X153000000Y-103000000D03*
X151000000Y-100000000D03*
X165000000Y-104000000D03*
X153000000Y-102000000D03*
X148000000Y-104000000D03*
X173000000Y-103000000D03*
X154000000Y-103000000D03*
X153000000Y-104000000D03*
X170000000Y-104000000D03*
X146000000Y-103000000D03*
X145000000Y-105000000D03*
X175000000Y-106000000D03*
X155000000Y-104000000D03*
X154000000Y-104000000D03*
X172000000Y-100000000D03*
X168000000Y-104000000D03*
X172000000Y-104000000D03*
%TD*%
D21*
%TO.N,Net-(J1-In)*%
X170000000Y-115000000D02*
X170000000Y-108862500D01*
%TO.N,Net-(J2-In)*%
X150000000Y-108567500D02*
X150000000Y-115000000D01*
D22*
%TO.N,Net-(J3-Pin_2)*%
X149805001Y-89000000D02*
X149785001Y-89020000D01*
X146000000Y-89000000D02*
X143000000Y-92000000D01*
D23*
X154000000Y-89000000D02*
X154020000Y-89020000D01*
D22*
X154000000Y-89000000D02*
X149805001Y-89000000D01*
X143000000Y-92000000D02*
X141000000Y-92000000D01*
X149785001Y-89020000D02*
X149765001Y-89000000D01*
X149765001Y-89000000D02*
X146000000Y-89000000D01*
D23*
X154020000Y-89020000D02*
X157790000Y-89020000D01*
%TO.N,Net-(LED1-anode)*%
X160210000Y-97790000D02*
X160000000Y-98000000D01*
D22*
X157000000Y-107000000D02*
X155000781Y-107000000D01*
X163000000Y-107000000D02*
X165000000Y-107000000D01*
D24*
X155000000Y-107000781D02*
X150375663Y-107000781D01*
D22*
X160000000Y-98000000D02*
X160000000Y-104000000D01*
X155000781Y-107000000D02*
X155000000Y-107000781D01*
D24*
X165000000Y-107000000D02*
X169567500Y-107000000D01*
D23*
X160210000Y-96980000D02*
X160210000Y-97790000D01*
D24*
X150375663Y-107000781D02*
G75*
G03*
X149999962Y-107432500I62837J-434019D01*
G01*
X169567500Y-107000000D02*
G75*
G02*
X170000000Y-107432500I0J-432500D01*
G01*
D22*
X160000000Y-104000000D02*
G75*
G02*
X157000000Y-107000000I-3000000J0D01*
G01*
X160000000Y-104000000D02*
G75*
G03*
X163000000Y-107000000I3000000J0D01*
G01*
%TD*%
%TA.AperFunction,Conductor*%
%TO.N,Net-(LED1-anode)*%
G36*
X151347278Y-105414352D02*
G01*
X151361630Y-105449000D01*
X151354441Y-105474551D01*
X150314330Y-107176551D01*
X150284016Y-107198632D01*
X150272519Y-107200000D01*
X149727481Y-107200000D01*
X149692833Y-107185648D01*
X149685670Y-107176551D01*
X148645559Y-105474551D01*
X148639738Y-105437503D01*
X148661819Y-105407189D01*
X148687370Y-105400000D01*
X151312630Y-105400000D01*
X151347278Y-105414352D01*
G37*
%TD.AperFunction*%
%TD*%
%TA.AperFunction,Conductor*%
%TO.N,Net-(LED1-anode)*%
G36*
X171531700Y-105614352D02*
G01*
X171546052Y-105649000D01*
X171535082Y-105679899D01*
X170314707Y-107181899D01*
X170281719Y-107199740D01*
X170276677Y-107200000D01*
X169723323Y-107200000D01*
X169688675Y-107185648D01*
X169685293Y-107181899D01*
X168464918Y-105679899D01*
X168454208Y-105643958D01*
X168472049Y-105610970D01*
X168502948Y-105600000D01*
X171497052Y-105600000D01*
X171531700Y-105614352D01*
G37*
%TD.AperFunction*%
%TD*%
%TA.AperFunction,Conductor*%
%TO.N,GND*%
G36*
X178877052Y-86019962D02*
G01*
X178931590Y-86074500D01*
X178951552Y-86149000D01*
X178931590Y-86223500D01*
X178892723Y-86267618D01*
X178762912Y-86366297D01*
X178491275Y-86623604D01*
X178249039Y-86908787D01*
X178249038Y-86908788D01*
X178039071Y-87218469D01*
X178039070Y-87218470D01*
X177863815Y-87549036D01*
X177863811Y-87549043D01*
X177725320Y-87896631D01*
X177625221Y-88257151D01*
X177625220Y-88257156D01*
X177564689Y-88626386D01*
X177564688Y-88626396D01*
X177544432Y-88999991D01*
X177544432Y-89000008D01*
X177564688Y-89373603D01*
X177564689Y-89373613D01*
X177625220Y-89742843D01*
X177625221Y-89742848D01*
X177725320Y-90103368D01*
X177863811Y-90450956D01*
X177863815Y-90450963D01*
X178039070Y-90781529D01*
X178039071Y-90781530D01*
X178249038Y-91091211D01*
X178249039Y-91091212D01*
X178249043Y-91091217D01*
X178249046Y-91091221D01*
X178305031Y-91157131D01*
X178491275Y-91376395D01*
X178762912Y-91633702D01*
X179060778Y-91860135D01*
X179381377Y-92053033D01*
X179381381Y-92053035D01*
X179381383Y-92053036D01*
X179720962Y-92210142D01*
X180075538Y-92329613D01*
X180440951Y-92410046D01*
X180812919Y-92450500D01*
X180812928Y-92450500D01*
X181187072Y-92450500D01*
X181187081Y-92450500D01*
X181559049Y-92410046D01*
X181924462Y-92329613D01*
X182279038Y-92210142D01*
X182618617Y-92053036D01*
X182939220Y-91860136D01*
X183237087Y-91633703D01*
X183508727Y-91376392D01*
X183737438Y-91107132D01*
X183800882Y-91063275D01*
X183877756Y-91057015D01*
X183947460Y-91090031D01*
X183991318Y-91153475D01*
X184000000Y-91203593D01*
X184000000Y-113796406D01*
X183980038Y-113870906D01*
X183925500Y-113925444D01*
X183851000Y-113945406D01*
X183776500Y-113925444D01*
X183737438Y-113892867D01*
X183698073Y-113846523D01*
X183508727Y-113623608D01*
X183237087Y-113366297D01*
X183035771Y-113213260D01*
X182939221Y-113139864D01*
X182618622Y-112946966D01*
X182279038Y-112789858D01*
X181924466Y-112670388D01*
X181924463Y-112670387D01*
X181924462Y-112670387D01*
X181795860Y-112642079D01*
X181559050Y-112589954D01*
X181187081Y-112549500D01*
X180812919Y-112549500D01*
X180812918Y-112549500D01*
X180440949Y-112589954D01*
X180440948Y-112589954D01*
X180075533Y-112670388D01*
X179720961Y-112789858D01*
X179381377Y-112946966D01*
X179060778Y-113139864D01*
X178762912Y-113366297D01*
X178491275Y-113623604D01*
X178249039Y-113908787D01*
X178249038Y-113908788D01*
X178039071Y-114218469D01*
X178039070Y-114218470D01*
X177863815Y-114549036D01*
X177863811Y-114549043D01*
X177725320Y-114896631D01*
X177625221Y-115257151D01*
X177625220Y-115257156D01*
X177564689Y-115626386D01*
X177564688Y-115626396D01*
X177544432Y-115999991D01*
X177544432Y-116000008D01*
X177564688Y-116373603D01*
X177564689Y-116373613D01*
X177625220Y-116742843D01*
X177625221Y-116742848D01*
X177725320Y-117103368D01*
X177863811Y-117450956D01*
X177863815Y-117450963D01*
X178039070Y-117781529D01*
X178039071Y-117781530D01*
X178249038Y-118091211D01*
X178249039Y-118091212D01*
X178249043Y-118091217D01*
X178249046Y-118091221D01*
X178305031Y-118157131D01*
X178491275Y-118376395D01*
X178762912Y-118633702D01*
X178892723Y-118732382D01*
X178939951Y-118793360D01*
X178950364Y-118869782D01*
X178921170Y-118941171D01*
X178860192Y-118988399D01*
X178802552Y-119000000D01*
X173651202Y-119000000D01*
X173576702Y-118980038D01*
X173522164Y-118925500D01*
X173503943Y-118857498D01*
X172940561Y-118294115D01*
X172942626Y-118293260D01*
X173081844Y-118200238D01*
X173200238Y-118081844D01*
X173293260Y-117942626D01*
X173294115Y-117940560D01*
X173855466Y-118501911D01*
X173858719Y-118498102D01*
X173858722Y-118498098D01*
X173992361Y-118280018D01*
X173992364Y-118280013D01*
X174090244Y-118043707D01*
X174149955Y-117794997D01*
X174170024Y-117540000D01*
X174149955Y-117285002D01*
X174090244Y-117036292D01*
X173992365Y-116799988D01*
X173858717Y-116581893D01*
X173858713Y-116581888D01*
X173855466Y-116578087D01*
X173294114Y-117139437D01*
X173293260Y-117137374D01*
X173200238Y-116998156D01*
X173081844Y-116879762D01*
X172942626Y-116786740D01*
X172940560Y-116785884D01*
X173501912Y-116224533D01*
X173501911Y-116224532D01*
X173498107Y-116221283D01*
X173280018Y-116087638D01*
X173280013Y-116087635D01*
X173043707Y-115989755D01*
X172794997Y-115930044D01*
X172540000Y-115909975D01*
X172285002Y-115930044D01*
X172036292Y-115989755D01*
X171799986Y-116087635D01*
X171799981Y-116087638D01*
X171581897Y-116221279D01*
X171581896Y-116221280D01*
X171578087Y-116224532D01*
X171578087Y-116224533D01*
X172139438Y-116785884D01*
X172137374Y-116786740D01*
X171998156Y-116879762D01*
X171879762Y-116998156D01*
X171786740Y-117137374D01*
X171785884Y-117139438D01*
X171224533Y-116578087D01*
X171224532Y-116578087D01*
X171221280Y-116581896D01*
X171221279Y-116581897D01*
X171087638Y-116799981D01*
X171087635Y-116799986D01*
X170989755Y-117036292D01*
X170930044Y-117285002D01*
X170909975Y-117540000D01*
X170930044Y-117794997D01*
X170989755Y-118043707D01*
X171087635Y-118280013D01*
X171087638Y-118280018D01*
X171221283Y-118498107D01*
X171224532Y-118501911D01*
X171224533Y-118501912D01*
X171785884Y-117940560D01*
X171786740Y-117942626D01*
X171879762Y-118081844D01*
X171998156Y-118200238D01*
X172137374Y-118293260D01*
X172139438Y-118294114D01*
X171574545Y-118859008D01*
X171560662Y-118920373D01*
X171508309Y-118977011D01*
X171434651Y-118999885D01*
X171428797Y-119000000D01*
X168571202Y-119000000D01*
X168496702Y-118980038D01*
X168442164Y-118925500D01*
X168423943Y-118857498D01*
X167860561Y-118294115D01*
X167862626Y-118293260D01*
X168001844Y-118200238D01*
X168120238Y-118081844D01*
X168213260Y-117942626D01*
X168214115Y-117940560D01*
X168775466Y-118501911D01*
X168778719Y-118498102D01*
X168778722Y-118498098D01*
X168912361Y-118280018D01*
X168912364Y-118280013D01*
X169010244Y-118043707D01*
X169069955Y-117794997D01*
X169090024Y-117540000D01*
X169069955Y-117285002D01*
X169010244Y-117036292D01*
X168912365Y-116799988D01*
X168778717Y-116581893D01*
X168778713Y-116581888D01*
X168775466Y-116578087D01*
X168214114Y-117139437D01*
X168213260Y-117137374D01*
X168120238Y-116998156D01*
X168001844Y-116879762D01*
X167862626Y-116786740D01*
X167860560Y-116785884D01*
X168421912Y-116224533D01*
X168421911Y-116224532D01*
X168418107Y-116221283D01*
X168200018Y-116087638D01*
X168200013Y-116087635D01*
X167963707Y-115989755D01*
X167714997Y-115930044D01*
X167460000Y-115909975D01*
X167205002Y-115930044D01*
X166956292Y-115989755D01*
X166719986Y-116087635D01*
X166719981Y-116087638D01*
X166501897Y-116221279D01*
X166501896Y-116221280D01*
X166498087Y-116224532D01*
X166498087Y-116224533D01*
X167059438Y-116785884D01*
X167057374Y-116786740D01*
X166918156Y-116879762D01*
X166799762Y-116998156D01*
X166706740Y-117137374D01*
X166705884Y-117139438D01*
X166144533Y-116578087D01*
X166144532Y-116578087D01*
X166141280Y-116581896D01*
X166141279Y-116581897D01*
X166007638Y-116799981D01*
X166007635Y-116799986D01*
X165909755Y-117036292D01*
X165850044Y-117285002D01*
X165829975Y-117540000D01*
X165850044Y-117794997D01*
X165909755Y-118043707D01*
X166007635Y-118280013D01*
X166007638Y-118280018D01*
X166141283Y-118498107D01*
X166144532Y-118501911D01*
X166144533Y-118501912D01*
X166705884Y-117940560D01*
X166706740Y-117942626D01*
X166799762Y-118081844D01*
X166918156Y-118200238D01*
X167057374Y-118293260D01*
X167059438Y-118294114D01*
X166494545Y-118859008D01*
X166480662Y-118920373D01*
X166428309Y-118977011D01*
X166354651Y-118999885D01*
X166348797Y-119000000D01*
X153651202Y-119000000D01*
X153576702Y-118980038D01*
X153522164Y-118925500D01*
X153503943Y-118857498D01*
X152940561Y-118294115D01*
X152942626Y-118293260D01*
X153081844Y-118200238D01*
X153200238Y-118081844D01*
X153293260Y-117942626D01*
X153294115Y-117940560D01*
X153855466Y-118501911D01*
X153858719Y-118498102D01*
X153858722Y-118498098D01*
X153992361Y-118280018D01*
X153992364Y-118280013D01*
X154090244Y-118043707D01*
X154149955Y-117794997D01*
X154170024Y-117540000D01*
X154149955Y-117285002D01*
X154090244Y-117036292D01*
X153992365Y-116799988D01*
X153858717Y-116581893D01*
X153858713Y-116581888D01*
X153855466Y-116578087D01*
X153294114Y-117139437D01*
X153293260Y-117137374D01*
X153200238Y-116998156D01*
X153081844Y-116879762D01*
X152942626Y-116786740D01*
X152940560Y-116785884D01*
X153501912Y-116224533D01*
X153501911Y-116224532D01*
X153498107Y-116221283D01*
X153280018Y-116087638D01*
X153280013Y-116087635D01*
X153043707Y-115989755D01*
X152794997Y-115930044D01*
X152540000Y-115909975D01*
X152285002Y-115930044D01*
X152036292Y-115989755D01*
X151799986Y-116087635D01*
X151799981Y-116087638D01*
X151581897Y-116221279D01*
X151581896Y-116221280D01*
X151578087Y-116224532D01*
X151578087Y-116224533D01*
X152139438Y-116785884D01*
X152137374Y-116786740D01*
X151998156Y-116879762D01*
X151879762Y-116998156D01*
X151786740Y-117137374D01*
X151785884Y-117139438D01*
X151224533Y-116578087D01*
X151224532Y-116578087D01*
X151221280Y-116581896D01*
X151221279Y-116581897D01*
X151087638Y-116799981D01*
X151087635Y-116799986D01*
X150989755Y-117036292D01*
X150930044Y-117285002D01*
X150909975Y-117540000D01*
X150930044Y-117794997D01*
X150989755Y-118043707D01*
X151087635Y-118280013D01*
X151087638Y-118280018D01*
X151221283Y-118498107D01*
X151224532Y-118501911D01*
X151224533Y-118501912D01*
X151785884Y-117940560D01*
X151786740Y-117942626D01*
X151879762Y-118081844D01*
X151998156Y-118200238D01*
X152137374Y-118293260D01*
X152139438Y-118294114D01*
X151574545Y-118859008D01*
X151560662Y-118920373D01*
X151508309Y-118977011D01*
X151434651Y-118999885D01*
X151428797Y-119000000D01*
X148571202Y-119000000D01*
X148496702Y-118980038D01*
X148442164Y-118925500D01*
X148423943Y-118857498D01*
X147860561Y-118294115D01*
X147862626Y-118293260D01*
X148001844Y-118200238D01*
X148120238Y-118081844D01*
X148213260Y-117942626D01*
X148214115Y-117940560D01*
X148775466Y-118501911D01*
X148778719Y-118498102D01*
X148778722Y-118498098D01*
X148912361Y-118280018D01*
X148912364Y-118280013D01*
X149010244Y-118043707D01*
X149069955Y-117794997D01*
X149090024Y-117540000D01*
X149069955Y-117285002D01*
X149010244Y-117036292D01*
X148912365Y-116799988D01*
X148778717Y-116581893D01*
X148778713Y-116581888D01*
X148775466Y-116578087D01*
X148214114Y-117139437D01*
X148213260Y-117137374D01*
X148120238Y-116998156D01*
X148001844Y-116879762D01*
X147862626Y-116786740D01*
X147860560Y-116785884D01*
X148421912Y-116224533D01*
X148421911Y-116224532D01*
X148418107Y-116221283D01*
X148200018Y-116087638D01*
X148200013Y-116087635D01*
X147963707Y-115989755D01*
X147714997Y-115930044D01*
X147460000Y-115909975D01*
X147205002Y-115930044D01*
X146956292Y-115989755D01*
X146719986Y-116087635D01*
X146719981Y-116087638D01*
X146501897Y-116221279D01*
X146501896Y-116221280D01*
X146498087Y-116224532D01*
X146498087Y-116224533D01*
X147059438Y-116785884D01*
X147057374Y-116786740D01*
X146918156Y-116879762D01*
X146799762Y-116998156D01*
X146706740Y-117137374D01*
X146705884Y-117139438D01*
X146144533Y-116578087D01*
X146144532Y-116578087D01*
X146141280Y-116581896D01*
X146141279Y-116581897D01*
X146007638Y-116799981D01*
X146007635Y-116799986D01*
X145909755Y-117036292D01*
X145850044Y-117285002D01*
X145829975Y-117540000D01*
X145850044Y-117794997D01*
X145909755Y-118043707D01*
X146007635Y-118280013D01*
X146007638Y-118280018D01*
X146141283Y-118498107D01*
X146144532Y-118501911D01*
X146144533Y-118501912D01*
X146705884Y-117940560D01*
X146706740Y-117942626D01*
X146799762Y-118081844D01*
X146918156Y-118200238D01*
X147057374Y-118293260D01*
X147059438Y-118294114D01*
X146494545Y-118859008D01*
X146480662Y-118920373D01*
X146428309Y-118977011D01*
X146354651Y-118999885D01*
X146348797Y-119000000D01*
X141197448Y-119000000D01*
X141122948Y-118980038D01*
X141068410Y-118925500D01*
X141048448Y-118851000D01*
X141068410Y-118776500D01*
X141107277Y-118732382D01*
X141237087Y-118633703D01*
X141508727Y-118376392D01*
X141750954Y-118091221D01*
X141960928Y-117781531D01*
X142136189Y-117450955D01*
X142274680Y-117103368D01*
X142374779Y-116742845D01*
X142435311Y-116373613D01*
X142449347Y-116114734D01*
X142455568Y-116000008D01*
X142455568Y-115999991D01*
X142439015Y-115694700D01*
X142435311Y-115626387D01*
X142374779Y-115257155D01*
X142274680Y-114896632D01*
X142136189Y-114549045D01*
X142024745Y-114338840D01*
X141960929Y-114218470D01*
X141960928Y-114218469D01*
X141750961Y-113908788D01*
X141750960Y-113908787D01*
X141750957Y-113908783D01*
X141750954Y-113908779D01*
X141587923Y-113716845D01*
X141508724Y-113623604D01*
X141237087Y-113366297D01*
X140939221Y-113139864D01*
X140618622Y-112946966D01*
X140279038Y-112789858D01*
X139924466Y-112670388D01*
X139924463Y-112670387D01*
X139924462Y-112670387D01*
X139795860Y-112642079D01*
X139559050Y-112589954D01*
X139187081Y-112549500D01*
X138812919Y-112549500D01*
X138812918Y-112549500D01*
X138440949Y-112589954D01*
X138440948Y-112589954D01*
X138075533Y-112670388D01*
X137720961Y-112789858D01*
X137381377Y-112946966D01*
X137060778Y-113139864D01*
X136762912Y-113366297D01*
X136491275Y-113623605D01*
X136262562Y-113892867D01*
X136199117Y-113936724D01*
X136122244Y-113942984D01*
X136052539Y-113909968D01*
X136008682Y-113846523D01*
X136000000Y-113796406D01*
X136000000Y-112460000D01*
X145829975Y-112460000D01*
X145850044Y-112714997D01*
X145909755Y-112963707D01*
X146007635Y-113200013D01*
X146007638Y-113200018D01*
X146141283Y-113418107D01*
X146144532Y-113421911D01*
X146144533Y-113421912D01*
X146705884Y-112860560D01*
X146706740Y-112862626D01*
X146799762Y-113001844D01*
X146918156Y-113120238D01*
X147057374Y-113213260D01*
X147059438Y-113214114D01*
X146498087Y-113775466D01*
X146498087Y-113775467D01*
X146501888Y-113778713D01*
X146501893Y-113778717D01*
X146719988Y-113912365D01*
X146956292Y-114010244D01*
X147205002Y-114069955D01*
X147460000Y-114090024D01*
X147714997Y-114069955D01*
X147963707Y-114010244D01*
X148200011Y-113912365D01*
X148418103Y-113778719D01*
X148490546Y-113716846D01*
X148560160Y-113683641D01*
X148637051Y-113689692D01*
X148700615Y-113733377D01*
X148733820Y-113802991D01*
X148731027Y-113869488D01*
X148568188Y-114464320D01*
X148567023Y-114468972D01*
X148560148Y-114489783D01*
X148544675Y-114527140D01*
X148488625Y-114760610D01*
X148488623Y-114760617D01*
X148469783Y-115000000D01*
X148488623Y-115239382D01*
X148488625Y-115239389D01*
X148544673Y-115472851D01*
X148544676Y-115472860D01*
X148636564Y-115694698D01*
X148636565Y-115694700D01*
X148762029Y-115899441D01*
X148847915Y-116000000D01*
X148917973Y-116082027D01*
X149009267Y-116159999D01*
X149100558Y-116237970D01*
X149100560Y-116237971D01*
X149100561Y-116237972D01*
X149305296Y-116363433D01*
X149527137Y-116455323D01*
X149527144Y-116455324D01*
X149527148Y-116455326D01*
X149643879Y-116483350D01*
X149760621Y-116511377D01*
X150000000Y-116530217D01*
X150239379Y-116511377D01*
X150472863Y-116455323D01*
X150694704Y-116363433D01*
X150899439Y-116237972D01*
X151082027Y-116082027D01*
X151237972Y-115899439D01*
X151363433Y-115694704D01*
X151455323Y-115472863D01*
X151511377Y-115239379D01*
X151530217Y-115000000D01*
X151511377Y-114760621D01*
X151455323Y-114527137D01*
X151439747Y-114489535D01*
X151433635Y-114469356D01*
X151433221Y-114469470D01*
X151279730Y-113908787D01*
X151268970Y-113869486D01*
X151268553Y-113792360D01*
X151306755Y-113725358D01*
X151373341Y-113686433D01*
X151450468Y-113686015D01*
X151509451Y-113716845D01*
X151581892Y-113778716D01*
X151799988Y-113912365D01*
X152036292Y-114010244D01*
X152285002Y-114069955D01*
X152540000Y-114090024D01*
X152794997Y-114069955D01*
X153043707Y-114010244D01*
X153280013Y-113912364D01*
X153280018Y-113912361D01*
X153498098Y-113778722D01*
X153498102Y-113778719D01*
X153501911Y-113775466D01*
X152940561Y-113214115D01*
X152942626Y-113213260D01*
X153081844Y-113120238D01*
X153200238Y-113001844D01*
X153293260Y-112862626D01*
X153294115Y-112860560D01*
X153855466Y-113421911D01*
X153858719Y-113418102D01*
X153858722Y-113418098D01*
X153992361Y-113200018D01*
X153992364Y-113200013D01*
X154090244Y-112963707D01*
X154149955Y-112714997D01*
X154170024Y-112460000D01*
X154149955Y-112205002D01*
X154090244Y-111956292D01*
X153992365Y-111719988D01*
X153858717Y-111501893D01*
X153858713Y-111501888D01*
X153855466Y-111498087D01*
X153294114Y-112059437D01*
X153293260Y-112057374D01*
X153200238Y-111918156D01*
X153081844Y-111799762D01*
X152942626Y-111706740D01*
X152940560Y-111705884D01*
X153501912Y-111144533D01*
X153501911Y-111144532D01*
X153498107Y-111141283D01*
X153280018Y-111007638D01*
X153280013Y-111007635D01*
X153043707Y-110909755D01*
X152794997Y-110850044D01*
X152540000Y-110829975D01*
X152285002Y-110850044D01*
X152036292Y-110909755D01*
X151799986Y-111007635D01*
X151799981Y-111007638D01*
X151581897Y-111141279D01*
X151581896Y-111141280D01*
X151578087Y-111144532D01*
X151578087Y-111144533D01*
X152139438Y-111705884D01*
X152137374Y-111706740D01*
X151998156Y-111799762D01*
X151879762Y-111918156D01*
X151786740Y-112057374D01*
X151785884Y-112059438D01*
X151224533Y-111498087D01*
X151159400Y-111500653D01*
X151159377Y-111500085D01*
X151122369Y-111503004D01*
X151052749Y-111469810D01*
X151009054Y-111406254D01*
X151000500Y-111356495D01*
X151000500Y-108468960D01*
X150984273Y-108387384D01*
X150962051Y-108275665D01*
X150886632Y-108093586D01*
X150885973Y-108092600D01*
X150825200Y-108001647D01*
X150812781Y-107983061D01*
X150787989Y-107910027D01*
X150803036Y-107834381D01*
X150853889Y-107776393D01*
X150926924Y-107751600D01*
X150936670Y-107751281D01*
X152327867Y-107751281D01*
X152398001Y-107768819D01*
X153401129Y-108303978D01*
X153537915Y-108376952D01*
X153573140Y-108403055D01*
X153678149Y-108508064D01*
X153886198Y-108667705D01*
X154113303Y-108798824D01*
X154249130Y-108855085D01*
X154355572Y-108899176D01*
X154355576Y-108899177D01*
X154355581Y-108899179D01*
X154608884Y-108967052D01*
X154608890Y-108967052D01*
X154608891Y-108967053D01*
X154679579Y-108976358D01*
X154868880Y-109001280D01*
X155131120Y-109001280D01*
X155135987Y-109000961D01*
X155136003Y-109001208D01*
X155146810Y-109000500D01*
X157206818Y-109000500D01*
X157206822Y-109000500D01*
X157619054Y-108966341D01*
X158027057Y-108898258D01*
X158428044Y-108796714D01*
X158819276Y-108662404D01*
X159198080Y-108496245D01*
X159561869Y-108299372D01*
X159908159Y-108073130D01*
X159908470Y-108072888D01*
X159908538Y-108072859D01*
X159910669Y-108071338D01*
X159911009Y-108071815D01*
X159979518Y-108042874D01*
X160056055Y-108052406D01*
X160089189Y-108071536D01*
X160089331Y-108071338D01*
X160091383Y-108072803D01*
X160091530Y-108072888D01*
X160091841Y-108073130D01*
X160438131Y-108299372D01*
X160801920Y-108496245D01*
X161180724Y-108662404D01*
X161571956Y-108796714D01*
X161972943Y-108898258D01*
X162380946Y-108966341D01*
X162793178Y-109000500D01*
X162793182Y-109000500D01*
X165131122Y-109000500D01*
X165131122Y-109000499D01*
X165391108Y-108966271D01*
X165391110Y-108966271D01*
X165391111Y-108966270D01*
X165391116Y-108966270D01*
X165644415Y-108898399D01*
X165644416Y-108898399D01*
X165644417Y-108898398D01*
X165644419Y-108898398D01*
X165886697Y-108798043D01*
X166113803Y-108666924D01*
X166321851Y-108507282D01*
X166424741Y-108404390D01*
X166459918Y-108378313D01*
X167602965Y-107768059D01*
X167673139Y-107750500D01*
X169081174Y-107750500D01*
X169155674Y-107770462D01*
X169210212Y-107825000D01*
X169224258Y-107857930D01*
X169238630Y-107907400D01*
X169248538Y-107924153D01*
X169269279Y-107998440D01*
X169250098Y-108073145D01*
X169248538Y-108075847D01*
X169238630Y-108092599D01*
X169190300Y-108258953D01*
X169188612Y-108258462D01*
X169170599Y-108302932D01*
X169113373Y-108388576D01*
X169113364Y-108388594D01*
X169037949Y-108570663D01*
X169037948Y-108570665D01*
X168999500Y-108763960D01*
X168999500Y-111356511D01*
X168979538Y-111431011D01*
X168925000Y-111485549D01*
X168850500Y-111505511D01*
X168830933Y-111500268D01*
X168775466Y-111498087D01*
X168214114Y-112059438D01*
X168213260Y-112057374D01*
X168120238Y-111918156D01*
X168001844Y-111799762D01*
X167862626Y-111706740D01*
X167860560Y-111705884D01*
X168421912Y-111144533D01*
X168421911Y-111144532D01*
X168418107Y-111141283D01*
X168200018Y-111007638D01*
X168200013Y-111007635D01*
X167963707Y-110909755D01*
X167714997Y-110850044D01*
X167460000Y-110829975D01*
X167205002Y-110850044D01*
X166956292Y-110909755D01*
X166719986Y-111007635D01*
X166719981Y-111007638D01*
X166501897Y-111141279D01*
X166501896Y-111141280D01*
X166498087Y-111144532D01*
X166498087Y-111144533D01*
X167059438Y-111705884D01*
X167057374Y-111706740D01*
X166918156Y-111799762D01*
X166799762Y-111918156D01*
X166706740Y-112057374D01*
X166705884Y-112059438D01*
X166144533Y-111498087D01*
X166144532Y-111498087D01*
X166141280Y-111501896D01*
X166141279Y-111501897D01*
X166007638Y-111719981D01*
X166007635Y-111719986D01*
X165909755Y-111956292D01*
X165850044Y-112205002D01*
X165829975Y-112460000D01*
X165850044Y-112714997D01*
X165909755Y-112963707D01*
X166007635Y-113200013D01*
X166007638Y-113200018D01*
X166141283Y-113418107D01*
X166144532Y-113421911D01*
X166144533Y-113421912D01*
X166705884Y-112860560D01*
X166706740Y-112862626D01*
X166799762Y-113001844D01*
X166918156Y-113120238D01*
X167057374Y-113213260D01*
X167059438Y-113214114D01*
X166498087Y-113775466D01*
X166498087Y-113775467D01*
X166501888Y-113778713D01*
X166501893Y-113778717D01*
X166719988Y-113912365D01*
X166956292Y-114010244D01*
X167205002Y-114069955D01*
X167460000Y-114090024D01*
X167714997Y-114069955D01*
X167963707Y-114010244D01*
X168200011Y-113912365D01*
X168418103Y-113778719D01*
X168490546Y-113716846D01*
X168560160Y-113683641D01*
X168637051Y-113689692D01*
X168700615Y-113733377D01*
X168733820Y-113802991D01*
X168731027Y-113869488D01*
X168568188Y-114464320D01*
X168567023Y-114468972D01*
X168560148Y-114489783D01*
X168544675Y-114527140D01*
X168488625Y-114760610D01*
X168488623Y-114760617D01*
X168469783Y-115000000D01*
X168488623Y-115239382D01*
X168488625Y-115239389D01*
X168544673Y-115472851D01*
X168544676Y-115472860D01*
X168636564Y-115694698D01*
X168636565Y-115694700D01*
X168762029Y-115899441D01*
X168847915Y-116000000D01*
X168917973Y-116082027D01*
X169009267Y-116159999D01*
X169100558Y-116237970D01*
X169100560Y-116237971D01*
X169100561Y-116237972D01*
X169305296Y-116363433D01*
X169527137Y-116455323D01*
X169527144Y-116455324D01*
X169527148Y-116455326D01*
X169643879Y-116483350D01*
X169760621Y-116511377D01*
X170000000Y-116530217D01*
X170239379Y-116511377D01*
X170472863Y-116455323D01*
X170694704Y-116363433D01*
X170899439Y-116237972D01*
X171082027Y-116082027D01*
X171237972Y-115899439D01*
X171363433Y-115694704D01*
X171455323Y-115472863D01*
X171511377Y-115239379D01*
X171530217Y-115000000D01*
X171511377Y-114760621D01*
X171455323Y-114527137D01*
X171439747Y-114489535D01*
X171433635Y-114469356D01*
X171433221Y-114469470D01*
X171279730Y-113908787D01*
X171268970Y-113869486D01*
X171268553Y-113792360D01*
X171306755Y-113725358D01*
X171373341Y-113686433D01*
X171450468Y-113686015D01*
X171509451Y-113716845D01*
X171581892Y-113778716D01*
X171799988Y-113912365D01*
X172036292Y-114010244D01*
X172285002Y-114069955D01*
X172540000Y-114090024D01*
X172794997Y-114069955D01*
X173043707Y-114010244D01*
X173280013Y-113912364D01*
X173280018Y-113912361D01*
X173498098Y-113778722D01*
X173498102Y-113778719D01*
X173501911Y-113775466D01*
X172940561Y-113214115D01*
X172942626Y-113213260D01*
X173081844Y-113120238D01*
X173200238Y-113001844D01*
X173293260Y-112862626D01*
X173294115Y-112860560D01*
X173855466Y-113421911D01*
X173858719Y-113418102D01*
X173858722Y-113418098D01*
X173992361Y-113200018D01*
X173992364Y-113200013D01*
X174090244Y-112963707D01*
X174149955Y-112714997D01*
X174170024Y-112460000D01*
X174149955Y-112205002D01*
X174090244Y-111956292D01*
X173992365Y-111719988D01*
X173858717Y-111501893D01*
X173858713Y-111501888D01*
X173855466Y-111498087D01*
X173294114Y-112059437D01*
X173293260Y-112057374D01*
X173200238Y-111918156D01*
X173081844Y-111799762D01*
X172942626Y-111706740D01*
X172940560Y-111705884D01*
X173501912Y-111144533D01*
X173501911Y-111144532D01*
X173498107Y-111141283D01*
X173280018Y-111007638D01*
X173280013Y-111007635D01*
X173043707Y-110909755D01*
X172794997Y-110850044D01*
X172540000Y-110829975D01*
X172285002Y-110850044D01*
X172036292Y-110909755D01*
X171799986Y-111007635D01*
X171799981Y-111007638D01*
X171581897Y-111141279D01*
X171581896Y-111141280D01*
X171578087Y-111144532D01*
X171578087Y-111144533D01*
X172139438Y-111705884D01*
X172137374Y-111706740D01*
X171998156Y-111799762D01*
X171879762Y-111918156D01*
X171786740Y-112057374D01*
X171785884Y-112059438D01*
X171224533Y-111498087D01*
X171159400Y-111500653D01*
X171159377Y-111500085D01*
X171122369Y-111503004D01*
X171052749Y-111469810D01*
X171009054Y-111406254D01*
X171000500Y-111356495D01*
X171000500Y-108763960D01*
X170962051Y-108570665D01*
X170962050Y-108570663D01*
X170931225Y-108496245D01*
X170886632Y-108388586D01*
X170886631Y-108388585D01*
X170886631Y-108388583D01*
X170829400Y-108302932D01*
X170811393Y-108258462D01*
X170809700Y-108258954D01*
X170807576Y-108251642D01*
X170761370Y-108092600D01*
X170761367Y-108092595D01*
X170761367Y-108092594D01*
X170751464Y-108075849D01*
X170730721Y-108001562D01*
X170749901Y-107926857D01*
X170751464Y-107924151D01*
X170759816Y-107910027D01*
X170761370Y-107907400D01*
X170807576Y-107748358D01*
X170810500Y-107711203D01*
X170810499Y-107426220D01*
X170830461Y-107351720D01*
X170843854Y-107332267D01*
X171804582Y-106149832D01*
X171867053Y-106104601D01*
X171868068Y-106104218D01*
X171893331Y-106094796D01*
X172008546Y-106008546D01*
X172094796Y-105893331D01*
X172145091Y-105758483D01*
X172150291Y-105710122D01*
X172151499Y-105698885D01*
X172151499Y-105698882D01*
X172151500Y-105698873D01*
X172151499Y-105095128D01*
X172145091Y-105035517D01*
X172125994Y-104984315D01*
X172094797Y-104900670D01*
X172094795Y-104900666D01*
X172008547Y-104785455D01*
X172008544Y-104785452D01*
X171893333Y-104699204D01*
X171893329Y-104699202D01*
X171758482Y-104648908D01*
X171698876Y-104642500D01*
X168301136Y-104642500D01*
X168301111Y-104642502D01*
X168241521Y-104648908D01*
X168241515Y-104648909D01*
X168106670Y-104699202D01*
X168106666Y-104699204D01*
X167991455Y-104785452D01*
X167991452Y-104785455D01*
X167905204Y-104900666D01*
X167905202Y-104900670D01*
X167854908Y-105035517D01*
X167848500Y-105095114D01*
X167848500Y-105698863D01*
X167848502Y-105698888D01*
X167854908Y-105758478D01*
X167854909Y-105758484D01*
X167905202Y-105893329D01*
X167905205Y-105893333D01*
X167991454Y-106008546D01*
X167991455Y-106008547D01*
X167993446Y-106011206D01*
X168022112Y-106082809D01*
X168011136Y-106159153D01*
X167963460Y-106219780D01*
X167891857Y-106248446D01*
X167874166Y-106249500D01*
X167673139Y-106249500D01*
X167602965Y-106231940D01*
X166459925Y-105621688D01*
X166424740Y-105595607D01*
X166321848Y-105492715D01*
X166113806Y-105333078D01*
X165886701Y-105201959D01*
X165886699Y-105201958D01*
X165886697Y-105201957D01*
X165811154Y-105170666D01*
X165644416Y-105101600D01*
X165397785Y-105035517D01*
X165391116Y-105033730D01*
X165391114Y-105033729D01*
X165391108Y-105033728D01*
X165131123Y-104999500D01*
X165131120Y-104999500D01*
X163006506Y-104999500D01*
X162993519Y-104998933D01*
X162839424Y-104985451D01*
X162813847Y-104980941D01*
X162670745Y-104942597D01*
X162646338Y-104933714D01*
X162512063Y-104871100D01*
X162489571Y-104858114D01*
X162368211Y-104773137D01*
X162348315Y-104756442D01*
X162243557Y-104651684D01*
X162226862Y-104631788D01*
X162209974Y-104607670D01*
X162141885Y-104510428D01*
X162128899Y-104487936D01*
X162090786Y-104406204D01*
X162066284Y-104353660D01*
X162057402Y-104329254D01*
X162019056Y-104186144D01*
X162014549Y-104160582D01*
X162001067Y-104006479D01*
X162000500Y-103993493D01*
X162000500Y-98649499D01*
X162020462Y-98574999D01*
X162075000Y-98520461D01*
X162149500Y-98500499D01*
X162360004Y-98500499D01*
X162360008Y-98500499D01*
X162462797Y-98489999D01*
X162629334Y-98434814D01*
X162778656Y-98342712D01*
X162902712Y-98218656D01*
X162994814Y-98069334D01*
X163049999Y-97902797D01*
X163060500Y-97800009D01*
X163060499Y-96159992D01*
X163049999Y-96057203D01*
X162994814Y-95890666D01*
X162902712Y-95741344D01*
X162778656Y-95617288D01*
X162629334Y-95525186D01*
X162546065Y-95497593D01*
X162462798Y-95470001D01*
X162445665Y-95468250D01*
X162360009Y-95459500D01*
X162360004Y-95459500D01*
X158059996Y-95459500D01*
X157957202Y-95470001D01*
X157790666Y-95525186D01*
X157641343Y-95617288D01*
X157517288Y-95741343D01*
X157425186Y-95890666D01*
X157370001Y-96057201D01*
X157359500Y-96159995D01*
X157359500Y-97800003D01*
X157359501Y-97800008D01*
X157370001Y-97902797D01*
X157425186Y-98069334D01*
X157517288Y-98218656D01*
X157641344Y-98342712D01*
X157790666Y-98434814D01*
X157897369Y-98470172D01*
X157961807Y-98512554D01*
X157996422Y-98581478D01*
X157999500Y-98611608D01*
X157999500Y-103993493D01*
X157998933Y-104006480D01*
X157985451Y-104160575D01*
X157980941Y-104186152D01*
X157942597Y-104329254D01*
X157933714Y-104353661D01*
X157871100Y-104487936D01*
X157858114Y-104510428D01*
X157773137Y-104631788D01*
X157756442Y-104651684D01*
X157651684Y-104756442D01*
X157631788Y-104773137D01*
X157510428Y-104858114D01*
X157487936Y-104871100D01*
X157353661Y-104933714D01*
X157329254Y-104942597D01*
X157186152Y-104980941D01*
X157160575Y-104985451D01*
X157006481Y-104998933D01*
X156993494Y-104999500D01*
X154869657Y-104999500D01*
X154722549Y-105018868D01*
X154722547Y-105018868D01*
X154609673Y-105033727D01*
X154382867Y-105094500D01*
X154382866Y-105094499D01*
X154356362Y-105101601D01*
X154356360Y-105101602D01*
X154114079Y-105201959D01*
X153886974Y-105333078D01*
X153886973Y-105333078D01*
X153806331Y-105394959D01*
X153806330Y-105394960D01*
X153678936Y-105492711D01*
X153575567Y-105596079D01*
X153540433Y-105622133D01*
X152397864Y-106232695D01*
X152327640Y-106250281D01*
X151738478Y-106250281D01*
X151663978Y-106230319D01*
X151609440Y-106175781D01*
X151589478Y-106101281D01*
X151609440Y-106026781D01*
X151611339Y-106023585D01*
X151690938Y-105893331D01*
X151785775Y-105738144D01*
X151798005Y-105710110D01*
X151815288Y-105680411D01*
X151843796Y-105642331D01*
X151894091Y-105507483D01*
X151897464Y-105476108D01*
X151900499Y-105447885D01*
X151900499Y-105447882D01*
X151900500Y-105447873D01*
X151900499Y-104802128D01*
X151894091Y-104742517D01*
X151856788Y-104642502D01*
X151843797Y-104607670D01*
X151843795Y-104607666D01*
X151757547Y-104492455D01*
X151757544Y-104492452D01*
X151642333Y-104406204D01*
X151642329Y-104406202D01*
X151507482Y-104355908D01*
X151447876Y-104349500D01*
X148552136Y-104349500D01*
X148552111Y-104349502D01*
X148492521Y-104355908D01*
X148492515Y-104355909D01*
X148357670Y-104406202D01*
X148357666Y-104406204D01*
X148242455Y-104492452D01*
X148242452Y-104492455D01*
X148156204Y-104607666D01*
X148156202Y-104607670D01*
X148105908Y-104742517D01*
X148099500Y-104802114D01*
X148099500Y-105447863D01*
X148099502Y-105447888D01*
X148105908Y-105507478D01*
X148105909Y-105507484D01*
X148156202Y-105642328D01*
X148156206Y-105642335D01*
X148185146Y-105680995D01*
X148202764Y-105711469D01*
X148214220Y-105738134D01*
X148214229Y-105738152D01*
X149167639Y-107298276D01*
X149189454Y-107372255D01*
X149189500Y-107375972D01*
X149189500Y-107711190D01*
X149189501Y-107711208D01*
X149192423Y-107748354D01*
X149192424Y-107748359D01*
X149219008Y-107839862D01*
X149220623Y-107916973D01*
X149199813Y-107964211D01*
X149113369Y-108093583D01*
X149113367Y-108093587D01*
X149037949Y-108275663D01*
X149037948Y-108275665D01*
X148999500Y-108468960D01*
X148999500Y-111356511D01*
X148979538Y-111431011D01*
X148925000Y-111485549D01*
X148850500Y-111505511D01*
X148830933Y-111500268D01*
X148775466Y-111498087D01*
X148214114Y-112059438D01*
X148213260Y-112057374D01*
X148120238Y-111918156D01*
X148001844Y-111799762D01*
X147862626Y-111706740D01*
X147860560Y-111705884D01*
X148421912Y-111144533D01*
X148421911Y-111144532D01*
X148418107Y-111141283D01*
X148200018Y-111007638D01*
X148200013Y-111007635D01*
X147963707Y-110909755D01*
X147714997Y-110850044D01*
X147460000Y-110829975D01*
X147205002Y-110850044D01*
X146956292Y-110909755D01*
X146719986Y-111007635D01*
X146719981Y-111007638D01*
X146501897Y-111141279D01*
X146501896Y-111141280D01*
X146498087Y-111144532D01*
X146498087Y-111144533D01*
X147059438Y-111705884D01*
X147057374Y-111706740D01*
X146918156Y-111799762D01*
X146799762Y-111918156D01*
X146706740Y-112057374D01*
X146705884Y-112059438D01*
X146144533Y-111498087D01*
X146144532Y-111498087D01*
X146141280Y-111501896D01*
X146141279Y-111501897D01*
X146007638Y-111719981D01*
X146007635Y-111719986D01*
X145909755Y-111956292D01*
X145850044Y-112205002D01*
X145829975Y-112460000D01*
X136000000Y-112460000D01*
X136000000Y-95652177D01*
X139200000Y-95652177D01*
X139200000Y-96750000D01*
X140399999Y-96750000D01*
X140374979Y-96810402D01*
X140350000Y-96935981D01*
X140350000Y-97064019D01*
X140374979Y-97189598D01*
X140399999Y-97250000D01*
X139200000Y-97250000D01*
X139200000Y-98347822D01*
X139200001Y-98347842D01*
X139206401Y-98407377D01*
X139256645Y-98542084D01*
X139256650Y-98542094D01*
X139342809Y-98657187D01*
X139342812Y-98657190D01*
X139457905Y-98743349D01*
X139457915Y-98743354D01*
X139592623Y-98793598D01*
X139592621Y-98793598D01*
X139652157Y-98799998D01*
X139652177Y-98800000D01*
X140750000Y-98800000D01*
X140750000Y-97600001D01*
X140810402Y-97625021D01*
X140935981Y-97650000D01*
X141064019Y-97650000D01*
X141189598Y-97625021D01*
X141250000Y-97600001D01*
X141250000Y-98800000D01*
X142347823Y-98800000D01*
X142347842Y-98799998D01*
X142407377Y-98793598D01*
X142542084Y-98743354D01*
X142542094Y-98743349D01*
X142657187Y-98657190D01*
X142657190Y-98657187D01*
X142743349Y-98542094D01*
X142743354Y-98542084D01*
X142793598Y-98407377D01*
X142799998Y-98347842D01*
X142800000Y-98347822D01*
X142800000Y-97250000D01*
X141600001Y-97250000D01*
X141625021Y-97189598D01*
X141650000Y-97064019D01*
X141650000Y-96935981D01*
X141625021Y-96810402D01*
X141600001Y-96750000D01*
X142800000Y-96750000D01*
X142800000Y-95652177D01*
X142799998Y-95652157D01*
X142793598Y-95592622D01*
X142743354Y-95457915D01*
X142743349Y-95457905D01*
X142657190Y-95342812D01*
X142657187Y-95342809D01*
X142542094Y-95256650D01*
X142542084Y-95256645D01*
X142407376Y-95206401D01*
X142407378Y-95206401D01*
X142347842Y-95200001D01*
X142347823Y-95200000D01*
X141250000Y-95200000D01*
X141250000Y-96399998D01*
X141189598Y-96374979D01*
X141064019Y-96350000D01*
X140935981Y-96350000D01*
X140810402Y-96374979D01*
X140750000Y-96399998D01*
X140750000Y-95200000D01*
X139652177Y-95200000D01*
X139652157Y-95200001D01*
X139592622Y-95206401D01*
X139457915Y-95256645D01*
X139457905Y-95256650D01*
X139342812Y-95342809D01*
X139342809Y-95342812D01*
X139256650Y-95457905D01*
X139256645Y-95457915D01*
X139206401Y-95592622D01*
X139200001Y-95652157D01*
X139200000Y-95652177D01*
X136000000Y-95652177D01*
X136000000Y-91868876D01*
X138999500Y-91868876D01*
X138999500Y-92131123D01*
X139033728Y-92391107D01*
X139033728Y-92391110D01*
X139101600Y-92644415D01*
X139101600Y-92644416D01*
X139201959Y-92886701D01*
X139333078Y-93113806D01*
X139333078Y-93113807D01*
X139492715Y-93321848D01*
X139678151Y-93507284D01*
X139795862Y-93597607D01*
X139886197Y-93666924D01*
X140113303Y-93798043D01*
X140317809Y-93882752D01*
X140355583Y-93898399D01*
X140443332Y-93921910D01*
X140608884Y-93966270D01*
X140608890Y-93966270D01*
X140608891Y-93966271D01*
X140645834Y-93971134D01*
X140868877Y-94000499D01*
X140868878Y-94000500D01*
X140868880Y-94000500D01*
X143131122Y-94000500D01*
X143131122Y-94000499D01*
X143261118Y-93983385D01*
X143391116Y-93966271D01*
X143644419Y-93898398D01*
X143644425Y-93898395D01*
X143644427Y-93898395D01*
X143715388Y-93869001D01*
X143886697Y-93798043D01*
X143952105Y-93760280D01*
X144113803Y-93666924D01*
X144204131Y-93597611D01*
X144321851Y-93507283D01*
X146784993Y-91044141D01*
X146851788Y-91005577D01*
X146890352Y-91000500D01*
X149492206Y-91000500D01*
X149511653Y-91001774D01*
X149653881Y-91020499D01*
X149916121Y-91020499D01*
X150058348Y-91001774D01*
X150077796Y-91000500D01*
X154131122Y-91000500D01*
X154131122Y-91000499D01*
X154391108Y-90966271D01*
X154391110Y-90966271D01*
X154391111Y-90966270D01*
X154391116Y-90966270D01*
X154644415Y-90898399D01*
X154644416Y-90898399D01*
X154644417Y-90898398D01*
X154644419Y-90898398D01*
X154886697Y-90798043D01*
X155113803Y-90666924D01*
X155264498Y-90551291D01*
X155335755Y-90521775D01*
X155355204Y-90520500D01*
X155484492Y-90520500D01*
X155531360Y-90528063D01*
X155533423Y-90528746D01*
X155537203Y-90529999D01*
X155639991Y-90540500D01*
X159940008Y-90540499D01*
X160042797Y-90529999D01*
X160209334Y-90474814D01*
X160358656Y-90382712D01*
X160482712Y-90258656D01*
X160574814Y-90109334D01*
X160629999Y-89942797D01*
X160640500Y-89840009D01*
X160640499Y-88199992D01*
X160629999Y-88097203D01*
X160574814Y-87930666D01*
X160482712Y-87781344D01*
X160358656Y-87657288D01*
X160209334Y-87565186D01*
X160126065Y-87537593D01*
X160042798Y-87510001D01*
X160025665Y-87508250D01*
X159940009Y-87499500D01*
X159940004Y-87499500D01*
X155639996Y-87499500D01*
X155537202Y-87510001D01*
X155531361Y-87511937D01*
X155484493Y-87519500D01*
X155407333Y-87519500D01*
X155332833Y-87499538D01*
X155316627Y-87488709D01*
X155113806Y-87333078D01*
X155020919Y-87279450D01*
X154990641Y-87261969D01*
X154886701Y-87201959D01*
X154886699Y-87201958D01*
X154886697Y-87201957D01*
X154811154Y-87170666D01*
X154644416Y-87101600D01*
X154398005Y-87035576D01*
X154391116Y-87033730D01*
X154391114Y-87033729D01*
X154391108Y-87033728D01*
X154131123Y-86999500D01*
X154131120Y-86999500D01*
X149896121Y-86999500D01*
X145868880Y-86999500D01*
X145868876Y-86999500D01*
X145721768Y-87018868D01*
X145721766Y-87018868D01*
X145608892Y-87033727D01*
X145355577Y-87101603D01*
X145113298Y-87201959D01*
X144886194Y-87333077D01*
X144795867Y-87402388D01*
X144678149Y-87492717D01*
X144678147Y-87492718D01*
X142215007Y-89955859D01*
X142148212Y-89994423D01*
X142109648Y-89999500D01*
X140868876Y-89999500D01*
X140608892Y-90033728D01*
X140608889Y-90033728D01*
X140355584Y-90101600D01*
X140355583Y-90101600D01*
X140113298Y-90201959D01*
X139886193Y-90333078D01*
X139886192Y-90333078D01*
X139678151Y-90492715D01*
X139678151Y-90492716D01*
X139678149Y-90492718D01*
X139492718Y-90678149D01*
X139492716Y-90678151D01*
X139492715Y-90678151D01*
X139333078Y-90886192D01*
X139333078Y-90886193D01*
X139201959Y-91113298D01*
X139101600Y-91355583D01*
X139101600Y-91355584D01*
X139033728Y-91608889D01*
X139033728Y-91608892D01*
X138999500Y-91868876D01*
X136000000Y-91868876D01*
X136000000Y-86149000D01*
X136019962Y-86074500D01*
X136074500Y-86019962D01*
X136149000Y-86000000D01*
X178802552Y-86000000D01*
X178877052Y-86019962D01*
G37*
%TD.AperFunction*%
%TD*%
%TA.AperFunction,Conductor*%
%TO.N,Net-(J1-In)*%
G36*
X170499345Y-112978427D02*
G01*
X170502357Y-112983611D01*
X170944255Y-114597808D01*
X170943134Y-114606692D01*
X170937457Y-114611702D01*
X170004487Y-114999136D01*
X169995532Y-114999144D01*
X169995513Y-114999136D01*
X169062542Y-114611702D01*
X169056216Y-114605365D01*
X169055744Y-114597808D01*
X169497643Y-112983611D01*
X169503133Y-112976536D01*
X169508928Y-112975000D01*
X170491072Y-112975000D01*
X170499345Y-112978427D01*
G37*
%TD.AperFunction*%
%TD*%
%TA.AperFunction,Conductor*%
%TO.N,Net-(J2-In)*%
G36*
X150499345Y-112978427D02*
G01*
X150502357Y-112983611D01*
X150944255Y-114597808D01*
X150943134Y-114606692D01*
X150937457Y-114611702D01*
X150004487Y-114999136D01*
X149995532Y-114999144D01*
X149995513Y-114999136D01*
X149062542Y-114611702D01*
X149056216Y-114605365D01*
X149055744Y-114597808D01*
X149497643Y-112983611D01*
X149503133Y-112976536D01*
X149508928Y-112975000D01*
X150491072Y-112975000D01*
X150499345Y-112978427D01*
G37*
%TD.AperFunction*%
%TD*%
%TA.AperFunction,Conductor*%
%TO.N,Net-(LED1-anode)*%
G36*
X150488833Y-106891000D02*
G01*
X150488833Y-107247740D01*
X150487353Y-107253436D01*
X150315216Y-107562257D01*
X150308194Y-107567815D01*
X150300219Y-107567241D01*
X150289077Y-107562257D01*
X150245389Y-107542714D01*
X150004904Y-107435140D01*
X149998751Y-107428634D01*
X149998096Y-107426095D01*
X149966182Y-107200000D01*
X149947127Y-107065000D01*
X150488833Y-106750781D01*
X150488833Y-106891000D01*
G37*
%TD.AperFunction*%
%TD*%
%TA.AperFunction,Conductor*%
%TO.N,Net-(LED1-anode)*%
G36*
X170052189Y-107065000D02*
G01*
X170033385Y-107200000D01*
X170001893Y-107426088D01*
X169997358Y-107433809D01*
X169995094Y-107435149D01*
X169699730Y-107567667D01*
X169690779Y-107567927D01*
X169684754Y-107562747D01*
X169509598Y-107252678D01*
X169508085Y-107246923D01*
X169508085Y-106963797D01*
X169508085Y-106963796D01*
X169508085Y-106750000D01*
X170052189Y-107065000D01*
G37*
%TD.AperFunction*%
%TD*%
%TA.AperFunction,Conductor*%
%TO.N,Net-(LED1-anode)*%
G36*
X153911342Y-106005909D02*
G01*
X154992302Y-106991359D01*
X154996108Y-106999465D01*
X154993066Y-107007887D01*
X154992308Y-107008646D01*
X153912023Y-107994770D01*
X153903602Y-107997817D01*
X153898628Y-107996452D01*
X153895475Y-107994770D01*
X153639066Y-107857978D01*
X152507098Y-107254084D01*
X152501411Y-107247166D01*
X152500905Y-107243761D01*
X152500905Y-106757794D01*
X152504332Y-106749521D01*
X152507089Y-106747476D01*
X153897948Y-106004235D01*
X153906858Y-106003359D01*
X153911342Y-106005909D01*
G37*
%TD.AperFunction*%
%TD*%
%TA.AperFunction,Conductor*%
%TO.N,Net-(LED1-anode)*%
G36*
X153911342Y-106005909D02*
G01*
X154992302Y-106991359D01*
X154996108Y-106999465D01*
X154993066Y-107007887D01*
X154992308Y-107008646D01*
X153912023Y-107994770D01*
X153903602Y-107997817D01*
X153898628Y-107996452D01*
X153895475Y-107994770D01*
X153639066Y-107857978D01*
X152507098Y-107254084D01*
X152501411Y-107247166D01*
X152500905Y-107243761D01*
X152500905Y-106757794D01*
X152504332Y-106749521D01*
X152507089Y-106747476D01*
X153897948Y-106004235D01*
X153906858Y-106003359D01*
X153911342Y-106005909D01*
G37*
%TD.AperFunction*%
%TD*%
%TA.AperFunction,Conductor*%
%TO.N,Net-(LED1-anode)*%
G36*
X166102493Y-106003892D02*
G01*
X167493810Y-106746695D01*
X167499495Y-106753614D01*
X167500000Y-106757016D01*
X167500000Y-107242983D01*
X167496573Y-107251256D01*
X167493810Y-107253304D01*
X166102493Y-107996107D01*
X166093581Y-107996981D01*
X166089098Y-107994430D01*
X165445982Y-107407754D01*
X165008474Y-107008643D01*
X165004672Y-107000536D01*
X165007716Y-106992115D01*
X165008468Y-106991362D01*
X166089098Y-106005568D01*
X166097519Y-106002525D01*
X166102493Y-106003892D01*
G37*
%TD.AperFunction*%
%TD*%
M02*
